<svg width="100" height="16" viewBox="0 0 100 16" fill="none" xmlns="http://www.w3.org/2000/svg">
<path d="M7.1376 0.53184V12.755C7.1376 13.6581 7.2306 14.2451 7.42434 14.4664C7.77907 14.8024 8.23214 14.9644 8.68757 14.9179H9.19518V15.3288H2.99531V14.9179H3.5068C3.7491 14.9465 3.99378 14.91 4.22214 14.8114C4.45049 14.7128 4.65646 14.5546 4.82427 14.349C4.97927 14.1277 5.06064 13.5949 5.06064 12.755V1.38525H3.29756C2.81251 1.36406 2.32707 1.41259 1.85221 1.52974C1.46692 1.67233 1.12954 1.95179 0.887356 2.32897C0.594129 2.80001 0.430622 3.36373 0.418491 3.94548H0V0.455078H7.1531" fill="#1E201F"/>
<path d="M23.3438 1.26785V7.13787H26.5519C26.9345 7.14657 27.3167 7.10415 27.691 7.01144C27.946 6.94765 28.1839 6.81286 28.3845 6.6186C28.556 6.44124 28.6787 6.20873 28.7371 5.95032C28.8061 5.63081 28.8476 5.30409 28.8611 4.97499H29.2485V10.1496H28.8611C28.8134 9.79685 28.75 9.44719 28.6712 9.10207C28.6144 8.84418 28.4994 8.60874 28.338 8.42024C28.1565 8.23102 27.9341 8.10302 27.6949 8.04998C27.3212 7.96386 26.9405 7.926 26.5596 7.9371H23.3438V12.8453C23.3232 13.2494 23.3492 13.6549 23.4213 14.0509C23.4498 14.1295 23.4921 14.2003 23.5455 14.2586C23.5989 14.3169 23.6622 14.3616 23.7313 14.3896C23.833 14.437 23.94 14.4674 24.049 14.4799C24.2172 14.5061 24.3868 14.5182 24.5565 14.516H27.0362C27.4508 14.516 27.8111 14.516 28.0901 14.4799C28.3413 14.4677 28.5908 14.4238 28.8339 14.349C29.0302 14.2886 29.2191 14.1991 29.3957 14.0826C29.5811 13.9522 29.755 13.801 29.9149 13.631C30.4623 13.0411 30.9241 12.3519 31.2826 11.5901H31.7166L30.4496 15.3153H19.1865V14.9044H19.6941C19.8408 14.9022 19.9871 14.8871 20.1319 14.8592C20.2761 14.8282 20.4175 14.7813 20.5542 14.7192C20.6805 14.6585 20.7991 14.578 20.9068 14.4799C21.0065 14.3874 21.0872 14.2702 21.1431 14.1367C21.2541 13.6651 21.2973 13.1754 21.271 12.6873V3.0424C21.2763 2.66613 21.2543 2.29 21.2051 1.91807C21.1887 1.69739 21.1173 1.4871 20.9998 1.313C20.6287 0.976703 20.1625 0.815504 19.6941 0.861464H19.1865V0.455078H30.4496V3.72423H30.19C30.1105 3.28354 29.9991 2.85152 29.8568 2.43282C29.7587 2.13632 29.5909 1.87808 29.3725 1.68778C29.1415 1.50514 28.8753 1.3919 28.5976 1.35816C28.1912 1.30397 27.7823 1.27984 27.3733 1.28591L23.3438 1.26785Z" fill="#1E201F"/>
<path d="M51.4219 0.111864L51.7473 5.1646H51.4219C51.2174 4.46799 50.9347 3.80599 50.5811 3.19588C50.2795 2.67995 49.9017 2.23048 49.4653 1.86835C49.0472 1.52727 48.5801 1.27645 48.086 1.12783C47.5495 0.966274 46.9972 0.887335 46.4432 0.893028C45.7539 0.886942 45.0704 1.04042 44.4323 1.34457C43.8152 1.64363 43.267 2.10767 42.8322 2.69919C42.3486 3.35918 41.986 4.12751 41.7667 4.95689C41.4943 5.99221 41.3636 7.07106 41.3792 8.15379C41.367 9.10178 41.4981 10.0449 41.7667 10.9398C41.9962 11.7119 42.3678 12.4162 42.8554 13.0033C43.3365 13.5631 43.9171 13.9932 44.5563 14.2631C45.285 14.5717 46.0554 14.7246 46.8306 14.7147C47.2761 14.7172 47.7208 14.6733 48.1596 14.5837C48.5737 14.492 48.9734 14.3276 49.3452 14.0961C49.765 13.8377 50.1555 13.5191 50.5075 13.1478C50.9525 12.677 51.3669 12.1684 51.7473 11.6261L52.0883 11.8474C51.4614 13.0581 50.5782 14.0609 49.5234 14.7598C48.444 15.3955 47.2452 15.706 46.0364 15.6629C45.0639 15.6748 44.0973 15.4868 43.1809 15.1075C42.3488 14.7614 41.5828 14.2292 40.9259 13.5407C40.2946 12.8757 39.7903 12.0634 39.4459 11.1565C39.0873 10.1986 38.9077 9.16271 38.919 8.11767C38.9099 7.02888 39.1028 5.95066 39.4846 4.95689C39.8529 3.99906 40.3795 3.13521 41.0344 2.41472C41.7242 1.68831 42.5245 1.11862 43.394 0.734989C44.3406 0.310656 45.3476 0.0992177 46.3618 0.111864C46.8906 0.111891 47.4178 0.176972 47.9349 0.306026C48.4677 0.437668 48.9872 0.634423 49.4846 0.893028C49.6106 0.963543 49.7399 1.02536 49.8721 1.07816C49.9546 1.11801 50.0424 1.14092 50.1317 1.14589C50.2411 1.14951 50.3498 1.12511 50.4502 1.07439C50.5507 1.02368 50.6403 0.947895 50.7128 0.852389C50.8722 0.640045 50.9852 0.386004 51.0422 0.111864H51.4219Z" fill="#1E201F"/>
<path d="M62.1462 2.82115C61.8753 2.3011 61.5262 1.84222 61.1156 1.46653C60.8575 1.27983 60.5819 1.12833 60.2942 1.01499C59.9148 0.90058 59.5235 0.8489 59.1318 0.861464V0.455078H63.2775L68.5778 12.0868L73.789 0.455078H77.923V0.852433H77.4271C77.1822 0.823673 76.9348 0.860372 76.7039 0.95974C76.4729 1.05911 76.2644 1.21853 76.0943 1.42589C75.9393 1.66521 75.8618 2.19802 75.8618 3.02886V12.755C75.8618 13.6581 75.9626 14.2361 76.1602 14.4664C76.5152 14.8049 76.9703 14.967 77.4271 14.9179H77.923V15.3288H71.7239V14.9179H72.2431C72.4854 14.9471 72.7302 14.911 72.9586 14.8124C73.187 14.7137 73.3929 14.5552 73.5604 14.349C73.7192 14.1277 73.7967 13.5949 73.7967 12.755V2.82115L68.1439 15.3243H67.8029L62.1462 2.82115Z" fill="#1E201F"/>
<path d="M94.3937 10.3477H88.7253L87.7334 12.6958C87.5358 13.0901 87.4117 13.5286 87.3692 13.9826C87.3724 14.1071 87.4029 14.2284 87.4579 14.3352C87.5128 14.4419 87.5904 14.5304 87.6831 14.5922C88.1089 14.8301 88.5791 14.9403 89.0508 14.9128V15.3237H84.4634V14.9128C84.8832 14.8837 85.291 14.7381 85.6528 14.4884C86.1729 13.8728 86.5884 13.1482 86.8772 12.3526L92.0109 0.111328H92.3983L97.4855 12.4835C97.7425 13.2108 98.1234 13.8698 98.6052 14.4206C99.0192 14.7391 99.5039 14.9102 100 14.9128V15.3237H94.2271V14.9128C94.4681 14.9099 94.7083 14.8781 94.9438 14.818C95.1043 14.7803 95.2586 14.7133 95.401 14.6193C95.5005 14.5558 95.5835 14.4622 95.6412 14.3484C95.6888 14.2442 95.7128 14.1277 95.711 14.0097C95.6562 13.4727 95.51 12.9538 95.2809 12.4835L94.3937 10.3477ZM94.0953 9.52594L91.6195 3.52046L89.0624 9.52594H94.0953Z" fill="#1E201F"/>
<path d="M9.02862 0.455078H12.5587V3.94548H12.3107C12.2616 3.53042 12.1611 3.12584 12.0123 2.74439C11.8974 2.44025 11.7253 2.17017 11.5086 1.95419C11.2823 1.73834 11.0175 1.58408 10.7336 1.50265C10.3762 1.40977 10.0108 1.36583 9.64473 1.3717H9.00537" fill="#1E201F"/>
<path d="M62.1469 6.68666V12.7554C62.1469 13.6584 62.2438 14.2454 62.4337 14.4667C62.7884 14.8028 63.2415 14.9647 63.6969 14.9182H64.2084V15.3291H59.1206V14.9182H59.6437C59.886 14.9464 60.1306 14.9099 60.3589 14.8113C60.5872 14.7127 60.7932 14.5547 60.9612 14.3493C61.1162 14.128 61.1937 13.5952 61.1937 12.7554V4.91211" fill="#1E201F"/>
</svg>
