<svg width="21" height="20" viewBox="0 0 21 20" fill="none" xmlns="http://www.w3.org/2000/svg">
<path d="M1.5 10L3.5 8M3.5 8L10.5 1L17.5 8M3.5 8V18C3.5 18.2652 3.60536 18.5196 3.79289 18.7071C3.98043 18.8946 4.23478 19 4.5 19H7.5M17.5 8L19.5 10M17.5 8V18C17.5 18.2652 17.3946 18.5196 17.2071 18.7071C17.0196 18.8946 16.7652 19 16.5 19H13.5M7.5 19C7.76522 19 8.01957 18.8946 8.20711 18.7071C8.39464 18.5196 8.5 18.2652 8.5 18V14C8.5 13.7348 8.60536 13.4804 8.79289 13.2929C8.98043 13.1054 9.23478 13 9.5 13H11.5C11.7652 13 12.0196 13.1054 12.2071 13.2929C12.3946 13.4804 12.5 13.7348 12.5 14V18C12.5 18.2652 12.6054 18.5196 12.7929 18.7071C12.9804 18.8946 13.2348 19 13.5 19M7.5 19H13.5" stroke="#C2CADE" stroke-width="1.5" stroke-linecap="round" stroke-linejoin="round"/>
</svg>
