<svg width="116" height="15" viewBox="0 0 116 15" fill="none" xmlns="http://www.w3.org/2000/svg">
<g clip-path="url(#clip0_2034_2484)">
<path d="M8.50901 0.403519V12.1902C8.50901 13.061 8.61639 13.627 8.84009 13.8404C9.24968 14.1644 9.77282 14.3206 10.2987 14.2758H10.8848V14.672H3.72611V14.2758H4.31671C4.59647 14.3033 4.879 14.2682 5.14267 14.1731C5.40633 14.078 5.64415 13.9255 5.83792 13.7272C6.01689 13.5138 6.11085 13 6.11085 12.1902V1.22645H4.0751C3.51504 1.20602 2.95453 1.25281 2.40623 1.36578C1.96135 1.50328 1.57181 1.77275 1.29216 2.13646C0.953589 2.59068 0.764795 3.13427 0.750789 3.69525H0.267578V0.329498H8.5269" fill="#1E2020"/>
<path d="M27.2244 1.11324V6.77362H30.929C31.3708 6.78201 31.8122 6.7411 32.2444 6.6517C32.5389 6.59019 32.8136 6.46022 33.0453 6.27289C33.2433 6.10187 33.385 5.87767 33.4524 5.62848C33.5321 5.32038 33.58 5.00533 33.5956 4.68799H34.043V9.67783H33.5956C33.5405 9.33764 33.4674 9.00047 33.3764 8.66767C33.3108 8.41899 33.1779 8.19196 32.9916 8.01019C32.7819 7.82773 32.5252 7.7043 32.2489 7.65316C31.8173 7.57011 31.3777 7.5336 30.9379 7.5443H27.2244V12.2772C27.2005 12.6669 27.2306 13.0579 27.3139 13.4398C27.3467 13.5156 27.3956 13.5838 27.4572 13.64C27.5189 13.6963 27.592 13.7393 27.6718 13.7664C27.7893 13.8121 27.9128 13.8414 28.0387 13.8534C28.2329 13.8787 28.4288 13.8904 28.6248 13.8883H31.4883C31.967 13.8883 32.3831 13.8883 32.7052 13.8534C32.9954 13.8416 33.2834 13.7993 33.5643 13.7272C33.791 13.669 34.009 13.5826 34.213 13.4703C34.4271 13.3446 34.6279 13.1988 34.8126 13.0349C35.4446 12.466 35.978 11.8014 36.392 11.0668H36.8931L35.43 14.659H22.4236V14.2627H23.0097C23.1791 14.2606 23.3481 14.2461 23.5153 14.2192C23.6819 14.1893 23.8451 14.1441 24.003 14.0842C24.1488 14.0257 24.2858 13.948 24.4101 13.8534C24.5253 13.7643 24.6185 13.6512 24.683 13.5225C24.8112 13.0678 24.8611 12.5955 24.8307 12.1249V2.82442C24.8369 2.46158 24.8114 2.09889 24.7546 1.74024C24.7356 1.52744 24.6532 1.32466 24.5175 1.15678C24.0889 0.832493 23.5507 0.677051 23.0097 0.721371H22.4236V0.329498H35.43V3.48189H35.1302C35.0384 3.05694 34.9097 2.64035 34.7455 2.23661C34.6322 1.9507 34.4384 1.70168 34.1862 1.51818C33.9194 1.34205 33.612 1.23286 33.2914 1.20033C32.8221 1.14807 32.3498 1.12481 31.8775 1.13066L27.2244 1.11324Z" fill="#1E2020"/>
<path d="M59.6489 -0.00198607L60.0248 4.87029H59.6489C59.4128 4.19856 59.0864 3.56021 58.678 2.97189C58.3297 2.47438 57.8934 2.04096 57.3895 1.69177C56.9068 1.36287 56.3673 1.121 55.7967 0.977695C55.1772 0.82191 54.5394 0.74579 53.8996 0.751279C53.1036 0.745411 52.3143 0.89341 51.5775 1.18669C50.8649 1.47508 50.2319 1.92254 49.7297 2.49293C49.1713 3.12936 48.7526 3.87024 48.4993 4.67C48.1848 5.66835 48.0338 6.70867 48.0519 7.75273C48.0377 8.66686 48.1891 9.57627 48.4993 10.4392C48.7643 11.1838 49.1934 11.8629 49.7565 12.4291C50.3121 12.9689 50.9826 13.3836 51.7207 13.6439C52.5622 13.9414 53.4518 14.0889 54.347 14.0793C54.8614 14.0817 55.375 14.0394 55.8817 13.953C56.3599 13.8646 56.8215 13.706 57.2508 13.4828C57.7356 13.2336 58.1865 12.9264 58.593 12.5684C59.1069 12.1144 59.5855 11.624 60.0248 11.1011L60.4185 11.3144C59.6945 12.4819 58.6747 13.4489 57.4566 14.1228C56.2101 14.7358 54.8258 15.0352 53.4298 14.9937C52.3069 15.0052 51.1906 14.8239 50.1324 14.4581C49.1715 14.1244 48.287 13.6111 47.5284 12.9472C46.7993 12.306 46.217 11.5227 45.8193 10.6482C45.4052 9.7245 45.1978 8.72561 45.2108 7.7179C45.2003 6.66799 45.4231 5.62828 45.864 4.67C46.2893 3.74639 46.8974 2.91339 47.6537 2.21862C48.4503 1.51816 49.3744 0.968811 50.3785 0.598885C51.4716 0.189706 52.6345 -0.0141803 53.8057 -0.00198607C54.4163 -0.00196003 55.0251 0.060797 55.6222 0.185242C56.2375 0.312183 56.8374 0.501911 57.4119 0.751279C57.5573 0.819276 57.7067 0.878886 57.8593 0.929799C57.9546 0.968223 58.056 0.990319 58.159 0.995111C58.2854 0.998606 58.411 0.975071 58.5269 0.926168C58.6429 0.877266 58.7464 0.804187 58.8302 0.712092C59.0142 0.507331 59.1446 0.262364 59.2105 -0.00198607H59.6489Z" fill="#1E2020"/>
<path d="M72.0334 2.61107C71.7206 2.10959 71.3174 1.6671 70.8433 1.30482C70.5453 1.1248 70.227 0.978702 69.8947 0.869411C69.4567 0.759089 69.0048 0.709255 68.5525 0.721371V0.329498H73.3399L79.4605 11.5458L85.4783 0.329498H90.2522V0.712662H89.6795C89.3967 0.684929 89.111 0.720317 88.8443 0.816136C88.5776 0.911956 88.3369 1.06568 88.1404 1.26564C87.9615 1.49641 87.872 2.01019 87.872 2.81136V12.1902C87.872 13.061 87.9883 13.6183 88.2165 13.8404C88.6265 14.1668 89.152 14.3232 89.6795 14.2758H90.2522V14.672H83.0936V14.2758H83.6931C83.9729 14.304 84.2556 14.2692 84.5194 14.174C84.7832 14.0789 85.021 13.926 85.2143 13.7272C85.3978 13.5138 85.4872 13 85.4872 12.1902V2.61107L78.9594 14.6677H78.5657L72.0334 2.61107Z" fill="#1E2020"/>
<path d="M109.272 9.87003H102.726L101.581 12.1342C101.352 12.5145 101.209 12.9373 101.16 13.3751C101.164 13.4951 101.199 13.6121 101.262 13.7151C101.326 13.818 101.415 13.9033 101.522 13.9629C102.014 14.1923 102.557 14.2986 103.102 14.2721V14.6683H97.8044V14.2721C98.2892 14.244 98.7602 14.1036 99.178 13.8628C99.7786 13.2692 100.258 12.5704 100.592 11.8033L106.52 -0.000793457H106.968L112.842 11.9295C113.139 12.6309 113.579 13.2663 114.135 13.7975C114.613 14.1046 115.173 14.2695 115.746 14.2721V14.6683H109.079V14.2721C109.358 14.2692 109.635 14.2386 109.907 14.1806C110.092 14.1443 110.271 14.0796 110.435 13.989C110.55 13.9278 110.646 13.8375 110.712 13.7278C110.767 13.6274 110.795 13.515 110.793 13.4012C110.73 12.8834 110.561 12.3831 110.296 11.9295L109.272 9.87003ZM108.927 9.07758L106.068 3.28658L103.115 9.07758H108.927Z" fill="#1E2020"/>
<path d="M10.6924 0.329498H14.7683V3.69525H14.482C14.4253 3.295 14.3092 2.90488 14.1375 2.53705C14.0049 2.24377 13.8061 1.98334 13.5558 1.77507C13.2946 1.56693 12.9889 1.41818 12.661 1.33966C12.2484 1.2501 11.8265 1.20772 11.4038 1.21339H10.6655" fill="#1E2020"/>
<path d="M72.0334 6.33755V12.1895C72.0334 13.0603 72.1452 13.6264 72.3645 13.8397C72.7741 14.1638 73.2972 14.32 73.8231 14.2751H74.4137V14.6714H68.5391V14.2751H69.1431C69.4228 14.3023 69.7053 14.2671 69.9689 14.172C70.2325 14.0769 70.4703 13.9246 70.6643 13.7265C70.8433 13.5132 70.9327 12.9994 70.9327 12.1895V4.62637" fill="#1E2020"/>
</g>
<defs>
<clipPath id="clip0_2034_2484">
<rect width="115.465" height="15" fill="white" transform="translate(0.267578)"/>
</clipPath>
</defs>
</svg>
