<svg width="16" height="16" viewBox="0 0 16 16" fill="none" xmlns="http://www.w3.org/2000/svg">
<path d="M9.88578 6.55228C10.3859 6.05219 10.6668 5.37391 10.6668 4.66667C10.6668 3.95942 10.3859 3.28115 9.88578 2.78105C9.38568 2.28095 8.70741 2 8.00016 2C7.29292 2 6.61464 2.28095 6.11454 2.78105C5.61445 3.28115 5.3335 3.95942 5.3335 4.66667C5.3335 5.37391 5.61445 6.05219 6.11454 6.55228C6.61464 7.05238 7.29292 7.33333 8.00016 7.33333C8.70741 7.33333 9.38568 7.05238 9.88578 6.55228Z" stroke="white" stroke-width="1.5" stroke-linecap="round" stroke-linejoin="round"/>
<path d="M4.70033 10.7002C5.5755 9.825 6.76249 9.33333 8.00016 9.33333C9.23784 9.33333 10.4248 9.825 11.3 10.7002C12.1752 11.5753 12.6668 12.7623 12.6668 14H3.3335C3.3335 12.7623 3.82516 11.5753 4.70033 10.7002Z" stroke="white" stroke-width="1.5" stroke-linecap="round" stroke-linejoin="round"/>
</svg>
