<svg width="25" height="25" viewBox="0 0 25 25" fill="none" xmlns="http://www.w3.org/2000/svg">
<path fill-rule="evenodd" clip-rule="evenodd" d="M10.8606 2.54663C12.7519 2.17043 14.7123 2.36351 16.4939 3.10146C18.2754 3.83942 19.7982 5.0891 20.8695 6.69248C21.9409 8.29586 22.5127 10.1809 22.5127 12.1093V13.6093C22.5127 14.4712 22.1703 15.2979 21.5608 15.9074C20.9513 16.5169 20.1247 16.8593 19.2627 16.8593C18.4007 16.8593 17.5741 16.5169 16.9646 15.9074C16.741 15.6838 16.5533 15.4309 16.4053 15.1579C16.3157 15.265 16.221 15.3685 16.1215 15.468C15.2307 16.3588 14.0225 16.8593 12.7627 16.8593C11.5029 16.8593 10.2947 16.3588 9.40394 15.468C8.51314 14.5772 8.0127 13.3691 8.0127 12.1093C8.0127 10.8495 8.51314 9.64133 9.40394 8.75053C10.2947 7.85973 11.5029 7.35929 12.7627 7.35929C14.0225 7.35929 15.2307 7.85973 16.1215 8.75053C17.0123 9.64133 17.5127 10.8495 17.5127 12.1093V13.6093C17.5127 14.0734 17.6971 14.5185 18.0253 14.8467C18.3535 15.1749 18.7986 15.3593 19.2627 15.3593C19.7268 15.3593 20.1719 15.1749 20.5001 14.8467C20.8283 14.5185 21.0127 14.0734 21.0127 13.6093V12.1093C21.0127 10.4776 20.5288 8.88254 19.6223 7.52583C18.7158 6.16913 17.4273 5.1117 15.9198 4.48728C14.4123 3.86286 12.7535 3.69948 11.1532 4.01781C9.55286 4.33614 8.08285 5.12187 6.92907 6.27566C5.77529 7.42944 4.98955 8.89945 4.67122 10.4998C4.35289 12.1001 4.51627 13.7589 5.14069 15.2664C5.76512 16.7739 6.82254 18.0624 8.17925 18.9689C9.53595 19.8754 11.131 20.3593 12.7627 20.3593H12.7634C14.2117 20.3607 15.6342 19.98 16.8867 19.2543C17.2451 19.0467 17.704 19.1689 17.9117 19.5273C18.1193 19.8857 17.9971 20.3446 17.6387 20.5522C16.1566 21.4109 14.4741 21.861 12.762 21.8593L12.7627 21.1093V21.8593C12.7625 21.8593 12.7622 21.8593 12.762 21.8593C10.8338 21.8591 8.94906 21.2873 7.34589 20.2161C5.74251 19.1448 4.49283 17.622 3.75487 15.8405C3.01692 14.0589 2.82384 12.0985 3.20004 10.2072C3.57625 8.31584 4.50485 6.57856 5.86841 5.215C7.23197 3.85143 8.96925 2.92284 10.8606 2.54663ZM16.0127 12.1093C16.0127 11.2473 15.6703 10.4207 15.0608 9.81119C14.4513 9.2017 13.6247 8.85929 12.7627 8.85929C11.9007 8.85929 11.0741 9.2017 10.4646 9.81119C9.85511 10.4207 9.5127 11.2473 9.5127 12.1093C9.5127 12.9712 9.85511 13.7979 10.4646 14.4074C11.0741 15.0169 11.9007 15.3593 12.7627 15.3593C13.6247 15.3593 14.4513 15.0169 15.0608 14.4074C15.6703 13.7979 16.0127 12.9712 16.0127 12.1093Z" fill="#3B3B3B"/>
</svg>
