<svg width="25" height="25" viewBox="0 0 25 25" fill="none" xmlns="http://www.w3.org/2000/svg">
<path fill-rule="evenodd" clip-rule="evenodd" d="M4.49125 4.2734C5.00697 3.75767 5.70645 3.46794 6.43579 3.46794H18.4358C19.1651 3.46794 19.8646 3.75767 20.3803 4.2734C20.8961 4.78912 21.1858 5.4886 21.1858 6.21794V18.2179C21.1858 18.9473 20.8961 19.6468 20.3803 20.1625C19.8646 20.6782 19.1651 20.9679 18.4358 20.9679H6.43579C5.70645 20.9679 5.00697 20.6782 4.49125 20.1625C3.97552 19.6468 3.68579 18.9473 3.68579 18.2179V6.21794C3.68579 5.4886 3.97552 4.78912 4.49125 4.2734ZM15.6858 4.96794H9.18579V15.0044L12.1004 13.5471C12.3115 13.4415 12.5601 13.4415 12.7712 13.5471L15.6858 15.0044V4.96794ZM7.68579 4.96794H6.43579C6.10427 4.96794 5.78633 5.09964 5.55191 5.33406C5.31749 5.56848 5.18579 5.88642 5.18579 6.21794V18.2179C5.18579 18.5495 5.31749 18.8674 5.55191 19.1018C5.78633 19.3362 6.10427 19.4679 6.43579 19.4679H18.4358C18.7673 19.4679 19.0853 19.3362 19.3197 19.1018C19.5541 18.8674 19.6858 18.5495 19.6858 18.2179V6.21794C19.6858 5.88642 19.5541 5.56848 19.3197 5.33406C19.0853 5.09964 18.7673 4.96794 18.4358 4.96794H17.1858V16.2179C17.1858 16.4779 17.0512 16.7193 16.8301 16.8559C16.609 16.9926 16.3329 17.005 16.1004 16.8888L12.4358 15.0565L8.7712 16.8888C8.53871 17.005 8.2626 16.9926 8.04149 16.8559C7.82038 16.7193 7.68579 16.4779 7.68579 16.2179V4.96794Z" fill="#3B3B3B"/>
</svg>
