<svg width="25" height="25" viewBox="0 0 25 25" fill="none" xmlns="http://www.w3.org/2000/svg">
<path fill-rule="evenodd" clip-rule="evenodd" d="M8.70934 2.2739C9.22507 1.75818 9.92454 1.46844 10.6539 1.46844H14.6539C15.3832 1.46844 16.0827 1.75818 16.5984 2.2739C17.1142 2.78963 17.4039 3.4891 17.4039 4.21844V5.46844H19.6539C20.3832 5.46844 21.0827 5.75818 21.5984 6.2739C22.1142 6.78963 22.4039 7.4891 22.4039 8.21844V13.456C22.4041 13.4675 22.4041 13.4789 22.4039 13.4904V18.2184C22.4039 18.9478 22.1142 19.6473 21.5984 20.163C21.0827 20.6787 20.3832 20.9684 19.6539 20.9684H5.65388C4.92454 20.9684 4.22507 20.6787 3.70934 20.163C3.19362 19.6473 2.90389 18.9478 2.90389 18.2184V13.4904C2.90362 13.4789 2.90362 13.4675 2.90389 13.456V8.21844C2.90389 7.4891 3.19362 6.78963 3.70934 6.2739C4.22507 5.75818 4.92454 5.46844 5.65388 5.46844H7.90388V4.21844C7.90388 3.4891 8.19362 2.78963 8.70934 2.2739ZM9.40388 5.46844H15.9039V4.21844C15.9039 3.88692 15.7722 3.56898 15.5378 3.33456C15.3033 3.10014 14.9854 2.96844 14.6539 2.96844H10.6539C10.3224 2.96844 10.0044 3.10014 9.77 3.33456C9.53558 3.56898 9.40388 3.88692 9.40388 4.21844V5.46844ZM5.65388 6.96844C5.32236 6.96844 5.00442 7.10014 4.77 7.33456C4.53558 7.56898 4.40389 7.88692 4.40389 8.21844V12.962C6.96754 13.9351 9.74713 14.4684 12.6539 14.4684C15.4737 14.4719 18.27 13.9608 20.9039 12.9618V8.21844C20.9039 7.88692 20.7722 7.56898 20.5378 7.33456C20.3033 7.10014 19.9854 6.96844 19.6539 6.96844H5.65388ZM20.9039 14.5591C18.2564 15.4944 15.4661 15.9719 12.653 15.9684C9.76126 15.9683 6.98513 15.4717 4.40389 14.5594V18.2184C4.40389 18.55 4.53558 18.8679 4.77 19.1023C5.00442 19.3367 5.32236 19.4684 5.65388 19.4684H19.6539C19.9854 19.4684 20.3033 19.3367 20.5378 19.1023C20.7722 18.8679 20.9039 18.55 20.9039 18.2184V14.5591ZM11.9039 12.2184C11.9039 11.8042 12.2397 11.4684 12.6539 11.4684H12.6639C13.0781 11.4684 13.4139 11.8042 13.4139 12.2184C13.4139 12.6327 13.0781 12.9684 12.6639 12.9684H12.6539C12.2397 12.9684 11.9039 12.6327 11.9039 12.2184Z" fill="#3B3B3B"/>
</svg>
