<svg width="24" height="24" viewBox="0 0 24 24" fill="none" xmlns="http://www.w3.org/2000/svg">
<path fill-rule="evenodd" clip-rule="evenodd" d="M8 2.25C8.41421 2.25 8.75 2.58579 8.75 3V4.25H15.25V3C15.25 2.58579 15.5858 2.25 16 2.25C16.4142 2.25 16.75 2.58579 16.75 3V4.25H19C19.7293 4.25 20.4288 4.53973 20.9445 5.05546C21.4603 5.57118 21.75 6.27065 21.75 7V19C21.75 19.7293 21.4603 20.4288 20.9445 20.9445C20.4288 21.4603 19.7293 21.75 19 21.75H5C4.27065 21.75 3.57118 21.4603 3.05546 20.9445C2.53973 20.4288 2.25 19.7293 2.25 19V7C2.25 6.27065 2.53973 5.57118 3.05546 5.05546C3.57118 4.53973 4.27065 4.25 5 4.25H7.25V3C7.25 2.58579 7.58579 2.25 8 2.25ZM6 7C5.44772 7 5 7.44772 5 8C5 8.55228 5.44772 9 6 9H18C18.5523 9 19 8.55228 19 8C19 7.44772 18.5523 7 18 7H6Z" fill="#363B4C"/>
</svg>
