<svg width="25" height="25" viewBox="0 0 25 25" fill="none" xmlns="http://www.w3.org/2000/svg">
<path fill-rule="evenodd" clip-rule="evenodd" d="M3.16434 5.38346C3.68007 4.86773 4.37954 4.578 5.10889 4.578H15.1089C15.8382 4.578 16.5377 4.86773 17.0534 5.38346C17.5692 5.89918 17.8589 6.59866 17.8589 7.328V8.578H19.1089C19.8382 8.578 20.5377 8.86773 21.0534 9.38346C21.5692 9.89918 21.8589 10.5987 21.8589 11.328V17.328C21.8589 18.0573 21.5692 18.7568 21.0534 19.2725C20.5377 19.7883 19.8382 20.078 19.1089 20.078H9.10889C8.37954 20.078 7.68007 19.7883 7.16434 19.2725C6.64862 18.7568 6.35889 18.0573 6.35889 17.328V16.078H5.10889C4.37954 16.078 3.68007 15.7883 3.16434 15.2725C2.64862 14.7568 2.35889 14.0573 2.35889 13.328V7.328C2.35889 6.59866 2.64862 5.89918 3.16434 5.38346ZM7.85889 17.328C7.85889 17.6595 7.99058 17.9775 8.225 18.2119C8.45942 18.4463 8.77737 18.578 9.10889 18.578H19.1089C19.4404 18.578 19.7583 18.4463 19.9928 18.2119C20.2272 17.9775 20.3589 17.6595 20.3589 17.328V11.328C20.3589 10.9965 20.2272 10.6785 19.9928 10.4441C19.7583 10.2097 19.4404 10.078 19.1089 10.078H9.10889C8.77737 10.078 8.45942 10.2097 8.225 10.4441C7.99058 10.6785 7.85889 10.9965 7.85889 11.328V17.328ZM16.3589 8.578H9.10889C8.37954 8.578 7.68007 8.86773 7.16434 9.38346C6.64862 9.89918 6.35889 10.5987 6.35889 11.328V14.578H5.10889C4.77737 14.578 4.45942 14.4463 4.225 14.2119C3.99058 13.9775 3.85889 13.6595 3.85889 13.328V7.328C3.85889 6.99648 3.99058 6.67854 4.225 6.44412C4.45942 6.2097 4.77737 6.078 5.10889 6.078H15.1089C15.4404 6.078 15.7583 6.2097 15.9928 6.44412C16.2272 6.67854 16.3589 6.99648 16.3589 7.328V8.578ZM14.1089 13.078C13.7774 13.078 13.4594 13.2097 13.225 13.4441C12.9906 13.6785 12.8589 13.9965 12.8589 14.328C12.8589 14.6595 12.9906 14.9775 13.225 15.2119C13.4594 15.4463 13.7774 15.578 14.1089 15.578C14.4404 15.578 14.7583 15.4463 14.9928 15.2119C15.2272 14.9775 15.3589 14.6595 15.3589 14.328C15.3589 13.9965 15.2272 13.6785 14.9928 13.4441C14.7583 13.2097 14.4404 13.078 14.1089 13.078ZM12.1643 12.3835C12.6801 11.8677 13.3795 11.578 14.1089 11.578C14.8382 11.578 15.5377 11.8677 16.0534 12.3835C16.5692 12.8992 16.8589 13.5987 16.8589 14.328C16.8589 15.0573 16.5692 15.7568 16.0534 16.2725C15.5377 16.7883 14.8382 17.078 14.1089 17.078C13.3795 17.078 12.6801 16.7883 12.1643 16.2725C11.6486 15.7568 11.3589 15.0573 11.3589 14.328C11.3589 13.5987 11.6486 12.8992 12.1643 12.3835Z" fill="#3B3B3B"/>
</svg>
