<svg width="25" height="25" viewBox="0 0 25 25" fill="none" xmlns="http://www.w3.org/2000/svg">
<path fill-rule="evenodd" clip-rule="evenodd" d="M12.7627 5.07799C8.12142 5.07799 4.51271 8.40482 4.51271 12.328C4.51271 13.7349 4.96943 15.0524 5.76831 16.1725C5.91323 16.3757 5.94759 16.6376 5.85995 16.8713L4.93873 19.3279L8.36062 18.6436C8.51878 18.6119 8.68293 18.6321 8.82871 18.7012C10.0574 19.283 11.4007 19.5826 12.7602 19.578L12.7627 19.578C17.404 19.578 21.0127 16.2512 21.0127 12.328C21.0127 8.40482 17.404 5.07799 12.7627 5.07799ZM3.01271 12.328C3.01271 7.41516 7.46399 3.57799 12.7627 3.57799C18.0614 3.57799 22.5127 7.41516 22.5127 12.328C22.5127 17.2404 18.0621 21.0774 12.764 21.078C12.7636 21.078 12.7631 21.078 12.7627 21.078V20.3281L12.7653 21.078C12.7648 21.078 12.7644 21.078 12.764 21.078C11.2654 21.0829 9.78369 20.7704 8.41614 20.1622L8.65479 20.1144L8.50771 19.379L8.1867 20.0568C8.26281 20.0929 8.33929 20.128 8.41614 20.1622L3.90979 21.0634C3.64276 21.1168 3.36777 21.0213 3.19136 20.8138C3.01495 20.6064 2.96484 20.3196 3.06046 20.0646L4.3193 16.7077C4.39253 16.8213 4.4685 16.9333 4.54711 17.0435L5.15771 16.608L4.45546 16.3446L4.3193 16.7077C3.49152 15.4236 3.01271 13.9275 3.01271 12.328ZM8.01271 12.328C8.01271 11.9138 8.34849 11.578 8.76271 11.578H8.77271C9.18692 11.578 9.52271 11.9138 9.52271 12.328C9.52271 12.7422 9.18692 13.078 8.77271 13.078H8.76271C8.34849 13.078 8.01271 12.7422 8.01271 12.328ZM12.0127 12.328C12.0127 11.9138 12.3485 11.578 12.7627 11.578H12.7727C13.1869 11.578 13.5227 11.9138 13.5227 12.328C13.5227 12.7422 13.1869 13.078 12.7727 13.078H12.7627C12.3485 13.078 12.0127 12.7422 12.0127 12.328ZM16.0127 12.328C16.0127 11.9138 16.3485 11.578 16.7627 11.578H16.7727C17.1869 11.578 17.5227 11.9138 17.5227 12.328C17.5227 12.7422 17.1869 13.078 16.7727 13.078H16.7627C16.3485 13.078 16.0127 12.7422 16.0127 12.328Z" fill="#3B3B3B"/>
</svg>
