<svg width="25" height="25" viewBox="0 0 25 25" fill="none" xmlns="http://www.w3.org/2000/svg">
<path fill-rule="evenodd" clip-rule="evenodd" d="M11.9806 4.18605C11.6491 4.18605 11.3311 4.31775 11.0967 4.55217C10.8623 4.78659 10.7306 5.10453 10.7306 5.43605C10.7306 5.76757 10.8623 6.08551 11.0967 6.31993C11.3311 6.55435 11.6491 6.68605 11.9806 6.68605H13.9806C14.3121 6.68605 14.6301 6.55435 14.8645 6.31993C15.0989 6.08551 15.2306 5.76757 15.2306 5.43605C15.2306 5.10453 15.0989 4.78659 14.8645 4.55217C14.6301 4.31775 14.3121 4.18605 13.9806 4.18605H11.9806ZM10.036 3.49151C10.5518 2.97578 11.2512 2.68605 11.9806 2.68605H13.9806C14.7099 2.68605 15.4094 2.97578 15.9251 3.49151C16.2599 3.82629 16.4995 4.2385 16.6263 4.68605H17.9806C18.7099 4.68605 19.4094 4.97578 19.9251 5.49151C20.4409 6.00723 20.7306 6.7067 20.7306 7.43605V19.436C20.7306 20.1654 20.4409 20.8649 19.9251 21.3806C19.4094 21.8963 18.7099 22.186 17.9806 22.186H7.98059C7.25125 22.186 6.55177 21.8963 6.03605 21.3806C5.52032 20.8649 5.23059 20.1654 5.23059 19.436V7.43605C5.23059 6.7067 5.52032 6.00723 6.03605 5.49151C6.55177 4.97578 7.25125 4.68605 7.98059 4.68605H9.33483C9.46172 4.2385 9.70127 3.82629 10.036 3.49151ZM9.33483 6.18605H7.98059C7.64907 6.18605 7.33113 6.31775 7.09671 6.55217C6.86229 6.78659 6.73059 7.10453 6.73059 7.43605V19.436C6.73059 19.7676 6.86229 20.0855 7.09671 20.3199C7.33113 20.5544 7.64907 20.686 7.98059 20.686H17.9806C18.3121 20.686 18.6301 20.5544 18.8645 20.3199C19.0989 20.0855 19.2306 19.7676 19.2306 19.436V7.43605C19.2306 7.10453 19.0989 6.78659 18.8645 6.55217C18.6301 6.31775 18.3121 6.18605 17.9806 6.18605H16.6263C16.4995 6.6336 16.2599 7.04581 15.9251 7.38059C15.4094 7.89632 14.7099 8.18605 13.9806 8.18605H11.9806C11.2512 8.18605 10.5518 7.89632 10.036 7.38059C9.70127 7.04581 9.46172 6.6336 9.33483 6.18605ZM16.5109 11.9057C16.8038 12.1986 16.8038 12.6735 16.5109 12.9664L12.5109 16.9664C12.218 17.2593 11.7432 17.2593 11.4503 16.9664L9.45026 14.9664C9.15737 14.6735 9.15737 14.1986 9.45026 13.9057C9.74315 13.6128 10.218 13.6128 10.5109 13.9057L11.9806 15.3754L15.4503 11.9057C15.7432 11.6128 16.218 11.6128 16.5109 11.9057Z" fill="#3B3B3B"/>
</svg>
