<svg width="25" height="25" viewBox="0 0 25 25" fill="none" xmlns="http://www.w3.org/2000/svg">
<path fill-rule="evenodd" clip-rule="evenodd" d="M11.2178 4.29525C10.8863 4.29525 10.5683 4.42695 10.3339 4.66137C10.0995 4.89579 9.96777 5.21373 9.96777 5.54525C9.96777 5.87677 10.0995 6.19472 10.3339 6.42914C10.5683 6.66356 10.8863 6.79525 11.2178 6.79525H13.2178C13.5493 6.79525 13.8672 6.66356 14.1017 6.42914C14.3361 6.19472 14.4678 5.87677 14.4678 5.54525C14.4678 5.21373 14.3361 4.89579 14.1017 4.66137C13.8672 4.42695 13.5493 4.29525 13.2178 4.29525H11.2178ZM9.27323 3.60071C9.78896 3.08499 10.4884 2.79525 11.2178 2.79525H13.2178C13.9471 2.79525 14.6466 3.08499 15.1623 3.60071C15.4971 3.93549 15.7366 4.3477 15.8635 4.79525H17.2178C17.9471 4.79525 18.6466 5.08498 19.1623 5.60071C19.678 6.11643 19.9678 6.81591 19.9678 7.54525V19.5453C19.9678 20.2746 19.678 20.9741 19.1623 21.4898C18.6466 22.0055 17.9471 22.2953 17.2178 22.2953H7.21777C6.48843 22.2953 5.78895 22.0055 5.27323 21.4898C4.7575 20.9741 4.46777 20.2746 4.46777 19.5453V7.54525C4.46777 6.81591 4.7575 6.11643 5.27323 5.60071C5.78895 5.08498 6.48843 4.79525 7.21777 4.79525H8.57202C8.6989 4.3477 8.93845 3.93549 9.27323 3.60071ZM8.57202 6.29525H7.21777C6.88625 6.29525 6.56831 6.42695 6.33389 6.66137C6.09947 6.89579 5.96777 7.21373 5.96777 7.54525V19.5453C5.96777 19.8768 6.09947 20.1947 6.33389 20.4291C6.56831 20.6636 6.88625 20.7953 7.21777 20.7953H17.2178C17.5493 20.7953 17.8672 20.6636 18.1017 20.4291C18.3361 20.1947 18.4678 19.8768 18.4678 19.5453V7.54525C18.4678 7.21373 18.3361 6.89579 18.1017 6.66137C17.8672 6.42695 17.5493 6.29525 17.2178 6.29525H15.8635C15.7366 6.7428 15.4971 7.15502 15.1623 7.4898C14.6466 8.00552 13.9471 8.29525 13.2178 8.29525H11.2178C10.4884 8.29525 9.78896 8.00552 9.27323 7.4898C8.93845 7.15502 8.6989 6.7428 8.57202 6.29525Z" fill="#3B3B3B"/>
</svg>
