<svg width="24" height="24" viewBox="0 0 24 24" fill="none" xmlns="http://www.w3.org/2000/svg">
<path d="M11.9747 19.5H10.5001V15.375C10.5001 15.2755 10.4606 15.1802 10.3902 15.1098C10.3199 15.0395 10.2245 15 10.1251 15H4.12506C4.0256 15 3.93022 15.0395 3.8599 15.1098C3.78957 15.1802 3.75006 15.2755 3.75006 15.375V19.5H2.27537C2.0815 19.4969 1.89367 19.5675 1.74978 19.6974C1.60589 19.8274 1.51665 20.0071 1.50006 20.2003C1.49325 20.3029 1.5076 20.4058 1.54223 20.5026C1.57686 20.5994 1.63103 20.6881 1.70136 20.7631C1.77169 20.8381 1.8567 20.8978 1.95109 20.9385C2.04548 20.9793 2.14725 21.0002 2.25006 21H12.0001C12.1029 21.0002 12.2046 20.9793 12.299 20.9385C12.3934 20.8978 12.4784 20.8381 12.5488 20.7631C12.6191 20.6881 12.6733 20.5994 12.7079 20.5026C12.7425 20.4058 12.7569 20.3029 12.7501 20.2003C12.7335 20.0071 12.6442 19.8274 12.5003 19.6974C12.3565 19.5675 12.1686 19.4969 11.9747 19.5Z" fill="#363B4C"/>
<path d="M22.4747 7.5H10.2132L8.17131 3.41438C8.10896 3.28977 8.01313 3.185 7.89457 3.11181C7.776 3.03862 7.6394 2.9999 7.50006 3H4.50006C4.30115 3 4.11038 3.07902 3.96973 3.21967C3.82908 3.36032 3.75006 3.55109 3.75006 3.75V7.5H2.27537C2.0815 7.49692 1.89367 7.56748 1.74978 7.69745C1.60589 7.82742 1.51665 8.00713 1.50006 8.20031C1.49325 8.3029 1.5076 8.4058 1.54223 8.50261C1.57686 8.59942 1.63103 8.68807 1.70136 8.76306C1.77169 8.83806 1.8567 8.89779 1.95109 8.93855C2.04548 8.97931 2.14725 9.00023 2.25006 9H3.75006V13.125C3.75006 13.2245 3.78957 13.3198 3.8599 13.3902C3.93022 13.4605 4.0256 13.5 4.12506 13.5H10.1251C10.2245 13.5 10.3199 13.4605 10.3902 13.3902C10.4606 13.3198 10.5001 13.2245 10.5001 13.125V9H19.5001V17.25H18.0001V16.5253C18.0024 16.3318 17.9316 16.1446 17.8017 16.0011C17.6718 15.8577 17.4925 15.7687 17.2997 15.7519C17.1972 15.7451 17.0943 15.7594 16.9975 15.794C16.9006 15.8287 16.812 15.8828 16.737 15.9532C16.662 16.0235 16.6023 16.1085 16.5615 16.2029C16.5208 16.2973 16.4998 16.3991 16.5001 16.5019V17.2519C16.5001 17.6497 16.6581 18.0312 16.9394 18.3125C17.2207 18.5938 17.6022 18.7519 18.0001 18.7519H19.5001C19.8979 18.7519 20.2794 18.5938 20.5607 18.3125C20.842 18.0312 21.0001 17.6497 21.0001 17.2519V9H22.5001C22.6029 9.00023 22.7046 8.97931 22.799 8.93855C22.8934 8.89779 22.9784 8.83806 23.0488 8.76306C23.1191 8.68807 23.1733 8.59942 23.2079 8.50261C23.2425 8.4058 23.2569 8.3029 23.2501 8.20031C23.2335 8.00713 23.1442 7.82742 23.0003 7.69745C22.8565 7.56748 22.6686 7.49692 22.4747 7.5ZM5.25006 7.5V4.5H7.03694L8.53694 7.5H5.25006Z" fill="#363B4C"/>
</svg>
