<svg width="16" height="16" viewBox="0 0 16 16" fill="none" xmlns="http://www.w3.org/2000/svg">
<path d="M15 5H6.80875L5.4475 2.27625C5.40593 2.19318 5.34205 2.12333 5.263 2.07454C5.18396 2.02574 5.09289 1.99993 5 2H3C2.86739 2 2.74021 2.05268 2.64645 2.14645C2.55268 2.24022 2.5 2.36739 2.5 2.5V5H1.5C1.36739 5 1.24021 5.05268 1.14645 5.14645C1.05268 5.24022 1 5.36739 1 5.5C1 5.63261 1.05268 5.75979 1.14645 5.85355C1.24021 5.94732 1.36739 6 1.5 6H2.5V13H1.5C1.36739 13 1.24021 13.0527 1.14645 13.1464C1.05268 13.2402 1 13.3674 1 13.5C1 13.6326 1.05268 13.7598 1.14645 13.8536C1.24021 13.9473 1.36739 14 1.5 14H8C8.13261 14 8.25979 13.9473 8.35355 13.8536C8.44732 13.7598 8.5 13.6326 8.5 13.5C8.5 13.3674 8.44732 13.2402 8.35355 13.1464C8.25979 13.0527 8.13261 13 8 13H7V6H13V11.5H12V11C12 10.8674 11.9473 10.7402 11.8536 10.6464C11.7598 10.5527 11.6326 10.5 11.5 10.5C11.3674 10.5 11.2402 10.5527 11.1464 10.6464C11.0527 10.7402 11 10.8674 11 11V11.5C11 11.7652 11.1054 12.0196 11.2929 12.2071C11.4804 12.3946 11.7348 12.5 12 12.5H13C13.2652 12.5 13.5196 12.3946 13.7071 12.2071C13.8946 12.0196 14 11.7652 14 11.5V6H15C15.1326 6 15.2598 5.94732 15.3536 5.85355C15.4473 5.75979 15.5 5.63261 15.5 5.5C15.5 5.36739 15.4473 5.24022 15.3536 5.14645C15.2598 5.05268 15.1326 5 15 5ZM3.5 3H4.69125L5.69125 5H3.5V3ZM3.5 13V10H6V13H3.5ZM6 9H3.5V6H6V9Z" fill="#3B3B3B"/>
</svg>
