<svg width="25" height="25" viewBox="0 0 25 25" fill="none" xmlns="http://www.w3.org/2000/svg">
<path fill-rule="evenodd" clip-rule="evenodd" d="M12.9807 4.40279C10.7927 4.40279 8.69426 5.27198 7.14708 6.81915C5.59991 8.36633 4.73071 10.4647 4.73071 12.6528C4.73071 13.7362 4.94411 14.809 5.35871 15.8099C5.77331 16.8109 6.381 17.7203 7.14708 18.4864C7.91317 19.2525 8.82264 19.8602 9.82357 20.2748C10.8245 20.6894 11.8973 20.9028 12.9807 20.9028C14.0641 20.9028 15.1369 20.6894 16.1378 20.2748C17.1388 19.8602 18.0483 19.2525 18.8143 18.4864C19.5804 17.7203 20.1881 16.8109 20.6027 15.8099C21.0173 14.809 21.2307 13.7362 21.2307 12.6528C21.2307 10.4647 20.3615 8.36633 18.8143 6.81915C17.2672 5.27198 15.1687 4.40279 12.9807 4.40279ZM6.08642 5.75849C7.9149 3.93002 10.3949 2.90279 12.9807 2.90279C15.5666 2.90279 18.0465 3.93002 19.875 5.75849C21.7035 7.58697 22.7307 10.0669 22.7307 12.6528C22.7307 13.9332 22.4785 15.201 21.9885 16.3839C21.4986 17.5669 20.7804 18.6417 19.875 19.5471C18.9696 20.4524 17.8948 21.1706 16.7119 21.6606C15.529 22.1506 14.2611 22.4028 12.9807 22.4028C11.7003 22.4028 10.4325 22.1506 9.24955 21.6606C8.06662 21.1706 6.99179 20.4524 6.08642 19.5471C5.18105 18.6417 4.46287 17.5669 3.97289 16.3839C3.4829 15.201 3.23071 13.9332 3.23071 12.6528C3.23071 10.0669 4.25794 7.58697 6.08642 5.75849ZM9.59484 8.00967C9.95003 7.79656 10.4107 7.91173 10.6238 8.26691L12.8054 11.9028H13.1561L15.3376 8.26691C15.5507 7.91173 16.0114 7.79656 16.3666 8.00967C16.7218 8.22278 16.8369 8.68347 16.6238 9.03866L14.9054 11.9028H15.9807C16.3949 11.9028 16.7307 12.2386 16.7307 12.6528C16.7307 13.067 16.3949 13.4028 15.9807 13.4028H14.0054L13.7307 13.8605V14.9028H15.9807C16.3949 14.9028 16.7307 15.2386 16.7307 15.6528C16.7307 16.067 16.3949 16.4028 15.9807 16.4028H13.7307V17.6528C13.7307 18.067 13.3949 18.4028 12.9807 18.4028C12.5665 18.4028 12.2307 18.067 12.2307 17.6528V16.4028H9.98071C9.5665 16.4028 9.23071 16.067 9.23071 15.6528C9.23071 15.2386 9.5665 14.9028 9.98071 14.9028H12.2307V13.8605L11.9561 13.4028H9.98071C9.5665 13.4028 9.23071 13.067 9.23071 12.6528C9.23071 12.2386 9.5665 11.9028 9.98071 11.9028H11.0561L9.33759 9.03866C9.12448 8.68347 9.23966 8.22278 9.59484 8.00967Z" fill="#3B3B3B"/>
</svg>
