<svg width="25" height="25" viewBox="0 0 25 25" fill="none" xmlns="http://www.w3.org/2000/svg">
<path fill-rule="evenodd" clip-rule="evenodd" d="M12.7627 4.40279C10.5747 4.40279 8.47624 5.27198 6.92906 6.81915C5.38189 8.36633 4.5127 10.4647 4.5127 12.6528C4.5127 13.7362 4.72609 14.809 5.14069 15.8099C5.55529 16.8109 6.16298 17.7203 6.92906 18.4864C7.69515 19.2525 8.60462 19.8602 9.60556 20.2748C10.6065 20.6894 11.6793 20.9028 12.7627 20.9028C13.8461 20.9028 14.9189 20.6894 15.9198 20.2748C16.9208 19.8602 17.8302 19.2525 18.5963 18.4864C19.3624 17.7203 19.9701 16.8109 20.3847 15.8099C20.7993 14.809 21.0127 13.7362 21.0127 12.6528C21.0127 10.4647 20.1435 8.36633 18.5963 6.81915C17.0491 5.27198 14.9507 4.40279 12.7627 4.40279ZM5.8684 5.75849C7.69688 3.93002 10.1768 2.90279 12.7627 2.90279C15.3486 2.90279 17.8285 3.93002 19.657 5.75849C21.4855 7.58697 22.5127 10.0669 22.5127 12.6528C22.5127 13.9332 22.2605 15.201 21.7705 16.3839C21.2805 17.5669 20.5624 18.6417 19.657 19.5471C18.7516 20.4524 17.6768 21.1706 16.4939 21.6606C15.3109 22.1506 14.0431 22.4028 12.7627 22.4028C11.4823 22.4028 10.2145 22.1506 9.03153 21.6606C7.84861 21.1706 6.77377 20.4524 5.8684 19.5471C4.96303 18.6417 4.24485 17.5669 3.75487 16.3839C3.26489 15.201 3.0127 13.9332 3.0127 12.6528C3.0127 10.0669 4.03992 7.58697 5.8684 5.75849ZM11.8182 7.70824C12.3339 7.19252 13.0333 6.90279 13.7627 6.90279C14.492 6.90279 15.1915 7.19252 15.7072 7.70824C16.223 8.22397 16.5127 8.92344 16.5127 9.65279C16.5127 10.067 16.1769 10.4028 15.7627 10.4028C15.3485 10.4028 15.0127 10.067 15.0127 9.65279C15.0127 9.32127 14.881 9.00332 14.6466 8.7689C14.4122 8.53448 14.0942 8.40279 13.7627 8.40279C13.4312 8.40279 13.1132 8.53448 12.8788 8.7689C12.6444 9.00332 12.5127 9.32127 12.5127 9.65279V11.9028H13.7627C14.1769 11.9028 14.5127 12.2386 14.5127 12.6528C14.5127 13.067 14.1769 13.4028 13.7627 13.4028H12.5127V14.6528C12.5127 15.0914 12.4079 15.5192 12.2122 15.9028H15.7627C16.1769 15.9028 16.5127 16.2386 16.5127 16.6528C16.5127 17.067 16.1769 17.4028 15.7627 17.4028H9.76269C9.34848 17.4028 9.01269 17.067 9.01269 16.6528C9.01269 16.2386 9.34848 15.9028 9.76269 15.9028C10.0942 15.9028 10.4122 15.7711 10.6466 15.5367C10.881 15.3022 11.0127 14.9843 11.0127 14.6528V13.4028H9.76269C9.34848 13.4028 9.01269 13.067 9.01269 12.6528C9.01269 12.2386 9.34848 11.9028 9.76269 11.9028H11.0127V9.65279C11.0127 8.92344 11.3024 8.22397 11.8182 7.70824Z" fill="#3B3B3B"/>
</svg>
