<svg width="25" height="25" viewBox="0 0 25 25" fill="none" xmlns="http://www.w3.org/2000/svg">
<path fill-rule="evenodd" clip-rule="evenodd" d="M12.8719 4.40279C10.6839 4.40279 8.58549 5.27198 7.03832 6.81915C5.49114 8.36633 4.62195 10.4647 4.62195 12.6528C4.62195 13.7362 4.83534 14.809 5.24994 15.8099C5.66454 16.8109 6.27223 17.7203 7.03832 18.4864C7.8044 19.2525 8.71387 19.8602 9.71481 20.2748C10.7157 20.6894 11.7885 20.9028 12.8719 20.9028C13.9554 20.9028 15.0281 20.6894 16.0291 20.2748C17.03 19.8602 17.9395 19.2525 18.7056 18.4864C19.4717 17.7203 20.0794 16.8109 20.494 15.8099C20.9086 14.809 21.1219 13.7362 21.1219 12.6528C21.1219 10.4647 20.2528 8.36633 18.7056 6.81915C17.1584 5.27198 15.06 4.40279 12.8719 4.40279ZM5.97766 5.75849C7.80614 3.93002 10.2861 2.90279 12.8719 2.90279C15.4578 2.90279 17.9378 3.93002 19.7662 5.75849C21.5947 7.58697 22.6219 10.0669 22.6219 12.6528C22.6219 13.9332 22.3698 15.201 21.8798 16.3839C21.3898 17.5669 20.6716 18.6417 19.7662 19.5471C18.8609 20.4524 17.786 21.1706 16.6031 21.6606C15.4202 22.1506 14.1523 22.4028 12.8719 22.4028C11.5916 22.4028 10.3237 22.1506 9.14078 21.6606C7.95786 21.1706 6.88303 20.4524 5.97766 19.5471C5.07229 18.6417 4.35411 17.5669 3.86412 16.3839C3.37414 15.201 3.12195 13.9332 3.12195 12.6528C3.12195 10.0669 4.14918 7.58697 5.97766 5.75849ZM9.12195 8.65279C9.12195 8.23857 9.45773 7.90279 9.87195 7.90279H15.8719C16.2862 7.90279 16.6219 8.23857 16.6219 8.65279C16.6219 9.067 16.2862 9.40279 15.8719 9.40279H13.8719C14.0599 9.65336 14.2161 9.92706 14.3365 10.2177C14.4283 10.4394 14.4984 10.6688 14.5462 10.9028H15.8719C16.2862 10.9028 16.6219 11.2386 16.6219 11.6528C16.6219 12.067 16.2862 12.4028 15.8719 12.4028H14.5462C14.4984 12.6367 14.4283 12.8662 14.3365 13.0878C14.148 13.5428 13.8718 13.9562 13.5236 14.3044C13.1754 14.6527 12.762 14.9289 12.307 15.1173C12.0814 15.2108 11.8477 15.2818 11.6094 15.3296L13.4023 17.1225C13.6952 17.4153 13.6952 17.8902 13.4023 18.1831C13.1094 18.476 12.6345 18.476 12.3416 18.1831L9.34162 15.1831C9.12712 14.9686 9.06295 14.646 9.17904 14.3658C9.29512 14.0855 9.5686 13.9028 9.87195 13.9028H10.8719C11.1674 13.9028 11.46 13.8446 11.733 13.7315C12.006 13.6184 12.254 13.4527 12.4629 13.2438C12.6719 13.0348 12.8376 12.7868 12.9507 12.5138C12.9659 12.4771 12.9801 12.4401 12.9933 12.4028H9.87195C9.45773 12.4028 9.12195 12.067 9.12195 11.6528C9.12195 11.2386 9.45773 10.9028 9.87195 10.9028H12.9933C12.9801 10.8654 12.9659 10.8284 12.9507 10.7917C12.8376 10.5188 12.6719 10.2707 12.4629 10.0618C12.254 9.85286 12.006 9.68713 11.733 9.57406C11.46 9.46098 11.1674 9.40279 10.8719 9.40279H9.87195C9.45773 9.40279 9.12195 9.067 9.12195 8.65279Z" fill="#3B3B3B"/>
</svg>
