<svg width="25" height="25" viewBox="0 0 25 25" fill="none" xmlns="http://www.w3.org/2000/svg">
<path fill-rule="evenodd" clip-rule="evenodd" d="M12.4358 4.40279C10.2478 4.40279 8.14933 5.27198 6.60216 6.81915C5.05498 8.36633 4.18579 10.4647 4.18579 12.6528C4.18579 13.7362 4.39918 14.809 4.81378 15.8099C5.22839 16.8109 5.83608 17.7203 6.60216 18.4864C7.36824 19.2525 8.27772 19.8602 9.27865 20.2748C10.2796 20.6894 11.3524 20.9028 12.4358 20.9028C13.5192 20.9028 14.592 20.6894 15.5929 20.2748C16.5939 19.8602 17.5033 19.2525 18.2694 18.4864C19.0355 17.7203 19.6432 16.8109 20.0578 15.8099C20.4724 14.809 20.6858 13.7362 20.6858 12.6528C20.6858 10.4647 19.8166 8.36633 18.2694 6.81915C16.7222 5.27198 14.6238 4.40279 12.4358 4.40279ZM5.5415 5.75849C7.36998 3.93002 9.84993 2.90279 12.4358 2.90279C15.0217 2.90279 17.5016 3.93002 19.3301 5.75849C21.1586 7.58697 22.1858 10.0669 22.1858 12.6528C22.1858 13.9332 21.9336 15.201 21.4436 16.3839C20.9536 17.5669 20.2355 18.6417 19.3301 19.5471C18.4247 20.4524 17.3499 21.1706 16.167 21.6606C14.984 22.1506 13.7162 22.4028 12.4358 22.4028C11.1554 22.4028 9.88755 22.1506 8.70463 21.6606C7.5217 21.1706 6.44687 20.4524 5.5415 19.5471C4.63613 18.6417 3.91795 17.5669 3.42797 16.3839C2.93798 15.201 2.68579 13.9332 2.68579 12.6528C2.68579 10.0669 3.71302 7.58697 5.5415 5.75849ZM8.68579 7.65279C8.68579 7.23857 9.02158 6.90279 9.43579 6.90279C10.1651 6.90279 10.8646 7.19252 11.3803 7.70824C11.8961 8.22397 12.1858 8.92344 12.1858 9.65279V10.9028H15.4358C15.85 10.9028 16.1858 11.2386 16.1858 11.6528C16.1858 12.067 15.85 12.4028 15.4358 12.4028H12.1858V15.6528C12.1858 15.9843 12.3175 16.3022 12.5519 16.5367C12.7863 16.7711 13.1043 16.9028 13.4358 16.9028C13.7673 16.9028 14.0853 16.7711 14.3197 16.5367C14.5541 16.3022 14.6858 15.9843 14.6858 15.6528V14.6528C14.6858 14.2386 15.0216 13.9028 15.4358 13.9028C15.85 13.9028 16.1858 14.2386 16.1858 14.6528V15.6528C16.1858 16.3821 15.8961 17.0816 15.3803 17.5973C14.8646 18.1131 14.1651 18.4028 13.4358 18.4028C12.7064 18.4028 12.007 18.1131 11.4912 17.5973C10.9755 17.0816 10.6858 16.3821 10.6858 15.6528V12.4028H9.43579C9.02158 12.4028 8.68579 12.067 8.68579 11.6528C8.68579 11.2386 9.02158 10.9028 9.43579 10.9028H10.6858V9.65279C10.6858 9.32127 10.5541 9.00332 10.3197 8.7689C10.0853 8.53448 9.76731 8.40279 9.43579 8.40279C9.02158 8.40279 8.68579 8.067 8.68579 7.65279Z" fill="#3B3B3B"/>
</svg>
