<svg width="25" height="25" viewBox="0 0 25 25" fill="none" xmlns="http://www.w3.org/2000/svg">
<path fill-rule="evenodd" clip-rule="evenodd" d="M7.98059 4.51199C7.64907 4.51199 7.33113 4.64368 7.09671 4.8781C6.86229 5.11252 6.73059 5.43046 6.73059 5.76199V19.762C6.73059 20.0935 6.86229 20.4114 7.09671 20.6459C7.33113 20.8803 7.64907 21.012 7.98059 21.012H17.9806C18.3121 21.012 18.6301 20.8803 18.8645 20.6459C19.0989 20.4114 19.2306 20.0935 19.2306 19.762V10.1761C19.2306 10.1761 19.2306 10.1762 19.2306 10.1761C19.2305 10.1099 19.2042 10.0462 19.1573 9.99939L13.7433 4.58532C13.6964 4.53847 13.6328 4.51204 13.5666 4.51199C13.5665 4.51199 13.5666 4.51199 13.5666 4.51199H7.98059ZM6.03605 3.81744C6.55177 3.30172 7.25125 3.01199 7.98059 3.01199H13.5666C14.0307 3.01208 14.4758 3.1965 14.8039 3.52468C14.8039 3.52466 14.804 3.5247 14.8039 3.52468L20.2178 8.93857C20.2178 8.93855 20.2179 8.9386 20.2178 8.93857C20.546 9.26668 20.7305 9.71177 20.7306 10.1758V19.762C20.7306 20.4913 20.4409 21.1908 19.9251 21.7065C19.4094 22.2223 18.7099 22.512 17.9806 22.512H7.98059C7.25125 22.512 6.55177 22.2223 6.03605 21.7065C5.52032 21.1908 5.23059 20.4913 5.23059 19.762V5.76199C5.23059 5.03264 5.52032 4.33317 6.03605 3.81744ZM15.9806 11.012C16.3948 11.012 16.7306 11.3478 16.7306 11.762V17.762C16.7306 18.1762 16.3948 18.512 15.9806 18.512C15.5664 18.512 15.2306 18.1762 15.2306 17.762V11.762C15.2306 11.3478 15.5664 11.012 15.9806 11.012ZM12.9806 13.012C13.3948 13.012 13.7306 13.3478 13.7306 13.762V17.762C13.7306 18.1762 13.3948 18.512 12.9806 18.512C12.5664 18.512 12.2306 18.1762 12.2306 17.762V13.762C12.2306 13.3478 12.5664 13.012 12.9806 13.012ZM9.98059 15.012C10.3948 15.012 10.7306 15.3478 10.7306 15.762V17.762C10.7306 18.1762 10.3948 18.512 9.98059 18.512C9.56638 18.512 9.23059 18.1762 9.23059 17.762V15.762C9.23059 15.3478 9.56638 15.012 9.98059 15.012Z" fill="#3B3B3B"/>
</svg>
