<svg width="25" height="25" viewBox="0 0 25 25" fill="none" xmlns="http://www.w3.org/2000/svg">
<path fill-rule="evenodd" clip-rule="evenodd" d="M7.54492 4.51199C7.2134 4.51199 6.89546 4.64368 6.66104 4.8781C6.42662 5.11252 6.29492 5.43046 6.29492 5.76199V19.762C6.29492 20.0935 6.42662 20.4114 6.66104 20.6459C6.89546 20.8803 7.2134 21.012 7.54492 21.012H17.5449C17.8764 21.012 18.1944 20.8803 18.4288 20.6459C18.6632 20.4114 18.7949 20.0935 18.7949 19.762V10.1761C18.7949 10.1761 18.7949 10.1762 18.7949 10.1761C18.7949 10.1099 18.7685 10.0462 18.7217 9.99939L13.3076 4.58532C13.2608 4.53847 13.1972 4.51204 13.1309 4.51199C13.1309 4.51199 13.131 4.51199 13.1309 4.51199H7.54492ZM5.60038 3.81744C6.1161 3.30172 6.81558 3.01199 7.54492 3.01199H13.1309C13.595 3.01208 14.0402 3.1965 14.3683 3.52468C14.3683 3.52466 14.3683 3.5247 14.3683 3.52468L19.7822 8.93857C19.7821 8.93855 19.7822 8.9386 19.7822 8.93857C20.1103 9.26668 20.2948 9.71177 20.2949 10.1758V19.762C20.2949 20.4913 20.0052 21.1908 19.4895 21.7065C18.9737 22.2223 18.2743 22.512 17.5449 22.512H7.54492C6.81558 22.512 6.1161 22.2223 5.60038 21.7065C5.08465 21.1908 4.79492 20.4913 4.79492 19.762V5.76199C4.79492 5.03264 5.08465 4.33317 5.60038 3.81744ZM12.5449 10.012C12.9591 10.012 13.2949 10.3478 13.2949 10.762V13.012H15.5449C15.9591 13.012 16.2949 13.3478 16.2949 13.762C16.2949 14.1762 15.9591 14.512 15.5449 14.512H13.2949V16.762C13.2949 17.1762 12.9591 17.512 12.5449 17.512C12.1307 17.512 11.7949 17.1762 11.7949 16.762V14.512H9.54492C9.13071 14.512 8.79492 14.1762 8.79492 13.762C8.79492 13.3478 9.13071 13.012 9.54492 13.012H11.7949V10.762C11.7949 10.3478 12.1307 10.012 12.5449 10.012Z" fill="#3B3B3B"/>
</svg>
