<svg width="25" height="25" viewBox="0 0 25 25" fill="none" xmlns="http://www.w3.org/2000/svg">
<path fill-rule="evenodd" clip-rule="evenodd" d="M7.65369 4.51199C7.32217 4.51199 7.00422 4.64368 6.7698 4.8781C6.53538 5.11252 6.40369 5.43046 6.40369 5.76199V19.762C6.40369 20.0935 6.53538 20.4114 6.7698 20.6459C7.00422 20.8803 7.32217 21.012 7.65369 21.012H17.6537C17.9852 21.012 18.3031 20.8803 18.5376 20.6459C18.772 20.4114 18.9037 20.0935 18.9037 19.762V10.1761C18.9037 10.1761 18.9037 10.1762 18.9037 10.1761C18.9036 10.1099 18.8773 10.0462 18.8304 9.99939L13.4164 4.58532C13.3695 4.53847 13.3059 4.51204 13.2397 4.51199C13.2396 4.51199 13.2397 4.51199 13.2397 4.51199H7.65369ZM5.70914 3.81744C6.22487 3.30172 6.92434 3.01199 7.65369 3.01199H13.2397C13.7038 3.01208 14.1489 3.1965 14.477 3.52468C14.477 3.52466 14.4771 3.5247 14.477 3.52468L19.8909 8.93857C19.8909 8.93855 19.891 8.9386 19.8909 8.93857C20.2191 9.26668 20.4036 9.71177 20.4037 10.1758V19.762C20.4037 20.4913 20.114 21.1908 19.5982 21.7065C19.0825 22.2223 18.383 22.512 17.6537 22.512H7.65369C6.92434 22.512 6.22487 22.2223 5.70914 21.7065C5.19342 21.1908 4.90369 20.4913 4.90369 19.762V5.76199C4.90369 5.03264 5.19342 4.33317 5.70914 3.81744ZM12.6537 10.012C13.0679 10.012 13.4037 10.3478 13.4037 10.762V14.9513L15.1234 13.2317C15.4162 12.9388 15.8911 12.9388 16.184 13.2317C16.4769 13.5245 16.4769 13.9994 16.184 14.2923L13.184 17.2923C12.8911 17.5852 12.4162 17.5852 12.1234 17.2923L9.12336 14.2923C8.83046 13.9994 8.83046 13.5245 9.12336 13.2317C9.41625 12.9388 9.89112 12.9388 10.184 13.2317L11.9037 14.9513V10.762C11.9037 10.3478 12.2395 10.012 12.6537 10.012Z" fill="#3B3B3B"/>
</svg>
