<svg width="24" height="25" viewBox="0 0 24 25" fill="none" xmlns="http://www.w3.org/2000/svg">
<path fill-rule="evenodd" clip-rule="evenodd" d="M5.05546 3.92664C5.57118 3.41092 6.27065 3.12119 7 3.12119H12.586C13.0501 3.12128 13.4952 3.3057 13.8234 3.63388C13.8233 3.63386 13.8234 3.6339 13.8234 3.63388L19.2373 9.04777C19.2372 9.04775 19.2373 9.0478 19.2373 9.04777C19.5654 9.37588 19.7499 9.82097 19.75 10.285V19.8712C19.75 20.6005 19.4603 21.3 18.9445 21.8157C18.4288 22.3315 17.7293 22.6212 17 22.6212H10C9.58579 22.6212 9.25 22.2854 9.25 21.8712C9.25 21.457 9.58579 21.1212 10 21.1212H17C17.3315 21.1212 17.6495 20.9895 17.8839 20.7551C18.1183 20.5206 18.25 20.2027 18.25 19.8712V10.2853C18.25 10.2853 18.25 10.2854 18.25 10.2853C18.2499 10.2191 18.2236 10.1554 18.1768 10.1086L12.7627 4.69452C12.7158 4.64767 12.6522 4.62124 12.586 4.62119C12.5859 4.62119 12.5861 4.62119 12.586 4.62119H7C6.66848 4.62119 6.35054 4.75288 6.11612 4.9873C5.8817 5.22172 5.75 5.53966 5.75 5.87119V16.8712C5.75 17.2854 5.41421 17.6212 5 17.6212C4.58579 17.6212 4.25 17.2854 4.25 16.8712V5.87119C4.25 5.14184 4.53973 4.44237 5.05546 3.92664ZM12.0029 11.1385C12.9922 11.1346 13.9429 11.5217 14.6481 12.2156C15.0009 12.5628 15.2815 12.9765 15.4737 13.4327C15.6658 13.8889 15.7658 14.3786 15.7677 14.8736C15.7697 15.3687 15.6736 15.8592 15.4851 16.3169C15.2965 16.7746 15.0192 17.1904 14.6691 17.5404C14.319 17.8904 13.9031 18.1676 13.4454 18.3561C12.9876 18.5445 12.4971 18.6405 12.0021 18.6384C11.507 18.6364 11.0173 18.5363 10.5612 18.344C10.3395 18.2506 10.1278 18.1362 9.92899 18.0029L5.53033 22.4015C5.23744 22.6944 4.76256 22.6944 4.46967 22.4015C4.17678 22.1086 4.17678 21.6337 4.46967 21.3409L8.87547 16.9351C8.4789 16.3262 8.26472 15.6101 8.2678 14.8727C8.27195 13.8835 8.66683 12.9359 9.36643 12.2365C10.066 11.5371 11.0137 11.1424 12.0029 11.1385ZM13.5959 13.2848C13.1729 12.8684 12.6024 12.6361 12.0089 12.6385C11.4153 12.6408 10.8467 12.8776 10.427 13.2973C10.0072 13.7169 9.77028 14.2855 9.76779 14.879C9.7653 15.4726 9.99746 16.0431 10.4137 16.4663C10.622 16.678 10.8701 16.8464 11.1438 16.9618C11.4175 17.0772 11.7113 17.1372 12.0083 17.1384C12.3054 17.1397 12.5997 17.0821 12.8743 16.969C13.149 16.856 13.3985 16.6896 13.6086 16.4796C13.8186 16.2696 13.985 16.0201 14.0981 15.7455C14.2113 15.4709 14.2689 15.1766 14.2678 14.8796C14.2666 14.5826 14.2066 14.2887 14.0913 14.015C13.976 13.7413 13.8076 13.4931 13.5959 13.2848Z" fill="#3B3B3B"/>
</svg>
