<svg width="25" height="25" viewBox="0 0 25 25" fill="none" xmlns="http://www.w3.org/2000/svg">
<path fill-rule="evenodd" clip-rule="evenodd" d="M13.4678 4.98013C13.4678 4.56592 13.8036 4.23013 14.2178 4.23013H20.2178C20.632 4.23013 20.9678 4.56592 20.9678 4.98013V10.9801C20.9678 11.3943 20.632 11.7301 20.2178 11.7301C19.8036 11.7301 19.4678 11.3943 19.4678 10.9801V6.79079L10.7481 15.5105C10.4552 15.8034 9.98034 15.8034 9.68744 15.5105C9.39455 15.2176 9.39455 14.7427 9.68744 14.4498L18.4071 5.73013H14.2178C13.8036 5.73013 13.4678 5.39435 13.4678 4.98013ZM4.27323 7.03559C4.78895 6.51986 5.48843 6.23013 6.21777 6.23013H10.2178C10.632 6.23013 10.9678 6.56592 10.9678 6.98013C10.9678 7.39435 10.632 7.73013 10.2178 7.73013H6.21777C5.88625 7.73013 5.56831 7.86183 5.33389 8.09625C5.09947 8.33067 4.96777 8.64861 4.96777 8.98013V18.9801C4.96777 19.3117 5.09947 19.6296 5.33389 19.864C5.56831 20.0984 5.88625 20.2301 6.21777 20.2301H16.2178C16.5493 20.2301 16.8672 20.0984 17.1017 19.864C17.3361 19.6296 17.4678 19.3117 17.4678 18.9801V14.9801C17.4678 14.5659 17.8036 14.2301 18.2178 14.2301C18.632 14.2301 18.9678 14.5659 18.9678 14.9801V18.9801C18.9678 19.7095 18.678 20.409 18.1623 20.9247C17.6466 21.4404 16.9471 21.7301 16.2178 21.7301H6.21777C5.48843 21.7301 4.78895 21.4404 4.27323 20.9247C3.7575 20.409 3.46777 19.7095 3.46777 18.9801V8.98013C3.46777 8.25079 3.7575 7.55131 4.27323 7.03559Z" fill="#3B3B3B"/>
</svg>
