<svg width="25" height="25" viewBox="0 0 25 25" fill="none" xmlns="http://www.w3.org/2000/svg">
<path fill-rule="evenodd" clip-rule="evenodd" d="M2.79685 3.45034C3.08974 3.15744 3.56462 3.15744 3.85751 3.45034L7.03188 6.62471C8.64333 5.71037 10.468 5.22824 12.3277 5.23067C17.1425 5.23089 21.2154 8.3955 22.5857 12.7558C22.6318 12.9025 22.6317 13.0598 22.5854 13.2064C21.9216 15.3095 20.6311 17.1509 18.8974 18.4902L21.8575 21.4503C22.1504 21.7432 22.1504 22.2181 21.8575 22.511C21.5646 22.8039 21.0897 22.8039 20.7968 22.511L13.9179 15.6331L9.67491 11.3901C9.66713 11.3823 9.65949 11.3743 9.65212 11.3663L2.79685 4.511C2.50396 4.2181 2.50396 3.74323 2.79685 3.45034ZM8.13912 7.73195L10.2593 9.85217C10.8681 9.44996 11.5861 9.23091 12.3267 9.23091C13.3213 9.23091 14.2752 9.62603 14.9785 10.3293C15.6818 11.0326 16.0769 11.9865 16.0769 12.9812C16.0769 13.7217 15.8579 14.4397 15.4557 15.0485L17.8266 17.4195C19.3331 16.3049 20.4693 14.7577 21.0807 12.9802C19.8337 9.34358 16.3849 6.73067 12.3272 6.73067L12.3262 6.73067C10.8665 6.72869 9.43203 7.07386 8.13912 7.73195ZM14.3575 13.9503C14.5006 13.6505 14.5769 13.3198 14.5769 12.9812C14.5769 12.3844 14.3399 11.812 13.9178 11.39C13.4958 10.968 12.9235 10.7309 12.3267 10.7309C11.9881 10.7309 11.6574 10.8072 11.3575 10.9503L14.3575 13.9503ZM13.9179 15.6331C13.9179 15.633 13.918 15.6331 13.9179 15.6331V15.6331ZM4.79997 9.35377C5.13018 9.60384 5.19515 10.0742 4.94508 10.4045C4.35372 11.1853 3.89088 12.055 3.57355 12.9807C4.82042 16.6175 8.26934 19.2307 12.3272 19.2307C12.9093 19.2311 13.4908 19.1769 14.0628 19.0687C14.4698 18.9918 14.8622 19.2593 14.9391 19.6663C15.0161 20.0733 14.7485 20.4656 14.3415 20.5426C13.6773 20.6682 13.0027 20.7312 12.3266 20.7307C12.3264 20.7307 12.3268 20.7307 12.3266 20.7307C7.51186 20.7304 3.43899 17.5658 2.06868 13.2055C2.02267 13.0591 2.02268 12.9021 2.0687 12.7557C2.43779 11.5817 3.00629 10.48 3.74928 9.49888C3.99935 9.16867 4.46976 9.1037 4.79997 9.35377Z" fill="#3B3B3B"/>
</svg>
