<svg width="25" height="25" viewBox="0 0 25 25" fill="none" xmlns="http://www.w3.org/2000/svg">
<path fill-rule="evenodd" clip-rule="evenodd" d="M3.41637 4.7427C3.74456 4.41451 4.18968 4.23013 4.65381 4.23013H20.6538C21.1179 4.23013 21.5631 4.41451 21.8912 4.7427C22.2194 5.07089 22.4038 5.51601 22.4038 5.98013V19.9801C22.4038 20.4443 22.2194 20.8894 21.8912 21.2176C21.5631 21.5458 21.1179 21.7301 20.6538 21.7301H4.65381C4.18968 21.7301 3.74456 21.5458 3.41637 21.2176C3.08818 20.8894 2.90381 20.4443 2.90381 19.9801V5.98013C2.90381 5.516 3.08818 5.07089 3.41637 4.7427ZM4.40381 9.73013V12.2301H6.90381V9.73013H4.40381ZM6.90381 8.23013H4.40381V5.98013C4.40381 5.91383 4.43015 5.85024 4.47703 5.80336C4.52392 5.75647 4.5875 5.73013 4.65381 5.73013H6.90381V8.23013ZM8.40381 12.2301H16.9038V5.73013H8.40381V12.2301ZM18.4038 5.73013V8.23013H20.9038V5.98013C20.9038 5.91383 20.8775 5.85024 20.8306 5.80336C20.7837 5.75647 20.7201 5.73013 20.6538 5.73013H18.4038ZM20.9038 9.73013H18.4038V12.2301H20.9038V9.73013ZM20.9038 13.7301H18.4038V16.2301H20.9038V13.7301ZM20.9038 17.7301H18.4038V20.2301H20.6538C20.7201 20.2301 20.7837 20.2038 20.8306 20.1569C20.8775 20.11 20.9038 20.0464 20.9038 19.9801V17.7301ZM16.9038 20.2301V13.7301H8.40381V20.2301H16.9038ZM6.90381 20.2301V17.7301H4.40381V19.9801C4.40381 20.0464 4.43015 20.11 4.47703 20.1569C4.52391 20.2038 4.5875 20.2301 4.65381 20.2301H6.90381ZM4.40381 16.2301H6.90381V13.7301H4.40381V16.2301Z" fill="#3B3B3B"/>
</svg>
