<svg width="16" height="16" viewBox="0 0 16 16" fill="none" xmlns="http://www.w3.org/2000/svg">
<path d="M15.4227 5.27848C15.0747 4.44117 14.3694 3.53721 13.8161 3.25122C14.2668 4.13452 14.5274 5.02115 14.6271 5.68246C14.6271 5.68046 14.6278 5.68413 14.6284 5.68979L14.6298 5.69846C15.3857 7.74738 14.9738 9.83097 14.3804 11.1042C13.4625 13.0742 11.2406 15.0931 7.7617 14.9941C4.00318 14.8881 0.691973 12.0999 0.0739971 8.44669C-0.0386652 7.87071 0.0739971 7.57839 0.130662 7.11074C0.0616643 7.47072 0.035332 7.57539 0.000666641 8.21569L0 8.25669C0 12.6799 3.58653 16.2664 8.01036 16.2664C11.9725 16.2664 15.2621 13.3898 15.9067 9.61231L15.9434 9.30332C16.1024 7.93004 15.9257 6.48576 15.4234 5.27848H15.4227Z" fill="#1A1A1A"/>
<path d="M8.02541 6.71673C8.01208 6.91606 7.30877 7.60337 7.06211 7.60337C4.7842 7.60337 4.41455 8.98098 4.41455 8.98098C4.51555 10.1409 5.32318 11.0969 6.30114 11.6025C6.34581 11.6259 6.39114 11.6459 6.43614 11.6669C6.51364 11.7012 6.59212 11.7334 6.67146 11.7632C7.00689 11.8819 7.35823 11.9497 7.71376 11.9642C11.7063 12.1515 12.4802 7.19105 9.59868 5.7511C10.3363 5.62278 11.102 5.91943 11.5299 6.22009C10.83 4.99613 9.52169 4.17017 8.02008 4.17017C7.92508 4.17017 7.83208 4.17817 7.73876 4.1845C6.93522 4.23977 6.16698 4.53585 5.53417 5.03413C5.65617 5.13746 5.79416 5.27546 6.08415 5.56178C6.62747 6.09709 8.02174 6.65174 8.02474 6.71673H8.02541Z" fill="#1A1A1A"/>
<path d="M15.4227 5.27848C15.0747 4.44118 14.3694 3.53721 13.8161 3.25122C14.2668 4.13452 14.5274 5.02115 14.6271 5.68246L14.6288 5.69579C13.7228 3.43821 12.1872 2.52758 10.9329 0.545327L10.7443 0.238672C10.7127 0.184597 10.6832 0.129337 10.6559 0.0730119C10.6039 -0.0275303 10.5637 -0.133799 10.5363 -0.243643C10.5365 -0.248893 10.5347 -0.25403 10.5313 -0.258041C10.5279 -0.262052 10.5231 -0.264645 10.5179 -0.265308C10.513 -0.266707 10.5078 -0.266707 10.5029 -0.265308L10.4989 -0.262975L10.4933 -0.259642L10.4966 -0.264308C8.48434 0.914313 7.8017 3.09423 7.7387 4.18552C6.9352 4.2407 6.16696 4.53666 5.53412 5.03482C5.46792 4.97886 5.39871 4.92656 5.32679 4.87816C5.14416 4.23942 5.13633 3.56337 5.30413 2.92057C4.48149 3.29522 3.84085 3.8872 3.37587 4.41051H3.37254C3.05488 4.00853 3.07721 2.68158 3.09521 2.40459C3.09188 2.38726 2.85856 2.52558 2.82789 2.54625C2.54763 2.74626 2.28561 2.97068 2.04492 3.21689C1.77109 3.49468 1.5209 3.79482 1.29695 4.11419L1.29662 4.11519V4.11419C0.781501 4.84408 0.416144 5.66883 0.221658 6.54076L0.210992 6.59409C0.181474 6.76023 0.155137 6.92692 0.131995 7.09407L0.130328 7.11141C0.0601679 7.47618 0.0167209 7.84559 0.00033332 8.2167L0 8.25669C0 12.6799 3.58653 16.2664 8.01036 16.2664C11.9725 16.2664 15.2621 13.3898 15.9067 9.61231L15.9434 9.30332C16.1024 7.93004 15.9257 6.48576 15.4234 5.27848H15.4227ZM6.18976 11.5482C6.22743 11.5659 6.26309 11.5856 6.30109 11.6029L6.30642 11.6062C6.26724 11.5875 6.22835 11.5682 6.18976 11.5482ZM14.6291 5.69746L14.6281 5.68979L14.6294 5.69846L14.6291 5.69746Z" fill="url(#paint0_linear_4036_5925)"/>
<path d="M15.4227 5.27848C15.0747 4.44117 14.3694 3.53721 13.8161 3.25122C14.2668 4.13452 14.5274 5.02115 14.6271 5.68246C14.6271 5.68046 14.6278 5.68413 14.6284 5.68979L14.6298 5.69846C15.3857 7.74738 14.9738 9.83097 14.3804 11.1042C13.4625 13.0742 11.2406 15.0931 7.7617 14.9941C4.00318 14.8881 0.691973 12.0999 0.0739971 8.44669C-0.0386652 7.87071 0.0739971 7.57839 0.130662 7.11074C0.0616643 7.47072 0.035332 7.57539 0.000666641 8.21569L0 8.25669C0 12.6799 3.58653 16.2664 8.01036 16.2664C11.9725 16.2664 15.2621 13.3898 15.9067 9.61231L15.9434 9.30332C16.1024 7.93004 15.9257 6.48576 15.4234 5.27848H15.4227Z" fill="url(#paint1_radial_4036_5925)"/>
<path d="M15.4227 5.27848C15.0747 4.44117 14.3694 3.53721 13.8161 3.25122C14.2668 4.13452 14.5274 5.02115 14.6271 5.68246C14.6271 5.68046 14.6278 5.68413 14.6284 5.68979L14.6298 5.69846C15.3857 7.74738 14.9738 9.83097 14.3804 11.1042C13.4625 13.0742 11.2406 15.0931 7.7617 14.9941C4.00318 14.8881 0.691973 12.0999 0.0739971 8.44669C-0.0386652 7.87071 0.0739971 7.57839 0.130662 7.11074C0.0616643 7.47072 0.035332 7.57539 0.000666641 8.21569L0 8.25669C0 12.6799 3.58653 16.2664 8.01036 16.2664C11.9725 16.2664 15.2621 13.3898 15.9067 9.61231L15.9434 9.30332C16.1024 7.93004 15.9257 6.48576 15.4234 5.27848H15.4227Z" fill="url(#paint2_radial_4036_5925)"/>
<path d="M11.5302 6.22017L11.5802 6.25683C11.3791 5.90006 11.1288 5.57341 10.8365 5.28654C8.34629 2.79697 10.1829 -0.111922 10.4929 -0.259583L10.4962 -0.263916C8.48395 0.914372 7.80131 3.09462 7.73865 4.18525C7.83198 4.17858 7.92531 4.17091 8.01997 4.17091C9.52158 4.17091 10.8299 4.99655 11.5298 6.22083L11.5302 6.22017Z" fill="url(#paint3_radial_4036_5925)"/>
<path d="M8.02541 6.71673C8.01208 6.91606 7.30877 7.60337 7.06211 7.60337C4.7842 7.60337 4.41455 8.98098 4.41455 8.98098C4.51555 10.1409 5.32318 11.0969 6.30114 11.6025C6.34581 11.6259 6.39114 11.6459 6.43614 11.6669C6.51364 11.7012 6.59212 11.7334 6.67146 11.7632C7.00689 11.8819 7.35823 11.9497 7.71376 11.9642C11.7063 12.1515 12.4802 7.19105 9.59868 5.7511C10.3363 5.62278 11.102 5.91943 11.5299 6.22009C10.83 4.99613 9.52169 4.17017 8.02008 4.17017C7.92508 4.17017 7.83208 4.17817 7.73876 4.1845C6.93522 4.23977 6.16698 4.53585 5.53417 5.03413C5.65617 5.13746 5.79416 5.27546 6.08415 5.56178C6.62747 6.09709 8.02174 6.65174 8.02474 6.71673H8.02541Z" fill="url(#paint4_radial_4036_5925)"/>
<path d="M8.02541 6.71673C8.01208 6.91606 7.30877 7.60337 7.06211 7.60337C4.7842 7.60337 4.41455 8.98098 4.41455 8.98098C4.51555 10.1409 5.32318 11.0969 6.30114 11.6025C6.34581 11.6259 6.39114 11.6459 6.43614 11.6669C6.51364 11.7012 6.59212 11.7334 6.67146 11.7632C7.00689 11.8819 7.35823 11.9497 7.71376 11.9642C11.7063 12.1515 12.4802 7.19105 9.59868 5.7511C10.3363 5.62278 11.102 5.91943 11.5299 6.22009C10.83 4.99613 9.52169 4.17017 8.02008 4.17017C7.92508 4.17017 7.83208 4.17817 7.73876 4.1845C6.93522 4.23977 6.16698 4.53585 5.53417 5.03413C5.65617 5.13746 5.79416 5.27546 6.08415 5.56178C6.62747 6.09709 8.02174 6.65174 8.02474 6.71673H8.02541Z" fill="url(#paint5_radial_4036_5925)"/>
<path d="M5.16082 4.76809C5.2166 4.80408 5.27193 4.84075 5.32681 4.87809C5.14423 4.23922 5.13652 3.56304 5.30448 2.92017C4.48118 3.29515 3.8412 3.8868 3.37622 4.41011C3.41455 4.40911 4.57617 4.38811 5.16082 4.76809Z" fill="url(#paint6_radial_4036_5925)"/>
<path d="M0.0739111 8.44659C0.69222 12.0998 4.00309 14.888 7.76128 14.9943C11.2401 15.093 13.4624 13.0737 14.3804 11.1045C14.9737 9.83121 15.3856 7.74795 14.6297 5.6987V5.69803L14.6283 5.69003C14.6277 5.68437 14.627 5.6807 14.627 5.6827L14.6287 5.69603C14.913 7.5513 13.9687 9.34856 12.4938 10.5638L12.4894 10.5738C9.61454 12.9148 6.86365 11.9861 6.30634 11.6061C6.26719 11.5873 6.2283 11.568 6.18967 11.5481C4.51374 10.7472 3.82143 9.22023 3.96976 7.91061C2.55481 7.91061 2.07217 6.71733 2.07217 6.71733C2.07217 6.71733 3.34278 5.81136 5.01739 6.599C6.56833 7.32897 8.02494 6.71733 8.02494 6.71699C8.0216 6.652 6.62766 6.09702 6.08434 5.56204C5.79369 5.27538 5.65603 5.13806 5.5337 5.03439C5.4675 4.97843 5.39829 4.92614 5.32637 4.87773C5.27143 4.84048 5.2161 4.80382 5.16038 4.76774C4.57607 4.38775 3.41378 4.40908 3.37545 4.41008H3.37212C3.05446 4.00777 3.07679 2.68082 3.09479 2.4035C3.09146 2.38683 2.85814 2.52449 2.82747 2.54549C2.54721 2.7455 2.28519 2.96992 2.0445 3.21613C1.77067 3.49392 1.52048 3.79406 1.29653 4.11343L1.2962 4.11443V4.11343C0.781082 4.84332 0.415724 5.66807 0.221239 6.54C0.217905 6.55733 -0.0670835 7.80129 0.0732444 8.44659H0.0739111Z" fill="url(#paint7_radial_4036_5925)"/>
<path d="M10.8363 5.28681C11.1285 5.57358 11.3789 5.90011 11.5799 6.25677L11.6999 6.35543C13.5165 8.0287 12.5646 10.3953 12.4932 10.5639C13.9685 9.34865 14.9125 7.55139 14.6282 5.69613C13.7229 3.43821 12.1872 2.52758 10.933 0.545327L10.7443 0.238672C10.7128 0.184597 10.6833 0.129337 10.656 0.0730118C10.6039 -0.0275303 10.5638 -0.133799 10.5363 -0.243643C10.5365 -0.248893 10.5348 -0.25403 10.5314 -0.258041C10.528 -0.262052 10.5232 -0.264645 10.518 -0.265308C10.5131 -0.266707 10.5079 -0.266707 10.503 -0.265308L10.499 -0.262975L10.4933 -0.259642C10.1833 -0.111981 8.34673 2.79691 10.8366 5.28681H10.8363Z" fill="url(#paint8_radial_4036_5925)"/>
<path d="M11.7002 6.35509C11.6618 6.32037 11.6218 6.28756 11.5802 6.25676L11.5302 6.2201C11.1025 5.92011 10.3369 5.62279 9.59893 5.75112C12.4802 7.19173 11.7065 12.1519 7.714 11.9642C7.35848 11.9497 7.00714 11.882 6.67171 11.7632C6.59237 11.7333 6.5139 11.7012 6.43639 11.6669C6.39086 11.6466 6.34585 11.6251 6.30139 11.6026L6.30672 11.6059C6.86337 11.9859 9.6146 12.9142 12.4898 10.5736L12.4942 10.5636C12.5651 10.3949 13.5168 8.02836 11.7008 6.35509H11.7002Z" fill="url(#paint9_radial_4036_5925)"/>
<path d="M4.41454 8.98123C4.41454 8.98123 4.78453 7.60361 7.06211 7.60361C7.30876 7.60361 8.01207 6.91631 8.0254 6.71698C8.03873 6.51766 6.56879 7.32896 5.01785 6.59899C3.34325 5.81135 2.07263 6.71698 2.07263 6.71698C2.07263 6.71698 2.55528 7.91027 3.97023 7.91027C3.8219 9.22022 4.5142 10.7468 6.19014 11.5478C6.2278 11.5655 6.2628 11.5851 6.30147 11.6025C5.32317 11.0968 4.51554 10.1412 4.41487 8.98089L4.41454 8.98123Z" fill="url(#paint10_radial_4036_5925)"/>
<path d="M15.4227 5.27848C15.0747 4.44118 14.3694 3.53721 13.8161 3.25122C14.2668 4.13452 14.5274 5.02115 14.6271 5.68246L14.6288 5.69579C13.7228 3.43821 12.1872 2.52758 10.9329 0.545327L10.7443 0.238672C10.7127 0.184597 10.6832 0.129337 10.6559 0.0730119C10.6039 -0.0275303 10.5637 -0.133799 10.5363 -0.243643C10.5365 -0.248893 10.5347 -0.25403 10.5313 -0.258041C10.5279 -0.262052 10.5231 -0.264645 10.5179 -0.265308C10.513 -0.266707 10.5078 -0.266707 10.5029 -0.265308L10.4989 -0.262975L10.4933 -0.259642L10.4966 -0.264308C8.48434 0.914313 7.8017 3.09423 7.7387 4.18552C7.83203 4.17885 7.92536 4.17119 8.02036 4.17119C9.52196 4.17119 10.8302 4.99682 11.5302 6.22044C11.1022 5.92045 10.3369 5.62313 9.59863 5.75146C12.4798 7.19207 11.7062 12.1522 7.7137 11.9646C7.35817 11.9501 7.00683 11.8823 6.67141 11.7636C6.59207 11.7337 6.5136 11.7016 6.43608 11.6672C6.39056 11.6469 6.34555 11.6255 6.30109 11.6029L6.30676 11.6062C6.26761 11.5874 6.22872 11.5681 6.19009 11.5482C6.22743 11.5659 6.26276 11.5856 6.30109 11.6029C5.32279 11.0973 4.51516 10.1416 4.4145 8.98133C4.4145 8.98133 4.78381 7.60372 7.06173 7.60372C7.30838 7.60372 8.01169 6.91641 8.02502 6.71709C8.02169 6.65209 6.62841 6.09711 6.08443 5.56213C5.79444 5.27548 5.65611 5.13815 5.53445 5.03449C5.46814 4.97852 5.39882 4.92622 5.32679 4.87783C5.14427 4.23906 5.13656 3.563 5.30446 2.92024C4.48116 3.29489 3.84118 3.88686 3.3762 4.41018H3.37287C3.05521 4.00786 3.07755 2.68124 3.09555 2.40359C3.09221 2.38692 2.85889 2.52458 2.82822 2.54558C2.54796 2.74559 2.28595 2.97002 2.04525 3.21622C1.77153 3.49402 1.52146 3.79416 1.29762 4.11352L1.29728 4.11452V4.11352C0.782168 4.84342 0.41681 5.66816 0.222325 6.54009L0.211658 6.59343C0.177627 6.76114 0.146844 6.9295 0.119329 7.09841C0.118662 7.10441 0.119995 7.09274 0.119329 7.09841C0.0574354 7.46823 0.0179206 7.84145 0.000999961 8.21603L0 8.25669C0 12.6799 3.58653 16.2664 8.01036 16.2664C11.9725 16.2664 15.2621 13.3898 15.9067 9.61231L15.9434 9.30332C16.1024 7.93004 15.9257 6.48576 15.4234 5.27848H15.4227ZM14.6281 5.68979L14.6294 5.69846V5.69779L14.6281 5.68979Z" fill="url(#paint11_linear_4036_5925)"/>
<defs>
<linearGradient id="paint0_linear_4036_5925" x1="13.96" y1="2.29622" x2="1.09751" y2="14.7043" gradientUnits="userSpaceOnUse">
<stop offset="0.05" stop-color="#FFF44F"/>
<stop offset="0.37" stop-color="#FF980E"/>
<stop offset="0.53" stop-color="#FF3647"/>
<stop offset="0.7" stop-color="#E31587"/>
</linearGradient>
<radialGradient id="paint1_radial_4036_5925" cx="0" cy="0" r="1" gradientUnits="userSpaceOnUse" gradientTransform="translate(11.0806 1.57231) scale(16.384 16.6594)">
<stop offset="0.13" stop-color="#FFBD4F"/>
<stop offset="0.28" stop-color="#FF980E"/>
<stop offset="0.47" stop-color="#FF3750"/>
<stop offset="0.78" stop-color="#EB0878"/>
<stop offset="0.86" stop-color="#E50080"/>
</radialGradient>
<radialGradient id="paint2_radial_4036_5925" cx="0" cy="0" r="1" gradientUnits="userSpaceOnUse" gradientTransform="translate(6.33283 8.45729) scale(16.7936 16.6594)">
<stop offset="0.3" stop-color="#960E18"/>
<stop offset="0.35" stop-color="#B11927" stop-opacity="0.74"/>
<stop offset="0.43" stop-color="#DB293D" stop-opacity="0.34"/>
<stop offset="0.5" stop-color="#F5334B" stop-opacity="0.1"/>
<stop offset="0.53" stop-color="#FF3750" stop-opacity="0"/>
</radialGradient>
<radialGradient id="paint3_radial_4036_5925" cx="0" cy="0" r="1" gradientUnits="userSpaceOnUse" gradientTransform="translate(9.58258 -1.04641) scale(5.37812 9.12905)">
<stop offset="0.13" stop-color="#FFF44F"/>
<stop offset="0.53" stop-color="#FF980E"/>
</radialGradient>
<radialGradient id="paint4_radial_4036_5925" cx="0" cy="0" r="1" gradientUnits="userSpaceOnUse" gradientTransform="translate(6.03401 12.7579) scale(7.11539 7.7992)">
<stop offset="0.35" stop-color="#3A8EE6"/>
<stop offset="0.67" stop-color="#9059FF"/>
<stop offset="1" stop-color="#C139E6"/>
</radialGradient>
<radialGradient id="paint5_radial_4036_5925" cx="0" cy="0" r="1" gradientUnits="userSpaceOnUse" gradientTransform="translate(7.24977 6.7439) scale(3.77827 4.60153)">
<stop offset="0.21" stop-color="#9059FF" stop-opacity="0"/>
<stop offset="0.97" stop-color="#6E008B" stop-opacity="0.6"/>
</radialGradient>
<radialGradient id="paint6_radial_4036_5925" cx="0" cy="0" r="1" gradientUnits="userSpaceOnUse" gradientTransform="translate(7.47246 0.962242) scale(5.65671 5.67798)">
<stop offset="0.1" stop-color="#FFE226"/>
<stop offset="0.79" stop-color="#FF7139"/>
</radialGradient>
<radialGradient id="paint7_radial_4036_5925" cx="0" cy="0" r="1" gradientUnits="userSpaceOnUse" gradientTransform="translate(12.6389 -2.76214) scale(27.0096 22.6723)">
<stop offset="0.11" stop-color="#FFF44F"/>
<stop offset="0.46" stop-color="#FF980E"/>
<stop offset="0.72" stop-color="#FF3647"/>
<stop offset="0.9" stop-color="#E31587"/>
</radialGradient>
<radialGradient id="paint8_radial_4036_5925" cx="0" cy="0" r="1" gradientUnits="userSpaceOnUse" gradientTransform="translate(2.57737 4.70228) rotate(77.3945) scale(8.56757 37.0685)">
<stop stop-color="#FFF44F"/>
<stop offset="0.3" stop-color="#FF980E"/>
<stop offset="0.57" stop-color="#FF3647"/>
<stop offset="0.74" stop-color="#E31587"/>
</radialGradient>
<radialGradient id="paint9_radial_4036_5925" cx="0" cy="0" r="1" gradientUnits="userSpaceOnUse" gradientTransform="translate(7.53082 3.00476) scale(15.5077 15.2335)">
<stop offset="0.14" stop-color="#FFF44F"/>
<stop offset="0.48" stop-color="#FF980E"/>
<stop offset="0.66" stop-color="#FF3647"/>
<stop offset="0.9" stop-color="#E31587"/>
</radialGradient>
<radialGradient id="paint10_radial_4036_5925" cx="0" cy="0" r="1" gradientUnits="userSpaceOnUse" gradientTransform="translate(11.5555 3.8956) scale(18.6384 16.6737)">
<stop offset="0.09" stop-color="#FFF44F"/>
<stop offset="0.63" stop-color="#FF980E"/>
</radialGradient>
<linearGradient id="paint11_linear_4036_5925" x1="12.8" y1="2.04823" x2="2.51452" y2="13.2867" gradientUnits="userSpaceOnUse">
<stop offset="0.17" stop-color="#FFF44F" stop-opacity="0.8"/>
<stop offset="0.6" stop-color="#FFF44F" stop-opacity="0"/>
</linearGradient>
</defs>
</svg>
