<svg width="25" height="25" viewBox="0 0 25 25" fill="none" xmlns="http://www.w3.org/2000/svg">
<path fill-rule="evenodd" clip-rule="evenodd" d="M5.10889 5.84076C4.77737 5.84076 4.45942 5.97246 4.225 6.20688C3.99058 6.4413 3.85889 6.75924 3.85889 7.09076V17.0908C3.85889 17.4223 3.99058 17.7402 4.225 17.9746C4.45942 18.2091 4.77737 18.3408 5.10889 18.3408H19.1089C19.4404 18.3408 19.7583 18.2091 19.9928 17.9746C20.2272 17.7402 20.3589 17.4223 20.3589 17.0908V9.09076C20.3589 8.75924 20.2272 8.4413 19.9928 8.20688C19.7583 7.97246 19.4404 7.84076 19.1089 7.84076H13.1089C12.91 7.84076 12.7192 7.76174 12.5786 7.62109L10.7982 5.84076H5.10889ZM3.16434 5.14622C3.68007 4.63049 4.37954 4.34076 5.10889 4.34076H11.1089C11.3078 4.34076 11.4986 4.41978 11.6392 4.56043L13.4195 6.34076H19.1089C19.8382 6.34076 20.5377 6.63049 21.0534 7.14622C21.5692 7.66194 21.8589 8.36141 21.8589 9.09076V17.0908C21.8589 17.8201 21.5692 18.5196 21.0534 19.0353C20.5377 19.551 19.8382 19.8408 19.1089 19.8408H5.10889C4.37954 19.8408 3.68007 19.551 3.16434 19.0353C2.64862 18.5196 2.35889 17.8201 2.35889 17.0908V7.09076C2.35889 6.36141 2.64862 5.66194 3.16434 5.14622ZM12.1089 9.34076C12.5231 9.34076 12.8589 9.67655 12.8589 10.0908V12.3408H15.1089C15.5231 12.3408 15.8589 12.6765 15.8589 13.0908C15.8589 13.505 15.5231 13.8408 15.1089 13.8408H12.8589V16.0908C12.8589 16.505 12.5231 16.8408 12.1089 16.8408C11.6947 16.8408 11.3589 16.505 11.3589 16.0908V13.8408H9.10889C8.69467 13.8408 8.35889 13.505 8.35889 13.0908C8.35889 12.6765 8.69467 12.3408 9.10889 12.3408H11.3589V10.0908C11.3589 9.67655 11.6947 9.34076 12.1089 9.34076Z" fill="#3B3B3B"/>
</svg>
