<svg width="25" height="25" viewBox="0 0 25 25" fill="none" xmlns="http://www.w3.org/2000/svg">
<path fill-rule="evenodd" clip-rule="evenodd" d="M3.60026 5.14622C4.11598 4.63049 4.81545 4.34076 5.5448 4.34076H11.5448C11.7437 4.34076 11.9345 4.41978 12.0751 4.56043L13.8555 6.34076H19.5448C20.2741 6.34076 20.9736 6.63049 21.4893 7.14622C22.0051 7.66194 22.2948 8.36141 22.2948 9.09076V17.0908C22.2948 17.8201 22.0051 18.5196 21.4893 19.0353C20.9736 19.551 20.2741 19.8408 19.5448 19.8408H5.5448C4.81545 19.8408 4.11598 19.551 3.60026 19.0353C3.08453 18.5196 2.7948 17.8201 2.7948 17.0908V7.09076C2.7948 6.36141 3.08453 5.66194 3.60026 5.14622ZM5.5448 5.84076C5.21328 5.84076 4.89534 5.97246 4.66092 6.20688C4.4265 6.4413 4.2948 6.75924 4.2948 7.09076V17.0908C4.2948 17.4223 4.4265 17.7402 4.66092 17.9746C4.89534 18.2091 5.21328 18.3408 5.5448 18.3408H19.5448C19.8763 18.3408 20.1943 18.2091 20.4287 17.9746C20.6631 17.7402 20.7948 17.4223 20.7948 17.0908V9.09076C20.7948 8.75924 20.6631 8.4413 20.4287 8.20688C20.1943 7.97246 19.8763 7.84076 19.5448 7.84076H13.5448C13.3459 7.84076 13.1551 7.76174 13.0145 7.62109L11.2341 5.84076H5.5448Z" fill="#3B3B3B"/>
</svg>
