<svg width="24" height="24" viewBox="0 0 24 24" fill="none" xmlns="http://www.w3.org/2000/svg">
<path fill-rule="evenodd" clip-rule="evenodd" d="M11.2197 2.21967C11.5126 1.92678 11.9874 1.92678 12.2803 2.21967L22.2803 11.2197C22.5732 11.5126 22.5732 11.9874 22.2803 12.2803C21.9874 12.5732 21.5126 12.5732 21.2197 12.2803L20.5 11.5607V19.75C20.5 20.2141 20.3156 20.6592 19.9874 20.9874C19.6592 21.3156 19.2141 21.5 18.75 21.5H4.75C4.28587 21.5 3.84075 21.3156 3.51256 20.9874C3.18437 20.6592 3 20.2141 3 19.75V11.5607L2.28033 12.2803C1.98744 12.5732 1.51256 12.5732 1.21967 12.2803C0.926777 11.9874 0.926777 11.5126 1.21967 11.2197L11.2197 2.21967ZM12.5 20H16.25V18.2007H12.5V20ZM11 18.2007V20H7.25V18.2007H11ZM12.5 16.7007H16.25V14.9015H12.5V16.7007ZM11 14.9015V16.7007H7.25V14.9015H11ZM16.75 13.4015C17.3023 13.4015 17.75 13.8492 17.75 14.4015V20H18.75C18.8163 20 18.8799 19.9737 18.9268 19.9268C18.9737 19.8799 19 19.8163 19 19.75V10.0607L11.75 3.81066L4.5 10.0607V19.75C4.5 19.8163 4.52634 19.8799 4.57322 19.9268C4.62011 19.9737 4.68369 20 4.75 20H5.75V14.4015C5.75 13.8492 6.19772 13.4015 6.75 13.4015H16.75Z" fill="#363B4C"/>
<path d="M16.75 13.4015C17.3023 13.4015 17.75 13.8492 17.75 14.4015V20H18.75C18.8163 20 18.8799 19.9737 18.9268 19.9268C18.9737 19.8799 19 19.8163 19 19.75V10.0607L11.75 3.81066L4.5 10.0607V19.75C4.5 19.8163 4.52634 19.8799 4.57322 19.9268C4.62011 19.9737 4.68369 20 4.75 20H5.75V14.4015C5.75 13.8492 6.19772 13.4015 6.75 13.4015H16.75Z" fill="#363B4C"/>
</svg>
