<svg width="24" height="24" viewBox="0 0 24 24" fill="none" xmlns="http://www.w3.org/2000/svg">
<path d="M18.3943 5.60062C17.5661 4.78072 16.5811 4.12899 15.4956 3.68273C14.4101 3.23648 13.2454 3.00447 12.0683 3H12C9.61303 3 7.32385 3.9294 5.63603 5.58374C3.94821 7.23808 3 9.48184 3 11.8214V16.5714C3 17.1113 3.21882 17.6291 3.60831 18.0109C3.99781 18.3927 4.52608 18.6071 5.07692 18.6071H6.46153C7.01236 18.6071 7.54063 18.3927 7.93013 18.0109C8.31962 17.6291 8.53844 17.1113 8.53844 16.5714V13.1786C8.53844 12.6387 8.31962 12.1209 7.93013 11.7391C7.54063 11.3573 7.01236 11.1429 6.46153 11.1429H4.41576C4.54928 9.72798 5.09148 8.37972 5.97884 7.25609C6.86619 6.13246 8.06192 5.28003 9.42589 4.79869C10.7899 4.31736 12.2655 4.22707 13.68 4.53841C15.0944 4.84975 16.389 5.54982 17.4121 6.55656C18.6624 7.78842 19.4315 9.4117 19.585 11.1429H17.5384C16.9876 11.1429 16.4593 11.3573 16.0698 11.7391C15.6803 12.1209 15.4615 12.6387 15.4615 13.1786V16.5714C15.4615 17.1113 15.6803 17.6291 16.0698 18.0109C16.4593 18.3927 16.9876 18.6071 17.5384 18.6071H19.6153C19.6153 19.147 19.3965 19.6648 19.007 20.0466C18.6175 20.4284 18.0892 20.6429 17.5384 20.6429H12.6923C12.5087 20.6429 12.3326 20.7143 12.2027 20.8416C12.0729 20.9689 12 21.1415 12 21.3214C12 21.5014 12.0729 21.674 12.2027 21.8013C12.3326 21.9285 12.5087 22 12.6923 22H17.5384C18.4565 22 19.3369 21.6425 19.9861 21.0063C20.6352 20.37 20.9999 19.507 20.9999 18.6071V11.8214C21.0044 10.6675 20.7766 9.52403 20.3295 8.45655C19.8823 7.38907 19.2247 6.41856 18.3943 5.60062ZM6.46153 12.5C6.64514 12.5 6.82123 12.5715 6.95106 12.6987C7.08089 12.826 7.15383 12.9986 7.15383 13.1786V16.5714C7.15383 16.7514 7.08089 16.924 6.95106 17.0513C6.82123 17.1785 6.64514 17.25 6.46153 17.25H5.07692C4.8933 17.25 4.71721 17.1785 4.58738 17.0513C4.45755 16.924 4.38461 16.7514 4.38461 16.5714V12.5H6.46153ZM17.5384 17.25C17.3548 17.25 17.1787 17.1785 17.0489 17.0513C16.919 16.924 16.8461 16.7514 16.8461 16.5714V13.1786C16.8461 12.9986 16.919 12.826 17.0489 12.6987C17.1787 12.5715 17.3548 12.5 17.5384 12.5H19.6153V17.25H17.5384Z" fill="#3B3B3B"/>
</svg>
