<svg width="25" height="25" viewBox="0 0 25 25" fill="none" xmlns="http://www.w3.org/2000/svg">
<path fill-rule="evenodd" clip-rule="evenodd" d="M11.6873 2.66959C11.9802 2.3767 12.4551 2.3767 12.748 2.66959L21.748 11.6696C22.0409 11.9625 22.0409 12.4374 21.748 12.7302C21.4551 13.0231 20.9802 13.0231 20.6873 12.7302L19.9676 12.0106V20.1999C19.9676 20.664 19.7833 21.1092 19.4551 21.4374C19.1269 21.7655 18.6818 21.9499 18.2176 21.9499H6.21765C5.75352 21.9499 5.3084 21.7655 4.98021 21.4374C4.65203 21.1092 4.46765 20.664 4.46765 20.1999V12.0106L3.74798 12.7302C3.45509 13.0231 2.98021 13.0231 2.68732 12.7302C2.39443 12.4374 2.39443 11.9625 2.68732 11.6696L11.6873 2.66959ZM5.96765 10.5106V20.1999C5.96765 20.2662 5.99399 20.3298 6.04087 20.3767C6.08776 20.4236 6.15135 20.4499 6.21765 20.4499H9.21765C9.28396 20.4499 9.34754 20.4236 9.39443 20.3767C9.44131 20.3298 9.46765 20.2662 9.46765 20.1999V16.1999C9.46765 15.7358 9.65203 15.2907 9.98021 14.9625C10.3084 14.6343 10.7535 14.4499 11.2177 14.4499H13.2177C13.6818 14.4499 14.1269 14.6343 14.4551 14.9625C14.7833 15.2907 14.9677 15.7358 14.9677 16.1999V20.1999C14.9677 20.2662 14.994 20.3298 15.0409 20.3767C15.0878 20.4236 15.1513 20.4499 15.2176 20.4499H18.2176C18.284 20.4499 18.3475 20.4236 18.3944 20.3767C18.4413 20.3298 18.4676 20.2662 18.4676 20.1999V10.5106L12.2177 4.26058L5.96765 10.5106ZM13.4856 20.4499C13.4737 20.3676 13.4677 20.2841 13.4677 20.1999V16.1999C13.4677 16.1336 13.4413 16.07 13.3944 16.0231C13.3475 15.9763 13.284 15.9499 13.2177 15.9499H11.2177C11.1513 15.9499 11.0878 15.9763 11.0409 16.0231C10.994 16.07 10.9677 16.1336 10.9677 16.1999V20.1999C10.9677 20.2841 10.9616 20.3676 10.9497 20.4499H13.4856Z" fill="#3B3B3B"/>
</svg>
