<svg width="24" height="24" viewBox="0 0 24 24" fill="none" xmlns="http://www.w3.org/2000/svg">
<path fill-rule="evenodd" clip-rule="evenodd" d="M5 5.5H19C19.8284 5.5 20.5 6.17157 20.5 7V16C20.5 16.8284 19.8284 17.5 19 17.5H5C4.17157 17.5 3.5 16.8284 3.5 16V7C3.5 6.17157 4.17157 5.5 5 5.5ZM2 7C2 5.34315 3.34315 4 5 4H19C20.6569 4 22 5.34315 22 7V16C22 17.6569 20.6569 19 19 19H5C3.34315 19 2 17.6569 2 16V7ZM10 14.25C9.58579 14.25 9.25 14.5858 9.25 15C9.25 15.4142 9.58579 15.75 10 15.75H14C14.4142 15.75 14.75 15.4142 14.75 15C14.75 14.5858 14.4142 14.25 14 14.25H10ZM5.25 15C5.25 14.5858 5.58579 14.25 6 14.25H7C7.41421 14.25 7.75 14.5858 7.75 15C7.75 15.4142 7.41421 15.75 7 15.75H6C5.58579 15.75 5.25 15.4142 5.25 15ZM17 14.25C16.5858 14.25 16.25 14.5858 16.25 15C16.25 15.4142 16.5858 15.75 17 15.75H18C18.4142 15.75 18.75 15.4142 18.75 15C18.75 14.5858 18.4142 14.25 18 14.25H17ZM5.25 12C5.25 11.5858 5.58579 11.25 6 11.25H18C18.4142 11.25 18.75 11.5858 18.75 12C18.75 12.4142 18.4142 12.75 18 12.75H6C5.58579 12.75 5.25 12.4142 5.25 12ZM6 8.25C5.58579 8.25 5.25 8.58579 5.25 9C5.25 9.41421 5.58579 9.75 6 9.75H18C18.4142 9.75 18.75 9.41421 18.75 9C18.75 8.58579 18.4142 8.25 18 8.25H6Z" fill="#3B3B3B"/>
</svg>
