<svg width="25" height="25" viewBox="0 0 25 25" fill="none" xmlns="http://www.w3.org/2000/svg">
<path fill-rule="evenodd" clip-rule="evenodd" d="M12.5673 2.51456C12.7612 2.42837 12.9826 2.42837 13.1765 2.51456L22.1765 6.51456C22.5002 6.65842 22.6791 7.00912 22.6056 7.35561C22.532 7.70211 22.2261 7.94992 21.8719 7.94992H3.8719C3.51769 7.94992 3.21177 7.70211 3.13824 7.35561C3.06471 7.00912 3.24362 6.65842 3.5673 6.51456L12.5673 2.51456ZM7.40606 6.44992H18.3377L12.8719 4.02066L7.40606 6.44992ZM3.1219 10.1999C3.1219 9.78571 3.45769 9.44992 3.8719 9.44992H21.8719C22.2861 9.44992 22.6219 9.78571 22.6219 10.1999C22.6219 10.6141 22.2861 10.9499 21.8719 10.9499H21.6219V20.4499H21.8719C22.2861 20.4499 22.6219 20.7857 22.6219 21.1999C22.6219 21.6141 22.2861 21.9499 21.8719 21.9499H3.8719C3.45769 21.9499 3.1219 21.6141 3.1219 21.1999C3.1219 20.7857 3.45769 20.4499 3.8719 20.4499H4.1219V10.9499H3.8719C3.45769 10.9499 3.1219 10.6141 3.1219 10.1999ZM5.6219 10.9499V20.4499H20.1219V10.9499H5.6219ZM8.8719 13.4499C9.28611 13.4499 9.6219 13.7857 9.6219 14.1999V17.1999C9.6219 17.6141 9.28611 17.9499 8.8719 17.9499C8.45769 17.9499 8.1219 17.6141 8.1219 17.1999V14.1999C8.1219 13.7857 8.45769 13.4499 8.8719 13.4499ZM12.8719 13.4499C13.2861 13.4499 13.6219 13.7857 13.6219 14.1999V17.1999C13.6219 17.6141 13.2861 17.9499 12.8719 17.9499C12.4577 17.9499 12.1219 17.6141 12.1219 17.1999V14.1999C12.1219 13.7857 12.4577 13.4499 12.8719 13.4499ZM16.8719 13.4499C17.2861 13.4499 17.6219 13.7857 17.6219 14.1999V17.1999C17.6219 17.6141 17.2861 17.9499 16.8719 17.9499C16.4577 17.9499 16.1219 17.6141 16.1219 17.1999V14.1999C16.1219 13.7857 16.4577 13.4499 16.8719 13.4499Z" fill="#3B3B3B"/>
</svg>
