<svg width="25" height="24" viewBox="0 0 25 24" fill="none" xmlns="http://www.w3.org/2000/svg">
<path fill-rule="evenodd" clip-rule="evenodd" d="M13.7601 3.63221C14.6559 2.76696 15.8558 2.28819 17.1012 2.29901C18.3466 2.30983 19.538 2.80938 20.4187 3.69007C21.2994 4.57076 21.7989 5.76212 21.8098 7.00755C21.8206 8.25299 21.3418 9.45285 20.4766 10.3487L20.4675 10.3581L16.4674 14.358C15.5767 15.2485 14.3686 15.7488 13.1091 15.7488C11.8496 15.7488 10.6416 15.2486 9.75084 14.3581C9.4579 14.0652 9.45783 13.5904 9.75068 13.2974C10.0435 13.0045 10.5184 13.0044 10.8113 13.2973C11.4208 13.9065 12.2473 14.2488 13.1091 14.2488C13.9708 14.2488 14.7973 13.9066 15.4068 13.2973C15.4067 13.2974 15.4068 13.2973 15.4068 13.2973L19.4019 9.3022C19.9912 8.68972 20.3172 7.87067 20.3098 7.02059C20.3024 6.16845 19.9606 5.35331 19.358 4.75073C18.7555 4.14815 17.9403 3.80636 17.0882 3.79895C16.2381 3.79156 15.4191 4.11754 14.8066 4.70685L13.7114 5.80201C13.4185 6.0949 12.9437 6.0949 12.6508 5.80201C12.3579 5.50911 12.3579 5.03424 12.6508 4.74134L13.7601 3.63221ZM7.75084 9.64126C8.6416 8.75078 9.84956 8.25053 11.1091 8.25053C12.3686 8.25053 13.5766 8.75078 14.4673 9.64126C14.7603 9.93411 14.7603 10.409 14.4675 10.7019C14.1746 10.9949 13.6998 10.9949 13.4068 10.7021C12.7974 10.0928 11.9709 9.75053 11.1091 9.75053C10.2473 9.75053 9.4208 10.0928 8.81134 10.7021L4.8022 14.7112C4.49179 15.011 4.24412 15.3696 4.07379 15.7661C3.90346 16.1626 3.81381 16.5891 3.81006 17.0206C3.80631 17.4521 3.88854 17.8801 4.05195 18.2795C4.21537 18.6789 4.45669 19.0418 4.76184 19.3469C5.06699 19.6521 5.42986 19.8934 5.82927 20.0568C6.22868 20.2202 6.65664 20.3025 7.08818 20.2987C7.51971 20.295 7.94617 20.2053 8.34269 20.035C8.7392 19.8646 9.09782 19.617 9.39762 19.3066L9.40692 19.297L10.509 18.1961C10.802 17.9033 11.2769 17.9036 11.5697 18.1966C11.8624 18.4896 11.8622 18.9645 11.5692 19.2572L10.4717 20.3537C10.0345 20.805 9.51211 21.1652 8.93473 21.4132C8.35521 21.6621 7.73191 21.7932 7.10121 21.7986C6.47051 21.8041 5.84503 21.6839 5.26127 21.4451C4.67752 21.2063 4.14717 20.8536 3.70118 20.4076C3.25519 19.9616 2.90249 19.4312 2.66365 18.8475C2.42482 18.2637 2.30464 17.6383 2.31012 17.0076C2.3156 16.3769 2.44663 15.7536 2.69557 15.174C2.94362 14.5966 3.30379 14.0741 3.75517 13.6369L7.75084 9.64126Z" fill="#3B3B3B"/>
</svg>
