<svg width="25" height="24" viewBox="0 0 25 24" fill="none" xmlns="http://www.w3.org/2000/svg">
<path fill-rule="evenodd" clip-rule="evenodd" d="M8.18993 4.97234C9.38218 4.17571 10.7839 3.75052 12.2178 3.75052C13.6517 3.75052 15.0534 4.17571 16.2456 4.97234C17.4379 5.76896 18.3671 6.90124 18.9159 8.22598C19.4646 9.55072 19.6082 11.0084 19.3285 12.4148C19.0488 13.8211 18.3583 15.113 17.3444 16.1269L13.1012 20.3702C12.9853 20.4862 12.8476 20.5782 12.6962 20.641C12.5447 20.7038 12.3823 20.7361 12.2183 20.7361C12.0543 20.7361 11.8919 20.7038 11.7404 20.641C11.5889 20.5782 11.451 20.4859 11.335 20.3698L7.09105 16.1268C6.07719 15.1129 5.38676 13.8211 5.10706 12.4148C4.82734 11.0084 4.97094 9.55072 5.51969 8.22598C6.06843 6.90124 6.99768 5.76896 8.18993 4.97234ZM20.7997 12.7074C20.4621 14.4047 19.6288 15.9638 18.4051 17.1875L14.1621 21.4306C13.907 21.6859 13.604 21.8885 13.2705 22.0267C12.9369 22.165 12.5794 22.2361 12.2183 22.2361C11.8572 22.2361 11.4996 22.165 11.166 22.0267C10.8325 21.8884 10.5294 21.6858 10.2742 21.4303L6.03043 17.1875C4.80677 15.9638 3.97346 14.4047 3.63587 12.7074C3.29829 11.0101 3.47159 9.25076 4.13387 7.65193C4.79615 6.05311 5.91766 4.68657 7.35658 3.72513C8.79551 2.76369 10.4872 2.25052 12.2178 2.25052C13.9483 2.25052 15.64 2.76369 17.079 3.72513C18.5179 4.68657 19.6394 6.05311 20.3017 7.65193C20.964 9.25076 21.1373 11.0101 20.7997 12.7074ZM10.6268 9.4091C11.0487 8.98714 11.621 8.75009 12.2177 8.75009C12.8145 8.75009 13.3868 8.98714 13.8087 9.4091C14.2307 9.83106 14.4677 10.4034 14.4677 11.0001C14.4677 11.5968 14.2307 12.1691 13.8087 12.5911C13.3868 13.013 12.8145 13.2501 12.2177 13.2501C11.621 13.2501 11.0487 13.013 10.6268 12.5911C10.2048 12.1691 9.96774 11.5968 9.96774 11.0001C9.96774 10.4034 10.2048 9.83106 10.6268 9.4091ZM12.2177 7.25009C11.2232 7.25009 10.2694 7.64518 9.56609 8.34844C8.86283 9.0517 8.46774 10.0055 8.46774 11.0001C8.46774 11.9947 8.86283 12.9485 9.56609 13.6517C10.2694 14.355 11.2232 14.7501 12.2177 14.7501C13.2123 14.7501 14.1661 14.355 14.8694 13.6517C15.5727 12.9485 15.9677 11.9947 15.9677 11.0001C15.9677 10.0055 15.5727 9.0517 14.8694 8.34844C14.1661 7.64518 13.2123 7.25009 12.2177 7.25009Z" fill="#3B3B3B"/>
</svg>
