<svg width="40" height="40" viewBox="0 0 40 40" fill="none" xmlns="http://www.w3.org/2000/svg">
<rect width="40" height="40" rx="2" fill="#9CA0D7"/>
<path d="M15.4671 16.402V25H14.4471V18.682C14.4471 18.598 14.4491 18.508 14.4531 18.412C14.4611 18.316 14.4691 18.218 14.4771 18.118L11.5251 23.494C11.4331 23.674 11.2931 23.764 11.1051 23.764H10.9371C10.7491 23.764 10.6091 23.674 10.5171 23.494L7.50512 18.094C7.52912 18.306 7.54112 18.502 7.54112 18.682V25H6.52112V16.402H7.37912C7.48312 16.402 7.56312 16.412 7.61912 16.432C7.67512 16.452 7.72912 16.508 7.78112 16.6L10.7511 21.892C10.7991 21.988 10.8451 22.088 10.8891 22.192C10.9371 22.296 10.9811 22.402 11.0211 22.51C11.0611 22.402 11.1031 22.296 11.1471 22.192C11.1911 22.084 11.2391 21.982 11.2911 21.886L14.2071 16.6C14.2551 16.508 14.3071 16.452 14.3631 16.432C14.4231 16.412 14.5051 16.402 14.6091 16.402H15.4671ZM22.7615 21.574V25H21.5975V21.574L18.4475 16.402H19.4675C19.5715 16.402 19.6535 16.428 19.7135 16.48C19.7735 16.528 19.8255 16.592 19.8695 16.672L21.8375 20.014C21.9095 20.154 21.9755 20.286 22.0355 20.41C22.0955 20.53 22.1475 20.652 22.1915 20.776C22.2355 20.652 22.2855 20.53 22.3415 20.41C22.3975 20.286 22.4595 20.154 22.5275 20.014L24.4895 16.672C24.5255 16.604 24.5755 16.542 24.6395 16.486C24.7035 16.43 24.7855 16.402 24.8855 16.402H25.9115L22.7615 21.574ZM30.0537 17.35V20.356H33.5877V21.304H30.0537V25H28.8897V16.402H34.1877V17.35H30.0537Z" fill="#0E1326"/>
</svg>
