<svg width="40" height="40" viewBox="0 0 40 40" fill="none" xmlns="http://www.w3.org/2000/svg">
<rect width="40" height="40" rx="2" fill="#9CA0D7"/>
<path d="M15.7367 16.402V25H14.7167V18.682C14.7167 18.598 14.7187 18.508 14.7227 18.412C14.7307 18.316 14.7387 18.218 14.7467 18.118L11.7947 23.494C11.7027 23.674 11.5627 23.764 11.3747 23.764H11.2067C11.0187 23.764 10.8787 23.674 10.7867 23.494L7.77465 18.094C7.79865 18.306 7.81065 18.502 7.81065 18.682V25H6.79065V16.402H7.64865C7.75265 16.402 7.83265 16.412 7.88865 16.432C7.94465 16.452 7.99865 16.508 8.05065 16.6L11.0207 21.892C11.0687 21.988 11.1147 22.088 11.1587 22.192C11.2067 22.296 11.2507 22.402 11.2907 22.51C11.3307 22.402 11.3727 22.296 11.4167 22.192C11.4607 22.084 11.5087 21.982 11.5607 21.886L14.4767 16.6C14.5247 16.508 14.5767 16.452 14.6327 16.432C14.6927 16.412 14.7747 16.402 14.8787 16.402H15.7367ZM23.0311 21.574V25H21.8671V21.574L18.7171 16.402H19.7371C19.8411 16.402 19.9231 16.428 19.9831 16.48C20.0431 16.528 20.0951 16.592 20.1391 16.672L22.1071 20.014C22.1791 20.154 22.2451 20.286 22.3051 20.41C22.3651 20.53 22.4171 20.652 22.4611 20.776C22.5051 20.652 22.5551 20.53 22.6111 20.41C22.6671 20.286 22.7291 20.154 22.7971 20.014L24.7591 16.672C24.7951 16.604 24.8451 16.542 24.9091 16.486C24.9731 16.43 25.0551 16.402 25.1551 16.402H26.1811L23.0311 21.574ZM33.2877 17.746C33.2517 17.806 33.2117 17.852 33.1677 17.884C33.1277 17.912 33.0777 17.926 33.0177 17.926C32.9497 17.926 32.8697 17.892 32.7777 17.824C32.6857 17.756 32.5697 17.682 32.4297 17.602C32.2937 17.518 32.1277 17.442 31.9317 17.374C31.7397 17.306 31.5057 17.272 31.2297 17.272C30.9697 17.272 30.7397 17.308 30.5397 17.38C30.3437 17.448 30.1777 17.542 30.0417 17.662C29.9097 17.782 29.8097 17.924 29.7417 18.088C29.6737 18.248 29.6397 18.422 29.6397 18.61C29.6397 18.85 29.6977 19.05 29.8137 19.21C29.9337 19.366 30.0897 19.5 30.2817 19.612C30.4777 19.724 30.6977 19.822 30.9417 19.906C31.1897 19.986 31.4417 20.07 31.6977 20.158C31.9577 20.246 32.2097 20.346 32.4537 20.458C32.7017 20.566 32.9217 20.704 33.1137 20.872C33.3097 21.04 33.4657 21.246 33.5817 21.49C33.7017 21.734 33.7617 22.034 33.7617 22.39C33.7617 22.766 33.6977 23.12 33.5697 23.452C33.4417 23.78 33.2537 24.066 33.0057 24.31C32.7617 24.554 32.4597 24.746 32.0997 24.886C31.7437 25.026 31.3377 25.096 30.8817 25.096C30.3217 25.096 29.8137 24.996 29.3577 24.796C28.9017 24.592 28.5117 24.318 28.1877 23.974L28.5237 23.422C28.5557 23.378 28.5937 23.342 28.6377 23.314C28.6857 23.282 28.7377 23.266 28.7937 23.266C28.8457 23.266 28.9037 23.288 28.9677 23.332C29.0357 23.372 29.1117 23.424 29.1957 23.488C29.2797 23.552 29.3757 23.622 29.4837 23.698C29.5917 23.774 29.7137 23.844 29.8497 23.908C29.9897 23.972 30.1477 24.026 30.3237 24.07C30.4997 24.11 30.6977 24.13 30.9177 24.13C31.1937 24.13 31.4397 24.092 31.6557 24.016C31.8717 23.94 32.0537 23.834 32.2017 23.698C32.3537 23.558 32.4697 23.392 32.5497 23.2C32.6297 23.008 32.6697 22.794 32.6697 22.558C32.6697 22.298 32.6097 22.086 32.4897 21.922C32.3737 21.754 32.2197 21.614 32.0277 21.502C31.8357 21.39 31.6157 21.296 31.3677 21.22C31.1197 21.14 30.8677 21.06 30.6117 20.98C30.3557 20.896 30.1037 20.8 29.8557 20.692C29.6077 20.584 29.3877 20.444 29.1957 20.272C29.0037 20.1 28.8477 19.886 28.7277 19.63C28.6117 19.37 28.5537 19.05 28.5537 18.67C28.5537 18.366 28.6117 18.072 28.7277 17.788C28.8477 17.504 29.0197 17.252 29.2437 17.032C29.4717 16.812 29.7497 16.636 30.0777 16.504C30.4097 16.372 30.7897 16.306 31.2177 16.306C31.6977 16.306 32.1337 16.382 32.5257 16.534C32.9217 16.686 33.2697 16.906 33.5697 17.194L33.2877 17.746Z" fill="#0E1326"/>
</svg>
