<svg width="41" height="40" viewBox="0 0 41 40" fill="none" xmlns="http://www.w3.org/2000/svg">
<rect x="0.5" width="40" height="40" rx="2" fill="#9CA0D7"/>
<path d="M16.096 16.402V25H15.076V18.682C15.076 18.598 15.078 18.508 15.082 18.412C15.09 18.316 15.098 18.218 15.106 18.118L12.154 23.494C12.062 23.674 11.922 23.764 11.734 23.764H11.566C11.378 23.764 11.238 23.674 11.146 23.494L8.13403 18.094C8.15803 18.306 8.17003 18.502 8.17003 18.682V25H7.15003V16.402H8.00803C8.11203 16.402 8.19203 16.412 8.24803 16.432C8.30403 16.452 8.35803 16.508 8.41003 16.6L11.38 21.892C11.428 21.988 11.474 22.088 11.518 22.192C11.566 22.296 11.61 22.402 11.65 22.51C11.69 22.402 11.732 22.296 11.776 22.192C11.82 22.084 11.868 21.982 11.92 21.886L14.836 16.6C14.884 16.508 14.936 16.452 14.992 16.432C15.052 16.412 15.134 16.402 15.238 16.402H16.096ZM25.4665 24.052L25.4605 25H20.1625V16.402H25.4605V17.35H21.3265V20.206H24.6745V21.118H21.3265V24.052H25.4665ZM34.7701 17.38H31.9861V25H30.8281V17.38H28.0381V16.402H34.7701V17.38Z" fill="#1B264B"/>
</svg>
