<svg width="41" height="40" viewBox="0 0 41 40" fill="none" xmlns="http://www.w3.org/2000/svg">
<rect x="0.5" width="40" height="40" rx="2" fill="#1B264B"/>
<path d="M13.2317 20.866V24.166C12.7997 24.478 12.3377 24.712 11.8457 24.868C11.3577 25.02 10.8217 25.096 10.2377 25.096C9.54568 25.096 8.92168 24.99 8.36568 24.778C7.80968 24.562 7.33368 24.262 6.93768 23.878C6.54568 23.49 6.24368 23.026 6.03168 22.486C5.81968 21.946 5.71368 21.352 5.71368 20.704C5.71368 20.048 5.81568 19.45 6.01968 18.91C6.22768 18.37 6.52168 17.908 6.90168 17.524C7.28168 17.136 7.74368 16.836 8.28768 16.624C8.83168 16.412 9.43968 16.306 10.1117 16.306C10.4517 16.306 10.7677 16.332 11.0597 16.384C11.3517 16.432 11.6217 16.504 11.8697 16.6C12.1177 16.692 12.3477 16.806 12.5597 16.942C12.7717 17.074 12.9697 17.224 13.1537 17.392L12.8237 17.92C12.7717 18 12.7037 18.052 12.6197 18.076C12.5397 18.096 12.4497 18.076 12.3497 18.016C12.2537 17.96 12.1437 17.892 12.0197 17.812C11.8957 17.732 11.7437 17.656 11.5637 17.584C11.3877 17.508 11.1777 17.444 10.9337 17.392C10.6937 17.34 10.4077 17.314 10.0757 17.314C9.59168 17.314 9.15368 17.394 8.76168 17.554C8.36968 17.71 8.03568 17.936 7.75968 18.232C7.48368 18.524 7.27168 18.88 7.12368 19.3C6.97568 19.716 6.90168 20.184 6.90168 20.704C6.90168 21.244 6.97768 21.728 7.12968 22.156C7.28568 22.58 7.50568 22.942 7.78968 23.242C8.07768 23.538 8.42568 23.764 8.83368 23.92C9.24168 24.076 9.69968 24.154 10.2077 24.154C10.6077 24.154 10.9617 24.11 11.2697 24.022C11.5817 23.93 11.8857 23.804 12.1817 23.644V21.754H10.8437C10.7677 21.754 10.7057 21.732 10.6577 21.688C10.6137 21.644 10.5917 21.59 10.5917 21.526V20.866H13.2317ZM22.66 17.38H19.876V25H18.718V17.38H15.928V16.402H22.66V17.38ZM34.7498 16.402V25H33.7298V18.682C33.7298 18.598 33.7318 18.508 33.7358 18.412C33.7438 18.316 33.7518 18.218 33.7598 18.118L30.8078 23.494C30.7158 23.674 30.5758 23.764 30.3878 23.764H30.2198C30.0318 23.764 29.8918 23.674 29.7998 23.494L26.7878 18.094C26.8118 18.306 26.8238 18.502 26.8238 18.682V25H25.8038V16.402H26.6618C26.7658 16.402 26.8458 16.412 26.9018 16.432C26.9578 16.452 27.0118 16.508 27.0638 16.6L30.0338 21.892C30.0818 21.988 30.1278 22.088 30.1718 22.192C30.2198 22.296 30.2638 22.402 30.3038 22.51C30.3438 22.402 30.3858 22.296 30.4298 22.192C30.4738 22.084 30.5218 21.982 30.5738 21.886L33.4898 16.6C33.5378 16.508 33.5898 16.452 33.6458 16.432C33.7058 16.412 33.7878 16.402 33.8918 16.402H34.7498Z" fill="#E1E3F3"/>
</svg>
