<svg width="40" height="40" viewBox="0 0 40 40" fill="none" xmlns="http://www.w3.org/2000/svg">
<rect width="40" height="40" rx="2" fill="#D3D6EE"/>
<path d="M12.8016 16.402V25H11.6376V21.088H6.99957V25H5.83557V16.402H6.99957V20.236H11.6376V16.402H12.8016ZM24.8115 20.704C24.8115 21.348 24.7095 21.94 24.5055 22.48C24.3015 23.016 24.0135 23.478 23.6415 23.866C23.2695 24.254 22.8215 24.556 22.2975 24.772C21.7775 24.984 21.2015 25.09 20.5695 25.09C19.9375 25.09 19.3615 24.984 18.8415 24.772C18.3215 24.556 17.8755 24.254 17.5035 23.866C17.1315 23.478 16.8435 23.016 16.6395 22.48C16.4355 21.94 16.3335 21.348 16.3335 20.704C16.3335 20.06 16.4355 19.47 16.6395 18.934C16.8435 18.394 17.1315 17.93 17.5035 17.542C17.8755 17.15 18.3215 16.846 18.8415 16.63C19.3615 16.414 19.9375 16.306 20.5695 16.306C21.2015 16.306 21.7775 16.414 22.2975 16.63C22.8215 16.846 23.2695 17.15 23.6415 17.542C24.0135 17.93 24.3015 18.394 24.5055 18.934C24.7095 19.47 24.8115 20.06 24.8115 20.704ZM23.6175 20.704C23.6175 20.176 23.5455 19.702 23.4015 19.282C23.2575 18.862 23.0535 18.508 22.7895 18.22C22.5255 17.928 22.2055 17.704 21.8295 17.548C21.4535 17.392 21.0335 17.314 20.5695 17.314C20.1095 17.314 19.6915 17.392 19.3155 17.548C18.9395 17.704 18.6175 17.928 18.3495 18.22C18.0855 18.508 17.8815 18.862 17.7375 19.282C17.5935 19.702 17.5215 20.176 17.5215 20.704C17.5215 21.232 17.5935 21.706 17.7375 22.126C17.8815 22.542 18.0855 22.896 18.3495 23.188C18.6175 23.476 18.9395 23.698 19.3155 23.854C19.6915 24.006 20.1095 24.082 20.5695 24.082C21.0335 24.082 21.4535 24.006 21.8295 23.854C22.2055 23.698 22.5255 23.476 22.7895 23.188C23.0535 22.896 23.2575 22.542 23.4015 22.126C23.5455 21.706 23.6175 21.232 23.6175 20.704ZM34.3808 23.224C34.4448 23.224 34.5008 23.25 34.5488 23.302L35.0108 23.8C34.6588 24.208 34.2308 24.526 33.7268 24.754C33.2268 24.982 32.6208 25.096 31.9088 25.096C31.2928 25.096 30.7328 24.99 30.2288 24.778C29.7248 24.562 29.2948 24.262 28.9388 23.878C28.5828 23.49 28.3068 23.026 28.1108 22.486C27.9148 21.946 27.8168 21.352 27.8168 20.704C27.8168 20.056 27.9188 19.462 28.1228 18.922C28.3268 18.382 28.6128 17.918 28.9808 17.53C29.3528 17.142 29.7968 16.842 30.3128 16.63C30.8288 16.414 31.3988 16.306 32.0228 16.306C32.6348 16.306 33.1748 16.404 33.6428 16.6C34.1108 16.796 34.5228 17.062 34.8788 17.398L34.4948 17.932C34.4708 17.972 34.4388 18.006 34.3988 18.034C34.3628 18.058 34.3128 18.07 34.2488 18.07C34.1768 18.07 34.0888 18.032 33.9848 17.956C33.8808 17.876 33.7448 17.788 33.5768 17.692C33.4088 17.596 33.1988 17.51 32.9468 17.434C32.6948 17.354 32.3848 17.314 32.0168 17.314C31.5728 17.314 31.1668 17.392 30.7988 17.548C30.4308 17.7 30.1128 17.922 29.8448 18.214C29.5808 18.506 29.3748 18.862 29.2268 19.282C29.0788 19.702 29.0048 20.176 29.0048 20.704C29.0048 21.24 29.0808 21.718 29.2328 22.138C29.3888 22.558 29.5988 22.914 29.8628 23.206C30.1308 23.494 30.4448 23.714 30.8048 23.866C31.1688 24.018 31.5608 24.094 31.9808 24.094C32.2368 24.094 32.4668 24.08 32.6708 24.052C32.8788 24.02 33.0688 23.972 33.2408 23.908C33.4168 23.844 33.5788 23.764 33.7268 23.668C33.8788 23.568 34.0288 23.45 34.1768 23.314C34.2448 23.254 34.3128 23.224 34.3808 23.224Z" fill="#0E1326"/>
</svg>
