<svg width="40" height="40" viewBox="0 0 40 40" fill="none" xmlns="http://www.w3.org/2000/svg">
<rect width="40" height="40" rx="2" fill="#1B264B"/>
<path d="M10.784 20.566C11.12 20.566 11.416 20.526 11.672 20.446C11.932 20.362 12.148 20.246 12.32 20.098C12.496 19.946 12.628 19.766 12.716 19.558C12.804 19.35 12.848 19.12 12.848 18.868C12.848 18.356 12.68 17.97 12.344 17.71C12.008 17.45 11.504 17.32 10.832 17.32H9.55998V20.566H10.784ZM14.756 25H13.724C13.512 25 13.356 24.918 13.256 24.754L11.024 21.682C10.956 21.586 10.882 21.518 10.802 21.478C10.726 21.434 10.606 21.412 10.442 21.412H9.55998V25H8.40198V16.402H10.832C11.376 16.402 11.846 16.458 12.242 16.57C12.638 16.678 12.964 16.836 13.22 17.044C13.48 17.252 13.672 17.504 13.796 17.8C13.92 18.092 13.982 18.42 13.982 18.784C13.982 19.088 13.934 19.372 13.838 19.636C13.742 19.9 13.602 20.138 13.418 20.35C13.238 20.558 13.016 20.736 12.752 20.884C12.492 21.032 12.196 21.144 11.864 21.22C12.012 21.304 12.14 21.426 12.248 21.586L14.756 25ZM23.0973 24.052L23.0913 25H17.7933V16.402H23.0913V17.35H18.9573V20.206H22.3053V21.118H18.9573V24.052H23.0973ZM29.125 20.86C29.457 20.86 29.749 20.816 30.001 20.728C30.257 20.64 30.471 20.518 30.643 20.362C30.819 20.202 30.951 20.012 31.039 19.792C31.127 19.572 31.171 19.33 31.171 19.066C31.171 18.518 31.001 18.09 30.661 17.782C30.325 17.474 29.813 17.32 29.125 17.32H27.745V20.86H29.125ZM29.125 16.402C29.669 16.402 30.141 16.466 30.541 16.594C30.945 16.718 31.279 16.896 31.543 17.128C31.807 17.36 32.003 17.64 32.131 17.968C32.263 18.296 32.329 18.662 32.329 19.066C32.329 19.466 32.259 19.832 32.119 20.164C31.979 20.496 31.773 20.782 31.501 21.022C31.233 21.262 30.899 21.45 30.499 21.586C30.103 21.718 29.645 21.784 29.125 21.784H27.745V25H26.587V16.402H29.125Z" fill="#E1E3F3"/>
</svg>
