<svg width="25" height="24" viewBox="0 0 25 24" fill="none" xmlns="http://www.w3.org/2000/svg">
<path fill-rule="evenodd" clip-rule="evenodd" d="M3.92742 5.05603C4.44315 4.5403 5.14262 4.25057 5.87197 4.25057H19.872C20.6013 4.25057 21.3008 4.5403 21.8165 5.05603C22.3322 5.57175 22.622 6.27123 22.622 7.00057V7.98897C22.6221 7.99625 22.6221 8.00353 22.622 8.0108V17.0006C22.622 17.7299 22.3322 18.4294 21.8165 18.9451C21.3008 19.4608 20.6013 19.7506 19.872 19.7506H5.87197C5.14262 19.7506 4.44315 19.4608 3.92742 18.9451C3.4117 18.4294 3.12197 17.7299 3.12197 17.0006V8.01083C3.12186 8.00354 3.12186 7.99624 3.12197 7.98894V7.00057C3.12197 6.27123 3.4117 5.57175 3.92742 5.05603ZM4.62197 9.40196V17.0006C4.62197 17.3321 4.75366 17.65 4.98808 17.8845C5.2225 18.1189 5.54045 18.2506 5.87197 18.2506H19.872C20.2035 18.2506 20.5214 18.1189 20.7558 17.8845C20.9903 17.65 21.122 17.3321 21.122 17.0006V9.40196L14.3982 13.8845C13.9463 14.186 13.4152 14.3469 12.872 14.3469C12.3287 14.3469 11.7976 14.186 11.3457 13.8845L4.62197 9.40196ZM21.122 7.59918L13.5659 12.6365C13.3605 12.7736 13.1189 12.8469 12.872 12.8469C12.625 12.8469 12.3836 12.7737 12.1782 12.6367L4.62197 7.59918V7.00057C4.62197 6.66905 4.75366 6.35111 4.98808 6.11669C5.2225 5.88227 5.54045 5.75057 5.87197 5.75057H19.872C20.2035 5.75057 20.5214 5.88227 20.7558 6.11669C20.9903 6.35111 21.122 6.66905 21.122 7.00057V7.59918Z" fill="#3B3B3B"/>
</svg>
