<svg width="25" height="24" viewBox="0 0 25 24" fill="none" xmlns="http://www.w3.org/2000/svg">
<path fill-rule="evenodd" clip-rule="evenodd" d="M12.7627 4.15482C12.5157 4.15482 12.2743 4.22795 12.0689 4.365L5.0689 9.031C4.89788 9.14517 4.75739 9.29995 4.66041 9.48127C4.63148 9.53536 4.60667 9.59132 4.58609 9.64868L12.0687 14.6371C12.2741 14.7741 12.5157 14.8474 12.7627 14.8474C13.0096 14.8474 13.251 14.7743 13.4564 14.6372L20.9392 9.64868C20.9186 9.59132 20.8938 9.53536 20.8649 9.48127C20.7679 9.29985 20.6275 9.14519 20.4564 9.031L13.4567 4.36518C13.2513 4.22813 13.0096 4.15482 12.7627 4.15482ZM22.5123 10.0262C22.5135 9.99154 22.5123 9.95674 22.5086 9.92204C22.4869 9.52104 22.3776 9.12901 22.1876 8.77382C21.9741 8.3747 21.6654 8.03444 21.2889 7.78323L14.2889 3.11723C13.8371 2.81583 13.3058 2.65482 12.7627 2.65482C12.2195 2.65482 11.6885 2.81566 11.2367 3.11705L4.23667 7.78305C3.86015 8.03426 3.55119 8.3747 3.33772 8.77382C3.14774 9.12901 3.03841 9.52103 3.01668 9.92204C3.01303 9.95674 3.01183 9.99154 3.01301 10.0262C3.01277 10.0412 3.01265 10.0561 3.01265 10.0711C3.01265 10.0711 3.01265 10.0712 3.01265 10.0711V19.0011C3.01265 19.7305 3.30238 20.4299 3.81811 20.9457C4.33383 21.4614 5.03331 21.7511 5.76265 21.7511H19.7627C20.492 21.7511 21.1915 21.4614 21.7072 20.9457C22.2229 20.4299 22.5127 19.7305 22.5127 19.0011V10.0712C22.5127 10.0712 22.5127 10.0713 22.5127 10.0712C22.5127 10.0562 22.5125 10.0412 22.5123 10.0262ZM21.0127 11.4025L16.3647 14.5011L21.0127 17.5997V11.4025ZM20.9582 19.3662L15.0127 15.4025L14.2889 15.885C13.837 16.1865 13.3059 16.3474 12.7627 16.3474C12.2194 16.3474 11.6883 16.1865 11.2364 15.885L10.5127 15.4025L4.56715 19.3662C4.62642 19.5603 4.73264 19.7389 4.87877 19.885C5.11319 20.1194 5.43113 20.2511 5.76265 20.2511H19.7627C20.0942 20.2511 20.4121 20.1194 20.6465 19.885C20.7927 19.7389 20.8989 19.5603 20.9582 19.3662ZM4.51265 17.5997L9.16057 14.5011L4.51265 11.4025V17.5997Z" fill="#3B3B3B"/>
</svg>
