<svg width="25" height="25" viewBox="0 0 25 25" fill="none" xmlns="http://www.w3.org/2000/svg">
<path fill-rule="evenodd" clip-rule="evenodd" d="M12.6538 3.85751C10.4658 3.85751 8.36735 4.72671 6.82018 6.27388C5.273 7.82106 4.40381 9.91948 4.40381 12.1075C4.40381 13.1909 4.6172 14.2637 5.0318 15.2647C5.4464 16.2656 6.05409 17.1751 6.82018 17.9411C7.58626 18.7072 8.49573 19.3149 9.49667 19.7295C10.4976 20.1441 11.5704 20.3575 12.6538 20.3575C13.7372 20.3575 14.81 20.1441 15.8109 19.7295C16.8119 19.3149 17.7214 18.7072 18.4874 17.9411C19.2535 17.1751 19.8612 16.2656 20.2758 15.2647C20.6904 14.2637 20.9038 13.1909 20.9038 12.1075C20.9038 9.91948 20.0346 7.82106 18.4874 6.27388C16.9403 4.72671 14.8418 3.85751 12.6538 3.85751ZM5.75952 5.21322C7.588 3.38474 10.0679 2.35751 12.6538 2.35751C15.2397 2.35751 17.7196 3.38474 19.5481 5.21322C21.3766 7.0417 22.4038 9.52165 22.4038 12.1075C22.4038 13.3879 22.1516 14.6558 21.6616 15.8387C21.1716 17.0216 20.4535 18.0964 19.5481 19.0018C18.6427 19.9072 17.5679 20.6254 16.385 21.1153C15.202 21.6053 13.9342 21.8575 12.6538 21.8575C11.3734 21.8575 10.1056 21.6053 8.92264 21.1153C7.73972 20.6254 6.66489 19.9072 5.75952 19.0018C4.85415 18.0964 4.13597 17.0216 3.64598 15.8387C3.156 14.6558 2.90381 13.3879 2.90381 12.1075C2.90381 9.52165 3.93104 7.0417 5.75952 5.21322ZM8.90381 12.1075C8.90381 11.6933 9.23959 11.3575 9.65381 11.3575H15.6538C16.068 11.3575 16.4038 11.6933 16.4038 12.1075C16.4038 12.5217 16.068 12.8575 15.6538 12.8575H9.65381C9.23959 12.8575 8.90381 12.5217 8.90381 12.1075Z" fill="#3B3B3B"/>
</svg>
