<svg width="24" height="25" viewBox="0 0 24 25" fill="none" xmlns="http://www.w3.org/2000/svg">
<path fill-rule="evenodd" clip-rule="evenodd" d="M21.4617 2.51634C21.6438 2.65847 21.7502 2.87654 21.7502 3.10749V7.09184C21.7504 7.10268 21.7504 7.11349 21.7502 7.12427V16.1075C21.7502 16.9887 21.2146 17.6946 20.5375 18.1459C19.8553 18.6007 18.956 18.8575 18.0002 18.8575C17.0444 18.8575 16.1451 18.6007 15.4628 18.1459C14.7857 17.6946 14.2502 16.9887 14.2502 16.1075C14.2502 15.2263 14.7857 14.5204 15.4628 14.0691C16.1451 13.6143 17.0444 13.3575 18.0002 13.3575C18.8272 13.3575 19.6118 13.5497 20.2502 13.8961V8.06807L9.75018 10.6931V19.1075C9.75018 19.9887 9.21463 20.6946 8.53755 21.1459C7.8553 21.6007 6.95601 21.8575 6.00018 21.8575C5.04435 21.8575 4.14507 21.6007 3.46282 21.1459C2.78573 20.6946 2.25018 19.9887 2.25018 19.1075C2.25018 18.2263 2.78573 17.5204 3.46282 17.0691C4.14507 16.6143 5.04435 16.3575 6.00018 16.3575C6.82716 16.3575 7.6118 16.5497 8.25018 16.8961V10.1232C8.24995 10.1123 8.24995 10.1015 8.25018 10.0907V6.10749C8.25018 5.76334 8.48441 5.46335 8.81828 5.37988L20.8183 2.37988C21.0423 2.32387 21.2797 2.37421 21.4617 2.51634ZM9.75018 9.14691L20.2502 6.52191V4.06807L9.75018 6.69307V9.14691ZM8.25018 19.1075C8.25018 18.8837 8.11423 18.5896 7.70557 18.3172C7.30207 18.0482 6.70135 17.8575 6.00018 17.8575C5.29901 17.8575 4.6983 18.0482 4.2948 18.3172C3.88613 18.5896 3.75018 18.8837 3.75018 19.1075C3.75018 19.3313 3.88613 19.6254 4.2948 19.8978C4.6983 20.1668 5.29901 20.3575 6.00018 20.3575C6.70135 20.3575 7.30207 20.1668 7.70557 19.8978C8.11423 19.6254 8.25018 19.3313 8.25018 19.1075ZM20.2502 16.1075C20.2502 15.8837 20.1142 15.5896 19.7056 15.3172C19.3021 15.0482 18.7014 14.8575 18.0002 14.8575C17.299 14.8575 16.6983 15.0482 16.2948 15.3172C15.8861 15.5896 15.7502 15.8837 15.7502 16.1075C15.7502 16.3313 15.8861 16.6254 16.2948 16.8978C16.6983 17.1668 17.299 17.3575 18.0002 17.3575C18.7014 17.3575 19.3021 17.1668 19.7056 16.8978C20.1142 16.6254 20.2502 16.3313 20.2502 16.1075Z" fill="#3B3B3B"/>
</svg>
