<svg width="25" height="25" viewBox="0 0 25 25" fill="none" xmlns="http://www.w3.org/2000/svg">
<path fill-rule="evenodd" clip-rule="evenodd" d="M5.16434 3.27216C5.68007 2.75644 6.37954 2.46671 7.10889 2.46671H17.1089C17.8382 2.46671 18.5377 2.75644 19.0534 3.27216C19.5692 3.78789 19.8589 4.48736 19.8589 5.21671V20.4667H21.1089C21.5231 20.4667 21.8589 20.8025 21.8589 21.2167C21.8589 21.6309 21.5231 21.9667 21.1089 21.9667H3.10889C2.69467 21.9667 2.35889 21.6309 2.35889 21.2167C2.35889 20.8025 2.69467 20.4667 3.10889 20.4667H4.35889V5.21671C4.35889 4.48736 4.64862 3.78789 5.16434 3.27216ZM5.85889 20.4667V5.21671C5.85889 4.88518 5.99058 4.56724 6.225 4.33282C6.45942 4.0984 6.77737 3.96671 7.10889 3.96671H17.1089C17.4404 3.96671 17.7583 4.0984 17.9928 4.33282C18.2272 4.56724 18.3589 4.88518 18.3589 5.21671V20.4667H14.8589V16.2167C14.8589 15.7526 14.6745 15.3075 14.3463 14.9793C14.0181 14.6511 13.573 14.4667 13.1089 14.4667H11.1089C10.6448 14.4667 10.1996 14.6511 9.87145 14.9793C9.54326 15.3075 9.35889 15.7526 9.35889 16.2167V20.4667H5.85889ZM10.8589 20.4667H13.3589V16.2167C13.3589 16.1504 13.3325 16.0868 13.2857 16.0399C13.2388 15.993 13.1752 15.9667 13.1089 15.9667H11.1089C11.0426 15.9667 10.979 15.993 10.9321 16.0399C10.8852 16.0868 10.8589 16.1504 10.8589 16.2167V20.4667ZM8.35889 7.2167C8.35889 6.80249 8.69467 6.4667 9.10889 6.4667H10.1089C10.5231 6.4667 10.8589 6.80249 10.8589 7.2167C10.8589 7.63092 10.5231 7.9667 10.1089 7.9667H9.10889C8.69467 7.9667 8.35889 7.63092 8.35889 7.2167ZM13.3589 7.2167C13.3589 6.80249 13.6947 6.4667 14.1089 6.4667H15.1089C15.5231 6.4667 15.8589 6.80249 15.8589 7.2167C15.8589 7.63092 15.5231 7.9667 15.1089 7.9667H14.1089C13.6947 7.9667 13.3589 7.63092 13.3589 7.2167ZM8.35889 11.2167C8.35889 10.8025 8.69467 10.4667 9.10889 10.4667H10.1089C10.5231 10.4667 10.8589 10.8025 10.8589 11.2167C10.8589 11.6309 10.5231 11.9667 10.1089 11.9667H9.10889C8.69467 11.9667 8.35889 11.6309 8.35889 11.2167ZM13.3589 11.2167C13.3589 10.8025 13.6947 10.4667 14.1089 10.4667H15.1089C15.5231 10.4667 15.8589 10.8025 15.8589 11.2167C15.8589 11.6309 15.5231 11.9667 15.1089 11.9667H14.1089C13.6947 11.9667 13.3589 11.6309 13.3589 11.2167Z" fill="#3B3B3B"/>
</svg>
