<svg width="25" height="25" viewBox="0 0 25 25" fill="none" xmlns="http://www.w3.org/2000/svg">
<path fill-rule="evenodd" clip-rule="evenodd" d="M19.1538 3.96671C18.6896 3.96671 18.2444 4.15111 17.9161 4.47936L16.9465 5.44903L19.4218 7.92437L20.3915 6.95471C20.7197 6.62645 20.9041 6.18125 20.9041 5.71703C20.9041 5.25282 20.7197 4.80762 20.3915 4.47936C20.0632 4.15111 19.618 3.96671 19.1538 3.96671ZM21.4521 8.01537C22.0617 7.40581 22.4041 6.57908 22.4041 5.71703C22.4041 4.85499 22.0617 4.02826 21.4521 3.4187C20.8426 2.80915 20.0158 2.46671 19.1538 2.46671C18.2918 2.46671 17.465 2.80915 16.8555 3.4187L15.3561 4.91811C15.3559 4.91831 15.3563 4.91791 15.3561 4.91811C15.3559 4.91831 15.3551 4.9191 15.3549 4.9193L3.12348 17.1507C2.98283 17.2914 2.90381 17.4821 2.90381 17.681V21.253C2.90381 21.6672 3.2396 22.003 3.65381 22.003H7.15381C7.35272 22.003 7.54349 21.924 7.68414 21.7834L21.4521 8.01537ZM18.3611 8.98503L15.8858 6.5097L4.40381 17.9917V20.503H6.84315L18.3611 8.98503Z" fill="#3B3B3B"/>
</svg>
