<svg width="24" height="24" viewBox="0 0 24 24" fill="none" xmlns="http://www.w3.org/2000/svg">
<path d="M20.6015 7.19693L16.8037 3.39843C16.6774 3.27211 16.5275 3.17191 16.3624 3.10355C16.1974 3.03519 16.0205 3 15.8419 3C15.6633 3 15.4864 3.03519 15.3214 3.10355C15.1564 3.17191 15.0064 3.27211 14.8801 3.39843L4.39866 13.8802C4.27182 14.0061 4.17126 14.1558 4.10282 14.3209C4.03439 14.4859 3.99944 14.6629 4.00001 14.8415V18.64C4.00001 19.0007 4.14329 19.3466 4.39835 19.6017C4.6534 19.8567 4.99932 20 5.36002 20H9.15872C9.33738 20.0006 9.51438 19.9656 9.67942 19.8972C9.84446 19.8287 9.99425 19.7282 10.1201 19.6014L20.6015 9.12041C20.7279 8.99412 20.8281 8.84419 20.8964 8.67917C20.9648 8.51416 21 8.33729 21 8.15867C21 7.98005 20.9648 7.80319 20.8964 7.63817C20.8281 7.47315 20.7279 7.32322 20.6015 7.19693ZM17.6002 10.1982L13.8015 6.40051L15.8415 4.36059L19.6402 8.15825L17.6002 10.1982Z" fill="#363B4C"/>
</svg>
