<svg width="24" height="24" viewBox="0 0 24 24" fill="none" xmlns="http://www.w3.org/2000/svg">
<path fill-rule="evenodd" clip-rule="evenodd" d="M21 18C21 19.6569 19.6569 21 18 21H6C4.34315 21 3 19.6569 3 18V6C3 4.34315 4.34315 3 6 3H18C19.6569 3 21 4.34315 21 6C21 10.0281 21 13.9639 21 18ZM6 4.5H18C18.8284 4.5 19.5 5.17157 19.5 6V12.0577H16.8461C16.4319 12.0577 16.0961 12.3935 16.0961 12.8077C16.0961 13.2219 16.4319 13.5577 16.8461 13.5577H19.5V18C19.5 18.8284 18.8284 19.5 18 19.5H9.98071V15.1154C9.98071 14.7012 9.64493 14.3654 9.23071 14.3654C8.8165 14.3654 8.48071 14.7012 8.48071 15.1154V19.5H6C5.17157 19.5 4.5 18.8284 4.5 18V10.5577H11.8846C12.2989 10.5577 12.6346 10.2219 12.6346 9.80769C12.6346 9.39348 12.2989 9.05769 11.8846 9.05769H4.5V6C4.5 5.17157 5.17157 4.5 6 4.5Z" fill="#363B4C"/>
</svg>
