<svg width="25" height="25" viewBox="0 0 25 25" fill="none" xmlns="http://www.w3.org/2000/svg">
<path fill-rule="evenodd" clip-rule="evenodd" d="M6.38408 6.49227C7.93126 4.94509 10.0297 4.0759 12.2177 4.0759C14.4057 4.0759 16.5042 4.94509 18.0513 6.49227C19.5985 8.03944 20.4677 10.1379 20.4677 12.3259C20.4677 13.4093 20.2543 14.4821 19.8397 15.483C19.4251 16.484 18.8174 17.3934 18.0513 18.1595C17.2853 18.9256 16.3758 19.5333 15.3748 19.9479C14.3739 20.3625 13.3011 20.5759 12.2177 20.5759C11.1343 20.5759 10.0615 20.3625 9.06057 19.9479C8.05964 19.5333 7.15016 18.9256 6.38408 18.1595C5.618 17.3934 5.01031 16.484 4.59571 15.483C4.1811 14.4821 3.96771 13.4093 3.96771 12.3259C3.96771 10.1379 4.83691 8.03944 6.38408 6.49227ZM12.2177 2.5759C9.63185 2.5759 7.1519 3.60313 5.32342 5.43161C3.49494 7.26009 2.46771 9.74004 2.46771 12.3259C2.46771 13.6063 2.7199 14.8741 3.20989 16.0571C3.69987 17.24 4.41805 18.3148 5.32342 19.2202C6.22879 20.1256 7.30362 20.8437 8.48655 21.3337C9.66947 21.8237 10.9373 22.0759 12.2177 22.0759C13.4981 22.0759 14.766 21.8237 15.9489 21.3337C17.1318 20.8437 18.2066 20.1256 19.112 19.2202C20.0174 18.3148 20.7356 17.24 21.2255 16.0571C21.7155 14.8741 21.9677 13.6063 21.9677 12.3259C21.9677 9.74004 20.9405 7.26009 19.112 5.43161C17.2835 3.60313 14.8036 2.5759 12.2177 2.5759ZM11.3018 8.44555C10.985 8.43032 10.6701 8.50145 10.3906 8.65134L12.3056 10.6185L11.3566 9.98566C11.3189 9.96052 11.275 9.946 11.2297 9.94382C11.1845 9.94164 11.1395 9.95181 11.0996 9.97322C11.0597 9.99463 11.0263 10.0265 11.0031 10.0654C10.9799 10.1043 10.9676 10.1488 10.9677 10.1941L10.9677 10.1957V11.1054L9.46774 10.1964V14.4587C9.46772 14.7755 9.55368 15.0863 9.71646 15.3581C9.87927 15.6299 10.1128 15.8524 10.3922 16.0018C10.6715 16.1513 10.9862 16.2221 11.3026 16.2068C11.619 16.1914 11.9255 16.0904 12.189 15.9146L15.3859 13.7827C15.6255 13.6228 15.822 13.4063 15.9579 13.1524C16.0939 12.8984 16.165 12.6148 16.165 12.3267C16.165 12.0386 16.0939 11.755 15.9579 11.501C15.823 11.2489 15.6272 11.0307 15.3858 10.8697L12.1889 8.73771C11.9251 8.56176 11.6185 8.46078 11.3018 8.44555ZM13.9694 12.9243L11.3565 14.6668C11.3188 14.6919 11.2751 14.7063 11.2299 14.7085C11.1847 14.7107 11.1397 14.7006 11.0998 14.6793C11.0599 14.6579 11.0265 14.6261 11.0033 14.5873C10.98 14.5485 10.9677 14.5039 10.9677 14.4587L10.9677 11.1054L13.9694 12.9243ZM13.9694 12.9243L14.3216 12.6894L15.3859 13.7827L13.9694 12.9243ZM14.3216 12.6894L12.3056 10.6185L14.5537 12.1177C14.5861 12.1393 14.615 12.1706 14.6354 12.2087C14.6548 12.245 14.665 12.2855 14.665 12.3267C14.665 12.3678 14.6548 12.4084 14.6354 12.4446C14.616 12.4809 14.5879 12.5119 14.5536 12.5347L14.3216 12.6894Z" fill="#3B3B3B"/>
</svg>
