<svg width="25" height="25" viewBox="0 0 25 25" fill="none" xmlns="http://www.w3.org/2000/svg">
<path fill-rule="evenodd" clip-rule="evenodd" d="M12.3272 4.0759C10.1392 4.0759 8.04075 4.94509 6.49358 6.49227C4.9464 8.03944 4.07721 10.1379 4.07721 12.3259C4.07721 13.4093 4.2906 14.4821 4.7052 15.483C5.1198 16.484 5.72749 17.3934 6.49358 18.1595C7.25966 18.9256 8.16914 19.5333 9.17007 19.9479C10.171 20.3625 11.2438 20.5759 12.3272 20.5759C13.4106 20.5759 14.4834 20.3625 15.4843 19.9479C16.4853 19.5333 17.3948 18.9256 18.1608 18.1595C18.9269 17.3934 19.5346 16.484 19.9492 15.483C20.3638 14.4821 20.5772 13.4093 20.5772 12.3259C20.5772 10.1379 19.708 8.03944 18.1608 6.49227C16.6137 4.94509 14.5152 4.0759 12.3272 4.0759ZM5.43292 5.43161C7.2614 3.60313 9.74135 2.5759 12.3272 2.5759C14.9131 2.5759 17.393 3.60313 19.2215 5.43161C21.05 7.26009 22.0772 9.74004 22.0772 12.3259C22.0772 13.6063 21.825 14.8741 21.335 16.0571C20.8451 17.24 20.1269 18.3148 19.2215 19.2202C18.3161 20.1256 17.2413 20.8437 16.0584 21.3337C14.8754 21.8237 13.6076 22.0759 12.3272 22.0759C11.0468 22.0759 9.77897 21.8237 8.59605 21.3337C7.41312 20.8437 6.33829 20.1256 5.43292 19.2202C4.52755 18.3148 3.80937 17.24 3.31938 16.0571C2.8294 14.8741 2.57721 13.6063 2.57721 12.3259C2.57721 9.74004 3.60444 7.26009 5.43292 5.43161ZM12.3272 8.5759C12.7414 8.5759 13.0772 8.91168 13.0772 9.3259V11.5759H15.3272C15.7414 11.5759 16.0772 11.9117 16.0772 12.3259C16.0772 12.7401 15.7414 13.0759 15.3272 13.0759H13.0772V15.3259C13.0772 15.7401 12.7414 16.0759 12.3272 16.0759C11.913 16.0759 11.5772 15.7401 11.5772 15.3259V13.0759H9.32721C8.913 13.0759 8.57721 12.7401 8.57721 12.3259C8.57721 11.9117 8.913 11.5759 9.32721 11.5759H11.5772V9.3259C11.5772 8.91168 11.913 8.5759 12.3272 8.5759Z" fill="#3B3B3B"/>
</svg>
