<svg width="25" height="25" viewBox="0 0 25 25" fill="none" xmlns="http://www.w3.org/2000/svg">
<path fill-rule="evenodd" clip-rule="evenodd" d="M2.90381 4.32648C2.90381 3.91226 3.2396 3.57648 3.65381 3.57648H21.6538C22.068 3.57648 22.4038 3.91226 22.4038 4.32648C22.4038 4.74069 22.068 5.07648 21.6538 5.07648H21.4038V16.3265C21.4038 16.7906 21.2194 17.2357 20.8912 17.5639C20.5631 17.8921 20.1179 18.0765 19.6538 18.0765H14.4645L17.1841 20.7961C17.477 21.089 17.477 21.5639 17.1841 21.8568C16.8912 22.1497 16.4164 22.1497 16.1235 21.8568L12.6538 18.3871L9.18414 21.8568C8.89124 22.1497 8.41637 22.1497 8.12348 21.8568C7.83058 21.5639 7.83058 21.089 8.12348 20.7961L10.8431 18.0765H5.65381C5.18968 18.0765 4.74456 17.8921 4.41637 17.5639C4.08818 17.2357 3.90381 16.7906 3.90381 16.3265V5.07648H3.65381C3.2396 5.07648 2.90381 4.74069 2.90381 4.32648ZM5.40381 5.07648V16.3265C5.40381 16.3928 5.43015 16.4564 5.47703 16.5033C5.52392 16.5501 5.5875 16.5765 5.65381 16.5765H19.6538C19.7201 16.5765 19.7837 16.5501 19.8306 16.5033C19.8775 16.4564 19.9038 16.3928 19.9038 16.3265V5.07648H5.40381ZM18.1841 7.79615C18.477 8.08904 18.477 8.56391 18.1841 8.85681L14.1841 12.8568C14.0435 12.9975 13.8527 13.0765 13.6538 13.0765C13.4549 13.0765 13.2641 12.9975 13.1235 12.8568L10.6538 10.3871L8.18414 12.8568C7.89124 13.1497 7.41637 13.1497 7.12348 12.8568C6.83058 12.5639 6.83058 12.089 7.12348 11.7961L10.1235 8.79615C10.2641 8.65549 10.4549 8.57648 10.6538 8.57648C10.8527 8.57648 11.0435 8.65549 11.1841 8.79615L13.6538 11.2658L17.1235 7.79615C17.4164 7.50325 17.8912 7.50325 18.1841 7.79615Z" fill="#3B3B3B"/>
</svg>
