<svg width="17" height="16" viewBox="0 0 17 16" fill="none" xmlns="http://www.w3.org/2000/svg">
<path d="M15.2661 12.1217C16.0711 10.8978 16.5 9.46494 16.5 8.00005C16.5004 6.51597 16.0605 5.06514 15.236 3.83119C14.4114 2.59724 13.2394 1.63564 11.8681 1.06811C10.4968 0.500585 8.98801 0.352638 7.53262 0.642999C6.07723 0.933359 4.74069 1.64897 3.69219 2.69927C3.41719 2.97661 3.15781 3.25083 2.90625 3.52348L1.94219 2.55786C1.85478 2.47035 1.74337 2.41075 1.62207 2.38659C1.50076 2.36243 1.37502 2.37481 1.26076 2.42216C1.14649 2.4695 1.04884 2.54969 0.980175 2.65256C0.911506 2.75543 0.874903 2.87636 0.875 3.00005V6.12505C0.875 6.29081 0.940848 6.44978 1.05806 6.56699C1.17527 6.6842 1.33424 6.75005 1.5 6.75005H4.625C4.74869 6.75014 4.86962 6.71354 4.97249 6.64487C5.07536 6.5762 5.15554 6.47856 5.20289 6.36429C5.25023 6.25003 5.26261 6.12428 5.23846 6.00298C5.2143 5.88168 5.1547 5.77027 5.06719 5.68286L3.79297 4.4063C4.04531 4.13364 4.30469 3.85942 4.58047 3.58052C5.44895 2.71174 6.5542 2.11815 7.75812 1.87394C8.96203 1.62972 10.2112 1.7457 11.3496 2.20739C12.488 2.66907 13.465 3.45599 14.1587 4.46981C14.8524 5.48362 15.232 6.67939 15.25 7.90769C15.2679 9.13599 14.9236 10.3424 14.2598 11.376C13.5961 12.4097 12.6425 13.2249 11.5181 13.7197C10.3938 14.2145 9.14851 14.367 7.93796 14.1582C6.72742 13.9493 5.60527 13.3883 4.71172 12.5454C4.65201 12.4889 4.58177 12.4448 4.50501 12.4155C4.42825 12.3863 4.34648 12.3724 4.26435 12.3747C4.0985 12.3794 3.9413 12.4498 3.82734 12.5704C3.77092 12.6301 3.7268 12.7003 3.69752 12.7771C3.66824 12.8538 3.65436 12.9356 3.65668 13.0177C3.65901 13.0998 3.67748 13.1807 3.71105 13.2557C3.74462 13.3307 3.79263 13.3983 3.85234 13.4547C4.91772 14.4602 6.25421 15.1316 7.69683 15.3861C9.13944 15.6407 10.625 15.4672 11.9701 14.887C13.3153 14.3069 14.4611 13.3456 15.2661 12.1217Z" fill="#363B4C"/>
</svg>
