<svg width="25" height="25" viewBox="0 0 25 25" fill="none" xmlns="http://www.w3.org/2000/svg">
<path fill-rule="evenodd" clip-rule="evenodd" d="M12.8719 3.68456C13.2862 3.68456 13.6219 4.02034 13.6219 4.43456V12.6239L15.3416 10.9042C15.6345 10.6113 16.1094 10.6113 16.4023 10.9042C16.6952 11.1971 16.6952 11.672 16.4023 11.9649L13.4023 14.9649C13.2616 15.1055 13.0709 15.1846 12.8719 15.1846C12.673 15.1846 12.4823 15.1055 12.3416 14.9649L9.34162 11.9649C9.04872 11.672 9.04872 11.1971 9.34162 10.9042C9.63451 10.6113 10.1094 10.6113 10.4023 10.9042L12.1219 12.6239V4.43456C12.1219 4.02034 12.4577 3.68456 12.8719 3.68456ZM3.9274 7.49001C4.44313 6.97429 5.1426 6.68455 5.87195 6.68455H8.87195C9.28616 6.68455 9.62195 7.02034 9.62195 7.43455C9.62195 7.84877 9.28616 8.18456 8.87195 8.18456H5.87195C5.54043 8.18456 5.22249 8.31625 4.98806 8.55067C4.75364 8.78509 4.62195 9.10303 4.62195 9.43455V18.4346C4.62195 18.7661 4.75364 19.084 4.98806 19.3184C5.22249 19.5529 5.54043 19.6846 5.87195 19.6846H19.8719C20.2035 19.6846 20.5214 19.5529 20.7558 19.3184C20.9902 19.084 21.1219 18.7661 21.1219 18.4346V9.43455C21.1219 9.10303 20.9902 8.78509 20.7558 8.55067C20.5214 8.31625 20.2035 8.18456 19.8719 8.18456H16.8719C16.4577 8.18456 16.1219 7.84877 16.1219 7.43455C16.1219 7.02034 16.4577 6.68455 16.8719 6.68455H19.8719C20.6013 6.68455 21.3008 6.97429 21.8165 7.49001C22.3322 8.00574 22.6219 8.70521 22.6219 9.43455V18.4346C22.6219 19.1639 22.3322 19.8634 21.8165 20.3791C21.3008 20.8948 20.6013 21.1846 19.8719 21.1846H5.87195C5.1426 21.1846 4.44313 20.8948 3.9274 20.3791C3.41168 19.8634 3.12195 19.1639 3.12195 18.4346V9.43455C3.12195 8.70521 3.41168 8.00574 3.9274 7.49001Z" fill="#3B3B3B"/>
</svg>
