<svg width="25" height="25" viewBox="0 0 25 25" fill="none" xmlns="http://www.w3.org/2000/svg">
<path fill-rule="evenodd" clip-rule="evenodd" d="M12.1089 4.29404C9.92085 4.29404 7.82243 5.16323 6.27526 6.71041C4.72808 8.25758 3.85889 10.356 3.85889 12.544C3.85889 13.6274 4.07228 14.7002 4.48688 15.7012C4.90148 16.7021 5.50917 17.6116 6.27526 18.3777C7.04134 19.1438 7.95081 19.7514 8.95175 20.166C9.95268 20.5806 11.0255 20.794 12.1089 20.794C13.1923 20.794 14.2651 20.5806 15.266 20.166C16.267 19.7514 17.1764 19.1438 17.9425 18.3777C18.7086 17.6116 19.3163 16.7021 19.7309 15.7012C20.1455 14.7002 20.3589 13.6274 20.3589 12.544C20.3589 10.356 19.4897 8.25758 17.9425 6.71041C16.3953 5.16323 14.2969 4.29404 12.1089 4.29404ZM5.2146 5.64975C7.04307 3.82127 9.52303 2.79404 12.1089 2.79404C14.6947 2.79404 17.1747 3.82127 19.0032 5.64975C20.8317 7.47823 21.8589 9.95818 21.8589 12.544C21.8589 13.8244 21.6067 15.0923 21.1167 16.2752C20.6267 17.4581 19.9085 18.533 19.0032 19.4383C18.0978 20.3437 17.023 21.0619 15.84 21.5519C14.6571 22.0418 13.3893 22.294 12.1089 22.294C10.8285 22.294 9.56065 22.0418 8.37772 21.5519C7.1948 21.0619 6.11997 20.3437 5.2146 19.4383C4.30922 18.533 3.59104 17.4581 3.10106 16.2752C2.61108 15.0923 2.35889 13.8244 2.35889 12.544C2.35889 9.95818 3.38612 7.47823 5.2146 5.64975ZM13.1118 7.81134C14.1011 7.80743 15.0518 8.19459 15.7569 8.88847C16.1098 9.23569 16.3904 9.64933 16.5825 10.1055C16.7747 10.5617 16.8747 11.0515 16.8766 11.5465C16.8786 12.0415 16.7825 12.532 16.594 12.9897C16.4054 13.4474 16.1281 13.8633 15.778 14.2133C15.4279 14.5633 15.012 14.8405 14.5543 15.0289C14.0965 15.2174 13.606 15.3134 13.1109 15.3113C12.6159 15.3092 12.1262 15.2091 11.6701 15.0169C11.4484 14.9234 11.2367 14.8091 11.0379 14.6757L8.63922 17.0744C8.34632 17.3673 7.87145 17.3673 7.57856 17.0744C7.28566 16.7815 7.28566 16.3066 7.57856 16.0137L9.98436 13.6079C9.58779 12.999 9.3736 12.283 9.37669 11.5456C9.38083 10.5563 9.77572 9.60879 10.4753 8.90935C11.1749 8.20991 12.1226 7.81526 13.1118 7.81134ZM14.7048 9.95761C14.2818 9.54128 13.7113 9.30899 13.1178 9.31133C12.5242 9.31368 11.9556 9.55047 11.5359 9.97014C11.1161 10.3898 10.8792 10.9583 10.8767 11.5519C10.8742 12.1454 11.1063 12.7159 11.5226 13.1391C11.7309 13.3509 11.979 13.5193 12.2527 13.6346C12.5264 13.75 12.8202 13.8101 13.1172 13.8113C13.4142 13.8125 13.7086 13.755 13.9832 13.6419C14.2579 13.5288 14.5074 13.3625 14.7175 13.1525C14.9275 12.9425 15.0939 12.693 15.207 12.4184C15.3202 12.1437 15.3778 11.8494 15.3766 11.5524C15.3755 11.2554 15.3155 10.9616 15.2002 10.6878C15.0849 10.4141 14.9165 10.1659 14.7048 9.95761Z" fill="#3B3B3B"/>
</svg>
