<svg width="24" height="24" viewBox="0 0 24 24" fill="none" xmlns="http://www.w3.org/2000/svg">
<path fill-rule="evenodd" clip-rule="evenodd" d="M10 3.75006C8.3424 3.75006 6.75268 4.40854 5.58058 5.58064C4.40848 6.75275 3.75 8.34246 3.75 10.0001C3.75 10.8208 3.91166 11.6335 4.22575 12.3918C4.53984 13.1501 5.00022 13.8391 5.58058 14.4195C6.16095 14.9998 6.84994 15.4602 7.60823 15.7743C8.36651 16.0884 9.17924 16.2501 10 16.2501C10.8208 16.2501 11.6335 16.0884 12.3918 15.7743C13.1501 15.4602 13.839 14.9998 14.4194 14.4195C14.9998 13.8391 15.4602 13.1501 15.7742 12.3918C16.0883 11.6335 16.25 10.8208 16.25 10.0001C16.25 8.34246 15.5915 6.75275 14.4194 5.58064C13.2473 4.40854 11.6576 3.75006 10 3.75006ZM4.51992 4.51998C5.97333 3.06658 7.94457 2.25006 10 2.25006C12.0554 2.25006 14.0267 3.06658 15.4801 4.51998C16.9335 5.97339 17.75 7.94463 17.75 10.0001C17.75 11.0178 17.5495 12.0256 17.1601 12.9659C16.8666 13.6743 16.4702 14.334 15.9847 14.9241L21.5303 20.4697C21.8232 20.7626 21.8232 21.2375 21.5303 21.5304C21.2374 21.8233 20.7626 21.8233 20.4697 21.5304L14.924 15.9847C14.334 16.4702 13.6743 16.8667 12.9658 17.1601C12.0255 17.5496 11.0177 17.7501 10 17.7501C8.98225 17.7501 7.97448 17.5496 7.0342 17.1601C6.09393 16.7707 5.23958 16.1998 4.51992 15.4801C3.80027 14.7605 3.22941 13.9061 2.83993 12.9659C2.45046 12.0256 2.25 11.0178 2.25 10.0001C2.25 7.94463 3.06652 5.97339 4.51992 4.51998Z" fill="#3B3B3B"/>
</svg>
