<svg width="16" height="16" viewBox="0 0 16 16" fill="none" xmlns="http://www.w3.org/2000/svg">
<path fill-rule="evenodd" clip-rule="evenodd" d="M2 10.1667C2 9.89052 2.22386 9.66667 2.5 9.66667L3.40283 9.66667C3.48742 9.3683 3.64712 9.09349 3.8703 8.8703C4.21412 8.52649 4.68044 8.33333 5.16667 8.33333C5.6529 8.33333 6.11921 8.52649 6.46303 8.8703C6.68622 9.09349 6.84592 9.3683 6.9305 9.66667L13.5 9.66667C13.7761 9.66667 14 9.89052 14 10.1667C14 10.4428 13.7761 10.6667 13.5 10.6667L6.9305 10.6667C6.84592 10.965 6.68622 11.2398 6.46303 11.463C6.11921 11.8068 5.6529 12 5.16667 12C4.68044 12 4.21412 11.8068 3.8703 11.463C3.64712 11.2398 3.48742 10.965 3.40283 10.6667L2.5 10.6667C2.22386 10.6667 2 10.4428 2 10.1667ZM2 6.16667C2 5.89052 2.22386 5.66667 2.5 5.66667L8.73616 5.66667C8.82075 5.3683 8.98045 5.09349 9.20364 4.87031C9.54745 4.52649 10.0138 4.33333 10.5 4.33333C10.9862 4.33333 11.4525 4.52649 11.7964 4.87031C12.0195 5.09349 12.1792 5.3683 12.2638 5.66667L13.5 5.66667C13.7761 5.66667 14 5.89052 14 6.16667C14 6.44281 13.7761 6.66667 13.5 6.66667L12.2638 6.66667C12.1792 6.96503 12.0195 7.23984 11.7964 7.46303C11.4525 7.80685 10.9862 8 10.5 8C10.0138 8 9.54745 7.80685 9.20364 7.46303C8.98045 7.23984 8.82075 6.96503 8.73616 6.66667L2.5 6.66667C2.22386 6.66667 2 6.44281 2 6.16667ZM4.33333 10.1667C4.33333 10.3877 4.42113 10.5996 4.57741 10.7559C4.73369 10.9122 4.94565 11 5.16667 11C5.38768 11 5.59964 10.9122 5.75592 10.7559C5.9122 10.5996 6 10.3877 6 10.1667C6 9.94565 5.9122 9.73369 5.75592 9.57741C5.59964 9.42113 5.38768 9.33333 5.16667 9.33333C4.94565 9.33333 4.73369 9.42113 4.57741 9.57741C4.42113 9.73369 4.33333 9.94565 4.33333 10.1667ZM9.66667 6.16667C9.66667 6.38768 9.75446 6.59964 9.91074 6.75592C10.067 6.9122 10.279 7 10.5 7C10.721 7 10.933 6.9122 11.0893 6.75592C11.2455 6.59964 11.3333 6.38768 11.3333 6.16667C11.3333 5.94565 11.2455 5.73369 11.0893 5.57741C10.933 5.42113 10.721 5.33333 10.5 5.33333C10.279 5.33333 10.067 5.42113 9.91074 5.57741C9.75446 5.73369 9.66667 5.94565 9.66667 6.16667Z" fill="#363B4C"/>
</svg>
