<svg width="25" height="25" viewBox="0 0 25 25" fill="none" xmlns="http://www.w3.org/2000/svg">
<path fill-rule="evenodd" clip-rule="evenodd" d="M12.7627 4.40324C10.5747 4.40324 8.47625 5.27243 6.92908 6.81961C5.3819 8.36678 4.51271 10.4652 4.51271 12.6532C4.51271 13.7366 4.7261 14.8094 5.1407 15.8104C5.5553 16.8113 6.16299 17.7208 6.92908 18.4869C7.69516 19.253 8.60463 19.8606 9.60557 20.2752C10.6065 20.6898 11.6793 20.9032 12.7627 20.9032C13.8461 20.9032 14.9189 20.6898 15.9198 20.2752C16.9208 19.8606 17.8303 19.253 18.5963 18.4869C19.3624 17.7208 19.9701 16.8113 20.3847 15.8104C20.7993 14.8094 21.0127 13.7366 21.0127 12.6532C21.0127 10.4652 20.1435 8.36678 18.5963 6.81961C17.0492 5.27243 14.9507 4.40324 12.7627 4.40324ZM5.86842 5.75895C7.6969 3.93047 10.1768 2.90324 12.7627 2.90324C15.3486 2.90324 17.8285 3.93047 19.657 5.75895C21.4855 7.58743 22.5127 10.0674 22.5127 12.6532C22.5127 13.9336 22.2605 15.2015 21.7705 16.3844C21.2806 17.5673 20.5624 18.6422 19.657 19.5475C18.7516 20.4529 17.6768 21.1711 16.4939 21.6611C15.3109 22.151 14.0431 22.4032 12.7627 22.4032C11.4823 22.4032 10.2145 22.151 9.03154 21.6611C7.84862 21.1711 6.77379 20.4529 5.86842 19.5475C4.96305 18.6422 4.24487 17.5673 3.75488 16.3844C3.75488 16.3844 3.75488 16.3844 3.75488 16.3844L4.44431 16.0988M10.7627 10.4023C10.6964 10.4023 10.6328 10.4286 10.5859 10.4755C10.5391 10.5224 10.5127 10.586 10.5127 10.6523V14.6523C10.5127 14.7186 10.5391 14.7822 10.5859 14.829C10.6328 14.8759 10.6964 14.9023 10.7627 14.9023H14.7627C14.829 14.9023 14.8926 14.8759 14.9395 14.829C14.9864 14.7822 15.0127 14.7186 15.0127 14.6523V10.6523C15.0127 10.586 14.9864 10.5224 14.9395 10.4755C14.8926 10.4286 14.829 10.4023 14.7627 10.4023H10.7627ZM9.52528 9.41483C9.85347 9.08664 10.2986 8.90226 10.7627 8.90226H14.7627C15.2268 8.90226 15.672 9.08664 16.0002 9.41483C16.3283 9.74301 16.5127 10.1881 16.5127 10.6523V14.6523C16.5127 15.1164 16.3283 15.5615 16.0002 15.8897C15.672 16.2179 15.2268 16.4023 14.7627 16.4023H10.7627C10.2986 16.4023 9.85347 16.2179 9.52528 15.8897C9.19709 15.5615 9.01271 15.1164 9.01271 14.6523V10.6523C9.01271 10.1881 9.19709 9.74301 9.52528 9.41483Z" fill="#3B3B3B"/>
</svg>
