<svg width="24" height="24" viewBox="0 0 24 24" fill="none" xmlns="http://www.w3.org/2000/svg">
<path fill-rule="evenodd" clip-rule="evenodd" d="M2.25 5C2.25 3.48122 3.48122 2.25 5 2.25H19C20.5188 2.25 21.75 3.48122 21.75 5V19C21.75 20.5188 20.5188 21.75 19 21.75H5C3.48122 21.75 2.25 20.5188 2.25 19V5ZM5 3.75C4.30964 3.75 3.75 4.30964 3.75 5V19C3.75 19.6904 4.30964 20.25 5 20.25H19C19.6904 20.25 20.25 19.6904 20.25 19V5C20.25 4.30964 19.6904 3.75 19 3.75H5ZM17.0373 8.77672C17.3263 9.07346 17.32 9.5483 17.0233 9.83729L11.4786 15.2373C11.1919 15.5166 10.7363 15.5214 10.4436 15.2483L6.98826 12.0233C6.68545 11.7407 6.66908 11.2661 6.95171 10.9633C7.23433 10.6604 7.70893 10.6441 8.01174 10.9267L10.9443 13.6638L15.9767 8.76271C16.2735 8.47371 16.7483 8.47999 17.0373 8.77672Z" fill="#3B3B3B"/>
</svg>
