<svg width="24" height="25" viewBox="0 0 24 25" fill="none" xmlns="http://www.w3.org/2000/svg">
<path fill-rule="evenodd" clip-rule="evenodd" d="M9.00023 2.35898C9.41444 2.35898 9.75023 2.69476 9.75023 3.10898V4.35898H12.737C12.7459 4.35882 12.7547 4.35882 12.7636 4.35898H15.0002C15.4144 4.35898 15.7502 4.69476 15.7502 5.10898C15.7502 5.52319 15.4144 5.85898 15.0002 5.85898H13.3749C12.8081 8.65084 11.6214 11.217 9.96491 13.4078C10.1662 13.6398 10.3738 13.8665 10.5877 14.0879C10.8754 14.3858 10.8672 14.8606 10.5693 15.1484C10.2714 15.4362 9.79658 15.428 9.5088 15.13C9.33548 14.9506 9.1659 14.7679 9.00014 14.582C7.41294 16.3624 5.49129 17.8378 3.33394 18.9096C2.96299 19.0939 2.51287 18.9426 2.32856 18.5717C2.14426 18.2007 2.29556 17.7506 2.66651 17.5663C4.72278 16.5447 6.54594 15.1247 8.03539 13.4078C7.10356 12.1751 6.32574 10.8297 5.72148 9.40116C5.56011 9.01967 5.73855 8.5796 6.12004 8.41823C6.50153 8.25686 6.9416 8.43531 7.10297 8.81679C7.60807 10.0109 8.24497 11.1419 9.00019 12.1893C10.3456 10.3239 11.3273 8.17898 11.8415 5.85898H3.00023C2.58601 5.85898 2.25023 5.52319 2.25023 5.10898C2.25023 4.69476 2.58601 4.35898 3.00023 4.35898H8.25023V3.10898C8.25023 2.69476 8.58601 2.35898 9.00023 2.35898ZM16.0002 10.359C16.2843 10.359 16.544 10.5195 16.671 10.7736L20.1643 17.7601C20.1692 17.7693 20.1738 17.7786 20.1783 17.7881L21.671 20.7736C21.8563 21.1441 21.7061 21.5946 21.3356 21.7798C20.9652 21.965 20.5146 21.8149 20.3294 21.4444L19.0367 18.859H12.9638L11.671 21.4444C11.4858 21.8149 11.0353 21.965 10.6648 21.7798C10.2943 21.5946 10.1442 21.1441 10.3294 20.7736L11.8221 17.7881C11.8266 17.7786 11.8313 17.7693 11.8361 17.7601L15.3294 10.7736C15.4564 10.5195 15.7161 10.359 16.0002 10.359ZM13.7138 17.359H18.2867L16.0002 12.786L13.7138 17.359Z" fill="#3B3B3B"/>
</svg>
