<svg width="25" height="25" viewBox="0 0 25 25" fill="none" xmlns="http://www.w3.org/2000/svg">
<path fill-rule="evenodd" clip-rule="evenodd" d="M3.27317 7.0358C3.78889 6.52008 4.48837 6.23035 5.21771 6.23035H13.2177C13.9471 6.23035 14.6465 6.52008 15.1623 7.0358C15.678 7.55153 15.9677 8.251 15.9677 8.98035V9.76694L19.4354 8.0335C19.7021 7.90021 19.9986 7.83724 20.2964 7.85065C20.5943 7.86407 20.8838 7.95338 21.1375 8.11011C21.3912 8.26683 21.6006 8.48578 21.7459 8.74617C21.8912 9.00657 21.9676 9.29976 21.9677 9.59795V16.3623C21.9676 16.6605 21.8912 16.9541 21.7459 17.2145C21.6006 17.4749 21.3912 17.6939 21.1375 17.8506C20.8838 18.0073 20.5943 18.0966 20.2964 18.11C19.9986 18.1235 19.7022 18.0605 19.4355 17.9272L15.9677 16.1938V16.9803C15.9677 17.7097 15.678 18.4092 15.1623 18.9249C14.6465 19.4406 13.9471 19.7303 13.2177 19.7303H5.21771C4.48837 19.7303 3.78889 19.4406 3.27317 18.9249C2.75744 18.4092 2.46771 17.7097 2.46771 16.9803V8.98035C2.46771 8.251 2.75744 7.55153 3.27317 7.0358ZM15.9677 14.5168L20.106 16.5854C20.1059 16.5854 20.106 16.5855 20.106 16.5854C20.144 16.6045 20.1864 16.6135 20.229 16.6116C20.2715 16.6096 20.3129 16.5969 20.3491 16.5745C20.3854 16.5521 20.4153 16.5208 20.436 16.4836C20.4568 16.4464 20.4677 16.4045 20.4677 16.3619V9.59875C20.4677 9.55615 20.4568 9.51426 20.436 9.47706C20.4153 9.43987 20.3854 9.40859 20.3491 9.3862C20.3129 9.36381 20.2715 9.35105 20.229 9.34913C20.1864 9.34722 20.1441 9.35619 20.1061 9.3752C20.106 9.37521 20.1061 9.37518 20.1061 9.3752L15.9677 11.4439V14.5168ZM14.4677 8.98035C14.4677 8.64883 14.336 8.33088 14.1016 8.09646C13.8672 7.86204 13.5492 7.73035 13.2177 7.73035H5.21771C4.88619 7.73035 4.56825 7.86204 4.33383 8.09646C4.09941 8.33088 3.96771 8.64883 3.96771 8.98035V16.9803C3.96771 17.3119 4.09941 17.6298 4.33383 17.8642C4.56825 18.0987 4.88619 18.2303 5.21771 18.2303H13.2177C13.5492 18.2303 13.8672 18.0987 14.1016 17.8642C14.336 17.6298 14.4677 17.3119 14.4677 16.9803V8.98035Z" fill="#3B3B3B"/>
</svg>
