<svg width="25" height="25" viewBox="0 0 25 25" fill="none" xmlns="http://www.w3.org/2000/svg">
<path fill-rule="evenodd" clip-rule="evenodd" d="M6.54486 5.7303C6.21334 5.7303 5.8954 5.862 5.66098 6.09642C5.42656 6.33084 5.29486 6.64878 5.29486 6.9803V8.9803C5.29486 9.31182 5.42656 9.62976 5.66098 9.86418C5.8954 10.0986 6.21334 10.2303 6.54486 10.2303H8.54486C8.87638 10.2303 9.19432 10.0986 9.42874 9.86418C9.66316 9.62976 9.79486 9.31182 9.79486 8.9803V6.9803C9.79486 6.64878 9.66316 6.33084 9.42874 6.09642C9.19432 5.862 8.87638 5.7303 8.54486 5.7303H6.54486ZM4.60032 5.03576C5.11604 4.52003 5.81552 4.2303 6.54486 4.2303H8.54486C9.27421 4.2303 9.97368 4.52003 10.4894 5.03576C11.0051 5.55148 11.2949 6.25096 11.2949 6.9803V8.9803C11.2949 9.70965 11.0051 10.4091 10.4894 10.9248C9.97368 11.4406 9.27421 11.7303 8.54486 11.7303H6.54486C5.81552 11.7303 5.11604 11.4406 4.60032 10.9248C4.08459 10.4091 3.79486 9.70965 3.79486 8.9803V6.9803C3.79486 6.25096 4.08459 5.55148 4.60032 5.03576ZM16.5449 5.7303C16.2133 5.7303 15.8954 5.862 15.661 6.09642C15.4266 6.33084 15.2949 6.64878 15.2949 6.9803V8.9803C15.2949 9.31182 15.4266 9.62976 15.661 9.86418C15.8954 10.0986 16.2133 10.2303 16.5449 10.2303H18.5449C18.8764 10.2303 19.1943 10.0986 19.4287 9.86418C19.6632 9.62976 19.7949 9.31182 19.7949 8.9803V6.9803C19.7949 6.64878 19.6632 6.33084 19.4287 6.09642C19.1943 5.862 18.8764 5.7303 18.5449 5.7303H16.5449ZM14.6003 5.03576C15.116 4.52003 15.8155 4.2303 16.5449 4.2303H18.5449C19.2742 4.2303 19.9737 4.52003 20.4894 5.03576C21.0051 5.55148 21.2949 6.25096 21.2949 6.9803V8.9803C21.2949 9.70965 21.0051 10.4091 20.4894 10.9248C19.9737 11.4406 19.2742 11.7303 18.5449 11.7303H16.5449C15.8155 11.7303 15.116 11.4406 14.6003 10.9248C14.0846 10.4091 13.7949 9.70965 13.7949 8.9803V6.9803C13.7949 6.25096 14.0846 5.55148 14.6003 5.03576ZM6.54486 15.7303C6.21334 15.7303 5.8954 15.862 5.66098 16.0964C5.42656 16.3308 5.29486 16.6488 5.29486 16.9803V18.9803C5.29486 19.3118 5.42656 19.6298 5.66098 19.8642C5.8954 20.0986 6.21334 20.2303 6.54486 20.2303H8.54486C8.87638 20.2303 9.19432 20.0986 9.42874 19.8642C9.66316 19.6298 9.79486 19.3118 9.79486 18.9803V16.9803C9.79486 16.6488 9.66316 16.3308 9.42874 16.0964C9.19432 15.862 8.87638 15.7303 8.54486 15.7303H6.54486ZM4.60032 15.0358C5.11604 14.52 5.81552 14.2303 6.54486 14.2303H8.54486C9.27421 14.2303 9.97368 14.52 10.4894 15.0358C11.0051 15.5515 11.2949 16.251 11.2949 16.9803V18.9803C11.2949 19.7096 11.0051 20.4091 10.4894 20.9248C9.97368 21.4406 9.27421 21.7303 8.54486 21.7303H6.54486C5.81552 21.7303 5.11604 21.4406 4.60032 20.9248C4.08459 20.4091 3.79486 19.7096 3.79486 18.9803V16.9803C3.79486 16.251 4.08459 15.5515 4.60032 15.0358ZM16.5449 15.7303C16.2133 15.7303 15.8954 15.862 15.661 16.0964C15.4266 16.3308 15.2949 16.6488 15.2949 16.9803V18.9803C15.2949 19.3118 15.4266 19.6298 15.661 19.8642C15.8954 20.0986 16.2133 20.2303 16.5449 20.2303H18.5449C18.8764 20.2303 19.1943 20.0986 19.4287 19.8642C19.6632 19.6298 19.7949 19.3118 19.7949 18.9803V16.9803C19.7949 16.6488 19.6632 16.3308 19.4287 16.0964C19.1943 15.862 18.8764 15.7303 18.5449 15.7303H16.5449ZM14.6003 15.0358C15.116 14.52 15.8155 14.2303 16.5449 14.2303H18.5449C19.2742 14.2303 19.9737 14.52 20.4894 15.0358C21.0051 15.5515 21.2949 16.251 21.2949 16.9803V18.9803C21.2949 19.7096 21.0051 20.4091 20.4894 20.9248C19.9737 21.4406 19.2742 21.7303 18.5449 21.7303H16.5449C15.8155 21.7303 15.116 21.4406 14.6003 20.9248C14.0846 20.4091 13.7949 19.7096 13.7949 18.9803V16.9803C13.7949 16.251 14.0846 15.5515 14.6003 15.0358Z" fill="#3B3B3B"/>
</svg>
