<svg width="24" height="24" viewBox="0 0 24 24" fill="none" xmlns="http://www.w3.org/2000/svg">
<path fill-rule="evenodd" clip-rule="evenodd" d="M2.75 3.56688V13.4331C4.03383 12.9768 5.343 12.6183 6.66663 12.3578V4.64217C5.343 4.38166 4.03383 4.02323 2.75 3.56688ZM8.16663 4.89468V12.1053C10.7096 11.7489 13.2903 11.7489 15.8333 12.1053V4.8947C13.2903 5.25106 10.7096 5.25106 8.16663 4.89468ZM17.3333 4.64218V12.3578C18.657 12.6183 19.9661 12.9768 21.25 13.4331V3.56688C19.9661 4.02324 18.657 4.38167 17.3333 4.64218ZM1.25 3.45572C1.25 2.47104 2.22679 1.78453 3.15326 2.11806C8.87146 4.17661 15.1285 4.17661 20.8467 2.11806C21.7732 1.78453 22.75 2.47104 22.75 3.45572V13.5443C22.75 14.529 21.7732 15.2155 20.8467 14.8819C15.1285 12.8234 8.87146 12.8234 3.15326 14.8819C2.22679 15.2155 1.25 14.529 1.25 13.5443V3.45572ZM7.25777 16.2679C7.63408 16.441 7.79883 16.8864 7.62573 17.2627L7.20926 18.1681C10.46 16.9997 14.0353 17.0582 17.2536 18.3437L16.7571 17.2643C16.584 16.8879 16.7487 16.4426 17.125 16.2695C17.5014 16.0964 17.9467 16.2611 18.1198 16.6374L19.345 19.301C19.5181 19.6773 19.3533 20.1227 18.977 20.2958L16.3135 21.5209C15.9371 21.694 15.4918 21.5293 15.3187 21.153C15.1456 20.7767 15.3103 20.3313 15.6866 20.1582L16.6467 19.7166C13.7318 18.5669 10.4938 18.5399 7.56382 19.6357L8.69618 20.1566C9.07249 20.3297 9.23723 20.7751 9.06414 21.1514C8.89105 21.5277 8.44567 21.6924 8.06935 21.5193L5.40579 20.2942C5.02948 20.1211 4.86474 19.6757 5.03783 19.2994L6.26298 16.6358C6.43607 16.2595 6.88145 16.0948 7.25777 16.2679Z" fill="#3B3B3B"/>
</svg>
