<svg width="24" height="24" viewBox="0 0 24 24" fill="none" xmlns="http://www.w3.org/2000/svg">
<path fill-rule="evenodd" clip-rule="evenodd" d="M2.96049 8.5C2.96049 6.42893 4.63942 4.75 6.71049 4.75H17.2894C19.3605 4.75 21.0394 6.42893 21.0394 8.5V8.65803C22.2999 8.90873 23.25 10.021 23.25 11.3551V12.4655C23.25 13.7996 22.2999 14.9119 21.0394 15.1626V15.5C21.0394 17.5711 19.3605 19.25 17.2894 19.25H16.7045C15.1897 19.25 13.8237 18.3386 13.242 16.9399L13.1541 16.7286C12.7272 15.7019 11.2727 15.7019 10.8458 16.7286L10.7579 16.9399C10.1762 18.3386 8.8102 19.25 7.29538 19.25H6.71049C4.63942 19.25 2.96049 17.5711 2.96049 15.5V15.1626C1.70003 14.9119 0.75 13.7996 0.75 12.4655V11.3551C0.75 10.021 1.70003 8.90878 2.96049 8.65805V8.5ZM2.96049 10.2272C2.54022 10.4286 2.25 10.858 2.25 11.3551V12.4655C2.25 12.9626 2.54022 13.392 2.96049 13.5934V10.2272ZM21.0394 13.5934C21.4597 13.392 21.75 12.9627 21.75 12.4655V11.3551C21.75 10.858 21.4597 10.4286 21.0394 10.2272V13.5934ZM6.71049 6.25C5.46784 6.25 4.46049 7.25736 4.46049 8.5V15.5C4.46049 16.7426 5.46785 17.75 6.71049 17.75H7.29538C8.20427 17.75 9.0239 17.2032 9.3729 16.364L9.46077 16.1527L10.1533 16.4406L9.46077 16.1526C10.4001 13.8939 13.5998 13.8939 14.5391 16.1526L14.627 16.364C14.976 17.2032 15.7956 17.75 16.7045 17.75H17.2894C18.5321 17.75 19.5394 16.7426 19.5394 15.5V8.5C19.5394 7.25736 18.5321 6.25 17.2894 6.25H6.71049Z" fill="#3B3B3B"/>
</svg>
