<svg width="24" height="24" viewBox="0 0 24 24" fill="none" xmlns="http://www.w3.org/2000/svg">
<path fill-rule="evenodd" clip-rule="evenodd" d="M3.25 5.21427V18.7857C4.42991 18.2202 5.65104 17.7754 6.89579 17.4511V6.54887C5.65104 6.22463 4.42991 5.77976 3.25 5.21427ZM8.39579 6.87936V17.1206C10.7788 16.6897 13.2211 16.6897 15.6041 17.1206V6.87937C13.2211 7.31027 10.7788 7.31027 8.39579 6.87936ZM17.1041 6.54889V17.4511C18.3489 17.7753 19.5701 18.2202 20.75 18.7857V5.21427C19.5701 5.77977 18.3489 6.22465 17.1041 6.54889ZM1.75 4.7924C1.75 3.87024 2.72241 3.27208 3.54548 3.68794C8.86179 6.37408 15.1382 6.37408 20.4545 3.68794C21.2776 3.27208 22.25 3.87024 22.25 4.7924V19.2076C22.25 20.1298 21.2776 20.7279 20.4545 20.3121C15.1382 17.6259 8.86179 17.6259 3.54548 20.3121C2.72242 20.7279 1.75 20.1298 1.75 19.2076V4.7924Z" fill="#3B3B3B"/>
</svg>
