<svg width="25" height="24" viewBox="0 0 25 24" fill="none" xmlns="http://www.w3.org/2000/svg">
<path fill-rule="evenodd" clip-rule="evenodd" d="M11.4681 4.99954C11.4681 4.77686 11.1991 4.66525 11.0415 4.82287L6.33447 9.52987C6.19382 9.67053 6.00305 9.74954 5.80414 9.74954H4.21814C4.15184 9.74954 4.08825 9.77588 4.04136 9.82277C3.99448 9.86965 3.96814 9.93324 3.96814 9.99954V13.9995C3.96814 14.0658 3.99448 14.1294 4.04136 14.1763C4.08825 14.2232 4.15184 14.2495 4.21814 14.2495H5.80414C6.00305 14.2495 6.19382 14.3286 6.33447 14.4692L11.0415 19.1762C11.1991 19.3338 11.4681 19.2222 11.4681 18.9995V4.99954ZM9.98081 3.76221C11.0832 2.65984 12.9681 3.44023 12.9681 4.99954V18.9995C12.9681 20.5589 11.0832 21.3393 9.98081 20.2369L5.49348 15.7495H4.21814C3.75401 15.7495 3.30889 15.5652 2.9807 15.237C2.65251 14.9088 2.46814 14.4637 2.46814 13.9995V9.99954C2.46814 9.53541 2.65251 9.0903 2.9807 8.76211C3.30889 8.43392 3.75401 8.24954 4.21814 8.24954H5.49348L9.98081 3.76221ZM18.0518 5.10522C18.3447 4.81232 18.8196 4.81232 19.1125 5.10521C20.0179 6.01058 20.736 7.08542 21.226 8.26835C21.716 9.45128 21.9682 10.7191 21.9682 11.9995C21.9682 13.2799 21.716 14.5478 21.226 15.7307C20.736 16.9137 20.0179 17.9885 19.1125 18.8939C18.8196 19.1868 18.3447 19.1868 18.0518 18.8939C17.7589 18.601 17.7589 18.1261 18.0518 17.8332C18.8179 17.0671 19.4256 16.1576 19.8402 15.1567C20.2548 14.1558 20.4682 13.083 20.4682 11.9995C20.4682 10.9161 20.2548 9.84332 19.8402 8.84238C19.4256 7.84144 18.8179 6.93196 18.0518 6.16588C17.7589 5.87299 17.7589 5.39811 18.0518 5.10522ZM15.2237 7.93328C15.5166 7.64035 15.9915 7.64029 16.2844 7.93314C16.8185 8.4671 17.2422 9.10104 17.5312 9.79876C17.8203 10.4965 17.9691 11.2443 17.9691 11.9995C17.9691 12.7548 17.8203 13.5026 17.5312 14.2003C17.2422 14.898 16.8185 15.532 16.2844 16.0659C15.9915 16.3588 15.5166 16.3587 15.2237 16.0658C14.9309 15.7729 14.9309 15.298 15.2239 15.0051C15.6186 14.6105 15.9318 14.1419 16.1455 13.6262C16.3591 13.1105 16.4691 12.5578 16.4691 11.9995C16.4691 11.4413 16.3591 10.8886 16.1455 10.3729C15.9318 9.85717 15.6186 9.38861 15.2239 8.99394C14.9309 8.70109 14.9309 8.22621 15.2237 7.93328Z" fill="#3B3B3B"/>
</svg>
