<svg width="24" height="24" viewBox="0 0 24 24" fill="none" xmlns="http://www.w3.org/2000/svg">
<path d="M19.2497 8.96906L17.2088 2.03812C17.163 1.88284 17.0683 1.74652 16.9387 1.64953C16.8091 1.55254 16.6516 1.50008 16.4897 1.5H7.51034C7.34846 1.50008 7.19096 1.55254 7.06135 1.64953C6.93175 1.74652 6.83701 1.88284 6.79128 2.03812L4.75034 8.96906C4.43012 10.0314 4.41337 11.1621 4.70195 12.2335C4.99054 13.3048 5.57298 14.2741 6.38346 15.0319C7.71676 16.282 9.42973 17.0506 11.25 17.2153V21H8.25003C8.05111 21 7.86035 21.079 7.7197 21.2197C7.57904 21.3603 7.50003 21.5511 7.50003 21.75C7.50003 21.9489 7.57904 22.1397 7.7197 22.2803C7.86035 22.421 8.05111 22.5 8.25003 22.5H15.75C15.9489 22.5 16.1397 22.421 16.2804 22.2803C16.421 22.1397 16.5 21.9489 16.5 21.75C16.5 21.5511 16.421 21.3603 16.2804 21.2197C16.1397 21.079 15.9489 21 15.75 21H12.75V17.2153C14.5704 17.0507 16.2834 16.2822 17.6166 15.0319C18.4269 14.274 19.0092 13.3047 19.2978 12.2334C19.5864 11.1621 19.5697 10.0314 19.2497 8.96906ZM8.07096 3H15.9291L17.8125 9.39281C17.821 9.42094 17.8285 9.44906 17.836 9.47719C15.8278 10.1972 13.5666 9.32719 12.3394 8.70563C9.97784 7.51031 8.10284 7.35844 6.72003 7.58719L8.07096 3Z" fill="#363B4C"/>
</svg>
