<svg width="183" height="52" viewBox="0 0 183 52" fill="none" xmlns="http://www.w3.org/2000/svg">
<g clip-path="url(#clip0_1054_14173)">
<path d="M21.0739 1.02344V17.2683C21.0739 18.4689 21.2245 19.2494 21.5195 19.5435C22.0707 19.9903 22.7748 20.2056 23.4825 20.1438H24.2713V20.6901H14.6371V20.1438H15.444C15.8157 20.178 16.1903 20.1277 16.5397 19.9967C16.8891 19.8657 17.2042 19.6573 17.4611 19.3874C17.708 19.0933 17.8284 18.3849 17.8284 17.2683V2.15806H15.0526C14.2969 2.12994 13.5406 2.19446 12.8006 2.35016C12.2019 2.53973 11.6777 2.91127 11.3013 3.41274C10.8542 4.04179 10.6086 4.79104 10.5968 5.56191H9.94653V0.921387H21.0739" fill="#1E2020"/>
<path d="M46.2242 2.00197V9.80622H51.2099C51.8165 9.8197 52.4226 9.76329 53.0163 9.63813C53.4103 9.55218 53.7779 9.37306 54.0881 9.11584C54.3546 8.88005 54.5452 8.57092 54.636 8.22736C54.7335 7.80381 54.786 7.37118 54.7926 6.93666H55.3947V13.8104H54.7926C54.7145 13.3411 54.612 12.8763 54.4855 12.4176C54.3968 12.0763 54.2204 11.7638 53.9737 11.5111C53.6936 11.2634 53.353 11.0937 52.9862 11.0189C52.4054 10.904 51.8137 10.8537 51.2219 10.8688H46.2242V17.3943C46.193 17.9325 46.2397 18.4723 46.3627 18.9972C46.4016 19.0934 46.4588 19.181 46.5313 19.2554C46.621 19.3376 46.7251 19.4027 46.8384 19.4475C46.9966 19.51 47.1628 19.5504 47.3321 19.5675C47.5936 19.6022 47.8572 19.6182 48.1209 19.6156H51.9746C52.6189 19.6156 53.1788 19.6156 53.6124 19.5675C54.0029 19.5512 54.3905 19.4929 54.7685 19.3934C55.0735 19.3132 55.367 19.1941 55.6416 19.0392C55.9296 18.866 56.1999 18.6649 56.4484 18.4389C57.3012 17.6551 58.021 16.7387 58.58 15.7254H59.2483L57.2794 20.6781H39.7393V20.1318H40.528C40.756 20.1289 40.9835 20.1089 41.2085 20.0718C41.4328 20.0313 41.6527 19.969 41.8648 19.8857C42.0611 19.805 42.2454 19.6979 42.4127 19.5675C42.5677 19.4446 42.6932 19.2887 42.78 19.1113C42.9525 18.4843 43.0196 17.8331 42.9787 17.1842V4.36126C42.9937 3.86187 42.9695 3.36208 42.9065 2.86644C42.8765 2.57306 42.7638 2.29414 42.5813 2.06201C42.0046 1.61489 41.2801 1.40058 40.5521 1.46168H39.7393V0.921387H57.2673V5.26775H56.8639C56.7432 4.68114 56.5699 4.10652 56.3461 3.55082C56.1936 3.15828 55.9352 2.81545 55.5994 2.56028C55.2395 2.3192 54.8262 2.16882 54.3951 2.12204C53.7636 2.04985 53.1281 2.01777 52.4924 2.02599L46.2242 2.00197Z" fill="#1E2020"/>
<path d="M89.8617 0.465105L90.3675 7.18276H89.8617C89.5465 6.25558 89.1069 5.37514 88.5551 4.56533C88.0863 3.8794 87.4992 3.28182 86.821 2.80037C86.1713 2.3469 85.4453 2.01343 84.6774 1.81584C83.8438 1.60064 82.9854 1.49569 82.1243 1.50367C81.055 1.49558 79.9948 1.69964 79.0053 2.104C78.0432 2.49939 77.1889 3.11661 76.5125 3.90498C75.7632 4.78398 75.1999 5.80499 74.8566 6.90661C74.4333 8.28307 74.2301 9.71742 74.2545 11.1569C74.2384 12.4171 74.4421 13.6704 74.8566 14.8609C75.2132 15.8875 75.7907 16.8239 76.5486 17.6044C77.3026 18.3611 78.2158 18.9413 79.2221 19.3033C80.3545 19.7136 81.5518 19.9169 82.7566 19.9037C83.4488 19.907 84.14 19.8487 84.8219 19.7296C85.4671 19.6067 86.0902 19.3882 86.6704 19.0812C87.3211 18.7347 87.9276 18.3114 88.4768 17.8205C89.1648 17.1928 89.8067 16.5167 90.3976 15.7974L90.9215 16.0736C89.9476 17.6815 88.5775 19.0144 86.9414 19.9457C85.2633 20.7891 83.4007 21.2018 81.5222 21.1463C80.0068 21.1649 78.5002 20.9149 77.0725 20.4079C75.7768 19.9494 74.5841 19.2416 73.562 18.3248C72.5828 17.4404 71.8011 16.3604 71.2679 15.1551C70.7107 13.8815 70.4315 12.5043 70.449 11.1149C70.4339 9.66661 70.736 8.23248 71.3341 6.91261C71.904 5.63775 72.7227 4.48879 73.7427 3.53277C74.8122 2.55629 76.0561 1.7886 77.4097 1.26954C78.8768 0.715957 80.4354 0.443047 82.0039 0.465105C82.8236 0.465474 83.641 0.551999 84.4426 0.723245C85.2707 0.898265 86.078 1.15985 86.8511 1.50367C87.0468 1.59742 87.2478 1.67961 87.4532 1.7498C87.5815 1.80278 87.718 1.83325 87.8566 1.83985C88.0268 1.84551 88.196 1.81344 88.3522 1.74596C88.5084 1.67848 88.6476 1.57727 88.7598 1.44964C89.0094 1.16781 89.1871 0.830058 89.2777 0.465105H89.8617Z" fill="#1E2020"/>
<path d="M106.531 4.0671C106.11 3.37568 105.567 2.7656 104.929 2.26612C104.529 2.01681 104.1 1.81532 103.653 1.66579C103.063 1.51265 102.455 1.44393 101.846 1.46168V0.921387H108.289L116.532 16.3858L124.643 0.921387H131.068V1.44967H130.297C129.917 1.41102 129.533 1.45964 129.175 1.5918C128.817 1.72396 128.495 1.93616 128.232 2.21209C127.985 2.53026 127.864 3.23865 127.864 4.34325V17.2743C127.864 18.4749 128.021 19.2434 128.334 19.5495C128.883 19.9998 129.589 20.2155 130.297 20.1498H131.068V20.6961H121.434V20.1498H122.234C122.61 20.1882 122.989 20.14 123.343 20.0088C123.697 19.8776 124.016 19.6671 124.276 19.3934C124.522 19.0993 124.643 18.3909 124.643 17.2743V4.0671L115.852 20.6901H115.304L106.531 4.0671Z" fill="#1E2020"/>
<path d="M156.65 14.0742H147.853L146.318 17.1959C146.006 17.719 145.811 18.3024 145.745 18.9069C145.75 19.0723 145.798 19.2337 145.883 19.3756C145.969 19.5175 146.089 19.6352 146.233 19.7173C146.895 20.0336 147.626 20.1801 148.359 20.1435V20.6898H141.211V20.1435C141.862 20.1038 142.493 19.9104 143.054 19.5792C143.862 18.7609 144.508 17.7974 144.957 16.7397L152.941 0.464844H153.543L161.431 16.9138C161.834 17.8803 162.428 18.7562 163.177 19.4892C163.821 19.9126 164.574 20.14 165.345 20.1435V20.6898H156.385V20.1435C156.76 20.14 157.133 20.0978 157.499 20.0175C157.749 19.9685 157.989 19.8793 158.21 19.7533C158.358 19.6766 158.483 19.5601 158.569 19.417C158.655 19.2739 158.699 19.1098 158.697 18.9429C158.612 18.2282 158.382 17.5381 158.023 16.9138L156.65 14.0742ZM156.18 12.9816L152.339 4.99731L148.365 12.9816H156.18Z" fill="#1E2020"/>
<path d="M23.977 0.921387H29.4625V5.56191H29.0771C29.0094 5.01043 28.8592 4.47217 28.6315 3.96504C28.4478 3.55891 28.174 3.19968 27.8307 2.91447C27.4789 2.62784 27.0675 2.42278 26.6264 2.31414C26.071 2.19131 25.5033 2.13289 24.9344 2.14005H23.9409" fill="#1E2020"/>
<path d="M106.528 9.20547V17.2739C106.528 18.4745 106.679 19.2549 106.974 19.5491C107.528 19.9946 108.233 20.2096 108.943 20.1494H109.732V20.6957H101.832V20.1494H102.638C103.015 20.1874 103.395 20.1389 103.75 20.0078C104.105 19.8767 104.425 19.6664 104.686 19.393C104.927 19.0989 105.053 18.3905 105.053 17.2739V6.84619" fill="#1E2020"/>
<path d="M2.81798 51.3909H0V42.2119H2.4567C2.87683 42.2156 3.29512 42.268 3.70311 42.368C4.0341 42.46 4.34051 42.624 4.60029 42.8483C4.85373 43.0525 5.04891 43.3196 5.16629 43.6227C5.28198 43.9464 5.34105 44.2876 5.34091 44.6312C5.34199 44.8809 5.29919 45.1287 5.21446 45.3636C5.13309 45.5808 5.01721 45.7835 4.87125 45.964C4.71627 46.169 4.5268 46.3457 4.31127 46.4862L4.08246 46.6183C4.46319 46.7423 4.81242 46.9471 5.10608 47.2186C5.2983 47.4268 5.44727 47.6708 5.54442 47.9366C5.64156 48.2025 5.68495 48.4848 5.67208 48.7675C5.67914 49.1334 5.61154 49.497 5.47338 49.8361C5.35435 50.1504 5.16247 50.4322 4.9134 50.6585C4.64729 50.8949 4.333 51.071 3.99214 51.1748C3.61462 51.3081 3.21834 51.381 2.81798 51.3909ZM0.86707 46.3662H2.46874C2.77572 46.3682 3.08091 46.3195 3.37194 46.2221C3.59921 46.1411 3.80509 46.0097 3.97407 45.8379C4.12583 45.6947 4.24493 45.5207 4.32331 45.3276C4.39158 45.1346 4.42818 44.9319 4.43169 44.7273C4.44633 44.4979 4.41204 44.268 4.33109 44.0528C4.25013 43.8375 4.12435 43.6418 3.96203 43.4786C3.53398 43.1681 3.00836 43.0211 2.48078 43.0644H0.879113L0.86707 46.3662ZM0.86707 50.5685H2.75777C3.29812 50.6002 3.83145 50.4336 4.25707 50.1002C4.42437 49.931 4.55421 49.7287 4.63822 49.5064C4.72223 49.2841 4.75854 49.0467 4.7448 48.8095C4.75037 48.5687 4.70524 48.3294 4.61233 48.1071C4.52259 47.9112 4.38616 47.7401 4.21492 47.6088C4.03891 47.4617 3.83373 47.3533 3.61279 47.2907C3.34371 47.208 3.06339 47.1675 2.78185 47.1706H0.86707V50.5685Z" fill="#1E2020"/>
<path d="M16.0057 51.535C15.5432 51.5364 15.0856 51.4402 14.663 51.2529C14.2717 51.0656 13.9232 50.7999 13.6394 50.4725C13.3598 50.1235 13.142 49.7297 12.9951 49.3078C12.8533 48.8488 12.7803 48.3714 12.7783 47.8911V42.23H13.6875V47.8911C13.6897 48.2571 13.7445 48.621 13.8501 48.9716C13.945 49.2903 14.1004 49.5878 14.3077 49.8481C14.5028 50.0998 14.7517 50.3049 15.0363 50.4484C15.3536 50.5571 15.6834 50.6257 16.0178 50.6526H16.072C16.3885 50.6531 16.7011 50.5834 16.9872 50.4484C17.2715 50.307 17.5189 50.1014 17.7098 49.8481C17.9238 49.5913 18.0817 49.2928 18.1734 48.9716C18.2833 48.6218 18.3401 48.2576 18.342 47.8911V42.23H19.2693V47.8911C19.2754 48.3739 19.2022 48.8545 19.0525 49.3138C18.9115 49.737 18.6953 50.1315 18.4143 50.4785C18.1279 50.8033 17.7801 51.0685 17.3907 51.2589C16.953 51.4448 16.4815 51.5388 16.0057 51.535V51.535Z" fill="#1E2020"/>
<path d="M28.6629 51.4931C28.1877 51.4908 27.7196 51.3778 27.2961 51.1629C26.8747 50.9508 26.5017 50.6545 26.2002 50.2925L26.1279 50.2084L26.3447 49.8362C26.376 49.7846 26.4202 49.742 26.473 49.7125C26.5257 49.683 26.5853 49.6677 26.6458 49.6681C26.7424 49.6789 26.832 49.7236 26.8987 49.7942L27.0793 49.9683C27.1455 50.0343 27.2238 50.0944 27.3141 50.1724H27.3503C27.4597 50.2519 27.5744 50.3241 27.6935 50.3885C27.8339 50.4639 27.9837 50.5204 28.1391 50.5566C28.3344 50.6141 28.5376 50.6404 28.7412 50.6346C29.0015 50.6445 29.2612 50.6038 29.5059 50.5146C29.7325 50.4238 29.9376 50.2868 30.108 50.1124C30.271 49.941 30.3944 49.7361 30.4693 49.512C30.5551 49.2669 30.5999 49.0093 30.6018 48.7496C30.6096 48.522 30.5582 48.2963 30.4527 48.0944C30.3472 47.8924 30.1912 47.7211 29.9996 47.597C29.8125 47.4656 29.6104 47.3568 29.3975 47.2728L28.6448 47.0027C28.386 46.9183 28.1326 46.818 27.8862 46.7025C27.6362 46.5924 27.4047 46.4446 27.1997 46.2643C26.9844 46.0721 26.8121 45.8369 26.6939 45.5739C26.5604 45.2506 26.4968 44.9028 26.5073 44.5533C26.5065 44.2419 26.5615 43.9329 26.6698 43.6408C26.7813 43.3504 26.9467 43.0836 27.1576 42.8544C27.3828 42.6207 27.6532 42.4349 27.9524 42.3081C28.2793 42.1748 28.6289 42.1055 28.982 42.104H29.0603C29.4563 42.1031 29.848 42.1849 30.2104 42.3441C30.5954 42.5143 30.937 42.7688 31.2099 43.0885L31.2641 43.1546L31.1497 43.5268C31.1284 43.5896 31.0879 43.6442 31.0339 43.6829C30.9799 43.7217 30.9152 43.7426 30.8486 43.7429C30.7875 43.7361 30.7283 43.7171 30.6745 43.6872C30.6208 43.6574 30.5735 43.6171 30.5355 43.5688C30.4272 43.4788 30.3368 43.4007 30.2465 43.3347C30.0954 43.2387 29.9338 43.1602 29.7648 43.1006C29.3072 42.9385 28.8075 42.9385 28.3498 43.1006C28.1613 43.1762 27.9909 43.2908 27.85 43.4367C27.7126 43.5866 27.6062 43.7621 27.5369 43.953C27.465 44.145 27.4283 44.3484 27.4285 44.5533C27.4209 44.7873 27.4749 45.0191 27.5851 45.2257C27.6909 45.4011 27.8325 45.5524 28.0006 45.67C28.1844 45.8081 28.3872 45.9193 28.6027 46.0001C28.8556 46.1022 29.1025 46.1922 29.3554 46.2823C29.6108 46.366 29.862 46.4622 30.108 46.5704C30.3548 46.6857 30.5839 46.8352 30.7884 47.0147C31.0075 47.1982 31.1859 47.4251 31.3123 47.681C31.4433 47.9925 31.5069 48.328 31.499 48.6656C31.4997 49.0412 31.4387 49.4143 31.3183 49.7702C31.2015 50.1076 31.0153 50.417 30.7717 50.6786C30.528 50.9401 30.2322 51.148 29.9033 51.289C29.5547 51.4361 29.1799 51.5116 28.8014 51.5111L28.6629 51.4931Z" fill="#1E2020"/>
<path d="M39.6267 51.4089H38.7114V42.2119H39.6267V51.4089Z" fill="#1E2020"/>
<path d="M53.3607 51.409H53.3005C53.2492 51.3721 53.2062 51.3251 53.174 51.2709L48.1703 43.9589V51.409H47.3574V42.212H47.7849C47.8483 42.1969 47.9143 42.1969 47.9776 42.212C48.0569 42.2487 48.1223 42.3097 48.1643 42.3861L53.1198 49.632V42.212H53.9568V51.409H53.5233C53.4692 51.4151 53.4147 51.4151 53.3607 51.409V51.409Z" fill="#1E2020"/>
<path d="M66.9152 51.4149H61.7368V42.2119H66.9152V43.0884H62.622V46.3602H66.1745V47.1946H62.622V50.5805H66.8911L66.9152 51.4149Z" fill="#1E2020"/>
<path d="M75.7967 51.493C75.3195 51.4914 74.8493 51.3783 74.4238 51.1628C74.0119 50.9469 73.6474 50.6509 73.352 50.2923L73.2798 50.2083L73.5026 49.8361C73.5326 49.7873 73.5741 49.7466 73.6234 49.7173C73.6726 49.6881 73.7283 49.6711 73.7856 49.668C73.836 49.67 73.8855 49.6823 73.931 49.7039C73.9765 49.7256 74.0172 49.7563 74.0505 49.794L74.2312 49.9681L74.4961 50.1963C74.7301 50.3849 75.0039 50.5183 75.2969 50.5865C75.7562 50.713 76.2442 50.6877 76.6879 50.5144C76.9157 50.426 77.1213 50.2887 77.29 50.1122C77.4505 49.939 77.5735 49.7346 77.6513 49.5119C77.7399 49.2697 77.7827 49.0132 77.7777 48.7555C77.7907 48.5096 77.7366 48.2648 77.6212 48.0471C77.5194 47.8689 77.3796 47.7152 77.2117 47.5968C77.024 47.4663 76.822 47.3576 76.6096 47.2727L75.8629 47.0025C75.6014 46.9201 75.3459 46.8198 75.0982 46.7024C74.8483 46.5922 74.6167 46.4444 74.4118 46.2641C74.2081 46.0787 74.0443 45.8541 73.9301 45.6038C73.7941 45.281 73.7285 44.9331 73.7374 44.5832C73.7373 44.2713 73.7945 43.9621 73.906 43.6707C74.0133 43.38 74.1793 43.1144 74.3937 42.8903C74.6136 42.653 74.8828 42.4666 75.1825 42.344C75.5113 42.2026 75.8661 42.131 76.2242 42.1339H76.2904C76.6875 42.1351 77.0804 42.2147 77.4465 42.368C77.8157 42.5339 78.1444 42.7776 78.41 43.0824L78.4822 43.1604L78.3196 43.5086C78.296 43.5678 78.2554 43.6187 78.2029 43.655C78.1505 43.6913 78.0884 43.7114 78.0246 43.7127C77.9008 43.6946 77.7876 43.6328 77.7055 43.5386C77.6169 43.4539 77.5223 43.3756 77.4225 43.3045C77.2692 43.2084 77.1056 43.1299 76.9347 43.0704C76.4771 42.9083 75.9774 42.9083 75.5197 43.0704C75.3337 43.1447 75.1655 43.2572 75.026 43.4006C74.8872 43.5517 74.7807 43.7294 74.7129 43.9228C74.641 44.1149 74.6042 44.3182 74.6045 44.5232C74.5968 44.7571 74.6508 44.9889 74.761 45.1955C74.8647 45.3707 75.0042 45.522 75.1705 45.6398C75.3539 45.7786 75.5568 45.8899 75.7726 45.97C76.0255 46.072 76.2664 46.1621 76.5253 46.2521C76.7871 46.3384 77.0426 46.4427 77.29 46.5643C77.5402 46.6765 77.7717 46.8263 77.9764 47.0085C78.1884 47.1929 78.3588 47.42 78.4762 47.6749C78.6155 47.9839 78.6814 48.3208 78.6689 48.6594C78.6671 49.0353 78.604 49.4083 78.4822 49.764C78.3569 50.1016 78.1666 50.4116 77.9222 50.6765C77.6789 50.9353 77.3834 51.1399 77.0552 51.2768C76.7027 51.4252 76.3238 51.5008 75.9412 51.499L75.7967 51.493Z" fill="#1E2020"/>
<path d="M87.6217 51.5286C87.1453 51.5261 86.6758 51.4152 86.2489 51.2045C85.833 50.9762 85.4683 50.6657 85.1771 50.292L85.1108 50.2079L85.3276 49.8357C85.3593 49.7845 85.4036 49.7422 85.4563 49.7128C85.509 49.6834 85.5683 49.6678 85.6287 49.6676C85.7241 49.6765 85.8125 49.7216 85.8755 49.7937L86.0562 49.9618L86.3271 50.2019C86.4393 50.2806 86.5559 50.3528 86.6764 50.418C86.8189 50.4935 86.9707 50.5501 87.128 50.5861C87.3079 50.6385 87.4945 50.6647 87.6819 50.6642C87.6999 50.6611 87.7182 50.6611 87.7361 50.6642C88.0041 50.6625 88.2694 50.6117 88.5189 50.5141C88.7459 50.424 88.9511 50.2869 89.121 50.1119C89.2855 49.9416 89.409 49.7363 89.4823 49.5115C89.5748 49.2702 89.6198 49.0134 89.6148 48.7551C89.629 48.513 89.5747 48.2717 89.4582 48.0588C89.3553 47.8781 89.2159 47.7207 89.0488 47.5965C88.8622 47.4658 88.6599 47.3589 88.4466 47.2783L87.694 47.0082C87.4351 46.9238 87.1818 46.8235 86.9353 46.708C86.6847 46.5965 86.4531 46.4466 86.2489 46.2638C86.032 46.0754 85.8593 45.8417 85.7431 45.5794C85.6061 45.255 85.5424 44.9045 85.5564 44.5529C85.5498 44.2597 85.5925 43.9675 85.6829 43.6884C85.794 43.3914 85.9651 43.1203 86.1858 42.8921C86.4064 42.6638 86.6718 42.4833 86.9654 42.3617C87.2919 42.2197 87.6449 42.1481 88.0011 42.1515C88.0248 42.1454 88.0496 42.1454 88.0733 42.1515C88.4692 42.1512 88.8609 42.233 89.2234 42.3917C89.5916 42.5564 89.9201 42.798 90.1868 43.1001L90.2591 43.1781L90.1025 43.5323C90.0802 43.594 90.0392 43.6473 89.9854 43.6849C89.9315 43.7225 89.8672 43.7426 89.8014 43.7424C89.6792 43.7244 89.5679 43.6625 89.4883 43.5683C89.3988 43.4847 89.3042 43.4065 89.2053 43.3342C89.0535 43.2394 88.892 43.1609 88.7236 43.1001C88.5031 43.0234 88.2707 42.9868 88.0372 42.992H87.989C87.7582 42.981 87.5273 43.0136 87.3086 43.0881C87.116 43.1591 86.9427 43.2743 86.8028 43.4242C86.6622 43.5694 86.5553 43.7436 86.4897 43.9345C86.4186 44.1267 86.3819 44.3299 86.3813 44.5348C86.3676 44.7674 86.422 44.9989 86.5379 45.2012C86.6398 45.3793 86.7795 45.5329 86.9473 45.6514C87.1302 45.7912 87.3332 45.9025 87.5495 45.9816C87.6759 46.0357 87.8024 46.0777 87.9348 46.1257L88.3021 46.2638L88.4707 46.3298C88.6634 46.4019 88.8802 46.4859 89.0729 46.5759C89.3235 46.6874 89.5551 46.8373 89.7593 47.0202C89.973 47.203 90.1436 47.4305 90.2591 47.6866C90.3931 47.9971 90.4569 48.3332 90.4457 48.6711C90.4515 49.0451 90.3903 49.4171 90.2651 49.7697C90.1493 50.1084 89.9636 50.4191 89.7199 50.6818C89.4761 50.9444 89.1798 51.1532 88.8501 51.2945C88.5027 51.4388 88.1305 51.5143 87.7542 51.5166L87.6217 51.5286Z" fill="#1E2020"/>
<path d="M98.0016 51.4932H97.9293C97.8429 51.4916 97.7578 51.4715 97.6799 51.4342C97.602 51.3969 97.533 51.3433 97.4777 51.2771C97.412 51.2062 97.3611 51.123 97.328 51.0323C97.295 50.9416 97.2803 50.8452 97.285 50.7488C97.2834 50.6531 97.2977 50.5577 97.3272 50.4666C97.362 50.378 97.413 50.2966 97.4777 50.2265C97.5343 50.1528 97.6089 50.095 97.6945 50.0584C97.7825 50.0158 97.8797 49.9952 97.9775 49.9984C98.0708 50.0053 98.1624 50.0277 98.2484 50.0644C98.3304 50.1015 98.4041 50.1546 98.4652 50.2205C98.522 50.2929 98.5704 50.3715 98.6097 50.4546C98.6427 50.5492 98.659 50.6487 98.6579 50.7488C98.66 50.847 98.6437 50.9447 98.6097 51.0369C98.5758 51.1216 98.5291 51.2005 98.4712 51.2711C98.4052 51.3409 98.3252 51.3961 98.2364 51.4332C98.1653 51.4747 98.0839 51.4955 98.0016 51.4932V51.4932Z" fill="#1E2020"/>
<path d="M108.866 51.3909H106.072V42.2119H108.522C108.943 42.2156 109.361 42.268 109.769 42.368C110.102 42.4599 110.41 42.6239 110.672 42.8483C110.913 43.0573 111.098 43.3237 111.208 43.6227C111.33 43.9469 111.389 44.2911 111.383 44.6372C111.388 45.1253 111.224 45.6003 110.919 45.982C110.759 46.1829 110.571 46.3589 110.359 46.5043C110.281 46.5463 110.202 46.5943 110.124 46.6303C110.505 46.7546 110.854 46.9594 111.148 47.2306C111.34 47.4386 111.489 47.6826 111.587 47.9485C111.684 48.2143 111.727 48.4968 111.714 48.7795C111.719 49.1447 111.654 49.5076 111.521 49.8481C111.4 50.1613 111.208 50.4426 110.961 50.6705C110.695 50.9072 110.381 51.0834 110.04 51.1868C109.662 51.316 109.265 51.3849 108.866 51.3909V51.3909ZM106.939 46.3662H108.534C108.842 46.3696 109.147 46.3209 109.438 46.2221C109.663 46.1378 109.868 46.0068 110.04 45.8379C110.185 45.6914 110.299 45.518 110.377 45.3276C110.448 45.1354 110.485 44.9322 110.485 44.7273C110.503 44.4971 110.469 44.2659 110.387 44.0501C110.305 43.8343 110.176 43.6392 110.01 43.4786C109.587 43.1669 109.064 43.0197 108.541 43.0644H106.939V46.3662ZM106.939 50.5685H108.86C109.4 50.6002 109.933 50.4336 110.359 50.1002C110.522 49.9292 110.648 49.726 110.728 49.5037C110.808 49.2815 110.84 49.045 110.823 48.8095C110.824 48.5671 110.779 48.3267 110.69 48.1011C110.602 47.9073 110.473 47.7351 110.311 47.5968C110.136 47.4459 109.93 47.3334 109.709 47.2667C109.437 47.1844 109.155 47.144 108.872 47.1466H106.951L106.939 50.5685Z" fill="#1E2020"/>
<path d="M124.149 51.4149H118.971V42.2119H124.149V43.0884H119.874V46.3602H123.439V47.1946H119.886V50.5805H124.161L124.149 51.4149Z" fill="#1E2020"/>
<path d="M137.829 51.4089H137.148C137.055 51.4107 136.964 51.3763 136.896 51.3128C136.844 51.2625 136.805 51.2008 136.781 51.1327L135.866 48.6594H132.103L131.181 51.1327C131.159 51.2015 131.12 51.2636 131.067 51.3128C130.998 51.3763 130.908 51.4107 130.814 51.4089H130.14L130.224 51.1987L133.584 42.1938H134.385L134.427 42.2959L137.829 51.4089ZM132.41 47.8609H135.583L134.005 43.5926C134.008 43.6045 134.008 43.6168 134.005 43.6286L132.41 47.8609Z" fill="#1E2020"/>
<path d="M147.427 51.535C146.965 51.5329 146.508 51.4369 146.085 51.2529C145.691 51.0695 145.342 50.8032 145.061 50.4725C144.777 50.1266 144.558 49.7319 144.417 49.3078C144.269 48.8481 144.196 48.3678 144.2 47.8851V42.23H145.115V47.8911C145.114 48.2633 145.169 48.6336 145.278 48.9897C145.377 49.3076 145.534 49.6047 145.741 49.8661C145.933 50.1164 146.178 50.3214 146.458 50.4665C146.762 50.6163 147.1 50.6865 147.439 50.6706V50.6706C147.777 50.6874 148.114 50.615 148.415 50.4605C148.699 50.3182 148.946 50.1128 149.137 49.8601C149.344 49.5991 149.499 49.3018 149.595 48.9837C149.703 48.6295 149.758 48.2613 149.758 47.8911V42.23H150.667V47.8911C150.668 48.374 150.593 48.8542 150.444 49.3138C150.302 49.7366 150.086 50.1309 149.806 50.4785C149.522 50.8059 149.173 51.0716 148.782 51.2589C148.354 51.4421 147.893 51.5361 147.427 51.535V51.535Z" fill="#1E2020"/>
<path d="M161.065 51.4089H160.168V43.0883H157.302V42.1938H163.925V43.0883H161.077L161.065 51.4089Z" fill="#1E2020"/>
<path d="M173.463 51.4092H172.56V47.6272L169.429 42.2243H170.23C170.27 42.2208 170.31 42.2254 170.348 42.2378C170.387 42.2502 170.422 42.2701 170.452 42.2963C170.513 42.3463 170.56 42.4101 170.591 42.4824L172.909 46.5466C172.951 46.6114 172.987 46.6797 173.017 46.7507C173.048 46.6809 173.082 46.6128 173.12 46.5466L175.444 42.4704C175.471 42.403 175.517 42.3447 175.576 42.3023C175.641 42.2499 175.722 42.2223 175.805 42.2243H176.6L176.468 42.4644L173.457 47.6572L173.463 51.4092Z" fill="#1E2020"/>
<path d="M181.935 50.7606C181.937 50.6809 181.952 50.602 181.977 50.5265C182.002 50.4584 182.039 50.3954 182.086 50.3404C182.135 50.29 182.192 50.2474 182.254 50.2143C182.319 50.1825 182.39 50.166 182.462 50.166C182.534 50.166 182.605 50.1825 182.67 50.2143C182.734 50.2439 182.792 50.2869 182.838 50.3404C182.887 50.3949 182.926 50.458 182.953 50.5265C182.984 50.6005 183.001 50.6801 183.001 50.7606C182.994 50.9147 182.937 51.0624 182.838 51.1808C182.789 51.2303 182.732 51.2709 182.67 51.3009C182.57 51.3516 182.457 51.3673 182.348 51.3455C182.238 51.3237 182.14 51.2657 182.068 51.1808C181.97 51.0627 181.916 50.9139 181.917 50.7606" fill="#1E2020"/>
</g>
<defs>
<clipPath id="clip0_1054_14173">
<rect width="183" height="51.0698" fill="white" transform="translate(0 0.464844)"/>
</clipPath>
</defs>
</svg>
