<svg width="24" height="24" viewBox="0 0 24 24" fill="none" xmlns="http://www.w3.org/2000/svg">
<path fill-rule="evenodd" clip-rule="evenodd" d="M11.9999 3.14212L22.5443 9.00009L19.0837 10.9226C19.7589 12.9346 19.9257 15.0862 19.5642 17.1843L19.4671 17.7482L18.8976 17.8035C16.5203 18.0342 14.279 19.0188 12.5008 20.6134L12.0001 21.0624L11.4994 20.6134C11.3121 20.4454 11.1197 20.2843 10.9226 20.13C10.2488 19.603 9.5195 19.1569 8.74991 18.7985V20.0001C8.74991 20.4143 8.41412 20.7501 7.99991 20.7501C7.5857 20.7501 7.24991 20.4143 7.24991 20.0001V18.2267C6.66171 18.0496 6.05759 17.9204 5.44317 17.8417C5.33031 17.8273 5.2171 17.8145 5.10359 17.8035L4.5342 17.7482L4.43701 17.1844C4.07532 15.0865 4.24201 12.935 4.91725 10.9232L2.63637 9.65609L1.45557 9.00009L11.9999 3.14212ZM6.25387 11.6658C5.78386 13.1894 5.64044 14.7963 5.83442 16.3812C6.31277 16.4502 6.78531 16.5463 7.24991 16.6684V12.5001C7.24991 12.4114 7.26557 12.325 7.29491 12.2442L6.25387 11.6658ZM8.74991 13.0525V17.1643C9.91704 17.6326 11.0133 18.2736 12.0001 19.0705C13.7761 17.6364 15.9066 16.7071 18.1667 16.3812C18.3606 14.7962 18.2171 13.1891 17.7471 11.6654L12.3641 14.6557L11.9999 14.8581L11.6357 14.6557L8.74991 13.0525ZM11.9999 13.1421L10.1945 12.1389L12.3641 10.9337C12.7262 10.7326 12.8567 10.276 12.6555 9.91389C12.4544 9.55179 11.9978 9.42131 11.6357 9.62246L8.65024 11.2809L6.20543 9.92245L4.54445 8.99998L11.9999 4.85806L19.4556 9.00009L11.9999 13.1421Z" fill="#3B3B3B"/>
</svg>
