<svg width="24" height="24" viewBox="0 0 24 24" fill="none" xmlns="http://www.w3.org/2000/svg">
<path fill-rule="evenodd" clip-rule="evenodd" d="M12 3.75C11.138 3.75 10.3114 4.09241 9.7019 4.7019C9.09241 5.3114 8.75 6.13805 8.75 7C8.75 7.86195 9.09241 8.6886 9.7019 9.2981C10.3114 9.90759 11.138 10.25 12 10.25C12.862 10.25 13.6886 9.90759 14.2981 9.2981C14.9076 8.6886 15.25 7.86195 15.25 7C15.25 6.13805 14.9076 5.3114 14.2981 4.7019C13.6886 4.09241 12.862 3.75 12 3.75ZM8.64124 3.64124C9.53204 2.75044 10.7402 2.25 12 2.25C13.2598 2.25 14.468 2.75044 15.3588 3.64124C16.2496 4.53204 16.75 5.74022 16.75 7C16.75 8.25978 16.2496 9.46796 15.3588 10.3588C14.468 11.2496 13.2598 11.75 12 11.75C10.7402 11.75 9.53204 11.2496 8.64124 10.3588C7.75044 9.46796 7.25 8.25978 7.25 7C7.25 5.74022 7.75044 4.53204 8.64124 3.64124ZM6.51992 15.5199C7.97333 14.0665 9.94457 13.25 12 13.25C12.9051 13.25 13.7939 13.4083 14.6293 13.7096C15.691 14.0926 16.6667 14.7065 17.4801 15.5199C18.9335 16.9733 19.75 18.9446 19.75 21C19.75 21.4142 19.4142 21.75 19 21.75C18.5858 21.75 18.25 21.4142 18.25 21C18.25 19.3424 17.5915 17.7527 16.4194 16.5806C15.9036 16.0648 15.307 15.6485 14.6592 15.3439L12.75 18.2259V21C12.75 21.4142 12.4142 21.75 12 21.75C11.5858 21.75 11.25 21.4142 11.25 21V18.2403L9.22209 15.4013C8.6201 15.6999 8.06472 16.0964 7.58058 16.5806C6.40848 17.7527 5.75 19.3424 5.75 21C5.75 21.4142 5.41421 21.75 5 21.75C4.58579 21.75 4.25 21.4142 4.25 21C4.25 18.9446 5.06652 16.9733 6.51992 15.5199ZM10.6982 14.8871L11.9767 16.6771L13.179 14.8622C12.7932 14.7881 12.3986 14.75 12 14.75C11.5591 14.75 11.1229 14.7966 10.6982 14.8871Z" fill="#3B3B3B"/>
</svg>
