<svg width="25" height="24" viewBox="0 0 25 24" fill="none" xmlns="http://www.w3.org/2000/svg">
<path fill-rule="evenodd" clip-rule="evenodd" d="M6.10901 3.25009C6.52322 3.25009 6.85901 3.58588 6.85901 4.00009V13.3543C7.30656 13.4812 7.71877 13.7208 8.05355 14.0555C8.56928 14.5713 8.85901 15.2707 8.85901 16.0001C8.85901 16.7294 8.56928 17.4289 8.05355 17.9446C7.71877 18.2794 7.30656 18.519 6.85901 18.6458V20.0001C6.85901 20.4143 6.52322 20.7501 6.10901 20.7501C5.6948 20.7501 5.35901 20.4143 5.35901 20.0001V18.6458C4.91146 18.519 4.49925 18.2794 4.16447 17.9446C3.64874 17.4289 3.35901 16.7294 3.35901 16.0001C3.35901 15.2707 3.64874 14.5713 4.16447 14.0555C4.49925 13.7208 4.91146 13.4812 5.35901 13.3543V4.00009C5.35901 3.58588 5.6948 3.25009 6.10901 3.25009ZM12.109 3.25009C12.5232 3.25009 12.859 3.58588 12.859 4.00009V5.35433C13.3066 5.48122 13.7188 5.72077 14.0536 6.05555C14.5693 6.57127 14.859 7.27075 14.859 8.00009C14.859 8.72944 14.5693 9.42891 14.0536 9.94463C13.7188 10.2794 13.3066 10.519 12.859 10.6458V20.0001C12.859 20.4143 12.5232 20.7501 12.109 20.7501C11.6948 20.7501 11.359 20.4143 11.359 20.0001V10.6458C10.9115 10.519 10.4992 10.2794 10.1645 9.94463C9.64874 9.42891 9.35901 8.72944 9.35901 8.00009C9.35901 7.27075 9.64874 6.57127 10.1645 6.05555C10.4992 5.72077 10.9115 5.48122 11.359 5.35433V4.00009C11.359 3.58588 11.6948 3.25009 12.109 3.25009ZM18.109 3.25009C18.5232 3.25009 18.859 3.58588 18.859 4.00009V13.3543C19.3066 13.4812 19.7188 13.7208 20.0536 14.0555C20.5693 14.5713 20.859 15.2707 20.859 16.0001C20.859 16.7294 20.5693 17.4289 20.0536 17.9446C19.7188 18.2794 19.3066 18.519 18.859 18.6458V20.0001C18.859 20.4143 18.5232 20.7501 18.109 20.7501C17.6948 20.7501 17.359 20.4143 17.359 20.0001V18.6458C16.9115 18.519 16.4992 18.2794 16.1645 17.9446C15.6487 17.4289 15.359 16.7294 15.359 16.0001C15.359 15.2707 15.6487 14.5713 16.1645 14.0555C16.4992 13.7208 16.9115 13.4812 17.359 13.3543V4.00009C17.359 3.58588 17.6948 3.25009 18.109 3.25009ZM12.109 6.75009C11.7775 6.75009 11.4595 6.88179 11.2251 7.11621C10.9907 7.35063 10.859 7.66857 10.859 8.00009C10.859 8.33161 10.9907 8.64955 11.2251 8.88397C11.4595 9.1184 11.7775 9.25009 12.109 9.25009C12.4405 9.25009 12.7585 9.1184 12.9929 8.88397C13.2273 8.64955 13.359 8.33161 13.359 8.00009C13.359 7.66857 13.2273 7.35063 12.9929 7.11621C12.7585 6.88179 12.4405 6.75009 12.109 6.75009ZM6.10901 14.7501C5.77749 14.7501 5.45955 14.8818 5.22513 15.1162C4.9907 15.3506 4.85901 15.6686 4.85901 16.0001C4.85901 16.3316 4.9907 16.6496 5.22513 16.884C5.45955 17.1184 5.77749 17.2501 6.10901 17.2501C6.44053 17.2501 6.75847 17.1184 6.99289 16.884C7.22731 16.6496 7.35901 16.3316 7.35901 16.0001C7.35901 15.6686 7.22731 15.3506 6.99289 15.1162C6.75847 14.8818 6.44053 14.7501 6.10901 14.7501ZM18.109 14.7501C17.7775 14.7501 17.4595 14.8818 17.2251 15.1162C16.9907 15.3506 16.859 15.6686 16.859 16.0001C16.859 16.3316 16.9907 16.6496 17.2251 16.884C17.4595 17.1184 17.7775 17.2501 18.109 17.2501C18.4405 17.2501 18.7585 17.1184 18.9929 16.884C19.2273 16.6496 19.359 16.3316 19.359 16.0001C19.359 15.6686 19.2273 15.3506 18.9929 15.1162C18.7585 14.8818 18.4405 14.7501 18.109 14.7501Z" fill="#3B3B3B"/>
</svg>
