<svg width="25" height="24" viewBox="0 0 25 24" fill="none" xmlns="http://www.w3.org/2000/svg">
<path fill-rule="evenodd" clip-rule="evenodd" d="M5.21765 4.75009C4.88613 4.75009 4.56819 4.88179 4.33377 5.11621C4.09935 5.35063 3.96765 5.66857 3.96765 6.00009V14.0001C3.96765 14.3316 4.09935 14.6496 4.33377 14.884C4.56819 15.1184 4.88613 15.2501 5.21765 15.2501H8.21765C8.41656 15.2501 8.60733 15.3291 8.74798 15.4698L12.2177 18.9394L15.6873 15.4698C15.828 15.3291 16.0187 15.2501 16.2176 15.2501H19.2176C19.5492 15.2501 19.8671 15.1184 20.1015 14.884C20.336 14.6496 20.4676 14.3316 20.4676 14.0001V6.00009C20.4676 5.66857 20.336 5.35063 20.1015 5.11621C19.8671 4.88179 19.5492 4.75009 19.2176 4.75009H5.21765ZM3.27311 4.05555C3.78883 3.53982 4.48831 3.25009 5.21765 3.25009H19.2176C19.947 3.25009 20.6465 3.53982 21.1622 4.05555C21.6779 4.57127 21.9676 5.27075 21.9676 6.00009V14.0001C21.9676 14.7294 21.6779 15.4289 21.1622 15.9446C20.6465 16.4604 19.947 16.7501 19.2176 16.7501H16.5283L12.748 20.5304C12.6073 20.6711 12.4166 20.7501 12.2177 20.7501C12.0187 20.7501 11.828 20.6711 11.6873 20.5304L7.90699 16.7501H5.21765C4.48831 16.7501 3.78883 16.4604 3.27311 15.9446C2.75738 15.4289 2.46765 14.7294 2.46765 14.0001V6.00009C2.46765 5.27075 2.75738 4.57127 3.27311 4.05555ZM6.46765 8.00009C6.46765 7.58588 6.80344 7.25009 7.21765 7.25009H17.2176C17.6319 7.25009 17.9676 7.58588 17.9676 8.00009C17.9676 8.4143 17.6319 8.75009 17.2176 8.75009H7.21765C6.80344 8.75009 6.46765 8.4143 6.46765 8.00009ZM6.46765 12.0001C6.46765 11.5859 6.80344 11.2501 7.21765 11.2501H11.2177C11.6319 11.2501 11.9677 11.5859 11.9677 12.0001C11.9677 12.4143 11.6319 12.7501 11.2177 12.7501H7.21765C6.80344 12.7501 6.46765 12.4143 6.46765 12.0001Z" fill="#3B3B3B"/>
</svg>
