<svg width="24" height="24" viewBox="0 0 24 24" fill="none" xmlns="http://www.w3.org/2000/svg">
<path fill-rule="evenodd" clip-rule="evenodd" d="M8 2.25C8.41421 2.25 8.75 2.58579 8.75 3V4.25H15.25V3C15.25 2.58579 15.5858 2.25 16 2.25C16.4142 2.25 16.75 2.58579 16.75 3V4.25H19C19.7293 4.25 20.4288 4.53973 20.9445 5.05546C21.4603 5.57118 21.75 6.27065 21.75 7V19C21.75 19.7293 21.4603 20.4288 20.9445 20.9445C20.4288 21.4603 19.7293 21.75 19 21.75H5C4.27065 21.75 3.57118 21.4603 3.05546 20.9445C2.53973 20.4288 2.25 19.7293 2.25 19V7C2.25 6.27065 2.53973 5.57118 3.05546 5.05546C3.57118 4.53973 4.27065 4.25 5 4.25H7.25V3C7.25 2.58579 7.58579 2.25 8 2.25ZM7.25 5.75H5C4.66848 5.75 4.35054 5.8817 4.11612 6.11612C3.8817 6.35054 3.75 6.66848 3.75 7V19C3.75 19.3315 3.8817 19.6495 4.11612 19.8839C4.35054 20.1183 4.66848 20.25 5 20.25H19C19.3315 20.25 19.6495 20.1183 19.8839 19.8839C20.1183 19.6495 20.25 19.3315 20.25 19V7C20.25 6.66848 20.1183 6.35054 19.8839 6.11612C19.6495 5.8817 19.3315 5.75 19 5.75H16.75V7C16.75 7.41421 16.4142 7.75 16 7.75C15.5858 7.75 15.25 7.41421 15.25 7V5.75H8.75V7C8.75 7.41421 8.41421 7.75 8 7.75C7.58579 7.75 7.25 7.41421 7.25 7V5.75ZM15.5303 10.9697C15.8232 11.2626 15.8232 11.7374 15.5303 12.0303L11.5303 16.0303C11.2374 16.3232 10.7626 16.3232 10.4697 16.0303L8.46967 14.0303C8.17678 13.7374 8.17678 13.2626 8.46967 12.9697C8.76256 12.6768 9.23744 12.6768 9.53033 12.9697L11 14.4393L14.4697 10.9697C14.7626 10.6768 15.2374 10.6768 15.5303 10.9697Z" fill="#3B3B3B"/>
</svg>
