<svg width="24" height="24" viewBox="0 0 24 24" fill="none" xmlns="http://www.w3.org/2000/svg">
<path fill-rule="evenodd" clip-rule="evenodd" d="M5 5.75H7.25V7C7.25 7.41421 7.58579 7.75 8 7.75C8.41421 7.75 8.75 7.41421 8.75 7V5.75H15.25V7C15.25 7.41421 15.5858 7.75 16 7.75C16.4142 7.75 16.75 7.41421 16.75 7V5.75H19C19.3315 5.75 19.6495 5.8817 19.8839 6.11612C20.1183 6.35054 20.25 6.66848 20.25 7V19C20.25 19.3315 20.1183 19.6495 19.8839 19.8839C19.6495 20.1183 19.3315 20.25 19 20.25H5C4.66848 20.25 4.35054 20.1183 4.11612 19.8839C3.8817 19.6495 3.75 19.3315 3.75 19V7C3.75 6.66848 3.8817 6.35054 4.11612 6.11612C4.35054 5.8817 4.66848 5.75 5 5.75ZM15.5303 10.9697C15.8232 11.2626 15.8232 11.7374 15.5303 12.0303L11.5303 16.0303C11.2374 16.3232 10.7626 16.3232 10.4697 16.0303L8.46967 14.0303C8.17678 13.7374 8.17678 13.2626 8.46967 12.9697C8.76256 12.6768 9.23744 12.6768 9.53033 12.9697L11 14.4393L14.4697 10.9697C14.7626 10.6768 15.2374 10.6768 15.5303 10.9697Z" fill="#363B4C"/>
<path fill-rule="evenodd" clip-rule="evenodd" d="M8.75 3C8.75 2.58579 8.41421 2.25 8 2.25C7.58579 2.25 7.25 2.58579 7.25 3V4.25H5C4.27065 4.25 3.57118 4.53973 3.05546 5.05546C2.53973 5.57118 2.25 6.27065 2.25 7V19C2.25 19.7293 2.53973 20.4288 3.05546 20.9445C3.57118 21.4603 4.27065 21.75 5 21.75H19C19.7293 21.75 20.4288 21.4603 20.9445 20.9445C21.4603 20.4288 21.75 19.7293 21.75 19V7C21.75 6.27065 21.4603 5.57118 20.9445 5.05546C20.4288 4.53973 19.7293 4.25 19 4.25H16.75V3C16.75 2.58579 16.4142 2.25 16 2.25C15.5858 2.25 15.25 2.58579 15.25 3V4.25H8.75V3ZM5 5.75H7.25V7C7.25 7.41421 7.58579 7.75 8 7.75C8.41421 7.75 8.75 7.41421 8.75 7V5.75H15.25V7C15.25 7.41421 15.5858 7.75 16 7.75C16.4142 7.75 16.75 7.41421 16.75 7V5.75H19C19.3315 5.75 19.6495 5.8817 19.8839 6.11612C20.1183 6.35054 20.25 6.66848 20.25 7V19C20.25 19.3315 20.1183 19.6495 19.8839 19.8839C19.6495 20.1183 19.3315 20.25 19 20.25H5C4.66848 20.25 4.35054 20.1183 4.11612 19.8839C3.8817 19.6495 3.75 19.3315 3.75 19V7C3.75 6.66848 3.8817 6.35054 4.11612 6.11612C4.35054 5.8817 4.66848 5.75 5 5.75Z" fill="#363B4C"/>
</svg>
