<svg width="25" height="24" viewBox="0 0 25 24" fill="none" xmlns="http://www.w3.org/2000/svg">
<path fill-rule="evenodd" clip-rule="evenodd" d="M5.32715 4.75009C4.99563 4.75009 4.67769 4.88179 4.44326 5.11621C4.20884 5.35063 4.07715 5.66857 4.07715 6.00009C4.07715 6.33161 4.20884 6.64955 4.44326 6.88398C4.67769 7.1184 4.99563 7.25009 5.32715 7.25009H19.3271C19.6587 7.25009 19.9766 7.1184 20.211 6.88398C20.4454 6.64955 20.5771 6.33161 20.5771 6.00009C20.5771 5.66857 20.4454 5.35063 20.211 5.11621C19.9766 4.88179 19.6587 4.75009 19.3271 4.75009H5.32715ZM3.3826 4.05555C3.89833 3.53982 4.5978 3.25009 5.32715 3.25009H19.3271C20.0565 3.25009 20.756 3.53982 21.2717 4.05555C21.7874 4.57127 22.0771 5.27075 22.0771 6.00009C22.0771 6.72944 21.7874 7.42891 21.2717 7.94464C20.9369 8.27942 20.5247 8.51897 20.0771 8.64585V18.0001C20.0771 18.7294 19.7874 19.4289 19.2717 19.9446C18.756 20.4604 18.0565 20.7501 17.3271 20.7501H7.32715C6.5978 20.7501 5.89833 20.4604 5.3826 19.9446C4.86688 19.4289 4.57715 18.7294 4.57715 18.0001V8.64585C4.1296 8.51897 3.71739 8.27942 3.3826 7.94464C2.86688 7.42891 2.57715 6.72944 2.57715 6.00009C2.57715 5.27075 2.86688 4.57127 3.3826 4.05555ZM6.07715 8.75009V18.0001C6.07715 18.3316 6.20884 18.6496 6.44326 18.884C6.67769 19.1184 6.99563 19.2501 7.32715 19.2501H17.3271C17.6587 19.2501 17.9766 19.1184 18.211 18.884C18.4455 18.6496 18.5771 18.3316 18.5771 18.0001V8.75009H6.07715ZM9.57715 12.0001C9.57715 11.5859 9.91293 11.2501 10.3271 11.2501H14.3271C14.7414 11.2501 15.0771 11.5859 15.0771 12.0001C15.0771 12.4143 14.7414 12.7501 14.3271 12.7501H10.3271C9.91293 12.7501 9.57715 12.4143 9.57715 12.0001Z" fill="#3B3B3B"/>
</svg>
