<svg width="25" height="25" viewBox="0 0 25 25" fill="none" xmlns="http://www.w3.org/2000/svg">
<path fill-rule="evenodd" clip-rule="evenodd" d="M7.63922 7.57908C7.93211 7.87197 7.93211 8.34684 7.63922 8.63974L4.91955 11.3594H21.1089C21.5231 11.3594 21.8589 11.6952 21.8589 12.1094C21.8589 12.5236 21.5231 12.8594 21.1089 12.8594H4.91955L7.63922 15.5791C7.93211 15.872 7.93211 16.3468 7.63922 16.6397C7.34632 16.9326 6.87145 16.9326 6.57856 16.6397L2.57886 12.64C2.57876 12.6399 2.57866 12.6398 2.57856 12.6397M2.57856 11.5791L6.57856 7.57908C6.87145 7.28618 7.34632 7.28618 7.63922 7.57908M2.57856 11.5791C2.50665 11.651 2.4524 11.7339 2.4158 11.8223C2.37913 11.9107 2.35889 12.0077 2.35889 12.1094C2.35889 12.2111 2.37913 12.3081 2.4158 12.3965C2.45213 12.4843 2.50585 12.5666 2.57697 12.6381" fill="#3B3B3B"/>
</svg>
