<svg width="25" height="24" viewBox="0 0 25 24" fill="none" xmlns="http://www.w3.org/2000/svg">
<path fill-rule="evenodd" clip-rule="evenodd" d="M12.6538 3.75006C10.4658 3.75006 8.36735 4.61926 6.82018 6.16643C5.273 7.7136 4.40381 9.81202 4.40381 12.0001C4.40381 13.0835 4.6172 14.1563 5.0318 15.1572C5.4464 16.1581 6.05409 17.0676 6.82018 17.8337C7.58626 18.5998 8.49573 19.2075 9.49667 19.6221C10.4976 20.0367 11.5704 20.2501 12.6538 20.2501C13.7372 20.2501 14.81 20.0367 15.8109 19.6221C16.8119 19.2075 17.7214 18.5998 18.4874 17.8337C19.2535 17.0676 19.8612 16.1581 20.2758 15.1572C20.6904 14.1563 20.9038 13.0835 20.9038 12.0001C20.9038 9.81202 20.0346 7.7136 18.4874 6.16643C16.9403 4.61926 14.8418 3.75006 12.6538 3.75006ZM5.75952 5.10577C7.588 3.27729 10.0679 2.25006 12.6538 2.25006C15.2397 2.25006 17.7196 3.27729 19.5481 5.10577C21.3766 6.93425 22.4038 9.4142 22.4038 12.0001C22.4038 13.2804 22.1516 14.5483 21.6616 15.7312C21.1716 16.9141 20.4535 17.989 19.5481 18.8943C18.6427 19.7997 17.5679 20.5179 16.385 21.0079C15.202 21.4979 13.9342 21.7501 12.6538 21.7501C11.3734 21.7501 10.1056 21.4979 8.92264 21.0079C7.73972 20.5179 6.66489 19.7997 5.75952 18.8943C4.85415 17.989 4.13597 16.9141 3.64598 15.7312C3.156 14.5483 2.90381 13.2804 2.90381 12.0001C2.90381 9.4142 3.93104 6.93425 5.75952 5.10577ZM13.1235 8.46973C13.4164 8.17684 13.8912 8.17684 14.1841 8.46973L17.1841 11.4697C17.477 11.7626 17.477 12.2375 17.1841 12.5304L14.1841 15.5304C13.8912 15.8233 13.4164 15.8233 13.1235 15.5304C12.8306 15.2375 12.8306 14.7626 13.1235 14.4697L14.8431 12.7501H8.65381C8.23959 12.7501 7.90381 12.4143 7.90381 12.0001C7.90381 11.5858 8.23959 11.2501 8.65381 11.2501H14.8431L13.1235 9.53039C12.8306 9.2375 12.8306 8.76262 13.1235 8.46973Z" fill="#3B3B3B"/>
</svg>
