<svg width="25" height="24" viewBox="0 0 25 24" fill="none" xmlns="http://www.w3.org/2000/svg">
<path fill-rule="evenodd" clip-rule="evenodd" d="M12.4358 3.75006C11.3524 3.75006 10.2796 3.96345 9.27865 4.37805C8.27772 4.79266 7.36824 5.40035 6.60216 6.16643C5.83608 6.93251 5.22839 7.84199 4.81379 8.84292C4.39918 9.84386 4.18579 10.9167 4.18579 12.0001C4.18579 13.0835 4.39918 14.1563 4.81379 15.1572C5.22839 16.1581 5.83608 17.0676 6.60216 17.8337C7.36824 18.5998 8.27772 19.2075 9.27865 19.6221C10.2796 20.0367 11.3524 20.2501 12.4358 20.2501C14.6238 20.2501 16.7222 19.3809 18.2694 17.8337C19.8166 16.2865 20.6858 14.1881 20.6858 12.0001C20.6858 9.81202 19.8166 7.7136 18.2694 6.16643C16.7222 4.61925 14.6238 3.75006 12.4358 3.75006ZM8.70463 2.99224C9.88755 2.50225 11.1554 2.25006 12.4358 2.25006C15.0217 2.25006 17.5016 3.27729 19.3301 5.10577C21.1586 6.93425 22.1858 9.4142 22.1858 12.0001C22.1858 14.5859 21.1586 17.0659 19.3301 18.8943C17.5016 20.7228 15.0217 21.7501 12.4358 21.7501C11.1554 21.7501 9.88755 21.4979 8.70463 21.0079C7.5217 20.5179 6.44687 19.7997 5.5415 18.8943C4.63613 17.989 3.91795 16.9141 3.42797 15.7312C2.93798 14.5483 2.68579 13.2804 2.68579 12.0001C2.68579 10.7197 2.93798 9.45182 3.42797 8.2689C3.91795 7.08597 4.63613 6.01114 5.5415 5.10577C6.44687 4.2004 7.5217 3.48222 8.70463 2.99224ZM12.4358 7.25006C12.85 7.25006 13.1858 7.58585 13.1858 8.00006V14.1894L14.9055 12.4697C15.1984 12.1768 15.6732 12.1768 15.9661 12.4697C16.259 12.7626 16.259 13.2375 15.9661 13.5304L12.9661 16.5304C12.6732 16.8233 12.1984 16.8233 11.9055 16.5304L8.90546 13.5304C8.61257 13.2375 8.61257 12.7626 8.90546 12.4697C9.19835 12.1768 9.67323 12.1768 9.96612 12.4697L11.6858 14.1894V8.00006C11.6858 7.58585 12.0216 7.25006 12.4358 7.25006Z" fill="#3B3B3B"/>
</svg>
