<svg width="25" height="25" viewBox="0 0 25 25" fill="none" xmlns="http://www.w3.org/2000/svg">
<path fill-rule="evenodd" clip-rule="evenodd" d="M6.46435 4.85928L10.184 8.57895C10.4769 8.87185 10.4769 9.34672 10.184 9.63961C9.89112 9.93251 9.41625 9.93251 9.12336 9.63961L5.40369 5.91994V8.10928C5.40369 8.5235 5.0679 8.85928 4.65369 8.85928C4.23947 8.85928 3.90369 8.5235 3.90369 8.10928V4.10928C3.90369 3.90299 3.98698 3.71614 4.12177 3.58055M4.3666 3.41619C4.4583 3.37825 4.55599 3.35928 4.65369 3.35928C4.85998 3.35928 5.04683 3.44258 5.18242 3.57737M4.3666 3.41619C4.45503 3.37952 4.55199 3.35928 4.65369 3.35928H8.65369C9.0679 3.35928 9.40369 3.69507 9.40369 4.10928C9.40369 4.5235 9.0679 4.85928 8.65369 4.85928H6.46435M15.9037 4.10928C15.9037 3.69507 16.2395 3.35928 16.6537 3.35928H20.6537C20.7554 3.35928 20.8523 3.37952 20.9408 3.41619C21.0272 3.45196 21.1083 3.50459 21.1791 3.57408C21.1824 3.57731 21.1857 3.58058 21.1889 3.58387C21.2552 3.6514 21.3088 3.73143 21.3459 3.82009C21.3784 3.89784 21.3982 3.98225 21.4027 4.07069C21.4034 4.08347 21.4037 4.09634 21.4037 4.10928V8.10928C21.4037 8.5235 21.0679 8.85928 20.6537 8.85928C20.2395 8.85928 19.9037 8.5235 19.9037 8.10928V5.91994L16.184 9.63961C15.8911 9.93251 15.4162 9.93251 15.1234 9.63961C14.8305 9.34672 14.8305 8.87185 15.1234 8.57895L18.843 4.85928H16.6537C16.2395 4.85928 15.9037 4.5235 15.9037 4.10928ZM10.184 14.579C10.4769 14.8718 10.4769 15.3467 10.184 15.6396L6.46435 19.3593H8.65369C9.0679 19.3593 9.40369 19.6951 9.40369 20.1093C9.40369 20.5235 9.0679 20.8593 8.65369 20.8593H4.65369C4.55118 20.8593 4.45349 20.8387 4.36449 20.8015C4.27883 20.7657 4.19846 20.7134 4.12827 20.6445C4.12498 20.6413 4.12172 20.638 4.11848 20.6347C4.05165 20.5666 3.99771 20.4859 3.9606 20.3964C3.92859 20.3192 3.90911 20.2355 3.90466 20.1479C3.90401 20.1351 3.90369 20.1222 3.90369 20.1093V16.1093C3.90369 15.6951 4.23947 15.3593 4.65369 15.3593C5.0679 15.3593 5.40369 15.6951 5.40369 16.1093V18.2986L9.12336 14.579C9.41625 14.2861 9.89112 14.2861 10.184 14.579ZM15.1234 14.579C15.4162 14.2861 15.8911 14.2861 16.184 14.579L19.9037 18.2986V16.1093C19.9037 15.6951 20.2395 15.3593 20.6537 15.3593C21.0679 15.3593 21.4037 15.6951 21.4037 16.1093V20.1093C21.4037 20.2118 21.3831 20.3095 21.3459 20.3985C21.3107 20.4828 21.2595 20.562 21.1922 20.6314C21.1868 20.6369 21.1813 20.6424 21.1758 20.6477C21.1089 20.7125 21.0301 20.765 20.9429 20.8015C20.8651 20.834 20.7807 20.8538 20.6923 20.8583C20.6795 20.859 20.6666 20.8593 20.6537 20.8593H16.6537C16.2395 20.8593 15.9037 20.5235 15.9037 20.1093C15.9037 19.6951 16.2395 19.3593 16.6537 19.3593H18.843L15.1234 15.6396C14.8305 15.3467 14.8305 14.8718 15.1234 14.579Z" fill="#3B3B3B"/>
</svg>
