<svg width="25" height="24" viewBox="0 0 25 24" fill="none" xmlns="http://www.w3.org/2000/svg">
<path fill-rule="evenodd" clip-rule="evenodd" d="M12.7627 3.75006C10.5747 3.75006 8.47624 4.61925 6.92906 6.16643C5.38189 7.7136 4.5127 9.81202 4.5127 12.0001C4.5127 14.1881 5.38189 16.2865 6.92906 17.8337C8.47624 19.3809 10.5747 20.2501 12.7627 20.2501C13.8461 20.2501 14.9189 20.0367 15.9198 19.6221C16.9208 19.2075 17.8302 18.5998 18.5963 17.8337C19.3624 17.0676 19.9701 16.1581 20.3847 15.1572C20.7993 14.1563 21.0127 13.0835 21.0127 12.0001C21.0127 10.9167 20.7993 9.84386 20.3847 8.84292C19.9701 7.84199 19.3624 6.93251 18.5963 6.16643C17.8302 5.40035 16.9208 4.79266 15.9198 4.37805C14.9189 3.96345 13.8461 3.75006 12.7627 3.75006ZM5.8684 5.10577C7.69688 3.27729 10.1768 2.25006 12.7627 2.25006C14.0431 2.25006 15.3109 2.50225 16.4939 2.99224C17.6768 3.48222 18.7516 4.2004 19.657 5.10577C20.5624 6.01114 21.2805 7.08597 21.7705 8.2689C22.2605 9.45182 22.5127 10.7197 22.5127 12.0001C22.5127 13.2804 22.2605 14.5483 21.7705 15.7312C21.2805 16.9141 20.5624 17.989 19.657 18.8943C18.7516 19.7997 17.6768 20.5179 16.4939 21.0079C15.3109 21.4979 14.0431 21.7501 12.7627 21.7501C10.1768 21.7501 7.69688 20.7228 5.8684 18.8943C4.03992 17.0659 3.0127 14.5859 3.0127 12.0001C3.0127 9.4142 4.03992 6.93425 5.8684 5.10577ZM12.2324 7.46973C12.5253 7.17684 13.0001 7.17684 13.293 7.46973L16.293 10.4697C16.5859 10.7626 16.5859 11.2375 16.293 11.5304C16.0001 11.8233 15.5253 11.8233 15.2324 11.5304L13.5127 9.81072V16.0001C13.5127 16.4143 13.1769 16.7501 12.7627 16.7501C12.3485 16.7501 12.0127 16.4143 12.0127 16.0001V9.81072L10.293 11.5304C10.0001 11.8233 9.52526 11.8233 9.23236 11.5304C8.93947 11.2375 8.93947 10.7626 9.23236 10.4697L12.2324 7.46973Z" fill="#3B3B3B"/>
</svg>
