<svg width="25" height="24" viewBox="0 0 25 24" fill="none" xmlns="http://www.w3.org/2000/svg">
<path fill-rule="evenodd" clip-rule="evenodd" d="M12.5448 3.75006C11.4614 3.75006 10.3886 3.96345 9.38766 4.37806C8.38672 4.79266 7.47725 5.40035 6.71117 6.16643C5.94509 6.93251 5.33739 7.84199 4.92279 8.84292C4.50819 9.84386 4.2948 10.9167 4.2948 12.0001C4.2948 14.1881 5.16399 16.2865 6.71117 17.8337C8.25834 19.3809 10.3568 20.2501 12.5448 20.2501C14.7328 20.2501 16.8313 19.3809 18.3784 17.8337C19.9256 16.2865 20.7948 14.1881 20.7948 12.0001C20.7948 10.9167 20.5814 9.84386 20.1668 8.84292C19.7522 7.84199 19.1445 6.93251 18.3784 6.16643C17.6123 5.40035 16.7029 4.79266 15.7019 4.37806C14.701 3.96345 13.6282 3.75006 12.5448 3.75006ZM8.81364 2.99224C9.99656 2.50225 11.2644 2.25006 12.5448 2.25006C13.8252 2.25006 15.093 2.50225 16.276 2.99224C17.4589 3.48222 18.5337 4.2004 19.4391 5.10577C20.3445 6.01114 21.0626 7.08597 21.5526 8.2689C22.0426 9.45182 22.2948 10.7197 22.2948 12.0001C22.2948 14.5859 21.2676 17.0659 19.4391 18.8943C17.6106 20.7228 15.1307 21.7501 12.5448 21.7501C9.95894 21.7501 7.47899 20.7228 5.65051 18.8943C3.82203 17.0659 2.7948 14.5859 2.7948 12.0001C2.7948 10.7197 3.04699 9.45182 3.53697 8.2689C4.02696 7.08597 4.74514 6.01114 5.65051 5.10577C6.55588 4.2004 7.63071 3.48222 8.81364 2.99224ZM12.0751 8.46973C12.368 8.76262 12.368 9.2375 12.0751 9.53039L10.3555 11.2501H16.5448C16.959 11.2501 17.2948 11.5858 17.2948 12.0001C17.2948 12.4143 16.959 12.7501 16.5448 12.7501H10.3555L12.0751 14.4697C12.368 14.7626 12.368 15.2375 12.0751 15.5304C11.7822 15.8233 11.3074 15.8233 11.0145 15.5304L8.01447 12.5304C7.72158 12.2375 7.72158 11.7626 8.01447 11.4697L11.0145 8.46973C11.3074 8.17684 11.7822 8.17684 12.0751 8.46973Z" fill="#3B3B3B"/>
</svg>
