<svg width="25" height="25" viewBox="0 0 25 25" fill="none" xmlns="http://www.w3.org/2000/svg">
<path fill-rule="evenodd" clip-rule="evenodd" d="M9.75562 5.16498C10.2712 4.64927 10.9705 4.35947 11.6998 4.35931H19.8719C20.6013 4.35931 21.3008 4.64905 21.8165 5.16477C22.3322 5.6805 22.6219 6.37997 22.6219 7.10931V17.1093C22.6219 17.8387 22.3322 18.5381 21.8165 19.0539C21.3008 19.5696 20.6013 19.8593 19.8719 19.8593H11.6999C10.9707 19.8592 10.2712 19.5694 9.75562 19.0536C9.75559 19.0536 9.75564 19.0537 9.75562 19.0536L3.34162 12.6396C3.04872 12.3468 3.04872 11.8719 3.34162 11.579L9.75562 5.16498C9.75564 5.16496 9.75559 5.16501 9.75562 5.16498ZM11.6999 5.85931C11.3685 5.85943 11.0507 5.99117 10.8164 6.22556L4.93261 12.1093L10.8163 17.993C11.0506 18.2274 11.3685 18.3592 11.6999 18.3593C11.6999 18.3593 11.7 18.3593 11.6999 18.3593H19.8719C20.2035 18.3593 20.5214 18.2276 20.7558 17.9932C20.9902 17.7588 21.1219 17.4408 21.1219 17.1093V7.10931C21.1219 6.77779 20.9902 6.45985 20.7558 6.22543C20.5214 5.99101 20.2035 5.85931 19.8719 5.85931H11.6999C11.7 5.85931 11.6999 5.85931 11.6999 5.85931ZM12.3416 9.57898C12.6345 9.28609 13.1094 9.28609 13.4023 9.57898L14.8719 11.0487L16.3416 9.57898C16.6345 9.28609 17.1094 9.28609 17.4023 9.57898C17.6952 9.87188 17.6952 10.3468 17.4023 10.6396L15.9326 12.1093L17.4023 13.579C17.6952 13.8719 17.6952 14.3468 17.4023 14.6396C17.1094 14.9325 16.6345 14.9325 16.3416 14.6396L14.8719 13.17L13.4023 14.6396C13.1094 14.9325 12.6345 14.9325 12.3416 14.6396C12.0487 14.3468 12.0487 13.8719 12.3416 13.579L13.8113 12.1093L12.3416 10.6396C12.0487 10.3468 12.0487 9.87188 12.3416 9.57898Z" fill="#3B3B3B"/>
</svg>
