<svg width="24" height="25" viewBox="0 0 24 25" fill="none" xmlns="http://www.w3.org/2000/svg">
<path fill-rule="evenodd" clip-rule="evenodd" d="M5.1056 5.32364C6.93409 3.49515 9.41406 2.46791 11.9999 2.46791C14.5858 2.46791 17.0658 3.49515 18.8943 5.32364C20.7228 7.15213 21.75 9.63209 21.75 12.218C21.75 14.8038 20.7228 17.2838 18.8943 19.1123C17.0658 20.9408 14.5858 21.968 11.9999 21.968C9.41406 21.968 6.93409 20.9408 5.1056 19.1123C3.27711 17.2838 2.24988 14.8038 2.24988 12.218C2.24988 9.63209 3.27711 7.15213 5.1056 5.32364ZM6.72073 5.87811L18.3398 17.4972C19.5691 16.021 20.25 14.1546 20.25 12.218C20.25 10.0299 19.3808 7.93148 17.8336 6.3843C16.2864 4.83711 14.188 3.96791 11.9999 3.96791C10.0633 3.96791 8.19687 4.64884 6.72073 5.87811ZM17.2791 18.5578L5.66007 6.93877C4.4308 8.4149 3.74988 10.2813 3.74988 12.218C3.74988 14.406 4.61908 16.5045 6.16626 18.0516C7.71345 19.5988 9.81188 20.468 11.9999 20.468C13.9366 20.468 15.803 19.7871 17.2791 18.5578Z" fill="#3B3B3B"/>
</svg>
