<svg width="24" height="24" viewBox="0 0 24 24" fill="none" xmlns="http://www.w3.org/2000/svg">
<path fill-rule="evenodd" clip-rule="evenodd" d="M15.0192 4.61538C15.0192 2.75673 16.526 1.25 18.3846 1.25C20.2433 1.25 21.75 2.75673 21.75 4.61539V11C21.75 14.1829 19.8312 16.9177 17.0872 18.1107C18.0051 18.6248 18.8039 19.3538 19.4052 20.2558L19.624 20.584C19.8538 20.9286 19.7607 21.3943 19.416 21.624C19.0714 21.8538 18.6057 21.7607 18.376 21.416L18.1572 21.0878C17.1835 19.6273 15.5443 18.75 13.7889 18.75H10.2111C8.45575 18.75 6.81653 19.6273 5.84284 21.0878L5.62404 21.416C5.39427 21.7607 4.92862 21.8538 4.58397 21.624C4.23933 21.3943 4.1462 20.9286 4.37596 20.584L4.59476 20.2558C5.08655 19.5181 5.71038 18.8961 6.42344 18.4128C3.99468 17.575 2.25 15.269 2.25 12.5556C2.25 11.2822 3.28223 10.25 4.55556 10.25H17C17.4142 10.25 17.75 10.5858 17.75 11C17.75 11.4142 17.4142 11.75 17 11.75H4.55556C4.11066 11.75 3.75 12.1107 3.75 12.5556C3.75 15.1482 5.85177 17.25 8.44444 17.25H14C17.4518 17.25 20.25 14.4518 20.25 11V4.61539C20.25 3.58516 19.4148 2.75 18.3846 2.75C17.3544 2.75 16.5192 3.58516 16.5192 4.61538V5.25H17C17.4142 5.25 17.75 5.58579 17.75 6C17.75 6.41421 17.4142 6.75 17 6.75H14.5C14.0858 6.75 13.75 6.41421 13.75 6C13.75 5.58579 14.0858 5.25 14.5 5.25H15.0192V4.61538Z" fill="#3B3B3B"/>
</svg>
