<svg width="25" height="25" viewBox="0 0 25 25" fill="none" xmlns="http://www.w3.org/2000/svg">
<path fill-rule="evenodd" clip-rule="evenodd" d="M7.4159 3.93093C7.53198 3.65067 7.80546 3.46794 8.10881 3.46794H16.1088C16.4122 3.46794 16.6856 3.65067 16.8017 3.93093C16.9178 4.21118 16.8536 4.53377 16.6391 4.74827L15.8588 5.5286V10.3898C15.8588 10.3897 15.8588 10.3898 15.8588 10.3898C15.8589 10.7212 15.9907 11.0392 16.2251 11.2735L21.2251 16.2736C22.9581 18.0066 21.7293 20.9679 19.2798 20.9679H4.93681C2.48649 20.9679 1.2601 18.006 2.99248 16.2736L7.99248 11.2736C8.22687 11.0393 8.35869 10.7214 8.35881 10.3899C8.35881 10.3899 8.35881 10.39 8.35881 10.3899V5.5286L7.57848 4.74827C7.36398 4.53377 7.29981 4.21118 7.4159 3.93093ZM19.0073 16.1771C19.007 16.1768 19.0067 16.1765 19.0065 16.1762C18.832 16.0017 18.6097 15.8828 18.3677 15.8344L15.9808 15.3574C14.836 15.1285 13.6474 15.2876 12.6032 15.8098L12.6015 15.8106L12.2852 15.9678C12.285 15.9679 12.2855 15.9676 12.2852 15.9678C10.9429 16.6387 9.41438 16.8437 7.94279 16.5494M7.94279 16.5494L6.01187 16.1634C6.01185 16.1634 6.0119 16.1634 6.01187 16.1634C5.81015 16.1231 5.60152 16.1332 5.40464 16.1929C5.20774 16.2525 5.0286 16.3598 4.88312 16.5053C4.87534 16.5131 4.86744 16.5206 4.85941 16.528L4.05314 17.3343C3.26551 18.1219 3.82312 19.4679 4.93681 19.4679H19.2798C20.3943 19.4679 20.9515 18.1213 20.1645 17.3343L19.0073 16.1771M6.6301 14.7573L9.05306 12.3344C9.05303 12.3344 9.05308 12.3343 9.05306 12.3344C9.56877 11.8188 9.85865 11.1193 9.85881 10.3901V5.21794C9.85881 5.13196 9.84404 5.04749 9.81591 4.96794H14.4017C14.3736 5.04749 14.3588 5.13196 14.3588 5.21794V10.3899C14.359 11.1192 14.6488 11.8187 15.1645 12.3343C15.1645 12.3342 15.1645 12.3343 15.1645 12.3343L16.827 13.9968L16.2749 13.8865C16.2748 13.8865 16.2749 13.8865 16.2749 13.8865C14.8033 13.5922 13.2755 13.7967 11.9332 14.4677C11.9329 14.4679 11.9335 14.4676 11.9332 14.4677L11.6161 14.6253L11.6144 14.6261C10.5702 15.1483 9.3817 15.3074 8.23688 15.0785L6.6301 14.7573Z" fill="#3B3B3B"/>
</svg>
