<svg width="24" height="24" viewBox="0 0 24 24" fill="none" xmlns="http://www.w3.org/2000/svg">
<path fill-rule="evenodd" clip-rule="evenodd" d="M3.25 5C3.25 3.48122 4.48122 2.25 6 2.25H18C19.5188 2.25 20.75 3.48122 20.75 5V6C20.75 6.41421 20.4142 6.75 20 6.75C19.5858 6.75 19.25 6.41421 19.25 6V5C19.25 4.30964 18.6904 3.75 18 3.75H6C5.30964 3.75 4.75 4.30964 4.75 5V6C4.75 6.41421 4.41421 6.75 4 6.75C3.58579 6.75 3.25 6.41421 3.25 6V5ZM4.25 9.5C4.25 8.25736 5.25736 7.25 6.5 7.25H9.5C10.7426 7.25 11.75 8.25736 11.75 9.5C11.75 9.76298 11.7049 10.0154 11.622 10.25H12.378C12.2951 10.0154 12.25 9.76298 12.25 9.5C12.25 8.25736 13.2574 7.25 14.5 7.25H17.5C18.7426 7.25 19.75 8.25736 19.75 9.5C19.75 9.80926 19.6876 10.1039 19.5747 10.3722C20.2811 10.5902 20.8827 11.0883 21.2236 11.7702L22.143 13.6089C22.5422 14.4073 22.75 15.2877 22.75 16.1803V19C22.75 20.5188 21.5188 21.75 20 21.75H4C2.48122 21.75 1.25 20.5188 1.25 19V16.1803C1.25 15.2877 1.45783 14.4073 1.85704 13.6089L2.77639 11.7702C3.11734 11.0883 3.71886 10.5902 4.42528 10.3722C4.31239 10.1039 4.25 9.80926 4.25 9.5ZM6.5 10.25H9.5C9.91421 10.25 10.25 9.91421 10.25 9.5C10.25 9.08579 9.91421 8.75 9.5 8.75H6.5C6.08579 8.75 5.75 9.08579 5.75 9.5C5.75 9.91421 6.08579 10.25 6.5 10.25ZM5.23607 11.75C4.7626 11.75 4.32977 12.0175 4.11803 12.441L3.19868 14.2797C3.18132 14.3144 3.16444 14.3494 3.14805 14.3845C3.41629 14.2972 3.70263 14.25 4 14.25H20C20.2974 14.25 20.5837 14.2972 20.8519 14.3845C20.8356 14.3494 20.8187 14.3144 20.8013 14.2797L19.882 12.441C19.6702 12.0175 19.2374 11.75 18.7639 11.75H5.23607ZM21.25 17C21.25 16.3096 20.6904 15.75 20 15.75H4C3.30964 15.75 2.75 16.3096 2.75 17V19C2.75 19.6904 3.30964 20.25 4 20.25H20C20.6904 20.25 21.25 19.6904 21.25 19V17ZM17.5 10.25C17.9142 10.25 18.25 9.91421 18.25 9.5C18.25 9.08579 17.9142 8.75 17.5 8.75H14.5C14.0858 8.75 13.75 9.08579 13.75 9.5C13.75 9.91421 14.0858 10.25 14.5 10.25H17.5Z" fill="#3B3B3B"/>
</svg>
