<svg width="25" height="25" viewBox="0 0 25 25" fill="none" xmlns="http://www.w3.org/2000/svg">
<path fill-rule="evenodd" clip-rule="evenodd" d="M10.2733 3.27337C10.789 2.75764 11.4884 2.46791 12.2178 2.46791C12.9471 2.46791 13.6466 2.75764 14.1623 3.27337C14.6381 3.74917 14.9216 4.38138 14.9626 5.04916C16.0694 5.54202 17.0264 6.32521 17.7295 7.3199C18.5353 8.45996 18.9679 9.8218 18.9678 11.2179C18.9678 11.2179 18.9678 11.2179 18.9678 11.2179V14.3759C18.9678 14.5443 19.0009 14.7111 19.0653 14.8667C19.1297 15.0222 19.2241 15.1635 19.3431 15.2826C19.3431 15.2826 19.3431 15.2826 19.3431 15.2826L20.7481 16.6876C20.9626 16.9021 21.0268 17.2247 20.9107 17.5049C20.7946 17.7852 20.5211 17.9679 20.2178 17.9679H15.9678V18.2179C15.9678 19.2125 15.5727 20.1663 14.8694 20.8696C14.1662 21.5728 13.2124 21.9679 12.2178 21.9679C11.2232 21.9679 10.2694 21.5728 9.56614 20.8696C8.86288 20.1663 8.46779 19.2125 8.46779 18.2179V17.9679H4.2178C3.91445 17.9679 3.64097 17.7852 3.52489 17.5049C3.4088 17.2247 3.47297 16.9021 3.68747 16.6876L5.09247 15.2826C5.33283 15.0422 5.4678 14.716 5.4678 14.3769V11.2179C5.4678 8.46673 7.11416 6.10093 9.47297 5.04926C9.51397 4.38144 9.79742 3.7492 10.2733 3.27337ZM9.96779 17.9679V18.2179C9.96779 18.8146 10.2048 19.3869 10.6268 19.8089C11.0488 20.2309 11.6211 20.4679 12.2178 20.4679C12.8145 20.4679 13.3868 20.2309 13.8088 19.8089C14.2307 19.3869 14.4678 18.8146 14.4678 18.2179V17.9679H9.96779ZM12.2178 3.96791C11.8863 3.96791 11.5683 4.09961 11.3339 4.33403C11.0995 4.56845 10.9678 4.88639 10.9678 5.21791V5.55891C10.9678 5.87672 10.7675 6.16003 10.4679 6.266C8.428 6.98739 6.9678 8.93367 6.9678 11.2179V14.3769C6.9678 15.1138 6.67476 15.8216 6.15313 16.3432L6.02846 16.4679H18.4071L18.2825 16.3432C18.0241 16.0849 17.8192 15.7781 17.6794 15.4405C17.5397 15.103 17.4678 14.7412 17.4678 14.3759C17.4678 14.3759 17.4678 14.3759 17.4678 14.3759V11.2179C17.4679 10.1319 17.1314 9.07251 16.5046 8.1857C15.8777 7.29889 14.9914 6.62819 13.9676 6.26596C13.6681 6.15996 13.4678 5.87668 13.4678 5.55891V5.21791C13.4678 4.88639 13.3361 4.56845 13.1017 4.33403C12.8673 4.09961 12.5493 3.96791 12.2178 3.96791Z" fill="#3B3B3B"/>
</svg>
