<svg width="25" height="25" viewBox="0 0 25 25" fill="none" xmlns="http://www.w3.org/2000/svg">
<path fill-rule="evenodd" clip-rule="evenodd" d="M2.91211 5.84626C4.21687 4.9794 5.95092 4.46796 7.82715 4.46796C9.51079 4.46796 11.08 4.8798 12.3271 5.59073C13.5743 4.8798 15.1435 4.46796 16.8271 4.46796C18.7044 4.46796 20.4375 4.97943 21.7422 5.84626C21.9514 5.98526 22.0771 6.21977 22.0771 6.47096V19.471C22.0771 19.7473 21.9251 20.0013 21.6816 20.1319C21.438 20.2625 21.1423 20.2486 20.9121 20.0957C19.8808 19.4105 18.4439 18.968 16.8271 18.968C15.2114 18.968 13.7734 19.4105 12.7422 20.0957C12.4907 20.2627 12.1636 20.2627 11.9121 20.0957C10.8809 19.4105 9.44292 18.968 7.82715 18.968C6.21137 18.968 4.77343 19.4105 3.74219 20.0957C3.51198 20.2486 3.21631 20.2625 2.97273 20.1319C2.72915 20.0013 2.57715 19.7473 2.57715 19.471V6.47096C2.57715 6.21977 2.70289 5.98526 2.91211 5.84626ZM11.5771 6.88983C10.5796 6.32318 9.27475 5.96796 7.82715 5.96796C6.37955 5.96796 5.07469 6.32318 4.07715 6.88983V18.2162C5.17916 17.7372 6.46573 17.468 7.82715 17.468C9.18857 17.468 10.4751 17.7372 11.5771 18.2162V6.88983ZM13.0771 18.2162C14.1792 17.7372 15.4657 17.468 16.8271 17.468C18.1893 17.468 19.4754 17.7372 20.5771 18.2161V6.88981C19.5797 6.32316 18.2756 5.96796 16.8271 5.96796C15.3795 5.96796 14.0747 6.32318 13.0771 6.88983V18.2162Z" fill="#3B3B3B"/>
</svg>
