<svg width="25" height="25" viewBox="0 0 25 25" fill="none" xmlns="http://www.w3.org/2000/svg">
<path fill-rule="evenodd" clip-rule="evenodd" d="M7.54492 3.96791C7.2134 3.96791 6.89546 4.09961 6.66104 4.33403C6.42662 4.56845 6.29492 4.88639 6.29492 5.21791V20.0044L12.2095 17.0471C12.4207 16.9415 12.6692 16.9415 12.8803 17.0471L18.7949 20.0044V5.21791C18.7949 4.88639 18.6632 4.56845 18.4288 4.33403C18.1944 4.09961 17.8764 3.96791 17.5449 3.96791H7.54492ZM5.60038 3.27337C6.1161 2.75764 6.81558 2.46791 7.54492 2.46791H17.5449C18.2743 2.46791 18.9737 2.75764 19.4895 3.27337C20.0052 3.78909 20.2949 4.48856 20.2949 5.21791V21.2179C20.2949 21.4778 20.1603 21.7192 19.9392 21.8559C19.7181 21.9926 19.442 22.005 19.2095 21.8887L12.5449 18.5564L5.88033 21.8887C5.64784 22.005 5.37174 21.9926 5.15062 21.8559C4.92951 21.7192 4.79492 21.4778 4.79492 21.2179V5.21791C4.79492 4.48857 5.08465 3.78909 5.60038 3.27337Z" fill="#3B3B3B"/>
</svg>
