<svg width="25" height="25" viewBox="0 0 25 25" fill="none" xmlns="http://www.w3.org/2000/svg">
<path fill-rule="evenodd" clip-rule="evenodd" d="M9.01269 3.21791C9.01269 2.8037 9.34848 2.46791 9.76269 2.46791H9.77269C10.1869 2.46791 10.5227 2.8037 10.5227 3.21791C10.5227 3.63212 10.1869 3.96791 9.77269 3.96791H9.76269C9.34848 3.96791 9.01269 3.63212 9.01269 3.21791ZM12.0127 3.21791C12.0127 2.8037 12.3485 2.46791 12.7627 2.46791H12.7727C13.1869 2.46791 13.5227 2.8037 13.5227 3.21791C13.5227 3.63212 13.1869 3.96791 12.7727 3.96791H12.7627C12.3485 3.96791 12.0127 3.63212 12.0127 3.21791ZM15.0127 3.21791C15.0127 2.8037 15.3485 2.46791 15.7627 2.46791H15.7727C16.1869 2.46791 16.5227 2.8037 16.5227 3.21791C16.5227 3.63212 16.1869 3.96791 15.7727 3.96791H15.7627C15.3485 3.96791 15.0127 3.63212 15.0127 3.21791ZM9.76269 5.46791C10.1769 5.46791 10.5127 5.8037 10.5127 6.21791V7.46791H12.0127V6.21791C12.0127 5.8037 12.3485 5.46791 12.7627 5.46791C13.1769 5.46791 13.5127 5.8037 13.5127 6.21791V7.46791H15.0127V6.21791C15.0127 5.8037 15.3485 5.46791 15.7627 5.46791C16.1769 5.46791 16.5127 5.8037 16.5127 6.21791V7.46791H16.7627C17.492 7.46791 18.1915 7.75764 18.7072 8.27337C19.223 8.78909 19.5127 9.48856 19.5127 10.2179V11.4679H19.7627C20.492 11.4679 21.1915 11.7576 21.7072 12.2734C22.223 12.7891 22.5127 13.4886 22.5127 14.2179V21.2179C22.5127 21.6321 22.1769 21.9679 21.7627 21.9679H3.7627C3.34848 21.9679 3.0127 21.6321 3.0127 21.2179L3.0127 15.7642C3.0127 15.764 3.0127 15.7645 3.0127 15.7642L3.0127 14.2179C3.0127 13.4886 3.30243 12.7891 3.81815 12.2734C4.33388 11.7576 5.03335 11.4679 5.7627 11.4679H6.01269V10.2179C6.0127 9.48856 6.30243 8.78909 6.81815 8.27337C7.33388 7.75764 8.03335 7.46791 8.76269 7.46791H9.01269V6.21791C9.01269 5.8037 9.34848 5.46791 9.76269 5.46791ZM8.76269 8.96791C8.43117 8.96791 8.11323 9.09961 7.87881 9.33403C7.64439 9.56845 7.5127 9.88639 7.51269 10.2179V11.4679H18.0127V10.2179C18.0127 9.88639 17.881 9.56845 17.6466 9.33403C17.4122 9.09961 17.0942 8.96791 16.7627 8.96791H8.76269ZM6.76269 12.9679H5.7627C5.43117 12.9679 5.11323 13.0996 4.87881 13.334C4.64439 13.5684 4.5127 13.8864 4.5127 14.2179V15.0961C4.92669 15.1881 5.32233 15.3562 5.67875 15.5939C5.99974 15.8079 6.3769 15.9221 6.76269 15.9221C7.14849 15.9221 7.52565 15.8079 7.84664 15.5939C8.41405 15.2156 9.08074 15.0137 9.76269 15.0137C10.4446 15.0137 11.1113 15.2156 11.6787 15.5939C11.9997 15.8079 12.3769 15.9221 12.7627 15.9221C13.1485 15.9221 13.5257 15.8079 13.8466 15.5939C14.414 15.2156 15.0807 15.0137 15.7627 15.0137C16.4446 15.0137 17.1113 15.2156 17.6787 15.5939C17.9997 15.8079 18.3769 15.9221 18.7627 15.9221C19.1484 15.9221 19.5254 15.808 19.8464 15.5941M4.5127 16.6633V20.4679H21.0127V16.6632C20.8973 16.7111 20.7855 16.7707 20.679 16.8417C20.1116 17.22 19.4446 17.4221 18.7627 17.4221C18.0807 17.4221 17.414 17.2202 16.8466 16.8419C16.5257 16.6279 16.1485 16.5137 15.7627 16.5137C15.3769 16.5137 14.9997 16.6279 14.6787 16.8419C14.1113 17.2202 13.4446 17.4221 12.7627 17.4221C12.0807 17.4221 11.414 17.2202 10.8466 16.8419C10.5257 16.6279 10.1485 16.5137 9.76269 16.5137C9.3769 16.5137 8.99974 16.6279 8.67875 16.8419C8.11134 17.2202 7.44465 17.4221 6.7627 17.4221C6.08074 17.4221 5.41405 17.2202 4.84664 16.8419C4.74091 16.7714 4.62894 16.7116 4.5127 16.6633ZM6.76269 12.9679H19.7627C20.0942 12.9679 20.4122 13.0996 20.6466 13.334C20.881 13.5684 21.0127 13.8864 21.0127 14.2179V15.0961C20.6042 15.1868 20.208 15.3528 19.8464 15.5941" fill="#3B3B3B"/>
</svg>
