<svg width="25" height="25" viewBox="0 0 25 25" fill="none" xmlns="http://www.w3.org/2000/svg">
<path fill-rule="evenodd" clip-rule="evenodd" d="M5.9274 3.27337C6.44313 2.75764 7.1426 2.46791 7.87195 2.46791H17.8719C18.6013 2.46791 19.3008 2.75764 19.8165 3.27337C20.3322 3.78909 20.6219 4.48856 20.6219 5.21791V19.2179C20.6219 19.9473 20.3322 20.6467 19.8165 21.1625C19.3008 21.6782 18.6013 21.9679 17.8719 21.9679H7.87195C7.1426 21.9679 6.44313 21.6782 5.9274 21.1625C5.41168 20.6467 5.12195 19.9473 5.12195 19.2179V5.21791C5.12195 4.48857 5.41168 3.78909 5.9274 3.27337ZM7.87195 3.96791C7.54043 3.96791 7.22249 4.09961 6.98806 4.33403C6.75364 4.56845 6.62195 4.88639 6.62195 5.21791V19.2179C6.62195 19.5494 6.75364 19.8674 6.98806 20.1018C7.22249 20.3362 7.54043 20.4679 7.87195 20.4679H17.8719C18.2035 20.4679 18.5214 20.3362 18.7558 20.1018C18.9903 19.8674 19.1219 19.5494 19.1219 19.2179V5.21791C19.1219 4.88639 18.9903 4.56845 18.7558 4.33403C18.5214 4.09961 18.2035 3.96791 17.8719 3.96791H7.87195ZM9.12195 7.21791C9.12195 6.8037 9.45773 6.46791 9.87195 6.46791H15.8719C16.2862 6.46791 16.6219 6.8037 16.6219 7.21791C16.6219 7.63212 16.2862 7.96791 15.8719 7.96791H9.87195C9.45773 7.96791 9.12195 7.63212 9.12195 7.21791ZM9.12195 11.2179C9.12195 10.8037 9.45773 10.4679 9.87195 10.4679H9.88195C10.2962 10.4679 10.6319 10.8037 10.6319 11.2179C10.6319 11.6321 10.2962 11.9679 9.88195 11.9679H9.87195C9.45773 11.9679 9.12195 11.6321 9.12195 11.2179ZM12.1219 11.2179C12.1219 10.8037 12.4577 10.4679 12.8719 10.4679H12.8819C13.2962 10.4679 13.6319 10.8037 13.6319 11.2179C13.6319 11.6321 13.2962 11.9679 12.8819 11.9679H12.8719C12.4577 11.9679 12.1219 11.6321 12.1219 11.2179ZM15.1219 11.2179C15.1219 10.8037 15.4577 10.4679 15.8719 10.4679H15.8819C16.2962 10.4679 16.6319 10.8037 16.6319 11.2179C16.6319 11.6321 16.2962 11.9679 15.8819 11.9679H15.8719C15.4577 11.9679 15.1219 11.6321 15.1219 11.2179ZM9.12195 14.2179C9.12195 13.8037 9.45773 13.4679 9.87195 13.4679H9.88195C10.2962 13.4679 10.6319 13.8037 10.6319 14.2179C10.6319 14.6321 10.2962 14.9679 9.88195 14.9679H9.87195C9.45773 14.9679 9.12195 14.6321 9.12195 14.2179ZM12.1219 14.2179C12.1219 13.8037 12.4577 13.4679 12.8719 13.4679H12.8819C13.2962 13.4679 13.6319 13.8037 13.6319 14.2179C13.6319 14.6321 13.2962 14.9679 12.8819 14.9679H12.8719C12.4577 14.9679 12.1219 14.6321 12.1219 14.2179ZM15.8719 13.4679C16.2862 13.4679 16.6219 13.8037 16.6219 14.2179V17.2179C16.6219 17.6321 16.2862 17.9679 15.8719 17.9679C15.4577 17.9679 15.1219 17.6321 15.1219 17.2179V14.2179C15.1219 13.8037 15.4577 13.4679 15.8719 13.4679ZM9.12195 17.2179C9.12195 16.8037 9.45773 16.4679 9.87195 16.4679H9.88195C10.2962 16.4679 10.6319 16.8037 10.6319 17.2179C10.6319 17.6321 10.2962 17.9679 9.88195 17.9679H9.87195C9.45773 17.9679 9.12195 17.6321 9.12195 17.2179ZM12.1219 17.2179C12.1219 16.8037 12.4577 16.4679 12.8719 16.4679H12.8819C13.2962 16.4679 13.6319 16.8037 13.6319 17.2179C13.6319 17.6321 13.2962 17.9679 12.8819 17.9679H12.8719C12.4577 17.9679 12.1219 17.6321 12.1219 17.2179Z" fill="#3B3B3B"/>
</svg>
