<svg width="25" height="25" viewBox="0 0 25 25" fill="none" xmlns="http://www.w3.org/2000/svg">
<path fill-rule="evenodd" clip-rule="evenodd" d="M8.98071 2.46791C9.39493 2.46791 9.73071 2.8037 9.73071 3.21791V4.46791H16.2307V3.21791C16.2307 2.8037 16.5665 2.46791 16.9807 2.46791C17.3949 2.46791 17.7307 2.8037 17.7307 3.21791V4.46791H19.9807C20.7101 4.46791 21.4095 4.75764 21.9253 5.27337C22.441 5.78909 22.7307 6.48856 22.7307 7.21791V19.2179C22.7307 19.9473 22.441 20.6467 21.9253 21.1625C21.4095 21.6782 20.7101 21.9679 19.9807 21.9679H5.98071C5.25137 21.9679 4.55189 21.6782 4.03617 21.1625C3.52044 20.6467 3.23071 19.9473 3.23071 19.2179V7.21791C3.23071 6.48857 3.52044 5.78909 4.03617 5.27337C4.55189 4.75764 5.25137 4.46791 5.98071 4.46791H8.23071V3.21791C8.23071 2.8037 8.5665 2.46791 8.98071 2.46791ZM8.23071 5.96791H5.98071C5.64919 5.96791 5.33125 6.09961 5.09683 6.33403C4.86241 6.56845 4.73071 6.88639 4.73071 7.21791V19.2179C4.73071 19.5494 4.86241 19.8674 5.09683 20.1018C5.33125 20.3362 5.64919 20.4679 5.98071 20.4679H19.9807C20.3122 20.4679 20.6302 20.3362 20.8646 20.1018C21.099 19.8674 21.2307 19.5494 21.2307 19.2179V7.21791C21.2307 6.88639 21.099 6.56845 20.8646 6.33403C20.6302 6.09961 20.3122 5.96791 19.9807 5.96791H17.7307V7.21791C17.7307 7.63212 17.3949 7.96791 16.9807 7.96791C16.5665 7.96791 16.2307 7.63212 16.2307 7.21791V5.96791H9.73071V7.21791C9.73071 7.63212 9.39493 7.96791 8.98071 7.96791C8.5665 7.96791 8.23071 7.63212 8.23071 7.21791V5.96791ZM7.23071 11.2179C7.23071 10.8037 7.5665 10.4679 7.98071 10.4679H17.9807C18.3949 10.4679 18.7307 10.8037 18.7307 11.2179C18.7307 11.6321 18.3949 11.9679 17.9807 11.9679H7.98071C7.5665 11.9679 7.23071 11.6321 7.23071 11.2179Z" fill="#3B3B3B"/>
</svg>
