<svg width="24" height="25" viewBox="0 0 24 25" fill="none" xmlns="http://www.w3.org/2000/svg">
<path fill-rule="evenodd" clip-rule="evenodd" d="M10.0698 5.07799C9.86402 5.07796 9.66146 5.12871 9.48004 5.22574C9.2987 5.32273 9.1441 5.46296 9.02993 5.63399C9.02988 5.63407 9.02999 5.63391 9.02993 5.63399L8.21823 6.85354C7.96702 7.23006 7.62629 7.53945 7.22717 7.75292C6.82808 7.96638 6.38247 8.07804 5.92988 8.07799C5.92984 8.07799 5.92991 8.07799 5.92988 8.07799H4.99988C4.66836 8.07799 4.35041 8.20968 4.11599 8.4441C3.88157 8.67852 3.74988 8.99647 3.74988 9.32799V18.328C3.74988 18.6595 3.88157 18.9774 4.11599 19.2119C4.35042 19.4463 4.66836 19.578 4.99988 19.578H18.9999C19.3314 19.578 19.6493 19.4463 19.8838 19.2119C20.1182 18.9774 20.2499 18.6595 20.2499 18.328V9.32799C20.2499 8.99647 20.1182 8.67852 19.8838 8.4441C19.6493 8.20968 19.3314 8.07799 18.9999 8.07799H18.07C18.07 8.07799 18.07 8.07799 18.07 8.07799C17.6174 8.07804 17.1717 7.96638 16.7726 7.75292C16.3735 7.53945 16.0332 7.23076 15.782 6.85424L14.97 5.63424C14.9699 5.63415 14.97 5.63432 14.97 5.63424C14.8558 5.4632 14.701 5.32273 14.5197 5.22574C14.3383 5.12871 14.1357 5.07796 13.93 5.07799H10.0698ZM8.77259 3.90305C9.17168 3.68959 9.61729 3.57794 10.0699 3.57799C10.0698 3.57799 10.0699 3.57799 10.0699 3.57799M13.9299 3.57799C13.9298 3.57799 13.9299 3.57799 13.9299 3.57799H10.0699H13.9299ZM13.9299 3.57799C14.3825 3.57794 14.8281 3.68959 15.2272 3.90305C15.6263 4.11653 15.9666 4.42522 16.2178 4.80174L17.0298 6.02174C17.0297 6.02162 17.0298 6.02186 17.0298 6.02174C17.1439 6.19272 17.2987 6.33327 17.48 6.43023C17.6615 6.52727 17.864 6.57802 18.0698 6.57799H18.9999C19.7292 6.57799 20.4287 6.86772 20.9444 7.38344C21.4601 7.89917 21.7499 8.59864 21.7499 9.32799V18.328C21.7499 19.0573 21.4601 19.7568 20.9444 20.2725C20.4287 20.7883 19.7292 21.078 18.9999 21.078H4.99988C4.27053 21.078 3.57106 20.7883 3.05533 20.2725C2.53961 19.7568 2.24988 19.0573 2.24988 18.328V9.32799C2.24988 8.59864 2.53961 7.89917 3.05533 7.38344C3.57106 6.86772 4.27053 6.57799 4.99988 6.57799H5.92988C6.13562 6.57802 6.3383 6.52727 6.51972 6.43023C6.70101 6.33327 6.85558 6.19308 6.96975 6.0221C6.96966 6.02223 6.96983 6.02198 6.96975 6.0221L7.78153 4.80243C8.03273 4.42592 8.37346 4.11653 8.77259 3.90305M11.9999 11.0781C11.4031 11.0781 10.8308 11.3152 10.4089 11.7371C9.98693 12.1591 9.74988 12.7314 9.74988 13.3281C9.74988 13.9249 9.98694 14.4972 10.4089 14.9191C10.8308 15.3411 11.4031 15.5781 11.9999 15.5781C12.5966 15.5781 13.1689 15.3411 13.5909 14.9191C14.0128 14.4972 14.2499 13.9249 14.2499 13.3281C14.2499 12.7314 14.0128 12.1591 13.5909 11.7371C13.1689 11.3152 12.5966 11.0781 11.9999 11.0781ZM9.34823 10.6765C10.0515 9.97322 11.0053 9.57813 11.9999 9.57813C12.9944 9.57813 13.9483 9.97322 14.6515 10.6765C15.3548 11.3797 15.7499 12.3336 15.7499 13.3281C15.7499 14.3227 15.3548 15.2765 14.6515 15.9798C13.9483 16.683 12.9944 17.0781 11.9999 17.0781C11.0053 17.0781 10.0515 16.683 9.34823 15.9798C8.64497 15.2765 8.24988 14.3227 8.24988 13.3281C8.24988 12.3336 8.64497 11.3797 9.34823 10.6765Z" fill="#3B3B3B"/>
</svg>
