<svg width="25" height="25" viewBox="0 0 25 25" fill="none" xmlns="http://www.w3.org/2000/svg">
<path fill-rule="evenodd" clip-rule="evenodd" d="M17.2176 4.07796C16.8861 4.07796 16.5682 4.20965 16.3338 4.44407C16.0993 4.67849 15.9676 4.99644 15.9676 5.32796V19.328C15.9676 19.6595 16.0993 19.9774 16.3338 20.2118C16.5682 20.4463 16.8861 20.578 17.2176 20.578H19.2176C19.5492 20.578 19.8671 20.4463 20.1015 20.2118C20.336 19.9774 20.4676 19.6595 20.4676 19.328V5.32796C20.4676 4.99644 20.336 4.67849 20.1015 4.44407C19.8671 4.20965 19.5492 4.07796 19.2176 4.07796H17.2176ZM15.2177 21.2154C15.2358 21.2347 15.2543 21.2537 15.2731 21.2725C15.7888 21.7882 16.4883 22.078 17.2176 22.078H19.2176C19.947 22.078 20.6465 21.7882 21.1622 21.2725C21.6779 20.7568 21.9676 20.0573 21.9676 19.328V5.32796C21.9676 4.59861 21.6779 3.89914 21.1622 3.38341C20.6465 2.86769 19.947 2.57796 19.2176 2.57796H17.2176C16.4883 2.57796 15.7888 2.86769 15.2731 3.38341C14.7574 3.89914 14.4676 4.59861 14.4676 5.32796V6.87846C14.0841 6.68275 13.6563 6.57796 13.2177 6.57796H11.2177C10.4883 6.57796 9.78883 6.86769 9.27311 7.38341C8.75738 7.89914 8.46765 8.59861 8.46765 9.32796V10.8785C8.0841 10.6827 7.65628 10.578 7.21765 10.578H5.21765C4.48831 10.578 3.78883 10.8677 3.27311 11.3834C2.75738 11.8991 2.46765 12.5986 2.46765 13.328V19.328C2.46765 20.0573 2.75738 20.7568 3.27311 21.2725C3.78883 21.7882 4.48831 22.078 5.21765 22.078H7.21765C7.947 22.078 8.64647 21.7882 9.16219 21.2725C9.18098 21.2537 9.19947 21.2347 9.21765 21.2154C9.23584 21.2347 9.25432 21.2537 9.27311 21.2725C9.78883 21.7882 10.4883 22.078 11.2177 22.078H13.2177C13.947 22.078 14.6465 21.7882 15.1622 21.2725C15.181 21.2537 15.1995 21.2347 15.2177 21.2154ZM14.4676 19.328V9.32796C14.4676 8.99644 14.336 8.67849 14.1015 8.44407C13.8671 8.20965 13.5492 8.07796 13.2177 8.07796H11.2177C10.8861 8.07796 10.5682 8.20965 10.3338 8.44407C10.0993 8.67849 9.96765 8.99644 9.96765 9.32796V19.328C9.96765 19.6595 10.0993 19.9774 10.3338 20.2118C10.5682 20.4463 10.8861 20.578 11.2177 20.578H13.2177C13.5492 20.578 13.8671 20.4463 14.1015 20.2118C14.336 19.9774 14.4676 19.6595 14.4676 19.328ZM8.46765 19.328V13.328C8.46765 12.9964 8.33595 12.6785 8.10153 12.4441C7.86711 12.2097 7.54917 12.078 7.21765 12.078H5.21765C4.88613 12.078 4.56819 12.2097 4.33377 12.4441C4.09935 12.6785 3.96765 12.9964 3.96765 13.328V19.328C3.96765 19.6595 4.09935 19.9774 4.33377 20.2118C4.56819 20.4463 4.88613 20.578 5.21765 20.578H7.21765C7.54917 20.578 7.86711 20.4463 8.10153 20.2118C8.33595 19.9774 8.46765 19.6595 8.46765 19.328Z" fill="#3B3B3B"/>
</svg>
