<svg width="25" height="25" viewBox="0 0 25 25" fill="none" xmlns="http://www.w3.org/2000/svg">
<path fill-rule="evenodd" clip-rule="evenodd" d="M11.8273 2.82398C11.9863 2.96626 12.0772 3.16957 12.0772 3.38298V12.578H21.2722C21.4857 12.578 21.689 12.6689 21.8312 12.828C21.9735 12.987 22.0413 13.1992 22.0176 13.4113C21.8137 15.2362 21.0986 16.9664 19.9547 18.4028C18.8108 19.8392 17.2846 20.9234 15.5516 21.5306C13.8187 22.1379 11.9496 22.2435 10.1593 21.8353C8.36899 21.4271 6.73034 20.5217 5.43193 19.2233C4.13352 17.9249 3.22811 16.2862 2.81992 14.4959C2.41172 12.7057 2.51733 10.8365 3.12458 9.10358C3.73184 7.37066 4.81606 5.84443 6.25246 4.70053C7.68887 3.55663 9.41907 2.84156 11.2439 2.63762C11.456 2.61392 11.6682 2.6817 11.8273 2.82398ZM10.5772 4.26494C9.34223 4.53293 8.18135 5.08196 7.1869 5.87391C5.97146 6.84184 5.05402 8.1333 4.54018 9.59964C4.02634 11.066 3.93698 12.6476 4.28238 14.1625C4.62779 15.6774 5.39391 17.064 6.49259 18.1626C7.59127 19.2613 8.97784 20.0274 10.4927 20.3728C12.0076 20.7182 13.5892 20.6289 15.0556 20.115C16.5219 19.6012 17.8134 18.6838 18.7813 17.4683C19.5733 16.4739 20.1223 15.313 20.3903 14.078H11.3272C10.913 14.078 10.5772 13.7422 10.5772 13.328V4.26494ZM14.8944 3.22743C15.0934 3.08689 15.3482 3.05175 15.5778 3.13321C16.9484 3.61944 18.1932 4.40535 19.2215 5.43365C20.2498 6.46195 21.0357 7.70673 21.5219 9.07727C21.6034 9.30687 21.5682 9.56173 21.4277 9.76072C21.2871 9.95971 21.0587 10.078 20.8151 10.078H15.3271C14.9128 10.078 14.5771 9.74226 14.5771 9.32804V3.84004C14.5771 3.59642 14.6954 3.36798 14.8944 3.22743ZM16.0771 4.97806V8.57804H19.677C19.2846 7.81053 18.7735 7.10702 18.1608 6.49431C17.5481 5.8816 16.8446 5.37054 16.0771 4.97806Z" fill="#3B3B3B"/>
</svg>
