<svg width="25" height="25" viewBox="0 0 25 25" fill="none" xmlns="http://www.w3.org/2000/svg">
<path fill-rule="evenodd" clip-rule="evenodd" d="M4.49125 4.38344C5.00697 3.86772 5.70645 3.57799 6.43579 3.57799H18.4358C19.1651 3.57799 19.8646 3.86772 20.3803 4.38344C20.8961 4.89917 21.1858 5.59864 21.1858 6.32799V18.328C21.1858 19.0573 20.8961 19.7568 20.3803 20.2725C19.8646 20.7883 19.1651 21.078 18.4358 21.078H6.43579C5.70645 21.078 5.00697 20.7883 4.49125 20.2725C3.97552 19.7568 3.68579 19.0573 3.68579 18.328V6.32799C3.68579 5.59864 3.97552 4.89917 4.49125 4.38344ZM6.43579 5.07799C6.10427 5.07799 5.78633 5.20968 5.55191 5.4441C5.31749 5.67852 5.18579 5.99647 5.18579 6.32799V18.328C5.18579 18.6595 5.31749 18.9774 5.55191 19.2119C5.78633 19.4463 6.10427 19.578 6.43579 19.578H18.4358C18.7673 19.578 19.0853 19.4463 19.3197 19.2119C19.5541 18.9774 19.6858 18.6595 19.6858 18.328V6.32799C19.6858 5.99647 19.5541 5.67852 19.3197 5.4441C19.0853 5.20968 18.7673 5.07799 18.4358 5.07799H6.43579ZM16.4358 7.57799C16.85 7.57799 17.1858 7.91377 17.1858 8.32799V16.328C17.1858 16.7422 16.85 17.078 16.4358 17.078C16.0216 17.078 15.6858 16.7422 15.6858 16.328V8.32799C15.6858 7.91377 16.0216 7.57799 16.4358 7.57799ZM12.4358 10.578C12.85 10.578 13.1858 10.9138 13.1858 11.328V16.328C13.1858 16.7422 12.85 17.078 12.4358 17.078C12.0216 17.078 11.6858 16.7422 11.6858 16.328V11.328C11.6858 10.9138 12.0216 10.578 12.4358 10.578ZM8.43579 13.578C8.85 13.578 9.18579 13.9138 9.18579 14.328V16.328C9.18579 16.7422 8.85 17.078 8.43579 17.078C8.02158 17.078 7.68579 16.7422 7.68579 16.328V14.328C7.68579 13.9138 8.02158 13.578 8.43579 13.578Z" fill="#3B3B3B"/>
</svg>
