<svg width="25" height="25" viewBox="0 0 25 25" fill="none" xmlns="http://www.w3.org/2000/svg">
<path fill-rule="evenodd" clip-rule="evenodd" d="M5.65381 5.07799C5.32229 5.07799 5.00435 5.20968 4.76992 5.4441C4.5355 5.67852 4.40381 5.99647 4.40381 6.32799V14.328C4.40381 14.6595 4.5355 14.9775 4.76992 15.2119C5.00435 15.4463 5.32229 15.578 5.65381 15.578H9.65381C10.068 15.578 10.4038 15.9138 10.4038 16.328V19.5173L14.1235 15.7977C14.2641 15.657 14.4549 15.578 14.6538 15.578H19.6538C19.9853 15.578 20.3033 15.4463 20.5377 15.2119C20.7721 14.9775 20.9038 14.6595 20.9038 14.328V6.32799C20.9038 5.99647 20.7721 5.67852 20.5377 5.4441C20.3033 5.20968 19.9853 5.07799 19.6538 5.07799H5.65381ZM3.70926 4.38344C4.22499 3.86772 4.92446 3.57799 5.65381 3.57799H19.6538C20.3832 3.57799 21.0826 3.86772 21.5984 4.38344C22.1141 4.89917 22.4038 5.59864 22.4038 6.32799V14.328C22.4038 15.0573 22.1141 15.7568 21.5984 16.2725C21.0826 16.7883 20.3832 17.078 19.6538 17.078H14.9645L10.1841 21.8583C9.96964 22.0728 9.64705 22.137 9.3668 22.0209C9.08654 21.9048 8.90381 21.6313 8.90381 21.328V17.078H5.65381C4.92446 17.078 4.22499 16.7883 3.70926 16.2725C3.19354 15.7568 2.90381 15.0573 2.90381 14.328V6.32799C2.90381 5.59864 3.19354 4.89917 3.70926 4.38344ZM7.90381 10.328C7.90381 9.91377 8.23959 9.57799 8.65381 9.57799H8.66381C9.07802 9.57799 9.41381 9.91377 9.41381 10.328C9.41381 10.7422 9.07802 11.078 8.66381 11.078H8.65381C8.23959 11.078 7.90381 10.7422 7.90381 10.328ZM11.9038 10.328C11.9038 9.91377 12.2396 9.57799 12.6538 9.57799H12.6638C13.078 9.57799 13.4138 9.91377 13.4138 10.328C13.4138 10.7422 13.078 11.078 12.6638 11.078H12.6538C12.2396 11.078 11.9038 10.7422 11.9038 10.328ZM15.9038 10.328C15.9038 9.91377 16.2396 9.57799 16.6538 9.57799H16.6638C17.078 9.57799 17.4138 9.91377 17.4138 10.328C17.4138 10.7422 17.078 11.078 16.6638 11.078H16.6538C16.2396 11.078 15.9038 10.7422 15.9038 10.328Z" fill="#3B3B3B"/>
</svg>
