<svg width="25" height="25" viewBox="0 0 25 25" fill="none" xmlns="http://www.w3.org/2000/svg">
<path d="M21.69 7.81C21.4362 7.55347 21.1341 7.3498 20.8011 7.21077C20.4681 7.07174 20.1109 7.0001 19.75 7H18.5V5.75C18.4948 5.02227 18.2034 4.32584 17.6888 3.81124C17.1742 3.29665 16.4777 3.00524 15.75 3H5.75C5.02227 3.00524 4.32584 3.29665 3.81124 3.81124C3.29665 4.32584 3.00524 5.02227 3 5.75V11.75C3.00524 12.4777 3.29665 13.1742 3.81124 13.6888C4.32584 14.2034 5.02227 14.4948 5.75 14.5H7V17.75C6.999 17.8978 7.04228 18.0425 7.12427 18.1655C7.20625 18.2885 7.32319 18.3841 7.46 18.44C7.55172 18.4791 7.65031 18.4995 7.75 18.5C7.94841 18.4977 8.13828 18.4189 8.28 18.28L8.42 18.14C8.51005 18.1959 8.60357 18.246 8.7 18.29C9.01693 18.423 9.35634 18.4943 9.7 18.5H13.39L17.17 22.28C17.2747 22.3862 17.4089 22.4582 17.5553 22.4868C17.7016 22.5153 17.8531 22.499 17.99 22.44C18.1268 22.3841 18.2437 22.2885 18.3257 22.1655C18.4077 22.0425 18.451 21.8978 18.45 21.75V18.5H19.75C20.4777 18.4948 21.1742 18.2034 21.6888 17.6888C22.2034 17.1742 22.4948 16.4777 22.5 15.75V9.75C22.4999 9.38915 22.4283 9.0319 22.2892 8.6989C22.1502 8.36591 21.9465 8.06379 21.69 7.81ZM5.75 13C5.41929 12.9974 5.10286 12.8649 4.86901 12.631C4.63515 12.3971 4.50261 12.0807 4.5 11.75V5.75C4.50261 5.41929 4.63515 5.10286 4.86901 4.86901C5.10286 4.63515 5.41929 4.50261 5.75 4.5H15.75C16.0807 4.50261 16.3971 4.63515 16.631 4.86901C16.8649 5.10286 16.9974 5.41929 17 5.75V11.75C16.9974 12.0807 16.8649 12.3971 16.631 12.631C16.3971 12.8649 16.0807 12.9974 15.75 13H11.75C11.5512 13.0002 11.3605 13.0793 11.22 13.22L8.5 15.94V13.75C8.49741 13.5519 8.41756 13.3626 8.27747 13.2225C8.13737 13.0824 7.94811 13.0026 7.75 13H5.75ZM21 15.75C20.9974 16.0807 20.8649 16.3971 20.631 16.631C20.3971 16.8649 20.0807 16.9974 19.75 17H17.75C17.5519 17.0026 17.3626 17.0824 17.2225 17.2225C17.0824 17.3626 17.0026 17.5519 17 17.75V19.94L14.28 17.22C14.1395 17.0793 13.9488 17.0002 13.75 17H9.75H9.59L12.06 14.53H15.75C16.4829 14.5247 17.1839 14.2292 17.6993 13.7081C18.2147 13.187 18.5027 12.4829 18.5 11.75V8.5H19.75C20.0807 8.50261 20.3971 8.63515 20.631 8.86901C20.8649 9.10286 20.9974 9.41929 21 9.75V15.75Z" fill="#3B3B3B"/>
</svg>
