<svg width="24" height="24" viewBox="0 0 24 24" fill="none" xmlns="http://www.w3.org/2000/svg">
<path fill-rule="evenodd" clip-rule="evenodd" d="M4.86001 18.6359C6.68491 20.4554 9.15305 21.4829 11.73 21.4959C13.0167 21.5004 14.2915 21.2489 15.48 20.7559C16.6646 20.2623 17.7414 19.5421 18.65 18.6359C19.5562 17.7332 20.2735 16.6589 20.76 15.4759C21.3108 14.144 21.5594 12.7066 21.488 11.2671C21.4167 9.82764 21.027 8.42187 20.3472 7.15102C19.6674 5.88017 18.7143 4.77584 17.5565 3.91752C16.3986 3.05921 15.065 2.46825 13.6514 2.18719C12.2378 1.90613 10.7795 1.94196 9.38137 2.29209C7.98329 2.64223 6.68022 3.29797 5.56595 4.2121C4.45169 5.12624 3.55395 6.27604 2.93734 7.57874C2.32074 8.88145 2.00062 10.3046 2.00001 11.7459C1.99786 13.0264 2.2495 14.2945 2.7404 15.4772C3.23129 16.6598 3.95171 17.7334 4.86001 18.6359ZM7.84105 4.47149C9.03743 3.83145 10.3732 3.49636 11.73 3.49591C13.0878 3.49357 14.4252 3.82681 15.6231 4.46599C16.8211 5.10516 17.8425 6.03047 18.5966 7.15962C19.3507 8.28878 19.814 9.58678 19.9455 10.9382C20.0769 12.2896 19.8724 13.6526 19.35 14.9059C18.9402 15.9055 18.335 16.8132 17.57 17.5759C16.6112 18.5359 15.4304 19.2446 14.1322 19.6393C12.8341 20.0339 11.4586 20.1022 10.1277 19.8383C8.79681 19.5743 7.55156 18.9861 6.50228 18.1259C5.45301 17.2657 4.63209 16.16 4.11226 14.9067C3.59242 13.6534 3.38973 12.2912 3.52212 10.9409C3.65452 9.59054 4.11792 8.29369 4.87128 7.16523C5.62463 6.03677 6.64468 5.11153 7.84105 4.47149ZM10.2 14.2759C10.3429 14.4131 10.532 14.4916 10.73 14.4959C10.9284 14.4936 11.1183 14.4148 11.26 14.2759L15.26 10.2759C15.3925 10.1337 15.4646 9.94568 15.4612 9.75138C15.4578 9.55708 15.379 9.3717 15.2416 9.23428C15.1042 9.09687 14.9188 9.01816 14.7245 9.01473C14.5302 9.0113 14.3422 9.08343 14.2 9.21591L10.73 12.6859L9.26001 11.2159C9.19106 11.1451 9.10865 11.0889 9.01762 11.0505C8.92659 11.0121 8.8288 10.9923 8.73001 10.9923C8.63121 10.9923 8.53342 11.0121 8.4424 11.0505C8.35137 11.0889 8.26895 11.1451 8.20001 11.2159C8.05956 11.3565 7.98067 11.5472 7.98067 11.7459C7.98067 11.9447 8.05956 12.1353 8.20001 12.2759L10.2 14.2759Z" fill="#3B3B3B"/>
</svg>
