<svg width="24" height="25" viewBox="0 0 24 25" fill="none" xmlns="http://www.w3.org/2000/svg">
<path fill-rule="evenodd" clip-rule="evenodd" d="M4.46967 4.90577C4.76256 4.61288 5.23744 4.61288 5.53033 4.90577L12 11.3754L18.4697 4.90577C18.7626 4.61288 19.2374 4.61288 19.5303 4.90577C19.8232 5.19867 19.8232 5.67354 19.5303 5.96643L12.5303 12.9664C12.2374 13.2593 11.7626 13.2593 11.4697 12.9664L4.46967 5.96643C4.17678 5.67354 4.17678 5.19867 4.46967 4.90577ZM4.46967 12.9058C4.76256 12.6129 5.23744 12.6129 5.53033 12.9058L12 19.3754L18.4697 12.9058C18.7626 12.6129 19.2374 12.6129 19.5303 12.9058C19.8232 13.1987 19.8232 13.6735 19.5303 13.9664L12.5303 20.9664C12.2374 21.2593 11.7626 21.2593 11.4697 20.9664L4.46967 13.9664C4.17678 13.6735 4.17678 13.1987 4.46967 12.9058Z" fill="#3B3B3B"/>
</svg>
