<svg width="25" height="25" viewBox="0 0 25 25" fill="none" xmlns="http://www.w3.org/2000/svg">
<path fill-rule="evenodd" clip-rule="evenodd" d="M11.7968 3.90575C12.0897 3.61286 12.5646 3.61286 12.8575 3.90575L19.8575 10.9058C20.1504 11.1986 20.1504 11.6735 19.8575 11.9664C19.5646 12.2593 19.0897 12.2593 18.7968 11.9664L12.3271 5.49674L5.85748 11.9664C5.56459 12.2593 5.08971 12.2593 4.79682 11.9664C4.50393 11.6735 4.50393 11.1986 4.79682 10.9058L11.7968 3.90575ZM12.3271 13.4967L5.85748 19.9664C5.56459 20.2593 5.08971 20.2593 4.79682 19.9664C4.50393 19.6735 4.50393 19.1986 4.79682 18.9058L11.7968 11.9058C12.0897 11.6129 12.5646 11.6129 12.8575 11.9058L19.8575 18.9058C20.1504 19.1986 20.1504 19.6735 19.8575 19.9664C19.5646 20.2593 19.0897 20.2593 18.7968 19.9664L12.3271 13.4967Z" fill="#3B3B3B"/>
</svg>
