<svg width="24" height="24" viewBox="0 0 24 24" fill="none" xmlns="http://www.w3.org/2000/svg">
<path d="M19.0005 15.7495L5 15.7495C9.5141 15.751 14.3541 15.751 19.0005 15.7495Z" fill="#3B3B3B"/>
<path fill-rule="evenodd" clip-rule="evenodd" d="M19.0005 15.7495C19.1923 15.7494 19.3842 15.6762 19.5306 15.5298C19.8235 15.2369 19.8235 14.7621 19.5306 14.4692L12.5306 7.46917C12.2377 7.17628 11.7628 7.17628 11.4699 7.46917L4.46991 14.4692C4.17702 14.7621 4.17702 15.2369 4.46991 15.5298C4.6163 15.6762 4.80814 15.7494 5 15.7495L19.0005 15.7495Z" fill="#3B3B3B"/>
<path d="M19.0005 15.7495L5 15.7495C9.5141 15.751 14.3541 15.751 19.0005 15.7495Z" fill="#3B3B3B"/>
</svg>
