<svg width="25" height="25" viewBox="0 0 25 25" fill="none" xmlns="http://www.w3.org/2000/svg">
<path fill-rule="evenodd" clip-rule="evenodd" d="M4.68744 4.90577C4.98034 4.61288 5.45521 4.61288 5.7481 4.90577L12.7481 11.9058C13.041 12.1987 13.041 12.6735 12.7481 12.9664L5.7481 19.9664C5.45521 20.2593 4.98034 20.2593 4.68744 19.9664C4.39455 19.6735 4.39455 19.1987 4.68744 18.9058L11.1571 12.4361L4.68744 5.96643C4.39455 5.67354 4.39455 5.19867 4.68744 4.90577ZM12.6874 4.90577C12.9803 4.61288 13.4552 4.61288 13.7481 4.90577L20.7481 11.9058C21.041 12.1987 21.041 12.6735 20.7481 12.9664L13.7481 19.9664C13.4552 20.2593 12.9803 20.2593 12.6874 19.9664C12.3945 19.6735 12.3945 19.1987 12.6874 18.9058L19.1571 12.4361L12.6874 5.96643C12.3945 5.67354 12.3945 5.19867 12.6874 4.90577Z" fill="#3B3B3B"/>
</svg>
