<svg width="25" height="25" viewBox="0 0 25 25" fill="none" xmlns="http://www.w3.org/2000/svg">
<path fill-rule="evenodd" clip-rule="evenodd" d="M11.6393 4.90577C11.9322 5.19867 11.9322 5.67354 11.6393 5.96643L5.16967 12.4361L11.6393 18.9058C11.9322 19.1987 11.9322 19.6735 11.6393 19.9664C11.3464 20.2593 10.8716 20.2593 10.5787 19.9664L3.57868 12.9664C3.28579 12.6735 3.28579 12.1987 3.57868 11.9058L10.5787 4.90577C10.8716 4.61288 11.3464 4.61288 11.6393 4.90577ZM19.6393 4.90577C19.9322 5.19867 19.9322 5.67354 19.6393 5.96643L13.1697 12.4361L19.6393 18.9058C19.9322 19.1987 19.9322 19.6735 19.6393 19.9664C19.3464 20.2593 18.8716 20.2593 18.5787 19.9664L11.5787 12.9664C11.2858 12.6735 11.2858 12.1987 11.5787 11.9058L18.5787 4.90577C18.8716 4.61288 19.3464 4.61288 19.6393 4.90577Z" fill="#3B3B3B"/>
</svg>
