<svg width="25" height="25" viewBox="0 0 25 25" fill="none" xmlns="http://www.w3.org/2000/svg">
<path fill-rule="evenodd" clip-rule="evenodd" d="M9.87195 2.68605C10.2862 2.68605 10.6219 3.02184 10.6219 3.43605V4.68605H15.1219V3.43605C15.1219 3.02184 15.4577 2.68605 15.8719 2.68605C16.2862 2.68605 16.6219 3.02184 16.6219 3.43605V4.68605H17.8719C18.6013 4.68605 19.3008 4.97578 19.8165 5.49151C20.3322 6.00723 20.6219 6.7067 20.6219 7.43605V8.68605H21.8719C22.2862 8.68605 22.6219 9.02184 22.6219 9.43605C22.6219 9.85026 22.2862 10.186 21.8719 10.186H20.6219V14.686H21.8719C22.2862 14.686 22.6219 15.0218 22.6219 15.436C22.6219 15.8503 22.2862 16.186 21.8719 16.186H20.6219V17.436C20.6219 18.1654 20.3322 18.8649 19.8165 19.3806C19.3008 19.8963 18.6013 20.186 17.8719 20.186H16.6219V21.436C16.6219 21.8503 16.2862 22.186 15.8719 22.186C15.4577 22.186 15.1219 21.8503 15.1219 21.436V20.186H10.6219V21.436C10.6219 21.8503 10.2862 22.186 9.87195 22.186C9.45773 22.186 9.12195 21.8503 9.12195 21.436V20.186H7.87195C7.1426 20.186 6.44313 19.8963 5.9274 19.3806C5.41168 18.8649 5.12195 18.1654 5.12195 17.436V16.186H3.87195C3.45773 16.186 3.12195 15.8503 3.12195 15.436C3.12195 15.0218 3.45773 14.686 3.87195 14.686H5.12195V10.186H3.87195C3.45773 10.186 3.12195 9.85026 3.12195 9.43605C3.12195 9.02184 3.45773 8.68605 3.87195 8.68605H5.12195V7.43605C5.12195 6.70671 5.41168 6.00723 5.9274 5.49151C6.44313 4.97578 7.1426 4.68605 7.87195 4.68605H9.12195V3.43605C9.12195 3.02184 9.45773 2.68605 9.87195 2.68605ZM7.87195 6.18605C7.54043 6.18605 7.22248 6.31775 6.98806 6.55217C6.75364 6.78659 6.62195 7.10453 6.62195 7.43605V17.436C6.62195 17.7676 6.75364 18.0855 6.98806 18.3199C7.22249 18.5544 7.54043 18.686 7.87195 18.686H17.8719C18.2035 18.686 18.5214 18.5544 18.7558 18.3199C18.9903 18.0855 19.1219 17.7676 19.1219 17.436V7.43605C19.1219 7.10453 18.9903 6.78659 18.7558 6.55217C18.5214 6.31775 18.2035 6.18605 17.8719 6.18605H7.87195ZM9.12195 9.43605C9.12195 9.02184 9.45773 8.68605 9.87195 8.68605H15.8719C16.2862 8.68605 16.6219 9.02184 16.6219 9.43605V15.436C16.6219 15.8503 16.2862 16.186 15.8719 16.186H9.87195C9.45773 16.186 9.12195 15.8503 9.12195 15.436V9.43605ZM10.6219 10.186V14.686H15.1219V10.186H10.6219Z" fill="#3B3B3B"/>
</svg>
