<svg width="16" height="16" viewBox="0 0 16 16" fill="none" xmlns="http://www.w3.org/2000/svg">
<mask id="mask0_4036_5866" style="mask-type:alpha" maskUnits="userSpaceOnUse" x="0" y="0" width="16" height="16">
<path d="M15.5 8C15.5 12.1421 12.1421 15.5 8 15.5C3.85786 15.5 0.5 12.1421 0.5 8C0.5 3.85786 3.85786 0.5 8 0.5C12.1421 0.5 15.5 3.85786 15.5 8Z" fill="#D9D9D9" stroke="black"/>
</mask>
<g mask="url(#mask0_4036_5866)">
<path d="M1.27283 0V9.81818H4.85465L8.0001 4.36364H16.0001V0H1.27283Z" fill="#DB4437"/>
<path d="M1.27283 0V9.81818H4.85465L8.0001 4.36364H16.0001V0H1.27283Z" fill="url(#paint0_linear_4036_5866)"/>
<path d="M0 16H7.61818L11.1636 12.4545V9.81818H4.83636L0 1.5V16Z" fill="#0F9D58"/>
<path d="M0 16H7.61818L11.1636 12.4545V9.81818H4.83636L0 1.5V16Z" fill="url(#paint1_linear_4036_5866)"/>
<path d="M7.99999 4.36377L11.1454 9.81831L7.63635 16.0001H16V4.36377H7.99999Z" fill="#FFCD40"/>
<path d="M7.99999 4.36377L11.1454 9.81831L7.63635 16.0001H16V4.36377H7.99999Z" fill="url(#paint2_linear_4036_5866)"/>
<path d="M4.93646 9.79103L1.27283 3.67285L4.81828 9.83649L4.93646 9.79103Z" fill="#3E2723" fill-opacity="0.1"/>
<path d="M11.0725 9.93651L10.9998 9.90015L7.60889 15.9911L11.0907 9.90015L11.0725 9.93651Z" fill="#263238" fill-opacity="0.1"/>
<path d="M8 4.36377V6.27286L15.1273 4.36377H8Z" fill="url(#paint3_radial_4036_5866)"/>
<path d="M1.27283 3.68188L6.47283 8.88188L4.85465 9.81825L1.27283 3.68188Z" fill="url(#paint4_radial_4036_5866)"/>
<path d="M7.61816 16L9.52725 8.88184L11.1454 9.8182L7.61816 16Z" fill="url(#paint5_radial_4036_5866)"/>
<path d="M8.00001 11.6365C10.0083 11.6365 11.6364 10.0084 11.6364 8.00013C11.6364 5.99182 10.0083 4.36377 8.00001 4.36377C5.9917 4.36377 4.36365 5.99182 4.36365 8.00013C4.36365 10.0084 5.9917 11.6365 8.00001 11.6365Z" fill="#F1F1F1"/>
<path d="M7.99991 10.909C9.60656 10.909 10.909 9.60656 10.909 7.99991C10.909 6.39326 9.60656 5.09082 7.99991 5.09082C6.39326 5.09082 5.09082 6.39326 5.09082 7.99991C5.09082 9.60656 6.39326 10.909 7.99991 10.909Z" fill="#4285F4"/>
<path d="M8 16C12.4183 16 16 12.4183 16 8C16 3.58172 12.4183 0 8 0C3.58172 0 0 3.58172 0 8C0 12.4183 3.58172 16 8 16Z" fill="url(#paint6_radial_4036_5866)"/>
<path d="M11.1455 9.81809C10.8258 10.3691 10.367 10.8265 9.81496 11.1445C9.26293 11.4625 8.63705 11.6298 8 11.6298C7.36295 11.6298 6.73707 11.4625 6.18504 11.1445C5.63301 10.8265 5.1742 10.3691 4.85455 9.81809L0 1.59082L4.85455 9.909C5.1742 10.4601 5.63301 10.9175 6.18504 11.2354C6.73707 11.5534 7.36295 11.7207 8 11.7207C8.63705 11.7207 9.26293 11.5534 9.81496 11.2354C10.367 10.9175 10.8258 10.4601 11.1455 9.909V9.81809Z" fill="white" fill-opacity="0.1"/>
<path d="M8.09091 4.36377H8.04545C9.00988 4.36377 9.9348 4.74689 10.6168 5.42884C11.2987 6.11079 11.6818 7.03571 11.6818 8.00013C11.6818 8.96456 11.2987 9.88948 10.6168 10.5714C9.9348 11.2534 9.00988 11.6365 8.04545 11.6365H8.09091C10.0909 11.6365 11.7273 10.0001 11.7273 8.00013C11.7273 6.00013 10.0909 4.36377 8.09091 4.36377ZM8 15.9092C10.1139 15.9093 12.1419 15.0726 13.6408 13.5822C15.1398 12.0917 15.988 10.0685 16 7.95468V8.00013C16 10.1219 15.1571 12.1567 13.6569 13.657C12.1566 15.1573 10.1217 16.0001 8 16.0001C5.87827 16.0001 3.84344 15.1573 2.34315 13.657C0.842855 12.1567 0 10.1219 0 8.00013V7.95468C0.0120107 10.0685 0.860165 12.0917 2.35916 13.5822C3.85815 15.0726 5.88612 15.9093 8 15.9092Z" fill="#3E2723" fill-opacity="0.1"/>
<path d="M11.1818 9.93636C11.4357 9.50073 11.5945 9.0163 11.6478 8.5149C11.701 8.01351 11.6476 7.50653 11.4909 7.02727C11.6323 7.49069 11.6745 7.97865 11.615 8.45947C11.5555 8.94029 11.3955 9.40322 11.1455 9.81818L7.72727 16L11.2 9.95455L11.1818 9.93636ZM8 0.0909091C10.1139 0.090875 12.1419 0.927487 13.6408 2.41796C15.1398 3.90844 15.988 5.93161 16 8.04545V8C16 5.87827 15.1571 3.84344 13.6569 2.34315C12.1566 0.842855 10.1217 0 8 0C5.87827 0 3.84344 0.842855 2.34315 2.34315C0.842855 3.84344 0 5.87827 0 8V8.04545C0.0120107 5.93161 0.860165 3.90844 2.35916 2.41796C3.85815 0.927487 5.88612 0.090875 8 0.0909091Z" fill="white" fill-opacity="0.2"/>
<path d="M8.00001 4.27271C6.00001 4.27271 4.36365 5.90907 4.36365 7.90907V7.99998C4.36365 5.99998 6.00001 4.36361 8.00001 4.36361H16V4.27271H8.00001Z" fill="#3E2723" fill-opacity="0.2"/>
</g>
<defs>
<linearGradient id="paint0_linear_4036_5866" x1="1.93646" y1="6.18182" x2="6.70919" y2="3.4" gradientUnits="userSpaceOnUse">
<stop stop-color="#A52714" stop-opacity="0.6"/>
<stop offset="0.7" stop-color="#A52714" stop-opacity="0"/>
</linearGradient>
<linearGradient id="paint1_linear_4036_5866" x1="9.35455" y1="14.3182" x2="4.04545" y2="11.2091" gradientUnits="userSpaceOnUse">
<stop stop-color="#055524" stop-opacity="0.4"/>
<stop offset="0.3" stop-color="#055524" stop-opacity="0"/>
</linearGradient>
<linearGradient id="paint2_linear_4036_5866" x1="10.4454" y1="3.89104" x2="11.7818" y2="9.7365" gradientUnits="userSpaceOnUse">
<stop stop-color="#EA6100" stop-opacity="0.3"/>
<stop offset="0.7" stop-color="#EA6100" stop-opacity="0"/>
</linearGradient>
<radialGradient id="paint3_radial_4036_5866" cx="0" cy="0" r="1" gradientUnits="userSpaceOnUse" gradientTransform="translate(7.65455 4.36377) scale(7.64545 7.64545)">
<stop stop-color="#3E2723" stop-opacity="0.2"/>
<stop offset="1" stop-color="#3E2723" stop-opacity="0"/>
</radialGradient>
<radialGradient id="paint4_radial_4036_5866" cx="0" cy="0" r="1" gradientUnits="userSpaceOnUse" gradientTransform="translate(1.26374 3.68188) scale(7.09091)">
<stop stop-color="#3E2723" stop-opacity="0.2"/>
<stop offset="1" stop-color="#3E2723" stop-opacity="0"/>
</radialGradient>
<radialGradient id="paint5_radial_4036_5866" cx="0" cy="0" r="1" gradientUnits="userSpaceOnUse" gradientTransform="translate(7.9818 8.00911) scale(7.99091)">
<stop stop-color="#263238" stop-opacity="0.2"/>
<stop offset="1" stop-color="#263238" stop-opacity="0"/>
</radialGradient>
<radialGradient id="paint6_radial_4036_5866" cx="0" cy="0" r="1" gradientUnits="userSpaceOnUse" gradientTransform="translate(2.39091 2.18182) scale(16.0727)">
<stop stop-color="white" stop-opacity="0.1"/>
<stop offset="1" stop-color="white" stop-opacity="0"/>
</radialGradient>
</defs>
</svg>
