<svg width="24" height="25" viewBox="0 0 24 25" fill="none" xmlns="http://www.w3.org/2000/svg">
<path fill-rule="evenodd" clip-rule="evenodd" d="M10 4.29525C9.66848 4.29525 9.35054 4.42695 9.11612 4.66137C8.8817 4.89579 8.75 5.21373 8.75 5.54525C8.75 5.87677 8.8817 6.19472 9.11612 6.42914C9.35054 6.66356 9.66848 6.79525 10 6.79525H12C12.3315 6.79525 12.6495 6.66356 12.8839 6.42914C13.1183 6.19472 13.25 5.87677 13.25 5.54525C13.25 5.21373 13.1183 4.89579 12.8839 4.66137C12.6495 4.42695 12.3315 4.29525 12 4.29525H10ZM8.05546 3.60071C8.57118 3.08498 9.27065 2.79525 10 2.79525H12C12.7293 2.79525 13.4288 3.08498 13.9445 3.60071C14.2793 3.93549 14.5189 4.3477 14.6458 4.79525H16C16.7293 4.79525 17.4288 5.08498 17.9445 5.60071C18.4603 6.11643 18.75 6.81591 18.75 7.54525V10.5453C18.75 10.9595 18.4142 11.2953 18 11.2953C17.5858 11.2953 17.25 10.9595 17.25 10.5453V7.54525C17.25 7.21373 17.1183 6.89579 16.8839 6.66137C16.6495 6.42695 16.3315 6.29525 16 6.29525H14.6458C14.5189 6.7428 14.2793 7.15502 13.9445 7.4898C13.4288 8.00552 12.7293 8.29525 12 8.29525H10C9.27065 8.29525 8.57118 8.00552 8.05546 7.4898C7.72067 7.15502 7.48112 6.7428 7.35424 6.29525H6C5.66848 6.29525 5.35054 6.42695 5.11612 6.66137C4.8817 6.89579 4.75 7.21373 4.75 7.54525V19.5453C4.75 19.8768 4.8817 20.1947 5.11612 20.4291C5.35054 20.6636 5.66848 20.7953 6 20.7953H16C16.3315 20.7953 16.6495 20.6636 16.8839 20.4291C17.1183 20.1947 17.25 19.8768 17.25 19.5453V18.5453C17.25 18.131 17.5858 17.7953 18 17.7953C18.4142 17.7953 18.75 18.131 18.75 18.5453V19.5453C18.75 20.2746 18.4603 20.9741 17.9445 21.4898C17.4288 22.0055 16.7293 22.2953 16 22.2953H6C5.27065 22.2953 4.57118 22.0055 4.05546 21.4898C3.53973 20.9741 3.25 20.2746 3.25 19.5453V7.54525C3.25 6.81591 3.53973 6.11643 4.05546 5.60071C4.57118 5.08498 5.27065 4.79525 6 4.79525H7.35424C7.48112 4.3477 7.72067 3.93549 8.05546 3.60071ZM13.5303 11.0149C13.8232 11.3078 13.8232 11.7827 13.5303 12.0756L11.8107 13.7953H20C20.4142 13.7953 20.75 14.131 20.75 14.5453C20.75 14.9595 20.4142 15.2953 20 15.2953H11.8107L13.5303 17.0149C13.8232 17.3078 13.8232 17.7827 13.5303 18.0756C13.2374 18.3685 12.7626 18.3685 12.4697 18.0756L9.46967 15.0756C9.32902 14.9349 9.25 14.7442 9.25 14.5453C9.25 14.3463 9.32902 14.1556 9.46967 14.0149L12.4697 11.0149C12.7626 10.722 13.2374 10.722 13.5303 11.0149Z" fill="#3B3B3B"/>
</svg>
