<svg width="25" height="25" viewBox="0 0 25 25" fill="none" xmlns="http://www.w3.org/2000/svg">
<path fill-rule="evenodd" clip-rule="evenodd" d="M11.109 4.29525C10.7775 4.29525 10.4595 4.42695 10.2251 4.66137C9.9907 4.89579 9.85901 5.21373 9.85901 5.54525C9.85901 5.87677 9.9907 6.19472 10.2251 6.42914C10.4595 6.66356 10.7775 6.79525 11.109 6.79525H13.109C13.4405 6.79525 13.7585 6.66356 13.9929 6.42914C14.2273 6.19472 14.359 5.87677 14.359 5.54525C14.359 5.21373 14.2273 4.89579 13.9929 4.66137C13.7585 4.42695 13.4405 4.29525 13.109 4.29525H11.109ZM9.16446 3.60071C9.68019 3.08499 10.3797 2.79525 11.109 2.79525H13.109C13.8384 2.79525 14.5378 3.08498 15.0536 3.60071C15.3883 3.93549 15.6279 4.3477 15.7548 4.79525H17.109C17.8384 4.79525 18.5378 5.08498 19.0536 5.60071C19.5693 6.11643 19.859 6.81591 19.859 7.54525V19.5453C19.859 20.2746 19.5693 20.9741 19.0536 21.4898C18.5378 22.0055 17.8384 22.2953 17.109 22.2953H7.10901C6.37966 22.2953 5.68019 22.0055 5.16447 21.4898C4.64874 20.9741 4.35901 20.2746 4.35901 19.5453V7.54525C4.35901 6.81591 4.64874 6.11644 5.16447 5.60071C5.68019 5.08498 6.37966 4.79525 7.10901 4.79525H8.46325C8.59013 4.3477 8.82968 3.93549 9.16446 3.60071ZM8.46325 6.29525H7.10901C6.77749 6.29525 6.45955 6.42695 6.22513 6.66137C5.9907 6.89579 5.85901 7.21373 5.85901 7.54525V19.5453C5.85901 19.8768 5.9907 20.1947 6.22513 20.4291C6.45955 20.6636 6.77749 20.7953 7.10901 20.7953H17.109C17.4405 20.7953 17.7585 20.6636 17.9929 20.4291C18.2273 20.1947 18.359 19.8768 18.359 19.5453V7.54525C18.359 7.21373 18.2273 6.89579 17.9929 6.66137C17.7585 6.42695 17.4405 6.29525 17.109 6.29525H15.7548C15.6279 6.7428 15.3883 7.15502 15.0536 7.4898C14.5378 8.00552 13.8384 8.29525 13.109 8.29525H11.109C10.3797 8.29525 9.68019 8.00552 9.16446 7.4898C8.82968 7.15502 8.59013 6.7428 8.46325 6.29525ZM8.35901 12.5453C8.35901 12.131 8.6948 11.7953 9.10901 11.7953H9.11901C9.53322 11.7953 9.86901 12.131 9.86901 12.5453C9.86901 12.9595 9.53322 13.2953 9.11901 13.2953H9.10901C8.6948 13.2953 8.35901 12.9595 8.35901 12.5453ZM11.359 12.5453C11.359 12.131 11.6948 11.7953 12.109 11.7953H15.109C15.5232 11.7953 15.859 12.131 15.859 12.5453C15.859 12.9595 15.5232 13.2953 15.109 13.2953H12.109C11.6948 13.2953 11.359 12.9595 11.359 12.5453ZM8.35901 16.5453C8.35901 16.131 8.6948 15.7953 9.10901 15.7953H9.11901C9.53322 15.7953 9.86901 16.131 9.86901 16.5453C9.86901 16.9595 9.53322 17.2953 9.11901 17.2953H9.10901C8.6948 17.2953 8.35901 16.9595 8.35901 16.5453ZM11.359 16.5453C11.359 16.131 11.6948 15.7953 12.109 15.7953H15.109C15.5232 15.7953 15.859 16.131 15.859 16.5453C15.859 16.9595 15.5232 17.2953 15.109 17.2953H12.109C11.6948 17.2953 11.359 16.9595 11.359 16.5453Z" fill="#3B3B3B"/>
</svg>
