<svg width="24" height="24" viewBox="0 0 24 24" fill="none" xmlns="http://www.w3.org/2000/svg">
<path d="M19.5193 16.9459C20.4853 15.4772 21 13.7578 21 12C21.0005 10.2191 20.4726 8.47807 19.4832 6.99733C18.4937 5.51659 17.0872 4.36267 15.4417 3.68164C13.7962 3.0006 11.9856 2.82307 10.2391 3.1715C8.49267 3.51993 6.88883 4.37867 5.63063 5.63902C5.30063 5.97183 4.98938 6.3009 4.6875 6.62808L3.53063 5.46933C3.42573 5.36432 3.29204 5.2928 3.14648 5.26381C3.00092 5.23482 2.85003 5.24968 2.71291 5.30649C2.57579 5.36331 2.45861 5.45953 2.37621 5.58297C2.29381 5.70642 2.24988 5.85154 2.25 5.99996V9.74996C2.25 9.94887 2.32902 10.1396 2.46967 10.2803C2.61032 10.4209 2.80109 10.5 3 10.5H6.75C6.89842 10.5001 7.04354 10.4562 7.16699 10.3737C7.29043 10.2913 7.38665 10.1742 7.44347 10.0371C7.50028 9.89993 7.51514 9.74904 7.48615 9.60348C7.45716 9.45791 7.38563 9.32422 7.28063 9.21933L5.75156 7.68746C6.05438 7.36027 6.36563 7.03121 6.69656 6.69652C7.73875 5.65399 9.06504 4.94169 10.5097 4.64863C11.9544 4.35557 13.4535 4.49474 14.8195 5.04877C16.1855 5.60279 17.358 6.54708 18.1905 7.76367C19.0229 8.98025 19.4784 10.4152 19.5 11.8891C19.5215 13.3631 19.1083 14.8107 18.3118 16.0512C17.5153 17.2916 16.371 18.2698 15.0218 18.8636C13.6725 19.4574 12.1782 19.6404 10.7256 19.3897C9.2729 19.1391 7.92632 18.4659 6.85406 17.4543C6.78241 17.3866 6.69812 17.3337 6.60601 17.2985C6.5139 17.2634 6.41577 17.2468 6.31722 17.2495C6.1182 17.2552 5.92957 17.3396 5.79281 17.4843C5.7251 17.556 5.67216 17.6403 5.63703 17.7324C5.60189 17.8245 5.58524 17.9226 5.58802 18.0212C5.59081 18.1197 5.61298 18.2167 5.65326 18.3067C5.69355 18.3967 5.75116 18.4779 5.82281 18.5456C7.10126 19.7521 8.70505 20.5578 10.4362 20.8633C12.1673 21.1687 13.95 20.9605 15.5642 20.2644C17.1783 19.5682 18.5533 18.4146 19.5193 16.9459Z" fill="#363B4C"/>
<path d="M12.75 8.00031C12.75 7.58609 12.4142 7.25031 12 7.25031C11.5858 7.25031 11.25 7.58609 11.25 8.00031V12.0003C11.25 12.1992 11.329 12.39 11.4697 12.5306L14.4697 15.5306C14.7626 15.8235 15.2374 15.8235 15.5303 15.5306C15.8232 15.2377 15.8232 14.7629 15.5303 14.47L12.75 11.6896V8.00031Z" fill="#363B4C"/>
</svg>
