<svg width="25" height="25" viewBox="0 0 25 25" fill="none" xmlns="http://www.w3.org/2000/svg">
<path fill-rule="evenodd" clip-rule="evenodd" d="M12.3271 4.29525C10.1391 4.29525 8.04069 5.16445 6.49352 6.71162C4.94634 8.2588 4.07715 10.3572 4.07715 12.5453C4.07715 13.6287 4.29054 14.7015 4.70514 15.7024C5.11974 16.7033 5.72743 17.6128 6.49352 18.3789C7.2596 19.145 8.16907 19.7527 9.17001 20.1673C10.1709 20.5819 11.2437 20.7953 12.3271 20.7953C13.4106 20.7953 14.4833 20.5819 15.4843 20.1673C16.4852 19.7527 17.3947 19.145 18.1608 18.3789C18.9269 17.6128 19.5346 16.7033 19.9492 15.7024C20.3638 14.7015 20.5771 13.6287 20.5771 12.5453C20.5771 10.3572 19.708 8.2588 18.1608 6.71162C16.6136 5.16445 14.5152 4.29525 12.3271 4.29525ZM5.43286 5.65096C7.26134 3.82248 9.74129 2.79525 12.3271 2.79525C14.913 2.79525 17.393 3.82248 19.2214 5.65096C21.0499 7.47944 22.0771 9.95939 22.0771 12.5453C22.0771 13.8256 21.825 15.0935 21.335 16.2764C20.845 17.4593 20.1268 18.5342 19.2214 19.4395C18.3161 20.3449 17.2412 21.0631 16.0583 21.5531C14.8754 22.0431 13.6075 22.2953 12.3271 22.2953C11.0468 22.2953 9.77891 22.0431 8.59598 21.5531C7.41306 21.0631 6.33823 20.3449 5.43286 19.4395C4.52749 18.5342 3.80931 17.4593 3.31932 16.2764C2.82934 15.0935 2.57715 13.8256 2.57715 12.5453C2.57715 9.95939 3.60438 7.47944 5.43286 5.65096ZM12.3271 7.79525C12.7414 7.79525 13.0771 8.13104 13.0771 8.54525V12.2346L15.8575 15.0149C16.1504 15.3078 16.1504 15.7827 15.8575 16.0756C15.5646 16.3685 15.0897 16.3685 14.7968 16.0756L11.7968 13.0756C11.6562 12.9349 11.5771 12.7442 11.5771 12.5453V8.54525C11.5771 8.13104 11.9129 7.79525 12.3271 7.79525Z" fill="#3B3B3B"/>
</svg>
