<svg width="25" height="25" viewBox="0 0 25 25" fill="none" xmlns="http://www.w3.org/2000/svg">
<path fill-rule="evenodd" clip-rule="evenodd" d="M13.864 4.02357C12.9173 3.41119 11.7662 3.19995 10.6637 3.43633C9.56132 3.67271 8.59796 4.33734 7.98557 5.28401C7.37319 6.23068 7.16195 7.38184 7.39833 8.48426C7.48459 8.88656 7.23063 9.28325 6.82916 9.37331C6.04827 9.54849 5.35946 10.0056 4.89471 10.6572C4.42995 11.3087 4.22194 12.1088 4.3105 12.9042C4.39907 13.6996 4.77799 14.4343 5.37468 14.9676C5.97137 15.501 6.74386 15.7954 7.54416 15.7945C7.95838 15.794 8.29454 16.1294 8.295 16.5437C8.29546 16.9579 7.96005 17.294 7.54583 17.2945C6.37616 17.2958 5.24714 16.8655 4.37505 16.086C3.50297 15.3065 2.94916 14.2327 2.81971 13.0702C2.69027 11.9077 2.9943 10.7383 3.67356 9.78607C4.21565 9.02612 4.96631 8.44712 5.82749 8.11414C5.71148 6.83952 6.02379 5.55499 6.72612 4.46929C7.55457 3.18859 8.85786 2.28945 10.3493 1.96967C11.8407 1.64988 13.398 1.93566 14.6787 2.76412C15.7924 3.48455 16.6176 4.56404 17.0241 5.81406C18.2763 5.91762 19.4651 6.42925 20.404 7.27728C21.4623 8.23303 22.1276 9.5479 22.2709 10.9666C22.4142 12.3854 22.0253 13.8067 21.1795 14.9548C20.3338 16.1029 19.0917 16.8957 17.6942 17.1795C17.2883 17.2619 16.8924 16.9997 16.81 16.5937C16.7276 16.1878 16.9898 15.7919 17.3958 15.7095C18.4286 15.4998 19.3467 14.9137 19.9718 14.0652C20.5969 13.2166 20.8844 12.166 20.7785 11.1174C20.6726 10.0688 20.1808 9.09689 19.3986 8.39047C18.6165 7.68404 17.5997 7.29344 16.5458 7.2945L16.445 7.2945C16.0914 7.2945 15.7858 7.0475 15.7117 6.70174C15.4753 5.59932 14.8107 4.63596 13.864 4.02357ZM16.5447 5.7945H16.445V6.5445L16.545 6.52306L16.545 6.5445M12.0147 10.0142C12.3076 9.72127 12.7824 9.72127 13.0753 10.0142L16.0753 13.0142C16.3682 13.3071 16.3682 13.7819 16.0753 14.0748C15.7824 14.3677 15.3076 14.3677 15.0147 14.0748L13.295 12.3552V22.5445C13.295 22.9587 12.9592 23.2945 12.545 23.2945C12.1308 23.2945 11.795 22.9587 11.795 22.5445V12.3552L10.0753 14.0748C9.78243 14.3677 9.30756 14.3677 9.01467 14.0748C8.72178 13.7819 8.72178 13.3071 9.01467 13.0142L12.0147 10.0142Z" fill="#3B3B3B"/>
</svg>
