<svg width="25" height="25" viewBox="0 0 25 25" fill="none" xmlns="http://www.w3.org/2000/svg">
<path fill-rule="evenodd" clip-rule="evenodd" d="M13.7549 4.02357C12.8082 3.41119 11.657 3.19995 10.5546 3.43633C9.45219 3.67271 8.48883 4.33734 7.87644 5.28401C7.26406 6.23068 7.05282 7.38184 7.2892 8.48426C7.37546 8.88656 7.1215 9.28325 6.72003 9.37331C5.93914 9.54849 5.25033 10.0056 4.78558 10.6572C4.32082 11.3087 4.1128 12.1088 4.20137 12.9042C4.28994 13.6996 4.66886 14.4343 5.26555 14.9676C5.86224 15.501 6.63473 15.7954 7.43503 15.7945C7.84924 15.794 8.18541 16.1294 8.18587 16.5437C8.18633 16.9579 7.85092 17.294 7.4367 17.2945C6.26703 17.2958 5.138 16.8655 4.26592 16.086C3.39384 15.3065 2.84003 14.2327 2.71058 13.0702C2.58114 11.9077 2.88517 10.7383 3.56442 9.78607C4.10652 9.02612 4.85717 8.44712 5.71836 8.11414C5.60235 6.83952 5.91466 5.55499 6.61698 4.46929C7.44544 3.18859 8.74873 2.28945 10.2401 1.96967C11.7315 1.64988 13.2889 1.93566 14.5696 2.76412C15.6833 3.48455 16.5084 4.56404 16.915 5.81406C18.1671 5.91762 19.3559 6.42925 20.2949 7.27728C21.3531 8.23303 22.0185 9.5479 22.1618 10.9666C22.3051 12.3854 21.9161 13.8067 21.0704 14.9548C20.2247 16.1029 18.9825 16.8957 17.5851 17.1795C17.1792 17.2619 16.7833 16.9997 16.7009 16.5937C16.6184 16.1878 16.8807 15.7919 17.2866 15.7095C18.3195 15.4998 19.2376 14.9137 19.8627 14.0652C20.4878 13.2166 20.7753 12.166 20.6694 11.1174C20.5635 10.0688 20.0717 9.09689 19.2895 8.39047C18.5073 7.68404 17.4906 7.29344 16.4366 7.2945L16.3359 7.2945C15.9822 7.2945 15.6767 7.0475 15.6025 6.70174C15.3662 5.59932 14.7015 4.63596 13.7549 4.02357ZM16.4356 5.7945H16.3359V6.5445L16.4358 6.52306L16.4359 6.5445M12.4359 9.7945C12.8501 9.7945 13.1859 10.1303 13.1859 10.5445V20.7338L14.9055 19.0142C15.1984 18.7213 15.6733 18.7213 15.9662 19.0142C16.2591 19.3071 16.2591 19.7819 15.9662 20.0748L12.9662 23.0748C12.6733 23.3677 12.1984 23.3677 11.9055 23.0748L8.90554 20.0748C8.61264 19.7819 8.61264 19.3071 8.90554 19.0142C9.19843 18.7213 9.6733 18.7213 9.9662 19.0142L11.6859 20.7338V10.5445C11.6859 10.1303 12.0217 9.7945 12.4359 9.7945Z" fill="#3B3B3B"/>
</svg>
