<svg width="25" height="25" viewBox="0 0 25 25" fill="none" xmlns="http://www.w3.org/2000/svg">
<path d="M16.75 20.54H7.75001C6.49104 20.5373 5.2844 20.036 4.39417 19.1458C3.50394 18.2556 3.00265 17.0489 3.00001 15.79C2.99854 14.8359 3.28376 13.9035 3.8187 13.1136C4.35364 12.3237 5.1136 11.7127 6.00001 11.3599C5.94188 10.8336 5.95873 10.3016 6.05002 9.77994C6.23971 8.64523 6.76655 7.59389 7.56202 6.76276C8.35748 5.93163 9.38471 5.35919 10.51 5.11995C11.2582 4.96002 12.0318 4.96002 12.78 5.11995C13.5322 5.25931 14.2489 5.5479 14.8878 5.96868C15.5267 6.38946 16.0749 6.93392 16.5 7.56994C16.8175 8.03614 17.0604 8.54896 17.22 9.08995C17.7762 9.1331 18.3226 9.26125 18.84 9.46994C19.5443 9.74797 20.1867 10.1626 20.73 10.6899C21.2769 11.218 21.7121 11.8505 22.01 12.5499C22.3114 13.2482 22.471 13.9994 22.4796 14.7599C22.4882 15.5204 22.3456 16.275 22.06 16.9799C21.7708 17.6802 21.3498 18.3184 20.82 18.8599C20.2839 19.4014 19.6446 19.8298 18.94 20.1199C18.2455 20.4053 17.5008 20.5482 16.75 20.54ZM11.75 6.53994C11.4511 6.5397 11.1529 6.56986 10.86 6.62995C10.3072 6.74862 9.78367 6.9764 9.32001 7.29995C8.85561 7.62082 8.46101 8.03243 8.16001 8.50995C7.85295 8.98583 7.64859 9.52057 7.56 10.0799C7.4449 10.634 7.4449 11.2059 7.56 11.7599C7.58338 11.8562 7.58747 11.9561 7.57203 12.0539C7.55658 12.1518 7.5219 12.2456 7.47001 12.3299C7.41648 12.4146 7.34637 12.4874 7.26386 12.5442C7.18135 12.6009 7.0882 12.6403 6.99003 12.6599C6.27216 12.8298 5.63159 13.2345 5.17002 13.8099C4.71553 14.378 4.46545 15.0825 4.46003 15.8099C4.46383 16.6684 4.80503 17.4909 5.41001 18.0999C5.70699 18.412 6.06359 18.6613 6.45865 18.8331C6.85372 19.0048 7.27925 19.0956 7.71003 19.0999H16.71C17.2732 19.0997 17.8306 18.9875 18.35 18.7699C18.8661 18.5525 19.3348 18.2366 19.73 17.8399C20.1295 17.4414 20.4427 16.9648 20.65 16.4399C20.8582 15.9184 20.9635 15.3615 20.96 14.7999C20.9413 13.6692 20.4778 12.5914 19.67 11.7999C19.2676 11.4076 18.7919 11.0984 18.27 10.8899C17.7435 10.689 17.1835 10.5905 16.62 10.5999C16.4431 10.6031 16.2709 10.5435 16.1336 10.4319C15.9964 10.3203 15.903 10.1637 15.87 9.98994C15.7644 9.43511 15.5466 8.90768 15.23 8.43995C14.9201 7.96508 14.5149 7.55983 14.04 7.24994C13.5696 6.94048 13.043 6.72643 12.49 6.61995C12.2451 6.54735 11.9941 6.49714 11.74 6.46994L11.75 6.53994Z" fill="#3B3B3B"/>
</svg>
