<svg width="25" height="25" viewBox="0 0 25 25" fill="none" xmlns="http://www.w3.org/2000/svg">
<path fill-rule="evenodd" clip-rule="evenodd" d="M14.9446 3.81711C15.3464 3.91757 15.5908 4.32477 15.4903 4.72662L11.4903 20.7266C11.3898 21.1285 10.9826 21.3728 10.5808 21.2723C10.1789 21.1719 9.93463 20.7647 10.0351 20.3628L14.0351 4.36281C14.1355 3.96097 14.5428 3.71665 14.9446 3.81711ZM7.29303 8.01439C7.58592 8.30728 7.58592 8.78215 7.29303 9.07505L3.82336 12.5447L7.29303 16.0144C7.58592 16.3073 7.58592 16.7822 7.29303 17.075C7.00013 17.3679 6.52526 17.3679 6.23237 17.075L2.23237 13.075C2.09171 12.9344 2.0127 12.7436 2.0127 12.5447C2.0127 12.3458 2.09171 12.155 2.23237 12.0144L6.23237 8.01439C6.52526 7.72149 7.00013 7.72149 7.29303 8.01439ZM18.2324 8.01439C18.5253 7.72149 19.0001 7.72149 19.293 8.01439L23.293 12.0144C23.4337 12.155 23.5127 12.3458 23.5127 12.5447C23.5127 12.7436 23.4337 12.9344 23.293 13.075L19.293 17.075C19.0001 17.3679 18.5253 17.3679 18.2324 17.075C17.9395 16.7822 17.9395 16.3073 18.2324 16.0144L21.702 12.5447L18.2324 9.07505C17.9395 8.78215 17.9395 8.30728 18.2324 8.01439Z" fill="#3B3B3B"/>
</svg>
