<svg width="25" height="25" viewBox="0 0 25 25" fill="none" xmlns="http://www.w3.org/2000/svg">
<path fill-rule="evenodd" clip-rule="evenodd" d="M11.2006 21.9754C11.6374 22.3194 12.1788 22.5032 12.7347 22.4961C13.2906 22.5032 13.8321 22.3194 14.2689 21.9754C14.7056 21.6315 15.0112 21.1482 15.1347 20.6061C15.1733 20.4585 15.2451 20.3217 15.3447 20.2061C15.4455 20.0887 15.5722 19.9963 15.7147 19.9361C15.857 19.8797 16.0103 19.8566 16.1629 19.8688C16.3154 19.8809 16.4632 19.9279 16.5947 20.0061C17.0681 20.2989 17.6264 20.4233 18.1793 20.3591C18.7322 20.2948 19.2471 20.0457 19.6407 19.6521C20.0343 19.2586 20.2834 18.7436 20.3477 18.1907C20.4119 17.6378 20.2875 17.0795 19.9947 16.6061C19.9158 16.4754 19.8679 16.3283 19.8547 16.1761C19.8431 16.0227 19.8671 15.8687 19.9247 15.7261C19.9843 15.5858 20.0729 15.4597 20.1847 15.3561C20.3027 15.2565 20.4436 15.1877 20.5947 15.1561C21.1304 15.0213 21.6058 14.7115 21.9454 14.2758C22.285 13.8401 22.4694 13.3035 22.4694 12.7511C22.4694 12.1987 22.285 11.6621 21.9454 11.2264C21.6058 10.7908 21.1304 10.481 20.5947 10.3461C20.4471 10.3076 20.3103 10.2357 20.1947 10.1361C20.0747 10.0378 19.9817 9.91047 19.9247 9.76613C19.8686 9.62659 19.8447 9.4762 19.8547 9.32613C19.8644 9.1733 19.9126 9.0254 19.9947 8.89613C20.282 8.42207 20.4022 7.86542 20.3361 7.31506C20.2699 6.76469 20.0213 6.25235 19.6299 5.85981C19.2386 5.46727 18.727 5.21717 18.1768 5.14944C17.6266 5.0817 17.0696 5.20024 16.5947 5.48613C16.4632 5.56436 16.3154 5.61135 16.1629 5.62349C16.0103 5.63563 15.857 5.61258 15.7147 5.55613C15.5744 5.49654 15.4483 5.40794 15.3447 5.29613C15.2458 5.17634 15.1741 5.03642 15.1347 4.88613C15.0039 4.34829 14.6962 3.86998 14.261 3.52795C13.8257 3.18592 13.2882 3 12.7347 3C12.1812 3 11.6437 3.18592 11.2085 3.52795C10.7733 3.86998 10.4656 4.34829 10.3347 4.88613C10.296 5.03487 10.2236 5.17269 10.123 5.28889C10.0224 5.40508 9.89639 5.49653 9.75473 5.55613C9.61247 5.61258 9.45915 5.63563 9.30658 5.62349C9.15401 5.61135 9.00627 5.56436 8.87473 5.48613C8.39982 5.20024 7.8428 5.0817 7.29263 5.14944C6.74247 5.21717 6.23086 5.46727 5.83948 5.85981C5.44809 6.25235 5.19951 6.76469 5.13339 7.31506C5.06728 7.86542 5.18745 8.42207 5.47473 8.89613C5.55806 9.02482 5.6063 9.17305 5.61472 9.32613C5.62477 9.4762 5.60083 9.62659 5.54471 9.76613C5.48773 9.91047 5.39479 10.0378 5.27472 10.1361C5.15915 10.2357 5.02233 10.3076 4.87473 10.3461C4.33903 10.481 3.86366 10.7908 3.52405 11.2264C3.18443 11.6621 3 12.1987 3 12.7511C3 13.3035 3.18443 13.8401 3.52405 14.2758C3.86366 14.7115 4.33903 15.0213 4.87473 15.1561C5.02368 15.1854 5.16191 15.2545 5.27472 15.3561C5.39213 15.4569 5.48455 15.5836 5.54471 15.7261C5.60234 15.8687 5.6263 16.0227 5.61472 16.1761C5.6015 16.3283 5.55362 16.4754 5.47473 16.6061C5.18191 17.0795 5.05754 17.6378 5.1218 18.1907C5.18605 18.7436 5.43516 19.2586 5.82874 19.6521C6.22231 20.0457 6.73726 20.2948 7.29013 20.3591C7.843 20.4233 8.40138 20.2989 8.87473 20.0061C9.00549 19.9272 9.15257 19.8793 9.30472 19.8661C9.45811 19.8545 9.61211 19.8785 9.75473 19.9361C9.89729 19.9963 10.0239 20.0887 10.1247 20.2061C10.2243 20.3217 10.2961 20.4585 10.3347 20.6061C10.4582 21.1482 10.7638 21.6315 11.2006 21.9754ZM10.3347 18.5561C10.0342 18.4291 9.71097 18.3645 9.3847 18.3661L9.22473 18.3361C8.83503 18.3688 8.45834 18.4921 8.12473 18.6961C7.93722 18.789 7.72529 18.8208 7.5188 18.7869C7.3123 18.753 7.12163 18.6551 6.97366 18.5072C6.82569 18.3592 6.72787 18.1686 6.69397 17.9621C6.66007 17.7556 6.69183 17.5436 6.78473 17.3561C6.98878 17.0225 7.11205 16.6458 7.14471 16.2561C7.17236 15.8697 7.10722 15.4823 6.95471 15.1261C6.81077 14.7633 6.58086 14.4409 6.28473 14.1865C5.9886 13.9322 5.63515 13.7536 5.25473 13.6661C5.03072 13.6182 4.83188 13.4902 4.69562 13.3061C4.55935 13.1219 4.49503 12.8944 4.51471 12.6661C4.50574 12.447 4.57537 12.2318 4.71106 12.0594C4.84675 11.8871 5.03957 11.7689 5.25473 11.7261C5.62222 11.6232 5.96327 11.4425 6.25473 11.1961C6.55017 10.9428 6.78291 10.6245 6.93472 10.2661C7.07937 9.90441 7.14088 9.51482 7.11472 9.12613C7.08205 8.73642 6.95878 8.35975 6.75473 8.02613C6.63527 7.84197 6.58479 7.6215 6.61224 7.40372C6.6397 7.18593 6.74331 6.98488 6.90472 6.83613C7.05455 6.67643 7.25543 6.57406 7.47269 6.54668C7.68995 6.51929 7.90996 6.56861 8.09473 6.68613C8.42638 6.88936 8.80132 7.01139 9.18906 7.04228C9.57679 7.07318 9.96637 7.01206 10.326 6.86391C10.6857 6.71577 11.0052 6.48477 11.2587 6.18974C11.5122 5.89471 11.6924 5.54399 11.7847 5.16613C11.8505 4.96606 11.9777 4.79186 12.1483 4.66837C12.3189 4.54487 12.5241 4.47838 12.7347 4.47838C12.9453 4.47838 13.1505 4.54487 13.3211 4.66837C13.4917 4.79186 13.619 4.96606 13.6847 5.16613C13.823 5.73591 14.1596 6.23792 14.6341 6.58234C15.1086 6.92677 15.6901 7.09117 16.2747 7.04613C16.6637 7.01688 17.0404 6.89701 17.3747 6.69613C17.5578 6.57546 17.7775 6.52333 17.9953 6.54895C18.213 6.57457 18.4147 6.67627 18.5647 6.83613C18.7244 6.98596 18.8268 7.18684 18.8542 7.4041C18.8816 7.62136 18.8322 7.84136 18.7147 8.02613C18.5107 8.35975 18.3874 8.73642 18.3547 9.12613C18.3285 9.51482 18.3901 9.90441 18.5347 10.2661C18.6865 10.6245 18.9193 10.9428 19.2147 11.1961C19.5062 11.4425 19.8472 11.6232 20.2147 11.7261C20.4289 11.7707 20.6206 11.8894 20.7559 12.0613C20.8913 12.2333 20.9617 12.4474 20.9547 12.6661C20.9624 12.8919 20.8935 13.1136 20.7592 13.2952C20.6248 13.4768 20.4329 13.6075 20.2147 13.6661C19.8455 13.7594 19.5031 13.9374 19.2147 14.1861C18.9191 14.4433 18.6865 14.7649 18.5347 15.1261C18.3864 15.4833 18.3247 15.8705 18.3547 16.2561C18.3828 16.6467 18.5064 17.0245 18.7147 17.3561C18.8242 17.5451 18.8688 17.7647 18.8417 17.9814C18.8146 18.1981 18.7173 18.3999 18.5647 18.5561C18.4136 18.7143 18.2121 18.8148 17.9949 18.8403C17.7777 18.8659 17.5584 18.8149 17.3747 18.6961C17.0404 18.4952 16.6637 18.3754 16.2747 18.3461C15.6897 18.299 15.1072 18.4626 14.6322 18.8074C14.1572 19.1521 13.8212 19.6553 13.6847 20.2261C13.619 20.4262 13.4917 20.6004 13.3211 20.7239C13.1505 20.8474 12.9453 20.9139 12.7347 20.9139C12.5241 20.9139 12.3189 20.8474 12.1483 20.7239C11.9777 20.6004 11.8505 20.4262 11.7847 20.2261C11.6894 19.8577 11.5116 19.5157 11.2647 19.2261C11.0118 18.9327 10.6931 18.7031 10.3347 18.5561ZM10.6531 15.8631C11.2691 16.2752 11.9935 16.4955 12.7347 16.4961C13.4759 16.4955 14.2003 16.2752 14.8164 15.8631C15.4325 15.451 15.9126 14.8656 16.1962 14.1807C16.4797 13.4959 16.554 12.7424 16.4096 12.0154C16.2651 11.2885 15.9085 10.6206 15.3847 10.0961C14.6717 9.41282 13.7223 9.03134 12.7347 9.03134C11.7471 9.03134 10.7977 9.41282 10.0847 10.0961C9.56095 10.6206 9.20434 11.2885 9.05992 12.0154C8.9155 12.7424 8.98974 13.4959 9.2733 14.1807C9.55685 14.8656 10.037 15.451 10.6531 15.8631ZM11.1447 11.1561C11.5663 10.7341 12.1382 10.4967 12.7347 10.4961C13.3313 10.4967 13.9032 10.7341 14.3247 11.1561C14.7461 11.578 14.9827 12.1499 14.9827 12.7461C14.9827 13.3424 14.7461 13.9143 14.3247 14.3361C13.8967 14.7457 13.3271 14.9742 12.7347 14.9742C12.1423 14.9742 11.5728 14.7457 11.1447 14.3361C10.7234 13.9143 10.4867 13.3424 10.4867 12.7461C10.4867 12.1499 10.7234 11.578 11.1447 11.1561Z" fill="#3B3B3B"/>
</svg>
