<svg width="25" height="25" viewBox="0 0 25 25" fill="none" xmlns="http://www.w3.org/2000/svg">
<path fill-rule="evenodd" clip-rule="evenodd" d="M9.98071 4.29525C9.64919 4.29525 9.33125 4.42695 9.09683 4.66137C8.86241 4.89579 8.73071 5.21373 8.73071 5.54525V6.79525H17.2307V5.54525C17.2307 5.21373 17.099 4.89579 16.8646 4.66137C16.6302 4.42695 16.3122 4.29525 15.9807 4.29525H9.98071ZM18.7307 6.8995V5.54525C18.7307 4.81591 18.441 4.11643 17.9253 3.60071C17.4095 3.08498 16.7101 2.79525 15.9807 2.79525H9.98071C9.25137 2.79525 8.55189 3.08498 8.03617 3.60071C7.52044 4.11644 7.23071 4.81591 7.23071 5.54525V6.8995C6.78316 7.02638 6.37095 7.26593 6.03617 7.60071C5.52044 8.11643 5.23071 8.81591 5.23071 9.54525V10.8995C4.78316 11.0264 4.37095 11.2659 4.03617 11.6007C3.52044 12.1164 3.23071 12.8159 3.23071 13.5453V19.5453C3.23071 20.2746 3.52044 20.9741 4.03617 21.4898C4.55189 22.0055 5.25137 22.2953 5.98071 22.2953H19.9807C20.7101 22.2953 21.4095 22.0055 21.9253 21.4898C22.441 20.9741 22.7307 20.2746 22.7307 19.5453V13.5453C22.7307 12.8159 22.441 12.1164 21.9253 11.6007C21.5905 11.2659 21.1783 11.0264 20.7307 10.8995V9.54525C20.7307 8.81591 20.441 8.11643 19.9253 7.60071C19.5905 7.26593 19.1783 7.02638 18.7307 6.8995ZM19.2307 10.7953V9.54525C19.2307 9.21373 19.099 8.89579 18.8646 8.66137C18.6302 8.42695 18.3122 8.29525 17.9807 8.29525H7.98071C7.64919 8.29525 7.33125 8.42695 7.09683 8.66137C6.86241 8.89579 6.73071 9.21373 6.73071 9.54525V10.7953H19.2307ZM5.98071 12.2953C5.64919 12.2953 5.33125 12.4269 5.09683 12.6614C4.86241 12.8958 4.73071 13.2137 4.73071 13.5453V19.5453C4.73071 19.8768 4.86241 20.1947 5.09683 20.4291C5.33125 20.6636 5.64919 20.7953 5.98071 20.7953H19.9807C20.3122 20.7953 20.6302 20.6636 20.8646 20.4291C21.099 20.1947 21.2307 19.8768 21.2307 19.5453V13.5453C21.2307 13.2137 21.099 12.8958 20.8646 12.6614C20.6302 12.4269 20.3122 12.2953 19.9807 12.2953H5.98071Z" fill="#3B3B3B"/>
</svg>
