<svg width="24" height="25" viewBox="0 0 24 25" fill="none" xmlns="http://www.w3.org/2000/svg">
<path d="M18.75 22.46H6.75C5.49022 22.46 4.28203 21.9596 3.39124 21.0688C2.50044 20.178 2 18.9698 2 17.71V5.71C2 4.98065 2.28976 4.28118 2.80548 3.76546C3.32121 3.24973 4.02065 2.96 4.75 2.96H8.75C9.47773 2.96523 10.1742 3.25665 10.6888 3.77124C11.2034 4.28583 11.4948 4.98227 11.5 5.71V6.24L11.88 5.87C12.4015 5.36888 13.0967 5.08901 13.82 5.08901C14.5433 5.08901 15.2385 5.36888 15.76 5.87L18.59 8.7C18.8467 8.9547 19.0504 9.2577 19.1895 9.59152C19.3285 9.92534 19.4001 10.2834 19.4001 10.645C19.4001 11.0066 19.3285 11.3647 19.1895 11.6985C19.0504 12.0323 18.8467 12.3353 18.59 12.59L18.22 12.96H18.75C19.4777 12.9652 20.1742 13.2567 20.6888 13.7712C21.2034 14.2858 21.4948 14.9823 21.5 15.71V19.71C21.5 20.4393 21.2103 21.1388 20.6946 21.6545C20.1789 22.1703 19.4793 22.46 18.75 22.46ZM10.22 20.96H18.75C19.0815 20.96 19.3995 20.8283 19.6339 20.5939C19.8683 20.3595 20 20.0415 20 19.71V15.71C19.9974 15.3793 19.8648 15.0629 19.631 14.829C19.3971 14.5951 19.0807 14.4626 18.75 14.46H16.75L10.22 20.96ZM4.75 4.46C4.41929 4.46261 4.10287 4.59515 3.86902 4.829C3.63516 5.06286 3.50261 5.37929 3.5 5.71V17.71C3.5 18.572 3.84241 19.3986 4.4519 20.0081C5.0614 20.6176 5.88805 20.96 6.75 20.96C7.61195 20.96 8.4386 20.6176 9.0481 20.0081C9.65759 19.3986 10 18.572 10 17.71V8.06V5.72C9.99739 5.38929 9.86484 5.07286 9.63098 4.839C9.39713 4.60515 9.08071 4.47262 8.75 4.47L4.75 4.46ZM11.5 8.37V17.56L17.5 11.56C17.6173 11.4454 17.7106 11.3086 17.7742 11.1574C17.8379 11.0063 17.8707 10.844 17.8707 10.68C17.8707 10.516 17.8379 10.3537 17.7742 10.2026C17.7106 10.0514 17.6173 9.91456 17.5 9.8L14.67 6.97C14.4334 6.74267 14.1181 6.61569 13.79 6.61569C13.4619 6.61569 13.1466 6.74267 12.91 6.97L11.5 8.37ZM6.76001 18.46C6.5611 18.46 6.37033 18.381 6.22968 18.2403C6.08902 18.0997 6.01001 17.9089 6.01001 17.71C6.01001 17.5111 6.08902 17.3203 6.22968 17.1797C6.37033 17.039 6.5611 16.96 6.76001 16.96C6.95892 16.96 7.14969 17.039 7.29034 17.1797C7.431 17.3203 7.51001 17.5111 7.51001 17.71C7.51001 17.9089 7.431 18.0997 7.29034 18.2403C7.14969 18.381 6.95892 18.46 6.76001 18.46Z" fill="#3B3B3B"/>
</svg>
