<svg width="24" height="24" viewBox="0 0 24 24" fill="none" xmlns="http://www.w3.org/2000/svg">
<path fill-rule="evenodd" clip-rule="evenodd" d="M12.25 6C12.25 5.58579 12.5858 5.25 13 5.25H21C21.4142 5.25 21.75 5.58579 21.75 6C21.75 6.41421 21.4142 6.75 21 6.75H13C12.5858 6.75 12.25 6.41421 12.25 6ZM8.17841 6.45171C8.48122 6.73433 8.49758 7.20893 8.21496 7.51174L4.72591 11.25H21C21.4142 11.25 21.75 11.5858 21.75 12C21.75 12.4142 21.4142 12.75 21 12.75H4.72591L8.21496 16.4883C8.49758 16.7911 8.48122 17.2657 8.17841 17.5483C7.87559 17.8309 7.401 17.8146 7.11838 17.5117L2.45171 12.5117C2.18276 12.2236 2.18276 11.7764 2.45171 11.4883L7.11838 6.48826C7.401 6.18545 7.87559 6.16908 8.17841 6.45171ZM12.25 18C12.25 17.5858 12.5858 17.25 13 17.25H21C21.4142 17.25 21.75 17.5858 21.75 18C21.75 18.4142 21.4142 18.75 21 18.75H13C12.5858 18.75 12.25 18.4142 12.25 18Z" fill="#3B3B3B"/>
</svg>
