<svg width="25" height="25" viewBox="0 0 25 25" fill="none" xmlns="http://www.w3.org/2000/svg">
<path fill-rule="evenodd" clip-rule="evenodd" d="M3.45724 6.00119C4.1605 5.29792 5.11432 4.90284 6.10889 4.90284H18.1089C19.1034 4.90284 20.0573 5.29792 20.7605 6.00119C21.4638 6.70445 21.8589 7.65827 21.8589 8.65284V16.6528C21.8589 17.6474 21.4638 18.6012 20.7605 19.3045C20.0573 20.0077 19.1034 20.4028 18.1089 20.4028H6.10889C5.11432 20.4028 4.1605 20.0077 3.45724 19.3045C2.75397 18.6012 2.35889 17.6474 2.35889 16.6528V8.65284C2.35889 7.65827 2.75398 6.70445 3.45724 6.00119ZM3.85889 11.4028V16.6528C3.85889 17.2496 4.09594 17.8219 4.5179 18.2438C4.93985 18.6658 5.51215 18.9028 6.10889 18.9028H18.1089C18.7056 18.9028 19.2779 18.6658 19.6999 18.2438C20.1218 17.8219 20.3589 17.2496 20.3589 16.6528V11.4028H3.85889ZM20.3589 9.90284H3.85889V8.65284C3.85889 8.0561 4.09594 7.4838 4.5179 7.06185C4.93985 6.63989 5.51215 6.40284 6.10889 6.40284H18.1089C18.7056 6.40284 19.2779 6.63989 19.6999 7.06185C20.1218 7.4838 20.3589 8.0561 20.3589 8.65284V9.90284ZM6.35889 15.6528C6.35889 15.2386 6.69467 14.9028 7.10889 14.9028H8.10889C8.5231 14.9028 8.85889 15.2386 8.85889 15.6528C8.85889 16.067 8.5231 16.4028 8.10889 16.4028H7.10889C6.69467 16.4028 6.35889 16.067 6.35889 15.6528ZM11.3589 15.6528C11.3589 15.2386 11.6947 14.9028 12.1089 14.9028H13.1089C13.5231 14.9028 13.8589 15.2386 13.8589 15.6528C13.8589 16.067 13.5231 16.4028 13.1089 16.4028H12.1089C11.6947 16.4028 11.3589 16.067 11.3589 15.6528Z" fill="#3B3B3B"/>
</svg>
