<svg width="25" height="25" viewBox="0 0 25 25" fill="none" xmlns="http://www.w3.org/2000/svg">
<path fill-rule="evenodd" clip-rule="evenodd" d="M11.9916 2.98197C12.2028 2.87639 12.4513 2.87639 12.6624 2.98197L20.6624 6.98197C20.9165 7.10901 21.077 7.36871 21.077 7.65279V17.6528C21.077 17.9369 20.9165 18.1966 20.6624 18.3236L12.6624 22.3236C12.4513 22.4292 12.2028 22.4292 11.9916 22.3236L3.99162 18.3236C3.73753 18.1966 3.57703 17.9369 3.57703 17.6528V7.65279C3.57703 7.36871 3.73753 7.10901 3.99162 6.98197L11.9916 2.98197ZM5.07703 8.86631V17.1893L11.577 20.4393V12.1163L5.07703 8.86631ZM13.077 12.1163V20.4393L19.577 17.1893V8.86631L13.077 12.1163ZM18.65 7.65279L12.327 10.8143L6.00408 7.65279L12.327 4.49131L18.65 7.65279Z" fill="#3B3B3B"/>
</svg>
