<svg width="25" height="25" viewBox="0 0 25 25" fill="none" xmlns="http://www.w3.org/2000/svg">
<path fill-rule="evenodd" clip-rule="evenodd" d="M11.8824 2.98197C12.0935 2.87639 12.342 2.87639 12.5532 2.98197L14.5532 3.98197C14.9237 4.16721 15.0738 4.61771 14.8886 4.9882C14.7034 5.35868 14.2528 5.50885 13.8824 5.32361L12.2178 4.49131L10.5532 5.32361C10.1827 5.50885 9.73219 5.35868 9.54695 4.9882C9.36171 4.61771 9.51188 4.16721 9.88236 3.98197L11.8824 2.98197ZM6.88859 6.31738C7.07384 6.68786 6.92367 7.13836 6.55318 7.32361L5.89482 7.65279L6.55318 7.98197C6.92367 8.16721 7.07384 8.61771 6.88859 8.9882C6.70335 9.35868 6.25285 9.50885 5.88236 9.32361L4.96777 8.86631V10.1528C4.96777 10.567 4.63199 10.9028 4.21777 10.9028C3.80356 10.9028 3.46777 10.567 3.46777 10.1528V7.65279C3.46777 7.36871 3.62828 7.10901 3.88236 6.98197L5.88236 5.98197C6.25285 5.79672 6.70335 5.94689 6.88859 6.31738ZM17.547 6.31738C17.7322 5.94689 18.1827 5.79672 18.5532 5.98197L20.5532 6.98197C20.8073 7.10901 20.9678 7.36871 20.9678 7.65279V10.1528C20.9678 10.567 20.632 10.9028 20.2178 10.9028C19.8036 10.9028 19.4678 10.567 19.4678 10.1528V8.86631L18.5532 9.32361C18.1827 9.50885 17.7322 9.35868 17.547 8.9882C17.3617 8.61771 17.5119 8.16721 17.8824 7.98197L18.5407 7.65279L17.8824 7.32361C17.5119 7.13836 17.3617 6.68786 17.547 6.31738ZM9.54695 10.3174C9.73219 9.94689 10.1827 9.79672 10.5532 9.98197L12.2178 10.8143L13.8824 9.98197C14.2528 9.79672 14.7034 9.94689 14.8886 10.3174C15.0738 10.6879 14.9237 11.1384 14.5532 11.3236L12.9678 12.1163V14.1528C12.9678 14.567 12.632 14.9028 12.2178 14.9028C11.8036 14.9028 11.4678 14.567 11.4678 14.1528V12.1163L9.88236 11.3236C9.51188 11.1384 9.36171 10.6879 9.54695 10.3174ZM4.21777 14.4028C4.63199 14.4028 4.96777 14.7386 4.96777 15.1528V17.1893L6.55318 17.982C6.92367 18.1672 7.07384 18.6177 6.88859 18.9882C6.70335 19.3587 6.25285 19.5088 5.88236 19.3236L3.88236 18.3236C3.62828 18.1966 3.46777 17.9369 3.46777 17.6528V15.1528C3.46777 14.7386 3.80356 14.4028 4.21777 14.4028ZM20.2178 14.4028C20.632 14.4028 20.9678 14.7386 20.9678 15.1528V17.6528C20.9678 17.9369 20.8073 18.1966 20.5532 18.3236L18.5532 19.3236C18.1827 19.5088 17.7322 19.3587 17.547 18.9882C17.3617 18.6177 17.5119 18.1672 17.8824 17.982L19.4678 17.1893V15.1528C19.4678 14.7386 19.8036 14.4028 20.2178 14.4028ZM12.2178 18.4028C12.632 18.4028 12.9678 18.7386 12.9678 19.1528V20.4393L13.8824 19.982C14.2528 19.7967 14.7034 19.9469 14.8886 20.3174C15.0738 20.6879 14.9237 21.1384 14.5532 21.3236L12.5532 22.3236C12.342 22.4292 12.0935 22.4292 11.8824 22.3236L9.88236 21.3236C9.51188 21.1384 9.36171 20.6879 9.54695 20.3174C9.73219 19.9469 10.1827 19.7967 10.5532 19.982L11.4678 20.4393V19.1528C11.4678 18.7386 11.8036 18.4028 12.2178 18.4028Z" fill="#3B3B3B"/>
</svg>
