<svg width="25" height="25" viewBox="0 0 25 25" fill="none" xmlns="http://www.w3.org/2000/svg">
<path fill-rule="evenodd" clip-rule="evenodd" d="M12.5448 4.40279C10.3568 4.40279 8.25834 5.27198 6.71117 6.81915C5.16399 8.36633 4.2948 10.4647 4.2948 12.6528C4.2948 13.7362 4.50819 14.809 4.92279 15.8099C5.33739 16.8109 5.94509 17.7203 6.71117 18.4864C7.47725 19.2525 8.38673 19.8602 9.38766 20.2748C10.3886 20.6894 11.4614 20.9028 12.5448 20.9028C13.6282 20.9028 14.701 20.6894 15.7019 20.2748C16.7029 19.8602 17.6123 19.2525 18.3784 18.4864C19.1445 17.7203 19.7522 16.8109 20.1668 15.8099C20.5814 14.809 20.7948 13.7362 20.7948 12.6528C20.7948 10.4647 19.9256 8.36633 18.3784 6.81915C16.8313 5.27198 14.7328 4.40279 12.5448 4.40279ZM5.65051 5.75849C7.47899 3.93002 9.95894 2.90279 12.5448 2.90279C15.1307 2.90279 17.6106 3.93002 19.4391 5.75849C21.2676 7.58697 22.2948 10.0669 22.2948 12.6528C22.2948 13.9332 22.0426 15.201 21.5526 16.3839C21.0626 17.5669 20.3445 18.6417 19.4391 19.5471C18.5337 20.4524 17.4589 21.1706 16.276 21.6606C15.093 22.1506 13.8252 22.4028 12.5448 22.4028C11.2644 22.4028 9.99656 22.1506 8.81364 21.6606C7.63071 21.1706 6.55588 20.4524 5.65051 19.5471C4.74514 18.6417 4.02696 17.5669 3.53697 16.3839C3.04699 15.201 2.7948 13.9332 2.7948 12.6528C2.7948 10.0669 3.82203 7.58697 5.65051 5.75849ZM12.5448 6.90279C12.959 6.90279 13.2948 7.23857 13.2948 7.65279V7.95677C14.2718 8.09911 15.1523 8.5184 15.7102 9.16119C15.9817 9.47402 15.9482 9.94771 15.6354 10.2192C15.3226 10.4907 14.8489 10.4572 14.5774 10.1444C14.3329 9.86264 13.8831 9.60275 13.2948 9.47888V11.9565C13.9651 12.0539 14.582 12.2809 15.0822 12.6144C15.7592 13.0657 16.2948 13.7716 16.2948 14.6528C16.2948 15.534 15.7592 16.2399 15.0822 16.6912C14.582 17.0247 13.9651 17.2517 13.2948 17.3491V17.6528C13.2948 18.067 12.959 18.4028 12.5448 18.4028C12.1306 18.4028 11.7948 18.067 11.7948 17.6528V17.3488C10.8178 17.2065 9.93725 16.7872 9.37938 16.1444C9.10788 15.8316 9.14138 15.3579 9.4542 15.0864C9.76703 14.8149 10.2407 14.8484 10.5122 15.1612C10.7567 15.4429 11.2065 15.7028 11.7948 15.8267V13.3491C11.1245 13.2517 10.5076 13.0247 10.0074 12.6912C9.33035 12.2399 8.7948 11.534 8.7948 10.6528C8.7948 9.77158 9.33035 9.06569 10.0074 8.61435C10.5076 8.28092 11.1245 8.05392 11.7948 7.95652V7.65279C11.7948 7.23857 12.1306 6.90279 12.5448 6.90279ZM11.7948 9.47913C11.4159 9.55891 11.0897 9.69564 10.8394 9.86247C10.4308 10.1349 10.2948 10.429 10.2948 10.6528C10.2948 10.8766 10.4308 11.1707 10.8394 11.4431C11.0897 11.6099 11.4159 11.7467 11.7948 11.8264V9.47913ZM13.2948 13.4791V15.8264C13.6737 15.7467 13.9999 15.6099 14.2502 15.4431C14.6588 15.1707 14.7948 14.8766 14.7948 14.6528C14.7948 14.429 14.6588 14.1349 14.2502 13.8625C13.9999 13.6956 13.6737 13.5589 13.2948 13.4791Z" fill="#3B3B3B"/>
</svg>
