<svg width="25" height="25" viewBox="0 0 25 25" fill="none" xmlns="http://www.w3.org/2000/svg">
<path d="M12.76 22.52C11.4801 22.5211 10.2126 22.2696 9.03002 21.78C6.63973 20.7894 4.74054 18.8903 3.74999 16.5C3.13264 15.0183 2.89064 13.4072 3.04546 11.8096C3.20029 10.2119 3.74714 8.67721 4.63751 7.34167C5.52787 6.00612 6.73421 4.91106 8.14941 4.15367C9.5646 3.39628 11.1449 3 12.75 3C14.3551 3 15.9354 3.39628 17.3506 4.15367C18.7658 4.91106 19.9721 6.00612 20.8625 7.34167C21.7528 8.67721 22.2997 10.2119 22.4545 11.8096C22.6093 13.4072 22.3673 15.0183 21.75 16.5C21.2564 17.6846 20.5362 18.7614 19.63 19.67C18.7273 20.5762 17.653 21.2935 16.47 21.78C15.2937 22.267 14.0332 22.5184 12.76 22.52ZM12.76 4.52C11.4031 4.52013 10.0672 4.85496 8.8706 5.4948C7.67402 6.13465 6.65373 7.05976 5.90014 8.18817C5.14655 9.31658 4.68287 10.6135 4.55029 11.9639C4.4177 13.3143 4.62027 14.6766 5.14001 15.93C5.55316 16.9304 6.15986 17.8394 6.92523 18.6048C7.69059 19.3702 8.59959 19.9768 9.60003 20.39C10.6016 20.8059 11.6755 21.02 12.76 21.02C13.8445 21.02 14.9184 20.8059 15.92 20.39C16.9196 19.9802 17.8273 19.375 18.59 18.61C19.7409 17.4549 20.5242 15.985 20.8411 14.3856C21.1581 12.7861 20.9945 11.1286 20.3711 9.6219C19.7477 8.11521 18.6922 6.82674 17.3378 5.91884C15.9834 5.01093 14.3906 4.52421 12.76 4.52ZM12.76 18.52C12.1787 18.4883 11.6164 18.3019 11.1312 17.9802C10.646 17.6585 10.2555 17.2131 9.99999 16.69C9.68632 16.1705 9.45047 15.6079 9.29998 15.02H8.76C8.56109 15.02 8.37032 14.941 8.22967 14.8003C8.08902 14.6597 8.01 14.4689 8.01 14.27C8.01 14.0711 8.08902 13.8803 8.22967 13.7397C8.37032 13.599 8.56109 13.52 8.76 13.52H9.04003C9.00003 13.0208 9.00003 12.5192 9.04003 12.02H8.76C8.56109 12.02 8.37032 11.941 8.22967 11.8003C8.08902 11.6597 8.01 11.4689 8.01 11.27C8.01 11.0711 8.08902 10.8803 8.22967 10.7397C8.37032 10.599 8.56109 10.52 8.76 10.52H9.33001C9.4805 9.93212 9.71635 9.36947 10.03 8.85C10.2855 8.3269 10.676 7.88149 11.1612 7.55978C11.6464 7.23808 12.2087 7.05173 12.79 7.02C13.3711 7.05276 13.9329 7.23951 14.4179 7.5611C14.9029 7.8827 15.2936 8.32755 15.55 8.85C15.6116 8.93406 15.6551 9.03006 15.6776 9.13187C15.7001 9.23367 15.7011 9.33904 15.6806 9.44125C15.6601 9.54347 15.6184 9.64028 15.5584 9.72551C15.4984 9.81074 15.4212 9.88252 15.3318 9.93626C15.2425 9.99001 15.143 10.0245 15.0395 10.0376C14.9361 10.0507 14.8311 10.0421 14.7312 10.0124C14.6313 9.98262 14.5386 9.93236 14.4592 9.8648C14.3798 9.79724 14.3154 9.71386 14.27 9.62C13.42 8.2 12.16 8.2 11.27 9.62C11.1054 9.90645 10.9681 10.2078 10.86 10.52H12.75C12.9489 10.52 13.1397 10.599 13.2803 10.7397C13.421 10.8803 13.5 11.0711 13.5 11.27C13.5 11.4689 13.421 11.6597 13.2803 11.8003C13.1397 11.941 12.9489 12.02 12.75 12.02H10.54C10.49 12.5187 10.49 13.0212 10.54 13.52H12.75C12.9489 13.52 13.1397 13.599 13.2803 13.7397C13.421 13.8803 13.5 14.0711 13.5 14.27C13.5 14.4689 13.421 14.6597 13.2803 14.8003C13.1397 14.941 12.9489 15.02 12.75 15.02H10.86C10.9643 15.3337 11.1017 15.6355 11.27 15.92C12.12 17.34 13.38 17.34 14.27 15.92C14.3154 15.8261 14.3798 15.7428 14.4592 15.6752C14.5386 15.6076 14.6313 15.5574 14.7312 15.5276C14.8311 15.4979 14.9361 15.4893 15.0395 15.5024C15.143 15.5155 15.2425 15.55 15.3318 15.6037C15.4212 15.6575 15.4984 15.7292 15.5584 15.8145C15.6184 15.8997 15.6601 15.9965 15.6806 16.0987C15.7011 16.2009 15.7001 16.3063 15.6776 16.4081C15.6551 16.5099 15.6116 16.6059 15.55 16.69C15.2936 17.2124 14.9029 17.6573 14.4179 17.9789C13.9329 18.3005 13.3711 18.4872 12.79 18.52H12.76Z" fill="#3B3B3B"/>
</svg>
