<svg width="25" height="25" viewBox="0 0 25 25" fill="none" xmlns="http://www.w3.org/2000/svg">
<path fill-rule="evenodd" clip-rule="evenodd" d="M6.78762 5.60408C5.41968 6.28793 4.85901 7.09409 4.85901 7.76199C4.85901 8.42988 5.41968 9.23604 6.78762 9.91989C8.11077 10.5814 9.99114 11.012 12.109 11.012C14.2269 11.012 16.1072 10.5814 17.4304 9.91989C18.7983 9.23604 19.359 8.42988 19.359 7.76199C19.359 7.09409 18.7983 6.28793 17.4304 5.60408C16.1072 4.94262 14.2269 4.51199 12.109 4.51199C9.99114 4.51199 8.11077 4.94262 6.78762 5.60408ZM19.359 10.4695C18.9822 10.7701 18.5548 11.0348 18.1011 11.2616C16.5288 12.0476 14.4091 12.512 12.109 12.512C9.80887 12.512 7.68925 12.0476 6.11689 11.2616C5.66324 11.0348 5.23579 10.7701 4.85901 10.4695V12.762C4.85901 13.4299 5.41968 14.236 6.78762 14.9199C8.11077 15.5814 9.99114 16.012 12.109 16.012C14.2269 16.012 16.1072 15.5814 17.4304 14.9199C18.7983 14.236 19.359 13.4299 19.359 12.762V10.4695ZM20.859 7.76199C20.859 6.21988 19.6287 5.02604 18.1011 4.26239C16.5288 3.47635 14.4091 3.01199 12.109 3.01199C9.80887 3.01199 7.68925 3.47635 6.11689 4.26239C4.58933 5.02604 3.35901 6.21988 3.35901 7.76199V17.762C3.35901 19.3041 4.58933 20.4979 6.11689 21.2616C7.68925 22.0476 9.80887 22.512 12.109 22.512C14.4091 22.512 16.5288 22.0476 18.1011 21.2616C19.6287 20.4979 20.859 19.3041 20.859 17.762V7.76199ZM19.359 15.4695C18.9822 15.7701 18.5548 16.0348 18.1011 16.2616C16.5288 17.0476 14.4091 17.512 12.109 17.512C9.80887 17.512 7.68925 17.0476 6.11689 16.2616C5.66324 16.0348 5.23579 15.7701 4.85901 15.4695V17.762C4.85901 18.4299 5.41968 19.236 6.78762 19.9199C8.11077 20.5814 9.99114 21.012 12.109 21.012C14.2269 21.012 16.1072 20.5814 17.4304 19.9199C18.7983 19.236 19.359 18.4299 19.359 17.762V15.4695Z" fill="#3B3B3B"/>
</svg>
