<svg width="25" height="25" viewBox="0 0 25 25" fill="none" xmlns="http://www.w3.org/2000/svg">
<path fill-rule="evenodd" clip-rule="evenodd" d="M3.27311 3.81744C3.78883 3.30172 4.48831 3.01199 5.21765 3.01199H19.2176C19.947 3.01199 20.6465 3.30172 21.1622 3.81744C21.6779 4.33317 21.9676 5.03264 21.9676 5.76199V15.762C21.9676 16.4913 21.6779 17.1908 21.1622 17.7065C20.6465 18.2223 19.947 18.512 19.2176 18.512H15.4282L15.8949 20.3785L16.748 21.2317C16.9625 21.4462 17.0266 21.7687 16.9106 22.049C16.7945 22.3293 16.521 22.512 16.2176 22.512H8.21765C7.9143 22.512 7.64083 22.3293 7.52474 22.049C7.40866 21.7687 7.47282 21.4462 7.68732 21.2317L8.54043 20.3785L9.00707 18.512H5.21765C4.48831 18.512 3.78883 18.2223 3.27311 17.7065C2.75738 17.1908 2.46765 16.4913 2.46765 15.762V5.76199C2.46765 5.03264 2.75738 4.33317 3.27311 3.81744ZM3.96765 14.512V15.762C3.96765 16.0935 4.09935 16.4114 4.33377 16.6459C4.56819 16.8803 4.88613 17.012 5.21765 17.012H19.2176C19.5492 17.012 19.8671 16.8803 20.1015 16.6459C20.336 16.4114 20.4676 16.0935 20.4676 15.762V14.512H3.96765ZM20.4676 13.012H3.96765V5.76199C3.96765 5.43046 4.09935 5.11252 4.33377 4.8781C4.56819 4.64368 4.88613 4.51199 5.21765 4.51199H19.2176C19.5492 4.51199 19.8671 4.64368 20.1015 4.8781C20.336 5.11252 20.4676 5.43047 20.4676 5.76199V13.012ZM10.5532 18.512L9.94526 20.9439C9.93949 20.967 9.93264 20.9897 9.92476 21.012H14.5105C14.5027 20.9897 14.4958 20.967 14.49 20.9439L13.8821 18.512H10.5532Z" fill="#3B3B3B"/>
</svg>
