<svg width="25" height="25" viewBox="0 0 25 25" fill="none" xmlns="http://www.w3.org/2000/svg">
<path fill-rule="evenodd" clip-rule="evenodd" d="M5.49125 3.81744C6.00697 3.30172 6.70645 3.01199 7.43579 3.01199H17.4358C18.1651 3.01199 18.8646 3.30172 19.3803 3.81744C19.8961 4.33317 20.1858 5.03264 20.1858 5.76199V19.762C20.1858 20.4913 19.8961 21.1908 19.3803 21.7065C18.8646 22.2223 18.1651 22.512 17.4358 22.512H7.43579C6.70645 22.512 6.00697 22.2223 5.49125 21.7065C4.97552 21.1908 4.68579 20.4913 4.68579 19.762V5.76199C4.68579 5.03264 4.97552 4.33317 5.49125 3.81744ZM7.43579 4.51199C7.10427 4.51199 6.78633 4.64368 6.55191 4.8781C6.31749 5.11252 6.18579 5.43046 6.18579 5.76199V19.762C6.18579 20.0935 6.31749 20.4114 6.55191 20.6459C6.78633 20.8803 7.10427 21.012 7.43579 21.012H17.4358C17.7673 21.012 18.0853 20.8803 18.3197 20.6459C18.5541 20.4114 18.6858 20.0935 18.6858 19.762V5.76199C18.6858 5.43047 18.5541 5.11252 18.3197 4.8781C18.0853 4.64368 17.7673 4.51199 17.4358 4.51199H7.43579ZM11.6858 18.762C11.6858 18.3478 12.0216 18.012 12.4358 18.012H12.4458C12.86 18.012 13.1958 18.3478 13.1958 18.762C13.1958 19.1762 12.86 19.512 12.4458 19.512H12.4358C12.0216 19.512 11.6858 19.1762 11.6858 18.762Z" fill="#3B3B3B"/>
</svg>
