<svg width="25" height="25" viewBox="0 0 25 25" fill="none" xmlns="http://www.w3.org/2000/svg">
<path fill-rule="evenodd" clip-rule="evenodd" d="M6.3826 3.81744C6.89833 3.30172 7.5978 3.01199 8.32715 3.01199H16.3271C17.0565 3.01199 17.756 3.30172 18.2717 3.81744C18.7874 4.33317 19.0771 5.03264 19.0771 5.76199V19.762C19.0771 20.4913 18.7874 21.1908 18.2717 21.7065C17.756 22.2223 17.0565 22.512 16.3271 22.512H8.32715C7.5978 22.512 6.89833 22.2223 6.3826 21.7065C5.86688 21.1908 5.57715 20.4913 5.57715 19.762V5.76199C5.57715 5.03264 5.86688 4.33317 6.3826 3.81744ZM8.32715 4.51199C7.99563 4.51199 7.67769 4.64368 7.44326 4.8781C7.20884 5.11252 7.07715 5.43046 7.07715 5.76199V19.762C7.07715 20.0935 7.20884 20.4114 7.44326 20.6459C7.67769 20.8803 7.99563 21.012 8.32715 21.012H16.3271C16.6587 21.012 16.9766 20.8803 17.211 20.6459C17.4455 20.4114 17.5771 20.0935 17.5771 19.762V5.76199C17.5771 5.43047 17.4455 5.11252 17.211 4.8781C16.9766 4.64368 16.6587 4.51199 16.3271 4.51199H8.32715ZM11.5771 18.762C11.5771 18.3478 11.9129 18.012 12.3271 18.012H12.3371C12.7514 18.012 13.0871 18.3478 13.0871 18.762C13.0871 19.1762 12.7514 19.512 12.3371 19.512H12.3271C11.9129 19.512 11.5771 19.1762 11.5771 18.762Z" fill="#3B3B3B"/>
</svg>
