<svg width="25" height="25" viewBox="0 0 25 25" fill="none" xmlns="http://www.w3.org/2000/svg">
<path fill-rule="evenodd" clip-rule="evenodd" d="M7.10901 4.62119C6.77749 4.62119 6.45955 4.75288 6.22513 4.9873C5.9907 5.22172 5.85901 5.53966 5.85901 5.87119V19.8712C5.85901 20.2027 5.9907 20.5206 6.22513 20.7551C6.45955 20.9895 6.77749 21.1212 7.10901 21.1212H17.109C17.4405 21.1212 17.7585 20.9895 17.9929 20.7551C18.2273 20.5206 18.359 20.2027 18.359 19.8712V10.2853C18.359 10.2853 18.359 10.2854 18.359 10.2853C18.359 10.2191 18.3326 10.1554 18.2858 10.1086L12.8717 4.69452C12.8248 4.64767 12.7612 4.62124 12.695 4.62119C12.695 4.62119 12.6951 4.62119 12.695 4.62119H7.10901ZM5.16447 3.92664C5.68019 3.41092 6.37966 3.12119 7.10901 3.12119H12.695C13.1591 3.12128 13.6043 3.3057 13.9324 3.63388C13.9323 3.63386 13.9324 3.6339 13.9324 3.63388L19.3463 9.04777C19.3462 9.04775 19.3463 9.0478 19.3463 9.04777C19.6744 9.37588 19.8589 9.82097 19.859 10.285V19.8712C19.859 20.6005 19.5693 21.3 19.0536 21.8157C18.5378 22.3315 17.8384 22.6212 17.109 22.6212H7.10901C6.37966 22.6212 5.68019 22.3315 5.16447 21.8157C4.64874 21.3 4.35901 20.6005 4.35901 19.8712V5.87119C4.35901 5.14184 4.64874 4.44237 5.16447 3.92664ZM8.35901 12.8712C8.35901 12.457 8.6948 12.1212 9.10901 12.1212H15.109C15.5232 12.1212 15.859 12.457 15.859 12.8712C15.859 13.2854 15.5232 13.6212 15.109 13.6212H9.10901C8.6948 13.6212 8.35901 13.2854 8.35901 12.8712ZM8.35901 16.8712C8.35901 16.457 8.6948 16.1212 9.10901 16.1212H15.109C15.5232 16.1212 15.859 16.457 15.859 16.8712C15.859 17.2854 15.5232 17.6212 15.109 17.6212H9.10901C8.6948 17.6212 8.35901 17.2854 8.35901 16.8712Z" fill="#3B3B3B"/>
</svg>
