<svg width="25" height="25" viewBox="0 0 25 25" fill="none" xmlns="http://www.w3.org/2000/svg">
<path fill-rule="evenodd" clip-rule="evenodd" d="M10.7627 4.51199C10.4312 4.51199 10.1132 4.64368 9.87881 4.8781C9.64439 5.11252 9.5127 5.43047 9.5127 5.76199V15.762C9.5127 16.0935 9.64439 16.4114 9.87881 16.6459C10.1132 16.8803 10.4312 17.012 10.7627 17.012H18.7627C19.0942 17.012 19.4122 16.8803 19.6466 16.6459C19.881 16.4114 20.0127 16.0935 20.0127 15.762V9.17615C20.0127 9.17609 20.0127 9.1762 20.0127 9.17615C20.0126 9.1099 19.9863 9.04623 19.9394 8.9994L15.5254 4.58532C15.4785 4.53847 15.4149 4.51204 15.3487 4.51199C15.3486 4.51199 15.3487 4.51199 15.3487 4.51199H10.7627ZM8.81815 3.81744C9.33388 3.30172 10.0333 3.01199 10.7627 3.01199H15.3487C15.8127 3.01208 16.2579 3.19649 16.586 3.52466M16.586 3.52466L20.9999 7.93857C20.9999 7.93855 21 7.9386 20.9999 7.93857C21.3281 8.26668 21.5126 8.71177 21.5127 9.17582L21.5127 15.762C21.5127 16.4913 21.223 17.1908 20.7072 17.7065C20.1915 18.2223 19.492 18.512 18.7627 18.512H17.5127V19.762C17.5127 20.4913 17.223 21.1908 16.7072 21.7065C16.1915 22.2223 15.492 22.512 14.7627 22.512H6.7627C6.03335 22.512 5.33388 22.2223 4.81815 21.7065C4.30243 21.1908 4.0127 20.4913 4.0127 19.762V9.76198C4.0127 9.03264 4.30243 8.33317 4.81815 7.81744C5.33388 7.30172 6.03335 7.01199 6.7627 7.01199H8.0127V5.76199C8.0127 5.03264 8.30243 4.33317 8.81815 3.81744M8.0127 8.51199H6.7627C6.43117 8.51199 6.11323 8.64368 5.87881 8.8781C5.64439 9.11252 5.5127 9.43046 5.5127 9.76199V19.762C5.5127 20.0935 5.64439 20.4114 5.87881 20.6459C6.11323 20.8803 6.43117 21.012 6.7627 21.012H14.7627C15.0942 21.012 15.4122 20.8803 15.6466 20.6459C15.881 20.4114 16.0127 20.0935 16.0127 19.762V18.512H10.7627C10.0333 18.512 9.33388 18.2223 8.81815 17.7065C8.30243 17.1908 8.0127 16.4913 8.0127 15.762V8.51199Z" fill="#3B3B3B"/>
</svg>
