<svg width="25" height="25" viewBox="0 0 25 25" fill="none" xmlns="http://www.w3.org/2000/svg">
<path fill-rule="evenodd" clip-rule="evenodd" d="M7.87195 4.51199C7.54043 4.51199 7.22249 4.64368 6.98806 4.8781C6.75364 5.11252 6.62195 5.43046 6.62195 5.76199V19.762C6.62195 20.0935 6.75364 20.4114 6.98806 20.6459C7.22249 20.8803 7.54043 21.012 7.87195 21.012H17.8719C18.2035 21.012 18.5214 20.8803 18.7558 20.6459C18.9903 20.4114 19.1219 20.0935 19.1219 19.762V10.1761C19.1219 10.1761 19.1219 10.1762 19.1219 10.1761C19.1219 10.1099 19.0955 10.0462 19.0487 9.99939L13.6346 4.58532C13.5878 4.53847 13.5242 4.51204 13.4579 4.51199C13.4579 4.51199 13.458 4.51199 13.4579 4.51199H7.87195ZM5.9274 3.81744C6.44313 3.30172 7.1426 3.01199 7.87195 3.01199H13.4579C13.922 3.01208 14.3672 3.1965 14.6953 3.52468C14.6953 3.52466 14.6953 3.5247 14.6953 3.52468L20.1092 8.93857C20.1092 8.93855 20.1092 8.9386 20.1092 8.93857C20.4374 9.26668 20.6218 9.71177 20.6219 10.1758V19.762C20.6219 20.4913 20.3322 21.1908 19.8165 21.7065C19.3008 22.2223 18.6013 22.512 17.8719 22.512H7.87195C7.1426 22.512 6.44313 22.2223 5.9274 21.7065C5.41168 21.1908 5.12195 20.4913 5.12195 19.762V5.76199C5.12195 5.03264 5.41168 4.33317 5.9274 3.81744ZM9.12195 13.762C9.12195 13.3478 9.45773 13.012 9.87195 13.012H15.8719C16.2862 13.012 16.6219 13.3478 16.6219 13.762C16.6219 14.1762 16.2862 14.512 15.8719 14.512H9.87195C9.45773 14.512 9.12195 14.1762 9.12195 13.762Z" fill="#3B3B3B"/>
</svg>
