<svg width="25" height="25" viewBox="0 0 25 25" fill="none" xmlns="http://www.w3.org/2000/svg">
<path fill-rule="evenodd" clip-rule="evenodd" d="M5.27323 3.92664C5.78895 3.41092 6.48843 3.12119 7.21777 3.12119H12.8038C13.2678 3.12128 13.713 3.3057 14.0411 3.63388C14.0411 3.63386 14.0411 3.6339 14.0411 3.63388L19.455 9.04777C19.455 9.04775 19.4551 9.0478 19.455 9.04777C19.7832 9.37588 19.9677 9.82097 19.9678 10.285V19.8712C19.9678 20.6005 19.678 21.3 19.1623 21.8157C18.6466 22.3315 17.9471 22.6212 17.2178 22.6212H7.21777C6.48843 22.6212 5.78895 22.3315 5.27323 21.8157C4.7575 21.3 4.46777 20.6005 4.46777 19.8712V5.87119C4.46777 5.14184 4.7575 4.44237 5.27323 3.92664ZM7.21777 4.62119C6.88625 4.62119 6.56831 4.75288 6.33389 4.9873C6.09947 5.22172 5.96777 5.53966 5.96777 5.87119V19.8712C5.96777 20.2027 6.09947 20.5206 6.33389 20.7551C6.56831 20.9895 6.88625 21.1212 7.21777 21.1212H17.2178C17.5493 21.1212 17.8672 20.9895 18.1017 20.7551C18.3361 20.5206 18.4678 20.2027 18.4678 19.8712V10.2853C18.4678 10.2853 18.4678 10.2854 18.4678 10.2853C18.4677 10.2191 18.4414 10.1554 18.3945 10.1086L12.9804 4.69452C12.9336 4.64767 12.87 4.62124 12.8038 4.62119C12.8037 4.62119 12.8038 4.62119 12.8038 4.62119H7.21777Z" fill="#3B3B3B"/>
</svg>
