<svg width="25" height="25" viewBox="0 0 25 25" fill="none" xmlns="http://www.w3.org/2000/svg">
<path fill-rule="evenodd" clip-rule="evenodd" d="M12.3271 4.62119C10.1391 4.62119 8.04069 5.49038 6.49352 7.03755C4.94634 8.58473 4.07715 10.6831 4.07715 12.8712C4.07715 13.9546 4.29054 15.0274 4.70514 16.0283C5.11974 17.0293 5.72743 17.9387 6.49352 18.7048C7.2596 19.4709 8.16907 20.0786 9.17001 20.4932C10.1709 20.9078 11.2437 21.1212 12.3271 21.1212C13.4106 21.1212 14.4833 20.9078 15.4843 20.4932C16.4852 20.0786 17.3947 19.4709 18.1608 18.7048C18.9269 17.9387 19.5346 17.0293 19.9492 16.0283C20.3638 15.0274 20.5771 13.9546 20.5771 12.8712C20.5771 10.6831 19.708 8.58473 18.1608 7.03755C16.6136 5.49038 14.5152 4.62119 12.3271 4.62119ZM5.43286 5.97689C7.26134 4.14841 9.74129 3.12119 12.3271 3.12119C14.913 3.12119 17.393 4.14841 19.2214 5.97689C21.0499 7.80537 22.0771 10.2853 22.0771 12.8712C22.0771 14.1516 21.825 15.4194 21.335 16.6023C20.845 17.7853 20.1268 18.8601 19.2214 19.7655C18.3161 20.6708 17.2412 21.389 16.0583 21.879C14.8754 22.369 13.6075 22.6212 12.3271 22.6212C11.0468 22.6212 9.77891 22.369 8.59598 21.879C7.41306 21.389 6.33823 20.6708 5.43286 19.7655C4.52749 18.8601 3.80931 17.7853 3.31932 16.6023C2.82934 15.4194 2.57715 14.1516 2.57715 12.8712C2.57715 10.2853 3.60438 7.80537 5.43286 5.97689ZM7.57715 12.8712C7.57715 12.457 7.91293 12.1212 8.32715 12.1212H8.33715C8.75136 12.1212 9.08715 12.457 9.08715 12.8712C9.08715 13.2854 8.75136 13.6212 8.33715 13.6212H8.32715C7.91293 13.6212 7.57715 13.2854 7.57715 12.8712ZM11.5771 12.8712C11.5771 12.457 11.9129 12.1212 12.3271 12.1212H12.3371C12.7514 12.1212 13.0871 12.457 13.0871 12.8712C13.0871 13.2854 12.7514 13.6212 12.3371 13.6212H12.3271C11.9129 13.6212 11.5771 13.2854 11.5771 12.8712ZM15.5771 12.8712C15.5771 12.457 15.9129 12.1212 16.3271 12.1212H16.3371C16.7514 12.1212 17.0871 12.457 17.0871 12.8712C17.0871 13.2854 16.7514 13.6212 16.3371 13.6212H16.3271C15.9129 13.6212 15.5771 13.2854 15.5771 12.8712Z" fill="#3B3B3B"/>
</svg>
