<svg width="25" height="25" viewBox="0 0 25 25" fill="none" xmlns="http://www.w3.org/2000/svg">
<path fill-rule="evenodd" clip-rule="evenodd" d="M4.19835 11.6334C4.52654 11.3052 4.97166 11.1208 5.43579 11.1208C5.89992 11.1208 6.34504 11.3052 6.67323 11.6334C7.00142 11.9616 7.18579 12.4067 7.18579 12.8708C7.18579 13.3349 7.00142 13.7801 6.67323 14.1083C6.34504 14.4364 5.89992 14.6208 5.43579 14.6208C4.97166 14.6208 4.52654 14.4364 4.19835 14.1083C3.87017 13.7801 3.68579 13.3349 3.68579 12.8708C3.68579 12.4067 3.87017 11.9616 4.19835 11.6334ZM11.1984 11.6334C11.5265 11.3052 11.9717 11.1208 12.4358 11.1208C12.8999 11.1208 13.345 11.3052 13.6732 11.6334C14.0014 11.9616 14.1858 12.4067 14.1858 12.8708C14.1858 13.3349 14.0014 13.7801 13.6732 14.1083C13.345 14.4364 12.8999 14.6208 12.4358 14.6208C11.9717 14.6208 11.5265 14.4364 11.1984 14.1083C10.8702 13.7801 10.6858 13.3349 10.6858 12.8708C10.6858 12.4067 10.8702 11.9616 11.1984 11.6334ZM18.1984 11.6334C18.5265 11.3052 18.9717 11.1208 19.4358 11.1208C19.8999 11.1208 20.345 11.3052 20.6732 11.6334C21.0014 11.9616 21.1858 12.4067 21.1858 12.8708C21.1858 13.3349 21.0014 13.7801 20.6732 14.1083C20.345 14.4364 19.8999 14.6208 19.4358 14.6208C18.9717 14.6208 18.5265 14.4364 18.1984 14.1083C17.8702 13.7801 17.6858 13.3349 17.6858 12.8708C17.6858 12.4067 17.8702 11.9616 18.1984 11.6334Z" fill="#3B3B3B"/>
</svg>
