<svg width="25" height="25" viewBox="0 0 25 25" fill="none" xmlns="http://www.w3.org/2000/svg">
<path fill-rule="evenodd" clip-rule="evenodd" d="M11.3075 4.63321C11.6357 4.30503 12.0808 4.12065 12.5449 4.12065C13.0091 4.12065 13.4542 4.30503 13.7824 4.63321C14.1105 4.9614 14.2949 5.40652 14.2949 5.87065C14.2949 6.33478 14.1105 6.7799 13.7824 7.10809C13.4542 7.43628 13.0091 7.62065 12.5449 7.62065C12.0808 7.62065 11.6357 7.43628 11.3075 7.10809C10.9793 6.7799 10.7949 6.33478 10.7949 5.87065C10.7949 5.40652 10.9793 4.9614 11.3075 4.63321ZM11.3075 11.6332C11.6357 11.305 12.0808 11.1207 12.5449 11.1207C13.0091 11.1207 13.4542 11.305 13.7824 11.6332C14.1105 11.9614 14.2949 12.4065 14.2949 12.8707C14.2949 13.3348 14.1105 13.7799 13.7824 14.1081C13.4542 14.4363 13.0091 14.6207 12.5449 14.6207C12.0808 14.6207 11.6357 14.4363 11.3075 14.1081C10.9793 13.7799 10.7949 13.3348 10.7949 12.8707C10.7949 12.4065 10.9793 11.9614 11.3075 11.6332ZM11.3075 18.6332C11.6357 18.305 12.0808 18.1207 12.5449 18.1207C13.009 18.1207 13.4542 18.305 13.7824 18.6332C14.1105 18.9614 14.2949 19.4065 14.2949 19.8707C14.2949 20.3348 14.1105 20.7799 13.7824 21.1081C13.4542 21.4363 13.009 21.6207 12.5449 21.6207C12.0808 21.6207 11.6357 21.4363 11.3075 21.1081C10.9793 20.7799 10.7949 20.3348 10.7949 19.8707C10.7949 19.4065 10.9793 18.9614 11.3075 18.6332Z" fill="#3B3B3B"/>
</svg>
