<svg width="16" height="16" viewBox="0 0 16 16" fill="none" xmlns="http://www.w3.org/2000/svg">
<path fill-rule="evenodd" clip-rule="evenodd" d="M7.99476 0H8.00524C8.70286 0.000448629 9.26804 0.566348 9.26759 1.26397C9.26714 1.96159 8.70124 2.52677 8.00362 2.52632H7.99639C7.29876 2.52677 6.73286 1.96159 6.73242 1.26397C6.73197 0.566348 7.29714 0.000448629 7.99476 0ZM11.8668 2.34061C12.3598 1.847 13.1595 1.84648 13.6532 2.33945L13.6605 2.34684C14.1535 2.84045 14.153 3.64024 13.6594 4.13321C13.1658 4.62619 12.366 4.62567 11.873 4.13205L11.8679 4.12699C11.3743 3.63401 11.3738 2.83423 11.8668 2.34061ZM4.13321 2.34061C4.62619 2.83423 4.62567 3.63402 4.13205 4.12699L4.12699 4.13205C3.63401 4.62567 2.83423 4.62619 2.34061 4.13322C1.847 3.64024 1.84648 2.84045 2.33945 2.34684L2.34684 2.33945C2.84045 1.84648 3.64024 1.847 4.13321 2.34061ZM1.26397 6.73242C1.96159 6.73286 2.52677 7.29876 2.52632 7.99639V8.00362C2.52677 8.70124 1.96159 9.26714 1.26397 9.26759C0.566348 9.26804 0.000448629 8.70286 0 8.00524V7.99476C0.000448629 7.29714 0.566348 6.73197 1.26397 6.73242ZM14.736 6.73242C15.4337 6.73197 15.9996 7.29714 16 7.99476V8.00524C15.9996 8.70286 15.4337 9.26804 14.736 9.26759C14.0384 9.26714 13.4732 8.70124 13.4737 8.00362V7.99639C13.4732 7.29876 14.0384 6.73286 14.736 6.73242ZM13.6594 11.8668C14.153 12.3598 14.1535 13.1595 13.6606 13.6532L13.6532 13.6605C13.1595 14.1535 12.3598 14.153 11.8668 13.6594C11.3738 13.1658 11.3743 12.366 11.8679 11.873L11.873 11.8679C12.366 11.3743 13.1658 11.3738 13.6594 11.8668ZM2.34061 11.8668C2.83423 11.3738 3.63402 11.3743 4.12699 11.8679L4.13205 11.873C4.62567 12.366 4.62619 13.1658 4.13322 13.6594C3.64024 14.153 2.84045 14.1535 2.34684 13.6606L2.33945 13.6532C1.84648 13.1595 1.847 12.3598 2.34061 11.8668ZM6.73242 14.736C6.73286 14.0384 7.29876 13.4732 7.99639 13.4737H8.00362C8.70124 13.4732 9.26714 14.0384 9.26759 14.736C9.26804 15.4337 8.70286 15.9996 8.00524 16H7.99476C7.29714 15.9996 6.73197 15.4337 6.73242 14.736Z" fill="#363B4C"/>
</svg>
