<svg width="25" height="25" viewBox="0 0 25 25" fill="none" xmlns="http://www.w3.org/2000/svg">
<path fill-rule="evenodd" clip-rule="evenodd" d="M12.6537 4.12065C13.0679 4.12065 13.4037 4.45644 13.4037 4.87065V15.06L16.1234 12.3403C16.4162 12.0474 16.8911 12.0474 17.184 12.3403C17.4769 12.6332 17.4769 13.1081 17.184 13.401L13.184 17.401C12.8911 17.6939 12.4162 17.6939 12.1234 17.401L8.12336 13.401C7.83046 13.1081 7.83046 12.6332 8.12336 12.3403C8.41625 12.0474 8.89112 12.0474 9.18402 12.3403L11.9037 15.06V4.87065C11.9037 4.45644 12.2395 4.12065 12.6537 4.12065ZM4.65369 16.1207C5.0679 16.1207 5.40369 16.4564 5.40369 16.8707V17.8707C5.40369 18.4674 5.64074 19.0397 6.0627 19.4616C6.48465 19.8836 7.05695 20.1207 7.65369 20.1207H17.6537C18.2504 20.1207 18.8227 19.8836 19.2447 19.4616C19.6666 19.0397 19.9037 18.4674 19.9037 17.8707V16.8707C19.9037 16.4564 20.2395 16.1207 20.6537 16.1207C21.0679 16.1207 21.4037 16.4564 21.4037 16.8707V17.8707C21.4037 18.8652 21.0086 19.819 20.3053 20.5223C19.6021 21.2256 18.6482 21.6206 17.6537 21.6207H7.65369C6.65912 21.6206 5.7053 21.2256 5.00204 20.5223C4.29877 19.819 3.90369 18.8652 3.90369 17.8707V16.8707C3.90369 16.4564 4.23947 16.1207 4.65369 16.1207Z" fill="#3B3B3B"/>
</svg>
