<svg width="25" height="25" viewBox="0 0 25 25" fill="none" xmlns="http://www.w3.org/2000/svg">
<path fill-rule="evenodd" clip-rule="evenodd" d="M6.7627 5.62065C6.43117 5.62065 6.11323 5.75235 5.87881 5.98677C5.64439 6.22119 5.5127 6.53913 5.5127 6.87065V14.8707C5.5127 15.2022 5.64439 15.5201 5.87881 15.7545C6.11323 15.989 6.43117 16.1207 6.7627 16.1207H8.0127V10.8707C8.0127 10.1413 8.30243 9.44183 8.81815 8.92611C9.33388 8.41038 10.0333 8.12065 10.7627 8.12065H16.0127V6.87065C16.0127 6.53913 15.881 6.22119 15.6466 5.98677C15.4122 5.75235 15.0942 5.62065 14.7627 5.62065H6.7627ZM17.5127 8.12065V6.87065C17.5127 6.14131 17.223 5.44183 16.7072 4.92611C16.1915 4.41038 15.492 4.12065 14.7627 4.12065H6.7627C6.03335 4.12065 5.33388 4.41038 4.81815 4.92611C4.30243 5.44183 4.0127 6.14131 4.0127 6.87065V14.8707C4.0127 15.6 4.30243 16.2995 4.81815 16.8152C5.33388 17.3309 6.03335 17.6207 6.7627 17.6207H8.0127V18.8707C8.0127 19.6 8.30243 20.2995 8.81815 20.8152C9.33388 21.3309 10.0333 21.6207 10.7627 21.6207H18.7627C19.492 21.6207 20.1915 21.3309 20.7072 20.8152C21.223 20.2995 21.5127 19.6 21.5127 18.8707V10.8707C21.5127 10.1413 21.223 9.44183 20.7072 8.92611C20.1915 8.41038 19.492 8.12065 18.7627 8.12065H17.5127ZM10.7627 9.62065C10.4312 9.62065 10.1132 9.75235 9.87881 9.98677C9.64439 10.2212 9.5127 10.5391 9.5127 10.8707V18.8707C9.5127 19.2022 9.64439 19.5201 9.87881 19.7545C10.1132 19.989 10.4312 20.1207 10.7627 20.1207H18.7627C19.0942 20.1207 19.4122 19.989 19.6466 19.7545C19.881 19.5201 20.0127 19.2022 20.0127 18.8707V10.8707C20.0127 10.5391 19.881 10.2212 19.6466 9.98677C19.4122 9.75235 19.0942 9.62065 18.7627 9.62065H10.7627Z" fill="#3B3B3B"/>
</svg>
