<svg width="25" height="25" viewBox="0 0 25 25" fill="none" xmlns="http://www.w3.org/2000/svg">
<path fill-rule="evenodd" clip-rule="evenodd" d="M12.9807 4.62119C10.7927 4.62119 8.69426 5.49038 7.14708 7.03755C5.59991 8.58473 4.73071 10.6831 4.73071 12.8712C4.73071 13.9546 4.94411 15.0274 5.35871 16.0283C5.77331 17.0293 6.381 17.9387 7.14708 18.7048C7.91317 19.4709 8.82264 20.0786 9.82357 20.4932C10.8245 20.9078 11.8973 21.1212 12.9807 21.1212C14.0641 21.1212 15.1369 20.9078 16.1378 20.4932C17.1388 20.0786 18.0483 19.4709 18.8143 18.7048C19.5804 17.9387 20.1881 17.0293 20.6027 16.0283C21.0173 15.0274 21.2307 13.9546 21.2307 12.8712C21.2307 10.6831 20.3615 8.58473 18.8143 7.03755C17.2672 5.49038 15.1687 4.62119 12.9807 4.62119ZM6.08642 5.97689C7.9149 4.14841 10.3949 3.12119 12.9807 3.12119C15.5666 3.12119 18.0465 4.14841 19.875 5.97689C21.7035 7.80537 22.7307 10.2853 22.7307 12.8712C22.7307 14.1516 22.4785 15.4194 21.9885 16.6023C21.4986 17.7853 20.7804 18.8601 19.875 19.7655C18.9696 20.6708 17.8948 21.389 16.7119 21.879C15.529 22.369 14.2611 22.6212 12.9807 22.6212C11.7003 22.6212 10.4325 22.369 9.24955 21.879C8.06662 21.389 6.99179 20.6708 6.08642 19.7655C5.18105 18.8601 4.46287 17.7853 3.97289 16.6023C3.4829 15.4194 3.23071 14.1516 3.23071 12.8712C3.23071 10.2853 4.25794 7.80537 6.08642 5.97689ZM9.23071 10.8712C9.23071 10.457 9.5665 10.1212 9.98071 10.1212H9.99071C10.4049 10.1212 10.7407 10.457 10.7407 10.8712C10.7407 11.2854 10.4049 11.6212 9.99071 11.6212H9.98071C9.5665 11.6212 9.23071 11.2854 9.23071 10.8712ZM15.2307 10.8712C15.2307 10.457 15.5665 10.1212 15.9807 10.1212H15.9907C16.4049 10.1212 16.7407 10.457 16.7407 10.8712C16.7407 11.2854 16.4049 11.6212 15.9907 11.6212H15.9807C15.5665 11.6212 15.2307 11.2854 15.2307 10.8712ZM12.9807 16.622C12.1189 16.622 11.2924 16.9643 10.683 17.5736C10.39 17.8664 9.91515 17.8664 9.6223 17.5734C9.32945 17.2805 9.32952 16.8056 9.62246 16.5128C10.5132 15.6223 11.7212 15.122 12.9807 15.122C14.2402 15.122 15.4482 15.6223 16.339 16.5128C16.6319 16.8056 16.632 17.2805 16.3391 17.5734C16.0463 17.8664 15.5714 17.8664 15.2785 17.5736C14.669 16.9643 13.8425 16.622 12.9807 16.622Z" fill="#3B3B3B"/>
</svg>
