<svg width="25" height="25" viewBox="0 0 25 25" fill="none" xmlns="http://www.w3.org/2000/svg">
<path fill-rule="evenodd" clip-rule="evenodd" d="M12.8719 4.62119C10.6839 4.62119 8.58549 5.49038 7.03832 7.03755C5.49114 8.58473 4.62195 10.6831 4.62195 12.8712C4.62195 13.9546 4.83534 15.0274 5.24994 16.0283C5.66454 17.0293 6.27223 17.9387 7.03832 18.7048C7.8044 19.4709 8.71387 20.0786 9.71481 20.4932C10.7157 20.9078 11.7885 21.1212 12.8719 21.1212C13.9554 21.1212 15.0281 20.9078 16.0291 20.4932C17.03 20.0786 17.9395 19.4709 18.7056 18.7048C19.4717 17.9387 20.0794 17.0293 20.494 16.0283C20.9086 15.0274 21.1219 13.9546 21.1219 12.8712C21.1219 10.6831 20.2528 8.58473 18.7056 7.03755C17.1584 5.49038 15.06 4.62119 12.8719 4.62119ZM5.97766 5.97689C7.80614 4.14841 10.2861 3.12119 12.8719 3.12119C15.4578 3.12119 17.9378 4.14841 19.7662 5.97689C21.5947 7.80537 22.6219 10.2853 22.6219 12.8712C22.6219 14.1516 22.3698 15.4194 21.8798 16.6023C21.3898 17.7853 20.6716 18.8601 19.7662 19.7655C18.8609 20.6708 17.786 21.389 16.6031 21.879C15.4202 22.369 14.1523 22.6212 12.8719 22.6212C11.5916 22.6212 10.3237 22.369 9.14078 21.879C7.95786 21.389 6.88303 20.6708 5.97766 19.7655C5.07229 18.8601 4.35411 17.7853 3.86412 16.6023C3.37414 15.4194 3.12195 14.1516 3.12195 12.8712C3.12195 10.2853 4.14918 7.80537 5.97766 5.97689ZM9.12195 10.8712C9.12195 10.457 9.45773 10.1212 9.87195 10.1212H9.88195C10.2962 10.1212 10.6319 10.457 10.6319 10.8712C10.6319 11.2854 10.2962 11.6212 9.88195 11.6212H9.87195C9.45773 11.6212 9.12195 11.2854 9.12195 10.8712ZM15.1219 10.8712C15.1219 10.457 15.4577 10.1212 15.8719 10.1212H15.8819C16.2962 10.1212 16.6319 10.457 16.6319 10.8712C16.6319 11.2854 16.2962 11.6212 15.8819 11.6212H15.8719C15.4577 11.6212 15.1219 11.2854 15.1219 10.8712ZM9.51354 15.1689C9.80639 14.876 10.2813 14.8759 10.5742 15.1688C11.1837 15.7781 12.0102 16.1203 12.8719 16.1203C13.7337 16.1203 14.5602 15.7781 15.1697 15.1688C15.4626 14.8759 15.9375 14.876 16.2304 15.1689C16.5232 15.4619 16.5231 15.9367 16.2302 16.2296C15.3394 17.1201 14.1315 17.6203 12.8719 17.6203C11.6124 17.6203 10.4045 17.1201 9.5137 16.2296C9.22076 15.9367 9.22069 15.4619 9.51354 15.1689Z" fill="#3B3B3B"/>
</svg>
