<svg width="25" height="25" viewBox="0 0 25 25" fill="none" xmlns="http://www.w3.org/2000/svg">
<path fill-rule="evenodd" clip-rule="evenodd" d="M9.72752 4.60527C10.7862 2.77246 13.4317 2.77246 14.4904 4.60527L21.4184 16.6053C21.4184 16.6052 21.4184 16.6053 21.4184 16.6053C22.4771 18.4383 21.1543 20.7304 19.037 20.7304H5.18096C3.06366 20.7304 1.74074 18.4385 2.79943 16.6054C2.79941 16.6055 2.79946 16.6054 2.79943 16.6054L9.72752 4.60527ZM11.0264 5.35556L4.09848 17.3554C3.61734 18.1884 4.21832 19.2304 5.18096 19.2304H19.037C19.9996 19.2304 20.6007 18.1885 20.1195 17.3556L13.1915 5.35556C13.1915 5.35551 13.1916 5.35561 13.1915 5.35556C12.7102 4.52252 11.5077 4.52242 11.0264 5.35556ZM12.109 9.23042C12.5232 9.23042 12.859 9.5662 12.859 9.98042V11.9804C12.859 12.3946 12.5232 12.7304 12.109 12.7304C11.6947 12.7304 11.359 12.3946 11.359 11.9804V9.98042C11.359 9.5662 11.6947 9.23042 12.109 9.23042ZM11.359 15.9804C11.359 15.5662 11.6947 15.2304 12.109 15.2304H12.119C12.5332 15.2304 12.869 15.5662 12.869 15.9804C12.869 16.3946 12.5332 16.7304 12.119 16.7304H12.109C11.6947 16.7304 11.359 16.3946 11.359 15.9804Z" fill="#3B3B3B"/>
</svg>
