<svg width="16" height="16" viewBox="0 0 16 16" fill="none" xmlns="http://www.w3.org/2000/svg">
<g id="exclamation-filled">
<path id="Icon" fill-rule="evenodd" clip-rule="evenodd" d="M6.60548 2.816C7.21748 1.728 8.78308 1.728 9.39428 2.816L13.8583 10.752C14.4583 11.8192 13.6879 13.136 12.4647 13.136H3.53588C2.31188 13.136 1.54148 11.8192 2.14148 10.752L6.60548 2.816ZM8.79988 10.7368C8.79988 10.949 8.71559 11.1525 8.56556 11.3025C8.41554 11.4525 8.21205 11.5368 7.99988 11.5368C7.78771 11.5368 7.58422 11.4525 7.43419 11.3025C7.28416 11.1525 7.19988 10.949 7.19988 10.7368C7.19988 10.5246 7.28416 10.3211 7.43419 10.1711C7.58422 10.0211 7.78771 9.9368 7.99988 9.9368C8.21205 9.9368 8.41554 10.0211 8.56556 10.1711C8.71559 10.3211 8.79988 10.5246 8.79988 10.7368V10.7368ZM7.99988 4.3368C7.78771 4.3368 7.58422 4.42109 7.43419 4.57111C7.28416 4.72114 7.19988 4.92463 7.19988 5.1368V7.5368C7.19988 7.74897 7.28416 7.95246 7.43419 8.10249C7.58422 8.25251 7.78771 8.3368 7.99988 8.3368C8.21205 8.3368 8.41554 8.25251 8.56556 8.10249C8.71559 7.95246 8.79988 7.74897 8.79988 7.5368V5.1368C8.79988 4.92463 8.71559 4.72114 8.56556 4.57111C8.41554 4.42109 8.21205 4.3368 7.99988 4.3368Z" fill="#3B3B3B"/>
</g>
</svg>
