<svg width="24" height="25" viewBox="0 0 24 25" fill="none" xmlns="http://www.w3.org/2000/svg">
<path fill-rule="evenodd" clip-rule="evenodd" d="M11.9999 4.73067C9.81184 4.73067 7.71342 5.59986 6.16625 7.14704C4.61907 8.69421 3.74988 10.7926 3.74988 12.9807C3.74988 14.0641 3.96327 15.1369 4.37787 16.1378C4.79247 17.1387 5.40016 18.0482 6.16625 18.8143C6.93233 19.5804 7.8418 20.1881 8.84274 20.6027C9.84367 21.0173 10.9165 21.2307 11.9999 21.2307C13.0833 21.2307 14.1561 21.0173 15.157 20.6027C16.158 20.1881 17.0674 19.5804 17.8335 18.8143C18.5996 18.0482 19.2073 17.1387 19.6219 16.1378C20.0365 15.1369 20.2499 14.0641 20.2499 12.9807C20.2499 10.7926 19.3807 8.69421 17.8335 7.14704C16.2863 5.59986 14.1879 4.73067 11.9999 4.73067ZM5.10559 6.08638C6.93407 4.2579 9.41402 3.23067 11.9999 3.23067C14.5857 3.23067 17.0657 4.2579 18.8942 6.08638C20.7226 7.91486 21.7499 10.3948 21.7499 12.9807C21.7499 14.2611 21.4977 15.5289 21.0077 16.7118C20.5177 17.8948 19.7995 18.9696 18.8942 19.875C17.9888 20.7803 16.914 21.4985 15.731 21.9885C14.5481 22.4785 13.2803 22.7307 11.9999 22.7307C10.7195 22.7307 9.45164 22.4785 8.26871 21.9885C7.08579 21.4985 6.01096 20.7803 5.10559 19.875C4.20022 18.9696 3.48204 17.8948 2.99205 16.7118C2.50207 15.5289 2.24988 14.2611 2.24988 12.9807C2.24988 10.3948 3.27711 7.91486 5.10559 6.08638ZM11.9999 8.23067C12.4141 8.23067 12.7499 8.56645 12.7499 8.98067V12.9807C12.7499 13.3949 12.4141 13.7307 11.9999 13.7307C11.5857 13.7307 11.2499 13.3949 11.2499 12.9807V8.98067C11.2499 8.56645 11.5857 8.23067 11.9999 8.23067ZM11.2499 16.9807C11.2499 16.5665 11.5857 16.2307 11.9999 16.2307H12.0099C12.4241 16.2307 12.7599 16.5665 12.7599 16.9807C12.7599 17.3949 12.4241 17.7307 12.0099 17.7307H11.9999C11.5857 17.7307 11.2499 17.3949 11.2499 16.9807Z" fill="#3B3B3B"/>
</svg>
