<svg width="24" height="25" viewBox="0 0 24 25" fill="none" xmlns="http://www.w3.org/2000/svg">
<path fill-rule="evenodd" clip-rule="evenodd" d="M2.25 6.65234C2.25 6.23813 2.58579 5.90234 3 5.90234H11C11.4142 5.90234 11.75 6.23813 11.75 6.65234C11.75 7.06656 11.4142 7.40234 11 7.40234H3C2.58579 7.40234 2.25 7.06656 2.25 6.65234ZM15.8216 7.10405C16.1244 6.82143 16.599 6.83779 16.8816 7.1406L21.5483 12.1406C21.8172 12.4288 21.8172 12.8759 21.5483 13.1641L16.8816 18.1641C16.599 18.4669 16.1244 18.4833 15.8216 18.2006C15.5188 17.918 15.5024 17.4434 15.785 17.1406L19.2741 13.4023H3C2.58579 13.4023 2.25 13.0666 2.25 12.6523C2.25 12.2381 2.58579 11.9023 3 11.9023H19.2741L15.785 8.16408C15.5024 7.86127 15.5188 7.38668 15.8216 7.10405ZM2.25 18.6523C2.25 18.2381 2.58579 17.9023 3 17.9023H11C11.4142 17.9023 11.75 18.2381 11.75 18.6523C11.75 19.0666 11.4142 19.4023 11 19.4023H3C2.58579 19.4023 2.25 19.0666 2.25 18.6523Z" fill="#3B3B3B"/>
</svg>
