<svg width="25" height="25" viewBox="0 0 25 25" fill="none" xmlns="http://www.w3.org/2000/svg">
<path fill-rule="evenodd" clip-rule="evenodd" d="M3.6831 12.9807C4.92903 16.6175 8.3788 19.2307 12.4358 19.2307C16.4937 19.2307 19.9426 16.6175 21.1885 12.9807C19.9426 9.34393 16.4937 6.73073 12.4358 6.73073C8.3788 6.73073 4.92903 9.34397 3.6831 12.9807ZM2.17825 12.756C3.54761 8.39536 7.62188 5.23073 12.4358 5.23073C17.2508 5.23073 21.324 8.3954 22.6933 12.756C22.7393 12.9023 22.7393 13.0591 22.6933 13.2054C21.324 17.5661 17.2508 20.7307 12.4358 20.7307C7.62188 20.7307 3.54761 17.5661 2.17825 13.2054C2.13232 13.0591 2.13232 12.9023 2.17825 12.756ZM12.4358 10.7297C11.839 10.7297 11.2668 10.9668 10.8448 11.3887C10.4228 11.8107 10.1858 12.383 10.1858 12.9797C10.1858 13.5764 10.4228 14.1487 10.8448 14.5707C11.2668 14.9926 11.839 15.2297 12.4358 15.2297C13.0325 15.2297 13.6048 14.9926 14.0268 14.5707C14.4487 14.1487 14.6858 13.5764 14.6858 12.9797C14.6858 12.383 14.4487 11.8107 14.0268 11.3887C13.6048 10.9668 13.0325 10.7297 12.4358 10.7297ZM9.78414 10.3281C10.4874 9.62479 11.4412 9.2297 12.4358 9.2297C13.4303 9.2297 14.3842 9.62479 15.0874 10.3281C15.7907 11.0313 16.1858 11.9851 16.1858 12.9797C16.1858 13.9743 15.7907 14.9281 15.0874 15.6314C14.3842 16.3346 13.4303 16.7297 12.4358 16.7297C11.4412 16.7297 10.4874 16.3346 9.78414 15.6314C9.08087 14.9281 8.68579 13.9743 8.68579 12.9797C8.68579 11.9851 9.08087 11.0313 9.78414 10.3281Z" fill="#3B3B3B"/>
</svg>
