<svg width="24" height="24" viewBox="0 0 24 24" fill="none" xmlns="http://www.w3.org/2000/svg">
<g clip-path="url(#clip0_3596_5570)">
<rect width="24" height="24" fill="#337FFF"/>
<path d="M14.9363 12.7812L15.2782 10.6086H13.1718V9.19637C13.1718 8.60229 13.4659 8.02179 14.4062 8.02179H15.3774V6.17164C14.8118 6.08146 14.2404 6.03267 13.6676 6.02567C11.9339 6.02567 10.8021 7.06786 10.8021 8.95195V10.6086H8.88028V12.7812H10.8021V18.0363H13.1718V12.7812H14.9363Z" fill="white"/>
</g>
<defs>
<clipPath id="clip0_3596_5570">
<path d="M0 1C0 0.447716 0.447715 0 1 0H23C23.5523 0 24 0.447715 24 1V23C24 23.5523 23.5523 24 23 24H1C0.447716 24 0 23.5523 0 23V1Z" fill="white"/>
</clipPath>
</defs>
</svg>
