<svg width="25" height="25" viewBox="0 0 25 25" fill="none" xmlns="http://www.w3.org/2000/svg">
<path fill-rule="evenodd" clip-rule="evenodd" d="M5.7623 7.41553C6.05298 7.27018 6.3784 7.20866 6.70208 7.23785C7.02576 7.26703 7.33492 7.38578 7.59492 7.58077L7.59494 7.58079L12.7949 11.481V8.98077C12.7949 8.65578 12.8854 8.3372 13.0563 8.06075C13.2271 7.78429 13.4716 7.56087 13.7623 7.41553C14.053 7.27018 14.3784 7.20866 14.7021 7.23785C15.0258 7.26703 15.3349 7.38578 15.5949 7.58077L15.5949 7.58079L20.9279 11.5808C20.9279 11.5808 20.9279 11.5808 20.9279 11.5808C21.1453 11.7438 21.3217 11.9552 21.4432 12.1982C21.5647 12.4411 21.6279 12.7091 21.6279 12.9808C21.6279 13.2525 21.5647 13.5204 21.4432 13.7634C21.3217 14.0064 21.1453 14.2178 20.9279 14.3808C20.9279 14.3808 20.9279 14.3808 20.9279 14.3808L15.5949 18.3808L15.5949 18.3808C15.3349 18.5758 15.0258 18.6945 14.7021 18.7237C14.3784 18.7529 14.053 18.6914 13.7623 18.546C13.4716 18.4007 13.2271 18.1773 13.0563 17.9008C12.8854 17.6243 12.7949 17.3058 12.7949 16.9808V14.4805L7.59494 18.3808L7.59492 18.3808C7.33493 18.5758 7.02577 18.6945 6.70208 18.7237C6.37839 18.7529 6.05298 18.6914 5.7623 18.546C5.47162 18.4007 5.22715 18.1773 5.05628 17.9008C4.88542 17.6243 4.79492 17.3058 4.79492 16.9808V8.98077C4.79492 8.65578 4.88542 8.3372 5.05628 8.06075C5.22714 7.78429 5.47161 7.56087 5.7623 7.41553ZM6.56737 8.73178C6.52113 8.72762 6.47464 8.7364 6.43312 8.75717C6.39159 8.77793 6.35667 8.80985 6.33226 8.84934C6.30785 8.88884 6.29492 8.93435 6.29492 8.98077V16.9808C6.29492 17.0272 6.30785 17.0727 6.33226 17.1122C6.35667 17.1517 6.39159 17.1836 6.43312 17.2044C6.47465 17.2251 6.52114 17.2339 6.56737 17.2298C6.61361 17.2256 6.65778 17.2086 6.69492 17.1808L12.0279 13.1808L12.0279 13.1808C12.059 13.1575 12.0842 13.1273 12.1015 13.0926C12.1189 13.0579 12.1279 13.0196 12.1279 12.9808C12.1279 12.942 12.1189 12.9037 12.1015 12.869C12.0842 12.8343 12.059 12.8041 12.0279 12.7808L12.0279 12.7808L6.69492 8.78077C6.69492 8.78077 6.69491 8.78077 6.6949 8.78076C6.65777 8.75291 6.61361 8.73595 6.56737 8.73178ZM14.5674 8.73178C14.5211 8.72762 14.4746 8.7364 14.4331 8.75717C14.3916 8.77793 14.3567 8.80985 14.3323 8.84934C14.3078 8.88884 14.2949 8.93435 14.2949 8.98077V16.9808C14.2949 17.0272 14.3079 17.0727 14.3323 17.1122C14.3567 17.1517 14.3916 17.1836 14.4331 17.2044C14.4746 17.2251 14.5211 17.2339 14.5674 17.2298C14.6136 17.2256 14.6578 17.2086 14.6949 17.1808C14.6949 17.1808 14.6949 17.1808 14.6949 17.1808L20.0279 13.1808L20.0279 13.1808C20.059 13.1575 20.0842 13.1273 20.1015 13.0926C20.1189 13.0579 20.1279 13.0196 20.1279 12.9808C20.1279 12.942 20.1189 12.9037 20.1015 12.869C20.0842 12.8343 20.059 12.8041 20.0279 12.7808L20.0279 12.7808L14.6949 8.78077C14.6949 8.78077 14.6949 8.78077 14.6949 8.78076C14.6578 8.75291 14.6136 8.73595 14.5674 8.73178Z" fill="#3B3B3B"/>
</svg>
