<svg width="25" height="25" viewBox="0 0 25 25" fill="none" xmlns="http://www.w3.org/2000/svg">
<path fill-rule="evenodd" clip-rule="evenodd" d="M4.7627 4.73067C4.69639 4.73067 4.6328 4.75701 4.58592 4.80389C4.53903 4.85077 4.5127 4.91436 4.5127 4.98067V7.56651C4.5127 7.56645 4.5127 7.56656 4.5127 7.56651C4.51275 7.63275 4.5391 7.69642 4.58595 7.74326L10.9999 14.1573C10.9999 14.1572 11 14.1573 10.9999 14.1573C11.3281 14.4854 11.5126 14.9305 11.5127 15.3945V20.17L14.0127 17.67V15.3947C14.0128 14.9306 14.1972 14.4854 14.5254 14.1573C14.5253 14.1574 14.5254 14.1573 14.5254 14.1573L20.9394 7.74334C20.9862 7.6965 21.0126 7.63291 21.0127 7.56667C21.0127 7.56661 21.0127 7.56672 21.0127 7.56667V4.98067C21.0127 4.91436 20.9864 4.85077 20.9395 4.80389C20.8926 4.75701 20.829 4.73067 20.7627 4.73067H4.7627ZM3.52526 3.74323C3.85345 3.41504 4.29857 3.23067 4.7627 3.23067H20.7627C21.2268 3.23067 21.6719 3.41504 22.0001 3.74323C22.3283 4.07142 22.5127 4.51654 22.5127 4.98067V7.56667C22.5126 8.03072 22.3282 8.47589 22 8.804C22 8.80402 22.0001 8.80397 22 8.804L15.586 15.218C15.5392 15.2648 15.5127 15.3284 15.5127 15.3947C15.5127 15.3946 15.5127 15.3947 15.5127 15.3947V17.9807C15.5127 18.1796 15.4337 18.3703 15.293 18.511L11.293 22.511C11.0785 22.7255 10.7559 22.7897 10.4757 22.6736C10.1954 22.5575 10.0127 22.284 10.0127 21.9807V15.3948C10.0127 15.3948 10.0127 15.3949 10.0127 15.3948C10.0126 15.3286 9.98629 15.2649 9.93944 15.2181L3.52545 8.80408C3.52542 8.80405 3.52547 8.8041 3.52545 8.80408C3.19728 8.47597 3.01279 8.03088 3.0127 7.56683V4.98067C3.0127 4.51654 3.19707 4.07142 3.52526 3.74323Z" fill="#3B3B3B"/>
</svg>
