<svg width="25" height="25" viewBox="0 0 25 25" fill="none" xmlns="http://www.w3.org/2000/svg">
<path d="M14.28 22.46C14.163 22.4609 14.0471 22.437 13.94 22.39C13.7646 22.3001 13.6317 22.1448 13.5699 21.9576C13.5082 21.7705 13.5226 21.5666 13.61 21.39C14.2024 20.1999 14.6844 18.9581 15.05 17.68C15.0691 17.5779 15.1093 17.4809 15.1679 17.3951C15.2265 17.3093 15.3023 17.2367 15.3905 17.1817C15.4787 17.1268 15.5773 17.0908 15.6801 17.076C15.7829 17.0611 15.8877 17.0679 15.9878 17.0957C16.0879 17.1235 16.1812 17.1718 16.2616 17.2375C16.3421 17.3032 16.408 17.385 16.4552 17.4775C16.5024 17.57 16.5299 17.6714 16.5359 17.7751C16.5419 17.8788 16.5262 17.9826 16.49 18.08C16.109 19.4606 15.5932 20.8004 14.95 22.08C14.8831 22.198 14.7854 22.2957 14.6675 22.3626C14.5495 22.4295 14.4156 22.4632 14.28 22.46ZM9.84996 22.19C9.70927 22.1891 9.57134 22.1512 9.45 22.08C9.29197 21.9737 9.17956 21.8119 9.13512 21.6268C9.09067 21.4416 9.11738 21.2464 9.20995 21.08C10.9402 18.3349 11.8557 15.1549 11.85 11.91C11.85 11.7111 11.929 11.5203 12.0696 11.3797C12.2103 11.239 12.401 11.16 12.6 11.16C12.7989 11.16 12.9896 11.239 13.1303 11.3797C13.2709 11.5203 13.35 11.7111 13.35 11.91C13.3607 15.448 12.3653 18.9161 10.48 21.91C10.402 21.9977 10.304 22.0653 10.1943 22.1071C10.0847 22.1489 9.96653 22.1636 9.84996 22.15V22.19ZM6.40996 20.19C6.27345 20.1914 6.13895 20.1569 6.01994 20.09C5.85854 19.9868 5.7421 19.8264 5.69389 19.641C5.64568 19.4556 5.66931 19.2588 5.76 19.09L5.81999 19C7.136 16.881 7.82908 14.4344 7.81999 11.94C7.8195 11.0002 8.09777 10.0813 8.61968 9.29973C9.14158 8.51814 9.88362 7.90894 10.7519 7.54922C11.6201 7.1895 12.5756 7.09543 13.4974 7.27891C14.4191 7.4624 15.2657 7.9152 15.93 8.58C16.8151 9.47498 17.3142 10.6813 17.32 11.94C17.3198 12.9769 17.2496 14.0126 17.11 15.04C17.099 15.1381 17.0683 15.233 17.0196 15.3189C16.971 15.4047 16.9054 15.4799 16.8269 15.5397C16.7484 15.5995 16.6585 15.6428 16.5628 15.6669C16.4671 15.691 16.3674 15.6955 16.2699 15.68C16.1721 15.6677 16.0776 15.6361 15.9919 15.5872C15.9062 15.5383 15.8311 15.4729 15.7707 15.3949C15.7103 15.3168 15.6659 15.2277 15.64 15.1325C15.6141 15.0372 15.6074 14.9379 15.62 14.84C15.7513 13.8789 15.8181 12.91 15.82 11.94C15.8207 11.2966 15.6305 10.6676 15.2735 10.1324C14.9164 9.59724 14.4085 9.18009 13.8142 8.93379C13.2199 8.68749 12.5658 8.62313 11.9349 8.74884C11.3039 8.87456 10.7245 9.18471 10.2699 9.64C9.95922 9.93802 9.71084 10.2948 9.53917 10.6897C9.3675 11.0845 9.27597 11.5095 9.26994 11.94C9.27699 14.715 8.49309 17.4346 7.00999 19.78V19.86C6.93514 19.944 6.84231 20.0101 6.73845 20.0534C6.63459 20.0967 6.52232 20.116 6.40996 20.11V20.19ZM19.61 19.79C19.5403 19.7997 19.4696 19.7997 19.3999 19.79C19.3058 19.7635 19.2178 19.7186 19.1411 19.6579C19.0644 19.5973 19.0005 19.5219 18.953 19.4364C18.9056 19.3508 18.8756 19.2567 18.8648 19.1595C18.854 19.0623 18.8625 18.9639 18.8899 18.87C19.5427 16.6175 19.8793 14.2852 19.8899 11.94C19.878 10.6668 19.5333 9.4188 18.8899 8.32C18.2539 7.21386 17.3361 6.29604 16.23 5.65999C15.1312 5.01666 13.8832 4.67192 12.61 4.65999C11.3337 4.67295 10.0828 5.01756 8.97997 5.65999C8.81054 5.75222 8.61212 5.77564 8.42589 5.72535C8.23966 5.67507 8.07994 5.55496 7.97997 5.39C7.89019 5.22006 7.8681 5.02242 7.9182 4.83687C7.9683 4.65132 8.08688 4.49165 8.24999 4.39C9.58148 3.62109 11.0924 3.21748 12.63 3.22C14.1643 3.21782 15.672 3.62147 17 4.39C18.3314 5.15753 19.4372 6.26219 20.2061 7.59284C20.975 8.92349 21.3799 10.4332 21.38 11.97C21.3892 14.4512 21.0526 16.9217 20.38 19.31C20.3101 19.4492 20.198 19.5629 20.0597 19.6347C19.9215 19.7065 19.7641 19.7329 19.61 19.71V19.79ZM3.60997 17.02C3.49618 17.021 3.38353 16.9971 3.27995 16.95C3.10109 16.8636 2.96379 16.7098 2.89818 16.5224C2.83256 16.3349 2.84401 16.1291 2.92998 15.95C3.53971 14.7046 3.85775 13.3367 3.85997 11.95C3.85636 10.4155 4.26009 8.90745 5.02995 7.58C5.1265 7.41139 5.28548 7.28752 5.47258 7.23513C5.65968 7.18275 5.85989 7.20604 6.02995 7.29999C6.19663 7.39835 6.31884 7.55733 6.37102 7.74369C6.4232 7.93006 6.40135 8.12938 6.30998 8.29999C5.66094 9.39638 5.31576 10.6459 5.30998 11.92C5.31506 13.5455 4.94548 15.1504 4.22997 16.61C4.1618 16.7141 4.06814 16.7991 3.95787 16.8569C3.8476 16.9147 3.7244 16.9433 3.59996 16.94L3.60997 17.02Z" fill="#3B3B3B"/>
</svg>
