<svg width="25" height="25" viewBox="0 0 25 25" fill="none" xmlns="http://www.w3.org/2000/svg">
<path fill-rule="evenodd" clip-rule="evenodd" d="M12.4965 3.39631C12.7941 3.15689 13.2241 3.17936 13.4952 3.4485C14.445 4.39169 15.4163 5.05125 16.3827 5.68891C16.4433 5.72887 16.504 5.76884 16.5648 5.80888C17.4582 6.39708 18.3728 6.9992 19.1666 7.79296C19.9806 8.60465 20.6261 9.56919 21.0661 10.6311C21.5061 11.693 21.7319 12.8312 21.7307 13.9806C21.7321 15.1299 21.5064 16.2681 21.0666 17.33C20.6269 18.3918 19.9816 19.3563 19.168 20.168C17.527 21.809 15.3014 22.7309 12.9807 22.7309C10.66 22.7309 8.43433 21.809 6.79334 20.168C5.15236 18.527 4.23047 16.3014 4.23047 13.9807C4.23047 11.66 5.15236 9.43432 6.79334 7.79334C6.9719 7.61479 7.22831 7.53807 7.47558 7.58922C7.7214 7.64006 7.92538 7.81047 8.01921 8.04308C8.01961 8.04407 8.02001 8.04507 8.02041 8.04606C8.02044 8.04616 8.02048 8.04626 8.02052 8.04635C8.02057 8.04646 8.02061 8.04658 8.02065 8.04669C8.02065 8.04669 8.02065 8.04668 8.02065 8.04668L8.02052 8.04635L8.02045 8.04617L8.02041 8.04606L8.02008 8.04525L8.01952 8.04385L8.02101 8.04735C8.02357 8.05331 8.02866 8.06499 8.03646 8.08184C8.05207 8.11558 8.07841 8.16983 8.11667 8.24029C8.19334 8.38147 8.31696 8.58599 8.49694 8.82028C8.69433 9.07722 8.95811 9.36828 9.30113 9.65125C9.51433 7.66135 10.28 5.17953 12.4965 3.39631ZM7.20539 9.59753C6.25388 10.8512 5.73047 12.389 5.73047 13.9807C5.73047 15.9035 6.49433 17.7477 7.854 19.1073C9.21368 20.467 11.0578 21.2309 12.9807 21.2309C14.9035 21.2309 16.7477 20.467 18.1073 19.1073L18.108 19.1067C18.782 18.4344 19.3165 17.6355 19.6808 16.756C20.0451 15.8765 20.2319 14.9336 20.2307 13.9817V13.9798C20.2318 13.0277 20.0448 12.0849 19.6804 11.2053C19.3159 10.3258 18.7813 9.52698 18.1071 8.85477L18.1063 8.854C17.4243 8.17197 16.6302 7.64855 15.7043 7.0383C15.6554 7.0061 15.6062 6.97366 15.5566 6.94094C14.7391 6.40155 13.8461 5.80111 12.9507 4.99675C11.1408 6.77041 10.7307 9.21838 10.7307 10.9807C10.7307 11.2406 10.5961 11.482 10.375 11.6187C10.1539 11.7553 9.87776 11.7677 9.64526 11.6515C8.52414 11.0909 7.77609 10.3442 7.30741 9.73407C7.27183 9.68776 7.23784 9.6422 7.20539 9.59753ZM21.7307 13.9806C21.7307 13.9809 21.7307 13.9812 21.7307 13.9816L20.9807 13.9807L21.7307 13.9797C21.7307 13.98 21.7307 13.9803 21.7307 13.9806ZM12.2853 11.7394C12.3888 11.4335 12.6764 11.2282 12.9993 11.2298C13.6153 11.2327 14.221 11.3873 14.763 11.68C15.305 11.9726 15.7666 12.3943 16.1069 12.9077C16.4472 13.421 16.6559 14.0104 16.7144 14.6235C16.7729 15.2367 16.6795 15.8548 16.4423 16.4233C16.2052 16.9918 15.8317 17.4931 15.3548 17.883C14.878 18.2728 14.3124 18.5392 13.7081 18.6586C13.1039 18.778 12.4795 18.7467 11.8902 18.5675C11.3009 18.3882 10.7648 18.0666 10.3293 17.631C9.59688 16.8995 9.23073 15.9382 9.23073 14.9797C9.23073 14.5655 9.56652 14.2297 9.98073 14.2297H11.4427L12.2853 11.7394ZM13.5123 12.7932L12.6912 15.2201C12.5881 15.5247 12.3023 15.7297 11.9807 15.7297H10.8586C10.9669 16.0368 11.1439 16.3247 11.3896 16.57L11.3901 16.5705C11.6514 16.8318 11.9731 17.0248 12.3267 17.1324C12.6802 17.2399 13.0549 17.2587 13.4174 17.187C13.78 17.1154 14.1193 16.9556 14.4054 16.7217C14.6916 16.4878 14.9157 16.187 15.0579 15.8459C15.2002 15.5048 15.2563 15.1339 15.2212 14.766C15.1861 14.3981 15.0609 14.0445 14.8567 13.7365C14.6525 13.4284 14.3755 13.1755 14.0503 12.9999C13.8799 12.9079 13.699 12.8386 13.5123 12.7932Z" fill="#3B3B3B"/>
</svg>
