<svg width="24" height="25" viewBox="0 0 24 25" fill="none" xmlns="http://www.w3.org/2000/svg">
<path fill-rule="evenodd" clip-rule="evenodd" d="M4.99988 3.84073C4.66836 3.84073 4.35041 3.97242 4.11599 4.20685C3.88157 4.44127 3.74988 4.75921 3.74988 5.09073V14.6412C4.13343 14.4455 4.56125 14.3407 4.99988 14.3407H11.4999C11.6988 14.3407 11.8896 14.4197 12.0302 14.5604L12.8105 15.3407H19.7864L17.3291 10.4261C17.2235 10.215 17.2235 9.96646 17.3291 9.75532L19.7864 4.84073H12.7499V9.09073C12.7499 9.50494 12.4141 9.84073 11.9999 9.84073C11.5857 9.84073 11.2499 9.50494 11.2499 9.09073V3.90139L11.1892 3.84073H4.99988ZM12.5298 3.06L12.0302 2.5604C11.8896 2.41975 11.6988 2.34073 11.4999 2.34073H4.99988C4.27053 2.34073 3.57106 2.63046 3.05533 3.14618C2.53961 3.66191 2.24988 4.36138 2.24988 5.09073V21.0907C2.24988 21.5049 2.58566 21.8407 2.99988 21.8407C3.41409 21.8407 3.74988 21.5049 3.74988 21.0907V17.0907C3.74988 16.7592 3.88157 16.4413 4.11599 16.2068C4.35041 15.9724 4.66836 15.8407 4.99988 15.8407H11.1892L11.9695 16.6211C12.1102 16.7617 12.301 16.8407 12.4999 16.8407H20.9999C21.2598 16.8407 21.5012 16.7061 21.6379 16.485C21.7745 16.2639 21.7869 15.9878 21.6707 15.7553L18.8384 10.0907L21.6707 4.42614C21.7869 4.19365 21.7745 3.91754 21.6379 3.69643C21.5012 3.47532 21.2598 3.34073 20.9999 3.34073H12.8105L12.5306 3.0608C12.5303 3.06053 12.5301 3.06027 12.5298 3.06Z" fill="#3B3B3B"/>
</svg>
