<svg width="25" height="25" viewBox="0 0 25 25" fill="none" xmlns="http://www.w3.org/2000/svg">
<path fill-rule="evenodd" clip-rule="evenodd" d="M5.21765 5.84076C4.88613 5.84076 4.56819 5.97246 4.33377 6.20688C4.09935 6.4413 3.96765 6.75924 3.96765 7.09076V17.0908C3.96765 17.4223 4.09935 17.7402 4.33377 17.9746C4.56819 18.2091 4.88613 18.3408 5.21765 18.3408H19.2176C19.5492 18.3408 19.8671 18.2091 20.1015 17.9746C20.336 17.7402 20.4676 17.4223 20.4676 17.0908V9.09076C20.4676 8.75924 20.336 8.4413 20.1015 8.20688C19.8671 7.97246 19.5492 7.84076 19.2176 7.84076H13.2177C13.0187 7.84076 12.828 7.76174 12.6873 7.62109L10.907 5.84076H5.21765ZM3.27311 5.14622C3.78883 4.63049 4.48831 4.34076 5.21765 4.34076H11.2177C11.4166 4.34076 11.6073 4.41978 11.748 4.56043L13.5283 6.34076H19.2176C19.947 6.34076 20.6465 6.63049 21.1622 7.14622C21.6779 7.66194 21.9676 8.36141 21.9676 9.09076V17.0908C21.9676 17.8201 21.6779 18.5196 21.1622 19.0353C20.6465 19.551 19.947 19.8408 19.2176 19.8408H5.21765C4.48831 19.8408 3.78883 19.551 3.27311 19.0353C2.75738 18.5196 2.46765 17.8201 2.46765 17.0908V7.09076C2.46765 6.36141 2.75738 5.66194 3.27311 5.14622ZM12.2177 9.34076C12.6319 9.34076 12.9677 9.67655 12.9677 10.0908V14.2801L14.6873 12.5604C14.9802 12.2675 15.4551 12.2675 15.748 12.5604C16.0409 12.8533 16.0409 13.3282 15.748 13.6211L12.748 16.6211C12.6073 16.7617 12.4166 16.8408 12.2177 16.8408C12.0187 16.8408 11.828 16.7617 11.6873 16.6211L8.68732 13.6211C8.39443 13.3282 8.39443 12.8533 8.68732 12.5604C8.98021 12.2675 9.45509 12.2675 9.74798 12.5604L11.4677 14.2801V10.0908C11.4677 9.67655 11.8034 9.34076 12.2177 9.34076Z" fill="#3B3B3B"/>
</svg>
