<svg width="25" height="25" viewBox="0 0 25 25" fill="none" xmlns="http://www.w3.org/2000/svg">
<path fill-rule="evenodd" clip-rule="evenodd" d="M5.43579 5.84076C5.10427 5.84076 4.78633 5.97246 4.55191 6.20688C4.31749 6.4413 4.18579 6.75924 4.18579 7.09076V17.0908C4.18579 17.4223 4.31749 17.7402 4.55191 17.9746C4.78633 18.2091 5.10427 18.3408 5.43579 18.3408H19.4358C19.7673 18.3408 20.0853 18.2091 20.3197 17.9746C20.5541 17.7402 20.6858 17.4223 20.6858 17.0908V9.09076C20.6858 8.75924 20.5541 8.4413 20.3197 8.20688C20.0853 7.97246 19.7673 7.84076 19.4358 7.84076H13.4358C13.2369 7.84076 13.0461 7.76174 12.9055 7.62109L11.1251 5.84076H5.43579ZM3.49125 5.14622C4.00697 4.63049 4.70645 4.34076 5.43579 4.34076H11.4358C11.6347 4.34076 11.8255 4.41978 11.9661 4.56043L13.7464 6.34076H19.4358C20.1651 6.34076 20.8646 6.63049 21.3803 7.14622C21.8961 7.66194 22.1858 8.36141 22.1858 9.09076V17.0908C22.1858 17.8201 21.8961 18.5196 21.3803 19.0353C20.8646 19.551 20.1651 19.8408 19.4358 19.8408H5.43579C4.70645 19.8408 4.00697 19.551 3.49125 19.0353C2.97552 18.5196 2.68579 17.8201 2.68579 17.0908V7.09076C2.68579 6.36141 2.97552 5.66194 3.49125 5.14622ZM8.68579 13.0908C8.68579 12.6765 9.02158 12.3408 9.43579 12.3408H15.4358C15.85 12.3408 16.1858 12.6765 16.1858 13.0908C16.1858 13.505 15.85 13.8408 15.4358 13.8408H9.43579C9.02158 13.8408 8.68579 13.505 8.68579 13.0908Z" fill="#3B3B3B"/>
</svg>
