<svg width="25" height="25" viewBox="0 0 25 25" fill="none" xmlns="http://www.w3.org/2000/svg">
<path fill-rule="evenodd" clip-rule="evenodd" d="M5.32715 5.84076C4.99563 5.84076 4.67769 5.97246 4.44326 6.20688C4.20884 6.4413 4.07715 6.75924 4.07715 7.09076V17.0908C4.07715 17.4223 4.20884 17.7402 4.44326 17.9746C4.67769 18.2091 4.99563 18.3408 5.32715 18.3408C5.65867 18.3408 5.97661 18.2091 6.21103 17.9746C6.44545 17.7402 6.57715 17.4223 6.57715 17.0908V12.0908C6.57715 11.3614 6.86688 10.6619 7.3826 10.1462C7.89833 9.63049 8.5978 9.34076 9.32715 9.34076H16.5771V9.09076C16.5771 8.75924 16.4455 8.4413 16.211 8.20688C15.9766 7.97246 15.6587 7.84076 15.3271 7.84076H11.3271C11.1282 7.84076 10.9375 7.76174 10.7968 7.62109L9.01649 5.84076H5.32715ZM9.32715 10.8408C8.99563 10.8408 8.67768 10.9725 8.44326 11.2069C8.20884 11.4413 8.07715 11.7592 8.07715 12.0908V17.0908C8.07715 17.5294 7.97236 17.9572 7.77664 18.3408H19.3271C19.6587 18.3408 19.9766 18.2091 20.211 17.9746C20.4454 17.7402 20.5771 17.4223 20.5771 17.0908V12.0908C20.5771 11.7592 20.4454 11.4413 20.211 11.2069C19.9766 10.9725 19.6587 10.8408 19.3271 10.8408H9.32715ZM18.0771 9.34076V9.09076C18.0771 8.36141 17.7874 7.66194 17.2717 7.14622C16.756 6.63049 16.0565 6.34076 15.3271 6.34076H11.6378L9.85748 4.56043C9.71683 4.41978 9.52606 4.34076 9.32715 4.34076H5.32715C4.5978 4.34076 3.89833 4.63049 3.3826 5.14622C2.86688 5.66194 2.57715 6.36141 2.57715 7.09076V17.0908C2.57715 17.8201 2.86688 18.5196 3.3826 19.0353C3.89833 19.551 4.5978 19.8408 5.32715 19.8408H19.3271C20.0565 19.8408 20.756 19.551 21.2717 19.0353C21.7874 18.5196 22.0771 17.8201 22.0771 17.0908V12.0908C22.0771 11.3614 21.7874 10.6619 21.2717 10.1462C20.756 9.63049 20.0565 9.34076 19.3271 9.34076H18.0771Z" fill="#3B3B3B"/>
</svg>
