<svg width="24" height="24" viewBox="0 0 24 24" fill="none" xmlns="http://www.w3.org/2000/svg">
<path fill-rule="evenodd" clip-rule="evenodd" d="M5.27925 7.99997C5.27925 4.82435 7.8536 2.25 11.0292 2.25H13.2059C16.3815 2.25 18.9559 4.82435 18.9559 7.99997V9.71417C20.1478 10.2076 20.9864 11.382 20.9864 12.7523L20.9855 14.2748C20.9855 14.2746 20.9855 14.2749 20.9855 14.2748C20.9853 16.7463 19.1205 18.7828 16.7211 19.0531L17.3119 20.3203C17.487 20.6957 17.3246 21.1419 16.9492 21.317C16.5738 21.492 16.1275 21.3296 15.9525 20.9542L15.0802 19.0836H9.54868L8.67641 20.9542C8.50136 21.3296 8.05513 21.492 7.67972 21.317C7.30432 21.1419 7.14191 20.6957 7.31696 20.3203L7.8949 19.0809C5.31495 18.9944 3.25 16.8757 3.25 14.2748V12.7523C3.25 11.3825 4.08797 10.2084 5.27925 9.71469V7.99997ZM6.77924 9.47434C8.24774 9.58141 9.44845 10.6533 9.75031 12.0589H14.4861C14.7878 10.6537 15.988 9.58203 17.4559 9.47443V7.99997C17.4559 5.65278 15.5531 3.74999 13.2059 3.74999H11.0292C8.68202 3.74999 6.77924 5.65277 6.77924 7.99997V9.47434ZM14.4128 13.5589H9.82359V14.1984C9.82359 14.6126 9.4878 14.9484 9.07359 14.9484C8.65938 14.9484 8.32359 14.6126 8.32359 14.1984V12.7523C8.32359 11.7655 7.52361 10.9655 6.53679 10.9655C5.54997 10.9655 4.74999 11.7655 4.74999 12.7523V14.2748C4.74999 16.1022 6.23143 17.5836 8.05887 17.5836H16.1766C18.0041 17.5836 19.4855 16.1022 19.4855 14.2748L19.4864 12.7523C19.4864 11.7655 18.6864 10.9655 17.6996 10.9655C16.7128 10.9655 15.9128 11.7655 15.9128 12.7523V14.1984C15.9128 14.6126 15.577 14.9484 15.1628 14.9484C14.7486 14.9484 14.4128 14.6126 14.4128 14.1984V13.5589Z" fill="#3B3B3B"/>
</svg>
