<svg width="25" height="25" viewBox="0 0 25 25" fill="none" xmlns="http://www.w3.org/2000/svg">
<path fill-rule="evenodd" clip-rule="evenodd" d="M9.51976 2.40318C10.1502 2.27778 10.8037 2.34214 11.3975 2.58812C11.9914 2.83411 12.499 3.25067 12.8561 3.78513C12.8885 3.83361 12.9195 3.88286 12.9491 3.93282C13.1468 3.77664 13.3661 3.64753 13.6014 3.55006C14.1039 3.34192 14.6569 3.28746 15.1903 3.39357C15.7238 3.49968 16.2138 3.76159 16.5984 4.14619C16.9829 4.53078 17.2449 5.02078 17.351 5.55423C17.4571 6.08768 17.4026 6.64061 17.1945 7.14311C17.1666 7.21033 17.1362 7.27625 17.1033 7.34073H19.6538C20.3832 7.34073 21.0826 7.63046 21.5984 8.14619C22.1141 8.66191 22.4038 9.36138 22.4038 10.0907C22.4038 10.8201 22.1141 11.5195 21.5984 12.0353C21.2636 12.3701 20.8514 12.6096 20.4038 12.7365V19.0907C20.4038 19.8201 20.1141 20.5195 19.5984 21.0353C19.0826 21.551 18.3832 21.8407 17.6538 21.8407H7.65381C6.92446 21.8407 6.22499 21.551 5.70926 21.0353C5.19354 20.5195 4.90381 19.8201 4.90381 19.0907V12.7365C4.45626 12.6096 4.04405 12.3701 3.70926 12.0353C3.19354 11.5195 2.90381 10.8201 2.90381 10.0907C2.90381 9.36138 3.19354 8.66191 3.70926 8.14619C4.22499 7.63046 4.92446 7.34073 5.65381 7.34073H7.41519C7.31297 7.18077 7.22451 7.01144 7.1512 6.83445C6.90521 6.24059 6.84085 5.58713 6.96626 4.95669C7.09166 4.32625 7.40119 3.74715 7.85571 3.29263C8.31023 2.83811 8.88933 2.52858 9.51976 2.40318ZM10.1538 7.34073H11.9038V5.59073C11.9038 5.24461 11.8012 4.90627 11.6089 4.61848C11.4166 4.3307 11.1433 4.10639 10.8235 3.97394C10.5037 3.84149 10.1519 3.80683 9.8124 3.87436C9.47293 3.94188 9.16111 4.10855 8.91637 4.35329C8.67163 4.59804 8.50496 4.90986 8.43743 5.24932C8.36991 5.58879 8.40457 5.94066 8.53702 6.26043C8.66947 6.5802 8.89377 6.85351 9.18156 7.0458C9.46935 7.23809 9.80769 7.34073 10.1538 7.34073ZM13.4038 7.34073V6.09073C13.4038 5.8435 13.4771 5.60183 13.6145 5.39627C13.7518 5.19071 13.947 5.03049 14.1755 4.93588C14.4039 4.84127 14.6552 4.81652 14.8977 4.86475C15.1401 4.91298 15.3629 5.03203 15.5377 5.20685C15.7125 5.38166 15.8316 5.60439 15.8798 5.84687C15.928 6.08934 15.9033 6.34068 15.8087 6.56908C15.714 6.79749 15.5538 6.99271 15.3483 7.13007C15.1427 7.26742 14.901 7.34073 14.6538 7.34073H13.4038ZM6.40381 12.8407V19.0907C6.40381 19.4223 6.5355 19.7402 6.76992 19.9746C7.00435 20.209 7.32229 20.3407 7.65381 20.3407H11.9038V12.8407H6.40381ZM13.4038 12.8407V20.3407H17.6538C17.9853 20.3407 18.3033 20.209 18.5377 19.9746C18.7721 19.7402 18.9038 19.4223 18.9038 19.0907V12.8407H13.4038ZM13.4038 11.3407V8.84073H19.6538C19.9853 8.84073 20.3033 8.97243 20.5377 9.20685C20.7721 9.44127 20.9038 9.75921 20.9038 10.0907C20.9038 10.4223 20.7721 10.7402 20.5377 10.9746C20.3033 11.209 19.9853 11.3407 19.6538 11.3407H13.4038ZM11.9038 8.84073V11.3407H5.65381C5.32229 11.3407 5.00435 11.209 4.76992 10.9746C4.5355 10.7402 4.40381 10.4223 4.40381 10.0907C4.40381 9.75921 4.5355 9.44127 4.76992 9.20685C5.00435 8.97243 5.32229 8.84073 5.65381 8.84073H11.9038Z" fill="#3B3B3B"/>
</svg>
