<svg width="25" height="25" viewBox="0 0 25 25" fill="none" xmlns="http://www.w3.org/2000/svg">
<path fill-rule="evenodd" clip-rule="evenodd" d="M10.4803 4.16272C9.15013 4.5457 7.92532 5.26085 6.92906 6.2571C5.55967 7.62649 4.7214 9.42773 4.54683 11.3407H9.02269C9.0829 9.0907 9.41218 7.04281 9.9298 5.48982C10.0905 5.00755 10.2737 4.55989 10.4803 4.16272ZM12.7627 2.34073C10.1768 2.34073 7.69688 3.36796 5.8684 5.19644C4.03992 7.02492 3.0127 9.50487 3.0127 12.0907C3.0127 14.6766 4.03992 17.1565 5.8684 18.985C7.69688 20.8135 10.1768 21.8407 12.7627 21.8407C15.3486 21.8407 17.8285 20.8135 19.657 18.985C21.4855 17.1565 22.5127 14.6766 22.5127 12.0907C22.5127 9.50487 21.4855 7.02492 19.657 5.19644C17.8285 3.36796 15.3486 2.34073 12.7627 2.34073ZM15.0451 4.16272C16.3753 4.5457 17.6001 5.26085 18.5963 6.2571C19.9657 7.62649 20.804 9.42773 20.9786 11.3407H16.5027C16.4425 9.0907 16.1132 7.04281 15.5956 5.48982C15.4348 5.00755 15.2516 4.55988 15.0451 4.16272ZM15.0021 11.3407C14.9421 9.21917 14.6304 7.33784 14.1726 5.96413C13.9157 5.19343 13.6263 4.62381 13.3414 4.26228C13.0499 3.89229 12.8486 3.84073 12.7627 3.84073C12.6768 3.84073 12.4755 3.89229 12.184 4.26228C11.8991 4.62381 11.6097 5.19343 11.3528 5.96413C10.895 7.33784 10.5833 9.21917 10.5233 11.3407H15.0021ZM10.5233 12.8407H15.0021C14.9421 14.9623 14.6304 16.8436 14.1726 18.2173C13.9157 18.988 13.6263 19.5576 13.3414 19.9192C13.0499 20.2892 12.8486 20.3407 12.7627 20.3407C12.6768 20.3407 12.4755 20.2892 12.184 19.9192C11.8991 19.5576 11.6097 18.988 11.3528 18.2173C10.895 16.8436 10.5833 14.9623 10.5233 12.8407ZM9.02269 12.8407H4.54683C4.7214 14.7537 5.55967 16.555 6.92906 17.9244C7.92532 18.9206 9.15013 19.6357 10.4803 20.0187C10.2737 19.6216 10.0905 19.1739 9.9298 18.6916C9.41218 17.1386 9.0829 15.0908 9.02269 12.8407ZM15.0451 20.0187C15.2516 19.6216 15.4348 19.1739 15.5956 18.6916C16.1132 17.1386 16.4425 15.0908 16.5027 12.8407H20.9786C20.804 14.7537 19.9657 16.555 18.5963 17.9244C17.6001 18.9206 16.3753 19.6357 15.0451 20.0187Z" fill="#3B3B3B"/>
</svg>
