<svg width="25" height="25" viewBox="0 0 25 25" fill="none" xmlns="http://www.w3.org/2000/svg">
<path fill-rule="evenodd" clip-rule="evenodd" d="M8.12195 5.34532C7.7378 5.61582 7.37501 5.92041 7.03832 6.2571C5.91044 7.38497 5.14286 8.8058 4.80966 10.3407H5.87195C6.60129 10.3407 7.30077 10.6305 7.81649 11.1462C8.33222 11.6619 8.62195 12.3614 8.62195 13.0907V14.0907C8.62195 14.4222 8.75364 14.7402 8.98806 14.9746C9.22248 15.209 9.54043 15.3407 9.87195 15.3407C10.6013 15.3407 11.3008 15.6305 11.8165 16.1462C12.3322 16.6619 12.6219 17.3614 12.6219 18.0907V20.3369C12.7052 20.3395 12.7885 20.3407 12.8719 20.3407C13.6343 20.3407 14.3914 20.2351 15.1219 20.028V18.0907C15.1219 17.3614 15.4117 16.6619 15.9274 16.1462C16.4431 15.6305 17.1426 15.3407 17.8719 15.3407H20.4548C20.4681 15.3099 20.4811 15.2789 20.494 15.2479C20.9086 14.2469 21.1219 13.1741 21.1219 12.0907C21.1219 10.9625 20.8908 9.85804 20.4548 8.84073H19.8719C19.5404 8.84073 19.2225 8.97242 18.9881 9.20684C18.7536 9.44127 18.6219 9.75921 18.6219 10.0907C18.6219 10.8201 18.3322 11.5195 17.8165 12.0353C17.3008 12.551 16.6013 12.8407 15.8719 12.8407C15.1426 12.8407 14.4431 12.551 13.9274 12.0353C13.4117 11.5195 13.1219 10.8201 13.1219 10.0907C13.1219 9.75921 12.9903 9.44127 12.7558 9.20684C12.5214 8.97242 12.2035 8.84073 11.8719 8.84073H11.3719C10.51 8.84073 9.68334 8.49832 9.07385 7.88883C8.46436 7.27933 8.12195 6.45268 8.12195 5.59073V5.34532ZM8.4822 3.38482C7.56473 3.84741 6.71782 4.45628 5.97766 5.19644C4.41492 6.75917 3.43746 8.79778 3.18635 10.9717C3.18269 10.9946 3.18007 11.0179 3.17854 11.0414C3.141 11.3883 3.12195 11.7385 3.12195 12.0907C3.12195 13.3711 3.37414 14.639 3.86412 15.8219C4.35411 17.0048 5.07229 18.0796 5.97766 18.985C6.88303 19.8904 7.95786 20.6086 9.14078 21.0986C9.97729 21.445 10.8563 21.6726 11.7521 21.7762C11.7755 21.78 11.7993 21.7826 11.8234 21.7842C12.171 21.8218 12.521 21.8407 12.8719 21.8407C13.9577 21.8407 15.0345 21.6594 16.0581 21.3055C16.1016 21.2943 16.1437 21.2794 16.1839 21.261C16.3247 21.2101 16.4645 21.156 16.6031 21.0986C17.786 20.6086 18.8609 19.8904 19.7662 18.985C20.5033 18.248 21.1163 17.3986 21.5831 16.47C21.6009 16.4398 21.6166 16.4082 21.63 16.3754C21.7189 16.1938 21.8022 16.0092 21.8798 15.8219C22.3698 14.639 22.6219 13.3711 22.6219 12.0907C22.6219 10.5914 22.2766 9.12772 21.63 7.80596C21.6166 7.77327 21.6009 7.74173 21.5832 7.71154C21.1199 6.79001 20.5092 5.93944 19.7662 5.19644C17.9378 3.36796 15.4578 2.34073 12.8719 2.34073C11.377 2.34073 9.9174 2.68407 8.59864 3.32708C8.55798 3.343 8.51905 3.36237 8.4822 3.38482ZM9.62195 4.50785V5.59073C9.62195 6.05486 9.80632 6.49998 10.1345 6.82817C10.4627 7.15635 10.9078 7.34073 11.3719 7.34073H11.8719C12.6013 7.34073 13.3008 7.63046 13.8165 8.14618C14.3322 8.66191 14.6219 9.36138 14.6219 10.0907C14.6219 10.4222 14.7536 10.7402 14.9881 10.9746C15.2225 11.209 15.5404 11.3407 15.8719 11.3407C16.2035 11.3407 16.5214 11.209 16.7558 10.9746C16.9903 10.7402 17.1219 10.4222 17.1219 10.0907C17.1219 9.36138 17.4117 8.66191 17.9274 8.14618C18.3846 7.68896 18.9863 7.40936 19.6252 7.35182C19.3527 6.96356 19.0455 6.59703 18.7056 6.2571C17.1584 4.70992 15.06 3.84073 12.8719 3.84073C11.7437 3.84073 10.6393 4.07184 9.62195 4.50785ZM19.6173 16.8407H17.8719C17.5404 16.8407 17.2225 16.9724 16.9881 17.2068C16.7536 17.4413 16.6219 17.7592 16.6219 18.0907V19.4392C17.3903 19.0471 18.0937 18.5362 18.7056 17.9244C19.0408 17.5892 19.3457 17.2265 19.6173 16.8407ZM11.1219 20.153V18.0907C11.1219 17.7592 10.9903 17.4413 10.7558 17.2068C10.5214 16.9724 10.2035 16.8407 9.87195 16.8407C9.1426 16.8407 8.44313 16.551 7.9274 16.0353C7.41168 15.5195 7.12195 14.8201 7.12195 14.0907V13.0907C7.12195 12.7592 6.99025 12.4413 6.75583 12.2068C6.52141 11.9724 6.20347 11.8407 5.87195 11.8407H4.62573C4.62321 11.9239 4.62195 12.0073 4.62195 12.0907C4.62195 13.1741 4.83534 14.2469 5.24994 15.2479C5.66454 16.2488 6.27223 17.1583 7.03832 17.9244C7.8044 18.6904 8.71387 19.2981 9.71481 19.7127C10.1709 19.9016 10.6418 20.0488 11.1219 20.153Z" fill="#3B3B3B"/>
</svg>
