<svg width="16" height="16" viewBox="0 0 16 16" fill="none" xmlns="http://www.w3.org/2000/svg">
<path d="M15.9998 8.17753C15.9998 7.51976 15.9454 7.03976 15.8275 6.54199H8.16309V9.51085H12.6619C12.5712 10.2486 12.0815 11.3598 10.993 12.1064L10.9777 12.2058L13.4011 14.0456L13.569 14.062C15.1109 12.6664 15.9998 10.6131 15.9998 8.17753Z" fill="#4285F4"/>
<path d="M8.16314 15.9998C10.3672 15.9998 12.2175 15.2887 13.569 14.062L10.9931 12.1064C10.3037 12.5775 9.37853 12.9064 8.16314 12.9064C6.00443 12.9064 4.17224 11.5109 3.51912 9.58203L3.42338 9.59L0.903559 11.5011L0.870605 11.5909C2.213 14.2042 4.97037 15.9998 8.16314 15.9998Z" fill="#34A853"/>
<path d="M3.51924 9.5824C3.34691 9.08463 3.24717 8.55126 3.24717 8.00017C3.24717 7.44903 3.34691 6.91572 3.51017 6.41795L3.50561 6.31193L0.954205 4.37012L0.870727 4.40903C0.317464 5.49349 0 6.71129 0 8.00017C0 9.28906 0.317464 10.5068 0.870727 11.5913L3.51924 9.5824Z" fill="#FBBC05"/>
<path d="M8.16314 3.09331C9.696 3.09331 10.73 3.7422 11.3196 4.28446L13.6234 2.08C12.2085 0.791114 10.3672 0 8.16314 0C4.97037 0 2.213 1.79554 0.870605 4.40885L3.51005 6.41777C4.17224 4.48889 6.00443 3.09331 8.16314 3.09331Z" fill="#EB4335"/>
</svg>
