<svg width="25" height="25" viewBox="0 0 25 25" fill="none" xmlns="http://www.w3.org/2000/svg">
<path fill-rule="evenodd" clip-rule="evenodd" d="M12.4806 3.84073C12.2817 3.84073 12.0909 3.91975 11.9503 4.0604C11.8096 4.20105 11.7306 4.39182 11.7306 4.59073V11.0907C11.7306 11.5049 11.3948 11.8407 10.9806 11.8407C10.5664 11.8407 10.2306 11.5049 10.2306 11.0907V5.59073C10.2306 5.39182 10.1516 5.20105 10.0109 5.0604C9.87027 4.91975 9.6795 4.84073 9.48059 4.84073C9.28168 4.84073 9.09091 4.91975 8.95026 5.0604C8.80961 5.20105 8.73059 5.39182 8.73059 5.59073V14.0907C8.73059 14.5049 8.3948 14.8407 7.98059 14.8407C7.56638 14.8407 7.23059 14.5049 7.23059 14.0907V11.5907C7.23059 11.3918 7.15157 11.201 7.01092 11.0604C6.87027 10.9197 6.6795 10.8407 6.48059 10.8407C6.28168 10.8407 6.09091 10.9197 5.95026 11.0604C5.80961 11.201 5.73059 11.3918 5.73059 11.5907V13.5907C5.73059 15.3809 6.44175 17.0978 7.70762 18.3637C8.97349 19.6296 10.6904 20.3407 12.4806 20.3407C14.2708 20.3407 15.9877 19.6296 17.2536 18.3637C18.5194 17.0978 19.2306 15.3809 19.2306 13.5907V8.59073C19.2306 8.39182 19.1516 8.20105 19.0109 8.0604C18.8703 7.91975 18.6795 7.84073 18.4806 7.84073C18.2817 7.84073 18.0909 7.91975 17.9503 8.0604C17.8096 8.20105 17.7306 8.39182 17.7306 8.59073V11.0907C17.7306 11.5049 17.3948 11.8407 16.9806 11.8407C16.5664 11.8407 16.2306 11.5049 16.2306 11.0907V5.59073C16.2306 5.39182 16.1516 5.20105 16.0109 5.0604C15.8703 4.91975 15.6795 4.84073 15.4806 4.84073C15.2817 4.84073 15.0909 4.91975 14.9503 5.0604C14.8096 5.20105 14.7306 5.39182 14.7306 5.59073V11.0907C14.7306 11.5049 14.3948 11.8407 13.9806 11.8407C13.5664 11.8407 13.2306 11.5049 13.2306 11.0907V4.59073C13.2306 4.39182 13.1516 4.20105 13.0109 4.0604C12.8703 3.91975 12.6795 3.84073 12.4806 3.84073ZM14.4868 3.57209C14.3804 3.36253 14.2409 3.16903 14.0716 2.99974C13.6496 2.57778 13.0773 2.34073 12.4806 2.34073C11.8839 2.34073 11.3116 2.57778 10.8896 2.99974C10.7203 3.16903 10.5808 3.36253 10.4744 3.57209C10.1681 3.42129 9.82847 3.34073 9.48059 3.34073C8.88385 3.34073 8.31156 3.57778 7.8896 3.99974C7.46764 4.4217 7.23059 4.99399 7.23059 5.59073V9.46941C6.99194 9.38502 6.73855 9.34073 6.48059 9.34073C5.88385 9.34073 5.31156 9.57778 4.8896 9.99974C4.46764 10.4217 4.23059 10.994 4.23059 11.5907V13.5907C4.23059 15.7788 5.09978 17.8772 6.64696 19.4244C8.19413 20.9715 10.2926 21.8407 12.4806 21.8407C14.6686 21.8407 16.767 20.9715 18.3142 19.4244C19.8614 17.8772 20.7306 15.7788 20.7306 13.5907V8.59073C20.7306 7.99399 20.4935 7.42169 20.0716 6.99974C19.6496 6.57778 19.0773 6.34073 18.4806 6.34073C18.2226 6.34073 17.9692 6.38503 17.7306 6.46941V5.59073C17.7306 4.99399 17.4935 4.4217 17.0716 3.99974C16.6496 3.57778 16.0773 3.34073 15.4806 3.34073C15.1327 3.34073 14.7931 3.42129 14.4868 3.57209Z" fill="#3B3B3B"/>
</svg>
