<svg width="16" height="16" viewBox="0 0 16 16" fill="none" xmlns="http://www.w3.org/2000/svg">
<mask id="mask0_7516_153023" style="mask-type:alpha" maskUnits="userSpaceOnUse" x="0" y="0" width="16" height="16">
<rect width="16" height="16" fill="#D9D9D9"/>
</mask>
<g mask="url(#mask0_7516_153023)">
<path d="M12.3101 13.9823C12.2382 13.9823 12.1719 13.9705 12.1112 13.947C12.0506 13.9235 11.9912 13.8828 11.9331 13.8247L8.61006 10.5143C8.55183 10.4562 8.511 10.3968 8.48756 10.3362C8.464 10.2755 8.45222 10.2093 8.45222 10.1375C8.45222 10.0657 8.464 9.99943 8.48756 9.93865C8.511 9.87799 8.55183 9.8186 8.61006 9.76048L9.71889 8.65148C9.777 8.59337 9.83645 8.5526 9.89722 8.52915C9.95789 8.5056 10.0241 8.49382 10.0959 8.49382C10.1677 8.49382 10.2339 8.5056 10.2946 8.52915C10.3552 8.5526 10.4146 8.59337 10.4727 8.65148L13.7959 11.9747C13.854 12.0328 13.8948 12.0922 13.9184 12.1528C13.9418 12.2135 13.9536 12.2797 13.9536 12.3515C13.9536 12.4234 13.9418 12.4897 13.9184 12.5503C13.8948 12.611 13.854 12.6704 13.7959 12.7285L12.6869 13.8247C12.6288 13.8828 12.5694 13.9235 12.5087 13.947C12.4481 13.9705 12.3818 13.9823 12.3101 13.9823ZM12.3101 13.2837L13.2421 12.3515L10.0997 9.20932L9.16772 10.1413L12.3101 13.2837ZM3.67272 13.9862C3.60095 13.9862 3.53411 13.9738 3.47222 13.949C3.41022 13.9242 3.35017 13.8828 3.29206 13.8247L2.18689 12.7323C2.12878 12.6742 2.08733 12.6142 2.06256 12.5522C2.03778 12.4903 2.02539 12.4234 2.02539 12.3515C2.02539 12.2797 2.03778 12.2114 2.06256 12.1465C2.08733 12.0815 2.12878 12.0199 2.18689 11.9618L5.61772 8.53098H7.00872L7.52406 8.01565L4.69722 5.18865H3.74722L2.06389 3.50532L3.48556 2.08365L5.16889 3.76699V4.71699L7.99589 7.54382L10.0061 5.53365L8.77672 4.30415L9.53056 3.55032H8.01889L7.74456 3.28865L9.63689 1.39648L9.89839 1.65798V3.18232L10.6522 2.42849L13.3011 5.05149C13.4643 5.20626 13.5852 5.38387 13.6639 5.58432C13.7424 5.78465 13.7817 5.99682 13.7817 6.22082C13.7817 6.38493 13.7574 6.54432 13.7087 6.69899C13.6599 6.85365 13.5882 6.99982 13.4934 7.13749L12.1279 5.77199L11.1817 6.71815L10.4689 6.00532L7.46772 9.00665V10.4195L4.04972 13.8247C3.99161 13.8828 3.93222 13.9242 3.87156 13.949C3.81089 13.9738 3.74461 13.9862 3.67272 13.9862ZM3.67272 13.2708L6.95489 9.98865V9.05665H6.02272L2.74072 12.3387L3.67272 13.2708ZM3.67272 13.2708L2.74072 12.3387L3.20872 12.8028L3.67272 13.2708Z" fill="#3B3B3B"/>
</g>
</svg>
