<svg width="24" height="25" viewBox="0 0 24 25" fill="none" xmlns="http://www.w3.org/2000/svg">
<path fill-rule="evenodd" clip-rule="evenodd" d="M11.1819 3.47179C11.5837 3.57225 11.8281 3.97945 11.7276 4.3813L10.7106 8.4494H15.1644L16.2724 4.01749C16.3729 3.61565 16.7801 3.37133 17.1819 3.47179C17.5837 3.57225 17.8281 3.97945 17.7276 4.3813L16.7106 8.4494H20C20.4142 8.4494 20.75 8.78518 20.75 9.1994C20.75 9.61361 20.4142 9.9494 20 9.9494H16.3356L15.2106 14.4494H18C18.4142 14.4494 18.75 14.7852 18.75 15.1994C18.75 15.6136 18.4142 15.9494 18 15.9494H14.8356L13.7276 20.3813C13.6271 20.7831 13.2199 21.0275 12.8181 20.927C12.4163 20.8265 12.1719 20.4193 12.2724 20.0175L13.2894 15.9494H8.83558L7.72761 20.3813C7.62714 20.7831 7.21994 21.0275 6.8181 20.927C6.41625 20.8265 6.17193 20.4193 6.27239 20.0175L7.28942 15.9494H4C3.58579 15.9494 3.25 15.6136 3.25 15.1994C3.25 14.7852 3.58579 14.4494 4 14.4494H7.66442L8.78942 9.9494H6C5.58579 9.9494 5.25 9.61361 5.25 9.1994C5.25 8.78518 5.58579 8.4494 6 8.4494H9.16442L10.2724 4.01749C10.3729 3.61565 10.7801 3.37133 11.1819 3.47179ZM10.3356 9.9494L9.21058 14.4494H13.6644L14.7894 9.9494H10.3356Z" fill="#3B3B3B"/>
</svg>
