<svg width="25" height="25" viewBox="0 0 25 25" fill="none" xmlns="http://www.w3.org/2000/svg">
<path d="M11.7504 21.18C11.6516 21.1822 11.5535 21.1638 11.4622 21.1259C11.371 21.088 11.2886 21.0315 11.2205 20.96L3.5404 13.28C2.80498 12.5468 2.30404 11.6117 2.10107 10.5933C1.8981 9.57484 2.0023 8.51907 2.40045 7.55998C2.66264 6.92262 3.05028 6.3445 3.5404 5.85999C4.02716 5.37198 4.60544 4.9848 5.24206 4.72062C5.87869 4.45644 6.56116 4.32046 7.25042 4.32046C7.93969 4.32046 8.62216 4.45644 9.25879 4.72062C9.89541 4.9848 10.4737 5.37198 10.9604 5.85999L11.7504 6.64999L12.5404 5.85999C13.021 5.34418 13.6007 4.93046 14.2447 4.64352C14.8887 4.35657 15.5838 4.20228 16.2888 4.18984C16.9937 4.17741 17.6939 4.30708 18.3476 4.57113C19.0013 4.83518 19.5952 5.22818 20.0937 5.72672C20.5922 6.22525 20.9852 6.81908 21.2493 7.4728C21.5133 8.12652 21.643 8.82672 21.6306 9.53164C21.6181 10.2366 21.4638 10.9318 21.1769 11.5758C20.8899 12.2197 20.4763 12.7994 19.9604 13.28L12.3204 20.96C12.2478 21.0368 12.1589 21.0964 12.0603 21.1344C11.9617 21.1725 11.8558 21.1881 11.7504 21.18ZM3.75042 8.17999C3.56754 8.63816 3.47258 9.12667 3.47046 9.61999C3.4724 10.1101 3.56739 10.5953 3.75042 11.05C3.9406 11.5068 4.21929 11.9214 4.57043 12.27L11.7205 19.42L18.8704 12.27C19.2193 11.9225 19.4962 11.5095 19.6851 11.0548C19.874 10.6 19.9713 10.1124 19.9713 9.61999C19.9713 9.12755 19.874 8.63996 19.6851 8.1852C19.4962 7.73045 19.2193 7.31748 18.8704 6.96999C18.1574 6.28668 17.208 5.9052 16.2205 5.9052C15.2329 5.9052 14.2835 6.28668 13.5704 6.96999L12.3204 8.23998C12.1799 8.38068 11.9892 8.45981 11.7904 8.45998C11.5916 8.45981 11.401 8.38068 11.2604 8.23998L9.94043 6.91998C9.5941 6.56858 9.17873 6.29278 8.72046 6.10999C7.80142 5.73051 6.7695 5.73051 5.85046 6.10999C5.39656 6.29549 4.98493 6.57103 4.64044 6.91998C4.27721 7.26303 3.98501 7.67416 3.78045 8.12998L3.75042 8.17999Z" fill="#3B3B3B"/>
</svg>
