<svg width="25" height="25" viewBox="0 0 25 25" fill="none" xmlns="http://www.w3.org/2000/svg">
<path fill-rule="evenodd" clip-rule="evenodd" d="M12.3271 3.94992C11.9956 3.94992 11.6777 4.08162 11.4433 4.31604C11.2088 4.55046 11.0771 4.8684 11.0771 5.19992V6.19992C11.0771 6.53144 11.2088 6.84938 11.4433 7.0838C11.6777 7.31822 11.9956 7.44992 12.3271 7.44992C12.6587 7.44992 12.9766 7.31822 13.211 7.0838C13.4455 6.84938 13.5771 6.53144 13.5771 6.19992V5.19992C13.5771 4.8684 13.4455 4.55046 13.211 4.31604C12.9766 4.08162 12.6587 3.94992 12.3271 3.94992ZM10.3826 3.25538C10.8983 2.73965 11.5978 2.44992 12.3271 2.44992C13.0565 2.44992 13.756 2.73965 14.2717 3.25538C14.7874 3.7711 15.0771 4.47057 15.0771 5.19992V5.44992H19.3271C20.0565 5.44992 20.756 5.73965 21.2717 6.25538C21.7874 6.7711 22.0771 7.47057 22.0771 8.19992V17.1999C22.0771 17.9293 21.7874 18.6287 21.2717 19.1445C20.756 19.6602 20.0565 19.9499 19.3271 19.9499H5.32715C4.5978 19.9499 3.89833 19.6602 3.3826 19.1445C2.86688 18.6287 2.57715 17.9293 2.57715 17.1999V8.19992C2.57715 7.47058 2.86688 6.7711 3.3826 6.25538C3.89833 5.73965 4.5978 5.44992 5.32715 5.44992H9.57715V5.19992C9.57715 4.47057 9.86688 3.7711 10.3826 3.25538ZM9.68139 6.94992H5.32715C4.99563 6.94992 4.67769 7.08162 4.44326 7.31604C4.20884 7.55046 4.07715 7.8684 4.07715 8.19992V17.1999C4.07715 17.5314 4.20884 17.8494 4.44326 18.0838C4.67769 18.3182 4.99563 18.4499 5.32715 18.4499H19.3271C19.6587 18.4499 19.9766 18.3182 20.211 18.0838C20.4454 17.8494 20.5771 17.5314 20.5771 17.1999V8.19992C20.5771 7.8684 20.4454 7.55046 20.211 7.31604C19.9766 7.08162 19.6587 6.94992 19.3271 6.94992H14.9729C14.846 7.39747 14.6065 7.80968 14.2717 8.14446C13.756 8.66019 13.0565 8.94992 12.3271 8.94992C11.5978 8.94992 10.8983 8.66019 10.3826 8.14446C10.0478 7.80968 9.80827 7.39747 9.68139 6.94992ZM7.3826 10.2554C7.89833 9.73965 8.5978 9.44992 9.32715 9.44992C10.0565 9.44992 10.756 9.73965 11.2717 10.2554C11.7874 10.7711 12.0771 11.4706 12.0771 12.1999C12.0771 12.8855 11.8211 13.5447 11.362 14.0497C12.0517 14.4963 12.5853 15.1629 12.864 15.9493C13.0024 16.3397 12.7982 16.7684 12.4077 16.9068C12.0173 17.0452 11.5887 16.8409 11.4503 16.4505C11.1399 15.5749 10.3051 14.9499 9.32715 14.9499C9.32708 14.9499 9.327 14.9499 9.32693 14.9499C8.86142 14.9498 8.40731 15.094 8.02715 15.3626C7.64699 15.6313 7.35947 16.0112 7.2042 16.4501C7.06603 16.8406 6.63747 17.0451 6.24698 16.907C5.85649 16.7688 5.65194 16.3402 5.7901 15.9498C6.04885 15.2185 6.52795 14.5854 7.16144 14.1377C7.20441 14.1073 7.24795 14.0779 7.29202 14.0494C6.83308 13.5445 6.57715 12.8854 6.57715 12.1999C6.57715 11.4706 6.86688 10.7711 7.3826 10.2554ZM9.32715 13.4499C8.99563 13.4499 8.67768 13.3182 8.44326 13.0838C8.20884 12.8494 8.07715 12.5314 8.07715 12.1999C8.07715 11.8684 8.20884 11.5505 8.44326 11.316C8.67768 11.0816 8.99563 10.9499 9.32715 10.9499C9.65867 10.9499 9.97661 11.0816 10.211 11.316C10.4455 11.5505 10.5771 11.8684 10.5771 12.1999C10.5771 12.5314 10.4455 12.8494 10.211 13.0838C9.97666 13.3182 9.65881 13.4499 9.32736 13.4499M14.5771 11.1999C14.5771 10.7857 14.9129 10.4499 15.3271 10.4499H18.3271C18.7414 10.4499 19.0771 10.7857 19.0771 11.1999C19.0771 11.6141 18.7414 11.9499 18.3271 11.9499H15.3271C14.9129 11.9499 14.5771 11.6141 14.5771 11.1999ZM14.5771 15.1999C14.5771 14.7857 14.9129 14.4499 15.3271 14.4499H17.3271C17.7414 14.4499 18.0771 14.7857 18.0771 15.1999C18.0771 15.6141 17.7414 15.9499 17.3271 15.9499H15.3271C14.9129 15.9499 14.5771 15.6141 14.5771 15.1999Z" fill="#3B3B3B"/>
</svg>
