<svg width="25" height="25" viewBox="0 0 25 25" fill="none" xmlns="http://www.w3.org/2000/svg">
<path d="M18.7505 20.55H6.75049C6.38866 20.5525 6.02996 20.4831 5.69519 20.3458C5.36043 20.2084 5.05628 20.0059 4.80048 19.75C4.54033 19.4869 4.33552 19.1745 4.19812 18.8309C4.06072 18.4874 3.99352 18.1199 4.00049 17.75V5.75C4.00049 5.02065 4.29025 4.32118 4.80597 3.80546C5.3217 3.28973 6.02115 3 6.75049 3H18.7505C19.4782 3.00524 20.1747 3.29665 20.6893 3.81125C21.2039 4.32584 21.4953 5.02227 21.5005 5.75V17.75C21.5005 18.4793 21.2108 19.1788 20.6951 19.6945C20.1793 20.2103 19.4798 20.5 18.7505 20.5V20.55ZM5.50049 13.55V17.8C5.50049 18.1315 5.63222 18.4495 5.86664 18.6839C6.10106 18.9183 6.41897 19.05 6.75049 19.05H18.7505C19.082 19.05 19.4 18.9183 19.6344 18.6839C19.8688 18.4495 20.0005 18.1315 20.0005 17.8V13.55H18.1605C18.1282 13.5506 18.0963 13.5581 18.067 13.5719C18.0377 13.5856 18.0116 13.6055 17.9905 13.63L15.5705 16.04C15.407 16.2045 15.2121 16.3344 14.9973 16.422C14.7826 16.5096 14.5524 16.5531 14.3205 16.55H11.1405C10.912 16.5505 10.6856 16.5056 10.4745 16.4181C10.2634 16.3305 10.0717 16.202 9.91053 16.04L7.49048 13.63C7.46937 13.6055 7.44336 13.5856 7.41407 13.5719C7.38477 13.5581 7.35287 13.5506 7.3205 13.55H5.50049ZM5.50049 12.05H7.3205C7.54904 12.0496 7.7754 12.0944 7.98651 12.1819C8.19763 12.2695 8.38931 12.398 8.55048 12.56L10.9705 14.98C10.9921 15.0032 11.0185 15.0215 11.0479 15.0336C11.0772 15.0457 11.1088 15.0513 11.1405 15.05H14.3205C14.3522 15.0513 14.3838 15.0457 14.4132 15.0336C14.4425 15.0215 14.4689 15.0032 14.4905 14.98L16.9105 12.56C17.0717 12.398 17.2634 12.2695 17.4745 12.1819C17.6856 12.0944 17.912 12.0496 18.1405 12.05H19.9805V5.8C19.9779 5.46929 19.8454 5.15286 19.6115 4.91901C19.3777 4.68515 19.0612 4.55262 18.7305 4.55H6.73047C6.39976 4.55262 6.08335 4.68515 5.84949 4.91901C5.61563 5.15286 5.48309 5.46929 5.48047 5.8L5.50049 12.05Z" fill="#3B3B3B"/>
</svg>
