<svg width="25" height="25" viewBox="0 0 25 25" fill="none" xmlns="http://www.w3.org/2000/svg">
<path d="M18.7505 21.5H6.75049C6.38866 21.5025 6.02996 21.4331 5.69519 21.2958C5.36043 21.1584 5.05631 20.9559 4.80051 20.7C4.54036 20.437 4.33552 20.1245 4.19812 19.781C4.06072 19.4374 3.99352 19.0699 4.00049 18.7V6.7C4.00049 5.97065 4.29022 5.27118 4.80594 4.75546C5.32167 4.23973 6.02115 3.95 6.75049 3.95H8.75049C8.9494 3.95 9.14017 4.02902 9.28083 4.16967C9.42148 4.31032 9.50049 4.50108 9.50049 4.7C9.50049 4.89891 9.42148 5.08968 9.28083 5.23033C9.14017 5.37098 8.9494 5.45 8.75049 5.45H6.75049C6.41978 5.45261 6.10337 5.58515 5.86951 5.81901C5.63565 6.05286 5.50311 6.36928 5.50049 6.7V12.96H7.3205C7.54904 12.9595 7.77543 13.0044 7.98655 13.0919C8.19766 13.1795 8.38934 13.308 8.55051 13.47L10.9705 15.89C10.9921 15.9132 11.0185 15.9315 11.0478 15.9436C11.0772 15.9557 11.1088 15.9613 11.1405 15.96H14.3205C14.3522 15.9613 14.3838 15.9557 14.4132 15.9436C14.4425 15.9315 14.4689 15.9132 14.4905 15.89L16.9105 13.47C17.0717 13.308 17.2633 13.1795 17.4745 13.0919C17.6856 13.0044 17.912 12.9595 18.1405 12.96H19.9805V6.71C19.9779 6.37929 19.8453 6.06286 19.6115 5.829C19.3776 5.59515 19.0612 5.46261 18.7305 5.46H16.7305C16.5316 5.46 16.3408 5.38098 16.2002 5.24033C16.0595 5.09967 15.9805 4.90891 15.9805 4.71C15.9805 4.51109 16.0595 4.32032 16.2002 4.17967C16.3408 4.03902 16.5316 3.96 16.7305 3.96H18.7305C19.4582 3.96523 20.1547 4.25665 20.6693 4.77124C21.1838 5.28583 21.4753 5.98227 21.4805 6.71V18.71C21.4805 19.4393 21.1908 20.1388 20.6751 20.6545C20.1593 21.1703 19.4598 21.46 18.7305 21.46L18.7505 21.5ZM5.50049 14.5V18.75C5.50049 19.0815 5.63219 19.3995 5.86661 19.6339C6.10103 19.8683 6.41897 20 6.75049 20H18.7505C19.082 20 19.4 19.8683 19.6344 19.6339C19.8688 19.3995 20.0005 19.0815 20.0005 18.75V14.5H18.1605C18.1281 14.5006 18.0963 14.5081 18.067 14.5218C18.0377 14.5356 18.0116 14.5554 17.9905 14.58L15.5705 16.96C15.4093 17.122 15.2177 17.2505 15.0065 17.3381C14.7954 17.4256 14.569 17.4704 14.3405 17.47H11.1605C10.932 17.4704 10.7056 17.4256 10.4945 17.3381C10.2834 17.2505 10.0917 17.122 9.93048 16.96L7.5105 14.55C7.48939 14.5254 7.46335 14.5056 7.43406 14.4918C7.40476 14.4781 7.37286 14.4706 7.34049 14.47L5.50049 14.5ZM12.7505 12.5C12.6507 12.5003 12.552 12.4799 12.4605 12.44C12.3692 12.4059 12.287 12.3512 12.2205 12.28L9.22049 9.28C9.14681 9.21134 9.08772 9.12854 9.04673 9.03654C9.00573 8.94454 8.98368 8.84522 8.98191 8.74452C8.98013 8.64382 8.99866 8.54379 9.03638 8.4504C9.0741 8.35701 9.13023 8.27218 9.20145 8.20096C9.27267 8.12974 9.35751 8.07359 9.4509 8.03587C9.54429 7.99815 9.64433 7.97963 9.74503 7.98141C9.84573 7.98318 9.94505 8.00523 10.0371 8.04622C10.1291 8.08721 10.2118 8.14631 10.2805 8.22L12.0005 9.94V3.75C12.0005 3.55109 12.0795 3.36032 12.2202 3.21967C12.3608 3.07901 12.5516 3 12.7505 3C12.9494 3 13.1402 3.07901 13.2808 3.21967C13.4215 3.36032 13.5005 3.55109 13.5005 3.75V9.96L15.2205 8.24C15.3627 8.10752 15.5507 8.0354 15.745 8.03883C15.9393 8.04225 16.1247 8.12096 16.2621 8.25838C16.3995 8.39579 16.4782 8.58117 16.4817 8.77547C16.4851 8.96978 16.413 9.15782 16.2805 9.3L13.2805 12.3C13.2139 12.3712 13.1318 12.4259 13.0405 12.46C12.9476 12.4931 12.8489 12.5067 12.7505 12.5Z" fill="#3B3B3B"/>
</svg>
