<svg width="25" height="25" viewBox="0 0 25 25" fill="none" xmlns="http://www.w3.org/2000/svg">
<path fill-rule="evenodd" clip-rule="evenodd" d="M12.6538 3.94992C10.4658 3.94992 8.36735 4.81911 6.82018 6.36629C5.273 7.91346 4.40381 10.0119 4.40381 12.1999C4.40381 13.2833 4.6172 14.3561 5.0318 15.3571C5.4464 16.358 6.05409 17.2675 6.82018 18.0335C7.58626 18.7996 8.49573 19.4073 9.49667 19.8219C10.4976 20.2365 11.5704 20.4499 12.6538 20.4499C13.7372 20.4499 14.81 20.2365 15.8109 19.8219C16.8119 19.4073 17.7214 18.7996 18.4874 18.0335C19.2535 17.2675 19.8612 16.358 20.2758 15.3571C20.6904 14.3561 20.9038 13.2833 20.9038 12.1999C20.9038 10.0119 20.0346 7.91346 18.4874 6.36629C16.9403 4.81911 14.8418 3.94992 12.6538 3.94992ZM5.75952 5.30563C7.588 3.47715 10.0679 2.44992 12.6538 2.44992C15.2397 2.44992 17.7196 3.47715 19.5481 5.30563C21.3766 7.13411 22.4038 9.61406 22.4038 12.1999C22.4038 13.4803 22.1516 14.7482 21.6616 15.9311C21.1716 17.114 20.4535 18.1888 19.5481 19.0942C18.6427 19.9996 17.5679 20.7178 16.385 21.2077C15.202 21.6977 13.9342 21.9499 12.6538 21.9499C11.3734 21.9499 10.1056 21.6977 8.92264 21.2077C7.73972 20.7178 6.66489 19.9996 5.75952 19.0942C4.85415 18.1888 4.13597 17.114 3.64598 15.9311C3.156 14.7482 2.90381 13.4803 2.90381 12.1999C2.90381 9.61406 3.93104 7.13411 5.75952 5.30563ZM11.9038 8.19992C11.9038 7.78571 12.2396 7.44992 12.6538 7.44992H12.6638C13.078 7.44992 13.4138 7.78571 13.4138 8.19992C13.4138 8.61413 13.078 8.94992 12.6638 8.94992H12.6538C12.2396 8.94992 11.9038 8.61413 11.9038 8.19992ZM10.9038 12.1999C10.9038 11.7857 11.2396 11.4499 11.6538 11.4499H12.6538C13.068 11.4499 13.4038 11.7857 13.4038 12.1999V15.4499H13.6538C14.068 15.4499 14.4038 15.7857 14.4038 16.1999C14.4038 16.6141 14.068 16.9499 13.6538 16.9499H12.6538C12.2396 16.9499 11.9038 16.6141 11.9038 16.1999V12.9499H11.6538C11.2396 12.9499 10.9038 12.6141 10.9038 12.1999Z" fill="#3B3B3B"/>
</svg>
