<svg width="24" height="24" viewBox="0 0 24 24" fill="none" xmlns="http://www.w3.org/2000/svg">
<path fill-rule="evenodd" clip-rule="evenodd" d="M11.6646 2.32918C11.8757 2.22361 12.1243 2.22361 12.3354 2.32918L19.2298 5.77639C20.1615 6.24222 20.75 7.19444 20.75 8.23607V15.7639C20.75 16.8056 20.1615 17.7578 19.2298 18.2236L13.2298 21.2236C12.4556 21.6107 11.5444 21.6107 10.7702 21.2236L3.66459 17.6708C3.4105 17.5438 3.25 17.2841 3.25 17L3.25 8.23607C3.25 7.19445 3.83851 6.24222 4.77016 5.77639L11.6646 2.32918ZM11.25 4.21353L5.44098 7.11803C5.0175 7.32977 4.75 7.7626 4.75 8.23607L4.75 15.7865L10.559 12.882C10.9825 12.6702 11.25 12.2374 11.25 11.7639L11.25 4.21353ZM5.67705 17L11.441 19.882C11.7929 20.0579 12.2071 20.0579 12.559 19.882L18.559 16.882C18.9825 16.6702 19.25 16.2374 19.25 15.7639V8.23607C19.25 7.7626 18.9825 7.32977 18.559 7.11803L12.75 4.21353L12.75 11.7639C12.75 12.8056 12.1615 13.7578 11.2298 14.2236L5.67705 17Z" fill="#3B3B3B"/>
</svg>
