<svg width="16" height="16" viewBox="0 0 16 16" fill="none" xmlns="http://www.w3.org/2000/svg">
<path d="M14.8911 14.3131C14.8501 14.3644 14.7994 14.4072 14.7418 14.4389C14.6843 14.4706 14.621 14.4906 14.5557 14.4979C14.4904 14.5052 14.4244 14.4995 14.3613 14.4812C14.2982 14.4629 14.2393 14.4323 14.188 14.3912C14.1649 14.3725 11.7617 12.5006 8.00049 12.5006C4.23924 12.5006 1.83549 14.3756 1.81299 14.3919C1.76165 14.4329 1.70273 14.4634 1.6396 14.4817C1.57646 14.5 1.51035 14.5056 1.44503 14.4983C1.31311 14.4836 1.19243 14.4171 1.10955 14.3134C1.02667 14.2097 0.988375 14.0774 1.00308 13.9455C1.01779 13.8135 1.08431 13.6929 1.18799 13.61C1.28986 13.5287 3.59549 11.7187 7.33112 11.5194C7.13679 10.7451 7.06738 9.94486 7.12549 9.14874C7.23424 7.79187 7.80799 5.98437 9.81299 4.61874C9.47089 4.5339 9.11915 4.49419 8.76674 4.50062C7.57924 4.53937 6.83299 5.23249 6.48549 6.62062C6.45869 6.72902 6.39638 6.82533 6.30848 6.8942C6.22058 6.96307 6.11216 7.00053 6.00049 7.00062C5.9596 7.00083 5.91885 6.99579 5.87924 6.98562C5.75062 6.95344 5.64005 6.8715 5.57183 6.75781C5.50362 6.64412 5.48335 6.50799 5.51549 6.37937C6.09362 4.06999 7.58487 3.54062 8.73424 3.50437C9.19073 3.49443 9.64648 3.54593 10.0892 3.65749C9.84987 3.26187 9.49987 2.84937 9.01362 2.64187C8.38862 2.37687 7.62799 2.49249 6.74424 2.98624C6.62821 3.05089 6.49125 3.06679 6.36349 3.03046C6.23573 2.99412 6.12764 2.90852 6.06299 2.79249C5.99834 2.67646 5.98244 2.5395 6.01877 2.41174C6.05511 2.28398 6.14071 2.17589 6.25674 2.11124C7.42799 1.45812 8.48924 1.32749 9.41174 1.72374C10.1924 2.05874 10.7074 2.70999 11.0286 3.28624C11.4149 2.68374 11.8961 2.27562 12.428 2.10249C13.1692 1.86062 13.968 2.05749 14.803 2.68812C14.9041 2.76963 14.9696 2.8873 14.9854 3.01621C15.0013 3.14512 14.9664 3.27516 14.8882 3.37879C14.8099 3.48243 14.6943 3.55153 14.566 3.57147C14.4376 3.59141 14.3065 3.56062 14.2005 3.48562C13.6436 3.06499 13.1524 2.91937 12.7411 3.05249C12.2855 3.19937 11.9367 3.67749 11.718 4.09062C12.1677 4.18178 12.6004 4.34268 13.0005 4.56749C13.9136 5.08937 15.0005 6.19562 15.0005 8.50124C15.0005 8.63385 14.9478 8.76103 14.854 8.85479C14.7603 8.94856 14.6331 9.00124 14.5005 9.00124C14.3679 9.00124 14.2407 8.94856 14.1469 8.85479C14.0532 8.76103 14.0005 8.63385 14.0005 8.50124C14.0005 7.03499 13.4961 6.00124 12.5005 5.43874C12.3845 5.37287 12.2645 5.31442 12.1411 5.26374C12.4559 5.90376 12.5663 6.62511 12.4574 7.32999C12.3788 7.85149 12.19 8.35027 11.9036 8.79312C11.827 8.9006 11.7109 8.97342 11.5808 8.99567C11.4507 9.01793 11.317 8.98781 11.209 8.9119C11.101 8.83599 11.0274 8.72044 11.0043 8.59047C10.9811 8.46049 11.0103 8.32664 11.0855 8.21812C11.1317 8.14999 12.1061 6.69437 10.8817 5.13249C9.19424 6.08312 8.26362 7.46062 8.12174 9.23187C8.06647 9.99921 8.14752 10.7703 8.36112 11.5094C12.2767 11.6225 14.7061 13.53 14.8111 13.6131C14.9141 13.6956 14.9804 13.8155 14.9954 13.9466C15.0103 14.0778 14.9729 14.2095 14.8911 14.3131ZM1.50049 8.75062C1.50049 8.4045 1.60313 8.06615 1.79542 7.77837C1.98771 7.49058 2.26102 7.26628 2.58079 7.13383C2.90056 7.00137 3.25243 6.96672 3.5919 7.03424C3.93137 7.10177 4.24319 7.26844 4.48793 7.51318C4.73267 7.75792 4.89934 8.06974 4.96686 8.40921C5.03439 8.74867 4.99973 9.10054 4.86728 9.42031C4.73483 9.74008 4.51052 10.0134 4.22274 10.2057C3.93495 10.398 3.59661 10.5006 3.25049 10.5006C2.78636 10.5006 2.34124 10.3162 2.01305 9.98805C1.68486 9.65986 1.50049 9.21474 1.50049 8.75062ZM2.50049 8.75062C2.50049 8.89895 2.54448 9.04396 2.62689 9.16729C2.7093 9.29063 2.82643 9.38676 2.96348 9.44352C3.10052 9.50029 3.25132 9.51514 3.39681 9.4862C3.54229 9.45727 3.67593 9.38583 3.78082 9.28095C3.88571 9.17606 3.95714 9.04242 3.98608 8.89693C4.01502 8.75145 4.00017 8.60065 3.9434 8.4636C3.88663 8.32656 3.7905 8.20942 3.66717 8.12701C3.54383 8.0446 3.39883 8.00062 3.25049 8.00062C3.05158 8.00062 2.86081 8.07963 2.72016 8.22029C2.57951 8.36094 2.50049 8.5517 2.50049 8.75062Z" fill="#3B3B3B"/>
</svg>
