<svg width="24" height="24" viewBox="0 0 24 24" fill="none" xmlns="http://www.w3.org/2000/svg">
<path d="M22.4578 21.2484C22.4063 21.395 22.3106 21.522 22.1838 21.6119C22.057 21.7017 21.9054 21.75 21.75 21.7499H2.24998C2.09448 21.7501 1.94278 21.7019 1.81589 21.612C1.68899 21.5221 1.59317 21.395 1.54169 21.2483C1.49021 21.1015 1.4856 20.9424 1.52852 20.793C1.57143 20.6435 1.65974 20.5111 1.78123 20.414C1.93404 20.2921 5.39341 17.5771 10.9959 17.2781C10.7045 16.1167 10.6004 14.9163 10.6875 13.7221C10.8497 11.6868 11.7103 8.97557 14.714 6.92713C14.2535 6.81526 13.7817 6.75644 13.3078 6.75182H13.1512C11.37 6.80995 10.2506 7.84963 9.72935 9.93182C9.68872 10.0944 9.59481 10.2387 9.46261 10.3416C9.33042 10.4446 9.16754 10.5003 8.99998 10.4999C8.93676 10.5007 8.87371 10.4932 8.81248 10.4774C8.61955 10.4292 8.45369 10.3063 8.35137 10.1357C8.24905 9.9652 8.21865 9.76101 8.26685 9.56807C9.13404 6.10401 11.3709 5.30995 13.095 5.25557C13.7797 5.24061 14.4633 5.31787 15.1275 5.48526C14.7694 4.89182 14.2444 4.27307 13.514 3.96182C12.5765 3.56432 11.4356 3.73776 10.11 4.47838C10.0238 4.5264 9.929 4.55697 9.83101 4.56835C9.73302 4.57973 9.63374 4.5717 9.53885 4.54471C9.44396 4.51772 9.35531 4.47231 9.27797 4.41106C9.20063 4.34982 9.13612 4.27394 9.0881 4.18776C9.04009 4.10158 9.00952 4.00679 8.99814 3.90879C8.98676 3.8108 8.99479 3.71152 9.02178 3.61663C9.04876 3.52174 9.09418 3.4331 9.15542 3.35576C9.21667 3.27842 9.29255 3.2139 9.37873 3.16588C11.1356 2.1862 12.7275 1.99026 14.1112 2.58463C15.2822 3.08713 16.0547 4.06401 16.5375 4.92838C17.1159 4.02463 17.8378 3.41245 18.6356 3.15276C19.7475 2.78995 20.9456 3.08526 22.1981 4.0312C22.3498 4.15347 22.4479 4.32997 22.4718 4.52333C22.4956 4.7167 22.4433 4.91176 22.3258 5.06721C22.2084 5.22267 22.0351 5.32632 21.8425 5.35623C21.65 5.38613 21.4534 5.33995 21.2944 5.22745C20.459 4.59651 19.7222 4.37807 19.1062 4.57776C18.4219 4.79807 17.8997 5.51526 17.5706 6.13495C18.2471 6.27114 18.8982 6.5125 19.5 6.85026C20.8697 7.63307 22.5 9.29245 22.5 12.7509C22.5 12.9498 22.421 13.1406 22.2803 13.2812C22.1397 13.4219 21.9489 13.5009 21.75 13.5009C21.5511 13.5009 21.3603 13.4219 21.2196 13.2812C21.079 13.1406 21 12.9498 21 12.7509C21 10.5515 20.2444 9.00088 18.75 8.15713C18.576 8.05833 18.396 7.97065 18.2109 7.89463C18.6831 8.85466 18.8488 9.93668 18.6853 10.994C18.5674 11.7763 18.2843 12.5244 17.8547 13.1887C17.7397 13.3499 17.5656 13.4592 17.3704 13.4925C17.1752 13.5259 16.9748 13.4807 16.8128 13.3669C16.6507 13.253 16.5403 13.0797 16.5056 12.8847C16.4709 12.6898 16.5147 12.489 16.6275 12.3262C16.6978 12.224 18.1584 10.0406 16.3219 7.69776C13.7906 9.1237 12.3947 11.1899 12.1819 13.8468C12.099 14.9978 12.2205 16.1544 12.5409 17.2631C18.4144 17.4328 22.0584 20.294 22.2159 20.4187C22.3369 20.5152 22.4251 20.6467 22.4684 20.7952C22.5117 20.9437 22.508 21.102 22.4578 21.2484ZM4.87498 15.7499C5.39415 15.7499 5.90167 15.596 6.33335 15.3076C6.76503 15.0191 7.10148 14.6091 7.30016 14.1295C7.49884 13.6498 7.55082 13.122 7.44954 12.6128C7.34825 12.1036 7.09825 11.6359 6.73113 11.2688C6.36402 10.9017 5.89629 10.6517 5.38709 10.5504C4.87789 10.4491 4.35009 10.5011 3.87043 10.6998C3.39078 10.8984 2.98081 11.2349 2.69237 11.6666C2.40393 12.0983 2.24998 12.6058 2.24998 13.1249C2.24998 13.8211 2.52654 14.4888 3.01882 14.9811C3.5111 15.4734 4.17878 15.7499 4.87498 15.7499Z" fill="#363B4C"/>
</svg>
