<svg width="25" height="25" viewBox="0 0 25 25" fill="none" xmlns="http://www.w3.org/2000/svg">
<path d="M7.75003 21.4368H4.75003C4.51984 21.4381 4.29168 21.3937 4.07876 21.3063C3.86585 21.2188 3.67241 21.0899 3.50964 20.9272C3.34687 20.7644 3.21803 20.571 3.13055 20.358C3.04308 20.1451 2.9987 19.917 3.00003 19.6868V17.1368C2.99958 16.9082 3.04442 16.6819 3.13196 16.4707C3.21949 16.2596 3.348 16.0679 3.51004 15.9068L9.17004 10.2468C8.9887 9.44982 8.95143 8.62684 9.06003 7.81677C9.19101 6.8578 9.52669 5.93821 10.0443 5.12037C10.5619 4.30254 11.2494 3.60558 12.06 3.07677C12.8716 2.54839 13.7904 2.20683 14.75 2.07677C15.7091 1.92965 16.6887 1.99451 17.62 2.26677C18.5507 2.53947 19.413 3.0064 20.15 3.63677C20.8807 4.27337 21.4674 5.05839 21.8709 5.93952C22.2744 6.82065 22.4855 7.77766 22.49 8.74677C22.4897 10.3373 21.9277 11.8767 20.9032 13.0934C19.8786 14.31 18.4574 15.1258 16.89 15.3968C16.0044 15.5537 15.0962 15.5299 14.22 15.3268L12.22 17.2768C12.0795 17.4175 11.8889 17.4966 11.69 17.4968H10.44V18.7468C10.4374 18.9449 10.3576 19.1341 10.2175 19.2742C10.0774 19.4143 9.88814 19.4942 9.69003 19.4968H8.44003V20.7468C8.42429 20.9245 8.34655 21.091 8.2204 21.2171C8.09425 21.3433 7.92774 21.421 7.75003 21.4368ZM15.75 3.43677C15.4922 3.43724 15.2348 3.4573 14.98 3.49677C14.2344 3.60586 13.5214 3.87539 12.89 4.28677C12.2587 4.70134 11.7206 5.24284 11.31 5.87677C10.911 6.51512 10.6519 7.23088 10.55 7.97677C10.4505 8.72382 10.5084 9.48345 10.72 10.2068C10.7597 10.3365 10.7639 10.4744 10.7322 10.6063C10.7006 10.7382 10.6342 10.8592 10.54 10.9568L4.54004 16.9568C4.49678 17.003 4.47188 17.0635 4.47003 17.1268V19.7168C4.4736 19.7827 4.49813 19.8458 4.54004 19.8968C4.59028 19.94 4.65379 19.9647 4.72003 19.9668H6.97003V18.7168C6.97262 18.5187 7.05247 18.3294 7.19256 18.1893C7.33266 18.0492 7.52192 17.9694 7.72003 17.9668H8.97003V16.7168C8.97262 16.5187 9.05247 16.3294 9.19256 16.1893C9.33266 16.0492 9.52192 15.9694 9.72003 15.9668H11.41L13.41 13.9668C13.5062 13.8735 13.625 13.8068 13.7548 13.7735C13.8846 13.7402 14.0208 13.7413 14.15 13.7768C14.9371 14.0161 15.7695 14.0675 16.58 13.9268C17.3883 13.7896 18.1528 13.4636 18.8113 12.9754C19.4699 12.4871 20.0039 11.8503 20.37 11.1168C20.7394 10.385 20.9312 9.5765 20.93 8.75677C20.9343 7.99802 20.7739 7.24739 20.4596 6.55676C20.1454 5.86613 19.6849 5.25198 19.11 4.75677C18.5279 4.26074 17.8458 3.89581 17.11 3.68677C16.6698 3.54338 16.2125 3.45931 15.75 3.43677ZM17.75 9.43677C17.5519 9.43418 17.3627 9.35433 17.2226 9.21424C17.0825 9.07414 17.0026 8.88488 17 8.68677C17 8.35525 16.8683 8.03731 16.6339 7.80289C16.3995 7.56847 16.0815 7.43677 15.75 7.43677C15.5511 7.43677 15.3603 7.35775 15.2197 7.2171C15.079 7.07645 15 6.88568 15 6.68677C15 6.48786 15.079 6.2971 15.2197 6.15644C15.3603 6.01579 15.5511 5.93677 15.75 5.93677C16.4794 5.93677 17.1789 6.2265 17.6946 6.74223C18.2103 7.25795 18.5 7.95743 18.5 8.68677C18.4974 8.88488 18.4176 9.07414 18.2775 9.21424C18.1374 9.35433 17.9481 9.43418 17.75 9.43677Z" fill="#3B3B3B"/>
</svg>
