<svg width="24" height="24" viewBox="0 0 24 24" fill="none" xmlns="http://www.w3.org/2000/svg">
<path fill-rule="evenodd" clip-rule="evenodd" d="M13.2521 2.29418C13.5507 2.40075 13.75 2.68352 13.75 3.00053V9.25053H20C20.2898 9.25053 20.5537 9.41748 20.6778 9.67935C20.8019 9.94123 20.764 10.2512 20.5805 10.4755L11.5805 21.4755C11.3797 21.7208 11.0464 21.8134 10.7479 21.7069C10.4493 21.6003 10.25 21.3175 10.25 21.0005V14.7505H4.00001C3.71022 14.7505 3.44635 14.5836 3.32226 14.3217C3.19816 14.0598 3.23603 13.7499 3.41954 13.5256L12.4195 2.5256C12.6203 2.28025 12.9536 2.18761 13.2521 2.29418ZM5.58269 13.2505H11C11.4142 13.2505 11.75 13.5863 11.75 14.0005V18.8995L18.4173 10.7505H13C12.5858 10.7505 12.25 10.4147 12.25 10.0005V5.10158L5.58269 13.2505Z" fill="#3B3B3B"/>
</svg>
