<svg width="25" height="25" viewBox="0 0 25 25" fill="none" xmlns="http://www.w3.org/2000/svg">
<path fill-rule="evenodd" clip-rule="evenodd" d="M12.9807 2.44992C13.3949 2.44992 13.7307 2.78571 13.7307 3.19992V4.19992C13.7307 4.61413 13.3949 4.94992 12.9807 4.94992C12.5665 4.94992 12.2307 4.61413 12.2307 4.19992V3.19992C12.2307 2.78571 12.5665 2.44992 12.9807 2.44992ZM19.875 5.30559C20.1679 5.59848 20.1679 6.07336 19.875 6.36625L19.168 7.07325C18.8751 7.36614 18.4003 7.36614 18.1074 7.07325C17.8145 6.78036 17.8145 6.30548 18.1074 6.01259L18.8144 5.30559C19.1073 5.0127 19.5821 5.0127 19.875 5.30559ZM6.08638 5.30559C6.37928 5.0127 6.85415 5.0127 7.14704 5.30559L7.85404 6.01259C8.14694 6.30548 8.14694 6.78036 7.85404 7.07325C7.56115 7.36614 7.08628 7.36614 6.79338 7.07325L6.08638 6.36625C5.79349 6.07336 5.79349 5.59848 6.08638 5.30559ZM12.9807 7.95085C12.1402 7.95085 11.3185 8.20008 10.6197 8.66703C9.92077 9.13398 9.37604 9.79767 9.05433 10.5742C8.73263 11.3507 8.6484 12.2052 8.81229 13.0296C8.97617 13.8538 9.38074 14.611 9.97487 15.2054C9.97478 15.2053 9.97495 15.2055 9.97487 15.2054L10.5226 15.7521C10.7356 15.9651 10.9234 16.1997 11.083 16.4499H14.8783C15.0388 16.1985 15.2264 15.9646 15.4383 15.7526L15.9863 15.2057C16.5803 14.6113 16.9853 13.8537 17.1491 13.0296C17.313 12.2052 17.2288 11.3507 16.9071 10.5742C16.5854 9.79767 16.0407 9.13398 15.3418 8.66703C14.6429 8.20008 13.8212 7.95085 12.9807 7.95085ZM14.2938 17.9499H11.6675C11.7093 18.1857 11.7307 18.4262 11.7307 18.6689V19.1999C11.7307 19.5314 11.8624 19.8494 12.0968 20.0838C12.3312 20.3182 12.6492 20.4499 12.9807 20.4499C13.3122 20.4499 13.6302 20.3182 13.8646 20.0838C14.099 19.8494 14.2307 19.5314 14.2307 19.1999V18.669C14.2307 18.669 14.2307 18.6691 14.2307 18.669C14.2307 18.4274 14.2519 18.1867 14.2938 17.9499ZM9.95699 17.5019C9.96415 17.5182 9.97187 17.5341 9.98012 17.5497C10.1435 17.8965 10.2307 18.2783 10.2307 18.6689V19.1999C10.2307 19.9293 10.5204 20.6287 11.0362 21.1445C11.5519 21.6602 12.2514 21.9499 12.9807 21.9499C13.7101 21.9499 14.4095 21.6602 14.9253 21.1445C15.441 20.6287 15.7307 19.9293 15.7307 19.1999V18.6689C15.7307 18.3243 15.7985 17.983 15.9303 17.6646C16.0621 17.3464 16.2552 17.0572 16.4987 16.8136C16.4985 16.8138 16.4988 16.8135 16.4987 16.8136L17.0466 16.2667C17.8506 15.4625 18.3986 14.4374 18.6203 13.3221C18.8421 12.2067 18.7281 11.0507 18.2929 10.0001C17.8576 8.94949 17.1206 8.05155 16.1751 7.4198C15.2295 6.78805 14.1179 6.45085 12.9807 6.45085C11.8435 6.45085 10.7319 6.78805 9.78634 7.4198C8.84079 8.05155 8.1038 8.94949 7.66855 10.0001C7.2333 11.0507 7.11934 12.2067 7.34109 13.3221C7.56283 14.4374 8.11031 15.462 8.91431 16.2662L9.46238 16.8132C9.66505 17.016 9.83171 17.2494 9.95699 17.5019ZM3.23071 12.1999C3.23071 11.7857 3.5665 11.4499 3.98071 11.4499H4.98071C5.39493 11.4499 5.73071 11.7857 5.73071 12.1999C5.73071 12.6141 5.39493 12.9499 4.98071 12.9499H3.98071C3.5665 12.9499 3.23071 12.6141 3.23071 12.1999ZM20.2307 12.1999C20.2307 11.7857 20.5665 11.4499 20.9807 11.4499H21.9807C22.3949 11.4499 22.7307 11.7857 22.7307 12.1999C22.7307 12.6141 22.3949 12.9499 21.9807 12.9499H20.9807C20.5665 12.9499 20.2307 12.6141 20.2307 12.1999Z" fill="#3B3B3B"/>
</svg>
