<svg width="25" height="24" viewBox="0 0 25 24" fill="none" xmlns="http://www.w3.org/2000/svg">
<path fill-rule="evenodd" clip-rule="evenodd" d="M12.4358 3.75052C11.5738 3.75052 10.7472 4.09293 10.1377 4.70242C9.5282 5.31191 9.18579 6.13856 9.18579 7.00052V10.2505H18.4358C19.1651 10.2505 19.8646 10.5402 20.3803 11.056C20.8961 11.5717 21.1858 12.2712 21.1858 13.0005V19.0005C21.1858 19.7299 20.8961 20.4293 20.3803 20.9451C19.8646 21.4608 19.1651 21.7505 18.4358 21.7505H6.43579C5.70645 21.7505 5.00697 21.4608 4.49125 20.9451C3.97552 20.4293 3.68579 19.7299 3.68579 19.0005V13.0005C3.68579 12.2712 3.97552 11.5717 4.49125 11.056C5.00697 10.5402 5.70645 10.2505 6.43579 10.2505H7.68579V7.00052C7.68579 5.74074 8.18624 4.53256 9.07703 3.64176C9.96783 2.75096 11.176 2.25052 12.4358 2.25052C13.6956 2.25052 14.9037 2.75096 15.7945 3.64176C16.6853 4.53256 17.1858 5.74074 17.1858 7.00052C17.1858 7.41473 16.85 7.75052 16.4358 7.75052C16.0216 7.75052 15.6858 7.41473 15.6858 7.00052C15.6858 6.13856 15.3434 5.31191 14.7339 4.70242C14.1244 4.09293 13.2977 3.75052 12.4358 3.75052ZM6.43579 11.7505C6.10427 11.7505 5.78633 11.8822 5.55191 12.1166C5.31749 12.3511 5.18579 12.669 5.18579 13.0005V19.0005C5.18579 19.332 5.31749 19.65 5.55191 19.8844C5.78633 20.1188 6.10427 20.2505 6.43579 20.2505H18.4358C18.7673 20.2505 19.0853 20.1188 19.3197 19.8844C19.5541 19.65 19.6858 19.332 19.6858 19.0005V13.0005C19.6858 12.669 19.5541 12.3511 19.3197 12.1166C19.0853 11.8822 18.7673 11.7505 18.4358 11.7505H6.43579ZM12.4358 14.2505C12.85 14.2505 13.1858 14.5863 13.1858 15.0005V17.0005C13.1858 17.4147 12.85 17.7505 12.4358 17.7505C12.0216 17.7505 11.6858 17.4147 11.6858 17.0005V15.0005C11.6858 14.5863 12.0216 14.2505 12.4358 14.2505Z" fill="#3B3B3B"/>
</svg>
