<svg width="25" height="24" viewBox="0 0 25 24" fill="none" xmlns="http://www.w3.org/2000/svg">
<path fill-rule="evenodd" clip-rule="evenodd" d="M8.96833 3.64176C9.85913 2.75096 11.0673 2.25052 12.3271 2.25052C13.5869 2.25052 14.795 2.75096 15.6858 3.64176C16.5766 4.53256 17.0771 5.74074 17.0771 7.00052V10.2505H18.3271C19.0564 10.2505 19.7559 10.5402 20.2716 11.056C20.7874 11.5717 21.0771 12.2712 21.0771 13.0005V19.0005C21.0771 19.7299 20.7874 20.4293 20.2716 20.9451C19.7559 21.4608 19.0564 21.7505 18.3271 21.7505H6.32709C5.59774 21.7505 4.89827 21.4608 4.38254 20.9451C3.86682 20.4293 3.57709 19.7299 3.57709 19.0005V13.0005C3.57709 12.2712 3.86682 11.5717 4.38254 11.056C4.89827 10.5402 5.59774 10.2505 6.32709 10.2505H7.57709V7.00052C7.57709 5.74074 8.07753 4.53256 8.96833 3.64176ZM9.07709 10.2505H15.5771V7.00052C15.5771 6.13856 15.2347 5.31191 14.6252 4.70242C14.0157 4.09293 13.189 3.75052 12.3271 3.75052C11.4651 3.75052 10.6385 4.09293 10.029 4.70242C9.4195 5.31191 9.07709 6.13856 9.07709 7.00052V10.2505ZM6.32709 11.7505C5.99557 11.7505 5.67762 11.8822 5.4432 12.1166C5.20878 12.3511 5.07709 12.669 5.07709 13.0005V19.0005C5.07709 19.332 5.20878 19.65 5.4432 19.8844C5.67762 20.1188 5.99557 20.2505 6.32709 20.2505H18.3271C18.6586 20.2505 18.9765 20.1188 19.211 19.8844C19.4454 19.65 19.5771 19.332 19.5771 19.0005V13.0005C19.5771 12.669 19.4454 12.3511 19.211 12.1166C18.9765 11.8822 18.6586 11.7505 18.3271 11.7505H6.32709ZM12.3271 14.2505C12.7413 14.2505 13.0771 14.5863 13.0771 15.0005V17.0005C13.0771 17.4147 12.7413 17.7505 12.3271 17.7505C11.9129 17.7505 11.5771 17.4147 11.5771 17.0005V15.0005C11.5771 14.5863 11.9129 14.2505 12.3271 14.2505Z" fill="#3B3B3B"/>
</svg>
