<svg width="25" height="24" viewBox="0 0 25 24" fill="none" xmlns="http://www.w3.org/2000/svg">
<path fill-rule="evenodd" clip-rule="evenodd" d="M6.54486 4.75C5.94812 4.75 5.37583 4.98705 4.95387 5.40901C4.53191 5.83097 4.29486 6.40326 4.29486 7V17C4.29486 17.5967 4.53191 18.169 4.95387 18.591C5.37583 19.0129 5.94812 19.25 6.54486 19.25H13.5449C14.1416 19.25 14.7139 19.0129 15.1358 18.591C15.5578 18.169 15.7949 17.5967 15.7949 17V16C15.7949 15.5858 16.1306 15.25 16.5449 15.25C16.9591 15.25 17.2949 15.5858 17.2949 16V17C17.2949 17.9946 16.8998 18.9484 16.1965 19.6516C15.4932 20.3549 14.5394 20.75 13.5449 20.75H6.54486C5.5503 20.75 4.59647 20.3549 3.89321 19.6516C3.18995 18.9484 2.79486 17.9946 2.79486 17V7C2.79486 6.00544 3.18995 5.05161 3.89321 4.34835C4.59647 3.64509 5.5503 3.25 6.54486 3.25H13.5449C14.5394 3.25 15.4932 3.64509 16.1965 4.34835C16.8998 5.05161 17.2949 6.00544 17.2949 7V8C17.2949 8.41421 16.9591 8.75 16.5449 8.75C16.1306 8.75 15.7949 8.41421 15.7949 8V7C15.7949 6.40326 15.5578 5.83097 15.1358 5.40901C14.7139 4.98705 14.1416 4.75 13.5449 4.75H6.54486ZM12.0752 7.46967C12.3681 7.76256 12.3681 8.23744 12.0752 8.53033L9.35552 11.25H21.5449C21.9591 11.25 22.2949 11.5858 22.2949 12C22.2949 12.4142 21.9591 12.75 21.5449 12.75H9.35552L12.0752 15.4697C12.3681 15.7626 12.3681 16.2374 12.0752 16.5303C11.7823 16.8232 11.3074 16.8232 11.0145 16.5303L7.01453 12.5303C6.72164 12.2374 6.72164 11.7626 7.01453 11.4697L11.0145 7.46967C11.3074 7.17678 11.7823 7.17678 12.0752 7.46967Z" fill="#3B3B3B"/>
</svg>
