<svg width="25" height="24" viewBox="0 0 25 24" fill="none" xmlns="http://www.w3.org/2000/svg">
<path fill-rule="evenodd" clip-rule="evenodd" d="M6.65381 4.75C6.05707 4.75 5.48478 4.98705 5.06282 5.40901C4.64086 5.83097 4.40381 6.40326 4.40381 7V17C4.40381 17.5967 4.64086 18.169 5.06282 18.591C5.48478 19.0129 6.05707 19.25 6.65381 19.25H10.6538C11.2505 19.25 11.8228 19.0129 12.2448 18.591C12.6668 18.169 12.9038 17.5967 12.9038 17V16C12.9038 15.5858 13.2396 15.25 13.6538 15.25C14.068 15.25 14.4038 15.5858 14.4038 16V17C14.4038 17.9946 14.0087 18.9484 13.3055 19.6516C12.6022 20.3549 11.6484 20.75 10.6538 20.75H6.65381C5.65925 20.75 4.70542 20.3549 4.00216 19.6516C3.2989 18.9484 2.90381 17.9946 2.90381 17V7C2.90381 6.00544 3.2989 5.05161 4.00216 4.34835C4.70542 3.64509 5.65925 3.25 6.65381 3.25H10.6538C11.6484 3.25 12.6022 3.64509 13.3055 4.34835C14.0087 5.05161 14.4038 6.00544 14.4038 7V8C14.4038 8.41421 14.068 8.75 13.6538 8.75C13.2396 8.75 12.9038 8.41421 12.9038 8V7C12.9038 6.40326 12.6668 5.83097 12.2448 5.40901C11.8228 4.98705 11.2505 4.75 10.6538 4.75H6.65381ZM17.1235 7.46967C17.4164 7.17678 17.8912 7.17678 18.1841 7.46967L22.1841 11.4697C22.477 11.7626 22.477 12.2374 22.1841 12.5303L18.1841 16.5303C17.8912 16.8232 17.4164 16.8232 17.1235 16.5303C16.8306 16.2374 16.8306 15.7626 17.1235 15.4697L19.8431 12.75H7.65381C7.23959 12.75 6.90381 12.4142 6.90381 12C6.90381 11.5858 7.23959 11.25 7.65381 11.25H19.8431L17.1235 8.53033C16.8306 8.23744 16.8306 7.76256 17.1235 7.46967Z" fill="#3B3B3B"/>
</svg>
