<svg width="40" height="40" viewBox="0 0 40 40" fill="none" xmlns="http://www.w3.org/2000/svg">
<rect width="40" height="40" rx="2" fill="#9CA0D7"/>
<path d="M10.4734 20.566C10.8094 20.566 11.1054 20.526 11.3614 20.446C11.6214 20.362 11.8374 20.246 12.0094 20.098C12.1854 19.946 12.3174 19.766 12.4054 19.558C12.4934 19.35 12.5374 19.12 12.5374 18.868C12.5374 18.356 12.3694 17.97 12.0334 17.71C11.6974 17.45 11.1934 17.32 10.5214 17.32H9.24943V20.566H10.4734ZM14.4454 25H13.4134C13.2014 25 13.0454 24.918 12.9454 24.754L10.7134 21.682C10.6454 21.586 10.5714 21.518 10.4914 21.478C10.4154 21.434 10.2954 21.412 10.1314 21.412H9.24943V25H8.09143V16.402H10.5214C11.0654 16.402 11.5354 16.458 11.9314 16.57C12.3274 16.678 12.6534 16.836 12.9094 17.044C13.1694 17.252 13.3614 17.504 13.4854 17.8C13.6094 18.092 13.6714 18.42 13.6714 18.784C13.6714 19.088 13.6234 19.372 13.5274 19.636C13.4314 19.9 13.2914 20.138 13.1074 20.35C12.9274 20.558 12.7054 20.736 12.4414 20.884C12.1814 21.032 11.8854 21.144 11.5534 21.22C11.7014 21.304 11.8294 21.426 11.9374 21.586L14.4454 25ZM22.7868 24.052L22.7808 25H17.4828V16.402H22.7808V17.35H18.6468V20.206H21.9948V21.118H18.6468V24.052H22.7868ZM32.1249 23.224C32.1889 23.224 32.2449 23.25 32.2929 23.302L32.7549 23.8C32.4029 24.208 31.9749 24.526 31.4709 24.754C30.9709 24.982 30.3649 25.096 29.6529 25.096C29.0369 25.096 28.4769 24.99 27.9729 24.778C27.4689 24.562 27.0389 24.262 26.6829 23.878C26.3269 23.49 26.0509 23.026 25.8549 22.486C25.6589 21.946 25.5609 21.352 25.5609 20.704C25.5609 20.056 25.6629 19.462 25.8669 18.922C26.0709 18.382 26.3569 17.918 26.7249 17.53C27.0969 17.142 27.5409 16.842 28.0569 16.63C28.5729 16.414 29.1429 16.306 29.7669 16.306C30.3789 16.306 30.9189 16.404 31.3869 16.6C31.8549 16.796 32.2669 17.062 32.6229 17.398L32.2389 17.932C32.2149 17.972 32.1829 18.006 32.1429 18.034C32.1069 18.058 32.0569 18.07 31.9929 18.07C31.9209 18.07 31.8329 18.032 31.7289 17.956C31.6249 17.876 31.4889 17.788 31.3209 17.692C31.1529 17.596 30.9429 17.51 30.6909 17.434C30.4389 17.354 30.1289 17.314 29.7609 17.314C29.3169 17.314 28.9109 17.392 28.5429 17.548C28.1749 17.7 27.8569 17.922 27.5889 18.214C27.3249 18.506 27.1189 18.862 26.9709 19.282C26.8229 19.702 26.7489 20.176 26.7489 20.704C26.7489 21.24 26.8249 21.718 26.9769 22.138C27.1329 22.558 27.3429 22.914 27.6069 23.206C27.8749 23.494 28.1889 23.714 28.5489 23.866C28.9129 24.018 29.3049 24.094 29.7249 24.094C29.9809 24.094 30.2109 24.08 30.4149 24.052C30.6229 24.02 30.8129 23.972 30.9849 23.908C31.1609 23.844 31.3229 23.764 31.4709 23.668C31.6229 23.568 31.7729 23.45 31.9209 23.314C31.9889 23.254 32.0569 23.224 32.1249 23.224Z" fill="#0E1326"/>
</svg>
