<svg width="40" height="40" viewBox="0 0 40 40" fill="none" xmlns="http://www.w3.org/2000/svg">
<rect width="40" height="40" rx="2" fill="#646A8B"/>
<path d="M10.6943 24.052L10.6883 25H5.39026V16.402H10.6883V17.35H6.55426V20.206H9.90226V21.118H6.55426V24.052H10.6943ZM23.1299 16.402V25H22.1099V18.682C22.1099 18.598 22.1119 18.508 22.1159 18.412C22.1239 18.316 22.1319 18.218 22.1399 18.118L19.1879 23.494C19.0959 23.674 18.9559 23.764 18.7679 23.764H18.5999C18.4119 23.764 18.2719 23.674 18.1799 23.494L15.1679 18.094C15.1919 18.306 15.2039 18.502 15.2039 18.682V25H14.1839V16.402H15.0419C15.1459 16.402 15.2259 16.412 15.2819 16.432C15.3379 16.452 15.3919 16.508 15.4439 16.6L18.4139 21.892C18.4619 21.988 18.5079 22.088 18.5519 22.192C18.5999 22.296 18.6439 22.402 18.6839 22.51C18.7239 22.402 18.7659 22.296 18.8099 22.192C18.8539 22.084 18.9019 21.982 18.9539 21.886L21.8699 16.6C21.9179 16.508 21.9699 16.452 22.0259 16.432C22.0859 16.412 22.1679 16.402 22.2719 16.402H23.1299ZM35.1404 20.704C35.1404 21.348 35.0384 21.94 34.8344 22.48C34.6304 23.016 34.3424 23.478 33.9704 23.866C33.5984 24.254 33.1504 24.556 32.6264 24.772C32.1064 24.984 31.5304 25.09 30.8984 25.09C30.2664 25.09 29.6904 24.984 29.1704 24.772C28.6504 24.556 28.2044 24.254 27.8324 23.866C27.4604 23.478 27.1724 23.016 26.9684 22.48C26.7644 21.94 26.6624 21.348 26.6624 20.704C26.6624 20.06 26.7644 19.47 26.9684 18.934C27.1724 18.394 27.4604 17.93 27.8324 17.542C28.2044 17.15 28.6504 16.846 29.1704 16.63C29.6904 16.414 30.2664 16.306 30.8984 16.306C31.5304 16.306 32.1064 16.414 32.6264 16.63C33.1504 16.846 33.5984 17.15 33.9704 17.542C34.3424 17.93 34.6304 18.394 34.8344 18.934C35.0384 19.47 35.1404 20.06 35.1404 20.704ZM33.9464 20.704C33.9464 20.176 33.8744 19.702 33.7304 19.282C33.5864 18.862 33.3824 18.508 33.1184 18.22C32.8544 17.928 32.5344 17.704 32.1584 17.548C31.7824 17.392 31.3624 17.314 30.8984 17.314C30.4384 17.314 30.0204 17.392 29.6444 17.548C29.2684 17.704 28.9464 17.928 28.6784 18.22C28.4144 18.508 28.2104 18.862 28.0664 19.282C27.9224 19.702 27.8504 20.176 27.8504 20.704C27.8504 21.232 27.9224 21.706 28.0664 22.126C28.2104 22.542 28.4144 22.896 28.6784 23.188C28.9464 23.476 29.2684 23.698 29.6444 23.854C30.0204 24.006 30.4384 24.082 30.8984 24.082C31.3624 24.082 31.7824 24.006 32.1584 23.854C32.5344 23.698 32.8544 23.476 33.1184 23.188C33.3824 22.896 33.5864 22.542 33.7304 22.126C33.8744 21.706 33.9464 21.232 33.9464 20.704Z" fill="white"/>
</svg>
