<svg width="40" height="40" viewBox="0 0 40 40" fill="none" xmlns="http://www.w3.org/2000/svg">
<rect width="40" height="40" rx="2" fill="#9CA0D7"/>
<path d="M14.2777 16.402V25H13.2577V18.682C13.2577 18.598 13.2597 18.508 13.2637 18.412C13.2717 18.316 13.2797 18.218 13.2877 18.118L10.3357 23.494C10.2437 23.674 10.1037 23.764 9.91567 23.764H9.74767C9.55967 23.764 9.41967 23.674 9.32767 23.494L6.31567 18.094C6.33967 18.306 6.35167 18.502 6.35167 18.682V25H5.33167V16.402H6.18967C6.29367 16.402 6.37367 16.412 6.42967 16.432C6.48567 16.452 6.53967 16.508 6.59167 16.6L9.56167 21.892C9.60967 21.988 9.65567 22.088 9.69967 22.192C9.74767 22.296 9.79167 22.402 9.83167 22.51C9.87167 22.402 9.91367 22.296 9.95767 22.192C10.0017 22.084 10.0497 21.982 10.1017 21.886L13.0177 16.6C13.0657 16.508 13.1177 16.452 13.1737 16.432C13.2337 16.412 13.3157 16.402 13.4197 16.402H14.2777ZM21.5721 21.574V25H20.4081V21.574L17.2581 16.402H18.2781C18.3821 16.402 18.4641 16.428 18.5241 16.48C18.5841 16.528 18.6361 16.592 18.6801 16.672L20.6481 20.014C20.7201 20.154 20.7861 20.286 20.8461 20.41C20.9061 20.53 20.9581 20.652 21.0021 20.776C21.0461 20.652 21.0961 20.53 21.1521 20.41C21.2081 20.286 21.2701 20.154 21.3381 20.014L23.3001 16.672C23.3361 16.604 23.3861 16.542 23.4501 16.486C23.5141 16.43 23.5961 16.402 23.6961 16.402H24.7221L21.5721 21.574ZM34.6663 16.402V25H33.5023V21.088H28.8643V25H27.7003V16.402H28.8643V20.236H33.5023V16.402H34.6663Z" fill="#0E1326"/>
</svg>
