<svg width="40" height="40" viewBox="0 0 40 40" fill="none" xmlns="http://www.w3.org/2000/svg">
<rect width="40" height="40" rx="2" fill="#DEE5F2"/>
<path d="M12.505 17.38H9.72104V25H8.56304V17.38H5.77304V16.402H12.505V17.38ZM18.9668 24.076C19.3228 24.076 19.6408 24.016 19.9208 23.896C20.2008 23.776 20.4368 23.608 20.6288 23.392C20.8248 23.176 20.9728 22.918 21.0728 22.618C21.1768 22.318 21.2288 21.988 21.2288 21.628V16.402H22.3868V21.628C22.3868 22.124 22.3068 22.584 22.1468 23.008C21.9908 23.432 21.7648 23.8 21.4688 24.112C21.1768 24.42 20.8188 24.662 20.3948 24.838C19.9708 25.014 19.4948 25.102 18.9668 25.102C18.4388 25.102 17.9628 25.014 17.5388 24.838C17.1148 24.662 16.7548 24.42 16.4588 24.112C16.1628 23.8 15.9348 23.432 15.7748 23.008C15.6188 22.584 15.5408 22.124 15.5408 21.628V16.402H16.6988V21.622C16.6988 21.982 16.7488 22.312 16.8488 22.612C16.9528 22.912 17.1008 23.17 17.2928 23.386C17.4888 23.602 17.7268 23.772 18.0068 23.896C18.2908 24.016 18.6108 24.076 18.9668 24.076ZM33.3069 16.402V25H32.7249C32.6329 25 32.5549 24.984 32.4909 24.952C32.4309 24.92 32.3709 24.866 32.3109 24.79L27.3369 18.31C27.3449 18.41 27.3509 18.508 27.3549 18.604C27.3589 18.7 27.3609 18.79 27.3609 18.874V25H26.3409V16.402H26.9409C26.9929 16.402 27.0369 16.406 27.0729 16.414C27.1089 16.418 27.1409 16.428 27.1689 16.444C27.1969 16.456 27.2249 16.476 27.2529 16.504C27.2809 16.528 27.3109 16.56 27.3429 16.6L32.3169 23.074C32.3089 22.97 32.3009 22.87 32.2929 22.774C32.2889 22.674 32.2869 22.58 32.2869 22.492V16.402H33.3069Z" fill="#0E1326"/>
</svg>
