<svg width="40" height="40" viewBox="0 0 40 40" fill="none" xmlns="http://www.w3.org/2000/svg">
<rect width="40" height="40" rx="2" fill="#9CA0D7"/>
<path d="M13.5422 17.38H10.7582V25H9.60015V17.38H6.81015V16.402H13.5422V17.38ZM20.0039 24.076C20.3599 24.076 20.6779 24.016 20.9579 23.896C21.2379 23.776 21.4739 23.608 21.6659 23.392C21.8619 23.176 22.0099 22.918 22.1099 22.618C22.2139 22.318 22.2659 21.988 22.2659 21.628V16.402H23.4239V21.628C23.4239 22.124 23.3439 22.584 23.1839 23.008C23.0279 23.432 22.8019 23.8 22.5059 24.112C22.2139 24.42 21.8559 24.662 21.4319 24.838C21.0079 25.014 20.5319 25.102 20.0039 25.102C19.4759 25.102 18.9999 25.014 18.5759 24.838C18.1519 24.662 17.7919 24.42 17.4959 24.112C17.1999 23.8 16.9719 23.432 16.8119 23.008C16.6559 22.584 16.5779 22.124 16.5779 21.628V16.402H17.7359V21.622C17.7359 21.982 17.7859 22.312 17.8859 22.612C17.9899 22.912 18.1379 23.17 18.3299 23.386C18.5259 23.602 18.7639 23.772 19.0439 23.896C19.3279 24.016 19.6479 24.076 20.0039 24.076ZM33.192 17.38H30.408V25H29.25V17.38H26.46V16.402H33.192V17.38Z" fill="#0E1326"/>
</svg>
