<svg width="40" height="40" viewBox="0 0 40 40" fill="none" xmlns="http://www.w3.org/2000/svg">
<rect width="40" height="40" rx="2" fill="#9CA0D7"/>
<path d="M12.759 17.746C12.723 17.806 12.683 17.852 12.639 17.884C12.599 17.912 12.549 17.926 12.489 17.926C12.421 17.926 12.341 17.892 12.249 17.824C12.157 17.756 12.041 17.682 11.901 17.602C11.765 17.518 11.599 17.442 11.403 17.374C11.211 17.306 10.977 17.272 10.701 17.272C10.441 17.272 10.211 17.308 10.011 17.38C9.81497 17.448 9.64897 17.542 9.51297 17.662C9.38097 17.782 9.28097 17.924 9.21297 18.088C9.14497 18.248 9.11097 18.422 9.11097 18.61C9.11097 18.85 9.16897 19.05 9.28497 19.21C9.40497 19.366 9.56097 19.5 9.75297 19.612C9.94897 19.724 10.169 19.822 10.413 19.906C10.661 19.986 10.913 20.07 11.169 20.158C11.429 20.246 11.681 20.346 11.925 20.458C12.173 20.566 12.393 20.704 12.585 20.872C12.781 21.04 12.937 21.246 13.053 21.49C13.173 21.734 13.233 22.034 13.233 22.39C13.233 22.766 13.169 23.12 13.041 23.452C12.913 23.78 12.725 24.066 12.477 24.31C12.233 24.554 11.931 24.746 11.571 24.886C11.215 25.026 10.809 25.096 10.353 25.096C9.79297 25.096 9.28497 24.996 8.82897 24.796C8.37297 24.592 7.98297 24.318 7.65897 23.974L7.99497 23.422C8.02697 23.378 8.06497 23.342 8.10897 23.314C8.15697 23.282 8.20897 23.266 8.26497 23.266C8.31697 23.266 8.37497 23.288 8.43897 23.332C8.50697 23.372 8.58297 23.424 8.66697 23.488C8.75097 23.552 8.84697 23.622 8.95497 23.698C9.06297 23.774 9.18497 23.844 9.32097 23.908C9.46097 23.972 9.61897 24.026 9.79497 24.07C9.97097 24.11 10.169 24.13 10.389 24.13C10.665 24.13 10.911 24.092 11.127 24.016C11.343 23.94 11.525 23.834 11.673 23.698C11.825 23.558 11.941 23.392 12.021 23.2C12.101 23.008 12.141 22.794 12.141 22.558C12.141 22.298 12.081 22.086 11.961 21.922C11.845 21.754 11.691 21.614 11.499 21.502C11.307 21.39 11.087 21.296 10.839 21.22C10.591 21.14 10.339 21.06 10.083 20.98C9.82697 20.896 9.57497 20.8 9.32697 20.692C9.07897 20.584 8.85897 20.444 8.66697 20.272C8.47497 20.1 8.31897 19.886 8.19897 19.63C8.08297 19.37 8.02497 19.05 8.02497 18.67C8.02497 18.366 8.08297 18.072 8.19897 17.788C8.31897 17.504 8.49097 17.252 8.71497 17.032C8.94297 16.812 9.22097 16.636 9.54897 16.504C9.88097 16.372 10.261 16.306 10.689 16.306C11.169 16.306 11.605 16.382 11.997 16.534C12.393 16.686 12.741 16.906 13.041 17.194L12.759 17.746ZM19.2825 20.86C19.6145 20.86 19.9065 20.816 20.1585 20.728C20.4145 20.64 20.6285 20.518 20.8005 20.362C20.9765 20.202 21.1085 20.012 21.1965 19.792C21.2845 19.572 21.3285 19.33 21.3285 19.066C21.3285 18.518 21.1585 18.09 20.8185 17.782C20.4825 17.474 19.9705 17.32 19.2825 17.32H17.9025V20.86H19.2825ZM19.2825 16.402C19.8265 16.402 20.2985 16.466 20.6985 16.594C21.1025 16.718 21.4365 16.896 21.7005 17.128C21.9645 17.36 22.1605 17.64 22.2885 17.968C22.4205 18.296 22.4865 18.662 22.4865 19.066C22.4865 19.466 22.4165 19.832 22.2765 20.164C22.1365 20.496 21.9305 20.782 21.6585 21.022C21.3905 21.262 21.0565 21.45 20.6565 21.586C20.2605 21.718 19.8025 21.784 19.2825 21.784H17.9025V25H16.7445V16.402H19.2825ZM31.8554 23.224C31.9194 23.224 31.9754 23.25 32.0234 23.302L32.4854 23.8C32.1334 24.208 31.7054 24.526 31.2014 24.754C30.7014 24.982 30.0954 25.096 29.3834 25.096C28.7674 25.096 28.2074 24.99 27.7034 24.778C27.1994 24.562 26.7694 24.262 26.4134 23.878C26.0574 23.49 25.7814 23.026 25.5854 22.486C25.3894 21.946 25.2914 21.352 25.2914 20.704C25.2914 20.056 25.3934 19.462 25.5974 18.922C25.8014 18.382 26.0874 17.918 26.4554 17.53C26.8274 17.142 27.2714 16.842 27.7874 16.63C28.3034 16.414 28.8734 16.306 29.4974 16.306C30.1094 16.306 30.6494 16.404 31.1174 16.6C31.5854 16.796 31.9974 17.062 32.3534 17.398L31.9694 17.932C31.9454 17.972 31.9134 18.006 31.8734 18.034C31.8374 18.058 31.7874 18.07 31.7234 18.07C31.6514 18.07 31.5634 18.032 31.4594 17.956C31.3554 17.876 31.2194 17.788 31.0514 17.692C30.8834 17.596 30.6734 17.51 30.4214 17.434C30.1694 17.354 29.8594 17.314 29.4914 17.314C29.0474 17.314 28.6414 17.392 28.2734 17.548C27.9054 17.7 27.5874 17.922 27.3194 18.214C27.0554 18.506 26.8494 18.862 26.7014 19.282C26.5534 19.702 26.4794 20.176 26.4794 20.704C26.4794 21.24 26.5554 21.718 26.7074 22.138C26.8634 22.558 27.0734 22.914 27.3374 23.206C27.6054 23.494 27.9194 23.714 28.2794 23.866C28.6434 24.018 29.0354 24.094 29.4554 24.094C29.7114 24.094 29.9414 24.08 30.1454 24.052C30.3534 24.02 30.5434 23.972 30.7154 23.908C30.8914 23.844 31.0534 23.764 31.2014 23.668C31.3534 23.568 31.5034 23.45 31.6514 23.314C31.7194 23.254 31.7874 23.224 31.8554 23.224Z" fill="#0E1326"/>
</svg>
