<svg width="41" height="40" viewBox="0 0 41 40" fill="none" xmlns="http://www.w3.org/2000/svg">
<rect x="0.5" width="40" height="40" rx="2" fill="#E1E3F3"/>
<path d="M15.3987 20.704C15.3987 21.348 15.2967 21.94 15.0927 22.48C14.8887 23.016 14.6007 23.478 14.2287 23.866C13.8567 24.254 13.4087 24.556 12.8847 24.772C12.3647 24.984 11.7887 25.09 11.1567 25.09C10.5247 25.09 9.94872 24.984 9.42872 24.772C8.90872 24.556 8.46272 24.254 8.09072 23.866C7.71872 23.478 7.43072 23.016 7.22672 22.48C7.02272 21.94 6.92072 21.348 6.92072 20.704C6.92072 20.06 7.02272 19.47 7.22672 18.934C7.43072 18.394 7.71872 17.93 8.09072 17.542C8.46272 17.15 8.90872 16.846 9.42872 16.63C9.94872 16.414 10.5247 16.306 11.1567 16.306C11.7887 16.306 12.3647 16.414 12.8847 16.63C13.4087 16.846 13.8567 17.15 14.2287 17.542C14.6007 17.93 14.8887 18.394 15.0927 18.934C15.2967 19.47 15.3987 20.06 15.3987 20.704ZM14.2047 20.704C14.2047 20.176 14.1327 19.702 13.9887 19.282C13.8447 18.862 13.6407 18.508 13.3767 18.22C13.1127 17.928 12.7927 17.704 12.4167 17.548C12.0407 17.392 11.6207 17.314 11.1567 17.314C10.6967 17.314 10.2787 17.392 9.90272 17.548C9.52672 17.704 9.20472 17.928 8.93672 18.22C8.67272 18.508 8.46872 18.862 8.32472 19.282C8.18072 19.702 8.10872 20.176 8.10872 20.704C8.10872 21.232 8.18072 21.706 8.32472 22.126C8.46872 22.542 8.67272 22.896 8.93672 23.188C9.20472 23.476 9.52672 23.698 9.90272 23.854C10.2787 24.006 10.6967 24.082 11.1567 24.082C11.6207 24.082 12.0407 24.006 12.4167 23.854C12.7927 23.698 13.1127 23.476 13.3767 23.188C13.6407 22.896 13.8447 22.542 13.9887 22.126C14.1327 21.706 14.2047 21.232 14.2047 20.704ZM24.968 23.224C25.032 23.224 25.088 23.25 25.136 23.302L25.598 23.8C25.246 24.208 24.818 24.526 24.314 24.754C23.814 24.982 23.208 25.096 22.496 25.096C21.88 25.096 21.32 24.99 20.816 24.778C20.312 24.562 19.882 24.262 19.526 23.878C19.17 23.49 18.894 23.026 18.698 22.486C18.502 21.946 18.404 21.352 18.404 20.704C18.404 20.056 18.506 19.462 18.71 18.922C18.914 18.382 19.2 17.918 19.568 17.53C19.94 17.142 20.384 16.842 20.9 16.63C21.416 16.414 21.986 16.306 22.61 16.306C23.222 16.306 23.762 16.404 24.23 16.6C24.698 16.796 25.11 17.062 25.466 17.398L25.082 17.932C25.058 17.972 25.026 18.006 24.986 18.034C24.95 18.058 24.9 18.07 24.836 18.07C24.764 18.07 24.676 18.032 24.572 17.956C24.468 17.876 24.332 17.788 24.164 17.692C23.996 17.596 23.786 17.51 23.534 17.434C23.282 17.354 22.972 17.314 22.604 17.314C22.16 17.314 21.754 17.392 21.386 17.548C21.018 17.7 20.7 17.922 20.432 18.214C20.168 18.506 19.962 18.862 19.814 19.282C19.666 19.702 19.592 20.176 19.592 20.704C19.592 21.24 19.668 21.718 19.82 22.138C19.976 22.558 20.186 22.914 20.45 23.206C20.718 23.494 21.032 23.714 21.392 23.866C21.756 24.018 22.148 24.094 22.568 24.094C22.824 24.094 23.054 24.08 23.258 24.052C23.466 24.02 23.656 23.972 23.828 23.908C24.004 23.844 24.166 23.764 24.314 23.668C24.466 23.568 24.616 23.45 24.764 23.314C24.832 23.254 24.9 23.224 24.968 23.224ZM34.1195 24.052L34.1135 25H28.8155V16.402H34.1135V17.35H29.9795V20.206H33.3275V21.118H29.9795V24.052H34.1195Z" fill="#1B264B"/>
</svg>
