<svg width="40" height="40" viewBox="0 0 40 40" fill="none" xmlns="http://www.w3.org/2000/svg">
<rect width="40" height="40" rx="2" fill="#9CA0D7"/>
<path d="M8.81523 20.566C9.15123 20.566 9.44723 20.526 9.70323 20.446C9.96323 20.362 10.1792 20.246 10.3512 20.098C10.5272 19.946 10.6592 19.766 10.7472 19.558C10.8352 19.35 10.8792 19.12 10.8792 18.868C10.8792 18.356 10.7112 17.97 10.3752 17.71C10.0392 17.45 9.53523 17.32 8.86323 17.32H7.59123V20.566H8.81523ZM12.7872 25H11.7552C11.5432 25 11.3872 24.918 11.2872 24.754L9.05523 21.682C8.98723 21.586 8.91323 21.518 8.83323 21.478C8.75723 21.434 8.63723 21.412 8.47323 21.412H7.59123V25H6.43323V16.402H8.86323C9.40723 16.402 9.87723 16.458 10.2732 16.57C10.6692 16.678 10.9952 16.836 11.2512 17.044C11.5112 17.252 11.7032 17.504 11.8272 17.8C11.9512 18.092 12.0132 18.42 12.0132 18.784C12.0132 19.088 11.9652 19.372 11.8692 19.636C11.7732 19.9 11.6332 20.138 11.4492 20.35C11.2692 20.558 11.0472 20.736 10.7832 20.884C10.5232 21.032 10.2272 21.144 9.89523 21.22C10.0432 21.304 10.1712 21.426 10.2792 21.586L12.7872 25ZM21.1286 24.052L21.1226 25H15.8246V16.402H21.1226V17.35H16.9886V20.206H20.3366V21.118H16.9886V24.052H21.1286ZM33.5642 16.402V25H32.5442V18.682C32.5442 18.598 32.5462 18.508 32.5502 18.412C32.5582 18.316 32.5662 18.218 32.5742 18.118L29.6222 23.494C29.5302 23.674 29.3902 23.764 29.2022 23.764H29.0342C28.8462 23.764 28.7062 23.674 28.6142 23.494L25.6022 18.094C25.6262 18.306 25.6382 18.502 25.6382 18.682V25H24.6182V16.402H25.4762C25.5802 16.402 25.6602 16.412 25.7162 16.432C25.7722 16.452 25.8262 16.508 25.8782 16.6L28.8482 21.892C28.8962 21.988 28.9422 22.088 28.9862 22.192C29.0342 22.296 29.0782 22.402 29.1182 22.51C29.1582 22.402 29.2002 22.296 29.2442 22.192C29.2882 22.084 29.3362 21.982 29.3882 21.886L32.3042 16.6C32.3522 16.508 32.4042 16.452 32.4602 16.432C32.5202 16.412 32.6022 16.402 32.7062 16.402H33.5642Z" fill="#1B264B"/>
</svg>
