<svg width="41" height="40" viewBox="0 0 41 40" fill="none" xmlns="http://www.w3.org/2000/svg">
<rect x="0.5" width="40" height="40" rx="2" fill="#E1E3F3"/>
<path d="M15.3167 20.704C15.3167 21.348 15.2147 21.94 15.0107 22.48C14.8067 23.016 14.5187 23.478 14.1467 23.866C13.7747 24.254 13.3267 24.556 12.8027 24.772C12.2827 24.984 11.7067 25.09 11.0747 25.09C10.4427 25.09 9.86668 24.984 9.34668 24.772C8.82668 24.556 8.38068 24.254 8.00868 23.866C7.63668 23.478 7.34868 23.016 7.14468 22.48C6.94068 21.94 6.83868 21.348 6.83868 20.704C6.83868 20.06 6.94068 19.47 7.14468 18.934C7.34868 18.394 7.63668 17.93 8.00868 17.542C8.38068 17.15 8.82668 16.846 9.34668 16.63C9.86668 16.414 10.4427 16.306 11.0747 16.306C11.7067 16.306 12.2827 16.414 12.8027 16.63C13.3267 16.846 13.7747 17.15 14.1467 17.542C14.5187 17.93 14.8067 18.394 15.0107 18.934C15.2147 19.47 15.3167 20.06 15.3167 20.704ZM14.1227 20.704C14.1227 20.176 14.0507 19.702 13.9067 19.282C13.7627 18.862 13.5587 18.508 13.2947 18.22C13.0307 17.928 12.7107 17.704 12.3347 17.548C11.9587 17.392 11.5387 17.314 11.0747 17.314C10.6147 17.314 10.1967 17.392 9.82068 17.548C9.44468 17.704 9.12268 17.928 8.85468 18.22C8.59068 18.508 8.38668 18.862 8.24268 19.282C8.09868 19.702 8.02668 20.176 8.02668 20.704C8.02668 21.232 8.09868 21.706 8.24268 22.126C8.38668 22.542 8.59068 22.896 8.85468 23.188C9.12268 23.476 9.44468 23.698 9.82068 23.854C10.1967 24.006 10.6147 24.082 11.0747 24.082C11.5387 24.082 11.9587 24.006 12.3347 23.854C12.7107 23.698 13.0307 23.476 13.2947 23.188C13.5587 22.896 13.7627 22.542 13.9067 22.126C14.0507 21.706 14.1227 21.232 14.1227 20.704ZM24.886 23.224C24.95 23.224 25.006 23.25 25.054 23.302L25.516 23.8C25.164 24.208 24.736 24.526 24.232 24.754C23.732 24.982 23.126 25.096 22.414 25.096C21.798 25.096 21.238 24.99 20.734 24.778C20.23 24.562 19.8 24.262 19.444 23.878C19.088 23.49 18.812 23.026 18.616 22.486C18.42 21.946 18.322 21.352 18.322 20.704C18.322 20.056 18.424 19.462 18.628 18.922C18.832 18.382 19.118 17.918 19.486 17.53C19.858 17.142 20.302 16.842 20.818 16.63C21.334 16.414 21.904 16.306 22.528 16.306C23.14 16.306 23.68 16.404 24.148 16.6C24.616 16.796 25.028 17.062 25.384 17.398L25 17.932C24.976 17.972 24.944 18.006 24.904 18.034C24.868 18.058 24.818 18.07 24.754 18.07C24.682 18.07 24.594 18.032 24.49 17.956C24.386 17.876 24.25 17.788 24.082 17.692C23.914 17.596 23.704 17.51 23.452 17.434C23.2 17.354 22.89 17.314 22.522 17.314C22.078 17.314 21.672 17.392 21.304 17.548C20.936 17.7 20.618 17.922 20.35 18.214C20.086 18.506 19.88 18.862 19.732 19.282C19.584 19.702 19.51 20.176 19.51 20.704C19.51 21.24 19.586 21.718 19.738 22.138C19.894 22.558 20.104 22.914 20.368 23.206C20.636 23.494 20.95 23.714 21.31 23.866C21.674 24.018 22.066 24.094 22.486 24.094C22.742 24.094 22.972 24.08 23.176 24.052C23.384 24.02 23.574 23.972 23.746 23.908C23.922 23.844 24.084 23.764 24.232 23.668C24.384 23.568 24.534 23.45 24.682 23.314C24.75 23.254 24.818 23.224 24.886 23.224ZM34.5475 17.38H31.7635V25H30.6055V17.38H27.8155V16.402H34.5475V17.38Z" fill="#1B264B"/>
</svg>
