<svg width="40" height="40" viewBox="0 0 40 40" fill="none" xmlns="http://www.w3.org/2000/svg">
<rect width="40" height="40" rx="2" fill="#9CA0D7"/>
<path d="M14.2622 23.224C14.3262 23.224 14.3822 23.25 14.4302 23.302L14.8922 23.8C14.5402 24.208 14.1122 24.526 13.6082 24.754C13.1082 24.982 12.5022 25.096 11.7902 25.096C11.1742 25.096 10.6142 24.99 10.1102 24.778C9.6062 24.562 9.1762 24.262 8.8202 23.878C8.4642 23.49 8.1882 23.026 7.9922 22.486C7.7962 21.946 7.6982 21.352 7.6982 20.704C7.6982 20.056 7.8002 19.462 8.0042 18.922C8.2082 18.382 8.4942 17.918 8.8622 17.53C9.2342 17.142 9.6782 16.842 10.1942 16.63C10.7102 16.414 11.2802 16.306 11.9042 16.306C12.5162 16.306 13.0562 16.404 13.5242 16.6C13.9922 16.796 14.4042 17.062 14.7602 17.398L14.3762 17.932C14.3522 17.972 14.3202 18.006 14.2802 18.034C14.2442 18.058 14.1942 18.07 14.1302 18.07C14.0582 18.07 13.9702 18.032 13.8662 17.956C13.7622 17.876 13.6262 17.788 13.4582 17.692C13.2902 17.596 13.0802 17.51 12.8282 17.434C12.5762 17.354 12.2662 17.314 11.8982 17.314C11.4542 17.314 11.0482 17.392 10.6802 17.548C10.3122 17.7 9.9942 17.922 9.7262 18.214C9.4622 18.506 9.2562 18.862 9.1082 19.282C8.9602 19.702 8.8862 20.176 8.8862 20.704C8.8862 21.24 8.9622 21.718 9.1142 22.138C9.2702 22.558 9.4802 22.914 9.7442 23.206C10.0122 23.494 10.3262 23.714 10.6862 23.866C11.0502 24.018 11.4422 24.094 11.8622 24.094C12.1182 24.094 12.3482 24.08 12.5522 24.052C12.7602 24.02 12.9502 23.972 13.1222 23.908C13.2982 23.844 13.4602 23.764 13.6082 23.668C13.7602 23.568 13.9102 23.45 14.0582 23.314C14.1262 23.254 14.1942 23.224 14.2622 23.224ZM19.2737 17.35V20.356H22.8077V21.304H19.2737V25H18.1097V16.402H23.4077V17.35H19.2737ZM29.3008 20.86C29.6328 20.86 29.9248 20.816 30.1768 20.728C30.4328 20.64 30.6468 20.518 30.8188 20.362C30.9948 20.202 31.1268 20.012 31.2148 19.792C31.3028 19.572 31.3468 19.33 31.3468 19.066C31.3468 18.518 31.1768 18.09 30.8368 17.782C30.5008 17.474 29.9888 17.32 29.3008 17.32H27.9208V20.86H29.3008ZM29.3008 16.402C29.8448 16.402 30.3168 16.466 30.7168 16.594C31.1208 16.718 31.4548 16.896 31.7188 17.128C31.9828 17.36 32.1788 17.64 32.3068 17.968C32.4388 18.296 32.5048 18.662 32.5048 19.066C32.5048 19.466 32.4348 19.832 32.2948 20.164C32.1548 20.496 31.9488 20.782 31.6768 21.022C31.4088 21.262 31.0748 21.45 30.6748 21.586C30.2788 21.718 29.8208 21.784 29.3008 21.784H27.9208V25H26.7628V16.402H29.3008Z" fill="#0E1326"/>
</svg>
