<svg width="40" height="40" viewBox="0 0 40 40" fill="none" xmlns="http://www.w3.org/2000/svg">
<rect width="40" height="40" rx="2" fill="#1B264B"/>
<path d="M10.6031 25H9.43909V16.402H10.6031V25ZM20.4843 17.38H17.7003V25H16.5423V17.38H13.7523V16.402H20.4843V17.38ZM31.08 20.704C31.08 21.348 30.978 21.934 30.774 22.462C30.57 22.99 30.282 23.442 29.91 23.818C29.538 24.194 29.09 24.486 28.566 24.694C28.046 24.898 27.47 25 26.838 25H23.628V16.402H26.838C27.47 16.402 28.046 16.506 28.566 16.714C29.09 16.918 29.538 17.21 29.91 17.59C30.282 17.966 30.57 18.418 30.774 18.946C30.978 19.474 31.08 20.06 31.08 20.704ZM29.886 20.704C29.886 20.176 29.814 19.704 29.67 19.288C29.526 18.872 29.322 18.52 29.058 18.232C28.794 17.944 28.474 17.724 28.098 17.572C27.722 17.42 27.302 17.344 26.838 17.344H24.792V24.058H26.838C27.302 24.058 27.722 23.982 28.098 23.83C28.474 23.678 28.794 23.46 29.058 23.176C29.322 22.888 29.526 22.536 29.67 22.12C29.814 21.704 29.886 21.232 29.886 20.704Z" fill="white"/>
</svg>
