<svg width="40" height="40" viewBox="0 0 40 40" fill="none" xmlns="http://www.w3.org/2000/svg">
<rect width="40" height="40" rx="2" fill="#9CA0D7"/>
<path d="M15.7777 16.402V25H14.7577V18.682C14.7577 18.598 14.7597 18.508 14.7637 18.412C14.7717 18.316 14.7797 18.218 14.7877 18.118L11.8357 23.494C11.7437 23.674 11.6037 23.764 11.4157 23.764H11.2477C11.0597 23.764 10.9197 23.674 10.8277 23.494L7.81567 18.094C7.83967 18.306 7.85167 18.502 7.85167 18.682V25H6.83167V16.402H7.68967C7.79367 16.402 7.87367 16.412 7.92967 16.432C7.98567 16.452 8.03967 16.508 8.09167 16.6L11.0617 21.892C11.1097 21.988 11.1557 22.088 11.1997 22.192C11.2477 22.296 11.2917 22.402 11.3317 22.51C11.3717 22.402 11.4137 22.296 11.4577 22.192C11.5017 22.084 11.5497 21.982 11.6017 21.886L14.5177 16.6C14.5657 16.508 14.6177 16.452 14.6737 16.432C14.7337 16.412 14.8157 16.402 14.9197 16.402H15.7777ZM23.0721 21.574V25H21.9081V21.574L18.7581 16.402H19.7781C19.8821 16.402 19.9641 16.428 20.0241 16.48C20.0841 16.528 20.1361 16.592 20.1801 16.672L22.1481 20.014C22.2201 20.154 22.2861 20.286 22.3461 20.41C22.4061 20.53 22.4581 20.652 22.5021 20.776C22.5461 20.652 22.5961 20.53 22.6521 20.41C22.7081 20.286 22.7701 20.154 22.8381 20.014L24.8001 16.672C24.8361 16.604 24.8861 16.542 24.9501 16.486C25.0141 16.43 25.0961 16.402 25.1961 16.402H26.2221L23.0721 21.574ZM34.0783 24.022V25H29.2003V16.402H30.3583V24.022H34.0783Z" fill="#0E1326"/>
</svg>
