<svg width="40" height="40" viewBox="0 0 40 40" fill="none" xmlns="http://www.w3.org/2000/svg">
<rect width="40" height="40" rx="2" fill="#1B264B"/>
<path d="M11.1622 24.076C11.4942 24.076 11.7802 24.038 12.0202 23.962C12.2602 23.886 12.4562 23.78 12.6082 23.644C12.7642 23.504 12.8782 23.34 12.9502 23.152C13.0222 22.96 13.0582 22.75 13.0582 22.522C13.0582 22.078 12.9002 21.728 12.5842 21.472C12.2682 21.212 11.7942 21.082 11.1622 21.082H9.30217V24.076H11.1622ZM9.30217 17.32V20.254H10.8382C11.1662 20.254 11.4502 20.218 11.6902 20.146C11.9342 20.074 12.1342 19.974 12.2902 19.846C12.4502 19.718 12.5682 19.564 12.6442 19.384C12.7202 19.2 12.7582 19 12.7582 18.784C12.7582 18.276 12.6062 17.906 12.3022 17.674C11.9982 17.438 11.5262 17.32 10.8862 17.32H9.30217ZM10.8862 16.402C11.4142 16.402 11.8682 16.454 12.2482 16.558C12.6322 16.662 12.9462 16.81 13.1902 17.002C13.4382 17.194 13.6202 17.43 13.7362 17.71C13.8522 17.986 13.9102 18.298 13.9102 18.646C13.9102 18.858 13.8762 19.062 13.8082 19.258C13.7442 19.45 13.6462 19.63 13.5142 19.798C13.3822 19.966 13.2142 20.118 13.0102 20.254C12.8102 20.386 12.5742 20.494 12.3022 20.578C12.9342 20.698 13.4082 20.924 13.7242 21.256C14.0442 21.584 14.2042 22.016 14.2042 22.552C14.2042 22.916 14.1362 23.248 14.0002 23.548C13.8682 23.848 13.6722 24.106 13.4122 24.322C13.1562 24.538 12.8402 24.706 12.4642 24.826C12.0882 24.942 11.6602 25 11.1802 25H8.14417V16.402H10.8862ZM20.7166 21.574V25H19.5526V21.574L16.4026 16.402H17.4226C17.5266 16.402 17.6086 16.428 17.6686 16.48C17.7286 16.528 17.7806 16.592 17.8246 16.672L19.7926 20.014C19.8646 20.154 19.9306 20.286 19.9906 20.41C20.0506 20.53 20.1026 20.652 20.1466 20.776C20.1906 20.652 20.2406 20.53 20.2966 20.41C20.3526 20.286 20.4146 20.154 20.4826 20.014L22.4446 16.672C22.4806 16.604 22.5306 16.542 22.5946 16.486C22.6586 16.43 22.7406 16.402 22.8406 16.402H23.8666L20.7166 21.574ZM29.3828 20.86C29.7148 20.86 30.0068 20.816 30.2588 20.728C30.5148 20.64 30.7288 20.518 30.9008 20.362C31.0768 20.202 31.2088 20.012 31.2968 19.792C31.3848 19.572 31.4288 19.33 31.4288 19.066C31.4288 18.518 31.2588 18.09 30.9188 17.782C30.5828 17.474 30.0708 17.32 29.3828 17.32H28.0028V20.86H29.3828ZM29.3828 16.402C29.9268 16.402 30.3988 16.466 30.7988 16.594C31.2028 16.718 31.5368 16.896 31.8008 17.128C32.0648 17.36 32.2608 17.64 32.3888 17.968C32.5208 18.296 32.5868 18.662 32.5868 19.066C32.5868 19.466 32.5168 19.832 32.3768 20.164C32.2368 20.496 32.0308 20.782 31.7588 21.022C31.4908 21.262 31.1568 21.45 30.7568 21.586C30.3608 21.718 29.9028 21.784 29.3828 21.784H28.0028V25H26.8448V16.402H29.3828Z" fill="#E1E3F3"/>
</svg>
