<svg width="40" height="40" viewBox="0 0 40 40" fill="none" xmlns="http://www.w3.org/2000/svg">
<rect width="40" height="40" rx="2" fill="#1B264B"/>
<path d="M7.18707 17.35V20.356H10.7211V21.304H7.18707V25H6.02307V16.402H11.3211V17.35H7.18707ZM25.8181 16.402L23.1361 25H22.0921L19.9141 18.442C19.8941 18.378 19.8741 18.31 19.8541 18.238C19.8381 18.166 19.8201 18.09 19.8001 18.01C19.7801 18.09 19.7601 18.166 19.7401 18.238C19.7201 18.31 19.7001 18.378 19.6801 18.442L17.4901 25H16.4461L13.7641 16.402H14.7301C14.8341 16.402 14.9201 16.428 14.9881 16.48C15.0601 16.532 15.1061 16.598 15.1261 16.678L16.9021 22.654C16.9301 22.762 16.9561 22.878 16.9801 23.002C17.0081 23.126 17.0341 23.258 17.0581 23.398C17.0861 23.258 17.1141 23.126 17.1421 23.002C17.1741 22.874 17.2081 22.758 17.2441 22.654L19.2661 16.678C19.2901 16.61 19.3361 16.548 19.4041 16.492C19.4761 16.432 19.5621 16.402 19.6621 16.402H19.9981C20.1021 16.402 20.1861 16.428 20.2501 16.48C20.3141 16.532 20.3621 16.598 20.3941 16.678L22.4101 22.654C22.4461 22.758 22.4781 22.87 22.5061 22.99C22.5381 23.11 22.5681 23.236 22.5961 23.368C22.6161 23.236 22.6381 23.11 22.6621 22.99C22.6861 22.87 22.7121 22.758 22.7401 22.654L24.5221 16.678C24.5421 16.606 24.5861 16.542 24.6541 16.486C24.7261 16.43 24.8121 16.402 24.9121 16.402H25.8181ZM31.5039 20.86C31.8359 20.86 32.1279 20.816 32.3799 20.728C32.6359 20.64 32.8499 20.518 33.0219 20.362C33.1979 20.202 33.3299 20.012 33.4179 19.792C33.5059 19.572 33.5499 19.33 33.5499 19.066C33.5499 18.518 33.3799 18.09 33.0399 17.782C32.7039 17.474 32.1919 17.32 31.5039 17.32H30.1239V20.86H31.5039ZM31.5039 16.402C32.0479 16.402 32.5199 16.466 32.9199 16.594C33.3239 16.718 33.6579 16.896 33.9219 17.128C34.1859 17.36 34.3819 17.64 34.5099 17.968C34.6419 18.296 34.7079 18.662 34.7079 19.066C34.7079 19.466 34.6379 19.832 34.4979 20.164C34.3579 20.496 34.1519 20.782 33.8799 21.022C33.6119 21.262 33.2779 21.45 32.8779 21.586C32.4819 21.718 32.0239 21.784 31.5039 21.784H30.1239V25H28.9659V16.402H31.5039Z" fill="white"/>
</svg>
