<svg width="40" height="40" viewBox="0 0 40 40" fill="none" xmlns="http://www.w3.org/2000/svg">
<rect width="40" height="40" rx="2" fill="#646A8B"/>
<path d="M10.316 17.35V20.356H13.85V21.304H10.316V25H9.15198V16.402H14.45V17.35H10.316ZM22.683 24.022V25H17.805V16.402H18.963V24.022H22.683ZM28.375 20.86C28.707 20.86 28.999 20.816 29.251 20.728C29.507 20.64 29.721 20.518 29.893 20.362C30.069 20.202 30.201 20.012 30.289 19.792C30.377 19.572 30.421 19.33 30.421 19.066C30.421 18.518 30.251 18.09 29.911 17.782C29.575 17.474 29.063 17.32 28.375 17.32H26.995V20.86H28.375ZM28.375 16.402C28.919 16.402 29.391 16.466 29.791 16.594C30.195 16.718 30.529 16.896 30.793 17.128C31.057 17.36 31.253 17.64 31.381 17.968C31.513 18.296 31.579 18.662 31.579 19.066C31.579 19.466 31.509 19.832 31.369 20.164C31.229 20.496 31.023 20.782 30.751 21.022C30.483 21.262 30.149 21.45 29.749 21.586C29.353 21.718 28.895 21.784 28.375 21.784H26.995V25H25.837V16.402H28.375Z" fill="white"/>
</svg>
