<svg width="40" height="40" viewBox="0 0 40 40" fill="none" xmlns="http://www.w3.org/2000/svg">
<rect width="40" height="40" rx="2" fill="#1B264B"/>
<path d="M7.02887 17.35V20.356H10.5629V21.304H7.02887V25H5.86487V16.402H11.1629V17.35H7.02887ZM25.6599 16.402L22.9779 25H21.9339L19.7559 18.442C19.7359 18.378 19.7159 18.31 19.6959 18.238C19.6799 18.166 19.6619 18.09 19.6419 18.01C19.6219 18.09 19.6019 18.166 19.5819 18.238C19.5619 18.31 19.5419 18.378 19.5219 18.442L17.3319 25H16.2879L13.6059 16.402H14.5719C14.6759 16.402 14.7619 16.428 14.8299 16.48C14.9019 16.532 14.9479 16.598 14.9679 16.678L16.7439 22.654C16.7719 22.762 16.7979 22.878 16.8219 23.002C16.8499 23.126 16.8759 23.258 16.8999 23.398C16.9279 23.258 16.9559 23.126 16.9839 23.002C17.0159 22.874 17.0499 22.758 17.0859 22.654L19.1079 16.678C19.1319 16.61 19.1779 16.548 19.2459 16.492C19.3179 16.432 19.4039 16.402 19.5039 16.402H19.8399C19.9439 16.402 20.0279 16.428 20.0919 16.48C20.1559 16.532 20.2039 16.598 20.2359 16.678L22.2519 22.654C22.2879 22.758 22.3199 22.87 22.3479 22.99C22.3799 23.11 22.4099 23.236 22.4379 23.368C22.4579 23.236 22.4799 23.11 22.5039 22.99C22.5279 22.87 22.5539 22.758 22.5819 22.654L24.3639 16.678C24.3839 16.606 24.4279 16.542 24.4959 16.486C24.5679 16.43 24.6539 16.402 24.7539 16.402H25.6599ZM31.1897 20.566C31.5257 20.566 31.8217 20.526 32.0777 20.446C32.3377 20.362 32.5537 20.246 32.7257 20.098C32.9017 19.946 33.0337 19.766 33.1217 19.558C33.2097 19.35 33.2537 19.12 33.2537 18.868C33.2537 18.356 33.0857 17.97 32.7497 17.71C32.4137 17.45 31.9097 17.32 31.2377 17.32H29.9657V20.566H31.1897ZM35.1617 25H34.1297C33.9177 25 33.7617 24.918 33.6617 24.754L31.4297 21.682C31.3617 21.586 31.2877 21.518 31.2077 21.478C31.1317 21.434 31.0117 21.412 30.8477 21.412H29.9657V25H28.8077V16.402H31.2377C31.7817 16.402 32.2517 16.458 32.6477 16.57C33.0437 16.678 33.3697 16.836 33.6257 17.044C33.8857 17.252 34.0777 17.504 34.2017 17.8C34.3257 18.092 34.3877 18.42 34.3877 18.784C34.3877 19.088 34.3397 19.372 34.2437 19.636C34.1477 19.9 34.0077 20.138 33.8237 20.35C33.6437 20.558 33.4217 20.736 33.1577 20.884C32.8977 21.032 32.6017 21.144 32.2697 21.22C32.4177 21.304 32.5457 21.426 32.6537 21.586L35.1617 25Z" fill="white"/>
</svg>
