<svg width="40" height="40" viewBox="0 0 40 40" fill="none" xmlns="http://www.w3.org/2000/svg">
<rect width="40" height="40" rx="2" fill="#646A8B"/>
<path d="M14.3373 16.402L10.8333 25H9.78929L6.28529 16.402H7.21529C7.31929 16.402 7.40329 16.428 7.46729 16.48C7.53129 16.532 7.57929 16.598 7.61129 16.678L10.0353 22.744C10.0873 22.88 10.1373 23.028 10.1853 23.188C10.2373 23.348 10.2833 23.516 10.3233 23.692C10.3633 23.516 10.4053 23.348 10.4493 23.188C10.4933 23.028 10.5413 22.88 10.5933 22.744L13.0113 16.678C13.0353 16.61 13.0813 16.548 13.1493 16.492C13.2213 16.432 13.3073 16.402 13.4073 16.402H14.3373ZM19.7183 20.566C20.0543 20.566 20.3503 20.526 20.6063 20.446C20.8663 20.362 21.0823 20.246 21.2543 20.098C21.4303 19.946 21.5623 19.766 21.6503 19.558C21.7383 19.35 21.7823 19.12 21.7823 18.868C21.7823 18.356 21.6143 17.97 21.2783 17.71C20.9423 17.45 20.4383 17.32 19.7663 17.32H18.4943V20.566H19.7183ZM23.6903 25H22.6583C22.4463 25 22.2903 24.918 22.1903 24.754L19.9583 21.682C19.8903 21.586 19.8163 21.518 19.7363 21.478C19.6603 21.434 19.5403 21.412 19.3763 21.412H18.4943V25H17.3363V16.402H19.7663C20.3103 16.402 20.7803 16.458 21.1763 16.57C21.5723 16.678 21.8983 16.836 22.1543 17.044C22.4143 17.252 22.6063 17.504 22.7303 17.8C22.8543 18.092 22.9163 18.42 22.9163 18.784C22.9163 19.088 22.8683 19.372 22.7723 19.636C22.6763 19.9 22.5363 20.138 22.3523 20.35C22.1723 20.558 21.9503 20.736 21.6863 20.884C21.4263 21.032 21.1303 21.144 20.7983 21.22C20.9463 21.304 21.0743 21.426 21.1823 21.586L23.6903 25ZM31.2936 21.808L29.9436 18.31C29.9036 18.206 29.8616 18.086 29.8176 17.95C29.7736 17.81 29.7316 17.662 29.6916 17.506C29.6076 17.83 29.5216 18.1 29.4336 18.316L28.0836 21.808H31.2936ZM33.7176 25H32.8176C32.7136 25 32.6296 24.974 32.5656 24.922C32.5016 24.87 32.4536 24.804 32.4216 24.724L31.6176 22.648H27.7596L26.9556 24.724C26.9316 24.796 26.8856 24.86 26.8176 24.916C26.7496 24.972 26.6656 25 26.5656 25H25.6656L29.1036 16.402H30.2796L33.7176 25Z" fill="white"/>
</svg>
