<svg width="40" height="40" viewBox="0 0 40 40" fill="none" xmlns="http://www.w3.org/2000/svg">
<rect width="40" height="40" rx="2" fill="#9CA0D7"/>
<path d="M12.6333 23.224C12.6973 23.224 12.7533 23.25 12.8013 23.302L13.2633 23.8C12.9113 24.208 12.4833 24.526 11.9793 24.754C11.4793 24.982 10.8733 25.096 10.1613 25.096C9.54529 25.096 8.98529 24.99 8.48129 24.778C7.97729 24.562 7.54729 24.262 7.19129 23.878C6.83529 23.49 6.55929 23.026 6.36329 22.486C6.16729 21.946 6.06929 21.352 6.06929 20.704C6.06929 20.056 6.17129 19.462 6.37529 18.922C6.57929 18.382 6.86529 17.918 7.23329 17.53C7.60529 17.142 8.04929 16.842 8.56529 16.63C9.08129 16.414 9.65129 16.306 10.2753 16.306C10.8873 16.306 11.4273 16.404 11.8953 16.6C12.3633 16.796 12.7753 17.062 13.1313 17.398L12.7473 17.932C12.7233 17.972 12.6913 18.006 12.6513 18.034C12.6153 18.058 12.5653 18.07 12.5013 18.07C12.4293 18.07 12.3413 18.032 12.2373 17.956C12.1333 17.876 11.9973 17.788 11.8293 17.692C11.6613 17.596 11.4513 17.51 11.1993 17.434C10.9473 17.354 10.6373 17.314 10.2693 17.314C9.82529 17.314 9.41929 17.392 9.05129 17.548C8.68329 17.7 8.36529 17.922 8.09729 18.214C7.83329 18.506 7.62729 18.862 7.47929 19.282C7.33129 19.702 7.25729 20.176 7.25729 20.704C7.25729 21.24 7.33329 21.718 7.48529 22.138C7.64129 22.558 7.85129 22.914 8.11529 23.206C8.38329 23.494 8.69729 23.714 9.05729 23.866C9.42129 24.018 9.81329 24.094 10.2333 24.094C10.4893 24.094 10.7193 24.08 10.9233 24.052C11.1313 24.02 11.3213 23.972 11.4933 23.908C11.6693 23.844 11.8313 23.764 11.9793 23.668C12.1313 23.568 12.2813 23.45 12.4293 23.314C12.4973 23.254 12.5653 23.224 12.6333 23.224ZM21.0468 21.808L19.6968 18.31C19.6568 18.206 19.6148 18.086 19.5708 17.95C19.5268 17.81 19.4848 17.662 19.4448 17.506C19.3608 17.83 19.2748 18.1 19.1868 18.316L17.8368 21.808H21.0468ZM23.4708 25H22.5708C22.4668 25 22.3828 24.974 22.3188 24.922C22.2548 24.87 22.2068 24.804 22.1748 24.724L21.3708 22.648H17.5128L16.7088 24.724C16.6848 24.796 16.6388 24.86 16.5708 24.916C16.5028 24.972 16.4188 25 16.3188 25H15.4188L18.8568 16.402H20.0328L23.4708 25ZM33.9218 20.704C33.9218 21.348 33.8198 21.934 33.6158 22.462C33.4118 22.99 33.1238 23.442 32.7518 23.818C32.3798 24.194 31.9318 24.486 31.4078 24.694C30.8878 24.898 30.3118 25 29.6798 25H26.4698V16.402H29.6798C30.3118 16.402 30.8878 16.506 31.4078 16.714C31.9318 16.918 32.3798 17.21 32.7518 17.59C33.1238 17.966 33.4118 18.418 33.6158 18.946C33.8198 19.474 33.9218 20.06 33.9218 20.704ZM32.7278 20.704C32.7278 20.176 32.6558 19.704 32.5118 19.288C32.3678 18.872 32.1638 18.52 31.8998 18.232C31.6358 17.944 31.3158 17.724 30.9398 17.572C30.5638 17.42 30.1438 17.344 29.6798 17.344H27.6338V24.058H29.6798C30.1438 24.058 30.5638 23.982 30.9398 23.83C31.3158 23.678 31.6358 23.46 31.8998 23.176C32.1638 22.888 32.3678 22.536 32.5118 22.12C32.6558 21.704 32.7278 21.232 32.7278 20.704Z" fill="#0E1326"/>
</svg>
