<svg width="41" height="40" viewBox="0 0 41 40" fill="none" xmlns="http://www.w3.org/2000/svg">
<rect x="0.5" width="40" height="40" rx="2" fill="#1B264B"/>
<path d="M13.9817 16.834C13.9817 16.966 13.9417 17.094 13.8617 17.218L8.99573 24.052H13.9097V25H7.46573V24.544C7.46573 24.48 7.47573 24.42 7.49573 24.364C7.51973 24.308 7.54773 24.254 7.57973 24.202L12.4577 17.35H7.69373V16.402H13.9817V16.834ZM22.6364 24.052L22.6304 25H17.3324V16.402H22.6304V17.35H18.4964V20.206H21.8444V21.118H18.4964V24.052H22.6364ZM29.444 24.076C29.8 24.076 30.118 24.016 30.398 23.896C30.678 23.776 30.914 23.608 31.106 23.392C31.302 23.176 31.45 22.918 31.55 22.618C31.654 22.318 31.706 21.988 31.706 21.628V16.402H32.8641V21.628C32.8641 22.124 32.784 22.584 32.624 23.008C32.4681 23.432 32.242 23.8 31.946 24.112C31.654 24.42 31.296 24.662 30.872 24.838C30.448 25.014 29.972 25.102 29.444 25.102C28.916 25.102 28.44 25.014 28.016 24.838C27.592 24.662 27.232 24.42 26.936 24.112C26.64 23.8 26.412 23.432 26.252 23.008C26.096 22.584 26.018 22.124 26.018 21.628V16.402H27.176V21.622C27.176 21.982 27.226 22.312 27.326 22.612C27.43 22.912 27.578 23.17 27.77 23.386C27.966 23.602 28.204 23.772 28.484 23.896C28.768 24.016 29.088 24.076 29.444 24.076Z" fill="#E1E3F3"/>
</svg>
