<svg width="40" height="40" viewBox="0 0 40 40" fill="none" xmlns="http://www.w3.org/2000/svg">
<rect width="40" height="40" rx="2" fill="#646A8B"/>
<path d="M12.8449 17.38H10.0609V25H8.90289V17.38H6.11289V16.402H12.8449V17.38ZM20.8666 24.022V25H15.9886V16.402H17.1466V24.022H20.8666ZM32.9666 16.402V25H31.9466V18.682C31.9466 18.598 31.9486 18.508 31.9526 18.412C31.9606 18.316 31.9686 18.218 31.9766 18.118L29.0246 23.494C28.9326 23.674 28.7926 23.764 28.6046 23.764H28.4366C28.2486 23.764 28.1086 23.674 28.0166 23.494L25.0046 18.094C25.0286 18.306 25.0406 18.502 25.0406 18.682V25H24.0206V16.402H24.8786C24.9826 16.402 25.0626 16.412 25.1186 16.432C25.1746 16.452 25.2286 16.508 25.2806 16.6L28.2506 21.892C28.2986 21.988 28.3446 22.088 28.3886 22.192C28.4366 22.296 28.4806 22.402 28.5206 22.51C28.5606 22.402 28.6026 22.296 28.6466 22.192C28.6906 22.084 28.7386 21.982 28.7906 21.886L31.7066 16.6C31.7546 16.508 31.8066 16.452 31.8626 16.432C31.9226 16.412 32.0046 16.402 32.1086 16.402H32.9666Z" fill="white"/>
</svg>
