<svg width="24" height="24" viewBox="0 0 24 24" fill="none" xmlns="http://www.w3.org/2000/svg">
<path fill-rule="evenodd" clip-rule="evenodd" d="M14.6648 3.32918C14.8759 3.2236 15.1245 3.22361 15.3356 3.3292L20.7824 6.0531C20.7824 6.05306 20.7825 6.05313 20.7824 6.0531C21.073 6.19834 21.3176 6.42168 21.4885 6.69793C21.6594 6.97425 21.75 7.29269 21.7502 7.6176V18.382C21.75 18.6802 21.6737 18.9738 21.5284 19.2342C21.3831 19.4946 21.1737 19.7135 20.92 19.8702C20.6663 20.027 20.3768 20.1163 20.0789 20.1297C19.781 20.1431 19.4847 20.0802 19.2179 19.9469L15.0002 17.8385L9.33559 20.6708C9.12443 20.7764 8.87588 20.7764 8.66472 20.6708L3.21793 17.9469C3.21786 17.9469 3.218 17.9469 3.21793 17.9469C2.92739 17.8017 2.68278 17.5783 2.5119 17.3021C2.34098 17.0258 2.25036 16.7073 2.25018 16.3824L2.25018 5.618C2.25034 5.31982 2.32669 5.02622 2.47199 4.76583C2.61728 4.50543 2.8267 4.28649 3.08037 4.12976C3.33405 3.97303 3.62356 3.88372 3.92144 3.87031C4.21933 3.85689 4.5157 3.91981 4.78243 4.0531L9.00015 6.16149L14.6648 3.32918ZM8.25018 7.46357L4.11193 5.3949C4.1119 5.39488 4.11197 5.39492 4.11193 5.3949C4.07385 5.37589 4.03145 5.36687 3.98893 5.36879C3.94638 5.3707 3.90502 5.38346 3.86878 5.40585C3.83254 5.42824 3.80263 5.45952 3.78187 5.49672C3.76114 5.53387 3.75023 5.57571 3.75018 5.61826V16.3817C3.75023 16.4281 3.76318 16.4735 3.78757 16.513C3.81199 16.5525 3.84691 16.5843 3.88843 16.6051L8.25018 18.7864V7.46357ZM9.75018 18.7865L14.2502 16.5365V5.21353L9.75018 7.46353V18.7865ZM15.7502 5.21362V16.5364L19.8884 18.6051C19.8884 18.6051 19.8885 18.6051 19.8884 18.6051C19.9265 18.6241 19.9689 18.6331 20.0114 18.6312C20.054 18.6293 20.0953 18.6165 20.1316 18.5941C20.1678 18.5718 20.1977 18.5405 20.2185 18.5033C20.2393 18.4661 20.2502 18.4242 20.2502 18.3816V7.6184C20.2502 7.57198 20.2372 7.52649 20.2128 7.48702C20.1884 7.44755 20.1535 7.41565 20.1119 7.3949L15.7502 5.21362Z" fill="#3B3B3B"/>
</svg>
