<svg width="25" height="25" viewBox="0 0 25 25" fill="none" xmlns="http://www.w3.org/2000/svg">
<path fill-rule="evenodd" clip-rule="evenodd" d="M3.35901 6.10812C3.35901 5.69391 3.6948 5.35812 4.10901 5.35812H20.109C20.5232 5.35812 20.859 5.69391 20.859 6.10812C20.859 6.52234 20.5232 6.85812 20.109 6.85812H4.10901C3.6948 6.85812 3.35901 6.52234 3.35901 6.10812ZM3.35901 12.1081C3.35901 11.6939 3.6948 11.3581 4.10901 11.3581H20.109C20.5232 11.3581 20.859 11.6939 20.859 12.1081C20.859 12.5223 20.5232 12.8581 20.109 12.8581H4.10901C3.6948 12.8581 3.35901 12.5223 3.35901 12.1081ZM3.35901 18.1081C3.35901 17.6939 3.6948 17.3581 4.10901 17.3581H11.109C11.5232 17.3581 11.859 17.6939 11.859 18.1081C11.859 18.5223 11.5232 18.8581 11.109 18.8581H4.10901C3.6948 18.8581 3.35901 18.5223 3.35901 18.1081Z" fill="#3B3B3B"/>
</svg>
