<svg width="25" height="25" viewBox="0 0 25 25" fill="none" xmlns="http://www.w3.org/2000/svg">
<path fill-rule="evenodd" clip-rule="evenodd" d="M3.68579 6.10812C3.68579 5.69391 4.02158 5.35812 4.43579 5.35812H20.4358C20.85 5.35812 21.1858 5.69391 21.1858 6.10812C21.1858 6.52234 20.85 6.85812 20.4358 6.85812H4.43579C4.02158 6.85812 3.68579 6.52234 3.68579 6.10812ZM3.68579 12.1081C3.68579 11.6939 4.02158 11.3581 4.43579 11.3581H20.4358C20.85 11.3581 21.1858 11.6939 21.1858 12.1081C21.1858 12.5223 20.85 12.8581 20.4358 12.8581H4.43579C4.02158 12.8581 3.68579 12.5223 3.68579 12.1081ZM3.68579 18.1081C3.68579 17.6939 4.02158 17.3581 4.43579 17.3581H20.4358C20.85 17.3581 21.1858 17.6939 21.1858 18.1081C21.1858 18.5223 20.85 18.8581 20.4358 18.8581H4.43579C4.02158 18.8581 3.68579 18.5223 3.68579 18.1081Z" fill="#3B3B3B"/>
</svg>
