<svg width="25" height="25" viewBox="0 0 25 25" fill="none" xmlns="http://www.w3.org/2000/svg">
<path fill-rule="evenodd" clip-rule="evenodd" d="M3.46771 6.10812C3.46771 5.69391 3.8035 5.35812 4.21771 5.35812H20.2177C20.6319 5.35812 20.9677 5.69391 20.9677 6.10812C20.9677 6.52234 20.6319 6.85812 20.2177 6.85812H4.21771C3.8035 6.85812 3.46771 6.52234 3.46771 6.10812ZM3.46771 12.1081C3.46771 11.6939 3.8035 11.3581 4.21771 11.3581H20.2177C20.6319 11.3581 20.9677 11.6939 20.9677 12.1081C20.9677 12.5223 20.6319 12.8581 20.2177 12.8581H4.21771C3.8035 12.8581 3.46771 12.5223 3.46771 12.1081ZM12.4677 18.1081C12.4677 17.6939 12.8035 17.3581 13.2177 17.3581H20.2177C20.6319 17.3581 20.9677 17.6939 20.9677 18.1081C20.9677 18.5223 20.6319 18.8581 20.2177 18.8581H13.2177C12.8035 18.8581 12.4677 18.5223 12.4677 18.1081Z" fill="#3B3B3B"/>
</svg>
