<svg width="24" height="25" viewBox="0 0 24 25" fill="none" xmlns="http://www.w3.org/2000/svg">
<path fill-rule="evenodd" clip-rule="evenodd" d="M3.25 6.10812C3.25 5.69391 3.58579 5.35812 4 5.35812H20C20.4142 5.35812 20.75 5.69391 20.75 6.10812C20.75 6.52234 20.4142 6.85812 20 6.85812H4C3.58579 6.85812 3.25 6.52234 3.25 6.10812ZM3.25 12.1081C3.25 11.6939 3.58579 11.3581 4 11.3581H12C12.4142 11.3581 12.75 11.6939 12.75 12.1081C12.75 12.5223 12.4142 12.8581 12 12.8581H4C3.58579 12.8581 3.25 12.5223 3.25 12.1081ZM3.25 18.1081C3.25 17.6939 3.58579 17.3581 4 17.3581H20C20.4142 17.3581 20.75 17.6939 20.75 18.1081C20.75 18.5223 20.4142 18.8581 20 18.8581H4C3.58579 18.8581 3.25 18.5223 3.25 18.1081Z" fill="#3B3B3B"/>
</svg>
