<svg width="25" height="25" viewBox="0 0 25 25" fill="none" xmlns="http://www.w3.org/2000/svg">
<path fill-rule="evenodd" clip-rule="evenodd" d="M12.5449 2.85803C11.9481 2.85803 11.3758 3.09509 10.9539 3.51704C10.5319 3.939 10.2949 4.51129 10.2949 5.10803V11.108C10.2949 11.7048 10.5319 12.2771 10.9539 12.699C11.3758 13.121 11.9481 13.358 12.5449 13.358C13.1416 13.358 13.7139 13.121 14.1359 12.699C14.5578 12.2771 14.7949 11.7048 14.7949 11.108V5.10803C14.7949 4.51129 14.5578 3.939 14.1359 3.51704C13.7139 3.09509 13.1416 2.85803 12.5449 2.85803ZM9.89321 2.45638C10.5965 1.75312 11.5503 1.35803 12.5449 1.35803C13.5394 1.35803 14.4932 1.75312 15.1965 2.45638C15.8998 3.15964 16.2949 4.11347 16.2949 5.10803V11.108C16.2949 12.1026 15.8998 13.0564 15.1965 13.7597C14.4932 14.4629 13.5394 14.858 12.5449 14.858C11.5503 14.858 10.5965 14.4629 9.89321 13.7597C9.18995 13.0564 8.79486 12.1026 8.79486 11.108V5.10803C8.79486 4.11347 9.18995 3.15964 9.89321 2.45638ZM5.54486 10.358C5.95907 10.358 6.29486 10.6938 6.29486 11.108C6.29486 12.7656 6.95334 14.3553 8.12544 15.5274C9.29755 16.6996 10.8873 17.358 12.5449 17.358C14.2025 17.358 15.7922 16.6996 16.9643 15.5274C18.1364 14.3553 18.7949 12.7656 18.7949 11.108C18.7949 10.6938 19.1306 10.358 19.5449 10.358C19.9591 10.358 20.2949 10.6938 20.2949 11.108C20.2949 13.1635 19.4783 15.1347 18.0249 16.5881C16.7494 17.8637 15.075 18.6487 13.2949 18.8217V21.358H16.5449C16.9591 21.358 17.2949 21.6938 17.2949 22.108C17.2949 22.5222 16.9591 22.858 16.5449 22.858H8.54486C8.13065 22.858 7.79486 22.5222 7.79486 22.108C7.79486 21.6938 8.13065 21.358 8.54486 21.358H11.7949V18.8217C10.0147 18.6487 8.34033 17.8637 7.06478 16.5881C5.61138 15.1347 4.79486 13.1635 4.79486 11.108C4.79486 10.6938 5.13065 10.358 5.54486 10.358Z" fill="#3B3B3B"/>
</svg>
