<svg width="16" height="16" viewBox="0 0 16 16" fill="none" xmlns="http://www.w3.org/2000/svg">
<path d="M14.4409 11.9081C14.2278 12.0199 14.008 12.1184 13.7827 12.2031C13.0651 12.4714 12.3051 12.6081 11.5389 12.6068C8.5814 12.6068 6.00448 10.5724 6.00448 7.96175C6.00448 7.22737 6.42949 6.59111 7.03138 6.2561C4.35633 6.36861 3.66882 9.15615 3.66882 10.7893C3.66882 15.4062 7.92514 15.875 8.8414 15.875C9.33579 15.875 10.0814 15.7312 10.5314 15.59L10.6127 15.5625C12.3349 14.9668 13.803 13.8025 14.7752 12.2612C14.9127 12.0424 14.6702 11.7881 14.4409 11.9081Z" fill="#1A1A1A"/>
<path d="M6.60698 15.0881C6.04948 14.7415 5.56655 14.2875 5.18633 13.7524C4.5696 12.8878 4.23874 11.8519 4.24007 10.7899C4.23709 10.0205 4.40967 9.26058 4.74466 8.56796C5.07966 7.87534 5.56824 7.26826 6.17322 6.79293C6.44057 6.58569 6.72806 6.40582 7.03136 6.25605C7.22636 6.16354 7.56012 5.99729 8.00262 6.00354C8.31466 6.00564 8.62197 6.07992 8.90052 6.22055C9.17907 6.36118 9.42131 6.56436 9.60827 6.81418C9.86082 7.15109 10 7.55943 10.0058 7.98045C10.0058 7.96732 11.5346 3.00537 5.00258 3.00537C2.25879 3.00537 0 5.60916 0 7.89295C0 9.34234 0.336255 10.4992 0.757512 11.3955C1.22557 12.3912 1.89347 13.2799 2.71968 14.0065C3.54588 14.733 4.51273 15.2818 5.56009 15.6187C6.34958 15.8716 7.1736 16.0002 8.00262 15.9999C8.88639 15.9999 9.7364 15.8543 10.5308 15.5899C9.87925 15.7942 9.19124 15.8551 8.51395 15.7684C7.83667 15.6818 7.18614 15.4497 6.60698 15.0881Z" fill="#1A1A1A"/>
<path d="M9.51952 9.30365C9.46952 9.36928 9.31327 9.4599 9.31327 9.6574C9.31327 9.81991 9.41952 9.97741 9.60827 10.1093C10.507 10.7362 12.2014 10.6518 12.2058 10.6518C12.872 10.6495 13.5254 10.4684 14.0977 10.1274C14.3534 9.9782 14.5911 9.79993 14.8059 9.59615C15.1809 9.23775 15.4798 8.80749 15.6849 8.33104C15.89 7.85459 15.997 7.3417 15.9996 6.82299C16.0159 5.42171 15.5021 4.49045 15.2915 4.07794C13.9665 1.48978 11.1077 -0.000244141 7.99887 -0.000244141C3.61693 -0.000244141 0.0593759 3.52169 0 7.88738C0.0293755 5.60359 2.29941 3.75919 4.99758 3.75919C5.21633 3.75919 6.46385 3.78044 7.62262 4.38857C8.64388 4.92483 9.17889 5.57234 9.5514 6.21423C9.93765 6.88111 10.0064 7.72363 10.0064 8.05926C10.0064 8.39489 9.83703 8.89239 9.5189 9.30302L9.51952 9.30365Z" fill="#1A1A1A"/>
<path d="M14.4409 11.9081C14.2278 12.0199 14.008 12.1184 13.7827 12.2031C13.0651 12.4714 12.3051 12.6081 11.5389 12.6068C8.5814 12.6068 6.00448 10.5724 6.00448 7.96175C6.00448 7.22737 6.42949 6.59111 7.03138 6.2561C4.35633 6.36861 3.66882 9.15615 3.66882 10.7893C3.66882 15.4062 7.92514 15.875 8.8414 15.875C9.33579 15.875 10.0814 15.7312 10.5314 15.59L10.6127 15.5625C12.3349 14.9668 13.803 13.8025 14.7752 12.2612C14.9127 12.0424 14.6702 11.7881 14.4409 11.9081Z" fill="url(#paint0_linear_4036_5904)"/>
<path d="M14.4409 11.9081C14.2278 12.0199 14.008 12.1184 13.7827 12.2031C13.0651 12.4714 12.3051 12.6081 11.5389 12.6068C8.5814 12.6068 6.00448 10.5724 6.00448 7.96175C6.00448 7.22737 6.42949 6.59111 7.03138 6.2561C4.35633 6.36861 3.66882 9.15615 3.66882 10.7893C3.66882 15.4062 7.92514 15.875 8.8414 15.875C9.33579 15.875 10.0814 15.7312 10.5314 15.59L10.6127 15.5625C12.3349 14.9668 13.803 13.8025 14.7752 12.2612C14.9127 12.0424 14.6702 11.7881 14.4409 11.9081Z" fill="url(#paint1_radial_4036_5904)"/>
<path d="M6.60698 15.0881C6.04948 14.7415 5.56655 14.2875 5.18633 13.7524C4.5696 12.8878 4.23874 11.8519 4.24007 10.7899C4.23709 10.0205 4.40967 9.26058 4.74466 8.56796C5.07966 7.87534 5.56824 7.26826 6.17322 6.79293C6.44057 6.58569 6.72806 6.40582 7.03136 6.25605C7.22636 6.16354 7.56012 5.99729 8.00262 6.00354C8.31466 6.00564 8.62197 6.07992 8.90052 6.22055C9.17907 6.36118 9.42131 6.56436 9.60827 6.81418C9.86082 7.15109 10 7.55943 10.0058 7.98045C10.0058 7.96732 11.5346 3.00537 5.00258 3.00537C2.25879 3.00537 0 5.60916 0 7.89295C0 9.34234 0.336255 10.4992 0.757512 11.3955C1.22557 12.3912 1.89347 13.2799 2.71968 14.0065C3.54588 14.733 4.51273 15.2818 5.56009 15.6187C6.34958 15.8716 7.1736 16.0002 8.00262 15.9999C8.88639 15.9999 9.7364 15.8543 10.5308 15.5899C9.87925 15.7942 9.19124 15.8551 8.51395 15.7684C7.83667 15.6818 7.18614 15.4497 6.60698 15.0881Z" fill="url(#paint2_linear_4036_5904)"/>
<path d="M6.60698 15.0881C6.04948 14.7415 5.56655 14.2875 5.18633 13.7524C4.5696 12.8878 4.23874 11.8519 4.24007 10.7899C4.23709 10.0205 4.40967 9.26058 4.74466 8.56796C5.07966 7.87534 5.56824 7.26826 6.17322 6.79293C6.44057 6.58569 6.72806 6.40582 7.03136 6.25605C7.22636 6.16354 7.56012 5.99729 8.00262 6.00354C8.31466 6.00564 8.62197 6.07992 8.90052 6.22055C9.17907 6.36118 9.42131 6.56436 9.60827 6.81418C9.86082 7.15109 10 7.55943 10.0058 7.98045C10.0058 7.96732 11.5346 3.00537 5.00258 3.00537C2.25879 3.00537 0 5.60916 0 7.89295C0 9.34234 0.336255 10.4992 0.757512 11.3955C1.22557 12.3912 1.89347 13.2799 2.71968 14.0065C3.54588 14.733 4.51273 15.2818 5.56009 15.6187C6.34958 15.8716 7.1736 16.0002 8.00262 15.9999C8.88639 15.9999 9.7364 15.8543 10.5308 15.5899C9.87925 15.7942 9.19124 15.8551 8.51395 15.7684C7.83667 15.6818 7.18614 15.4497 6.60698 15.0881Z" fill="url(#paint3_radial_4036_5904)"/>
<path d="M9.51952 9.30365C9.46952 9.36928 9.31327 9.4599 9.31327 9.6574C9.31327 9.81991 9.41952 9.97741 9.60827 10.1093C10.507 10.7362 12.2014 10.6518 12.2058 10.6518C12.872 10.6495 13.5254 10.4684 14.0977 10.1274C14.3534 9.9782 14.5911 9.79993 14.8059 9.59615C15.1809 9.23775 15.4798 8.80749 15.6849 8.33104C15.89 7.85459 15.997 7.3417 15.9996 6.82299C16.0159 5.42171 15.5021 4.49045 15.2915 4.07794C13.9665 1.48978 11.1077 -0.000244141 7.99887 -0.000244141C3.61693 -0.000244141 0.0593759 3.52169 0 7.88738C0.0293755 5.60359 2.29941 3.75919 4.99758 3.75919C5.21633 3.75919 6.46385 3.78044 7.62262 4.38857C8.64388 4.92483 9.17889 5.57234 9.5514 6.21423C9.93765 6.88111 10.0064 7.72363 10.0064 8.05926C10.0064 8.39489 9.83703 8.89239 9.5189 9.30302L9.51952 9.30365Z" fill="url(#paint4_radial_4036_5904)"/>
<path d="M9.51952 9.30365C9.46952 9.36928 9.31327 9.4599 9.31327 9.6574C9.31327 9.81991 9.41952 9.97741 9.60827 10.1093C10.507 10.7362 12.2014 10.6518 12.2058 10.6518C12.872 10.6495 13.5254 10.4684 14.0977 10.1274C14.3534 9.9782 14.5911 9.79993 14.8059 9.59615C15.1809 9.23775 15.4798 8.80749 15.6849 8.33104C15.89 7.85459 15.997 7.3417 15.9996 6.82299C16.0159 5.42171 15.5021 4.49045 15.2915 4.07794C13.9665 1.48978 11.1077 -0.000244141 7.99887 -0.000244141C3.61693 -0.000244141 0.0593759 3.52169 0 7.88738C0.0293755 5.60359 2.29941 3.75919 4.99758 3.75919C5.21633 3.75919 6.46385 3.78044 7.62262 4.38857C8.64388 4.92483 9.17889 5.57234 9.5514 6.21423C9.93765 6.88111 10.0064 7.72363 10.0064 8.05926C10.0064 8.39489 9.83703 8.89239 9.5189 9.30302L9.51952 9.30365Z" fill="url(#paint5_radial_4036_5904)"/>
<defs>
<linearGradient id="paint0_linear_4036_5904" x1="76579.9" y1="179928" x2="275366" y2="179928" gradientUnits="userSpaceOnUse">
<stop stop-color="#0C59A4"/>
<stop offset="1" stop-color="#114A8B"/>
</linearGradient>
<radialGradient id="paint1_radial_4036_5904" cx="0" cy="0" r="1" gradientUnits="userSpaceOnUse" gradientTransform="translate(186373 180332) scale(106315 91745.1)">
<stop offset="0.72" stop-opacity="0"/>
<stop offset="0.95" stop-opacity="0.53"/>
<stop offset="1"/>
</radialGradient>
<linearGradient id="paint2_linear_4036_5904" x1="171357" y1="142528" x2="27202" y2="269786" gradientUnits="userSpaceOnUse">
<stop stop-color="#1B9DE2"/>
<stop offset="0.16" stop-color="#1595DF"/>
<stop offset="0.67" stop-color="#0680D7"/>
<stop offset="1" stop-color="#0078D4"/>
</linearGradient>
<radialGradient id="paint3_radial_4036_5904" cx="0" cy="0" r="1" gradientUnits="userSpaceOnUse" gradientTransform="translate(216856 -43362.7) rotate(-81.464) scale(150843 149988)">
<stop offset="0.76" stop-opacity="0"/>
<stop offset="0.95" stop-opacity="0.5"/>
<stop offset="1"/>
</radialGradient>
<radialGradient id="paint4_radial_4036_5904" cx="0" cy="0" r="1" gradientUnits="userSpaceOnUse" gradientTransform="translate(-107633 36396.1) rotate(92.129) scale(323888 459417)">
<stop stop-color="#35C1F1"/>
<stop offset="0.11" stop-color="#34C1ED"/>
<stop offset="0.23" stop-color="#2FC2DF"/>
<stop offset="0.31" stop-color="#2BC3D2"/>
<stop offset="0.67" stop-color="#36C752"/>
</radialGradient>
<radialGradient id="paint5_radial_4036_5904" cx="0" cy="0" r="1" gradientUnits="userSpaceOnUse" gradientTransform="translate(44291 391271) rotate(73.6747) scale(155744 84685)">
<stop stop-color="#66EB6E"/>
<stop offset="1" stop-color="#66EB6E" stop-opacity="0"/>
</radialGradient>
</defs>
</svg>
