<svg width="16" height="15" viewBox="0 0 16 15" fill="none" xmlns="http://www.w3.org/2000/svg">
<path d="M15.0352 2.21914H4.31348V0.511151C4.31348 0.224408 4.53788 0 4.81216 0H14.524C14.8108 0 15.0352 0.224408 15.0352 0.511151V2.21914Z" fill="#0464B8"/>
<path d="M7.89153 2.21875H4.31348V5.535H7.89153V2.21875Z" fill="#0377D4"/>
<path d="M11.4697 2.21875H7.8916V5.535H11.4697V2.21875Z" fill="#29A7EB"/>
<path d="M15.0478 2.21875H11.4697V5.535H15.0478V2.21875Z" fill="#4FD8FF"/>
<path d="M7.89153 5.53516H4.31348V8.8514H7.89153V5.53516Z" fill="#1681D7"/>
<path d="M11.4697 5.53516H7.8916V8.8514H11.4697V5.53516Z" fill="#0178D4"/>
<path d="M15.0478 5.53516H11.4697V8.8514H15.0478V5.53516Z" fill="#29A7EB"/>
<path d="M11.4697 8.83887H7.8916V12.1551H11.4697V8.83887Z" fill="#0464B8"/>
<path d="M15.0478 8.83887H11.4697V12.1551H15.0478V8.83887Z" fill="#1681D7"/>
<path d="M15.8707 7.99115L15.0479 8.47737V7.08105L15.8582 7.52987C16.0452 7.61714 16.0452 7.87895 15.8707 7.99115Z" fill="#042071"/>
<path d="M15.8706 7.99101L15.7958 8.04088L15.7085 8.09075L15.0478 8.47723V8.46476L4.02686 14.7731H15.135C15.6088 14.7731 15.9828 14.3866 15.9828 13.9253L15.9953 7.7666C16.0077 7.8414 15.9579 7.94114 15.8706 7.99101Z" fill="#168FDE"/>
<path d="M15.2599 14.7739H4.13927C3.66552 14.7739 3.2915 14.3874 3.2915 13.9261V7.91699L15.2599 14.7739Z" fill="#29A7EB"/>
<path d="M7.40545 11.4073H0.797894C0.361546 11.4073 0 11.0458 0 10.6094V4.10161C0 3.66526 0.361546 3.30371 0.797894 3.30371H7.40545C7.8418 3.30371 8.20335 3.66526 8.20335 4.10161V10.6094C8.20335 11.0458 7.85427 11.4073 7.40545 11.4073Z" fill="#1681D7"/>
<path d="M4.1018 9.71146C2.81769 9.71146 2.00732 8.73902 2.00732 7.44245C2.00732 6.07107 2.89249 5.09863 4.16413 5.09863C5.48564 5.09863 6.2586 6.08353 6.2586 7.35518C6.27107 8.8637 5.34851 9.71146 4.1018 9.71146ZM4.15166 9.06317C4.94956 9.06317 5.39837 8.32761 5.39837 7.39258C5.39837 6.54482 4.97449 5.75939 4.15166 5.75939C3.32884 5.75939 2.89249 6.53235 2.89249 7.42998C2.89249 8.32761 3.3413 9.06317 4.15166 9.06317Z" fill="white"/>
<path opacity="0.2" d="M8.21601 4.02734C8.21601 4.05228 8.21601 4.07721 8.21601 4.10215V10.61C8.21601 11.0463 7.85446 11.4079 7.41811 11.4079H3.2915V12.1185H8.07887C8.51522 12.1185 8.87676 11.7569 8.87676 11.3206V4.81277C8.87676 4.41382 8.59002 4.07721 8.21601 4.02734Z" fill="black"/>
</svg>
