<svg width="25" height="25" viewBox="0 0 25 25" fill="none" xmlns="http://www.w3.org/2000/svg">
<path fill-rule="evenodd" clip-rule="evenodd" d="M10.0483 3.22386C10.2609 3.43636 10.3261 3.75527 10.214 4.03416C9.61062 5.53454 9.46152 7.17916 9.78522 8.76358C10.1089 10.348 10.8911 11.8023 12.0346 12.9458C13.1781 14.0893 14.6325 14.8715 16.2169 15.1952C17.8013 15.5189 19.4459 15.3698 20.9463 14.7665C21.2251 14.6544 21.5439 14.7195 21.7564 14.9319C21.9689 15.1444 22.0341 15.4632 21.922 15.742C21.1962 17.5482 19.9464 19.0959 18.3336 20.1859C16.7208 21.276 14.8187 21.8584 12.8721 21.8583H12.8713C10.6076 21.8559 8.41527 21.0661 6.6701 19.6243C4.92492 18.1826 3.73562 16.1786 3.30606 13.9561C2.87651 11.7335 3.23346 9.43072 4.31572 7.44249C5.39798 5.45427 7.13815 3.90443 9.23791 3.05866C9.51674 2.94635 9.83569 3.01137 10.0483 3.22386ZM8.29942 5.24143C7.19433 5.97922 6.27643 6.97792 5.63318 8.15963C4.71737 9.84207 4.41532 11.7907 4.77881 13.6714C5.1423 15.5522 6.14869 17.2479 7.62546 18.4679C9.10223 19.6879 10.9574 20.3563 12.8729 20.3583C14.5199 20.3582 16.1292 19.8654 17.4937 18.9432C18.3873 18.3392 19.1491 17.5693 19.7411 16.6807C18.4836 16.9268 17.1838 16.9238 15.9166 16.6649C14.0441 16.2823 12.3254 15.3579 10.974 14.0065C9.62256 12.6551 8.69813 10.9363 8.31558 9.06382C8.05683 7.79732 8.0537 6.49827 8.29942 5.24143Z" fill="#3B3B3B"/>
</svg>
