<svg width="48" height="48" viewBox="0 0 48 48" fill="none" xmlns="http://www.w3.org/2000/svg">
<path fill-rule="evenodd" clip-rule="evenodd" d="M14.3997 9.60048C11.8541 9.60048 9.41277 10.6115 7.61251 12.4112C5.81279 14.2115 4.80176 16.6529 4.80176 19.1984C4.80176 21.744 5.81279 24.1854 7.61251 25.9856L23.9997 42.3752L40.3869 25.9856C41.3038 25.1001 42.0352 24.0408 42.5383 22.8695C43.0414 21.6983 43.3062 20.4386 43.3173 19.1639C43.3284 17.8892 43.0855 16.6251 42.6028 15.4453C42.1201 14.2655 41.4073 13.1936 40.5059 12.2922C39.6045 11.3909 38.5327 10.678 37.3529 10.1953C36.1731 9.71265 34.9089 9.46975 33.6343 9.48083C32.3596 9.49191 31.0999 9.75674 29.9286 10.2599C28.7574 10.763 27.6981 11.4943 26.8125 12.4112L23.9997 15.2216L23.8938 15.1158L21.0804 17.9291L26.5551 23.4038C26.6958 23.5444 26.7748 23.7352 26.7748 23.9341C26.7748 24.133 26.6958 24.3238 26.5551 24.4644L22.9384 28.0812C22.6455 28.3741 22.1706 28.3741 21.8777 28.0812C21.5848 27.7883 21.5848 27.3134 21.8777 27.0205L24.9641 23.9341L19.4894 18.4594C19.3487 18.3187 19.2697 18.1279 19.2697 17.929C19.2697 17.7301 19.3488 17.5393 19.4894 17.3987L22.8327 14.0556L21.1869 12.4112C19.3866 10.6115 16.9453 9.60048 14.3997 9.60048Z" fill="black"/>
</svg>
