<svg width="48" height="48" viewBox="0 0 48 48" fill="none" xmlns="http://www.w3.org/2000/svg">
<path fill-rule="evenodd" clip-rule="evenodd" d="M26.0306 5.80119L41.0306 19.9537C41.3363 20.2347 41.5802 20.5761 41.7471 20.9563C41.9139 21.3365 42.0001 21.7472 42 22.1624V39.4968C42 40.2925 41.6839 41.0555 41.1213 41.6181C40.5587 42.1807 39.7957 42.4968 39 42.4968H9C8.20435 42.4968 7.44129 42.1807 6.87868 41.6181C6.31607 41.0555 6 40.2925 6 39.4968V22.1624C5.99994 21.7472 6.08606 21.3365 6.25292 20.9563C6.41978 20.5761 6.66375 20.2347 6.96937 19.9537L21.9525 5.80119L21.9731 5.78056C22.5254 5.27831 23.2451 5 23.9916 5C24.7381 5 25.4577 5.27831 26.01 5.78056C26.0164 5.7879 26.0233 5.79479 26.0306 5.80119ZM27 24.4968H29C29.2652 24.4968 29.5196 24.6022 29.7071 24.7897C29.8946 24.9772 30 25.2316 30 25.4968V32.4968C30 32.762 29.8946 33.0164 29.7071 33.2039C29.5196 33.3915 29.2652 33.4968 29 33.4968H19C18.7348 33.4968 18.4804 33.3915 18.2929 33.2039C18.1054 33.0164 18 32.762 18 32.4968V25.4968C18 25.2316 18.1054 24.9772 18.2929 24.7897C18.4804 24.6022 18.7348 24.4968 19 24.4968H21V22.9968C21 22.2012 21.3161 21.4381 21.8787 20.8755C22.4413 20.3129 23.2044 19.9968 24 19.9968C24.7956 19.9968 25.5587 20.3129 26.1213 20.8755C26.6839 21.4381 27 22.2012 27 22.9968V24.4968ZM22.5858 21.5826C22.2107 21.9577 22 22.4664 22 22.9968V24.4968H26V22.9968C26 22.4664 25.7893 21.9577 25.4142 21.5826C25.0391 21.2075 24.5304 20.9968 24 20.9968C23.4696 20.9968 22.9609 21.2075 22.5858 21.5826Z" fill="black"/>
</svg>
