<svg width="48" height="48" viewBox="0 0 48 48" fill="none" xmlns="http://www.w3.org/2000/svg">
<path fill-rule="evenodd" clip-rule="evenodd" d="M26.0306 5.80119L41.0306 19.9537C41.3363 20.2347 41.5802 20.5761 41.7471 20.9563C41.9139 21.3365 42.0001 21.7472 42 22.1624V39.4968C42 40.2925 41.6839 41.0555 41.1213 41.6181C40.5587 42.1807 39.7957 42.4968 39 42.4968H9C8.20435 42.4968 7.44129 42.1807 6.87868 41.6181C6.31607 41.0555 6 40.2925 6 39.4968V22.1624C5.99994 21.7472 6.08606 21.3365 6.25292 20.9563C6.41978 20.5761 6.66375 20.2347 6.96937 19.9537L21.9525 5.80119L21.9731 5.78056C22.5254 5.27831 23.2451 5 23.9916 5C24.7381 5 25.4577 5.27831 26.01 5.78056C26.0164 5.7879 26.0233 5.79479 26.0306 5.80119ZM27.0976 20.0532L29.8901 22.8463C29.983 22.9392 30.0567 23.0494 30.1069 23.1707C30.1572 23.2921 30.1831 23.4221 30.1831 23.5535C30.1831 23.6848 30.1572 23.8149 30.1069 23.9362C30.0567 24.0576 29.983 24.1678 29.8901 24.2607L22.1832 31.9675C22.0907 32.0608 21.9806 32.1347 21.8592 32.1851C21.7379 32.2354 21.6077 32.2611 21.4764 32.2607H18.6832C18.418 32.2607 18.1637 32.1553 17.9761 31.9678C17.7886 31.7802 17.6832 31.5259 17.6832 31.2607V28.4675C17.6828 28.3362 17.7085 28.206 17.7588 28.0847C17.8091 27.9633 17.8831 27.8532 17.9764 27.7607L25.6832 20.0532C25.7761 19.9603 25.8863 19.8866 26.0077 19.8363C26.129 19.7861 26.2591 19.7602 26.3904 19.7602C26.5218 19.7602 26.6518 19.7861 26.7732 19.8363C26.8945 19.8866 27.0047 19.9603 27.0976 20.0532ZM24.8901 22.2607L27.6832 25.0532L29.1832 23.5532L26.3901 20.7607L24.8901 22.2607Z" fill="black"/>
</svg>
