<svg width="48" height="48" viewBox="0 0 48 48" fill="none" xmlns="http://www.w3.org/2000/svg">
<path fill-rule="evenodd" clip-rule="evenodd" d="M26.0306 5.80119L41.0306 19.9537C41.3363 20.2347 41.5802 20.5761 41.7471 20.9563C41.9139 21.3365 42.0001 21.7472 42 22.1624V39.4968C42 40.2925 41.6839 41.0555 41.1213 41.6181C40.5587 42.1807 39.7957 42.4968 39 42.4968H9C8.20435 42.4968 7.44129 42.1807 6.87868 41.6181C6.31607 41.0555 6 40.2925 6 39.4968V22.1624C5.99994 21.7472 6.08606 21.3365 6.25292 20.9563C6.41978 20.5761 6.66375 20.2347 6.96937 19.9537L21.9525 5.80119L21.9731 5.78056C22.5254 5.27831 23.2451 5 23.9916 5C24.7381 5 25.4577 5.27831 26.01 5.78056C26.0164 5.7879 26.0233 5.79479 26.0306 5.80119ZM23.73 20.0435C24.433 19.6849 25.2108 19.4975 26 19.4968C26.7225 19.4975 27.4363 19.6548 28.0922 19.9578C28.7481 20.2608 29.3305 20.7023 29.7994 21.2521C30.2683 21.8018 30.6125 22.4466 30.8082 23.142C31.004 23.8375 31.0467 24.5672 30.9334 25.2808C30.8201 25.9943 30.5536 26.6749 30.152 27.2756C29.7505 27.8762 29.2235 28.3827 28.6075 28.7602C27.9914 29.1377 27.3008 29.3771 26.5833 29.4621C25.8658 29.5471 25.1385 29.4756 24.4513 29.2524L23.8538 29.8506C23.8073 29.897 23.7521 29.9338 23.6914 29.9589C23.6307 29.984 23.5657 29.9969 23.5 29.9968H22.5V30.9968C22.5 31.1294 22.4473 31.2566 22.3536 31.3504C22.2598 31.4441 22.1326 31.4968 22 31.4968H21V32.4968C21 32.6294 20.9473 32.7566 20.8536 32.8504C20.7598 32.9441 20.6326 32.9968 20.5 32.9968H18C17.8674 32.9968 17.7402 32.9441 17.6464 32.8504C17.5527 32.7566 17.5 32.6294 17.5 32.4968V29.9968C17.4999 29.9311 17.5128 29.8661 17.5379 29.8054C17.563 29.7447 17.5998 29.6895 17.6462 29.6431L21.2444 26.0456C21.0008 25.2949 20.9383 24.4973 21.0618 23.7178C21.1853 22.9384 21.4915 22.1992 21.9552 21.5606C22.4189 20.9221 23.0271 20.4022 23.73 20.0435ZM26.6944 24.0783C26.8589 24.1882 27.0522 24.2468 27.25 24.2468C27.5152 24.2468 27.7696 24.1415 27.9571 23.9539C28.1446 23.7664 28.25 23.512 28.25 23.2468C28.25 23.049 28.1914 22.8557 28.0815 22.6912C27.9716 22.5268 27.8154 22.3986 27.6327 22.3229C27.45 22.2472 27.2489 22.2274 27.0549 22.266C26.8609 22.3046 26.6827 22.3999 26.5429 22.5397C26.403 22.6796 26.3078 22.8577 26.2692 23.0517C26.2306 23.2457 26.2504 23.4468 26.3261 23.6295C26.4018 23.8122 26.53 23.9684 26.6944 24.0783Z" fill="black"/>
</svg>
