<svg width="48" height="48" viewBox="0 0 48 48" fill="none" xmlns="http://www.w3.org/2000/svg">
<path fill-rule="evenodd" clip-rule="evenodd" d="M26.0306 5.80119L41.0306 19.9537C41.3363 20.2347 41.5802 20.5761 41.7471 20.9563C41.9139 21.3365 42.0001 21.7472 42 22.1624V39.4968C42 40.2925 41.6839 41.0555 41.1213 41.6181C40.5587 42.1807 39.7957 42.4968 39 42.4968H9C8.20435 42.4968 7.44129 42.1807 6.87868 41.6181C6.31607 41.0555 6 40.2925 6 39.4968V22.1624C5.99994 21.7472 6.08606 21.3365 6.25292 20.9563C6.41978 20.5761 6.66375 20.2347 6.96937 19.9537L21.9525 5.80119L21.9731 5.78056C22.5254 5.27831 23.2451 5 23.9916 5C24.7381 5 25.4577 5.27831 26.01 5.78056C26.0164 5.7879 26.0233 5.79479 26.0306 5.80119ZM24.2665 34.1765C24.5773 34.012 31.875 30.0281 31.875 25.1062C31.8737 23.9504 31.414 22.8423 30.5967 22.0251C29.7795 21.2078 28.6714 20.7481 27.5156 20.7468C26.0637 20.7468 24.7924 21.3712 24 22.4266C23.2076 21.3712 21.9363 20.7468 20.4844 20.7468C19.3286 20.7481 18.2205 21.2078 17.4033 22.0251C16.586 22.8423 16.1263 23.9504 16.125 25.1062C16.125 30.0281 23.4227 34.012 23.7335 34.1765C23.8154 34.2206 23.907 34.2436 24 34.2436C24.093 34.2436 24.1846 34.2206 24.2665 34.1765Z" fill="black"/>
</svg>
