<svg width="24" height="25" viewBox="0 0 24 25" fill="none" xmlns="http://www.w3.org/2000/svg">
<path fill-rule="evenodd" clip-rule="evenodd" d="M4.99988 4.96729C4.66836 4.96729 4.35041 5.09898 4.11599 5.3334C3.88157 5.56782 3.74988 5.88576 3.74988 6.21729V18.2173C3.74988 18.5488 3.88157 18.8667 4.11599 19.1012C4.35041 19.3356 4.66836 19.4673 4.99988 19.4673H16.5504C16.3547 19.0837 16.2499 18.6559 16.2499 18.2173V6.21729C16.2499 5.88576 16.1182 5.56782 15.8838 5.3334C15.6493 5.09898 15.3314 4.96729 14.9999 4.96729H4.99988ZM4.99988 3.46729C4.27053 3.46729 3.57106 3.75702 3.05533 4.27274C2.53961 4.78847 2.24988 5.48794 2.24988 6.21729V18.2173C2.24988 18.9466 2.53961 19.6461 3.05533 20.1618C3.57106 20.6776 4.27053 20.9673 4.99988 20.9673H18.9999C19.7292 20.9673 20.4287 20.6776 20.9444 20.1618C21.4601 19.6461 21.7499 18.9466 21.7499 18.2173V9.21728C21.7499 8.48794 21.4601 7.78847 20.9444 7.27274C20.4287 6.75702 19.7292 6.46728 18.9999 6.46728H17.7499V6.21729C17.7499 5.48794 17.4601 4.78847 16.9444 4.27274C16.4287 3.75702 15.7292 3.46729 14.9999 3.46729H4.99988ZM17.7499 7.96729V18.2173C17.7499 18.5488 17.8816 18.8667 18.116 19.1012C18.3504 19.3356 18.6684 19.4673 18.9999 19.4673C19.3314 19.4673 19.6493 19.3356 19.8838 19.1012C20.1182 18.8667 20.2499 18.5488 20.2499 18.2173V9.21728C20.2499 8.88576 20.1182 8.56782 19.8838 8.3334C19.6493 8.09898 19.3314 7.96729 18.9999 7.96729H17.7499ZM6.24988 8.21729C6.24988 7.80307 6.58566 7.46728 6.99988 7.46728H12.9999C13.4141 7.46728 13.7499 7.80307 13.7499 8.21729V12.2173C13.7499 12.6315 13.4141 12.9673 12.9999 12.9673H6.99988C6.58566 12.9673 6.24988 12.6315 6.24988 12.2173V8.21729ZM7.74988 8.96729V11.4673H12.2499V8.96729H7.74988ZM6.24988 16.2173C6.24988 15.8031 6.58566 15.4673 6.99988 15.4673H12.9999C13.4141 15.4673 13.7499 15.8031 13.7499 16.2173C13.7499 16.6315 13.4141 16.9673 12.9999 16.9673H6.99988C6.58566 16.9673 6.24988 16.6315 6.24988 16.2173Z" fill="#3B3B3B"/>
</svg>
