<svg width="25" height="25" viewBox="0 0 25 25" fill="none" xmlns="http://www.w3.org/2000/svg">
<path fill-rule="evenodd" clip-rule="evenodd" d="M12.2177 2.46671C12.5018 2.46671 12.7615 2.62721 12.8885 2.8813L21.8885 20.8813C22.0179 21.1401 21.9869 21.4502 21.8089 21.6783C21.6308 21.9063 21.3375 22.0116 21.055 21.9488L12.2177 19.985L3.38042 21.9488C3.09798 22.0116 2.80462 21.9063 2.62656 21.6783C2.44851 21.4502 2.41751 21.1401 2.5469 20.8813L11.5469 2.8813C11.6739 2.62721 11.9336 2.46671 12.2177 2.46671ZM12.9677 18.6151L19.8422 20.1427L12.2177 4.89376L4.59322 20.1427L11.4677 18.6151V11.2167C11.4677 10.8025 11.8035 10.4667 12.2177 10.4667C12.6319 10.4667 12.9677 10.8025 12.9677 11.2167V18.6151Z" fill="#3B3B3B"/>
</svg>
