<svg width="25" height="25" viewBox="0 0 25 25" fill="none" xmlns="http://www.w3.org/2000/svg">
<path d="M9.75407 21.45C8.41786 21.4508 7.1115 21.055 6.00041 20.3127C4.88933 19.5705 4.02349 18.5151 3.51268 17.2804C3.00187 16.0457 2.86903 14.6871 3.13097 13.3768C3.3929 12.0665 4.03781 10.8635 4.98406 9.92001L11.3841 3.35001C12.2708 2.48193 13.4632 1.99709 14.7041 2.00001C15.6334 2.00713 16.5402 2.28671 17.3122 2.80414C18.0842 3.32156 18.6876 4.05408 19.0473 4.91098C19.4071 5.76787 19.5076 6.71149 19.3364 7.62495C19.1652 8.53841 18.7298 9.38158 18.0841 10.05L11.6641 16.63C11.4136 16.896 11.1105 17.1072 10.7741 17.25C10.4387 17.3926 10.0785 17.4674 9.7141 17.47C9.34776 17.4742 8.98417 17.4063 8.64409 17.27C8.30707 17.132 8.00104 16.928 7.74406 16.67C7.48796 16.4076 7.28434 16.0988 7.14409 15.76C6.86406 15.0811 6.86406 14.3189 7.14409 13.64C7.28574 13.3025 7.49308 12.9966 7.75407 12.74L14.3341 6.17001C14.403 6.09925 14.4854 6.04302 14.5765 6.00462C14.6675 5.96622 14.7653 5.94644 14.8641 5.94644C14.9629 5.94644 15.0607 5.96622 15.1517 6.00462C15.2427 6.04302 15.3251 6.09925 15.3941 6.17001C15.5345 6.31064 15.6134 6.50126 15.6134 6.70001C15.6134 6.89876 15.5345 7.08938 15.3941 7.23001L8.81407 13.81C8.68998 13.9289 8.59134 14.0718 8.52409 14.23C8.45572 14.3807 8.42153 14.5446 8.42406 14.71C8.41884 14.8779 8.44955 15.0449 8.51408 15.2C8.57537 15.3536 8.66725 15.4931 8.7841 15.61C8.90367 15.7236 9.04247 15.815 9.19408 15.88C9.35028 15.9406 9.51652 15.9711 9.68407 15.97C9.8494 15.9716 10.0132 15.9375 10.1641 15.87C10.3144 15.8036 10.4503 15.7085 10.5641 15.59L16.9841 9.00001C17.57 8.38543 17.8922 7.56593 17.8816 6.71686C17.871 5.86778 17.5285 5.05657 16.9274 4.45679C16.3263 3.85701 15.5144 3.5163 14.6653 3.50756C13.8162 3.49882 12.9974 3.82273 12.3841 4.41001L5.98406 10.98C4.99878 11.964 4.44477 13.299 4.44383 14.6915C4.4429 16.0839 4.99516 17.4197 5.97911 18.405C6.96306 19.3903 8.29808 19.9443 9.69054 19.9453C11.083 19.9462 12.4188 19.394 13.4041 18.41L19.6641 12.17C19.7331 12.0993 19.8155 12.043 19.9065 12.0046C19.9975 11.9662 20.0953 11.9464 20.1941 11.9464C20.2929 11.9464 20.3906 11.9662 20.4817 12.0046C20.5727 12.043 20.6552 12.0993 20.7241 12.17C20.8646 12.3106 20.9434 12.5013 20.9434 12.7C20.9434 12.8988 20.8646 13.0894 20.7241 13.23L14.5241 19.45C13.9019 20.0837 13.1595 20.587 12.3405 20.9304C11.5215 21.2738 10.6422 21.4505 9.75407 21.45Z" fill="#3B3B3B"/>
</svg>
