<svg width="25" height="25" viewBox="0 0 25 25" fill="none" xmlns="http://www.w3.org/2000/svg">
<path fill-rule="evenodd" clip-rule="evenodd" d="M12.4358 3.96671C10.2478 3.96671 8.14933 4.8359 6.60216 6.38307C5.05498 7.93025 4.18579 10.0287 4.18579 12.2167C4.18579 13.3001 4.39918 14.3729 4.81378 15.3738C5.22839 16.3748 5.83608 17.2843 6.60216 18.0503C7.36824 18.8164 8.27772 19.4241 9.27865 19.8387C10.2796 20.2533 11.3524 20.4667 12.4358 20.4667C13.5192 20.4667 14.592 20.2533 15.5929 19.8387C16.5939 19.4241 17.5033 18.8164 18.2694 18.0503C19.0355 17.2843 19.6432 16.3748 20.0578 15.3738C20.4724 14.3729 20.6858 13.3001 20.6858 12.2167C20.6858 10.0287 19.8166 7.93025 18.2694 6.38307C16.7222 4.8359 14.6238 3.96671 12.4358 3.96671ZM5.5415 5.32241C7.36998 3.49393 9.84993 2.46671 12.4358 2.46671C15.0217 2.46671 17.5016 3.49393 19.3301 5.32241C21.1586 7.15089 22.1858 9.63084 22.1858 12.2167C22.1858 13.4971 21.9336 14.7649 21.4436 15.9479C20.9536 17.1308 20.2355 18.2056 19.3301 19.111C18.4247 20.0164 17.3499 20.7345 16.167 21.2245C14.984 21.7145 13.7162 21.9667 12.4358 21.9667C11.1554 21.9667 9.88755 21.7145 8.70463 21.2245C7.5217 20.7345 6.44687 20.0164 5.5415 19.111C4.63613 18.2056 3.91795 17.1308 3.42797 15.9479C2.93798 14.7649 2.68579 13.4971 2.68579 12.2167C2.68579 9.63084 3.71302 7.15089 5.5415 5.32241ZM10.4358 8.4667C10.85 8.4667 11.1858 8.80249 11.1858 9.2167V15.2167C11.1858 15.6309 10.85 15.9667 10.4358 15.9667C10.0216 15.9667 9.68579 15.6309 9.68579 15.2167V9.2167C9.68579 8.80249 10.0216 8.4667 10.4358 8.4667ZM14.4358 8.4667C14.85 8.4667 15.1858 8.80249 15.1858 9.2167V15.2167C15.1858 15.6309 14.85 15.9667 14.4358 15.9667C14.0216 15.9667 13.6858 15.6309 13.6858 15.2167V9.2167C13.6858 8.80249 14.0216 8.4667 14.4358 8.4667Z" fill="#3B3B3B"/>
</svg>
