<svg width="25" height="25" viewBox="0 0 25 25" fill="none" xmlns="http://www.w3.org/2000/svg">
<path fill-rule="evenodd" clip-rule="evenodd" d="M20.0428 4.03507C19.8891 3.97222 19.7245 3.94059 19.5586 3.94203C19.3926 3.94348 19.2286 3.97796 19.0761 4.04347C18.9236 4.10898 18.7856 4.20421 18.6703 4.3236L18.6613 4.33297L10.2949 12.6992V14.4666H12.0622L20.4377 6.09101C20.5571 5.9757 20.6524 5.83786 20.718 5.68535C20.7835 5.53285 20.8179 5.36882 20.8194 5.20285C20.8208 5.03688 20.7892 4.87228 20.7264 4.71865C20.6635 4.56503 20.5707 4.42547 20.4533 4.3081C20.336 4.19074 20.1964 4.09792 20.0428 4.03507ZM19.5455 2.44209C19.9107 2.43892 20.2728 2.5085 20.6108 2.64677C20.9487 2.78504 21.2558 2.98924 21.514 3.24744C21.7722 3.50565 21.9764 3.81269 22.1147 4.15066C22.2529 4.48862 22.3225 4.85074 22.3193 5.21588C22.3162 5.58103 22.2403 5.94188 22.0962 6.27739C21.953 6.61075 21.7452 6.91245 21.4849 7.16513L12.9032 15.7469C12.7625 15.8875 12.5718 15.9666 12.3729 15.9666H9.54486C9.13065 15.9666 8.79486 15.6308 8.79486 15.2166V12.3886C8.79486 12.1896 8.87388 11.9989 9.01453 11.8582L17.5963 3.27648C17.849 3.01619 18.1507 2.80845 18.484 2.66525C18.8195 2.52112 19.1804 2.44526 19.5455 2.44209ZM4.60032 5.27202C5.11604 4.75629 5.81552 4.46656 6.54486 4.46656H11.5449C11.9591 4.46656 12.2949 4.80235 12.2949 5.21656C12.2949 5.63078 11.9591 5.96656 11.5449 5.96656H6.54486C6.21334 5.96656 5.8954 6.09826 5.66098 6.33268C5.42656 6.5671 5.29486 6.88504 5.29486 7.21656V18.2166C5.29486 18.5481 5.42656 18.866 5.66098 19.1004C5.8954 19.3349 6.21334 19.4666 6.54486 19.4666H17.5449C17.8764 19.4666 18.1943 19.3349 18.4287 19.1004C18.6632 18.866 18.7949 18.5481 18.7949 18.2166V13.2166C18.7949 12.8023 19.1306 12.4666 19.5449 12.4666C19.9591 12.4666 20.2949 12.8023 20.2949 13.2166V18.2166C20.2949 18.9459 20.0051 19.6454 19.4894 20.1611C18.9737 20.6768 18.2742 20.9666 17.5449 20.9666H6.54486C5.81552 20.9666 5.11604 20.6768 4.60032 20.1611C4.08459 19.6454 3.79486 18.9459 3.79486 18.2166V7.21656C3.79486 6.48722 4.08459 5.78774 4.60032 5.27202Z" fill="#3B3B3B"/>
</svg>
