<svg width="24" height="25" viewBox="0 0 24 25" fill="none" xmlns="http://www.w3.org/2000/svg">
<path fill-rule="evenodd" clip-rule="evenodd" d="M4.99988 4.0759C4.66836 4.0759 4.35041 4.20759 4.11599 4.44201C3.88157 4.67643 3.74988 4.99438 3.74988 5.3259V6.3259C3.74988 14.1957 10.1301 20.5759 17.9999 20.5759H18.9999C19.3314 20.5759 19.6493 20.4442 19.8838 20.2098C20.1182 19.9754 20.2499 19.6574 20.2499 19.3259V16.0469C20.2499 15.9944 20.2334 15.9431 20.2027 15.9005C20.172 15.8579 20.1287 15.8261 20.0789 15.8095L15.5863 14.3116C15.5862 14.3116 15.5864 14.3116 15.5863 14.3116C15.5293 14.2927 15.4671 14.2949 15.4116 14.3179C15.3561 14.341 15.3107 14.3833 15.2838 14.4371L14.1535 16.6947C13.9733 17.0547 13.541 17.2081 13.1741 17.0424C10.5592 15.8609 8.46487 13.7666 7.2834 11.1517C7.11763 10.7848 7.27111 10.3525 7.63111 10.1723L9.88811 9.04225C9.94192 9.01537 9.98479 8.9697 10.0078 8.91414C10.0309 8.85867 10.0331 8.79678 10.0143 8.73978C10.0142 8.73968 10.0143 8.73988 10.0143 8.73978L8.51638 4.24712C8.49981 4.19735 8.46793 4.15385 8.4254 4.12316C8.38292 4.09251 8.33189 4.07598 8.27951 4.0759H4.99988ZM3.05533 3.38135C3.57106 2.86563 4.27053 2.5759 4.99988 2.5759H8.27988C8.64702 2.57618 9.00534 2.69192 9.30307 2.90673C9.60074 3.12151 9.82334 3.42444 9.93937 3.77268C9.93935 3.77261 9.9394 3.77275 9.93937 3.77268L11.4374 8.26568C11.5702 8.66527 11.5547 9.1 11.3933 9.48895C11.2321 9.8777 10.9361 10.1953 10.5596 10.3835M10.5596 10.3835L8.96964 11.1796C9.9237 12.9497 11.376 14.4021 13.1462 15.3561L13.942 13.7667C14.1302 13.3903 14.4481 13.0937 14.8368 12.9324C15.2258 12.7711 15.6599 12.7554 16.0595 12.8882L20.5529 14.3863C20.5528 14.3863 20.5529 14.3864 20.5529 14.3863C20.9014 14.5025 21.2048 14.7254 21.4195 15.0234C21.6344 15.3214 21.7499 15.6795 21.7499 16.0469C21.7499 16.0468 21.7499 16.047 21.7499 16.0469V19.3259C21.7499 20.0552 21.4601 20.7547 20.9444 21.2704C20.4287 21.7862 19.7292 22.0759 18.9999 22.0759H17.9999C9.30166 22.0759 2.24988 15.0241 2.24988 6.3259V5.3259C2.24988 4.59655 2.53961 3.89708 3.05533 3.38135" fill="#3B3B3B"/>
</svg>
