<svg width="24" height="24" viewBox="0 0 24 24" fill="none" xmlns="http://www.w3.org/2000/svg">
<path fill-rule="evenodd" clip-rule="evenodd" d="M8.27918 2.24991C8.64625 2.24979 9.00408 2.3651 9.30201 2.57952C9.60007 2.79404 9.82309 3.09688 9.9395 3.44516L11.4377 7.94078C11.5705 8.34038 11.555 8.77501 11.3936 9.16396C11.2323 9.55288 10.9361 9.87058 10.5595 10.0588C10.5594 10.0588 10.5595 10.0588 10.5595 10.0588L8.97011 10.8531C9.92406 12.6234 11.3763 14.0759 13.1465 15.0301L13.9423 13.4407C14.1305 13.0643 14.4484 12.7677 14.8371 12.6064C15.2261 12.4451 15.6602 12.4294 16.0598 12.5622L20.5532 14.0603C20.5531 14.0603 20.5533 14.0604 20.5532 14.0603C20.9014 14.1764 21.2046 14.399 21.4193 14.6967C21.6342 14.9944 21.7499 15.3522 21.7502 15.7193V18.9999C21.7502 19.7293 21.4604 20.4287 20.9447 20.9445C20.429 21.4602 19.7295 21.7499 19.0002 21.7499H18.0002C9.30197 21.7499 2.25018 14.6981 2.25018 5.99991V4.99991C2.25018 4.27056 2.53991 3.57109 3.05564 3.05536C3.57136 2.53964 4.27084 2.24991 5.00018 2.24991H8.27918C8.27925 2.24991 8.27912 2.24991 8.27918 2.24991ZM8.42579 3.797C8.38321 3.76635 8.33207 3.74988 8.27961 3.74991L5.00018 3.74991C4.66866 3.74991 4.35072 3.8816 4.1163 4.11602C3.88188 4.35045 3.75018 4.66839 3.75018 4.99991V5.99991C3.75018 13.8697 10.1304 20.2499 18.0002 20.2499H19.0002C19.3317 20.2499 19.6496 20.1182 19.8841 19.8838C20.1185 19.6494 20.2502 19.3314 20.2502 18.9999V15.7205C20.2501 15.668 20.2336 15.6169 20.2029 15.5744C20.1722 15.5319 20.1289 15.5001 20.0792 15.4835L15.5866 13.9856C15.5865 13.9856 15.5867 13.9856 15.5866 13.9856C15.5296 13.9667 15.4674 13.9689 15.4119 13.9919C15.3564 14.015 15.311 14.0573 15.2841 14.1111L14.1538 16.3687C13.9736 16.7287 13.5412 16.8822 13.1743 16.7164C10.5593 15.5346 8.46492 13.4399 7.28367 10.8246C7.11788 10.4576 7.27161 10.0251 7.63189 9.84503L9.88889 8.71703C9.9427 8.69014 9.9851 8.64471 10.0082 8.58915C10.0312 8.53362 10.0334 8.47165 10.0145 8.4146C10.0145 8.41456 10.0145 8.41463 10.0145 8.4146L8.51686 3.92066C8.51683 3.92055 8.5169 3.92076 8.51686 3.92066C8.5002 3.87103 8.46828 3.82757 8.42579 3.797ZM15.2502 2.99991C15.2502 2.58569 15.586 2.24991 16.0002 2.24991H21.0002C21.4144 2.24991 21.7502 2.58569 21.7502 2.99991V7.99991C21.7502 8.41412 21.4144 8.74991 21.0002 8.74991C20.586 8.74991 20.2502 8.41412 20.2502 7.99991V4.81057L15.5305 9.53024C15.2376 9.82313 14.7627 9.82313 14.4699 9.53024C14.177 9.23734 14.177 8.76247 14.4699 8.46958L19.1895 3.74991H16.0002C15.586 3.74991 15.2502 3.41412 15.2502 2.99991Z" fill="#3B3B3B"/>
</svg>
