<svg width="25" height="25" viewBox="0 0 25 25" fill="none" xmlns="http://www.w3.org/2000/svg">
<path fill-rule="evenodd" clip-rule="evenodd" d="M9.0417 2.46671C9.40877 2.46658 9.76659 2.58189 10.0645 2.79632C10.3626 3.01083 10.5856 3.31367 10.702 3.66196L12.2002 8.15758C12.3331 8.55717 12.3175 8.99181 12.1562 9.38075C11.9948 9.76967 11.6986 10.0874 11.322 10.2756C11.322 10.2756 11.322 10.2756 11.322 10.2756L9.73263 11.0699C10.6866 12.8402 12.1388 14.2927 13.909 15.2469L14.7048 13.6575C14.893 13.2811 15.2109 12.9845 15.5996 12.8232C15.9886 12.6619 16.4227 12.6462 16.8223 12.779L21.3157 14.2771C21.3156 14.2771 21.3158 14.2772 21.3157 14.2771C21.6639 14.3932 21.9671 14.6158 22.1819 14.9135C22.3967 15.2112 22.5124 15.569 22.5127 15.9361V19.2167C22.5127 19.946 22.223 20.6455 21.7072 21.1612C21.1915 21.677 20.492 21.9667 19.7627 21.9667H18.7627C10.0645 21.9667 3.0127 14.9149 3.0127 6.21671V5.21671C3.0127 4.48736 3.30243 3.78789 3.81815 3.27216C4.33388 2.75644 5.03335 2.46671 5.7627 2.46671H9.0417C9.04176 2.46671 9.04163 2.46671 9.0417 2.46671ZM9.18831 4.01379C9.14573 3.98315 9.09459 3.96668 9.04213 3.96671L5.7627 3.96671C5.43117 3.96671 5.11323 4.0984 4.87881 4.33282C4.64439 4.56724 4.5127 4.88518 4.5127 5.21671V6.21671C4.5127 14.0865 10.8929 20.4667 18.7627 20.4667H19.7627C20.0942 20.4667 20.4122 20.335 20.6466 20.1006C20.881 19.8662 21.0127 19.5482 21.0127 19.2167V15.9373C21.0127 15.8848 20.9961 15.8337 20.9654 15.7912C20.9347 15.7487 20.8915 15.7168 20.8417 15.7003L16.3491 14.2024C16.349 14.2024 16.3492 14.2024 16.3491 14.2024C16.2921 14.1835 16.2299 14.1857 16.1745 14.2087C16.1189 14.2318 16.0735 14.2741 16.0466 14.3279L14.9163 16.5855C14.7361 16.9455 14.3037 17.099 13.9368 16.9332C11.3218 15.7514 9.22743 13.6567 8.04618 11.0414C7.88039 10.6744 8.03412 10.2419 8.3944 10.0618L10.6514 8.93382C10.7052 8.90694 10.7476 8.86151 10.7707 8.80595C10.7937 8.75042 10.796 8.68845 10.777 8.63139C10.777 8.63136 10.777 8.63143 10.777 8.63139L9.27938 4.13746C9.27934 4.13735 9.27941 4.13756 9.27938 4.13746C9.26272 4.08783 9.23079 4.04437 9.18831 4.01379ZM21.2324 2.68638C21.5253 2.39348 22.0001 2.39348 22.293 2.68638C22.5859 2.97927 22.5859 3.45414 22.293 3.74704L17.5734 8.4667H20.7627C21.1769 8.4667 21.5127 8.80249 21.5127 9.2167C21.5127 9.63092 21.1769 9.9667 20.7627 9.9667H15.7627C15.3485 9.9667 15.0127 9.63092 15.0127 9.2167V4.21671C15.0127 3.80249 15.3485 3.46671 15.7627 3.46671C16.1769 3.46671 16.5127 3.80249 16.5127 4.21671V7.40604L21.2324 2.68638Z" fill="#3B3B3B"/>
</svg>
