<svg width="25" height="25" viewBox="0 0 25 25" fill="none" xmlns="http://www.w3.org/2000/svg">
<path fill-rule="evenodd" clip-rule="evenodd" d="M9.15095 2.4667C9.51802 2.46658 9.87584 2.58189 10.1738 2.79631C10.4718 3.01083 10.6949 3.31367 10.8113 3.66195L12.3095 8.15757C12.4423 8.55717 12.4268 8.9918 12.2654 9.38075C12.1041 9.76967 11.8079 10.0874 11.4312 10.2756C11.4312 10.2756 11.4313 10.2756 11.4312 10.2756L9.84188 11.0699C10.7958 12.8402 12.2481 14.2927 14.0183 15.2469L14.814 13.6575C15.0023 13.2811 15.3201 12.9845 15.7089 12.8232C16.0978 12.6619 16.5319 12.6462 16.9315 12.779L21.4249 14.2771C21.4249 14.2771 21.425 14.2772 21.4249 14.2771C21.7732 14.3932 22.0763 14.6158 22.2911 14.9135C22.5059 15.2112 22.6217 15.569 22.6219 15.9361V19.2167C22.6219 19.946 22.3322 20.6455 21.8165 21.1612C21.3008 21.677 20.6013 21.9667 19.8719 21.9667H18.8719C10.1737 21.9667 3.12195 14.9149 3.12195 6.2167V5.2167C3.12195 4.48735 3.41168 3.78788 3.9274 3.27215C4.44313 2.75643 5.1426 2.4667 5.87195 2.4667H9.15095C9.15101 2.4667 9.15088 2.4667 9.15095 2.4667ZM9.29756 4.01379C9.25498 3.98314 9.20384 3.96667 9.15138 3.9667L5.87195 3.9667C5.54043 3.9667 5.22249 4.09839 4.98806 4.33281C4.75364 4.56723 4.62195 4.88518 4.62195 5.2167V6.2167C4.62195 14.0865 11.0022 20.4667 18.8719 20.4667H19.8719C20.2035 20.4667 20.5214 20.335 20.7558 20.1006C20.9902 19.8662 21.1219 19.5482 21.1219 19.2167V15.9373C21.1219 15.8848 21.1054 15.8337 21.0747 15.7912C21.044 15.7486 21.0007 15.7168 20.9509 15.7003L16.4584 14.2024C16.4583 14.2024 16.4584 14.2024 16.4584 14.2024C16.4013 14.1835 16.3392 14.1857 16.2837 14.2087C16.2281 14.2318 16.1828 14.2741 16.1559 14.3279L15.0256 16.5855C14.8453 16.9455 14.413 17.099 14.0461 16.9332C11.4311 15.7514 9.33669 13.6567 8.15544 11.0414C7.98964 10.6744 8.14337 10.2419 8.50366 10.0618L10.7607 8.93382C10.8145 8.90693 10.8569 8.8615 10.8799 8.80594C10.903 8.75041 10.9052 8.68844 10.8863 8.63138C10.8863 8.63135 10.8863 8.63142 10.8863 8.63138L9.38863 4.13745C9.38859 4.13734 9.38866 4.13755 9.38863 4.13745C9.37197 4.08782 9.34005 4.04436 9.29756 4.01379ZM16.3416 3.68637C16.6345 3.39347 17.1094 3.39347 17.4023 3.68637L18.8719 5.15604L20.3416 3.68637C20.6345 3.39347 21.1094 3.39347 21.4023 3.68637C21.6952 3.97926 21.6952 4.45413 21.4023 4.74703L19.9326 6.2167L21.4023 7.68637C21.6952 7.97926 21.6952 8.45413 21.4023 8.74703C21.1094 9.03992 20.6345 9.03992 20.3416 8.74703L18.8719 7.27736L17.4023 8.74703C17.1094 9.03992 16.6345 9.03992 16.3416 8.74703C16.0487 8.45413 16.0487 7.97926 16.3416 7.68637L17.8113 6.2167L16.3416 4.74703C16.0487 4.45413 16.0487 3.97926 16.3416 3.68637Z" fill="#3B3B3B"/>
</svg>
