<svg width="25" height="25" viewBox="0 0 25 25" fill="none" xmlns="http://www.w3.org/2000/svg">
<path fill-rule="evenodd" clip-rule="evenodd" d="M4.16447 4.38193C4.68019 3.86621 5.37966 3.57648 6.10901 3.57648H18.109C18.8384 3.57648 19.5378 3.86621 20.0536 4.38193C20.5693 4.89766 20.859 5.59713 20.859 6.32648V18.3265C20.859 19.0558 20.5693 19.7553 20.0536 20.271C19.5378 20.7867 18.8384 21.0765 18.109 21.0765H6.10901C5.37966 21.0765 4.68019 20.7867 4.16447 20.271C3.64874 19.7553 3.35901 19.0558 3.35901 18.3265V6.32648C3.35901 5.59713 3.64874 4.89766 4.16447 4.38193ZM4.85901 16.6371V18.3265C4.85901 18.658 4.9907 18.9759 5.22513 19.2104C5.45955 19.4448 5.77749 19.5765 6.10901 19.5765H18.109C18.4405 19.5765 18.7585 19.4448 18.9929 19.2104C19.2273 18.9759 19.359 18.658 19.359 18.3265V14.6371L17.9928 13.2709C17.9927 13.2709 17.9928 13.2709 17.9928 13.2709C17.7584 13.0366 17.4404 12.9049 17.109 12.9049C16.7776 12.9049 16.4597 13.0365 16.2253 13.2708C16.2253 13.2708 16.2254 13.2708 16.2253 13.2708L15.1697 14.3265L16.6393 15.7961C16.9322 16.089 16.9322 16.5639 16.6393 16.8568C16.3464 17.1497 15.8716 17.1497 15.5787 16.8568L10.9928 12.2709C10.9927 12.2709 10.9928 12.2709 10.9928 12.2709C10.7584 12.0366 10.4404 11.9049 10.109 11.9049C9.77759 11.9049 9.45974 12.0365 9.22534 12.2708C9.22531 12.2708 9.22537 12.2708 9.22534 12.2708L4.85901 16.6371ZM14.109 13.2658L12.0533 11.2101C11.5376 10.6946 10.8382 10.4049 10.109 10.4049C9.37981 10.4049 8.68046 10.6945 8.16476 11.2101L4.85901 14.5158V6.32648C4.85901 5.99496 4.9907 5.67701 5.22513 5.44259C5.45955 5.20817 5.77749 5.07648 6.10901 5.07648H18.109C18.4405 5.07648 18.7585 5.20817 18.9929 5.44259C19.2273 5.67701 19.359 5.99496 19.359 6.32648V12.5158L19.0533 12.2101C18.5376 11.6946 17.8382 11.4049 17.109 11.4049C16.3798 11.4049 15.6805 11.6945 15.1648 12.2101L14.109 13.2658ZM13.359 8.32648C13.359 7.91226 13.6948 7.57648 14.109 7.57648H14.119C14.5332 7.57648 14.869 7.91226 14.869 8.32648C14.869 8.74069 14.5332 9.07648 14.119 9.07648H14.109C13.6948 9.07648 13.359 8.74069 13.359 8.32648Z" fill="#3B3B3B"/>
</svg>
