<svg width="20" height="20" viewBox="0 0 20 20" fill="none" xmlns="http://www.w3.org/2000/svg">
<path d="M11.692 10.8073C11.634 10.7492 11.5651 10.7031 11.4892 10.6717C11.4133 10.6402 11.332 10.624 11.2499 10.624C11.1677 10.624 11.0864 10.6402 11.0105 10.6717C10.9346 10.7031 10.8657 10.7492 10.8077 10.8073L9.37486 12.2409L7.75845 10.6245L9.19205 9.1917C9.30932 9.07443 9.37521 8.91537 9.37521 8.74952C9.37521 8.58366 9.30932 8.4246 9.19205 8.30733C9.07477 8.19005 8.91571 8.12417 8.74986 8.12417C8.58401 8.12417 8.42495 8.19005 8.30767 8.30733L6.87486 9.74092L5.44205 8.30733C5.32477 8.19005 5.16571 8.12417 4.99986 8.12417C4.83401 8.12417 4.67495 8.19005 4.55767 8.30733C4.4404 8.4246 4.37451 8.58366 4.37451 8.74952C4.37451 8.91537 4.4404 9.07443 4.55767 9.1917L5.05377 9.68702L3.23189 11.5081C2.99968 11.7403 2.81548 12.0159 2.68981 12.3192C2.56414 12.6226 2.49946 12.9477 2.49946 13.2761C2.49946 13.6044 2.56414 13.9296 2.68981 14.2329C2.81548 14.5363 2.99968 14.8119 3.23189 15.044L3.6522 15.4636L1.43267 17.6823C1.3746 17.7404 1.32854 17.8093 1.29711 17.8852C1.26569 17.9611 1.24951 18.0424 1.24951 18.1245C1.24951 18.2066 1.26569 18.288 1.29711 18.3638C1.32854 18.4397 1.3746 18.5086 1.43267 18.5667C1.54995 18.684 1.70901 18.7499 1.87486 18.7499C1.95698 18.7499 2.0383 18.7337 2.11417 18.7023C2.19004 18.6708 2.25898 18.6248 2.31705 18.5667L4.5358 16.3472L4.95533 16.7675C5.18748 16.9997 5.4631 17.1839 5.76646 17.3096C6.06981 17.4352 6.39494 17.4999 6.7233 17.4999C7.05165 17.4999 7.37679 17.4352 7.68014 17.3096C7.98349 17.1839 8.25911 16.9997 8.49127 16.7675L10.3124 14.9456L10.8077 15.4417C10.8657 15.4998 10.9347 15.5458 11.0105 15.5773C11.0864 15.6087 11.1677 15.6249 11.2499 15.6249C11.332 15.6249 11.4133 15.6087 11.4892 15.5773C11.565 15.5458 11.634 15.4998 11.692 15.4417C11.7501 15.3836 11.7962 15.3147 11.8276 15.2388C11.859 15.163 11.8752 15.0816 11.8752 14.9995C11.8752 14.9174 11.859 14.8361 11.8276 14.7602C11.7962 14.6843 11.7501 14.6154 11.692 14.5573L10.2585 13.1245L11.692 11.6917C11.7502 11.6337 11.7963 11.5647 11.8277 11.4889C11.8592 11.413 11.8754 11.3316 11.8754 11.2495C11.8754 11.1674 11.8592 11.0861 11.8277 11.0102C11.7963 10.9343 11.7502 10.8654 11.692 10.8073ZM7.60689 15.8855C7.37249 16.1197 7.05468 16.2513 6.7233 16.2513C6.39192 16.2513 6.0741 16.1197 5.8397 15.8855L4.11627 14.1597C3.88202 13.9253 3.75044 13.6075 3.75044 13.2761C3.75044 12.9447 3.88202 12.6269 4.11627 12.3925L5.93736 10.5706L9.42877 14.062L7.60689 15.8855ZM18.567 1.43233C18.509 1.37422 18.4401 1.32812 18.3642 1.29667C18.2883 1.26521 18.207 1.24902 18.1249 1.24902C18.0427 1.24902 17.9614 1.26521 17.8855 1.29667C17.8096 1.32812 17.7407 1.37422 17.6827 1.43233L15.4639 3.65186L15.0444 3.23155C14.575 2.76354 13.9392 2.50073 13.2764 2.50073C12.6136 2.50073 11.9778 2.76354 11.5085 3.23155L9.68736 5.05342L9.19205 4.55733C9.07477 4.44005 8.91571 4.37417 8.74986 4.37417C8.58401 4.37417 8.42495 4.44005 8.30767 4.55733C8.1904 4.6746 8.12451 4.83366 8.12451 4.99952C8.12451 5.16537 8.1904 5.32443 8.30767 5.4417L14.5577 11.6917C14.6157 11.7498 14.6847 11.7958 14.7605 11.8273C14.8364 11.8587 14.9177 11.8749 14.9999 11.8749C15.082 11.8749 15.1633 11.8587 15.2392 11.8273C15.315 11.7958 15.384 11.7498 15.442 11.6917C15.5001 11.6336 15.5462 11.5647 15.5776 11.4888C15.609 11.413 15.6252 11.3316 15.6252 11.2495C15.6252 11.1674 15.609 11.0861 15.5776 11.0102C15.5462 10.9343 15.5001 10.8654 15.442 10.8073L14.946 10.312L16.7678 8.49092C17 8.25877 17.1842 7.98314 17.3099 7.67979C17.4356 7.37644 17.5003 7.05131 17.5003 6.72295C17.5003 6.3946 17.4356 6.06946 17.3099 5.76611C17.1842 5.46276 17 5.18714 16.7678 4.95498L16.3475 4.53545L18.567 2.3167C18.6252 2.25866 18.6713 2.18973 18.7027 2.11385C18.7342 2.03798 18.7504 1.95665 18.7504 1.87452C18.7504 1.79238 18.7342 1.71105 18.7027 1.63518C18.6713 1.5593 18.6252 1.49037 18.567 1.43233ZM15.8835 7.6042L14.0624 9.42842L10.571 5.93702L12.3928 4.11592C12.6272 3.88168 12.945 3.75009 13.2764 3.75009C13.6078 3.75009 13.9256 3.88168 14.16 4.11592L15.8835 5.83467C16.0001 5.95082 16.0927 6.08888 16.1559 6.24091C16.2191 6.39295 16.2516 6.55597 16.2516 6.72061C16.2516 6.88525 16.2191 7.04827 16.1559 7.20031C16.0927 7.35234 16.0001 7.4904 15.8835 7.60655V7.6042Z" fill="#363B4C"/>
</svg>
