<svg width="25" height="25" viewBox="0 0 25 25" fill="none" xmlns="http://www.w3.org/2000/svg">
<path fill-rule="evenodd" clip-rule="evenodd" d="M12.4359 5.57654C12.8501 5.57654 13.1859 5.91232 13.1859 6.32654V11.5765H18.4359C18.8501 11.5765 19.1859 11.9123 19.1859 12.3265C19.1859 12.7408 18.8501 13.0765 18.4359 13.0765H13.1859V18.3265C13.1859 18.7408 12.8501 19.0765 12.4359 19.0765C12.0216 19.0765 11.6859 18.7408 11.6859 18.3265V13.0765H6.43585C6.02164 13.0765 5.68585 12.7408 5.68585 12.3265C5.68585 11.9123 6.02164 11.5765 6.43585 11.5765H11.6859V6.32654C11.6859 5.91232 12.0216 5.57654 12.4359 5.57654Z" fill="#3B3B3B"/>
</svg>
