<svg width="25" height="25" viewBox="0 0 25 25" fill="none" xmlns="http://www.w3.org/2000/svg">
<path fill-rule="evenodd" clip-rule="evenodd" d="M2.79486 4.32648C2.79486 3.91226 3.13065 3.57648 3.54486 3.57648H21.5449C21.9591 3.57648 22.2949 3.91226 22.2949 4.32648C22.2949 4.74069 21.9591 5.07648 21.5449 5.07648H21.2949V16.3265C21.2949 16.7906 21.1105 17.2357 20.7823 17.5639C20.4541 17.8921 20.009 18.0765 19.5449 18.0765H14.3555L17.0752 20.7961C17.3681 21.089 17.3681 21.5639 17.0752 21.8568C16.7823 22.1497 16.3074 22.1497 16.0145 21.8568L12.5449 18.3871L9.07519 21.8568C8.7823 22.1497 8.30742 22.1497 8.01453 21.8568C7.72164 21.5639 7.72164 21.089 8.01453 20.7961L10.7342 18.0765H5.54486C5.08073 18.0765 4.63561 17.8921 4.30742 17.5639C3.97924 17.2357 3.79486 16.7906 3.79486 16.3265V5.07648H3.54486C3.13065 5.07648 2.79486 4.74069 2.79486 4.32648ZM5.29486 5.07648V16.3265C5.29486 16.3928 5.3212 16.4564 5.36808 16.5033C5.41497 16.5501 5.47856 16.5765 5.54486 16.5765H19.5449C19.6112 16.5765 19.6748 16.5501 19.7216 16.5033C19.7685 16.4564 19.7949 16.3928 19.7949 16.3265V5.07648H5.29486ZM16.5449 7.57648C16.9591 7.57648 17.2949 7.91226 17.2949 8.32648V13.3265C17.2949 13.7407 16.9591 14.0765 16.5449 14.0765C16.1306 14.0765 15.7949 13.7407 15.7949 13.3265V8.32648C15.7949 7.91226 16.1306 7.57648 16.5449 7.57648ZM12.5449 9.57648C12.9591 9.57648 13.2949 9.91226 13.2949 10.3265V13.3265C13.2949 13.7407 12.9591 14.0765 12.5449 14.0765C12.1306 14.0765 11.7949 13.7407 11.7949 13.3265V10.3265C11.7949 9.91226 12.1306 9.57648 12.5449 9.57648ZM8.54486 11.5765C8.95907 11.5765 9.29486 11.9123 9.29486 12.3265V13.3265C9.29486 13.7407 8.95907 14.0765 8.54486 14.0765C8.13065 14.0765 7.79486 13.7407 7.79486 13.3265V12.3265C7.79486 11.9123 8.13065 11.5765 8.54486 11.5765Z" fill="#3B3B3B"/>
</svg>
