<svg width="25" height="25" viewBox="0 0 25 25" fill="none" xmlns="http://www.w3.org/2000/svg">
<path fill-rule="evenodd" clip-rule="evenodd" d="M7.81815 3.38135C8.33388 2.86563 9.03335 2.5759 9.76269 2.5759H15.7627C16.492 2.5759 17.1915 2.86563 17.7072 3.38135C18.223 3.89708 18.5127 4.59655 18.5127 5.3259V8.5759H19.7627C20.492 8.5759 21.1915 8.86563 21.7072 9.38135C22.223 9.89708 22.5127 10.5965 22.5127 11.3259V15.3259C22.5127 16.0552 22.223 16.7547 21.7072 17.2704C21.1915 17.7862 20.492 18.0759 19.7627 18.0759H18.5127V19.3259C18.5127 20.0552 18.223 20.7547 17.7072 21.2704C17.1915 21.7862 16.492 22.0759 15.7627 22.0759H9.76269C9.03335 22.0759 8.33388 21.7862 7.81815 21.2704C7.30243 20.7547 7.01269 20.0552 7.01269 19.3259V18.0759H5.7627C5.03335 18.0759 4.33388 17.7862 3.81815 17.2704C3.30243 16.7547 3.0127 16.0552 3.0127 15.3259V11.3259C3.0127 10.5966 3.30243 9.89708 3.81815 9.38135C4.33388 8.86563 5.03335 8.5759 5.7627 8.5759H7.01269V5.3259C7.01269 4.59655 7.30243 3.89708 7.81815 3.38135ZM8.51269 8.5759H17.0127V5.3259C17.0127 4.99438 16.881 4.67643 16.6466 4.44201C16.4122 4.20759 16.0942 4.0759 15.7627 4.0759H9.76269C9.43117 4.0759 9.11323 4.20759 8.87881 4.44201C8.64439 4.67643 8.51269 4.99438 8.51269 5.3259V8.5759ZM5.7627 10.0759C5.43117 10.0759 5.11323 10.2076 4.87881 10.442C4.64439 10.6764 4.5127 10.9944 4.5127 11.3259V15.3259C4.5127 15.6574 4.64439 15.9754 4.87881 16.2098C5.11323 16.4442 5.43117 16.5759 5.7627 16.5759H7.01269V15.3259C7.01269 14.5965 7.30243 13.8971 7.81815 13.3814C8.33388 12.8656 9.03335 12.5759 9.76269 12.5759H15.7627C16.492 12.5759 17.1915 12.8656 17.7072 13.3814C18.223 13.8971 18.5127 14.5965 18.5127 15.3259V16.5759H19.7627C20.0942 16.5759 20.4122 16.4442 20.6466 16.2098C20.881 15.9754 21.0127 15.6574 21.0127 15.3259V11.3259C21.0127 10.9944 20.881 10.6764 20.6466 10.442C20.4122 10.2076 20.0942 10.0759 19.7627 10.0759H5.7627ZM17.0127 15.3259C17.0127 14.9944 16.881 14.6764 16.6466 14.442C16.4122 14.2076 16.0942 14.0759 15.7627 14.0759H9.76269C9.43117 14.0759 9.11323 14.2076 8.87881 14.442C8.64439 14.6764 8.51269 14.9944 8.51269 15.3259V19.3259C8.51269 19.6574 8.64439 19.9754 8.87881 20.2098C9.11323 20.4442 9.43117 20.5759 9.76269 20.5759H15.7627C16.0942 20.5759 16.4122 20.4442 16.6466 20.2098C16.881 19.9754 17.0127 19.6574 17.0127 19.3259V15.3259Z" fill="#3B3B3B"/>
</svg>
