<svg width="25" height="25" viewBox="0 0 25 25" fill="none" xmlns="http://www.w3.org/2000/svg">
<path fill-rule="evenodd" clip-rule="evenodd" d="M13.8719 3.07643C13.5404 3.07643 13.2225 3.20813 12.9881 3.44255C12.7536 3.67697 12.6219 3.99491 12.6219 4.32643V5.32643C12.6219 5.79056 12.4376 6.23568 12.1094 6.56387C11.7812 6.89206 11.3361 7.07643 10.8719 7.07643H7.87195C7.80564 7.07643 7.74206 7.10277 7.69517 7.14965C7.64829 7.19654 7.62195 7.26013 7.62195 7.32643V10.3264C7.62195 10.7906 7.43757 11.2357 7.10938 11.5639C6.7812 11.8921 6.33608 12.0764 5.87195 12.0764H4.87195C4.54043 12.0764 4.22249 12.2081 3.98806 12.4425C3.75364 12.677 3.62195 12.9949 3.62195 13.3264C3.62195 13.658 3.75364 13.9759 3.98806 14.2103C4.22249 14.4447 4.54043 14.5764 4.87195 14.5764H5.87195C6.33608 14.5764 6.7812 14.7608 7.10938 15.089C7.43757 15.4172 7.62195 15.8623 7.62195 16.3264V19.3264C7.62195 19.3927 7.64829 19.4563 7.69517 19.5032C7.74205 19.5501 7.80564 19.5764 7.87195 19.5764H10.8719C10.9383 19.5764 11.0018 19.5501 11.0487 19.5032C11.0956 19.4563 11.1219 19.3927 11.1219 19.3264V18.3264C11.1219 17.5971 11.4117 16.8976 11.9274 16.3819C12.4431 15.8662 13.1426 15.5764 13.8719 15.5764C14.6013 15.5764 15.3008 15.8662 15.8165 16.3819C16.3322 16.8976 16.6219 17.5971 16.6219 18.3264V19.3264C16.6219 19.3927 16.6483 19.4563 16.6952 19.5032C16.7421 19.5501 16.8056 19.5764 16.8719 19.5764H19.8719C19.9383 19.5764 20.0018 19.5501 20.0487 19.5032C20.0956 19.4563 20.1219 19.3927 20.1219 19.3264V16.3264C20.1219 16.2601 20.0956 16.1965 20.0487 16.1497C20.0018 16.1028 19.9383 16.0764 19.8719 16.0764H18.8719C18.1426 16.0764 17.4431 15.7867 16.9274 15.271C16.4117 14.7552 16.1219 14.0558 16.1219 13.3264C16.1219 12.5971 16.4117 11.8976 16.9274 11.3819C17.4431 10.8662 18.1426 10.5764 18.8719 10.5764H19.8719C19.9383 10.5764 20.0018 10.5501 20.0487 10.5032C20.0956 10.4563 20.1219 10.3927 20.1219 10.3264V7.32643C20.1219 7.26013 20.0956 7.19654 20.0487 7.14965C20.0018 7.10277 19.9383 7.07643 19.8719 7.07643H16.8719C16.4078 7.07643 15.9627 6.89206 15.6345 6.56387C15.3063 6.23568 15.1219 5.79056 15.1219 5.32643V4.32643C15.1219 3.99491 14.9903 3.67697 14.7558 3.44255C14.5214 3.20813 14.2035 3.07643 13.8719 3.07643ZM11.9274 2.38189C12.4431 1.86616 13.1426 1.57643 13.8719 1.57643C14.6013 1.57643 15.3008 1.86616 15.8165 2.38189C16.3322 2.89761 16.6219 3.59709 16.6219 4.32643V5.32643C16.6219 5.39273 16.6483 5.45632 16.6952 5.50321C16.7421 5.55009 16.8056 5.57643 16.8719 5.57643H19.8719C20.3361 5.57643 20.7812 5.76081 21.1094 6.08899C21.4376 6.41718 21.6219 6.8623 21.6219 7.32643V10.3264C21.6219 10.7906 21.4376 11.2357 21.1094 11.5639C20.7812 11.8921 20.3361 12.0764 19.8719 12.0764H18.8719C18.5404 12.0764 18.2225 12.2081 17.9881 12.4425C17.7536 12.677 17.6219 12.9949 17.6219 13.3264C17.6219 13.658 17.7536 13.9759 17.9881 14.2103C18.2225 14.4447 18.5404 14.5764 18.8719 14.5764H19.8719C20.3361 14.5764 20.7812 14.7608 21.1094 15.089C21.4376 15.4172 21.6219 15.8623 21.6219 16.3264V19.3264C21.6219 19.7906 21.4376 20.2357 21.1094 20.5639C20.7812 20.8921 20.3361 21.0764 19.8719 21.0764H16.8719C16.4078 21.0764 15.9627 20.8921 15.6345 20.5639C15.3063 20.2357 15.1219 19.7906 15.1219 19.3264V18.3264C15.1219 17.9949 14.9903 17.677 14.7558 17.4425C14.5214 17.2081 14.2035 17.0764 13.8719 17.0764C13.5404 17.0764 13.2225 17.2081 12.9881 17.4425C12.7536 17.677 12.6219 17.9949 12.6219 18.3264V19.3264C12.6219 19.7906 12.4376 20.2357 12.1094 20.5639C11.7812 20.8921 11.3361 21.0764 10.8719 21.0764H7.87195C7.40782 21.0764 6.9627 20.8921 6.63451 20.5639C6.30632 20.2357 6.12195 19.7906 6.12195 19.3264V16.3264C6.12195 16.2601 6.09561 16.1965 6.04872 16.1497C6.00184 16.1028 5.93825 16.0764 5.87195 16.0764H4.87195C4.1426 16.0764 3.44313 15.7867 2.9274 15.271C2.41168 14.7552 2.12195 14.0558 2.12195 13.3264C2.12195 12.5971 2.41168 11.8976 2.9274 11.3819C3.44313 10.8662 4.1426 10.5764 4.87195 10.5764H5.87195C5.93825 10.5764 6.00184 10.5501 6.04872 10.5032C6.09561 10.4563 6.12195 10.3927 6.12195 10.3264V7.32643C6.12195 6.8623 6.30632 6.41718 6.63451 6.08899C6.9627 5.76081 7.40782 5.57643 7.87195 5.57643H10.8719C10.9383 5.57643 11.0018 5.55009 11.0487 5.50321C11.0956 5.45632 11.1219 5.39273 11.1219 5.32643V4.32643C11.1219 3.59709 11.4117 2.89761 11.9274 2.38189Z" fill="#3B3B3B"/>
</svg>
