<svg width="24" height="25" viewBox="0 0 24 25" fill="none" xmlns="http://www.w3.org/2000/svg">
<path fill-rule="evenodd" clip-rule="evenodd" d="M3.76262 3.87224C4.09081 3.54406 4.53593 3.35968 5.00006 3.35968H7.00006C7.46419 3.35968 7.90931 3.54406 8.2375 3.87224C8.56569 4.20043 8.75006 4.64555 8.75006 5.10968V7.10968C8.75006 7.57381 8.56569 8.01893 8.2375 8.34712C7.90931 8.6753 7.46419 8.85968 7.00006 8.85968H5.00006C4.53593 8.85968 4.09081 8.6753 3.76262 8.34712C3.43444 8.01893 3.25006 7.57381 3.25006 7.10968V5.10968C3.25006 4.64555 3.43444 4.20043 3.76262 3.87224ZM5.00006 4.85968C4.93376 4.85968 4.87017 4.88602 4.82328 4.9329C4.7764 4.97979 4.75006 5.04338 4.75006 5.10968V7.10968C4.75006 7.17598 4.7764 7.23957 4.82328 7.28646C4.87017 7.33334 4.93376 7.35968 5.00006 7.35968H7.00006C7.06636 7.35968 7.12995 7.33334 7.17684 7.28646C7.22372 7.23957 7.25006 7.17598 7.25006 7.10968V5.10968C7.25006 5.04338 7.22372 4.97979 7.17684 4.9329C7.12995 4.88602 7.06636 4.85968 7.00006 4.85968H5.00006ZM12.0001 3.35968C12.4143 3.35968 12.7501 3.69547 12.7501 4.10968V5.10968C12.7501 5.52389 12.4143 5.85968 12.0001 5.85968C11.5858 5.85968 11.2501 5.52389 11.2501 5.10968V4.10968C11.2501 3.69547 11.5858 3.35968 12.0001 3.35968ZM15.7626 3.87224C16.0908 3.54405 16.5359 3.35968 17.0001 3.35968H19.0001C19.4642 3.35968 19.9093 3.54405 20.2375 3.87224C20.5657 4.20043 20.7501 4.64555 20.7501 5.10968V7.10968C20.7501 7.57381 20.5657 8.01893 20.2375 8.34712C19.9093 8.67531 19.4642 8.85968 19.0001 8.85968H17.0001C16.5359 8.85968 16.0908 8.67531 15.7626 8.34712C15.4344 8.01893 15.2501 7.57381 15.2501 7.10968V5.10968C15.2501 4.64555 15.4344 4.20043 15.7626 3.87224ZM17.0001 4.85968C16.9338 4.85968 16.8702 4.88602 16.8233 4.9329C16.7764 4.97979 16.7501 5.04337 16.7501 5.10968V7.10968C16.7501 7.17599 16.7764 7.23957 16.8233 7.28646C16.8702 7.33334 16.9338 7.35968 17.0001 7.35968H19.0001C19.0664 7.35968 19.13 7.33334 19.1768 7.28646C19.2237 7.23957 19.2501 7.17599 19.2501 7.10968V5.10968C19.2501 5.04337 19.2237 4.97979 19.1768 4.9329C19.13 4.88602 19.0664 4.85968 19.0001 4.85968H17.0001ZM12.0001 8.35968C12.4143 8.35968 12.7501 8.69547 12.7501 9.10968V11.3597H16.0101C16.4243 11.3597 16.7601 11.6955 16.7601 12.1097C16.7601 12.5239 16.4243 12.8597 16.0101 12.8597H12.0001C11.5858 12.8597 11.2501 12.5239 11.2501 12.1097V9.10968C11.2501 8.69547 11.5858 8.35968 12.0001 8.35968ZM3.25006 12.1097C3.25006 11.6955 3.58585 11.3597 4.00006 11.3597H8.00006C8.41427 11.3597 8.75006 11.6955 8.75006 12.1097C8.75006 12.5239 8.41427 12.8597 8.00006 12.8597H4.00006C3.58585 12.8597 3.25006 12.5239 3.25006 12.1097ZM19.2501 12.1097C19.2501 11.6955 19.5858 11.3597 20.0001 11.3597H20.0101C20.4243 11.3597 20.7601 11.6955 20.7601 12.1097C20.7601 12.5239 20.4243 12.8597 20.0101 12.8597H20.0001C19.5858 12.8597 19.2501 12.5239 19.2501 12.1097ZM3.76262 15.8722C4.09081 15.5441 4.53593 15.3597 5.00006 15.3597H7.00006C7.46419 15.3597 7.90931 15.5441 8.2375 15.8722C8.56569 16.2004 8.75006 16.6456 8.75006 17.1097V19.1097C8.75006 19.5738 8.56569 20.0189 8.2375 20.3471C7.90931 20.6753 7.46419 20.8597 7.00006 20.8597H5.00006C4.53593 20.8597 4.09081 20.6753 3.76262 20.3471C3.43444 20.0189 3.25006 19.5738 3.25006 19.1097V17.1097C3.25006 16.6456 3.43444 16.2004 3.76262 15.8722ZM5.00006 16.8597C4.93376 16.8597 4.87017 16.886 4.82328 16.9329C4.7764 16.9798 4.75006 17.0434 4.75006 17.1097V19.1097C4.75006 19.176 4.7764 19.2396 4.82328 19.2865C4.87017 19.3333 4.93376 19.3597 5.00006 19.3597H7.00006C7.06637 19.3597 7.12995 19.3333 7.17684 19.2865C7.22372 19.2396 7.25006 19.176 7.25006 19.1097V17.1097C7.25006 17.0434 7.22372 16.9798 7.17684 16.9329C7.12995 16.886 7.06637 16.8597 7.00006 16.8597H5.00006ZM11.2501 16.1097C11.2501 15.6955 11.5858 15.3597 12.0001 15.3597H14.0001C14.4143 15.3597 14.7501 15.6955 14.7501 16.1097C14.7501 16.5239 14.4143 16.8597 14.0001 16.8597H12.7501V20.1097C12.7501 20.5239 12.4143 20.8597 12.0001 20.8597C11.5858 20.8597 11.2501 20.5239 11.2501 20.1097V16.1097ZM17.2501 16.1097C17.2501 15.6955 17.5858 15.3597 18.0001 15.3597H20.0001C20.4143 15.3597 20.7501 15.6955 20.7501 16.1097C20.7501 16.5239 20.4143 16.8597 20.0001 16.8597H18.0001C17.5858 16.8597 17.2501 16.5239 17.2501 16.1097ZM15.2501 20.1097C15.2501 19.6955 15.5858 19.3597 16.0001 19.3597H20.0001C20.4143 19.3597 20.7501 19.6955 20.7501 20.1097C20.7501 20.5239 20.4143 20.8597 20.0001 20.8597H16.0001C15.5858 20.8597 15.2501 20.5239 15.2501 20.1097Z" fill="#3B3B3B"/>
</svg>
