<svg width="24" height="25" viewBox="0 0 24 25" fill="none" xmlns="http://www.w3.org/2000/svg">
<path fill-rule="evenodd" clip-rule="evenodd" d="M11.9999 4.1851C9.81184 4.1851 7.71342 5.05429 6.16625 6.60147C4.61907 8.14864 3.74988 10.2471 3.74988 12.4351C3.74988 13.5185 3.96327 14.5913 4.37787 15.5922C4.79247 16.5932 5.40016 17.5026 6.16625 18.2687C6.93233 19.0348 7.8418 19.6425 8.84274 20.0571C9.84367 20.4717 10.9165 20.6851 11.9999 20.6851C13.0833 20.6851 14.1561 20.4717 15.157 20.0571C16.158 19.6425 17.0674 19.0348 17.8335 18.2687C18.5996 17.5026 19.2073 16.5932 19.6219 15.5922C20.0365 14.5913 20.2499 13.5185 20.2499 12.4351C20.2499 10.2471 19.3807 8.14864 17.8335 6.60147C16.2863 5.05429 14.1879 4.1851 11.9999 4.1851ZM5.10559 5.54081C6.93407 3.71233 9.41402 2.6851 11.9999 2.6851C14.5857 2.6851 17.0657 3.71233 18.8942 5.54081C20.7226 7.36928 21.7499 9.84924 21.7499 12.4351C21.7499 13.7155 21.4977 14.9833 21.0077 16.1663C20.5177 17.3492 19.7995 18.424 18.8942 19.3294C17.9888 20.2348 16.914 20.9529 15.731 21.4429C14.5481 21.9329 13.2803 22.1851 11.9999 22.1851C10.7195 22.1851 9.45164 21.9329 8.26871 21.4429C7.08579 20.9529 6.01096 20.2348 5.10559 19.3294C4.20022 18.424 3.48204 17.3492 2.99205 16.1663C2.50207 14.9833 2.24988 13.7155 2.24988 12.4351C2.24988 9.84924 3.27711 7.36928 5.10559 5.54081ZM11.9999 8.1851C10.4604 8.1851 9.29804 8.92356 8.90632 9.75481C8.72975 10.1295 8.28286 10.2901 7.90816 10.1135C7.53347 9.93697 7.37286 9.49008 7.54943 9.11538C8.25571 7.61663 10.0553 6.6851 11.9999 6.6851C13.2514 6.6851 14.413 7.06443 15.2787 7.71375C16.1446 8.36326 16.7499 9.31774 16.7499 10.4351C16.7499 12.3377 15.0544 13.7099 13.1354 14.0786L13.1352 14.0787C13.0127 14.1022 12.9072 14.1629 12.8385 14.2356C12.7734 14.3045 12.7499 14.3725 12.7499 14.4351C12.7499 14.8493 12.4141 15.1851 11.9999 15.1851C11.5857 15.1851 11.2499 14.8493 11.2499 14.4351C11.2499 13.4392 12.0458 12.7604 12.8524 12.6056C14.3894 12.3103 15.2499 11.3325 15.2499 10.4351C15.2499 9.89545 14.9602 9.34993 14.3786 8.9137C13.7967 8.47726 12.9584 8.1851 11.9999 8.1851ZM11.2499 17.4351C11.2499 17.0209 11.5857 16.6851 11.9999 16.6851H12.0099C12.4241 16.6851 12.7599 17.0209 12.7599 17.4351C12.7599 17.8493 12.4241 18.1851 12.0099 18.1851H11.9999C11.5857 18.1851 11.2499 17.8493 11.2499 17.4351Z" fill="#3B3B3B"/>
</svg>
