<svg width="25" height="25" viewBox="0 0 25 25" fill="none" xmlns="http://www.w3.org/2000/svg">
<path fill-rule="evenodd" clip-rule="evenodd" d="M5.27323 3.49055C5.78895 2.97483 6.48843 2.6851 7.21777 2.6851H17.2178C17.9471 2.6851 18.6466 2.97483 19.1623 3.49055C19.678 4.00628 19.9678 4.70575 19.9678 5.4351V21.4351C19.9678 21.7024 19.8255 21.9496 19.5942 22.0838C19.363 22.218 19.0778 22.2189 18.8457 22.0863L15.7178 20.2989L12.5899 22.0863C12.3593 22.218 12.0762 22.218 11.8457 22.0863L8.71777 20.2989L5.58988 22.0863C5.35775 22.2189 5.07256 22.218 4.84133 22.0838C4.61009 21.9496 4.46777 21.7024 4.46777 21.4351V5.4351C4.46777 4.70575 4.7575 4.00628 5.27323 3.49055ZM7.21777 4.1851C6.88625 4.1851 6.56831 4.31679 6.33389 4.55121C6.09947 4.78563 5.96777 5.10358 5.96777 5.4351V20.1427L8.34567 18.7839C8.57624 18.6522 8.8593 18.6522 9.08988 18.7839L12.2178 20.5713L15.3457 18.7839C15.5762 18.6522 15.8593 18.6522 16.0899 18.7839L18.4678 20.1427V5.4351C18.4678 5.10358 18.3361 4.78563 18.1017 4.55121C17.8672 4.31679 17.5493 4.1851 17.2178 4.1851H7.21777ZM15.7481 7.90477C16.041 8.19766 16.041 8.67253 15.7481 8.96543L9.7481 14.9654C9.45521 15.2583 8.98034 15.2583 8.68744 14.9654C8.39455 14.6725 8.39455 14.1977 8.68744 13.9048L14.6874 7.90477C14.9803 7.61187 15.4552 7.61187 15.7481 7.90477ZM8.83389 8.05121C9.06831 7.81679 9.38625 7.6851 9.71777 7.6851C10.0493 7.6851 10.3672 7.81679 10.6017 8.05121C10.8361 8.28563 10.9678 8.60358 10.9678 8.9351C10.9678 9.26661 10.8361 9.58456 10.6017 9.81898C10.3672 10.0534 10.0493 10.1851 9.71777 10.1851C9.38625 10.1851 9.06831 10.0534 8.83389 9.81898C8.59947 9.58456 8.46777 9.26661 8.46777 8.9351C8.46777 8.60358 8.59947 8.28563 8.83389 8.05121ZM13.8339 13.0512C14.0683 12.8168 14.3863 12.6851 14.7178 12.6851C15.0493 12.6851 15.3672 12.8168 15.6017 13.0512C15.8361 13.2856 15.9678 13.6036 15.9678 13.9351C15.9678 14.2666 15.8361 14.5846 15.6017 14.819C15.3672 15.0534 15.0493 15.1851 14.7178 15.1851C14.3863 15.1851 14.0683 15.0534 13.8339 14.819C13.5995 14.5846 13.4678 14.2666 13.4678 13.9351C13.4678 13.6036 13.5995 13.2856 13.8339 13.0512Z" fill="#3B3B3B"/>
</svg>
