<svg width="25" height="25" viewBox="0 0 25 25" fill="none" xmlns="http://www.w3.org/2000/svg">
<path fill-rule="evenodd" clip-rule="evenodd" d="M4.16447 3.49055C4.68019 2.97483 5.37966 2.6851 6.10901 2.6851H18.109C18.8384 2.6851 19.5378 2.97483 20.0536 3.49055C20.5693 4.00628 20.859 4.70575 20.859 5.4351V21.4351C20.859 21.695 20.7244 21.9364 20.5033 22.0731C20.2822 22.2097 20.0061 22.2222 19.7736 22.1059L16.109 20.2736L12.4444 22.1059C12.2333 22.2115 11.9847 22.2115 11.7736 22.1059L8.10901 20.2736L4.44442 22.1059C4.21193 22.2222 3.93582 22.2097 3.71471 22.0731C3.4936 21.9364 3.35901 21.695 3.35901 21.4351V5.4351C3.35901 4.70575 3.64874 4.00628 4.16447 3.49055ZM6.10901 4.1851C5.77749 4.1851 5.45955 4.31679 5.22513 4.55121C4.9907 4.78563 4.85901 5.10358 4.85901 5.4351V20.2216L7.7736 18.7643C7.98474 18.6587 8.23327 18.6587 8.44442 18.7643L12.109 20.5966L15.7736 18.7643C15.9847 18.6587 16.2333 18.6587 16.4444 18.7643L19.359 20.2216V5.4351C19.359 5.10358 19.2273 4.78563 18.9929 4.55121C18.7585 4.31679 18.4405 4.1851 18.109 4.1851H6.10901ZM11.6393 6.90477C11.9322 7.19766 11.9322 7.67253 11.6393 7.96543L9.91967 9.6851H12.109C13.3688 9.6851 14.577 10.1855 15.4678 11.0763C16.3586 11.9671 16.859 13.1753 16.859 14.4351V15.4351C16.859 15.8493 16.5232 16.1851 16.109 16.1851C15.6948 16.1851 15.359 15.8493 15.359 15.4351V14.4351C15.359 13.5731 15.0166 12.7465 14.4071 12.137C13.7976 11.5275 12.971 11.1851 12.109 11.1851H9.91967L11.6393 12.9048C11.9322 13.1977 11.9322 13.6725 11.6393 13.9654C11.3464 14.2583 10.8716 14.2583 10.5787 13.9654L7.57868 10.9654C7.43803 10.8248 7.35901 10.634 7.35901 10.4351C7.35901 10.2362 7.43803 10.0454 7.57868 9.90477L10.5787 6.90477C10.8716 6.61187 11.3464 6.61187 11.6393 6.90477Z" fill="#3B3B3B"/>
</svg>
