<svg width="24" height="24" viewBox="0 0 24 24" fill="none" xmlns="http://www.w3.org/2000/svg">
<path d="M8.25 9.75004H3.75C3.55109 9.75004 3.36032 9.67102 3.21967 9.53037C3.07902 9.38972 3 9.19895 3 9.00004V4.50004C2.99988 4.35162 3.04381 4.2065 3.12621 4.08305C3.20861 3.95961 3.32579 3.86339 3.46291 3.80657C3.60002 3.74976 3.75092 3.7349 3.89648 3.76389C4.04204 3.79288 4.17573 3.86441 4.28063 3.96941L6 5.69066C7.66144 4.08721 9.87852 3.18829 12.1875 3.18191H12.2372C14.5885 3.17586 16.8476 4.09639 18.525 5.7441C18.662 5.88422 18.7387 6.07238 18.7387 6.26832C18.7387 6.46426 18.662 6.65242 18.5251 6.79256C18.3881 6.93269 18.2018 7.01367 18.0059 7.01816C17.81 7.02266 17.6201 6.95031 17.4769 6.8166C16.0787 5.44417 14.1964 4.67732 12.2372 4.68191H12.195C10.2827 4.68733 8.44562 5.42779 7.06406 6.75004L8.78063 8.46941C8.88563 8.57431 8.95716 8.708 8.98615 8.85356C9.01514 8.99912 9.00028 9.15002 8.94347 9.28713C8.88665 9.42425 8.79043 9.54143 8.66699 9.62383C8.54354 9.70623 8.39842 9.75016 8.25 9.75004ZM20.25 14.25H15.75C15.6016 14.2499 15.4565 14.2938 15.333 14.3762C15.2096 14.4587 15.1133 14.5758 15.0565 14.7129C14.9997 14.8501 14.9849 15.001 15.0139 15.1465C15.0428 15.2921 15.1144 15.4258 15.2194 15.5307L16.9359 17.25C15.5551 18.5731 13.7183 19.3146 11.8059 19.321H11.7638C9.80454 19.3256 7.92227 18.5587 6.52406 17.1863C6.45421 17.1148 6.37077 17.058 6.27866 17.0193C6.18655 16.9805 6.08762 16.9605 5.98769 16.9605C5.88775 16.9606 5.78883 16.9805 5.69672 17.0193C5.60461 17.0581 5.52119 17.1149 5.45134 17.1863C5.38149 17.2578 5.32663 17.3425 5.28998 17.4355C5.25333 17.5285 5.23563 17.6278 5.23793 17.7277C5.24022 17.8277 5.26245 17.9261 5.30333 18.0173C5.3442 18.1085 5.40289 18.1906 5.47594 18.2588C7.15338 19.9065 9.41242 20.827 11.7638 20.821H11.8125C14.1215 20.8146 16.3386 19.9157 18 18.3122L19.7213 20.0335C19.8264 20.138 19.9602 20.209 20.1057 20.2376C20.2512 20.2661 20.4019 20.2508 20.5388 20.1938C20.6756 20.1367 20.7925 20.0403 20.8746 19.9168C20.9566 19.7934 21.0003 19.6483 21 19.5V15C21 14.8011 20.921 14.6104 20.7803 14.4697C20.6397 14.3291 20.4489 14.25 20.25 14.25Z" fill="#363B4C"/>
</svg>
