<svg width="25" height="25" viewBox="0 0 25 25" fill="none" xmlns="http://www.w3.org/2000/svg">
<path fill-rule="evenodd" clip-rule="evenodd" d="M9.96612 3.90423C10.259 4.19713 10.259 4.672 9.96612 4.96489L5.24645 9.68456H13.4358C15.7564 9.68456 17.982 10.6064 19.623 12.2474C21.2639 13.8883 22.1858 16.1139 22.1858 18.4346V20.4346C22.1858 20.8488 21.85 21.1846 21.4358 21.1846C21.0216 21.1846 20.6858 20.8488 20.6858 20.4346V18.4346C20.6858 16.5117 19.922 14.6677 18.5623 13.308C17.2027 11.9484 15.3586 11.1846 13.4358 11.1846H5.24645L9.96612 15.9042C10.259 16.1971 10.259 16.672 9.96612 16.9649C9.67323 17.2578 9.19835 17.2578 8.90546 16.9649L2.90546 10.9649C2.61257 10.672 2.61257 10.1971 2.90546 9.90423L8.90546 3.90423C9.19835 3.61134 9.67323 3.61134 9.96612 3.90423Z" fill="#3B3B3B"/>
</svg>
