<svg width="24" height="24" viewBox="0 0 24 24" fill="none" xmlns="http://www.w3.org/2000/svg">
<g clip-path="url(#clip0_11_1845)">
<path d="M21.35 15.38C21.2807 15.2863 21.1902 15.2102 21.0859 15.1581C20.9817 15.106 20.8666 15.0792 20.75 15.08H20.11C20.1028 13.0004 19.318 10.9986 17.9098 9.46831C16.5016 7.93798 14.5719 6.98974 12.5 6.81V4.75C12.5 4.55109 12.421 4.36032 12.2803 4.21967C12.1397 4.07902 11.9489 4 11.75 4C11.5511 4 11.3603 4.07902 11.2197 4.21967C11.079 4.36032 11 4.55109 11 4.75V6.81C8.92813 6.98974 6.99843 7.93798 5.59023 9.46831C4.18203 10.9986 3.39719 13.0004 3.38999 15.08H2.74999C2.62892 15.0779 2.50915 15.1052 2.4009 15.1594C2.29266 15.2137 2.19916 15.2934 2.12841 15.3917C2.05766 15.4899 2.01175 15.6039 1.99461 15.7237C1.97747 15.8436 1.98961 15.9658 2.02999 16.08L2.46999 17.56C2.69301 18.2811 3.14194 18.9115 3.75053 19.3581C4.35913 19.8046 5.09516 20.0437 5.84999 20.04H17.65C18.4087 20.0363 19.1463 19.7896 19.7546 19.3361C20.3629 18.8826 20.8099 18.2461 21.03 17.52L21.47 16.04C21.5034 15.9283 21.5099 15.8103 21.4891 15.6956C21.4682 15.5809 21.4206 15.4728 21.35 15.38ZM6.89999 10.25C8.18643 8.96396 9.93098 8.24151 11.75 8.24151C13.569 8.24151 15.3136 8.96396 16.6 10.25C17.2337 10.8784 17.7367 11.6262 18.08 12.45C18.4233 13.2738 18.6 14.1575 18.6 15.05H4.88999C4.8913 14.1568 5.06961 13.2727 5.41461 12.4488C5.75961 11.625 6.26446 10.8776 6.89999 10.25ZM19.59 17.06C19.4642 17.4786 19.2086 17.8463 18.86 18.11C18.5111 18.3717 18.0862 18.5122 17.65 18.51H5.84999C5.41255 18.5137 4.98595 18.374 4.63555 18.1121C4.28515 17.8502 4.03028 17.4806 3.90999 17.06L3.74999 16.58H19.75L19.59 17.06Z" fill="#3B3B3B"/>
</g>
<defs>
<clipPath id="clip0_11_1845">
<rect width="19.5" height="16.04" fill="white" transform="translate(2 4)"/>
</clipPath>
</defs>
</svg>
