<svg width="25" height="25" viewBox="0 0 25 25" fill="none" xmlns="http://www.w3.org/2000/svg">
<path fill-rule="evenodd" clip-rule="evenodd" d="M10.3876 6.69227C10.7113 6.66308 11.0367 6.72461 11.3274 6.86995C11.6181 7.01529 11.8625 7.23871 12.0334 7.51517C12.2043 7.79163 12.2948 8.1102 12.2948 8.4352V10.9354L17.4947 7.03521L17.4948 7.0352C17.7548 6.8402 18.0639 6.72145 18.3876 6.69227C18.7113 6.66308 19.0367 6.72461 19.3274 6.86995C19.6181 7.01529 19.8625 7.23871 20.0334 7.51517C20.2043 7.79163 20.2948 8.1102 20.2948 8.4352V16.4352C20.2948 16.7602 20.2043 17.0788 20.0334 17.3552C19.8625 17.6317 19.6181 17.8551 19.3274 18.0004C19.0367 18.1458 18.7113 18.2073 18.3876 18.1781C18.0639 18.1489 17.7547 18.0302 17.4948 17.8352L12.2948 13.9357V16.4352C12.2948 16.7602 12.2043 17.0788 12.0334 17.3552C11.8625 17.6317 11.6181 17.8551 11.3274 18.0004C11.0367 18.1458 10.7113 18.2073 10.3876 18.1781C10.0639 18.1489 9.75478 18.0302 9.49479 17.8352C9.49478 17.8352 9.49477 17.8352 9.49475 17.8352L4.16079 13.8352L4.16075 13.8352C3.94341 13.6722 3.767 13.4608 3.64551 13.2178C3.52401 12.9748 3.46075 12.7069 3.46075 12.4352C3.46075 12.1635 3.52401 11.8956 3.64551 11.6526C3.767 11.4096 3.94341 11.1982 4.16075 11.0352L4.16079 11.0352L9.49475 7.0352C9.49477 7.03519 9.49478 7.03518 9.49479 7.03517C9.75478 6.84019 10.0639 6.72145 10.3876 6.69227ZM10.6566 8.21159C10.615 8.19083 10.5685 8.18204 10.5223 8.18621C10.4761 8.19038 10.4319 8.20734 10.3948 8.2352L10.3947 8.23522L5.06075 12.2352C5.06074 12.2352 5.06073 12.2352 5.06072 12.2352C5.02969 12.2585 5.0045 12.2887 4.98715 12.3234C4.96979 12.3581 4.96075 12.3964 4.96075 12.4352C4.96075 12.474 4.96979 12.5123 4.98715 12.547C5.0045 12.5817 5.02969 12.6119 5.06072 12.6352C5.06073 12.6352 5.06074 12.6352 5.06075 12.6352L10.3947 16.6352L10.3948 16.6352C10.4319 16.6631 10.4761 16.68 10.5223 16.6842C10.5685 16.6884 10.615 16.6796 10.6566 16.6588C10.6981 16.638 10.733 16.6061 10.7574 16.5666C10.7818 16.5271 10.7948 16.4816 10.7948 16.4352V8.4352C10.7948 8.38877 10.7818 8.34326 10.7574 8.30376C10.733 8.26427 10.6981 8.23235 10.6566 8.21159ZM18.6566 8.21159C18.615 8.19083 18.5685 8.18204 18.5223 8.18621C18.4761 8.19038 18.4319 8.20734 18.3948 8.23519C18.3948 8.23519 18.3948 8.23519 18.3948 8.2352L13.0618 12.2352C13.0576 12.2383 13.0534 12.2414 13.0492 12.2444C13.0234 12.2662 13.0023 12.2931 12.9871 12.3234C12.9698 12.3581 12.9608 12.3964 12.9608 12.4352C12.9608 12.474 12.9698 12.5123 12.9871 12.547C13.0045 12.5817 13.0297 12.6119 13.0607 12.6352C13.0607 12.6352 13.0607 12.6352 13.0608 12.6352L18.3947 16.6352L18.3948 16.6352C18.4319 16.6631 18.4761 16.68 18.5223 16.6842C18.5685 16.6884 18.615 16.6796 18.6566 16.6588C18.6981 16.638 18.733 16.6061 18.7574 16.5666C18.7818 16.5271 18.7948 16.4816 18.7948 16.4352V8.4352C18.7948 8.38877 18.7818 8.34326 18.7574 8.30376C18.733 8.26427 18.6981 8.23235 18.6566 8.21159Z" fill="#3B3B3B"/>
</svg>
