<svg width="25" height="25" viewBox="0 0 25 25" fill="none" xmlns="http://www.w3.org/2000/svg">
<path fill-rule="evenodd" clip-rule="evenodd" d="M5.90375 5.43514C5.90375 5.02093 6.23953 4.68514 6.65375 4.68514C14.248 4.68514 20.4037 10.8409 20.4037 18.4351C20.4037 18.8494 20.068 19.1851 19.6537 19.1851C19.2395 19.1851 18.9037 18.8494 18.9037 18.4351C18.9037 11.6694 13.4195 6.18514 6.65375 6.18514C6.23953 6.18514 5.90375 5.84936 5.90375 5.43514ZM5.90375 11.4351C5.90375 11.0209 6.23953 10.6851 6.65375 10.6851C8.70918 10.6851 10.6804 11.5017 12.1338 12.9551C13.5872 14.4085 14.4037 16.3797 14.4037 18.4351C14.4037 18.8494 14.068 19.1851 13.6537 19.1851C13.2395 19.1851 12.9037 18.8494 12.9037 18.4351C12.9037 16.7775 12.2453 15.1878 11.0732 14.0157C9.90106 12.8436 8.31135 12.1851 6.65375 12.1851C6.23953 12.1851 5.90375 11.8494 5.90375 11.4351ZM6.65375 18.1851C6.58744 18.1851 6.52385 18.2115 6.47697 18.2584C6.43009 18.3052 6.40375 18.3688 6.40375 18.4351C6.40375 18.5014 6.43009 18.565 6.47697 18.6119C6.52385 18.6588 6.58744 18.6851 6.65375 18.6851C6.72005 18.6851 6.78364 18.6588 6.83052 18.6119C6.87741 18.565 6.90375 18.5014 6.90375 18.4351C6.90375 18.3688 6.87741 18.3052 6.83052 18.2584C6.78364 18.2115 6.72005 18.1851 6.65375 18.1851ZM5.41631 17.1977C5.7445 16.8695 6.18962 16.6851 6.65375 16.6851C7.11788 16.6851 7.56299 16.8695 7.89118 17.1977C8.21937 17.5259 8.40375 17.971 8.40375 18.4351C8.40375 18.8993 8.21937 19.3444 7.89118 19.6726C7.56299 20.0008 7.11788 20.1851 6.65375 20.1851C6.18962 20.1851 5.7445 20.0008 5.41631 19.6726C5.08812 19.3444 4.90375 18.8993 4.90375 18.4351C4.90375 17.971 5.08812 17.5259 5.41631 17.1977Z" fill="#3B3B3B"/>
</svg>
