<svg width="16" height="16" viewBox="0 0 16 16" fill="none" xmlns="http://www.w3.org/2000/svg">
<path d="M8 16C12.4183 16 16 12.4183 16 8C16 3.58172 12.4183 0 8 0C3.58172 0 0 3.58172 0 8C0 12.4183 3.58172 16 8 16Z" fill="url(#paint0_linear_4036_5949)"/>
<path d="M13.4643 2.5L7.32141 7.32143L8.74998 8.75L13.4643 2.5Z" fill="#FF0000"/>
<path d="M2.49988 13.4644L7.32131 7.32153L8.74988 8.7501L2.49988 13.4644Z" fill="white"/>
<path d="M7.9999 0.785645V1.96422V0.785645ZM7.9999 13.9999V15.1785V13.9999ZM9.2499 0.892787L9.04632 2.0535L9.2499 0.892787ZM6.95347 13.9035L6.7499 15.0714L6.95347 13.9035ZM10.4642 1.22136L10.0606 2.3285L10.4642 1.22136ZM5.94275 13.6356L5.53918 14.7428L5.94275 13.6356ZM6.7499 0.892787L6.95347 2.0535L6.7499 0.892787ZM9.04632 13.9035L9.2499 15.0714L9.04632 13.9035ZM5.53561 1.22136L5.93918 2.3285L5.53561 1.22136ZM10.0535 13.6356L10.457 14.7428L10.0535 13.6356ZM4.3999 1.74993L4.99275 2.77136L4.3999 1.74993ZM11.0106 13.1928L11.5999 14.2142L11.0106 13.1928ZM3.3749 2.46422L4.13204 3.36779L3.3749 2.46422ZM11.8678 12.5892L12.6249 13.4928L11.8678 12.5892ZM2.48204 3.34993L3.38561 4.10707L2.48204 3.34993ZM12.607 11.8499L13.5106 12.6071L12.607 11.8499ZM1.76061 4.38564L2.78204 4.97493L1.76061 4.38564ZM13.2106 10.9928L14.232 11.5821L13.2106 10.9928ZM1.23204 5.52136L2.33918 5.92493L1.23204 5.52136ZM13.6463 10.0321L14.7535 10.4356L13.6463 10.0321ZM0.907038 6.72136L2.07132 6.9285L0.907038 6.72136ZM13.9285 9.0285L15.0892 9.23207L13.9285 9.0285ZM0.803467 7.98207H1.98204H0.803467ZM14.0178 7.98207H15.1963H14.0178ZM0.91061 9.23207L2.07132 9.0285L0.91061 9.23207ZM13.9285 6.93564L15.0892 6.73207L13.9285 6.93564ZM1.24275 10.4464L2.3499 10.0428L1.24275 10.4464ZM13.6535 5.9285L14.7606 5.52493L13.6535 5.9285ZM1.76775 11.5821L2.78918 10.9928L1.76775 11.5821ZM13.2178 4.97493L14.2392 4.38564L13.2178 4.97493ZM2.48561 12.6071L3.38918 11.8499L2.48561 12.6071ZM12.6035 4.11422L13.507 3.35707L12.6035 4.11422ZM3.36418 13.4999L4.12132 12.5964L3.36418 13.4999ZM11.857 3.37493L12.6142 2.47136L11.857 3.37493ZM4.3999 14.2142L4.99275 13.1928L4.3999 14.2142ZM11.0106 2.77136L11.5999 1.74993L11.0106 2.77136ZM7.37132 0.814216L7.42847 1.45707L7.37132 0.814216ZM8.57132 14.5142L8.62847 15.1571L8.57132 14.5142ZM6.13561 1.03564L6.30347 1.65707L6.13561 1.03564ZM9.69632 14.3142L9.86418 14.9356L9.69632 14.3142ZM4.95704 1.46422L5.22847 2.04636L4.95704 1.46422ZM10.7642 13.9249L11.0392 14.5071L10.7642 13.9249ZM3.87132 2.08564L4.23918 2.61422L3.87132 2.08564ZM11.7606 13.3499L12.1285 13.8785L11.7606 13.3499ZM2.91061 2.89279L3.36418 3.34636L2.91061 2.89279ZM12.6356 12.6178L13.0892 13.0714L12.6356 12.6178ZM2.10704 3.85707L2.63561 4.22493L2.10704 3.85707ZM13.3713 11.7499L13.8928 12.1071L13.3713 11.7499ZM1.47847 4.93922L2.06061 5.21064L1.47847 4.93922ZM13.9392 10.7464L14.5213 11.0214L13.9392 10.7464ZM1.0499 6.11779L1.67132 6.28564L1.0499 6.11779ZM14.3285 9.6785L14.9499 9.84636L14.3285 9.6785ZM0.832038 7.35707L1.4749 7.41422L0.832038 7.35707ZM14.532 8.55707L15.1749 8.61422L14.532 8.55707ZM0.839181 8.61422L1.48204 8.55707L0.839181 8.61422ZM14.5392 7.41422L15.182 7.35707L14.5392 7.41422ZM1.0499 9.84636L1.67132 9.6785L1.0499 9.84636ZM14.3285 6.28564L14.9499 6.11779L14.3285 6.28564ZM1.47847 11.0249L2.06061 10.7535L1.47847 11.0249ZM13.9392 5.21779L14.5213 4.94636L13.9392 5.21779ZM2.10704 12.1071L2.63561 11.7392L2.10704 12.1071ZM13.3713 4.21422L13.8928 3.85707L13.3713 4.21422ZM3.87132 13.8785L4.23918 13.3499L3.87132 13.8785ZM11.757 2.61422L12.1285 2.08564L11.757 2.61422ZM4.95704 14.4999L5.23204 13.9178L4.95704 14.4999ZM10.7678 2.03564L11.0428 1.4535L10.7678 2.03564ZM6.13561 14.9285L6.30347 14.3071L6.13561 14.9285ZM9.69632 1.64993L9.86418 1.0285L9.69632 1.64993ZM7.37132 15.1428L7.42847 14.4999L7.37132 15.1428ZM8.57132 1.44279L8.62847 0.79993L8.57132 1.44279Z" fill="#1A1A1A"/>
<path d="M7.99989 0.785645V1.96422M7.99989 13.9999V15.1785M9.24989 0.892787L9.04632 2.0535M6.95347 13.9035L6.7499 15.0714M10.4642 1.22136L10.0606 2.3285M5.94275 13.6356L5.53918 14.7428M6.7499 0.892787L6.95347 2.0535M9.04632 13.9035L9.24989 15.0714M5.53561 1.22136L5.93918 2.3285M10.0535 13.6356L10.457 14.7428M4.3999 1.74993L4.99275 2.77136M11.0106 13.1928L11.5999 14.2142M3.3749 2.46422L4.13204 3.36779M11.8678 12.5892L12.6249 13.4928M2.48204 3.34993L3.38561 4.10707M12.607 11.8499L13.5106 12.6071M1.76061 4.38564L2.78204 4.97493M13.2106 10.9928L14.232 11.5821M1.23204 5.52136L2.33918 5.92493M13.6463 10.0321L14.7535 10.4356M0.907038 6.72136L2.07132 6.9285M13.9285 9.0285L15.0892 9.23207M0.803467 7.98207H1.98204M14.0178 7.98207H15.1963M0.91061 9.23207L2.07132 9.0285M13.9285 6.93564L15.0892 6.73207M1.24275 10.4464L2.3499 10.0428M13.6535 5.9285L14.7606 5.52493M1.76775 11.5821L2.78918 10.9928M13.2178 4.97493L14.2392 4.38564M2.48561 12.6071L3.38918 11.8499M12.6035 4.11422L13.507 3.35707M3.36418 13.4999L4.12132 12.5964M11.857 3.37493L12.6142 2.47136M4.3999 14.2142L4.99275 13.1928M11.0106 2.77136L11.5999 1.74993M7.37132 0.814216L7.42847 1.45707M8.57132 14.5142L8.62847 15.1571M6.13561 1.03564L6.30347 1.65707M9.69632 14.3142L9.86418 14.9356M4.95704 1.46422L5.22847 2.04636M10.7642 13.9249L11.0392 14.5071M3.87132 2.08564L4.23918 2.61422M11.7606 13.3499L12.1285 13.8785M2.91061 2.89279L3.36418 3.34636M12.6356 12.6178L13.0892 13.0714M2.10704 3.85707L2.63561 4.22493M13.3713 11.7499L13.8928 12.1071M1.47847 4.93922L2.06061 5.21064M13.9392 10.7464L14.5213 11.0214M1.0499 6.11779L1.67132 6.28564M14.3285 9.6785L14.9499 9.84636M0.832038 7.35707L1.4749 7.41422M14.532 8.55707L15.1749 8.61422M0.839181 8.61422L1.48204 8.55707M14.5392 7.41422L15.182 7.35707M1.0499 9.84636L1.67132 9.6785M14.3285 6.28564L14.9499 6.11779M1.47847 11.0249L2.06061 10.7535M13.9392 5.21779L14.5213 4.94636M2.10704 12.1071L2.63561 11.7392M13.3713 4.21422L13.8928 3.85707M3.87132 13.8785L4.23918 13.3499M11.757 2.61422L12.1285 2.08564M4.95704 14.4999L5.23204 13.9178M10.7678 2.03564L11.0428 1.4535M6.13561 14.9285L6.30347 14.3071M9.69632 1.64993L9.86418 1.0285M7.37132 15.1428L7.42847 14.4999M8.57132 1.44279L8.62847 0.79993" stroke="white" stroke-width="0.248107"/>
<defs>
<linearGradient id="paint0_linear_4036_5949" x1="0" y1="0" x2="0" y2="16" gradientUnits="userSpaceOnUse">
<stop stop-color="#19D7FF"/>
<stop offset="1" stop-color="#1E64F0"/>
</linearGradient>
</defs>
</svg>
