<svg width="25" height="25" viewBox="0 0 25 25" fill="none" xmlns="http://www.w3.org/2000/svg">
<path fill-rule="evenodd" clip-rule="evenodd" d="M14.7627 2.6851C15.1769 2.6851 15.5127 3.02088 15.5127 3.4351V10.6244L17.2324 8.90477C17.5253 8.61187 18.0001 8.61187 18.293 8.90477C18.5859 9.19766 18.5859 9.67253 18.293 9.96543L15.293 12.9654C15.1524 13.1061 14.9616 13.1851 14.7627 13.1851C14.5638 13.1851 14.373 13.1061 14.2324 12.9654L11.2324 9.96543C10.9395 9.67253 10.9395 9.19766 11.2324 8.90477C11.5253 8.61187 12.0001 8.61187 12.293 8.90477L14.0127 10.6244V3.4351C14.0127 3.02088 14.3485 2.6851 14.7627 2.6851ZM7.81815 5.49055C8.33388 4.97483 9.03335 4.6851 9.76269 4.6851H10.7627C11.1769 4.6851 11.5127 5.02088 11.5127 5.4351C11.5127 5.84931 11.1769 6.1851 10.7627 6.1851H9.76269C9.43117 6.1851 9.11323 6.31679 8.87881 6.55121C8.64439 6.78563 8.51269 7.10358 8.51269 7.4351V14.4351C8.51269 14.7666 8.64439 15.0846 8.87881 15.319C9.11323 15.5534 9.43117 15.6851 9.76269 15.6851H19.7627C20.0942 15.6851 20.4122 15.5534 20.6466 15.319C20.881 15.0846 21.0127 14.7666 21.0127 14.4351V7.4351C21.0127 7.10358 20.881 6.78563 20.6466 6.55121C20.4122 6.31679 20.0942 6.1851 19.7627 6.1851H18.7627C18.3485 6.1851 18.0127 5.84931 18.0127 5.4351C18.0127 5.02088 18.3485 4.6851 18.7627 4.6851H19.7627C20.492 4.6851 21.1915 4.97483 21.7072 5.49055C22.223 6.00628 22.5127 6.70575 22.5127 7.4351V14.4351C22.5127 15.1644 22.223 15.8639 21.7072 16.3796C21.1915 16.8954 20.492 17.1851 19.7627 17.1851H18.5127V18.4351C18.5127 19.1644 18.223 19.8639 17.7072 20.3796C17.1915 20.8954 16.492 21.1851 15.7627 21.1851H5.7627C5.03335 21.1851 4.33388 20.8954 3.81815 20.3796C3.30243 19.8639 3.0127 19.1644 3.0127 18.4351V11.4351C3.0127 10.7058 3.30243 10.0063 3.81815 9.49055C4.33388 8.97483 5.03335 8.6851 5.7627 8.6851H7.01269V7.4351C7.01269 6.70575 7.30243 6.00628 7.81815 5.49055ZM7.01269 10.1851H5.7627C5.43117 10.1851 5.11323 10.3168 4.87881 10.5512C4.64439 10.7856 4.5127 11.1036 4.5127 11.4351V18.4351C4.5127 18.7666 4.64439 19.0846 4.87881 19.319C5.11323 19.5534 5.43117 19.6851 5.7627 19.6851H15.7627C16.0942 19.6851 16.4122 19.5534 16.6466 19.319C16.881 19.0846 17.0127 18.7666 17.0127 18.4351V17.1851H9.76269C9.03335 17.1851 8.33388 16.8954 7.81815 16.3796C7.30243 15.8639 7.01269 15.1644 7.01269 14.4351V10.1851Z" fill="#3B3B3B"/>
</svg>
