<svg width="24" height="24" viewBox="0 0 24 24" fill="none" xmlns="http://www.w3.org/2000/svg">
<path fill-rule="evenodd" clip-rule="evenodd" d="M12.0002 2.24956C12.4144 2.24956 12.7502 2.58534 12.7502 2.99956V4.45899L18.0002 6.20899L20.763 5.28804C21.156 5.15706 21.5807 5.36943 21.7117 5.76239C21.8427 6.15534 21.6303 6.58008 21.2374 6.71107L18.949 7.47388L21.7127 15.7623C21.8148 16.0686 21.7095 16.4059 21.4511 16.5996C20.4556 17.346 19.2449 17.7494 18.0007 17.7494C16.7565 17.7494 15.5458 17.346 14.5503 16.5996C14.292 16.406 14.1866 16.0687 14.2887 15.7624L17.0515 7.4739L12.7502 6.04013V20.2496H15.0002C15.4144 20.2496 15.7502 20.5853 15.7502 20.9996C15.7502 21.4138 15.4144 21.7496 15.0002 21.7496H9.0002C8.58599 21.7496 8.2502 21.4138 8.2502 20.9996C8.2502 20.5853 8.58599 20.2496 9.0002 20.2496H11.2502V6.04013L6.94896 7.47388L9.71269 15.7623C9.81483 16.0686 9.70945 16.4059 9.4511 16.5996C8.4556 17.346 7.24492 17.7494 6.0007 17.7494C4.75649 17.7494 3.54581 17.346 2.55031 16.5996C2.29198 16.406 2.18659 16.0687 2.28869 15.7624L5.05152 7.4739L2.76303 6.71107C2.37008 6.58008 2.15771 6.15534 2.28869 5.76239C2.41968 5.36943 2.84442 5.15706 3.23737 5.28804L6.0002 6.20899L11.2502 4.45899V2.99956C11.2502 2.58534 11.586 2.24956 12.0002 2.24956ZM6.0002 9.37126L3.89373 15.6907C4.53293 16.0554 5.25875 16.2494 6.0007 16.2494C6.74233 16.2494 7.46784 16.0555 8.10684 15.6912L6.0002 9.37126ZM18.0003 9.37091L15.8937 15.6907C16.5329 16.0554 17.2587 16.2494 18.0007 16.2494C18.7426 16.2494 19.4684 16.0554 20.1076 15.6907L18.0003 9.37091Z" fill="#3B3B3B"/>
</svg>
