<svg width="24" height="25" viewBox="0 0 24 25" fill="none" xmlns="http://www.w3.org/2000/svg">
<path fill-rule="evenodd" clip-rule="evenodd" d="M4.34769 4.89193C5.051 4.18862 6.00489 3.7935 6.99952 3.7935C7.99415 3.7935 8.94804 4.18862 9.65135 4.89193C10.3547 5.59524 10.7498 6.54913 10.7498 7.54376C10.7498 8.28457 10.5306 9.00279 10.1281 9.6117L12 11.4836L18.4697 5.01393C18.7626 4.72104 19.2375 4.72104 19.5304 5.01393C19.8232 5.30682 19.8232 5.7817 19.5304 6.07459L10.1281 15.4768C10.5306 16.0857 10.7498 16.8039 10.7498 17.5448C10.7498 18.5394 10.3547 19.4933 9.65135 20.1966C8.94804 20.8999 7.99415 21.295 6.99952 21.295C6.00489 21.295 5.051 20.8999 4.34769 20.1966C3.64438 19.4933 3.24927 18.5394 3.24927 17.5448C3.24927 16.5501 3.64438 15.5962 4.34769 14.8929C5.051 14.1896 6.00489 13.7945 6.99952 13.7945C7.74034 13.7945 8.45855 14.0137 9.06746 14.4162L10.9394 12.5443L9.06746 10.6724C8.45855 11.0748 7.74034 11.294 6.99952 11.294C6.00489 11.294 5.051 10.8989 4.34769 10.1956C3.64438 9.49228 3.24927 8.53839 3.24927 7.54376C3.24927 6.54913 3.64438 5.59524 4.34769 4.89193ZM6.99952 5.2935C6.40272 5.2935 5.83036 5.53058 5.40835 5.95259C4.98635 6.37459 4.74927 6.94695 4.74927 7.54376C4.74927 8.14056 4.98635 8.71292 5.40835 9.13493C5.83036 9.55693 6.40272 9.79401 6.99952 9.79401C7.59633 9.79401 8.16869 9.55693 8.59069 9.13493C9.0127 8.71292 9.24978 8.14056 9.24978 7.54376C9.24978 6.94695 9.0127 6.37459 8.59069 5.95259C8.16869 5.53058 7.59633 5.2935 6.99952 5.2935ZM6.99952 15.2945C6.40272 15.2945 5.83036 15.5316 5.40835 15.9536C4.98635 16.3756 4.74927 16.948 4.74927 17.5448C4.74927 18.1416 4.98635 18.7139 5.40835 19.1359C5.83036 19.5579 6.40272 19.795 6.99952 19.795C7.59633 19.795 8.16869 19.5579 8.59069 19.1359C9.0127 18.7139 9.24978 18.1416 9.24978 17.5448C9.24978 16.948 9.0127 16.3756 8.59069 15.9536C8.16869 15.5316 7.59633 15.2945 6.99952 15.2945ZM13.5907 14.1349C13.8836 13.842 14.3585 13.842 14.6514 14.1349L19.5304 19.0139C19.8232 19.3068 19.8232 19.7817 19.5304 20.0746C19.2375 20.3675 18.7626 20.3675 18.4697 20.0746L13.5907 15.1956C13.2978 14.9027 13.2978 14.4278 13.5907 14.1349Z" fill="#3B3B3B"/>
</svg>
