<svg width="25" height="25" viewBox="0 0 25 25" fill="none" xmlns="http://www.w3.org/2000/svg">
<path fill-rule="evenodd" clip-rule="evenodd" d="M12.3271 4.79409C12.5261 4.79409 12.7168 4.87311 12.8575 5.01376L16.8575 9.01376C17.1504 9.30665 17.1504 9.78153 16.8575 10.0744C16.5646 10.3673 16.0897 10.3673 15.7968 10.0744L12.3271 6.60475L8.85748 10.0744C8.56459 10.3673 8.08971 10.3673 7.79682 10.0744C7.50393 9.78153 7.50393 9.30665 7.79682 9.01376L11.7968 5.01376C11.9375 4.87311 12.1282 4.79409 12.3271 4.79409ZM7.79682 15.0138C8.08971 14.7209 8.56459 14.7209 8.85748 15.0138L12.3271 18.4834L15.7968 15.0138C16.0897 14.7209 16.5646 14.7209 16.8575 15.0138C17.1504 15.3067 17.1504 15.7815 16.8575 16.0744L12.8575 20.0744C12.7168 20.2151 12.5261 20.2941 12.3271 20.2941C12.1282 20.2941 11.9375 20.2151 11.7968 20.0744L7.79682 16.0744C7.50393 15.7815 7.50393 15.3067 7.79682 15.0138Z" fill="#3B3B3B"/>
</svg>
