<svg width="25" height="25" viewBox="0 0 25 25" fill="none" xmlns="http://www.w3.org/2000/svg">
<path fill-rule="evenodd" clip-rule="evenodd" d="M5.43579 5.2935C5.10427 5.2935 4.78633 5.4252 4.55191 5.65962C4.31749 5.89404 4.18579 6.21198 4.18579 6.5435V10.5435C4.18579 10.875 4.31749 11.193 4.55191 11.4274C4.78633 11.6618 5.10427 11.7935 5.43579 11.7935H19.4358C19.7673 11.7935 20.0853 11.6618 20.3197 11.4274C20.5541 11.193 20.6858 10.875 20.6858 10.5435V6.5435C20.6858 6.21198 20.5541 5.89404 20.3197 5.65962C20.0853 5.4252 19.7673 5.2935 19.4358 5.2935H5.43579ZM21.3232 12.5435C21.3425 12.5253 21.3615 12.5068 21.3803 12.488C21.8961 11.9723 22.1858 11.2729 22.1858 10.5435V6.5435C22.1858 5.81416 21.8961 5.11469 21.3803 4.59896C20.8646 4.08324 20.1651 3.7935 19.4358 3.7935H5.43579C4.70645 3.7935 4.00697 4.08324 3.49125 4.59896C2.97552 5.11469 2.68579 5.81416 2.68579 6.5435V10.5435C2.68579 11.2728 2.97552 11.9723 3.49125 12.488C3.51003 12.5068 3.52907 12.5253 3.54833 12.5435C3.52907 12.5617 3.51003 12.5802 3.49125 12.599C2.97552 13.1147 2.68579 13.8142 2.68579 14.5435V18.5435C2.68579 19.2728 2.97552 19.9723 3.49125 20.488C4.00697 21.0038 4.70645 21.2935 5.43579 21.2935H19.4358C20.1651 21.2935 20.8646 21.0038 21.3803 20.488C21.8961 19.9723 22.1858 19.2729 22.1858 18.5435V14.5435C22.1858 13.8142 21.8961 13.1147 21.3803 12.599C21.3615 12.5802 21.3425 12.5617 21.3232 12.5435ZM19.4358 13.2935H5.43579C5.10427 13.2935 4.78633 13.4252 4.55191 13.6596C4.31749 13.894 4.18579 14.212 4.18579 14.5435V18.5435C4.18579 18.875 4.31749 19.193 4.55191 19.4274C4.78633 19.6618 5.10427 19.7935 5.43579 19.7935H19.4358C19.7673 19.7935 20.0853 19.6618 20.3197 19.4274C20.5541 19.193 20.6858 18.875 20.6858 18.5435V14.5435C20.6858 14.212 20.5541 13.894 20.3197 13.6596C20.0853 13.4252 19.7673 13.2935 19.4358 13.2935ZM16.6858 8.5435C16.6858 8.12929 17.0216 7.7935 17.4358 7.7935H17.4458C17.86 7.7935 18.1958 8.12929 18.1958 8.5435C18.1958 8.95772 17.86 9.2935 17.4458 9.2935H17.4358C17.0216 9.2935 16.6858 8.95772 16.6858 8.5435ZM16.6858 16.5435C16.6858 16.1293 17.0216 15.7935 17.4358 15.7935H17.4458C17.86 15.7935 18.1958 16.1293 18.1958 16.5435C18.1958 16.9577 17.86 17.2935 17.4458 17.2935H17.4358C17.0216 17.2935 16.6858 16.9577 16.6858 16.5435Z" fill="#3B3B3B"/>
</svg>
