<svg width="25" height="25" viewBox="0 0 25 25" fill="none" xmlns="http://www.w3.org/2000/svg">
<path fill-rule="evenodd" clip-rule="evenodd" d="M16.867 3.1901C17.7566 2.74521 18.7865 2.67194 19.7301 2.98641C20.6738 3.30088 21.4538 3.97733 21.8987 4.86694C22.119 5.30743 22.2504 5.787 22.2853 6.27826C22.3203 6.76952 22.2581 7.26286 22.1024 7.7301C21.9467 8.19734 21.7005 8.62934 21.3778 9.00143C21.0552 9.37352 20.6624 9.67841 20.2219 9.8987C19.7814 10.119 19.3018 10.2504 18.8106 10.2853C18.3193 10.3203 17.826 10.2581 17.3587 10.1024C16.8915 9.94668 16.4595 9.70047 16.0874 9.3778C15.9061 9.22057 15.7407 9.04668 15.5933 8.85873L10.1673 11.5718C10.2505 11.8824 10.2949 12.2086 10.2949 12.5444C10.2949 12.8802 10.2505 13.2064 10.1673 13.517L15.5933 16.23C16.0437 15.6555 16.6559 15.2204 17.3588 14.9861C17.8261 14.8303 18.3195 14.7681 18.8108 14.803C19.3022 14.838 19.7818 14.9693 20.2223 15.1896C21.1121 15.6345 21.7887 16.4146 22.1033 17.3583C22.4178 18.302 22.3446 19.3321 21.8998 20.2218C21.4549 21.1116 20.6748 21.7881 19.731 22.1027C18.7873 22.4173 17.7573 22.3441 16.8675 21.8992C15.9778 21.4543 15.3012 20.6742 14.9866 19.7305C14.7523 19.0276 14.7331 18.2767 14.9224 17.5717L9.49651 14.8587C9.13586 15.3185 8.67045 15.6905 8.13483 15.9411C7.3697 16.299 6.50613 16.3882 5.68402 16.194C4.86191 15.9999 4.12943 15.5339 3.60523 14.8715C3.08104 14.2091 2.79584 13.3891 2.79584 12.5444C2.79584 11.6997 3.08104 10.8797 3.60523 10.2173C4.12943 9.55492 4.86191 9.08891 5.68402 8.89477C6.50613 8.70064 7.3697 8.78976 8.13483 9.1477C8.67045 9.39826 9.13586 9.77028 9.49651 10.2301L14.9224 7.51714C14.7331 6.81221 14.7522 6.06152 14.9865 5.3587C15.3009 4.41506 15.9774 3.63499 16.867 3.1901ZM8.55812 11.5378C8.33139 11.0846 7.95829 10.7211 7.49924 10.5064C7.04015 10.2916 6.52201 10.2381 6.02875 10.3546C5.53548 10.4711 5.09599 10.7507 4.78147 11.1481C4.46696 11.5456 4.29584 12.0376 4.29584 12.5444C4.29584 13.0512 4.46696 13.5432 4.78147 13.9407C5.09599 14.3381 5.53548 14.6177 6.02875 14.7342C6.52201 14.8507 7.04015 14.7972 7.49924 14.5824C7.95829 14.3677 8.33139 14.0042 8.55812 13.551M8.55816 13.5509C8.70942 13.2484 8.79494 12.9069 8.79494 12.5444C8.79494 12.1819 8.70942 11.8404 8.55816 11.5379M19.2559 4.40947C18.6897 4.22078 18.0717 4.26474 17.5379 4.5317C17.0041 4.79865 16.5982 5.26672 16.4095 5.83293C16.2208 6.39915 16.2648 7.01714 16.5317 7.55094C16.6639 7.81525 16.8469 8.05094 17.0701 8.24455C17.2934 8.43816 17.5526 8.5859 17.833 8.67933C18.1133 8.77276 18.4094 8.81005 18.7041 8.78908C18.9989 8.76811 19.2867 8.68929 19.551 8.5571C19.8153 8.42492 20.051 8.24198 20.2446 8.01871C20.4382 7.79544 20.5859 7.53623 20.6794 7.25587C20.7728 6.9755 20.8101 6.67948 20.7891 6.38471C20.7682 6.08993 20.6893 5.80217 20.5571 5.53786C20.2902 5.00406 19.8221 4.59816 19.2559 4.40947ZM18.7045 16.2993C18.4097 16.2783 18.1136 16.3156 17.8332 16.4091C17.2669 16.5979 16.7987 17.0039 16.5318 17.5378C16.2648 18.0717 16.2209 18.6898 16.4096 19.2562C16.5984 19.8225 17.0044 20.2906 17.5384 20.5576C18.0723 20.8245 18.6904 20.8685 19.2567 20.6797C19.823 20.4909 20.2912 20.0849 20.5581 19.551C20.8251 19.0171 20.869 18.399 20.6802 17.8326C20.4915 17.2663 20.0855 16.7982 19.5515 16.5312C19.2872 16.399 18.9993 16.3202 18.7045 16.2993Z" fill="#3B3B3B"/>
</svg>
