<svg width="25" height="25" viewBox="0 0 25 25" fill="none" xmlns="http://www.w3.org/2000/svg">
<path fill-rule="evenodd" clip-rule="evenodd" d="M12.2618 2.92854C12.5468 2.67285 12.9786 2.67285 13.2636 2.92854C15.4725 4.91049 18.3774 5.9352 21.3409 5.77782C21.6973 5.7589 22.0176 5.99368 22.1069 6.3392C22.3715 7.36364 22.5127 8.43665 22.5127 9.54277C22.5127 15.4852 18.449 20.4759 12.9496 21.8911C12.827 21.9227 12.6984 21.9227 12.5758 21.8911C7.07638 20.4759 3.0127 15.4842 3.0127 9.54277H3.7627L3.0127 9.54338C3.0127 9.54317 3.0127 9.54297 3.0127 9.54277C3.01187 8.46204 3.14824 7.38558 3.41853 6.33919C3.50778 5.99368 3.82812 5.7589 4.18447 5.77782C7.14801 5.9352 10.0529 4.91049 12.2618 2.92854ZM4.73744 7.29354C4.58748 8.03316 4.51208 8.78648 4.5127 9.54216L4.5127 9.54277C4.5127 14.7158 8.00525 19.076 12.7627 20.3886C17.5202 19.076 21.0127 14.7168 21.0127 9.54277C21.0127 8.77178 20.9351 8.01998 20.7879 7.29354C17.8682 7.30312 15.0335 6.30615 12.7627 4.47155C10.4919 6.30615 7.6572 7.30313 4.73744 7.29354ZM12.7627 8.79277C13.1769 8.79277 13.5127 9.12855 13.5127 9.54277V11.5428C13.5127 11.957 13.1769 12.2928 12.7627 12.2928C12.3485 12.2928 12.0127 11.957 12.0127 11.5428V9.54277C12.0127 9.12855 12.3485 8.79277 12.7627 8.79277ZM12.0127 15.5428C12.0127 15.1286 12.3485 14.7928 12.7627 14.7928H12.7727C13.1869 14.7928 13.5227 15.1286 13.5227 15.5428C13.5227 15.957 13.1869 16.2928 12.7727 16.2928H12.7627C12.3485 16.2928 12.0127 15.957 12.0127 15.5428Z" fill="#3B3B3B"/>
</svg>
