<svg width="25" height="25" viewBox="0 0 25 25" fill="none" xmlns="http://www.w3.org/2000/svg">
<path fill-rule="evenodd" clip-rule="evenodd" d="M12.1529 2.92854C12.4379 2.67285 12.8697 2.67285 13.1547 2.92854C15.3636 4.91049 18.2685 5.9352 21.232 5.77782C21.5884 5.7589 21.9087 5.99368 21.998 6.3392C22.2626 7.36364 22.4038 8.43665 22.4038 9.54277C22.4038 15.4852 18.3401 20.4759 12.8407 21.8911C12.7181 21.9227 12.5895 21.9227 12.4669 21.8911C6.9675 20.4759 2.90381 15.4842 2.90381 9.54277H3.65381L2.90381 9.54338C2.90381 9.54317 2.90381 9.54297 2.90381 9.54277C2.90299 8.46204 3.03935 7.38558 3.30965 6.33919C3.3989 5.99368 3.71924 5.7589 4.07559 5.77782C7.03912 5.9352 9.94405 4.91049 12.1529 2.92854ZM4.62855 7.29354C4.47859 8.03316 4.4032 8.78648 4.40381 9.54216L4.40381 9.54277C4.40381 14.7158 7.89637 19.076 12.6538 20.3886C17.4113 19.076 20.9038 14.7168 20.9038 9.54277C20.9038 8.77178 20.8262 8.01998 20.679 7.29354C17.7593 7.30312 14.9246 6.30615 12.6538 4.47155C10.383 6.30615 7.54831 7.30313 4.62855 7.29354ZM16.1841 10.0124C16.477 10.3053 16.477 10.7802 16.1841 11.0731L12.1841 15.0731C11.8912 15.366 11.4164 15.366 11.1235 15.0731L9.12348 13.0731C8.83059 12.7802 8.83059 12.3053 9.12348 12.0124C9.41638 11.7195 9.89125 11.7195 10.1841 12.0124L11.6538 13.4821L15.1235 10.0124C15.4164 9.71954 15.8912 9.71954 16.1841 10.0124Z" fill="#3B3B3B"/>
</svg>
