<svg width="24" height="25" viewBox="0 0 24 25" fill="none" xmlns="http://www.w3.org/2000/svg">
<path fill-rule="evenodd" clip-rule="evenodd" d="M2.25018 3.10849C2.25018 2.69428 2.58597 2.35849 3.00018 2.35849H5.00018C5.35769 2.35849 5.6655 2.61083 5.73562 2.9614L6.01504 4.35849H21.0002C21.2601 4.35849 21.5015 4.49308 21.6382 4.71419C21.7748 4.9353 21.7872 5.21141 21.671 5.4439L17.671 13.4439C17.544 13.698 17.2843 13.8585 17.0002 13.8585H7.31084L5.23751 15.9318C5.07989 16.0894 5.1915 16.3585 5.41418 16.3585H17.0002C17.7295 16.3585 18.429 16.6482 18.9447 17.1639C19.4604 17.6797 19.7502 18.3791 19.7502 19.1085C19.7502 19.8378 19.4604 20.5373 18.9447 21.053C18.429 21.5688 17.7295 21.8585 17.0002 21.8585C16.2708 21.8585 15.5714 21.5688 15.0556 21.053C14.5399 20.5373 14.2502 19.8378 14.2502 19.1085C14.2502 18.6699 14.355 18.242 14.5507 17.8585H9.44968C9.64539 18.242 9.75018 18.6699 9.75018 19.1085C9.75018 19.8378 9.46045 20.5373 8.94473 21.053C8.429 21.5688 7.72953 21.8585 7.00018 21.8585C6.27084 21.8585 5.57136 21.5688 5.05564 21.053C4.53991 20.5373 4.25018 19.8378 4.25018 19.1085C4.25018 18.6032 4.38922 18.1123 4.64612 17.6869C3.633 17.1976 3.27533 15.7727 4.17685 14.8712L6.18603 12.862L4.38533 3.85849H3.00018C2.58597 3.85849 2.25018 3.5227 2.25018 3.10849ZM7.61504 12.3585H16.5367L19.7867 5.85849H6.31504L7.61504 12.3585ZM7.00018 17.8585C6.66866 17.8585 6.35072 17.9902 6.1163 18.2246C5.88188 18.459 5.75018 18.777 5.75018 19.1085C5.75018 19.44 5.88188 19.7579 6.1163 19.9924C6.35072 20.2268 6.66866 20.3585 7.00018 20.3585C7.3317 20.3585 7.64964 20.2268 7.88407 19.9924C8.11849 19.7579 8.25018 19.44 8.25018 19.1085C8.25018 18.777 8.11849 18.459 7.88407 18.2246C7.64964 17.9902 7.3317 17.8585 7.00018 17.8585ZM17.0002 17.8585C16.6687 17.8585 16.3507 17.9902 16.1163 18.2246C15.8819 18.459 15.7502 18.777 15.7502 19.1085C15.7502 19.44 15.8819 19.7579 16.1163 19.9924C16.3507 20.2268 16.6687 20.3585 17.0002 20.3585C17.3317 20.3585 17.6496 20.2268 17.8841 19.9924C18.1185 19.7579 18.2502 19.44 18.2502 19.1085C18.2502 18.777 18.1185 18.459 17.8841 18.2246C17.6496 17.9902 17.3317 17.8585 17.0002 17.8585Z" fill="#3B3B3B"/>
</svg>
