<svg width="25" height="25" viewBox="0 0 25 25" fill="none" xmlns="http://www.w3.org/2000/svg">
<path fill-rule="evenodd" clip-rule="evenodd" d="M9.51319 4.18528C10.404 3.29448 11.6122 2.79404 12.872 2.79404C14.1317 2.79404 15.3399 3.29448 16.2307 4.18528C17.1215 5.07608 17.622 6.28426 17.622 7.54404V8.79404H19.872C20.262 8.79404 20.587 9.09303 20.6194 9.48175L21.6194 21.4818C21.6368 21.6908 21.5659 21.8975 21.4239 22.0519C21.2818 22.2062 21.0817 22.294 20.872 22.294H4.87195C4.66221 22.294 4.46206 22.2062 4.32004 22.0519C4.17802 21.8975 4.10712 21.6908 4.12454 21.4818L5.12454 9.48175C5.15693 9.09303 5.48188 8.79404 5.87195 8.79404H8.12195V7.54404C8.12195 6.28426 8.6224 5.07608 9.51319 4.18528ZM8.12195 10.294V11.544C8.12195 11.9582 8.45774 12.294 8.87195 12.294C9.28616 12.294 9.62195 11.9582 9.62195 11.544V10.294H16.122V11.544C16.122 11.9582 16.4577 12.294 16.872 12.294C17.2862 12.294 17.622 11.9582 17.622 11.544V10.294H19.1819L20.0569 20.794H5.68705L6.56205 10.294H8.12195ZM16.122 8.79404H9.62195V7.54404C9.62195 6.68208 9.96436 5.85543 10.5739 5.24594C11.1833 4.63645 12.01 4.29404 12.872 4.29404C13.7339 4.29404 14.5606 4.63645 15.17 5.24594C15.7795 5.85543 16.122 6.68208 16.122 7.54404V8.79404Z" fill="#3B3B3B"/>
</svg>
