<svg width="25" height="25" viewBox="0 0 25 25" fill="none" xmlns="http://www.w3.org/2000/svg">
<path d="M16.75 21.5C16.6502 21.5003 16.5515 21.4799 16.46 21.44C16.3687 21.406 16.2866 21.3512 16.22 21.28L12.22 17.28C12.1495 17.2111 12.0935 17.1286 12.0557 17.0375C12.0179 16.9464 11.999 16.8486 12 16.75C11.9995 16.6515 12.0187 16.5538 12.0565 16.4628C12.0943 16.3718 12.1499 16.2893 12.22 16.22C12.3607 16.0796 12.5512 16.0007 12.75 16.0007C12.9488 16.0007 13.1394 16.0796 13.28 16.22L16 18.94V8.79001C16 8.5911 16.079 8.40033 16.2197 8.25967C16.3603 8.11902 16.5511 8.04001 16.75 8.04001C16.9489 8.04001 17.1397 8.11902 17.2803 8.25967C17.421 8.40033 17.5 8.5911 17.5 8.79001V18.98L20.22 16.26C20.2887 16.1863 20.3714 16.1272 20.4634 16.0862C20.5554 16.0452 20.6548 16.0232 20.7555 16.0214C20.8562 16.0196 20.9562 16.0382 21.0496 16.0759C21.143 16.1136 21.2279 16.1698 21.2991 16.241C21.3703 16.3122 21.4264 16.397 21.4641 16.4904C21.5018 16.5838 21.5204 16.6838 21.5186 16.7845C21.5168 16.8852 21.4948 16.9845 21.4538 17.0765C21.4128 17.1685 21.3537 17.2514 21.28 17.32L17.28 21.32C17.2135 21.3912 17.1313 21.4459 17.04 21.48C16.9457 21.5063 16.847 21.5131 16.75 21.5ZM11.75 13.5H2.75C2.55109 13.5 2.36032 13.421 2.21967 13.2803C2.07901 13.1397 2 12.9489 2 12.75C2 12.5511 2.07901 12.3603 2.21967 12.2197C2.36032 12.079 2.55109 12 2.75 12H11.75C11.9489 12 12.1397 12.079 12.2803 12.2197C12.421 12.3603 12.5 12.5511 12.5 12.75C12.5 12.9489 12.421 13.1397 12.2803 13.2803C12.1397 13.421 11.9489 13.5 11.75 13.5ZM11.75 9.50001H2.75C2.55109 9.50001 2.36032 9.42099 2.21967 9.28033C2.07901 9.13968 2 8.94892 2 8.75001C2 8.5511 2.07901 8.36033 2.21967 8.21968C2.36032 8.07903 2.55109 8.00001 2.75 8.00001H11.75C11.9489 8.00001 12.1397 8.07903 12.2803 8.21968C12.421 8.36033 12.5 8.5511 12.5 8.75001C12.5 8.94892 12.421 9.13968 12.2803 9.28033C12.1397 9.42099 11.9489 9.50001 11.75 9.50001ZM15.75 5.50001H2.75C2.55109 5.50001 2.36032 5.42099 2.21967 5.28033C2.07901 5.13968 2 4.94892 2 4.75001C2 4.5511 2.07901 4.36033 2.21967 4.21968C2.36032 4.07903 2.55109 4.00001 2.75 4.00001H15.75C15.9489 4.00001 16.1397 4.07903 16.2803 4.21968C16.421 4.36033 16.5 4.5511 16.5 4.75001C16.5 4.94892 16.421 5.13968 16.2803 5.28033C16.1397 5.42099 15.9489 5.50001 15.75 5.50001Z" fill="#3B3B3B"/>
</svg>
