<svg width="24" height="25" viewBox="0 0 24 25" fill="none" xmlns="http://www.w3.org/2000/svg">
<path fill-rule="evenodd" clip-rule="evenodd" d="M2.24988 4.6527C2.24988 4.23849 2.58566 3.9027 2.99988 3.9027H15.9999C16.4141 3.9027 16.7499 4.23849 16.7499 4.6527C16.7499 5.06692 16.4141 5.4027 15.9999 5.4027H2.99988C2.58566 5.4027 2.24988 5.06692 2.24988 4.6527ZM2.24988 8.6527C2.24988 8.23849 2.58566 7.9027 2.99988 7.9027H11.9999C12.4141 7.9027 12.7499 8.23849 12.7499 8.6527C12.7499 9.06692 12.4141 9.4027 11.9999 9.4027H2.99988C2.58566 9.4027 2.24988 9.06692 2.24988 8.6527ZM17.287 7.95961C17.3754 7.99621 17.4583 8.05046 17.5302 8.12237L21.5302 12.1224C21.8231 12.4153 21.8231 12.8901 21.5302 13.183C21.2373 13.4759 20.7624 13.4759 20.4695 13.183L17.7499 10.4634V20.6527C17.7499 21.0669 17.4141 21.4027 16.9999 21.4027C16.5857 21.4027 16.2499 21.0669 16.2499 20.6527V10.4634L13.5302 13.183C13.2373 13.4759 12.7624 13.4759 12.4695 13.183C12.1767 12.8901 12.1767 12.4153 12.4695 12.1224L16.4692 8.12267C16.4691 8.12277 16.4693 8.12257 16.4692 8.12267C16.4698 8.12214 16.4706 8.12131 16.4711 8.12078C16.5427 8.04967 16.625 7.99594 16.7128 7.95961C16.8038 7.92196 16.9007 7.90299 16.9976 7.90271C16.9984 7.9027 16.9991 7.9027 16.9999 7.9027C17.0006 7.9027 17.0014 7.9027 17.0021 7.90271C17.103 7.903 17.1992 7.92321 17.287 7.95961ZM2.24988 12.6527C2.24988 12.2385 2.58566 11.9027 2.99988 11.9027H8.99988C9.41409 11.9027 9.74988 12.2385 9.74988 12.6527C9.74988 13.0669 9.41409 13.4027 8.99988 13.4027H2.99988C2.58566 13.4027 2.24988 13.0669 2.24988 12.6527Z" fill="#3B3B3B"/>
</svg>
