<svg width="25" height="25" viewBox="0 0 25 25" fill="none" xmlns="http://www.w3.org/2000/svg">
<path fill-rule="evenodd" clip-rule="evenodd" d="M5.21771 2.90324C5.63193 2.90324 5.96771 3.23903 5.96771 3.65324V4.90324H7.21771C7.63193 4.90324 7.96771 5.23903 7.96771 5.65324C7.96771 6.06745 7.63193 6.40324 7.21771 6.40324H5.96771V7.65324C5.96771 8.06745 5.63193 8.40324 5.21771 8.40324C4.8035 8.40324 4.46771 8.06745 4.46771 7.65324V6.40324H3.21771C2.8035 6.40324 2.46771 6.06745 2.46771 5.65324C2.46771 5.23903 2.8035 4.90324 3.21771 4.90324H4.46771V3.65324C4.46771 3.23903 4.8035 2.90324 5.21771 2.90324ZM13.2177 2.90324C13.5405 2.90324 13.8271 3.1098 13.9292 3.41604L16.1021 9.93364L21.4811 11.951C21.7738 12.0608 21.9677 12.3406 21.9677 12.6532C21.9677 12.9659 21.7738 13.2457 21.4811 13.3555L16.1021 15.3728L13.9292 21.8904C13.8271 22.1967 13.5405 22.4032 13.2177 22.4032C12.8949 22.4032 12.6083 22.1967 12.5062 21.8904L10.3334 15.3728L4.95434 13.3555C4.66163 13.2457 4.46771 12.9659 4.46771 12.6532C4.46771 12.3406 4.66163 12.0608 4.95434 11.951L10.3334 9.93364L12.5062 3.41604C12.6083 3.1098 12.8949 2.90324 13.2177 2.90324ZM13.2177 6.02464L11.6432 10.7474C11.5716 10.9621 11.407 11.133 11.1951 11.2125L7.3535 12.6532L11.1951 14.094C11.407 14.1735 11.5716 14.3444 11.6432 14.559L13.2177 19.2818L14.7922 14.559C14.8638 14.3444 15.0285 14.1735 15.2403 14.094L19.0819 12.6532L15.2403 11.2125C15.0285 11.133 14.8638 10.9621 14.7922 10.7474L13.2177 6.02464ZM6.21771 16.9032C6.63193 16.9032 6.96771 17.239 6.96771 17.6532V18.9032H8.21771C8.63193 18.9032 8.96771 19.239 8.96771 19.6532C8.96771 20.0675 8.63193 20.4032 8.21771 20.4032H6.96771V21.6532C6.96771 22.0675 6.63193 22.4032 6.21771 22.4032C5.8035 22.4032 5.46771 22.0675 5.46771 21.6532V20.4032H4.21771C3.8035 20.4032 3.46771 20.0675 3.46771 19.6532C3.46771 19.239 3.8035 18.9032 4.21771 18.9032H5.46771V17.6532C5.46771 17.239 5.8035 16.9032 6.21771 16.9032Z" fill="#3B3B3B"/>
</svg>
