<svg width="25" height="25" viewBox="0 0 25 25" fill="none" xmlns="http://www.w3.org/2000/svg">
<path d="M10.01 22.46C9.49363 22.4597 8.98993 22.3001 8.5676 22.003C8.14526 21.7059 7.82479 21.2858 7.64993 20.8L5.59995 14.94C4.74641 14.4909 4.04908 13.7935 3.59995 12.94C3.08907 11.974 2.92997 10.8604 3.14993 9.79C3.37051 8.71489 3.95289 7.74784 4.79996 7.04999C5.64701 6.35869 6.70662 5.98077 7.79996 5.98H9.62998C13.35 5.98 16.8 4.88 18.24 3.24C18.3406 3.12704 18.473 3.04714 18.6198 3.0108C18.7667 2.97446 18.9211 2.98337 19.0628 3.03637C19.2045 3.08937 19.3268 3.18397 19.4137 3.30776C19.5007 3.43155 19.5482 3.57873 19.55 3.73V7.06C20.2698 7.19352 20.9324 7.54219 21.45 8.06C21.9268 8.54024 22.2652 9.14028 22.4294 9.79681C22.5937 10.4534 22.5777 11.142 22.3831 11.7902C22.1885 12.4384 21.8227 13.0221 21.324 13.4797C20.8254 13.9373 20.2125 14.2517 19.55 14.39V17.71C19.55 17.8615 19.5042 18.0095 19.4185 18.1344C19.3328 18.2594 19.2113 18.3555 19.07 18.41C18.9275 18.4636 18.7722 18.4732 18.6242 18.4376C18.4763 18.4019 18.3424 18.3226 18.24 18.21C17.24 17.01 15.07 16.1 12.55 15.69V19.95C12.5513 20.5412 12.343 21.1137 11.9623 21.5659C11.5815 22.0181 11.0527 22.3207 10.4699 22.42C10.3187 22.4511 10.1643 22.4645 10.01 22.46ZM7.36997 15.46L9.05997 20.31C9.14126 20.5295 9.29697 20.7135 9.49997 20.83C9.7067 20.9553 9.95182 21.0015 10.19 20.96C10.4218 20.9165 10.6307 20.7926 10.7799 20.61C10.9348 20.4289 11.0199 20.1983 11.0199 19.96V15.56C10.5599 15.56 10.0799 15.5 9.59995 15.5H7.76993C7.63577 15.4968 7.50209 15.4835 7.36997 15.46ZM12.5199 14.18C14.4676 14.4273 16.3415 15.0814 18.0199 16.1V5.37C16.3458 6.39775 14.4699 7.05261 12.5199 7.29V14.18ZM7.76993 13.97H9.59995C10.0799 13.97 10.5999 13.97 11.0199 14.02V7.46C10.5599 7.46 10.0799 7.51 9.59995 7.51H7.76993C7.02116 7.5152 6.29691 7.77722 5.71811 8.25227C5.13931 8.72732 4.74105 9.38662 4.58994 10.12C4.44041 10.8542 4.54996 11.6175 4.89993 12.28C5.24482 12.9421 5.81105 13.4623 6.49997 13.75C6.90242 13.9171 7.33417 14.0021 7.76993 14V13.97ZM19.5199 8.6V12.85C19.8357 12.7328 20.1223 12.5486 20.36 12.31C20.7813 11.8881 21.018 11.3162 21.018 10.72C21.018 10.1237 20.7813 9.55187 20.36 9.13C20.1214 8.90189 19.8342 8.73093 19.5199 8.63V8.6Z" fill="#3B3B3B"/>
</svg>
