<svg width="24" height="24" viewBox="0 0 24 24" fill="none" xmlns="http://www.w3.org/2000/svg">
<path fill-rule="evenodd" clip-rule="evenodd" d="M15.0833 6.75H20C20.4142 6.75 20.75 6.41421 20.75 6C20.75 5.58579 20.4142 5.25 20 5.25H14.8333C14.143 5.25 13.5833 5.80964 13.5833 6.5V11.75H9.16667C8.47631 11.75 7.91667 12.3096 7.91667 13V18.25H3C2.58579 18.25 2.25 18.5858 2.25 19C2.25 19.4142 2.58579 19.75 3 19.75H8.16667C8.85702 19.75 9.41667 19.1904 9.41667 18.5V13.25H13.8333C14.5237 13.25 15.0833 12.6904 15.0833 12V6.75Z" fill="#3B3B3B"/>
</svg>
