<svg width="25" height="25" viewBox="0 0 25 25" fill="none" xmlns="http://www.w3.org/2000/svg">
<path d="M17.2239 22.34C16.8632 22.3344 16.5134 22.2154 16.2239 22L12.2239 19.11C12.1811 19.0812 12.1306 19.0658 12.079 19.0658C12.0273 19.0658 11.9768 19.0812 11.934 19.11L7.93397 22C7.63537 22.2149 7.27667 22.3301 6.90882 22.3295C6.54097 22.3288 6.18266 22.2122 5.88483 21.9963C5.58701 21.7804 5.36481 21.4762 5.24976 21.1268C5.13471 20.7774 5.13268 20.4007 5.24396 20.05L6.80396 15.34C6.81414 15.3163 6.8194 15.2908 6.8194 15.265C6.8194 15.2392 6.81414 15.2137 6.80396 15.19C6.78613 15.1394 6.75502 15.0945 6.71394 15.06L2.71394 12.17C2.41921 11.9535 2.19974 11.6501 2.08631 11.3025C1.97288 10.9548 1.97121 10.5803 2.08155 10.2317C2.19189 9.88301 2.40869 9.57767 2.70148 9.35856C2.99428 9.13944 3.34831 9.01756 3.71394 9.01003H8.63398C8.67961 9.02395 8.7283 9.02395 8.77393 9.01003C8.79784 8.99664 8.81839 8.97797 8.83399 8.95544C8.84959 8.93292 8.85984 8.90713 8.86396 8.88004L10.384 4.21004C10.497 3.85666 10.72 3.54864 11.0204 3.33096C11.3208 3.11328 11.683 2.99734 12.054 3.00004C12.4236 2.9979 12.7843 3.11423 13.083 3.33199C13.3817 3.54974 13.6028 3.85746 13.7139 4.21004L15.234 8.89004C15.252 8.93774 15.2832 8.97934 15.324 9.01003C15.3728 9.02539 15.4251 9.02539 15.4739 9.01003H20.384C20.7528 9.01121 21.1116 9.12953 21.4088 9.34792C21.7059 9.5663 21.926 9.87346 22.0373 10.2251C22.1486 10.5766 22.1453 10.9545 22.0278 11.3041C21.9104 11.6537 21.6849 11.9569 21.384 12.17L17.384 15.06C17.3429 15.0945 17.3118 15.1394 17.294 15.19C17.284 15.2395 17.284 15.2905 17.294 15.34L18.814 20.02C18.932 20.3696 18.9345 20.748 18.8211 21.0991C18.7076 21.4502 18.4843 21.7556 18.184 21.97C17.9086 22.1873 17.5739 22.3163 17.2239 22.34ZM12.074 17.57C12.4338 17.5714 12.784 17.687 13.074 17.9L17.074 20.79C17.1165 20.8241 17.1694 20.8427 17.2239 20.8427C17.2785 20.8427 17.3314 20.8241 17.374 20.79C17.4166 20.7589 17.4483 20.715 17.4645 20.6647C17.4807 20.6144 17.4804 20.5602 17.4639 20.51L15.944 15.84C15.8243 15.4865 15.8243 15.1035 15.944 14.75C16.0551 14.3999 16.276 14.0948 16.574 13.88L20.574 10.99C20.6193 10.9612 20.6531 10.9174 20.6696 10.8663C20.686 10.8152 20.684 10.7599 20.6639 10.71C20.6485 10.6591 20.6165 10.6147 20.5731 10.584C20.5296 10.5532 20.4772 10.5377 20.424 10.54H15.514C15.1532 10.5344 14.8034 10.4154 14.514 10.2C14.1918 9.99629 13.943 9.69499 13.804 9.34003L12.2839 4.67004C12.2722 4.61894 12.2426 4.57373 12.2004 4.54256C12.1582 4.51139 12.1063 4.49631 12.054 4.50004C11.999 4.49636 11.9446 4.51249 11.9006 4.54552C11.8565 4.57855 11.8258 4.62627 11.814 4.68003L10.314 9.34003C10.1977 9.69026 9.97368 9.99477 9.67396 10.21C9.38485 10.4261 9.03482 10.5451 8.67396 10.55H3.75397C3.70078 10.5477 3.64831 10.5632 3.60487 10.594C3.56142 10.6247 3.52946 10.6691 3.51398 10.72C3.4958 10.7701 3.49476 10.8247 3.51105 10.8754C3.52735 10.9261 3.56001 10.97 3.60395 11L7.60395 13.89C7.90488 14.1084 8.12894 14.4165 8.24396 14.77C8.35387 15.1216 8.35387 15.4984 8.24396 15.85L6.72395 20.52C6.70389 20.5699 6.70189 20.6251 6.71833 20.6763C6.73477 20.7274 6.76863 20.7712 6.81397 20.8C6.85409 20.8352 6.90564 20.8546 6.95899 20.8546C7.01234 20.8546 7.06383 20.8352 7.10395 20.8L11.1039 17.91C11.3811 17.6892 11.7201 17.5599 12.074 17.54V17.57Z" fill="#3B3B3B"/>
</svg>
