<svg width="25" height="25" viewBox="0 0 25 25" fill="none" xmlns="http://www.w3.org/2000/svg">
<path fill-rule="evenodd" clip-rule="evenodd" d="M6.82022 5.7597C7.11311 6.05259 7.11311 6.52747 6.82021 6.82036C6.05412 7.58644 5.44642 8.49592 5.03181 9.49686C4.6172 10.4978 4.40381 11.5706 4.40381 12.654C4.40381 13.7374 4.6172 14.8102 5.03181 15.8112C5.44642 16.8121 6.05412 17.7216 6.82021 18.4877C7.11311 18.7806 7.11311 19.2555 6.82022 19.5484C6.52733 19.8412 6.05245 19.8412 5.75956 19.5484C4.85418 18.643 4.13599 17.5681 3.64599 16.3852C3.156 15.2023 2.90381 13.9344 2.90381 12.654C2.90381 11.3736 3.156 10.1058 3.64599 8.92283C4.13599 7.7399 4.85418 6.66506 5.75956 5.75969C6.05245 5.4668 6.52733 5.4668 6.82022 5.7597ZM18.4876 5.7597C18.7804 5.4668 19.2553 5.4668 19.5482 5.75969C20.4536 6.66506 21.1718 7.7399 21.6618 8.92283C22.1518 10.1058 22.404 11.3736 22.404 12.654C22.404 13.9344 22.1518 15.2023 21.6618 16.3852C21.1718 17.5681 20.4536 18.643 19.5482 19.5484C19.2553 19.8412 18.7804 19.8412 18.4876 19.5484C18.1947 19.2555 18.1947 18.7806 18.4876 18.4877C19.2537 17.7216 19.8614 16.8121 20.276 15.8112C20.6906 14.8102 20.904 13.7374 20.904 12.654C20.904 11.5706 20.6906 10.4978 20.276 9.49686C19.8614 8.49592 19.2537 7.58644 18.4876 6.82036C18.1947 6.52747 18.1947 6.05259 18.4876 5.7597ZM9.64814 8.58861C9.94107 8.88146 9.94115 9.35634 9.6483 9.64927C8.85154 10.4463 8.40395 11.5271 8.40395 12.654C8.40395 13.781 8.85154 14.8618 9.6483 15.6588C9.94115 15.9517 9.94107 16.4266 9.64814 16.7194C9.3552 17.0123 8.88033 17.0122 8.58748 16.7193C7.50952 15.641 6.90395 14.1787 6.90395 12.654C6.90395 11.1293 7.50952 9.66706 8.58748 8.58877C8.88033 8.29584 9.3552 8.29576 9.64814 8.58861ZM15.6596 8.58861C15.9526 8.29576 16.4274 8.29584 16.7203 8.58877C17.7983 9.66706 18.4038 11.1293 18.4038 12.654C18.4038 14.1787 17.7983 15.641 16.7203 16.7193C16.4274 17.0122 15.9526 17.0123 15.6596 16.7194C15.3667 16.4266 15.3666 15.9517 15.6595 15.6588C16.4562 14.8618 16.9038 13.781 16.9038 12.654C16.9038 11.5271 16.4562 10.4463 15.6595 9.64927C15.3666 9.35634 15.3667 8.88146 15.6596 8.58861ZM12.6539 12.404C12.5876 12.404 12.524 12.4304 12.4771 12.4772C12.4302 12.5241 12.4039 12.5877 12.4039 12.654C12.4039 12.7203 12.4302 12.7839 12.4771 12.8308C12.524 12.8777 12.5876 12.904 12.6539 12.904C12.7202 12.904 12.7838 12.8777 12.8307 12.8308C12.8775 12.7839 12.9039 12.7203 12.9039 12.654C12.9039 12.5877 12.8775 12.5241 12.8307 12.4772C12.7838 12.4304 12.7202 12.404 12.6539 12.404ZM11.4165 11.4166C11.7446 11.0884 12.1898 10.904 12.6539 10.904C13.118 10.904 13.5631 11.0884 13.8913 11.4166C14.2195 11.7448 14.4039 12.1899 14.4039 12.654C14.4039 13.1182 14.2195 13.5633 13.8913 13.8915C13.5631 14.2196 13.118 14.404 12.6539 14.404C12.1898 14.404 11.7446 14.2196 11.4165 13.8915C11.0883 13.5633 10.9039 13.1182 10.9039 12.654C10.9039 12.1899 11.0883 11.7448 11.4165 11.4166Z" fill="#3B3B3B"/>
</svg>
