<svg width="25" height="25" viewBox="0 0 25 25" fill="none" xmlns="http://www.w3.org/2000/svg">
<path fill-rule="evenodd" clip-rule="evenodd" d="M3.0145 3.12291C3.30739 2.83002 3.78227 2.83002 4.07516 3.12291L11.9514 10.9991C12.1403 10.9294 12.3401 10.8928 12.5419 10.891C12.7743 10.889 13.0047 10.9333 13.2198 11.0213C13.4349 11.1093 13.6302 11.2392 13.7946 11.4035C13.9589 11.5678 14.0888 11.7632 14.1768 11.9783C14.2648 12.1934 14.3091 12.4238 14.3071 12.6562C14.3053 12.858 14.2686 13.0578 14.1989 13.2467L16.0338 15.0815C16.2078 14.8314 16.355 14.5628 16.4721 14.2799C16.6858 13.7642 16.7958 13.2115 16.7958 12.6532C16.7958 12.095 16.6858 11.5423 16.4721 11.0266C16.2585 10.5109 15.9453 10.0423 15.5506 9.64764C15.2576 9.35478 15.2576 8.87991 15.5504 8.58698C15.8433 8.29405 16.3182 8.29398 16.6111 8.58684C17.1452 9.1208 17.5689 9.75474 17.8579 10.4525C18.147 11.1502 18.2958 11.898 18.2958 12.6532C18.2958 13.4085 18.147 14.1563 17.8579 14.854C17.6651 15.3195 17.4123 15.7566 17.1068 16.1546L18.8847 17.9324C19.4156 17.2948 19.8483 16.5796 20.1669 15.8104C20.5815 14.8095 20.7949 13.7367 20.7949 12.6532C20.7949 11.5698 20.5815 10.497 20.1669 9.49608C19.7523 8.49514 19.1446 7.58566 18.3785 6.81957C18.0856 6.52668 18.0856 6.05181 18.3785 5.75891C18.6714 5.46602 19.1463 5.46602 19.4392 5.75891C20.3445 6.66428 21.0627 7.73912 21.5527 8.92205C22.0427 10.105 22.2949 11.3728 22.2949 12.6532C22.2949 13.9336 22.0427 15.2015 21.5527 16.3844C21.1587 17.3358 20.617 18.2172 19.9491 18.9968L22.0752 21.1229C22.3681 21.4158 22.3681 21.8907 22.0752 22.1836C21.7823 22.4765 21.3074 22.4765 21.0145 22.1836L3.0145 4.18357C2.72161 3.89068 2.72161 3.4158 3.0145 3.12291ZM4.2532 9.06846C4.64575 9.20066 4.85681 9.62606 4.72461 10.0186C4.23413 11.475 4.1602 13.0395 4.51117 14.5357C4.86214 16.0319 5.62405 17.4004 6.71102 18.4868C7.00399 18.7796 7.00412 19.2545 6.7113 19.5474C6.41848 19.8404 5.94361 19.8405 5.65064 19.5477C4.36604 18.2638 3.4656 16.6465 3.05081 14.8783C2.63603 13.1101 2.72339 11.2611 3.30305 9.53987C3.43525 9.14732 3.86065 8.93626 4.2532 9.06846ZM7.49017 12.6166C7.90033 12.5588 8.27969 12.8444 8.33749 13.2546C8.4658 14.1651 8.88742 15.0089 9.53846 15.6582C9.83174 15.9507 9.83237 16.4256 9.53987 16.7189C9.24736 17.0121 8.77249 17.0128 8.47921 16.7203C7.5972 15.8406 7.026 14.6974 6.85217 13.4639C6.79437 13.0537 7.08001 12.6744 7.49017 12.6166Z" fill="#3B3B3B"/>
</svg>
