<svg width="16" height="16" viewBox="0 0 16 16" fill="none" xmlns="http://www.w3.org/2000/svg">
<path d="M14.5 6C14.5003 5.95351 14.4939 5.90722 14.4812 5.8625L13.5844 2.725C13.5241 2.51682 13.3981 2.33373 13.2252 2.20306C13.0523 2.07239 12.8417 2.00116 12.625 2H3.375C3.15827 2.00116 2.94773 2.07239 2.77482 2.20306C2.60191 2.33373 2.47591 2.51682 2.41563 2.725L1.51938 5.8625C1.50646 5.90719 1.49994 5.95348 1.5 6V7C1.5 7.38811 1.59036 7.7709 1.76393 8.11803C1.9375 8.46517 2.18951 8.76713 2.5 9V13.5C2.5 13.6326 2.55268 13.7598 2.64645 13.8536C2.74022 13.9473 2.86739 14 3 14H13C13.1326 14 13.2598 13.9473 13.3536 13.8536C13.4473 13.7598 13.5 13.6326 13.5 13.5V9C13.8105 8.76713 14.0625 8.46517 14.2361 8.11803C14.4096 7.7709 14.5 7.38811 14.5 7V6ZM3.375 3H12.625L13.3387 5.5H2.66313L3.375 3ZM6.5 6.5H9.5V7C9.5 7.39782 9.34197 7.77936 9.06066 8.06066C8.77936 8.34196 8.39783 8.5 8 8.5C7.60218 8.5 7.22064 8.34196 6.93934 8.06066C6.65804 7.77936 6.5 7.39782 6.5 7V6.5ZM5.5 6.5V7C5.49991 7.25794 5.43331 7.5115 5.30662 7.73619C5.17993 7.96087 4.99745 8.1491 4.77679 8.28267C4.55613 8.41625 4.30475 8.49067 4.04694 8.49874C3.78912 8.50681 3.53358 8.44826 3.305 8.32875C3.27022 8.30168 3.23196 8.27939 3.19125 8.2625C2.97942 8.12689 2.80509 7.94019 2.6843 7.71958C2.56351 7.49896 2.50013 7.25152 2.5 7V6.5H5.5ZM12.5 13H3.5V9.45C3.6646 9.48318 3.83209 9.49993 4 9.5C4.38811 9.5 4.7709 9.40964 5.11803 9.23607C5.46517 9.0625 5.76713 8.81049 6 8.5C6.23287 8.81049 6.53483 9.0625 6.88197 9.23607C7.2291 9.40964 7.61189 9.5 8 9.5C8.38811 9.5 8.7709 9.40964 9.11803 9.23607C9.46517 9.0625 9.76713 8.81049 10 8.5C10.2329 8.81049 10.5348 9.0625 10.882 9.23607C11.2291 9.40964 11.6119 9.5 12 9.5C12.1679 9.49993 12.3354 9.48318 12.5 9.45V13ZM12.8081 8.2625C12.7679 8.27943 12.7301 8.30149 12.6956 8.32812C12.4671 8.44776 12.2115 8.50643 11.9537 8.49846C11.6958 8.49049 11.4444 8.41616 11.2236 8.28263C11.0029 8.14911 10.8203 7.96092 10.6936 7.73624C10.5668 7.51155 10.5001 7.25798 10.5 7V6.5H13.5V7C13.4998 7.25158 13.4363 7.49906 13.3154 7.71968C13.1945 7.9403 13.0201 8.12696 12.8081 8.2625Z" fill="#3B3B3B"/>
</svg>
