<svg width="25" height="25" viewBox="0 0 25 25" fill="none" xmlns="http://www.w3.org/2000/svg">
<path fill-rule="evenodd" clip-rule="evenodd" d="M12.8719 2.90323C13.2862 2.90323 13.6219 3.23902 13.6219 3.65323V4.65323C13.6219 5.06744 13.2862 5.40323 12.8719 5.40323C12.4577 5.40323 12.1219 5.06744 12.1219 4.65323V3.65323C12.1219 3.23902 12.4577 2.90323 12.8719 2.90323ZM19.7663 5.7589C20.0592 6.05179 20.0592 6.52667 19.7663 6.81956L19.0593 7.52656C18.7664 7.81945 18.2915 7.81945 17.9986 7.52656C17.7057 7.23366 17.7057 6.75879 17.9986 6.4659L18.7056 5.7589C18.9985 5.46601 19.4734 5.46601 19.7663 5.7589ZM5.97762 5.7589C6.27051 5.46601 6.74538 5.46601 7.03828 5.7589L7.74528 6.4659C8.03817 6.75879 8.03817 7.23367 7.74528 7.52656C7.45238 7.81945 6.97751 7.81945 6.68462 7.52656L5.97762 6.81956C5.68472 6.52667 5.68472 6.05179 5.97762 5.7589ZM12.8719 9.40323C12.01 9.40323 11.1833 9.74564 10.5739 10.3551C9.96436 10.9646 9.62195 11.7913 9.62195 12.6532C9.62195 13.5152 9.96436 14.3418 10.5739 14.9513C11.1833 15.5608 12.01 15.9032 12.8719 15.9032C13.7339 15.9032 14.5606 15.5608 15.17 14.9513C15.7795 14.3418 16.1219 13.5152 16.1219 12.6532C16.1219 11.7913 15.7795 10.9646 15.17 10.3551C14.5606 9.74564 13.7339 9.40323 12.8719 9.40323ZM9.51319 9.29447C10.404 8.40367 11.6122 7.90323 12.8719 7.90323C14.1317 7.90323 15.3399 8.40367 16.2307 9.29447C17.1215 10.1853 17.6219 11.3934 17.6219 12.6532C17.6219 13.913 17.1215 15.1212 16.2307 16.012C15.3399 16.9028 14.1317 17.4032 12.8719 17.4032C11.6122 17.4032 10.404 16.9028 9.51319 16.012C8.62239 15.1212 8.12195 13.913 8.12195 12.6532C8.12195 11.3934 8.62239 10.1853 9.51319 9.29447ZM3.12195 12.6532C3.12195 12.239 3.45773 11.9032 3.87195 11.9032H4.87195C5.28616 11.9032 5.62195 12.239 5.62195 12.6532C5.62195 13.0674 5.28616 13.4032 4.87195 13.4032H3.87195C3.45773 13.4032 3.12195 13.0674 3.12195 12.6532ZM20.1219 12.6532C20.1219 12.239 20.4577 11.9032 20.8719 11.9032H21.8719C22.2862 11.9032 22.6219 12.239 22.6219 12.6532C22.6219 13.0674 22.2862 13.4032 21.8719 13.4032H20.8719C20.4577 13.4032 20.1219 13.0674 20.1219 12.6532ZM7.74528 17.7799C8.03817 18.0728 8.03817 18.5477 7.74528 18.8406L7.03828 19.5476C6.74539 19.8405 6.27051 19.8405 5.97762 19.5476C5.68472 19.2547 5.68472 18.7798 5.97762 18.4869L6.68462 17.7799C6.97751 17.487 7.45238 17.487 7.74528 17.7799ZM17.9986 17.7799C18.2915 17.487 18.7664 17.487 19.0593 17.7799L19.7663 18.4869C20.0592 18.7798 20.0592 19.2547 19.7663 19.5476C19.4734 19.8405 18.9985 19.8405 18.7056 19.5476L17.9986 18.8406C17.7057 18.5477 17.7057 18.0728 17.9986 17.7799ZM12.8719 19.9032C13.2862 19.9032 13.6219 20.239 13.6219 20.6532V21.6532C13.6219 22.0674 13.2862 22.4032 12.8719 22.4032C12.4577 22.4032 12.1219 22.0674 12.1219 21.6532V20.6532C12.1219 20.239 12.4577 19.9032 12.8719 19.9032Z" fill="#3B3B3B"/>
</svg>
