<svg width="24" height="24" viewBox="0 0 24 24" fill="none" xmlns="http://www.w3.org/2000/svg">
<path fill-rule="evenodd" clip-rule="evenodd" d="M6.72098 5.66104L9.21426 8.15431C10.0193 7.57103 10.993 7.2509 12.0002 7.2509C13.0074 7.2509 13.981 7.57103 14.7861 8.15431L17.2794 5.66104C15.8033 4.4318 13.9368 3.7509 12.0002 3.7509C10.0636 3.7509 8.19711 4.4318 6.72098 5.66104ZM18.34 6.7217L15.8468 9.21497C16.4301 10.02 16.7502 10.9937 16.7502 12.0009C16.7502 13.0081 16.4301 13.9818 15.8468 14.7868L18.34 17.2801C18.8709 16.6425 19.3036 15.9273 19.6222 15.158C20.0368 14.1571 20.2502 13.0843 20.2502 12.0009C20.2502 10.0643 19.5693 8.19783 18.34 6.7217ZM17.2794 18.3407L14.7861 15.8475C13.981 16.4308 13.0074 16.7509 12.0002 16.7509C10.993 16.7509 10.0193 16.4308 9.21426 15.8475L6.721 18.3407C7.35861 18.8717 8.07382 19.3043 8.84304 19.6229C9.84398 20.0375 10.9168 20.2509 12.0002 20.2509C13.0836 20.2509 14.1564 20.0375 15.1573 19.6229C15.9265 19.3043 16.6418 18.8717 17.2794 18.3407ZM5.66034 17.2801L8.1536 14.7868C7.57031 13.9818 7.25018 13.0081 7.25018 12.0009C7.25018 10.9937 7.57031 10.02 8.1536 9.21497L5.66032 6.7217C4.43108 8.19783 3.75018 10.0643 3.75018 12.0009C3.75018 13.0843 3.96358 14.1571 4.37818 15.158C4.6968 15.9273 5.12943 16.6425 5.66034 17.2801ZM5.10585 5.10657C6.93434 3.27808 9.41433 2.2509 12.0002 2.2509C14.586 2.2509 17.066 3.27808 18.8945 5.10657C20.723 6.93506 21.7502 9.41505 21.7502 12.0009C21.7502 13.2813 21.498 14.5491 21.008 15.7321C20.518 16.915 19.7999 17.9898 18.8945 18.8952C17.9891 19.8006 16.9142 20.5187 15.7313 21.0087C14.5484 21.4987 13.2806 21.7509 12.0002 21.7509C10.7198 21.7509 9.45194 21.4987 8.26902 21.0087C7.08612 20.5187 6.01124 19.8006 5.10585 18.8952C4.20047 17.9898 3.48233 16.915 2.99236 15.7321C2.50237 14.5491 2.25018 13.2813 2.25018 12.0009C2.25018 9.41505 3.27737 6.93506 5.10585 5.10657ZM12.0002 8.7509C11.1385 8.7509 10.3122 9.09353 9.70251 9.70323C9.09281 10.3129 8.75018 11.1392 8.75018 12.0009C8.75018 12.8626 9.09281 13.6889 9.70251 14.2986C10.3122 14.9083 11.1385 15.2509 12.0002 15.2509C12.8618 15.2509 13.6882 14.9083 14.2979 14.2986C14.9075 13.6889 15.2502 12.8626 15.2502 12.0009C15.2502 11.1392 14.9075 10.3129 14.2979 9.70323C13.6882 9.09353 12.8618 8.7509 12.0002 8.7509Z" fill="#3B3B3B"/>
</svg>
