<svg width="24" height="24" viewBox="0 0 24 24" fill="none" xmlns="http://www.w3.org/2000/svg">
<path d="M17.8398 6.87891C17.8398 6.46469 17.5041 6.12891 17.0898 6.12891H13.4827C13.0685 6.12891 12.7327 6.46469 12.7327 6.87891C12.7327 7.29312 13.0685 7.62891 13.4827 7.62891H16.3398V10.4861C16.3398 10.9003 16.6756 11.2361 17.0898 11.2361C17.5041 11.2361 17.8398 10.9003 17.8398 10.4861V6.87891Z" fill="#363B4C"/>
<path d="M6.23438 17.2031C6.23438 17.6173 6.57016 17.9531 6.98438 17.9531H10.5916C11.0058 17.9531 11.3416 17.6173 11.3416 17.2031C11.3416 16.7889 11.0058 16.4531 10.5916 16.4531H7.73438V13.5959C7.73438 13.1817 7.39859 12.8459 6.98438 12.8459C6.57016 12.8459 6.23438 13.1817 6.23438 13.5959V17.2031Z" fill="#363B4C"/>
<path fill-rule="evenodd" clip-rule="evenodd" d="M2.27344 5.27344C2.27344 3.61658 3.61658 2.27344 5.27344 2.27344H18.7305C20.3873 2.27344 21.7305 3.61658 21.7305 5.27344V18.7305C21.7305 20.3873 20.3873 21.7305 18.7305 21.7305H5.27344C3.61658 21.7305 2.27344 20.3873 2.27344 18.7305V5.27344ZM5.27344 3.77344H18.7305C19.5589 3.77344 20.2305 4.44501 20.2305 5.27344V18.7305C20.2305 19.5589 19.5589 20.2305 18.7305 20.2305H5.27344C4.44501 20.2305 3.77344 19.5589 3.77344 18.7305V5.27344C3.77344 4.44501 4.44501 3.77344 5.27344 3.77344Z" fill="#363B4C"/>
</svg>
