<svg width="24" height="24" viewBox="0 0 24 24" fill="none" xmlns="http://www.w3.org/2000/svg">
<path fill-rule="evenodd" clip-rule="evenodd" d="M2.25 5C2.25 3.48122 3.48122 2.25 5 2.25H19C20.5188 2.25 21.75 3.48122 21.75 5V19C21.75 20.5188 20.5188 21.75 19 21.75H5C3.48122 21.75 2.25 20.5188 2.25 19V5ZM5 3.75C4.30964 3.75 3.75 4.30964 3.75 5V19C3.75 19.6904 4.30964 20.25 5 20.25H19C19.6904 20.25 20.25 19.6904 20.25 19V5C20.25 4.30964 19.6904 3.75 19 3.75H5ZM12 6.25C12.4142 6.25 12.75 6.58579 12.75 7V7.55556C12.75 7.96977 12.4142 8.30556 12 8.30556C11.5858 8.30556 11.25 7.96977 11.25 7.55556V7C11.25 6.58579 11.5858 6.25 12 6.25ZM7.93415 7.93415C8.22704 7.64125 8.70191 7.64125 8.99481 7.93415L9.38759 8.32692C9.68048 8.61982 9.68048 9.09469 9.38759 9.38759C9.09469 9.68048 8.61982 9.68048 8.32692 9.38759L7.93415 8.99481C7.64125 8.70191 7.64125 8.22704 7.93415 7.93415ZM16.0659 7.93415C16.3588 8.22704 16.3588 8.70192 16.0659 8.99481L15.6732 9.38759C15.3803 9.68048 14.9054 9.68048 14.6125 9.38758C14.3196 9.09469 14.3196 8.61982 14.6125 8.32692L15.0053 7.93415C15.2982 7.64125 15.773 7.64125 16.0659 7.93415ZM6.25 12C6.25 11.5858 6.58579 11.25 7 11.25H7.55556C7.96977 11.25 8.30556 11.5858 8.30556 12C8.30556 12.4142 7.96977 12.75 7.55556 12.75H7C6.58579 12.75 6.25 12.4142 6.25 12ZM15.6945 12C15.6945 11.5858 16.0302 11.25 16.4445 11.25H17C17.4142 11.25 17.75 11.5858 17.75 12C17.75 12.4142 17.4142 12.75 17 12.75H16.4445C16.0302 12.75 15.6945 12.4142 15.6945 12ZM9.38758 14.6125C9.68048 14.9054 9.68048 15.3803 9.38759 15.6732L8.99481 16.0659C8.70192 16.3588 8.22704 16.3588 7.93415 16.0659C7.64125 15.773 7.64125 15.2982 7.93415 15.0053L8.32692 14.6125C8.61982 14.3196 9.09469 14.3196 9.38758 14.6125ZM14.6125 14.6125C14.9054 14.3196 15.3803 14.3196 15.6732 14.6125L16.0659 15.0053C16.3588 15.2982 16.3588 15.773 16.0659 16.0659C15.773 16.3588 15.2982 16.3588 15.0053 16.0659L14.6125 15.6732C14.3196 15.3803 14.3196 14.9054 14.6125 14.6125ZM12 15.6945C12.4142 15.6945 12.75 16.0302 12.75 16.4445V17C12.75 17.4142 12.4142 17.75 12 17.75C11.5858 17.75 11.25 17.4142 11.25 17V16.4445C11.25 16.0302 11.5858 15.6945 12 15.6945Z" fill="#3B3B3B"/>
</svg>
