<svg width="24" height="25" viewBox="0 0 24 25" fill="none" xmlns="http://www.w3.org/2000/svg">
<path d="M7.75006 22.4993C7.65152 22.4998 7.5539 22.4806 7.46289 22.4428C7.37188 22.405 7.28934 22.3494 7.22009 22.2793L3.22009 18.2793C3.1523 18.21 3.09801 18.1286 3.06006 18.0393C3.02043 17.9478 3 17.8491 3 17.7493C3 17.6496 3.02043 17.5509 3.06006 17.4593C3.10029 17.3713 3.15434 17.2903 3.22009 17.2193L7.22009 13.2193C7.36072 13.0789 7.55131 13 7.75006 13C7.94881 13 8.13946 13.0789 8.28009 13.2193C8.35085 13.2883 8.4071 13.3707 8.4455 13.4617C8.48389 13.5527 8.50366 13.6505 8.50366 13.7493C8.50366 13.8481 8.48389 13.9459 8.4455 14.0369C8.4071 14.128 8.35085 14.2104 8.28009 14.2793L5.56006 16.9993H15.7501C15.949 16.9993 16.1397 17.0783 16.2804 17.219C16.421 17.3597 16.5001 17.5504 16.5001 17.7493C16.5001 17.9482 16.421 18.139 16.2804 18.2797C16.1397 18.4203 15.949 18.4993 15.7501 18.4993H5.56006L8.28009 21.2193C8.3502 21.2886 8.40576 21.3711 8.44354 21.4621C8.48132 21.5531 8.50053 21.6508 8.50006 21.7493C8.50006 21.9482 8.42105 22.139 8.2804 22.2797C8.13974 22.4203 7.94897 22.4993 7.75006 22.4993ZM15.7501 12.4993C15.6515 12.4998 15.5539 12.4806 15.4629 12.4428C15.3719 12.405 15.2893 12.3494 15.2201 12.2793C15.0812 12.1376 15.0024 11.9478 15.0001 11.7493C15.0044 11.5513 15.0829 11.3622 15.2201 11.2193L17.9401 8.49934H7.75006C7.55115 8.49934 7.36038 8.42032 7.21973 8.27966C7.07907 8.13901 7.00006 7.94825 7.00006 7.74934C7.00006 7.55042 7.07907 7.35966 7.21973 7.21901C7.36038 7.07836 7.55115 6.99934 7.75006 6.99934H17.9401L15.2201 4.27934C15.0812 4.13761 15.0024 3.94775 15.0001 3.74934C15.0044 3.55134 15.0829 3.36218 15.2201 3.21934C15.3607 3.07889 15.5513 3 15.7501 3C15.9488 3 16.1395 3.07889 16.2801 3.21934L20.2801 7.21934C20.3863 7.324 20.4583 7.45828 20.4869 7.6046C20.5154 7.75092 20.4991 7.90245 20.4401 8.03934C20.406 8.13063 20.3513 8.21279 20.2801 8.27934L16.2801 12.2793C16.2112 12.3499 16.1287 12.4058 16.0376 12.4436C15.9465 12.4814 15.8487 12.5004 15.7501 12.4993Z" fill="#3B3B3B"/>
</svg>
