<svg width="25" height="25" viewBox="0 0 25 25" fill="none" xmlns="http://www.w3.org/2000/svg">
<path d="M16.75 21.4523C16.5516 21.45 16.3618 21.3712 16.22 21.2323L12.22 17.2323C12.0876 17.0901 12.0154 16.9021 12.0189 16.7078C12.0223 16.5135 12.101 16.3281 12.2384 16.1907C12.3758 16.0533 12.5612 15.9746 12.7555 15.9711C12.9498 15.9677 13.1379 16.0398 13.28 16.1723L16 18.8923V8.74231C16 8.54339 16.079 8.35262 16.2197 8.21197C16.3603 8.07132 16.5511 7.99231 16.75 7.99231C16.9489 7.99231 17.1397 8.07132 17.2803 8.21197C17.421 8.35262 17.5 8.54339 17.5 8.74231V18.9323L20.22 16.2123C20.3607 16.0718 20.5512 15.993 20.75 15.993C20.9488 15.993 21.1394 16.0718 21.28 16.2123C21.3501 16.2815 21.4057 16.3641 21.4435 16.4551C21.4813 16.5461 21.5005 16.6438 21.5 16.7423C21.501 16.8409 21.4821 16.9387 21.4443 17.0298C21.4065 17.1209 21.3506 17.2034 21.28 17.2723L17.28 21.2723C17.2135 21.3435 17.1313 21.3982 17.04 21.4323C16.9457 21.4586 16.847 21.4654 16.75 21.4523ZM6.75 17.4523C6.55109 17.4523 6.36032 17.3733 6.21967 17.2326C6.07901 17.092 6 16.9012 6 16.7023V6.5523L3.28003 9.2723C3.21108 9.34306 3.12868 9.3993 3.03766 9.43769C2.94663 9.47609 2.84879 9.49588 2.75 9.49588C2.65121 9.49588 2.55343 9.47609 2.4624 9.43769C2.37138 9.3993 2.28898 9.34306 2.22003 9.2723C2.08115 9.13058 2.0023 8.94072 2 8.74231C2.00431 8.54431 2.08286 8.35515 2.22003 8.21231L6.22003 4.21231C6.29102 4.14655 6.37202 4.09254 6.46002 4.0523C6.64706 3.98256 6.853 3.98256 7.04004 4.0523C7.12929 4.09025 7.21067 4.14452 7.28003 4.21231L11.28 8.21231C11.3501 8.28155 11.4057 8.3641 11.4435 8.45511C11.4813 8.54612 11.5005 8.64377 11.5 8.74231C11.501 8.84093 11.4821 8.93874 11.4443 9.02983C11.4065 9.12092 11.3506 9.20341 11.28 9.2723C11.2111 9.34306 11.1287 9.3993 11.0377 9.43769C10.9466 9.47609 10.8488 9.49588 10.75 9.49588C10.6512 9.49588 10.5534 9.47609 10.4624 9.43769C10.3714 9.3993 10.289 9.34306 10.22 9.2723L7.5 6.5523V16.7423C7.4922 16.9351 7.40944 17.1172 7.26935 17.2498C7.12925 17.3824 6.94289 17.4551 6.75 17.4523Z" fill="#3B3B3B"/>
</svg>
