<svg width="25" height="25" viewBox="0 0 25 25" fill="none" xmlns="http://www.w3.org/2000/svg">
<path fill-rule="evenodd" clip-rule="evenodd" d="M3.27317 6.8174C3.78889 6.30168 4.48837 6.01195 5.21771 6.01195H19.2177C19.9471 6.01195 20.6465 6.30168 21.1623 6.8174C21.678 7.33313 21.9677 8.0326 21.9677 8.76195V16.7619C21.9677 17.4913 21.678 18.1908 21.1623 18.7065C20.6465 19.2222 19.9471 19.5119 19.2177 19.5119H5.21771C4.48837 19.5119 3.78889 19.2222 3.27317 18.7065C2.75744 18.1908 2.46771 17.4913 2.46771 16.7619V8.76195C2.46771 8.0326 2.75744 7.33313 3.27317 6.8174ZM3.96771 11.5119V14.0119H11.4677V11.5119H3.96771ZM3.96771 10.0119V8.76195C3.96771 8.43043 4.09941 8.11248 4.33383 7.87806C4.56825 7.64364 4.88619 7.51195 5.21771 7.51195H19.2177C19.5492 7.51195 19.8672 7.64364 20.1016 7.87806C20.336 8.11248 20.4677 8.43043 20.4677 8.76195V10.0119H3.96771ZM12.9677 11.5119V14.0119H20.4677V11.5119H12.9677ZM20.4677 15.5119H12.9677V18.0119H19.2177C19.5492 18.0119 19.8672 17.8803 20.1016 17.6458C20.336 17.4114 20.4677 17.0935 20.4677 16.7619V15.5119ZM11.4677 18.0119V15.5119H3.96771V16.7619C3.96771 17.0935 4.09941 17.4114 4.33383 17.6458C4.56825 17.8803 4.88619 18.0119 5.21771 18.0119H11.4677Z" fill="#3B3B3B"/>
</svg>
