<svg width="25" height="25" viewBox="0 0 25 25" fill="none" xmlns="http://www.w3.org/2000/svg">
<path d="M12.7699 22.46C12.4097 22.4618 12.0527 22.3919 11.7197 22.2546C11.3867 22.1173 11.0842 21.9152 10.8299 21.66L3.82993 14.66C3.57191 14.403 3.36793 14.097 3.22996 13.76C3.0895 13.4279 3.01804 13.0706 3.01993 12.71V7.71C3.02258 6.45103 3.52387 5.24439 4.4141 4.35416C5.30433 3.46394 6.51097 2.96264 7.76993 2.96H12.7699C13.1324 2.95932 13.4914 3.03057 13.8261 3.16961C14.1609 3.30865 14.4646 3.51272 14.7199 3.76999L21.7199 10.77C22.2335 11.287 22.5218 11.9862 22.5218 12.715C22.5218 13.4438 22.2335 14.1429 21.7199 14.66L14.7199 21.66C14.4641 21.9159 14.1601 22.1184 13.8253 22.2558C13.4905 22.3931 13.1318 22.4625 12.7699 22.46ZM7.76993 4.46C6.90879 4.46263 6.08369 4.80589 5.47477 5.41481C4.86585 6.02374 4.52257 6.84885 4.51993 7.71V12.71C4.52227 12.8749 4.55626 13.0379 4.61997 13.19C4.68126 13.3435 4.77308 13.483 4.88993 13.6L11.8899 20.6C12.1293 20.8257 12.4459 20.9515 12.7749 20.9515C13.104 20.9515 13.4206 20.8257 13.6599 20.6L20.6599 13.6C20.89 13.3607 21.0189 13.0419 21.0199 12.71C21.0205 12.3807 20.8912 12.0645 20.6599 11.83L13.6599 4.83C13.5438 4.71204 13.4052 4.61853 13.2524 4.55498C13.0995 4.49144 12.9355 4.45914 12.7699 4.46H7.76993ZM7.76993 8.46C7.57102 8.46 7.38025 8.38098 7.2396 8.24032C7.09895 8.09967 7.01993 7.90891 7.01993 7.71C7.01993 7.51108 7.09895 7.32032 7.2396 7.17967C7.38025 7.03902 7.57102 6.96 7.76993 6.96C7.96885 6.96 8.15962 7.03902 8.30027 7.17967C8.44092 7.32032 8.51993 7.51108 8.51993 7.71C8.51993 7.90891 8.44092 8.09967 8.30027 8.24032C8.15962 8.38098 7.96885 8.46 7.76993 8.46Z" fill="#3B3B3B"/>
</svg>
