<svg width="25" height="25" viewBox="0 0 25 25" fill="none" xmlns="http://www.w3.org/2000/svg">
<path fill-rule="evenodd" clip-rule="evenodd" d="M5.43579 5.5119C5.36949 5.5119 5.3059 5.53824 5.25901 5.58513C5.21213 5.63201 5.18579 5.6956 5.18579 5.7619V7.7619C5.18579 7.82821 5.21213 7.89179 5.25901 7.93868C5.3059 7.98556 5.36949 8.0119 5.43579 8.0119H19.4358C19.5021 8.0119 19.5657 7.98556 19.6126 7.93868C19.6595 7.89179 19.6858 7.82821 19.6858 7.7619V5.7619C19.6858 5.6956 19.6595 5.63201 19.6126 5.58513C19.5657 5.53824 19.5021 5.5119 19.4358 5.5119H5.43579ZM4.19835 4.52447C4.52654 4.19628 4.97166 4.0119 5.43579 4.0119H19.4358C19.8999 4.0119 20.345 4.19628 20.6732 4.52447C21.0014 4.85265 21.1858 5.29777 21.1858 5.7619V7.7619C21.1858 8.22603 21.0014 8.67115 20.6732 8.99934C20.345 9.32753 19.8999 9.5119 19.4358 9.5119H5.43579C4.97166 9.5119 4.52654 9.32753 4.19835 8.99934C3.87017 8.67115 3.68579 8.22603 3.68579 7.7619V5.7619C3.68579 5.29777 3.87017 4.85265 4.19835 4.52447ZM5.43579 13.5119C5.36949 13.5119 5.3059 13.5382 5.25901 13.5851C5.21213 13.632 5.18579 13.6956 5.18579 13.7619V19.7619C5.18579 19.8282 5.21213 19.8918 5.25901 19.9387C5.3059 19.9856 5.36949 20.0119 5.43579 20.0119H11.4358C11.5021 20.0119 11.5657 19.9856 11.6126 19.9387C11.6595 19.8918 11.6858 19.8282 11.6858 19.7619V13.7619C11.6858 13.6956 11.6595 13.632 11.6126 13.5851C11.5657 13.5382 11.5021 13.5119 11.4358 13.5119H5.43579ZM4.19835 12.5245C4.52654 12.1963 4.97166 12.0119 5.43579 12.0119H11.4358C11.8999 12.0119 12.345 12.1963 12.6732 12.5245C13.0014 12.8527 13.1858 13.2978 13.1858 13.7619V19.7619C13.1858 20.226 13.0014 20.6712 12.6732 20.9993C12.345 21.3275 11.8999 21.5119 11.4358 21.5119H5.43579C4.97166 21.5119 4.52654 21.3275 4.19835 20.9993C3.87017 20.6712 3.68579 20.226 3.68579 19.7619V13.7619C3.68579 13.2978 3.87017 12.8527 4.19835 12.5245ZM17.4358 13.5119C17.3695 13.5119 17.3059 13.5382 17.259 13.5851C17.2121 13.632 17.1858 13.6956 17.1858 13.7619V19.7619C17.1858 19.8282 17.2121 19.8918 17.259 19.9387C17.3059 19.9856 17.3695 20.0119 17.4358 20.0119H19.4358C19.5021 20.0119 19.5657 19.9856 19.6126 19.9387C19.6595 19.8918 19.6858 19.8282 19.6858 19.7619V13.7619C19.6858 13.6956 19.6595 13.632 19.6126 13.5851C19.5657 13.5382 19.5021 13.5119 19.4358 13.5119H17.4358ZM16.1984 12.5245C16.5265 12.1963 16.9717 12.0119 17.4358 12.0119H19.4358C19.8999 12.0119 20.345 12.1963 20.6732 12.5245C21.0014 12.8527 21.1858 13.2978 21.1858 13.7619V19.7619C21.1858 20.226 21.0014 20.6711 20.6732 20.9993C20.345 21.3275 19.8999 21.5119 19.4358 21.5119H17.4358C16.9717 21.5119 16.5265 21.3275 16.1984 20.9993C15.8702 20.6711 15.6858 20.226 15.6858 19.7619V13.7619C15.6858 13.2978 15.8702 12.8527 16.1984 12.5245Z" fill="#3B3B3B"/>
</svg>
