<svg width="25" height="25" viewBox="0 0 25 25" fill="none" xmlns="http://www.w3.org/2000/svg">
<path fill-rule="evenodd" clip-rule="evenodd" d="M3.60032 4.81736C4.11604 4.30163 4.81552 4.0119 5.54486 4.0119H19.5449C20.2742 4.0119 20.9737 4.30163 21.4894 4.81736C22.0051 5.33308 22.2949 6.03256 22.2949 6.7619V18.7619C22.2949 19.4912 22.0051 20.1907 21.4894 20.7064C20.9737 21.2222 20.2742 21.5119 19.5449 21.5119H5.54486C4.81552 21.5119 4.11604 21.2222 3.60032 20.7064C3.08459 20.1907 2.79486 19.4912 2.79486 18.7619V6.7619C2.79486 6.03256 3.08459 5.33308 3.60032 4.81736ZM5.54486 5.5119C5.21334 5.5119 4.8954 5.6436 4.66098 5.87802C4.42656 6.11244 4.29486 6.43038 4.29486 6.7619V18.7619C4.29486 19.0934 4.42656 19.4114 4.66098 19.6458C4.8954 19.8802 5.21334 20.0119 5.54486 20.0119H19.5449C19.8764 20.0119 20.1943 19.8802 20.4287 19.6458C20.6632 19.4114 20.7949 19.0934 20.7949 18.7619V6.7619C20.7949 6.43038 20.6632 6.11244 20.4287 5.87802C20.1943 5.6436 19.8764 5.5119 19.5449 5.5119H5.54486ZM8.01453 9.23157C8.30742 8.93868 8.7823 8.93868 9.07519 9.23157L12.0752 12.2316C12.3681 12.5245 12.3681 12.9993 12.0752 13.2922L9.07519 16.2922C8.7823 16.5851 8.30742 16.5851 8.01453 16.2922C7.72164 15.9993 7.72164 15.5245 8.01453 15.2316L10.4842 12.7619L8.01453 10.2922C7.72164 9.99934 7.72164 9.52446 8.01453 9.23157ZM13.5449 16.5119C13.1306 16.5119 12.7949 16.1761 12.7949 15.7619C12.7949 15.3477 13.1306 15.0119 13.5449 15.0119H16.5449C16.9591 15.0119 17.2949 15.3477 17.2949 15.7619C17.2949 16.1761 16.9591 16.5119 16.5449 16.5119H13.5449Z" fill="#3B3B3B"/>
</svg>
