<svg width="25" height="25" viewBox="0 0 25 25" fill="none" xmlns="http://www.w3.org/2000/svg">
<path fill-rule="evenodd" clip-rule="evenodd" d="M11.0127 4.66631C11.0127 3.7521 11.7535 3.01131 12.6677 3.01131H12.7627C13.492 3.01131 14.1915 3.30105 14.7072 3.81677C15.223 4.3325 15.5127 5.03197 15.5127 5.76131V10.0113H19.5267C19.9954 10.0113 20.4563 10.1311 20.8657 10.3594C21.2751 10.5876 21.6193 10.9166 21.8658 11.3153C22.1122 11.714 22.2527 12.169 22.2738 12.6372C22.295 13.1055 22.1961 13.5713 21.9866 13.9906L18.4866 20.9906C18.4866 20.9906 18.4866 20.9905 18.4866 20.9906C18.2582 21.4476 17.9068 21.8322 17.4721 22.1008C17.0375 22.3693 16.5366 22.5115 16.0257 22.5113C16.0256 22.5113 16.0258 22.5113 16.0257 22.5113H12.0087C11.7844 22.5113 11.56 22.4838 11.3408 22.4287C11.3407 22.4287 11.3408 22.4287 11.3408 22.4287L7.67039 21.5113H5.7627C5.03335 21.5113 4.33388 21.2216 3.81815 20.7059C3.30243 20.1901 3.0127 19.4907 3.0127 18.7613V12.7613C3.0127 12.032 3.30243 11.3325 3.81815 10.8168C4.33388 10.301 5.03335 10.0113 5.7627 10.0113H8.0278L10.5306 6.25635C10.8449 5.78612 11.0127 5.23245 11.0127 4.66631ZM7.05559 11.5113H5.7627C5.43117 11.5113 5.11323 11.643 4.87881 11.8774C4.64439 12.1119 4.5127 12.4298 4.5127 12.7613V18.7613C4.5127 19.0928 4.64439 19.4108 4.87881 19.6452C5.11323 19.8796 5.43117 20.0113 5.7627 20.0113H7.0127V11.7613C7.0127 11.6757 7.02735 11.5912 7.05559 11.5113ZM8.5127 20.1757L11.7067 20.974C11.8055 20.9988 11.907 21.0113 12.0087 21.0113H16.0257C16.258 21.0114 16.4861 20.9468 16.6837 20.8247C16.8813 20.7026 17.041 20.5279 17.1448 20.3201L20.6448 13.3201C20.6448 13.3201 20.6448 13.32 20.6448 13.3201C20.74 13.1295 20.785 12.9177 20.7754 12.7049C20.7657 12.4921 20.7019 12.2853 20.5899 12.104C20.4779 11.9228 20.3214 11.7733 20.1353 11.6695C19.9492 11.5658 19.7397 11.5113 19.5267 11.5113C19.5267 11.5113 19.5267 11.5113 19.5267 11.5113H12.7627C12.3485 11.5113 12.0127 11.1755 12.0127 10.7613C12.0127 10.3471 12.3485 10.0113 12.7627 10.0113H14.0127V5.76131C14.0127 5.42979 13.881 5.11185 13.6466 4.87743C13.4122 4.64301 13.0942 4.51131 12.7627 4.51131H12.6677C12.5819 4.51131 12.5127 4.58053 12.5127 4.66631C12.5127 5.52786 12.2582 6.37068 11.7788 7.08828M11.7788 7.08828L8.5127 11.9884V20.1757" fill="#3B3B3B"/>
</svg>
