<svg width="25" height="25" viewBox="0 0 25 25" fill="none" xmlns="http://www.w3.org/2000/svg">
<path fill-rule="evenodd" clip-rule="evenodd" d="M9.3897 4.51131C9.15753 4.51133 8.92994 4.576 8.73246 4.69809C8.53497 4.82018 8.37539 4.99487 8.2716 5.20256L4.7716 12.2026C4.77158 12.2026 4.77163 12.2025 4.7716 12.2026C4.67643 12.3931 4.63143 12.6049 4.64104 12.8177C4.65066 13.0305 4.7145 13.2374 4.82652 13.4186C4.93855 13.5998 5.09502 13.7494 5.2811 13.8531C5.46717 13.9568 5.67667 14.0113 5.8897 14.0113C5.88969 14.0113 5.88971 14.0113 5.8897 14.0113H10.6527M9.3897 4.51131H13.4074C13.5096 4.51139 13.6113 4.52398 13.7104 4.54881L16.9028 5.34691L16.9037 13.5343L13.6378 18.433C13.1584 19.1516 12.9037 19.9945 12.9037 20.8573C12.9037 20.9416 12.835 21.0113 12.7487 21.0113H12.6527C12.3212 21.0113 12.0032 20.8796 11.7688 20.6452C11.5344 20.4108 11.4027 20.0928 11.4027 19.7613V15.5113H12.6537C13.0679 15.5113 13.4037 15.1755 13.4037 14.7613C13.4037 14.3471 13.0679 14.0113 12.6537 14.0113H10.6537M9.9027 15.5113H5.8897C5.42101 15.5113 4.96007 15.3915 4.5507 15.1633C4.14133 14.935 3.79708 14.606 3.55063 14.2073C3.30418 13.8086 3.16372 13.3536 3.14257 12.8854C3.12142 12.4172 3.2203 11.9513 3.4298 11.5321L6.9298 4.53206C6.92978 4.53212 6.92983 4.53201 6.9298 4.53206C7.15813 4.0752 7.50926 3.69079 7.94369 3.42222C8.37817 3.15362 8.87887 3.01133 9.38968 3.01131H13.4077C13.6324 3.01145 13.8567 3.03912 14.0746 3.09371L17.745 4.01131H19.6537C20.383 4.01131 21.0825 4.30105 21.5982 4.81677C22.114 5.3325 22.4037 6.03197 22.4037 6.76131V12.7613C22.4037 13.4907 22.114 14.1901 21.5982 14.7059C21.0825 15.2216 20.383 15.5113 19.6537 15.5113H17.3884L14.8857 19.2653C14.5711 19.7368 14.4037 20.2902 14.4037 20.8573C14.4037 21.7711 13.6624 22.5113 12.7487 22.5113H12.6527C11.9234 22.5113 11.2239 22.2216 10.7082 21.7059C10.1924 21.1901 9.9027 20.4907 9.9027 19.7613V15.5113ZM18.3608 14.0113H19.6537C19.9852 14.0113 20.3032 13.8796 20.5376 13.6452C20.772 13.4108 20.9037 13.0928 20.9037 12.7613V6.76131C20.9037 6.42979 20.772 6.11185 20.5376 5.87743C20.3032 5.64301 19.9852 5.51131 19.6537 5.51131H18.4028L18.4037 13.7612C18.4037 13.8469 18.3891 13.9314 18.3608 14.0113ZM9.3897 4.51131C9.38969 4.51131 9.38971 4.51131 9.3897 4.51131V4.51131Z" fill="#3B3B3B"/>
</svg>
