<svg width="25" height="25" viewBox="0 0 25 25" fill="none" xmlns="http://www.w3.org/2000/svg">
<path fill-rule="evenodd" clip-rule="evenodd" d="M3.9274 5.81681C4.44313 5.30108 5.1426 5.01135 5.87195 5.01135H19.8719C20.6013 5.01135 21.3008 5.30108 21.8165 5.81681C22.3322 6.33253 22.6219 7.03201 22.6219 7.76135V10.7614C22.6219 10.9603 22.5429 11.151 22.4023 11.2917C22.2616 11.4323 22.0709 11.5114 21.8719 11.5114C21.5404 11.5114 21.2225 11.643 20.9881 11.8775C20.7536 12.1119 20.6219 12.4298 20.6219 12.7614C20.6219 13.0929 20.7536 13.4108 20.9881 13.6452C21.2225 13.8797 21.5404 14.0114 21.8719 14.0114C22.2862 14.0114 22.6219 14.3471 22.6219 14.7614V17.7614C22.6219 18.4907 22.3322 19.1902 21.8165 19.7059C21.3008 20.2216 20.6013 20.5114 19.8719 20.5114H5.87195C5.1426 20.5114 4.44313 20.2216 3.9274 19.7059C3.41168 19.1902 3.12195 18.4907 3.12195 17.7614V14.7614C3.12195 14.3471 3.45773 14.0114 3.87195 14.0114C4.20347 14.0114 4.52141 13.8797 4.75583 13.6452C4.99025 13.4108 5.12195 13.0929 5.12195 12.7614C5.12195 12.4298 4.99025 12.1119 4.75583 11.8775C4.52141 11.643 4.20347 11.5114 3.87195 11.5114C3.45773 11.5114 3.12195 11.1756 3.12195 10.7614V7.76135C3.12195 7.03201 3.41168 6.33253 3.9274 5.81681ZM16.6219 19.0114V17.7614C16.6219 17.3471 16.2862 17.0114 15.8719 17.0114C15.4577 17.0114 15.1219 17.3471 15.1219 17.7614V19.0114H5.87195C5.54043 19.0114 5.22249 18.8797 4.98806 18.6452C4.75364 18.4108 4.62195 18.0929 4.62195 17.7614V15.4071C5.0695 15.2802 5.48171 15.0407 5.81649 14.7059C6.33222 14.1902 6.62195 13.4907 6.62195 12.7614C6.62195 12.032 6.33222 11.3325 5.81649 10.8168C5.48171 10.482 5.0695 10.2425 4.62195 10.1156V7.76135C4.62195 7.42983 4.75364 7.11189 4.98806 6.87747C5.22249 6.64305 5.54043 6.51135 5.87195 6.51135H15.1219V7.76135C15.1219 8.17557 15.4577 8.51135 15.8719 8.51135C16.2862 8.51135 16.6219 8.17557 16.6219 7.76135V6.51135H19.8719C20.2035 6.51135 20.5214 6.64305 20.7558 6.87747C20.9902 7.11189 21.1219 7.42983 21.1219 7.76135V10.1156C20.6744 10.2425 20.2622 10.482 19.9274 10.8168C19.4117 11.3325 19.1219 12.032 19.1219 12.7614C19.1219 13.4907 19.4117 14.1902 19.9274 14.7059C20.2622 15.0407 20.6744 15.2802 21.1219 15.4071V17.7614C21.1219 18.0929 20.9902 18.4108 20.7558 18.6452C20.5214 18.8797 20.2035 19.0114 19.8719 19.0114H16.6219ZM15.8719 11.0114C16.2862 11.0114 16.6219 11.3471 16.6219 11.7614V13.7614C16.6219 14.1756 16.2862 14.5114 15.8719 14.5114C15.4577 14.5114 15.1219 14.1756 15.1219 13.7614V11.7614C15.1219 11.3471 15.4577 11.0114 15.8719 11.0114Z" fill="#3B3B3B"/>
</svg>
