<svg width="24" height="25" viewBox="0 0 24 25" fill="none" xmlns="http://www.w3.org/2000/svg">
<path fill-rule="evenodd" clip-rule="evenodd" d="M8.76256 3.63308C9.09075 3.30489 9.53587 3.12051 10 3.12051H14C14.4641 3.12051 14.9092 3.30489 15.2374 3.63308C15.5656 3.96127 15.75 4.40638 15.75 4.87051V7.12051H20C20.4142 7.12051 20.75 7.4563 20.75 7.87051C20.75 8.28473 20.4142 8.62051 20 8.62051H19.6984L18.8811 20.0658C18.8811 20.0658 18.8811 20.0657 18.8811 20.0658C18.8317 20.7595 18.5212 21.4089 18.0123 21.8829C17.5033 22.357 16.8335 22.6205 16.138 22.6205H7.86202C7.16646 22.6205 6.49673 22.357 5.98773 21.8829C5.47878 21.4089 5.16833 20.7597 5.1189 20.0659C5.1189 20.0659 5.11891 20.066 5.1189 20.0659L4.30164 8.62051H4C3.58579 8.62051 3.25 8.28473 3.25 7.87051C3.25 7.4563 3.58579 7.12051 4 7.12051H8.25V4.87051C8.25 4.40638 8.43437 3.96127 8.76256 3.63308ZM9.75 7.12051H14.25V4.87051C14.25 4.80421 14.2237 4.74062 14.1768 4.69374C14.1299 4.64685 14.0663 4.62051 14 4.62051H10C9.9337 4.62051 9.87011 4.64685 9.82322 4.69374C9.77634 4.74062 9.75 4.80421 9.75 4.87051V7.12051ZM5.80546 8.62051L6.6151 19.9591C6.63754 20.2745 6.77867 20.5698 7.01004 20.7852C7.2414 21.0007 7.54582 21.1205 7.862 21.1205H16.138C16.4542 21.1205 16.7586 21.0007 16.99 20.7852C17.2213 20.5698 17.3624 20.2746 17.3849 19.9593L18.1945 8.62051H5.80546ZM10 11.1205C10.4142 11.1205 10.75 11.4563 10.75 11.8705V17.8705C10.75 18.2847 10.4142 18.6205 10 18.6205C9.58579 18.6205 9.25 18.2847 9.25 17.8705V11.8705C9.25 11.4563 9.58579 11.1205 10 11.1205ZM14 11.1205C14.4142 11.1205 14.75 11.4563 14.75 11.8705V17.8705C14.75 18.2847 14.4142 18.6205 14 18.6205C13.5858 18.6205 13.25 18.2847 13.25 17.8705V11.8705C13.25 11.4563 13.5858 11.1205 14 11.1205Z" fill="#3B3B3B"/>
</svg>
