<svg width="25" height="25" viewBox="0 0 25 25" fill="none" xmlns="http://www.w3.org/2000/svg">
<path fill-rule="evenodd" clip-rule="evenodd" d="M13.2177 8.62062C12.8035 8.62062 12.4677 8.28483 12.4677 7.87062C12.4677 7.45641 12.8035 7.12062 13.2177 7.12062H21.2177C21.6319 7.12062 21.9677 7.45641 21.9677 7.87062V15.8706C21.9677 16.2848 21.6319 16.6206 21.2177 16.6206C20.8035 16.6206 20.4677 16.2848 20.4677 15.8706V9.68128L13.748 16.401C13.6074 16.5416 13.4166 16.6206 13.2177 16.6206C13.0188 16.6206 12.828 16.5416 12.6874 16.401L9.21771 12.9313L3.74804 18.401C3.45515 18.6938 2.98028 18.6938 2.68738 18.401C2.39449 18.1081 2.39449 17.6332 2.68738 17.3403L8.68738 11.3403C8.82803 11.1996 9.0188 11.1206 9.21771 11.1206C9.41662 11.1206 9.60739 11.1996 9.74804 11.3403L13.2177 14.81L19.407 8.62062H13.2177Z" fill="#3B3B3B"/>
</svg>
