<svg width="25" height="25" viewBox="0 0 25 25" fill="none" xmlns="http://www.w3.org/2000/svg">
<path fill-rule="evenodd" clip-rule="evenodd" d="M2.57856 7.34029C2.87145 7.0474 3.34632 7.0474 3.63922 7.34029L9.10889 12.81L12.5786 9.34029C12.7192 9.19964 12.91 9.12062 13.1089 9.12062C13.3078 9.12062 13.4986 9.19964 13.6392 9.34029L20.3589 16.06V9.87062C20.3589 9.45641 20.6947 9.12062 21.1089 9.12062C21.5231 9.12062 21.8589 9.45641 21.8589 9.87062V17.8706C21.8589 18.2848 21.5231 18.6206 21.1089 18.6206H13.1089C12.6947 18.6206 12.3589 18.2848 12.3589 17.8706C12.3589 17.4564 12.6947 17.1206 13.1089 17.1206H19.2982L13.1089 10.9313L9.63922 14.401C9.49856 14.5416 9.3078 14.6206 9.10889 14.6206C8.90997 14.6206 8.71921 14.5416 8.57856 14.401L2.57856 8.40095C2.28566 8.10806 2.28566 7.63318 2.57856 7.34029Z" fill="#3B3B3B"/>
</svg>
