<svg width="25" height="25" viewBox="0 0 25 25" fill="none" xmlns="http://www.w3.org/2000/svg">
<path fill-rule="evenodd" clip-rule="evenodd" d="M7.32709 16.6208C6.99557 16.6208 6.67762 16.7525 6.4432 16.9869C6.20878 17.2213 6.07709 17.5393 6.07709 17.8708C6.07709 18.2023 6.20878 18.5203 6.4432 18.7547C6.67762 18.9891 6.99557 19.1208 7.32709 19.1208C7.65861 19.1208 7.97655 18.9891 8.21097 18.7547C8.44539 18.5203 8.57709 18.2023 8.57709 17.8708C8.57709 17.5393 8.44539 17.2213 8.21097 16.9869C7.97655 16.7525 7.65861 16.6208 7.32709 16.6208ZM5.38254 15.9263C5.89827 15.4105 6.59774 15.1208 7.32709 15.1208C8.05643 15.1208 8.75591 15.4105 9.27163 15.9263C9.78736 16.442 10.0771 17.1415 10.0771 17.8708C10.0771 18.6001 9.78736 19.2996 9.27163 19.8153C8.75591 20.3311 8.05643 20.6208 7.32709 20.6208C6.59774 20.6208 5.89827 20.3311 5.38254 19.8153C4.86682 19.2996 4.57709 18.6001 4.57709 17.8708C4.57709 17.1415 4.86682 16.442 5.38254 15.9263ZM17.3271 16.6208C16.9956 16.6208 16.6776 16.7525 16.4432 16.9869C16.2088 17.2213 16.0771 17.5393 16.0771 17.8708C16.0771 18.2023 16.2088 18.5203 16.4432 18.7547C16.6776 18.9891 16.9956 19.1208 17.3271 19.1208C17.6586 19.1208 17.9766 18.9891 18.211 18.7547C18.4454 18.5203 18.5771 18.2023 18.5771 17.8708C18.5771 17.5393 18.4454 17.2213 18.211 16.9869C17.9766 16.7525 17.6586 16.6208 17.3271 16.6208ZM15.3825 15.9263C15.8983 15.4105 16.5977 15.1208 17.3271 15.1208C18.0564 15.1208 18.7559 15.4105 19.2716 15.9263C19.7874 16.442 20.0771 17.1415 20.0771 17.8708C20.0771 18.6001 19.7874 19.2996 19.2716 19.8153C18.7559 20.3311 18.0564 20.6208 17.3271 20.6208C16.5977 20.6208 15.8983 20.3311 15.3825 19.8153C14.8668 19.2996 14.5771 18.6001 14.5771 17.8708C14.5771 17.1415 14.8668 16.442 15.3825 15.9263Z" fill="#3B3B3B"/>
<path fill-rule="evenodd" clip-rule="evenodd" d="M3.08977 5.63312C3.41796 5.30493 3.86308 5.12056 4.32721 5.12056H12.3272C12.7913 5.12056 13.2365 5.30493 13.5646 5.63312C13.8928 5.96131 14.0772 6.40643 14.0772 6.87056V7.1385C14.1595 7.12662 14.2431 7.12056 14.3272 7.12056H16.9132C17.3773 7.12066 17.8225 7.3051 18.1506 7.63331L21.5645 11.0471C21.5644 11.0471 21.5645 11.0472 21.5645 11.0471C21.8926 11.3753 22.0771 11.8203 22.0772 12.2844V16.8706C22.0772 17.3347 21.8928 17.7798 21.5646 18.108C21.2365 18.4362 20.7913 18.6206 20.3272 18.6206H19.973C19.8461 19.0681 19.6065 19.4803 19.2718 19.8151C18.756 20.3308 18.0566 20.6206 17.3272 20.6206C16.5979 20.6206 15.8984 20.3308 15.3827 19.8151C15.0479 19.4803 14.8083 19.0681 14.6815 18.6206H14.3272C13.9672 18.6206 13.6186 18.5096 13.3272 18.3067C13.0358 18.5096 12.6872 18.6206 12.3272 18.6206H9.97297C9.84608 19.0681 9.60653 19.4803 9.27175 19.8151C8.75603 20.3308 8.05655 20.6206 7.32721 20.6206C6.59786 20.6206 5.89839 20.3308 5.38267 19.8151C5.04788 19.4803 4.80833 19.0681 4.68145 18.6206H4.32721C3.86308 18.6206 3.41796 18.4362 3.08977 18.108C2.76158 17.7798 2.57721 17.3347 2.57721 16.8706V6.87056C2.57721 6.40643 2.76158 5.96131 3.08977 5.63312ZM4.68145 17.1206C4.80833 16.673 5.04788 16.2608 5.38267 15.926C5.89839 15.4103 6.59786 15.1206 7.32721 15.1206C8.05655 15.1206 8.75603 15.4103 9.27175 15.926C9.60653 16.2608 9.84608 16.673 9.97297 17.1206H12.3272C12.3935 17.1206 12.4571 17.0942 12.504 17.0473C12.5509 17.0005 12.5772 16.9369 12.5772 16.8706V6.87056C12.5772 6.80426 12.5509 6.74067 12.504 6.69378C12.4571 6.6469 12.3935 6.62056 12.3272 6.62056H4.32721C4.26091 6.62056 4.19732 6.6469 4.15043 6.69378C4.10355 6.74067 4.07721 6.80426 4.07721 6.87056V16.8706C4.07721 16.9369 4.10355 17.0005 4.15043 17.0473C4.19732 17.0942 4.2609 17.1206 4.32721 17.1206H4.68145ZM14.0772 16.8706C14.0772 16.9369 14.1035 17.0005 14.1504 17.0473C14.1973 17.0942 14.2609 17.1206 14.3272 17.1206H14.6815C14.8083 16.673 15.0479 16.2608 15.3827 15.926C15.8984 15.4103 16.5979 15.1206 17.3272 15.1206C18.0566 15.1206 18.756 15.4103 19.2718 15.926C19.6065 16.2608 19.8461 16.673 19.973 17.1206H20.3272C20.3935 17.1206 20.4571 17.0942 20.504 17.0473C20.5509 17.0005 20.5772 16.9369 20.5772 16.8706V12.2847C20.5772 12.2847 20.5772 12.2848 20.5772 12.2847C20.5772 12.2185 20.5508 12.1548 20.504 12.108L17.0899 8.69389C17.043 8.64704 16.9794 8.62062 16.9132 8.62056C16.9132 8.62056 16.9133 8.62056 16.9132 8.62056H14.3272C14.2609 8.62056 14.1973 8.6469 14.1504 8.69378C14.1035 8.74067 14.0772 8.80426 14.0772 8.87056V16.8706ZM7.32721 16.6206C6.99569 16.6206 6.67775 16.7523 6.44333 16.9867C6.20891 17.2211 6.07721 17.539 6.07721 17.8706C6.07721 18.2021 6.20891 18.52 6.44333 18.7544C6.67775 18.9889 6.99569 19.1206 7.32721 19.1206C7.65873 19.1206 7.97667 18.9889 8.21109 18.7544C8.44551 18.52 8.57721 18.2021 8.57721 17.8706C8.57721 17.539 8.44551 17.2211 8.21109 16.9867C7.97667 16.7523 7.65873 16.6206 7.32721 16.6206ZM17.3272 16.6206C16.9957 16.6206 16.6777 16.7523 16.4433 16.9867C16.2089 17.2211 16.0772 17.539 16.0772 17.8706C16.0772 18.2021 16.2089 18.52 16.4433 18.7544C16.6777 18.9889 16.9957 19.1206 17.3272 19.1206C17.6587 19.1206 17.9767 18.9889 18.2111 18.7544C18.4455 18.52 18.5772 18.2021 18.5772 17.8706C18.5772 17.539 18.4455 17.2211 18.2111 16.9867C17.9767 16.7523 17.6587 16.6206 17.3272 16.6206Z" fill="#3B3B3B"/>
</svg>
