<svg width="25" height="25" viewBox="0 0 25 25" fill="none" xmlns="http://www.w3.org/2000/svg">
<path fill-rule="evenodd" clip-rule="evenodd" d="M11.9055 4.34078C12.1984 4.04789 12.6732 4.04789 12.9661 4.34078L16.9661 8.34078C17.259 8.63367 17.259 9.10855 16.9661 9.40144C16.6732 9.69433 16.1984 9.69433 15.9055 9.40144L13.1858 6.68177V16.8711C13.1858 17.2853 12.85 17.6211 12.4358 17.6211C12.0216 17.6211 11.6858 17.2853 11.6858 16.8711V6.68177L8.96612 9.40144C8.67323 9.69433 8.19835 9.69433 7.90546 9.40144C7.61257 9.10855 7.61257 8.63367 7.90546 8.34078L11.9055 4.34078ZM4.43579 16.1211C4.85 16.1211 5.18579 16.4569 5.18579 16.8711V17.8711C5.18579 18.4678 5.42284 19.0401 5.8448 19.4621C6.26676 19.8841 6.83905 20.1211 7.43579 20.1211H17.4358C18.0325 20.1211 18.6048 19.8841 19.0268 19.4621C19.4487 19.0401 19.6858 18.4678 19.6858 17.8711V16.8711C19.6858 16.4569 20.0216 16.1211 20.4358 16.1211C20.85 16.1211 21.1858 16.4569 21.1858 16.8711V17.8711C21.1858 18.8657 20.7907 19.8195 20.0874 20.5228C19.3842 21.226 18.4304 21.6211 17.4358 21.6211H7.43579C6.44123 21.6211 5.4874 21.226 4.78414 20.5228C4.08088 19.8195 3.68579 18.8657 3.68579 17.8711V16.8711C3.68579 16.4569 4.02158 16.1211 4.43579 16.1211Z" fill="#3B3B3B"/>
</svg>
