<svg width="24" height="24" viewBox="0 0 24 24" fill="none" xmlns="http://www.w3.org/2000/svg">
<path fill-rule="evenodd" clip-rule="evenodd" d="M18.8333 1.25C19.2475 1.25 19.5833 1.58579 19.5833 2V4.41667L22 4.41667C22.4142 4.41667 22.75 4.75245 22.75 5.16667C22.75 5.58088 22.4142 5.91667 22 5.91667L18.9881 5.91667L17.8672 7.03752C19.2183 8.59721 20.0357 10.6317 20.0357 12.8571C20.0357 17.7685 16.0542 21.75 11.1429 21.75C6.23147 21.75 2.25 17.7685 2.25 12.8571C2.25 7.94575 6.23147 3.96429 11.1429 3.96429C13.2888 3.96429 15.2571 4.72436 16.7935 5.98997L17.9584 4.82508C17.9971 4.78633 18.0391 4.75271 18.0833 4.72421V2C18.0833 1.58579 18.4191 1.25 18.8333 1.25ZM15.7268 7.05662C14.4669 6.05956 12.8744 5.46429 11.1429 5.46429C7.0599 5.46429 3.75 8.77418 3.75 12.8571C3.75 16.9401 7.0599 20.25 11.1429 20.25C15.2258 20.25 18.5357 16.9401 18.5357 12.8571C18.5357 11.046 17.8844 9.38697 16.8033 8.10147L15.297 9.60775C15.9985 10.5033 16.4167 11.6314 16.4167 12.8571C16.4167 15.7698 14.0555 18.131 11.1429 18.131C8.23021 18.131 5.86905 15.7698 5.86905 12.8571C5.86905 9.9445 8.23021 7.58333 11.1429 7.58333C12.2887 7.58333 13.3491 7.94874 14.2141 8.56937L15.7268 7.05662ZM13.1332 9.65026C12.5554 9.29089 11.8734 9.08333 11.1429 9.08333C9.05864 9.08333 7.36905 10.7729 7.36905 12.8571C7.36905 14.9414 9.05864 16.631 11.1429 16.631C13.2271 16.631 14.9167 14.9414 14.9167 12.8571C14.9167 12.046 14.6608 11.2947 14.2253 10.6794L13.0152 11.8896C13.1652 12.1793 13.25 12.5083 13.25 12.8571C13.25 14.0209 12.3066 14.9643 11.1429 14.9643C9.97911 14.9643 9.03571 14.0209 9.03571 12.8571C9.03571 11.6934 9.97911 10.75 11.1429 10.75C11.4079 10.75 11.6615 10.7989 11.8952 10.8883L13.1332 9.65026Z" fill="#3B3B3B"/>
</svg>
