<svg width="24" height="25" viewBox="0 0 24 25" fill="none" xmlns="http://www.w3.org/2000/svg">
<path fill-rule="evenodd" clip-rule="evenodd" d="M16.1488 4.93967C15.5314 4.70626 14.8574 4.66641 14.2168 4.82543C13.7719 4.93585 13.3576 5.13853 12.9998 5.41786C13.4858 6.17666 13.7499 7.06458 13.7499 7.97972C13.7499 8.89487 13.4858 9.78278 12.9998 10.5416C13.3576 10.8209 13.7719 11.0236 14.2168 11.134C14.8574 11.293 15.5314 11.2532 16.1488 11.0198C16.7663 10.7864 17.2981 10.3704 17.6734 9.82738C18.0486 9.28431 18.2497 8.63984 18.2497 7.97972C18.2497 7.3196 18.0486 6.67513 17.6734 6.13206C17.2981 5.589 16.7663 5.17309 16.1488 4.93967ZM11.9998 11.6626C12.54 12.1026 13.173 12.4205 13.8554 12.5898C14.7918 12.8223 15.7768 12.764 16.6792 12.4229C17.5817 12.0817 18.3589 11.4739 18.9074 10.6801C19.4559 9.88643 19.7497 8.94451 19.7497 7.97972C19.7497 7.01493 19.4559 6.07301 18.9074 5.2793C18.3589 4.48559 17.5817 3.87772 16.6792 3.53657C15.7768 3.19543 14.7918 3.13719 13.8554 3.3696C13.173 3.53897 12.54 3.85686 11.9998 4.29689C11.1562 3.60973 10.0976 3.22972 8.99988 3.22972C7.7401 3.22972 6.53192 3.73017 5.64112 4.62096C4.75032 5.51176 4.24988 6.71994 4.24988 7.97972C4.24988 9.2395 4.75032 10.4477 5.64112 11.3385C6.53192 12.2293 7.7401 12.7297 8.99988 12.7297C10.0976 12.7297 11.1562 12.3497 11.9998 11.6626ZM8.99988 4.72972C8.13792 4.72972 7.31127 5.07213 6.70178 5.68162C6.09229 6.29112 5.74988 7.11777 5.74988 7.97972C5.74988 8.84168 6.09229 9.66833 6.70178 10.2778C7.31127 10.8873 8.13792 11.2297 8.99988 11.2297C9.86183 11.2297 10.6885 10.8873 11.298 10.2778C11.9075 9.66833 12.2499 8.84168 12.2499 7.97972C12.2499 7.11777 11.9075 6.29112 11.298 5.68162C10.6885 5.07213 9.86183 4.72972 8.99988 4.72972ZM11.999 14.9326C12.93 14.4705 13.957 14.2288 15.0001 14.2289C16.1851 14.2289 17.3491 14.5409 18.3753 15.1334C19.4014 15.726 20.2535 16.5782 20.8459 17.6045C21.4383 18.6307 21.75 19.7948 21.7499 20.9797C21.7499 20.9797 21.7499 20.9798 21.7499 20.9797V21.9797C21.7499 22.3939 21.4141 22.7297 20.9999 22.7297C20.5857 22.7297 20.2499 22.3939 20.2499 21.9797V20.9797C20.25 20.0581 20.0075 19.1526 19.5468 18.3544C19.0861 17.5562 18.4233 16.8933 17.6252 16.4324C16.8271 15.9716 15.9217 15.7289 15.0001 15.7289C14.4896 15.7289 13.9842 15.8033 13.4992 15.9479C13.5925 16.0314 13.6838 16.1177 13.7728 16.2068C15.0387 17.4726 15.7499 19.1895 15.7499 20.9797V21.9797C15.7499 22.3939 15.4141 22.7297 14.9999 22.7297C14.5857 22.7297 14.2499 22.3939 14.2499 21.9797V20.9797C14.2499 19.5873 13.6968 18.252 12.7122 17.2674C11.7276 16.2828 10.3923 15.7297 8.99988 15.7297C7.60749 15.7297 6.27213 16.2828 5.28757 17.2674C4.303 18.252 3.74988 19.5873 3.74988 20.9797V21.9797C3.74988 22.3939 3.41409 22.7297 2.99988 22.7297C2.58566 22.7297 2.24988 22.3939 2.24988 21.9797V20.9797C2.24988 19.1895 2.96104 17.4726 4.22691 16.2068C5.49278 14.9409 7.20967 14.2297 8.99988 14.2297C10.0503 14.2297 11.0754 14.4745 11.999 14.9326Z" fill="#3B3B3B"/>
</svg>
