<svg width="25" height="25" viewBox="0 0 25 25" fill="none" xmlns="http://www.w3.org/2000/svg">
<path fill-rule="evenodd" clip-rule="evenodd" d="M9.54486 4.62051C8.68291 4.62051 7.85626 4.96292 7.24676 5.57242C6.63727 6.18191 6.29486 7.00856 6.29486 7.87051C6.29486 8.73247 6.63727 9.55912 7.24676 10.1686C7.85626 10.7781 8.68291 11.1205 9.54486 11.1205C10.4068 11.1205 11.2335 10.7781 11.843 10.1686C12.4524 9.55912 12.7949 8.73247 12.7949 7.87051C12.7949 7.00856 12.4524 6.18191 11.843 5.57242C11.2335 4.96292 10.4068 4.62051 9.54486 4.62051ZM6.1861 4.51176C7.0769 3.62096 8.28508 3.12051 9.54486 3.12051C10.8046 3.12051 12.0128 3.62096 12.9036 4.51176C13.7944 5.40255 14.2949 6.61074 14.2949 7.87051C14.2949 9.13029 13.7944 10.3385 12.9036 11.2293C12.0128 12.1201 10.8046 12.6205 9.54486 12.6205C8.28508 12.6205 7.0769 12.1201 6.1861 11.2293C5.29531 10.3385 4.79486 9.13029 4.79486 7.87051C4.79486 6.61074 5.29531 5.40255 6.1861 4.51176ZM18.5449 9.12051C18.9591 9.12051 19.2949 9.4563 19.2949 9.87051V12.1205H21.5449C21.9591 12.1205 22.2949 12.4563 22.2949 12.8705C22.2949 13.2847 21.9591 13.6205 21.5449 13.6205H19.2949V15.8705C19.2949 16.2847 18.9591 16.6205 18.5449 16.6205C18.1306 16.6205 17.7949 16.2847 17.7949 15.8705V13.6205H15.5449C15.1306 13.6205 14.7949 13.2847 14.7949 12.8705C14.7949 12.4563 15.1306 12.1205 15.5449 12.1205H17.7949V9.87051C17.7949 9.4563 18.1306 9.12051 18.5449 9.12051ZM9.54486 15.6205C8.15247 15.6205 6.81712 16.1736 5.83255 17.1582C4.84798 18.1428 4.29486 19.4781 4.29486 20.8705V21.1205H14.7949V20.8705C14.7949 19.4781 14.2417 18.1428 13.2572 17.1582C12.2726 16.1736 10.9372 15.6205 9.54486 15.6205ZM4.77189 16.0975C6.03776 14.8317 7.75465 14.1205 9.54486 14.1205C11.3351 14.1205 13.052 14.8317 14.3178 16.0975C15.5837 17.3634 16.2949 19.0803 16.2949 20.8705V21.8705C16.2949 22.2847 15.9591 22.6205 15.5449 22.6205H3.54486C3.13065 22.6205 2.79486 22.2847 2.79486 21.8705V20.8705C2.79486 19.0803 3.50602 17.3634 4.77189 16.0975Z" fill="#3B3B3B"/>
</svg>
