<svg width="24" height="25" viewBox="0 0 24 25" fill="none" xmlns="http://www.w3.org/2000/svg">
<path fill-rule="evenodd" clip-rule="evenodd" d="M12.0001 3.96817C11.1382 3.96817 10.3115 4.31058 9.70202 4.92007C9.09253 5.52957 8.75012 6.35622 8.75012 7.21817C8.75012 8.08012 9.09253 8.90677 9.70202 9.51627C10.3115 10.1258 11.1382 10.4682 12.0001 10.4682C12.8621 10.4682 13.6887 10.1258 14.2982 9.51627C14.9077 8.90677 15.2501 8.08012 15.2501 7.21817C15.2501 6.35622 14.9077 5.52957 14.2982 4.92007C13.6887 4.31058 12.8621 3.96817 12.0001 3.96817ZM8.64137 3.85941C9.53216 2.96861 10.7403 2.46817 12.0001 2.46817C13.2599 2.46817 14.4681 2.96861 15.3589 3.85941C16.2497 4.75021 16.7501 5.95839 16.7501 7.21817C16.7501 8.47795 16.2497 9.68613 15.3589 10.5769C14.4681 11.4677 13.2599 11.9682 12.0001 11.9682C10.7403 11.9682 9.53216 11.4677 8.64137 10.5769C7.75057 9.68613 7.25012 8.47795 7.25012 7.21817C7.25012 5.95839 7.75057 4.75021 8.64137 3.85941ZM6.52004 15.7381C7.97345 14.2847 9.94469 13.4682 12.0001 13.4682C14.0555 13.4682 16.0268 14.2847 17.4802 15.7381C18.9336 17.1915 19.7501 19.1627 19.7501 21.2182C19.7501 21.6324 19.4143 21.9682 19.0001 21.9682C18.5859 21.9682 18.2501 21.6324 18.2501 21.2182C18.2501 19.5606 17.5916 17.9709 16.4195 16.7988C15.2474 15.6266 13.6577 14.9682 12.0001 14.9682C10.3425 14.9682 8.75281 15.6266 7.5807 16.7988C6.4086 17.9709 5.75012 19.5606 5.75012 21.2182C5.75012 21.6324 5.41434 21.9682 5.00012 21.9682C4.58591 21.9682 4.25012 21.6324 4.25012 21.2182C4.25012 19.1627 5.06664 17.1915 6.52004 15.7381Z" fill="#3B3B3B"/>
</svg>
