<svg width="25" height="25" viewBox="0 0 25 25" fill="none" xmlns="http://www.w3.org/2000/svg">
<path fill-rule="evenodd" clip-rule="evenodd" d="M12.7626 5.62111C12.1659 5.62111 11.5936 5.85816 11.1716 6.28012C10.7497 6.70208 10.5126 7.27437 10.5126 7.87111C10.5126 8.46785 10.7497 9.04014 11.1716 9.4621C11.5936 9.88406 12.1659 10.1211 12.7626 10.1211C13.3594 10.1211 13.9317 9.88406 14.3536 9.4621C14.7756 9.04014 15.0126 8.46785 15.0126 7.87111C15.0126 7.27437 14.7756 6.70208 14.3536 6.28012C13.9317 5.85816 13.3594 5.62111 12.7626 5.62111ZM10.111 5.21946C10.8142 4.5162 11.7681 4.12111 12.7626 4.12111C13.7572 4.12111 14.711 4.5162 15.4143 5.21946C16.1175 5.92272 16.5126 6.87655 16.5126 7.87111C16.5126 8.86567 16.1175 9.8195 15.4143 10.5228C14.711 11.226 13.7572 11.6211 12.7626 11.6211C11.7681 11.6211 10.8142 11.226 10.111 10.5228C9.40772 9.8195 9.01263 8.86567 9.01263 7.87111C9.01263 6.87655 9.40772 5.92272 10.111 5.21946ZM5.76263 9.62111C5.43111 9.62111 5.11317 9.7528 4.87875 9.98723C4.64433 10.2216 4.51263 10.5396 4.51263 10.8711C4.51263 11.2026 4.64433 11.5206 4.87875 11.755C5.11317 11.9894 5.43111 12.1211 5.76263 12.1211C6.09415 12.1211 6.4121 11.9894 6.64652 11.755C6.88094 11.5206 7.01263 11.2026 7.01263 10.8711C7.01263 10.5396 6.88094 10.2216 6.64652 9.98723C6.4121 9.7528 6.09415 9.62111 5.76263 9.62111ZM3.81809 8.92657C4.33382 8.41084 5.03329 8.12111 5.76263 8.12111C6.49198 8.12111 7.19145 8.41084 7.70718 8.92657C8.2229 9.44229 8.51263 10.1418 8.51263 10.8711C8.51263 11.6005 8.2229 12.2999 7.70718 12.8157C7.19145 13.3314 6.49198 13.6211 5.76263 13.6211C5.03329 13.6211 4.33382 13.3314 3.81809 12.8157C3.30237 12.2999 3.01263 11.6005 3.01263 10.8711C3.01263 10.1418 3.30237 9.44229 3.81809 8.92657ZM19.7626 9.62111C19.4311 9.62111 19.1132 9.7528 18.8788 9.98723C18.6443 10.2216 18.5126 10.5396 18.5126 10.8711C18.5126 11.2026 18.6443 11.5206 18.8788 11.755C19.1132 11.9894 19.4311 12.1211 19.7626 12.1211C20.0942 12.1211 20.4121 11.9894 20.6465 11.755C20.8809 11.5206 21.0126 11.2026 21.0126 10.8711C21.0126 10.5396 20.8809 10.2216 20.6465 9.98723C20.4121 9.7528 20.0942 9.62111 19.7626 9.62111ZM17.8181 8.92657C18.3338 8.41084 19.0333 8.12111 19.7626 8.12111C20.492 8.12111 21.1915 8.41084 21.7072 8.92657C22.2229 9.44229 22.5126 10.1418 22.5126 10.8711C22.5126 11.6005 22.2229 12.2999 21.7072 12.8157C21.1915 13.3314 20.492 13.6211 19.7626 13.6211C19.0333 13.6211 18.3338 13.3314 17.8181 12.8157C17.3024 12.2999 17.0126 11.6005 17.0126 10.8711C17.0126 10.1418 17.3024 9.44229 17.8181 8.92657ZM12.7626 14.6204C11.9129 14.6204 11.0827 14.875 10.3791 15.3513C9.67542 15.8276 9.13063 16.5038 8.81496 17.2927C8.62008 17.7791 8.51263 18.3118 8.51263 18.8711V20.8711C8.51263 21.2853 8.17685 21.6211 7.76263 21.6211C7.34842 21.6211 7.01263 21.2853 7.01263 20.8711V18.8711C7.01263 18.2887 7.09926 17.7249 7.26128 17.1931C7.01299 16.9713 6.71729 16.8064 6.39469 16.7119C5.94592 16.5806 5.46737 16.5923 5.02557 16.7455C4.58377 16.8987 4.20067 17.1857 3.92953 17.5666C3.6584 17.9476 3.51268 18.4035 3.51263 18.8711C3.51263 18.8711 3.51263 18.8711 3.51263 18.8711V20.8711C3.51263 21.2853 3.17685 21.6211 2.76263 21.6211C2.34842 21.6211 2.01263 21.2853 2.01263 20.8711V18.8711C2.01269 18.0918 2.25555 17.3318 2.70746 16.6968C3.15937 16.0619 3.79787 15.5835 4.5342 15.3282C5.27053 15.0729 6.06811 15.0534 6.81606 15.2723C7.20688 15.3867 7.574 15.5633 7.90432 15.7931C8.32547 15.1286 8.88055 14.5543 9.53821 14.1092C10.4901 13.4648 11.6132 13.1204 12.7626 13.1204C13.9121 13.1204 15.0352 13.4648 15.9871 14.1092C16.6447 14.5543 17.1998 15.1286 17.6209 15.7931C17.9513 15.5633 18.3184 15.3867 18.7092 15.2723C19.4572 15.0534 20.2547 15.0729 20.9911 15.3282C21.7274 15.5835 22.3659 16.0619 22.8178 16.6968C23.2697 17.3318 23.5126 18.0917 23.5126 18.8711V20.8711C23.5126 21.2853 23.1768 21.6211 22.7626 21.6211C22.3484 21.6211 22.0126 21.2853 22.0126 20.8711V18.8712C22.0126 18.8711 22.0126 18.8712 22.0126 18.8712C22.0126 18.4036 21.8669 17.9476 21.5957 17.5666C21.3246 17.1857 20.9415 16.8987 20.4997 16.7455C20.0579 16.5923 19.5793 16.5806 19.1306 16.7119C18.808 16.8064 18.5123 16.9713 18.264 17.1931C18.426 17.7249 18.5126 18.2887 18.5126 18.8711V20.8711C18.5126 21.2853 18.1768 21.6211 17.7626 21.6211C17.3484 21.6211 17.0126 21.2853 17.0126 20.8711V18.8711C17.0126 18.3118 16.9053 17.7794 16.7104 17.2931C16.3948 16.5042 15.8498 15.8276 15.1462 15.3513C14.4426 14.875 13.6123 14.6204 12.7626 14.6204ZM18.103 16.7355C18.1029 16.7354 18.103 16.7356 18.103 16.7355V16.7355Z" fill="#3B3B3B"/>
</svg>
