<svg width="25" height="25" viewBox="0 0 25 25" fill="none" xmlns="http://www.w3.org/2000/svg">
<path fill-rule="evenodd" clip-rule="evenodd" d="M12.6538 4.62051C10.4658 4.62051 8.36735 5.48971 6.82018 7.03688C5.273 8.58406 4.40381 10.6825 4.40381 12.8705C4.40381 13.9539 4.6172 15.0267 5.0318 16.0277C5.27995 16.6267 5.59728 17.1931 5.97633 17.7155C8.04231 16.6651 10.3306 16.1171 12.6544 16.1205C15.0561 16.1206 17.3256 16.695 19.3314 17.7154C19.7104 17.193 20.0277 16.6267 20.2758 16.0277C20.6904 15.0267 20.9038 13.9539 20.9038 12.8705C20.9038 10.6825 20.0346 8.58406 18.4874 7.03688C16.9403 5.48971 14.8418 4.62051 12.6538 4.62051ZM20.124 19.1362C20.7616 18.376 21.2806 17.5215 21.6616 16.6017C22.1516 15.4188 22.4038 14.1509 22.4038 12.8705C22.4038 10.2847 21.3766 7.8047 19.5481 5.97622C17.7196 4.14774 15.2397 3.12051 12.6538 3.12051C10.0679 3.12051 7.588 4.14774 5.75952 5.97622C3.93104 7.8047 2.90381 10.2847 2.90381 12.8705C2.90381 14.1509 3.156 15.4188 3.64598 16.6017C4.02699 17.5215 4.54597 18.376 5.18365 19.1362C5.1957 19.1517 5.20828 19.1666 5.22134 19.1809C5.39246 19.3824 5.57197 19.5773 5.75952 19.7648C6.66489 20.6702 7.73972 21.3884 8.92264 21.8783C10.1056 22.3683 11.3734 22.6205 12.6538 22.6205C13.9342 22.6205 15.202 22.3683 16.385 21.8783C17.5679 21.3884 18.6427 20.6702 19.5481 19.7648C19.7356 19.5773 19.9152 19.3824 20.0863 19.1809C20.0993 19.1666 20.1119 19.1517 20.124 19.1362ZM18.304 18.882C16.5906 18.0728 14.6759 17.6205 12.6538 17.6205L12.6527 17.6205C10.6955 17.6175 8.76646 18.0502 7.00383 18.8822C7.73009 19.5648 8.57457 20.1106 9.49667 20.4925C10.4976 20.9071 11.5704 21.1205 12.6538 21.1205C13.7372 21.1205 14.81 20.9071 15.8109 20.4925C16.7331 20.1105 17.5777 19.5647 18.304 18.882ZM12.6544 16.1205C12.6546 16.1205 12.6548 16.1205 12.6549 16.1205L12.6538 16.8705V16.1205C12.654 16.1205 12.6542 16.1205 12.6544 16.1205ZM12.6538 8.62051C12.0571 8.62051 11.4848 8.85757 11.0628 9.27952C10.6409 9.70148 10.4038 10.2738 10.4038 10.8705C10.4038 11.4673 10.6409 12.0395 11.0628 12.4615C11.4848 12.8835 12.0571 13.1205 12.6538 13.1205C13.2505 13.1205 13.8228 12.8835 14.2448 12.4615C14.6668 12.0395 14.9038 11.4673 14.9038 10.8705C14.9038 10.2738 14.6668 9.70148 14.2448 9.27952C13.8228 8.85757 13.2505 8.62051 12.6538 8.62051ZM10.0022 8.21886C10.7054 7.5156 11.6592 7.12051 12.6538 7.12051C13.6484 7.12051 14.6022 7.5156 15.3055 8.21886C16.0087 8.92212 16.4038 9.87595 16.4038 10.8705C16.4038 11.8651 16.0087 12.8189 15.3055 13.5222C14.6022 14.2254 13.6484 14.6205 12.6538 14.6205C11.6592 14.6205 10.7054 14.2254 10.0022 13.5222C9.2989 12.8189 8.90381 11.8651 8.90381 10.8705C8.90381 9.87595 9.2989 8.92212 10.0022 8.21886Z" fill="#3B3B3B"/>
</svg>
