<svg width="24" height="24" viewBox="0 0 24 24" fill="none" xmlns="http://www.w3.org/2000/svg">
<path fill-rule="evenodd" clip-rule="evenodd" d="M8.99988 3.74942C8.13792 3.74942 7.31127 4.09183 6.70178 4.70132C6.09229 5.31082 5.74988 6.13747 5.74988 6.99942C5.74988 7.86137 6.09229 8.68802 6.70178 9.29752C7.31127 9.90701 8.13792 10.2494 8.99988 10.2494C9.86183 10.2494 10.6885 9.90701 11.298 9.29752C11.9075 8.68802 12.2499 7.86137 12.2499 6.99942C12.2499 6.13747 11.9075 5.31082 11.298 4.70132C10.6885 4.09183 9.86183 3.74942 8.99988 3.74942ZM5.64112 3.64066C6.53192 2.74986 7.7401 2.24942 8.99988 2.24942C10.2597 2.24942 11.4678 2.74986 12.3586 3.64066C13.2494 4.53146 13.7499 5.73964 13.7499 6.99942C13.7499 8.2592 13.2494 9.46738 12.3586 10.3582C11.4678 11.249 10.2597 11.7494 8.99988 11.7494C7.7401 11.7494 6.53192 11.249 5.64112 10.3582C4.75032 9.46738 4.24988 8.2592 4.24988 6.99942C4.24988 5.73964 4.75032 4.53146 5.64112 3.64066ZM14.2499 11.9994C14.2499 11.5852 14.5857 11.2494 14.9999 11.2494H20.9999C21.4141 11.2494 21.7499 11.5852 21.7499 11.9994C21.7499 12.4136 21.4141 12.7494 20.9999 12.7494H14.9999C14.5857 12.7494 14.2499 12.4136 14.2499 11.9994ZM4.22691 15.2264C5.49278 13.9606 7.20967 13.2494 8.99988 13.2494C10.7901 13.2494 12.507 13.9606 13.7728 15.2264C15.0387 16.4923 15.7499 18.2092 15.7499 19.9994V20.9994C15.7499 21.4136 15.4141 21.7494 14.9999 21.7494H2.99988C2.58566 21.7494 2.24988 21.4136 2.24988 20.9994V19.9994C2.24988 18.2092 2.96104 16.4923 4.22691 15.2264ZM8.99988 14.7494C7.60749 14.7494 6.27213 15.3025 5.28757 16.2871C4.303 17.2717 3.74988 18.607 3.74988 19.9994V20.2494H14.2499V19.9994C14.2499 18.607 13.6968 17.2717 12.7122 16.2871C11.7276 15.3025 10.3923 14.7494 8.99988 14.7494Z" fill="#3B3B3B"/>
</svg>
