<svg width="25" height="25" viewBox="0 0 25 25" fill="none" xmlns="http://www.w3.org/2000/svg">
<path fill-rule="evenodd" clip-rule="evenodd" d="M5.31351 4.30858C5.68449 4.49283 5.83587 4.94293 5.65162 5.31391C4.46869 7.69576 3.855 10.3198 3.85891 12.9792L3.85891 12.9803C3.85891 15.736 4.50396 18.3379 5.6515 20.6464C5.83588 21.0174 5.68467 21.4675 5.31375 21.6519C4.94284 21.8363 4.49269 21.6851 4.30831 21.3141C3.05993 18.8028 2.35899 15.973 2.35891 12.9808C2.35474 10.0893 3.02202 7.23639 4.30819 4.64669C4.49243 4.27571 4.94253 4.12433 5.31351 4.30858ZM18.7763 4.30859C19.1473 4.12433 19.5974 4.2757 19.7816 4.64667C21.029 7.15803 21.7299 9.98798 21.7299 12.9803H20.9801L21.7299 12.9791C21.7299 12.9795 21.7299 12.9799 21.7299 12.9803C21.7343 15.8715 21.0674 18.7242 19.7817 21.3138C19.5975 21.6848 19.1474 21.8363 18.7764 21.6521C18.4054 21.4679 18.2539 21.0178 18.4381 20.6468C19.6208 18.2648 20.2341 15.6408 20.2299 12.9815V12.9803C20.2299 10.2246 19.5849 7.62256 18.4382 5.31392C18.2539 4.94295 18.4053 4.49285 18.7763 4.30859ZM8.35891 9.9803C8.35891 9.56609 8.69469 9.2303 9.10891 9.2303H10.3549C10.735 9.23047 11.105 9.35437 11.4084 9.58327C11.7118 9.81217 11.9325 10.1336 12.037 10.499L12.4469 11.9336L13.9403 10.1903C14.1986 9.88917 14.5193 9.64715 14.8798 9.48149C15.2403 9.31587 15.6322 9.23018 16.0289 9.2303C16.0288 9.2303 16.029 9.2303 16.0289 9.2303H16.1089C16.5231 9.2303 16.8589 9.56609 16.8589 9.9803C16.8589 10.3945 16.5231 10.7303 16.1089 10.7303H16.0289C15.8486 10.7302 15.67 10.7692 15.5061 10.8445C15.3423 10.9198 15.1966 11.0296 15.0792 11.1665L12.941 13.6624L13.623 16.049C13.623 16.049 13.623 16.0491 13.623 16.049M11.7711 15.0279L12.1808 16.4614C12.2853 16.8268 12.506 17.1484 12.8094 17.3773C13.1128 17.6062 13.4825 17.7301 13.8626 17.7303H15.1089C15.5231 17.7303 15.8589 17.3945 15.8589 16.9803C15.8589 16.5661 15.5231 16.2303 15.1089 16.2303H13.8632M11.7711 15.0279L10.2785 16.7702C10.02 17.0716 9.69914 17.3137 9.33836 17.4794C8.97758 17.6451 8.58521 17.7307 8.18821 17.7303H8.10891C7.69469 17.7303 7.35891 17.3945 7.35891 16.9803C7.35891 16.5661 7.69469 16.2303 8.10891 16.2303H8.18891C8.36936 16.2305 8.5484 16.1916 8.71239 16.1163C8.87627 16.041 9.02192 15.9312 9.13935 15.7943C9.13927 15.7944 9.13943 15.7942 9.13935 15.7943L11.2771 13.299L10.5948 10.9115C10.5799 10.8594 10.5483 10.8134 10.505 10.7807C10.4617 10.748 10.4089 10.7303 10.3546 10.7303H9.10891C8.69469 10.7303 8.35891 10.3945 8.35891 9.9803" fill="#3B3B3B"/>
</svg>
