<svg width="24" height="24" viewBox="0 0 24 24" fill="none" xmlns="http://www.w3.org/2000/svg">
<path fill-rule="evenodd" clip-rule="evenodd" d="M3.05533 6.05533C3.57106 5.53961 4.27053 5.24988 4.99988 5.24988H12.9999C13.7292 5.24988 14.4287 5.53961 14.9444 6.05533C15.4601 6.57106 15.7499 7.27053 15.7499 7.99988V8.78647L19.2175 7.05303C19.4843 6.91974 19.7807 6.85677 20.0786 6.87018C20.3765 6.8836 20.666 6.97291 20.9197 7.12964C21.1734 7.28636 21.3828 7.50531 21.5281 7.7657C21.6734 8.0261 21.7497 8.3193 21.7499 8.61748V15.3819C21.7497 15.6801 21.6734 15.9737 21.5281 16.2341C21.3828 16.4944 21.1734 16.7134 20.9197 16.8701C20.666 17.0268 20.3765 17.1162 20.0786 17.1296C19.7807 17.143 19.4844 17.0801 19.2176 16.9468L15.7499 15.2133V15.9999C15.7499 16.7292 15.4601 17.4287 14.9444 17.9444C14.4287 18.4601 13.7292 18.7499 12.9999 18.7499H4.99988C4.27053 18.7499 3.57106 18.4601 3.05533 17.9444C2.53961 17.4287 2.24988 16.7292 2.24988 15.9999V7.99988C2.24988 7.27053 2.53961 6.57106 3.05533 6.05533ZM15.7499 13.5363L19.8881 15.605C19.9262 15.624 19.9686 15.633 20.0111 15.6311C20.0537 15.6292 20.095 15.6164 20.1313 15.594C20.1675 15.5716 20.1974 15.5404 20.2182 15.5032C20.2389 15.466 20.2499 15.4241 20.2499 15.3815V8.61828C20.2499 8.57568 20.2389 8.53379 20.2182 8.4966C20.1974 8.4594 20.1675 8.42812 20.1313 8.40573C20.095 8.38334 20.0537 8.37058 20.0111 8.36866C19.9686 8.36675 19.9263 8.37572 19.8882 8.39473L15.7499 10.4634V13.5363ZM14.2499 7.99988C14.2499 7.66836 14.1182 7.35041 13.8838 7.11599C13.6493 6.88157 13.3314 6.74988 12.9999 6.74988H4.99988C4.66836 6.74988 4.35041 6.88157 4.11599 7.11599C3.88157 7.35041 3.74988 7.66836 3.74988 7.99988V15.9999C3.74988 16.3314 3.88157 16.6493 4.11599 16.8838C4.35041 17.1182 4.66836 17.2499 4.99988 17.2499H12.9999C13.3314 17.2499 13.6493 17.1182 13.8838 16.8838C14.1182 16.6493 14.2499 16.3314 14.2499 15.9999V7.99988Z" fill="#363B4C"/>
<path d="M13.8838 7.11599C14.1182 7.35041 14.2499 7.66836 14.2499 7.99988V15.9999C14.2499 16.3314 14.1182 16.6493 13.8838 16.8838C13.6493 17.1182 13.3314 17.2499 12.9999 17.2499H4.99988C4.66836 17.2499 4.35041 17.1182 4.11599 16.8838C3.88157 16.6493 3.74988 16.3314 3.74988 15.9999V7.99988C3.74988 7.66836 3.88157 7.35041 4.11599 7.11599C4.35041 6.88157 4.66836 6.74988 4.99988 6.74988H12.9999C13.3314 6.74988 13.6493 6.88157 13.8838 7.11599Z" fill="#363B4C"/>
<path d="M19.8881 15.605L15.7499 13.5363V10.4634L19.8882 8.39473C19.9263 8.37572 19.9686 8.36675 20.0111 8.36866C20.0537 8.37058 20.095 8.38334 20.1313 8.40573C20.1675 8.42812 20.1974 8.4594 20.2182 8.4966C20.2389 8.53379 20.2499 8.57568 20.2499 8.61828V15.3815C20.2499 15.4241 20.2389 15.466 20.2182 15.5032C20.1974 15.5404 20.1675 15.5716 20.1313 15.594C20.095 15.6164 20.0537 15.6292 20.0111 15.6311C19.9686 15.633 19.9262 15.624 19.8881 15.605Z" fill="#363B4C"/>
</svg>
