<svg width="25" height="25" viewBox="0 0 25 25" fill="none" xmlns="http://www.w3.org/2000/svg">
<path fill-rule="evenodd" clip-rule="evenodd" d="M4.49125 5.03576C5.00697 4.52003 5.70645 4.2303 6.43579 4.2303H8.43579C9.16514 4.2303 9.86461 4.52003 10.3803 5.03576C10.8961 5.55148 11.1858 6.25096 11.1858 6.9803V8.9803C11.1858 9.70965 10.8961 10.4091 10.3803 10.9248C9.86461 11.4406 9.16514 11.7303 8.43579 11.7303H6.43579C5.70645 11.7303 5.00697 11.4406 4.49125 10.9248C3.97552 10.4091 3.68579 9.70965 3.68579 8.9803V6.9803C3.68579 6.25096 3.97552 5.55148 4.49125 5.03576ZM6.43579 5.7303C6.10427 5.7303 5.78633 5.862 5.55191 6.09642C5.31749 6.33084 5.18579 6.64878 5.18579 6.9803V8.9803C5.18579 9.31182 5.31749 9.62976 5.55191 9.86418C5.78633 10.0986 6.10427 10.2303 6.43579 10.2303H8.43579C8.76731 10.2303 9.08525 10.0986 9.31967 9.86418C9.55409 9.62976 9.68579 9.31182 9.68579 8.9803V6.9803C9.68579 6.64878 9.55409 6.33084 9.31967 6.09642C9.08525 5.862 8.76731 5.7303 8.43579 5.7303H6.43579ZM14.4912 5.03576C15.007 4.52003 15.7064 4.2303 16.4358 4.2303H18.4358C19.1651 4.2303 19.8646 4.52003 20.3803 5.03576C20.8961 5.55148 21.1858 6.25096 21.1858 6.9803V8.9803C21.1858 9.70965 20.8961 10.4091 20.3803 10.9248C19.8646 11.4406 19.1651 11.7303 18.4358 11.7303H16.4358C15.7064 11.7303 15.007 11.4406 14.4912 10.9248C13.9755 10.4091 13.6858 9.70965 13.6858 8.9803V6.9803C13.6858 6.25096 13.9755 5.55148 14.4912 5.03576ZM16.4358 5.7303C16.1043 5.7303 15.7863 5.862 15.5519 6.09642C15.3175 6.33084 15.1858 6.64878 15.1858 6.9803V8.9803C15.1858 9.31182 15.3175 9.62976 15.5519 9.86418C15.7863 10.0986 16.1043 10.2303 16.4358 10.2303H18.4358C18.7673 10.2303 19.0853 10.0986 19.3197 9.86418C19.5541 9.62976 19.6858 9.31182 19.6858 8.9803V6.9803C19.6858 6.64878 19.5541 6.33084 19.3197 6.09642C19.0853 5.862 18.7673 5.7303 18.4358 5.7303H16.4358ZM4.49125 15.0358C5.00697 14.52 5.70645 14.2303 6.43579 14.2303H8.43579C9.16514 14.2303 9.86461 14.52 10.3803 15.0358C10.8961 15.5515 11.1858 16.251 11.1858 16.9803V18.9803C11.1858 19.7096 10.8961 20.4091 10.3803 20.9248C9.86461 21.4406 9.16514 21.7303 8.43579 21.7303H6.43579C5.70645 21.7303 5.00697 21.4406 4.49125 20.9248C3.97552 20.4091 3.68579 19.7096 3.68579 18.9803V16.9803C3.68579 16.251 3.97552 15.5515 4.49125 15.0358ZM6.43579 15.7303C6.10427 15.7303 5.78633 15.862 5.55191 16.0964C5.31749 16.3308 5.18579 16.6488 5.18579 16.9803V18.9803C5.18579 19.3118 5.31749 19.6298 5.55191 19.8642C5.78633 20.0986 6.10427 20.2303 6.43579 20.2303H8.43579C8.76731 20.2303 9.08525 20.0986 9.31967 19.8642C9.55409 19.6298 9.68579 19.3118 9.68579 18.9803V16.9803C9.68579 16.6488 9.55409 16.3308 9.31967 16.0964C9.08525 15.862 8.76731 15.7303 8.43579 15.7303H6.43579ZM17.4358 14.2303C17.85 14.2303 18.1858 14.5661 18.1858 14.9803V17.2303H20.4358C20.85 17.2303 21.1858 17.5661 21.1858 17.9803C21.1858 18.3945 20.85 18.7303 20.4358 18.7303H18.1858V20.9803C18.1858 21.3945 17.85 21.7303 17.4358 21.7303C17.0216 21.7303 16.6858 21.3945 16.6858 20.9803V18.7303H14.4358C14.0216 18.7303 13.6858 18.3945 13.6858 17.9803C13.6858 17.5661 14.0216 17.2303 14.4358 17.2303H16.6858V14.9803C16.6858 14.5661 17.0216 14.2303 17.4358 14.2303Z" fill="#3B3B3B"/>
</svg>
