<svg width="25" height="25" viewBox="0 0 25 25" fill="none" xmlns="http://www.w3.org/2000/svg">
<path fill-rule="evenodd" clip-rule="evenodd" d="M5.32721 6.72977C4.99569 6.72977 4.67775 6.86146 4.44333 7.09588C4.20891 7.3303 4.07721 7.64825 4.07721 7.97977V17.9798C4.07721 18.3113 4.20891 18.6292 4.44333 18.8637C4.67775 19.0981 4.99569 19.2298 5.32721 19.2298H7.32721C7.65873 19.2298 7.97667 19.0981 8.21109 18.8637C8.44551 18.6292 8.57721 18.3113 8.57721 17.9798V7.97977C8.57721 7.64825 8.44551 7.3303 8.21109 7.09588C7.97667 6.86146 7.65873 6.72977 7.32721 6.72977H5.32721ZM9.32721 6.09231C9.30902 6.07304 9.29054 6.05401 9.27175 6.03522C8.75603 5.5195 8.05655 5.22977 7.32721 5.22977H5.32721C4.59786 5.22977 3.89839 5.5195 3.38267 6.03522C2.86694 6.55095 2.57721 7.25042 2.57721 7.97977V17.9798C2.57721 18.7091 2.86694 19.4086 3.38267 19.9243C3.89839 20.44 4.59786 20.7298 5.32721 20.7298H7.32721C8.05655 20.7298 8.75603 20.44 9.27175 19.9243C9.29054 19.9055 9.30903 19.8865 9.32721 19.8672C9.3454 19.8865 9.36388 19.9055 9.38267 19.9243C9.89839 20.44 10.5979 20.7298 11.3272 20.7298H13.3272C14.0566 20.7298 14.756 20.44 15.2718 19.9243C15.2905 19.9055 15.309 19.8865 15.3272 19.8672C15.3454 19.8865 15.3639 19.9055 15.3827 19.9243C15.8984 20.44 16.5979 20.7298 17.3272 20.7298H19.3272C20.0566 20.7298 20.756 20.44 21.2718 19.9243C21.7875 19.4086 22.0772 18.7091 22.0772 17.9798V7.97977C22.0772 7.25042 21.7875 6.55095 21.2718 6.03522C20.756 5.5195 20.0566 5.22977 19.3272 5.22977H17.3272C16.5979 5.22977 15.8984 5.5195 15.3827 6.03522C15.3639 6.05401 15.3454 6.07304 15.3272 6.09231C15.309 6.07304 15.2905 6.05401 15.2718 6.03522C14.756 5.5195 14.0566 5.22977 13.3272 5.22977H11.3272C10.5979 5.22977 9.89839 5.5195 9.38267 6.03522C9.36388 6.05401 9.34539 6.07304 9.32721 6.09231ZM14.5772 7.97977C14.5772 7.64825 14.4455 7.3303 14.2111 7.09588C13.9767 6.86146 13.6587 6.72977 13.3272 6.72977H11.3272C10.9957 6.72977 10.6777 6.86146 10.4433 7.09588C10.2089 7.3303 10.0772 7.64825 10.0772 7.97977V17.9798C10.0772 18.3113 10.2089 18.6292 10.4433 18.8637C10.6777 19.0981 10.9957 19.2298 11.3272 19.2298H13.3272C13.6587 19.2298 13.9767 19.0981 14.2111 18.8637C14.4455 18.6292 14.5772 18.3113 14.5772 17.9798V7.97977ZM16.0772 17.9798C16.0772 18.3113 16.2089 18.6292 16.4433 18.8637C16.6777 19.0981 16.9957 19.2298 17.3272 19.2298H19.3272C19.6587 19.2298 19.9767 19.0981 20.2111 18.8637C20.4455 18.6292 20.5772 18.3113 20.5772 17.9798V7.97977C20.5772 7.64825 20.4455 7.3303 20.2111 7.09588C19.9767 6.86146 19.6587 6.72977 19.3272 6.72977H17.3272C16.9957 6.72977 16.6777 6.86146 16.4433 7.09588C16.2089 7.3303 16.0772 7.64825 16.0772 7.97977V17.9798Z" fill="#3B3B3B"/>
</svg>
