<svg width="24" height="24" viewBox="0 0 24 24" fill="none" xmlns="http://www.w3.org/2000/svg">
<path fill-rule="evenodd" clip-rule="evenodd" d="M3.24988 5.99988C3.24988 5.58566 3.58566 5.24988 3.99988 5.24988H19.9999C20.4141 5.24988 20.7499 5.58566 20.7499 5.99988C20.7499 6.41409 20.4141 6.74988 19.9999 6.74988H3.99988C3.58566 6.74988 3.24988 6.41409 3.24988 5.99988ZM3.24988 9.99988C3.24988 9.58566 3.58566 9.24988 3.99988 9.24988H19.9999C20.4141 9.24988 20.7499 9.58566 20.7499 9.99988C20.7499 10.4141 20.4141 10.7499 19.9999 10.7499H3.99988C3.58566 10.7499 3.24988 10.4141 3.24988 9.99988ZM3.24988 13.9999C3.24988 13.5857 3.58566 13.2499 3.99988 13.2499H19.9999C20.4141 13.2499 20.7499 13.5857 20.7499 13.9999C20.7499 14.4141 20.4141 14.7499 19.9999 14.7499H3.99988C3.58566 14.7499 3.24988 14.4141 3.24988 13.9999ZM3.24988 17.9999C3.24988 17.5857 3.58566 17.2499 3.99988 17.2499H19.9999C20.4141 17.2499 20.7499 17.5857 20.7499 17.9999C20.7499 18.4141 20.4141 18.7499 19.9999 18.7499H3.99988C3.58566 18.7499 3.24988 18.4141 3.24988 17.9999Z" fill="#3B3B3B"/>
</svg>
