<svg width="25" height="24" viewBox="0 0 25 24" fill="none" xmlns="http://www.w3.org/2000/svg">
<path fill-rule="evenodd" clip-rule="evenodd" d="M11.3589 4.99954C11.3589 4.77686 11.0898 4.66525 10.9322 4.82287L6.22522 9.52987C6.08456 9.67053 5.8938 9.74954 5.69489 9.74954H4.10889C4.04258 9.74954 3.97899 9.77588 3.93211 9.82277C3.88523 9.86965 3.85889 9.93324 3.85889 9.99954V13.9995C3.85889 14.0658 3.88523 14.1294 3.93211 14.1763C3.97899 14.2232 4.04258 14.2495 4.10889 14.2495H5.69489C5.8938 14.2495 6.08456 14.3286 6.22522 14.4692L10.9322 19.1762C11.0898 19.3338 11.3589 19.2222 11.3589 18.9995V4.99954ZM9.87156 3.76221C10.9739 2.65984 12.8589 3.44023 12.8589 4.99954V18.9995C12.8589 20.5589 10.9739 21.3393 9.87156 20.2369L5.38423 15.7495H4.10889C3.64476 15.7495 3.19964 15.5652 2.87145 15.237C2.54326 14.9088 2.35889 14.4637 2.35889 13.9995V9.99954C2.35889 9.53541 2.54326 9.09029 2.87145 8.76211C3.19964 8.43392 3.64476 8.24954 4.10889 8.24954H5.38423L9.87156 3.76221ZM16.5786 9.46852C16.8715 9.17563 17.3464 9.17563 17.6393 9.46852L19.1089 10.9382L20.5786 9.46852C20.8715 9.17563 21.3464 9.17563 21.6393 9.46852C21.9322 9.76142 21.9322 10.2363 21.6393 10.5292L20.1696 11.9989L21.6393 13.4685C21.9322 13.7614 21.9322 14.2363 21.6393 14.5292C21.3464 14.8221 20.8715 14.8221 20.5786 14.5292L19.1089 13.0595L17.6393 14.5292C17.3464 14.8221 16.8715 14.8221 16.5786 14.5292C16.2857 14.2363 16.2857 13.7614 16.5786 13.4685L18.0483 11.9989L16.5786 10.5292C16.2857 10.2363 16.2857 9.76142 16.5786 9.46852Z" fill="#3B3B3B"/>
</svg>
