<svg width="24" height="24" viewBox="0 0 24 24" fill="none" xmlns="http://www.w3.org/2000/svg">
<g clip-path="url(#clip0_3596_5571)">
<rect width="24" height="24" fill="#00D95F"/>
<path d="M6.00006 17.5557L6.86103 14.3544C6.16668 13.1073 5.94608 11.6521 6.23971 10.2558C6.53333 8.85943 7.3215 7.61563 8.45957 6.75261C9.59764 5.88959 11.0093 5.46525 12.4354 5.55744C13.8616 5.64964 15.2066 6.25219 16.2237 7.25453C17.2408 8.25687 17.8617 9.59176 17.9725 11.0143C18.0833 12.4367 17.6765 13.8514 16.8269 14.9987C15.9772 16.1459 14.7417 16.9488 13.3469 17.26C11.9522 17.5712 10.4918 17.3698 9.23379 16.6928L6.00006 17.5557ZM9.38972 15.4948L9.58971 15.6133C10.5009 16.1525 11.5652 16.3756 12.6167 16.2479C13.6682 16.1202 14.6478 15.6488 15.403 14.9072C16.1581 14.1656 16.6463 13.1955 16.7915 12.148C16.9367 11.1005 16.7307 10.0344 16.2057 9.11598C15.6806 8.19754 14.866 7.47829 13.8887 7.07032C12.9115 6.66235 11.8265 6.58857 10.8029 6.86048C9.77925 7.13239 8.87446 7.73472 8.22952 8.5736C7.58458 9.41248 7.23571 10.4408 7.23729 11.4983C7.23643 12.3751 7.47933 13.235 7.93894 13.9822L8.06436 14.1886L7.58303 15.9754L9.38972 15.4948Z" fill="white"/>
<path fill-rule="evenodd" clip-rule="evenodd" d="M14.2436 12.3203C14.1263 12.2259 13.9891 12.1594 13.8422 12.126C13.6954 12.0926 13.5428 12.0931 13.3962 12.1274C13.1758 12.2188 13.0335 12.5639 12.8911 12.7365C12.8611 12.7779 12.817 12.8069 12.767 12.8181C12.7171 12.8293 12.6648 12.822 12.6199 12.7974C11.8133 12.482 11.1372 11.9036 10.7014 11.1562C10.6642 11.1095 10.6466 11.0503 10.6523 10.991C10.658 10.9316 10.6865 10.8768 10.7319 10.8381C10.8907 10.6811 11.0073 10.4868 11.0709 10.2729C11.085 10.0371 11.0309 9.80214 10.9149 9.59613C10.8253 9.30732 10.6548 9.05016 10.4234 8.85503C10.3041 8.80145 10.1718 8.78349 10.0425 8.80331C9.9132 8.82312 9.79239 8.87987 9.69466 8.9667C9.525 9.11284 9.39033 9.29511 9.30058 9.50009C9.21082 9.70507 9.16827 9.92754 9.17604 10.1511C9.17657 10.2767 9.1925 10.4017 9.2235 10.5234C9.30221 10.8157 9.42325 11.095 9.5828 11.3524C9.69791 11.5496 9.82351 11.7406 9.95905 11.9244C10.3996 12.5281 10.9533 13.0406 11.5895 13.4336C11.9087 13.6333 12.2499 13.7957 12.6064 13.9175C12.9766 14.0851 13.3854 14.1494 13.7894 14.1037C14.0195 14.0689 14.2376 13.9782 14.4243 13.8395C14.6111 13.7008 14.7609 13.5185 14.8605 13.3084C14.919 13.1815 14.9368 13.0397 14.9113 12.9023C14.8503 12.6215 14.4741 12.4556 14.2436 12.3203Z" fill="white"/>
</g>
<defs>
<clipPath id="clip0_3596_5571">
<path d="M0 1C0 0.447716 0.447715 0 1 0H23C23.5523 0 24 0.447715 24 1V23C24 23.5523 23.5523 24 23 24H1C0.447716 24 0 23.5523 0 23V1Z" fill="white"/>
</clipPath>
</defs>
</svg>
