<svg width="25" height="24" viewBox="0 0 25 24" fill="none" xmlns="http://www.w3.org/2000/svg">
<g clip-path="url(#clip0_11_1684)">
<path fill-rule="evenodd" clip-rule="evenodd" d="M22.4035 9.92242C16.8384 4.35823 7.81524 4.3583 2.25116 9.92238C1.95826 10.2153 1.48339 10.2153 1.1905 9.92238C0.897602 9.62948 0.897602 9.15461 1.1905 8.86172C7.34041 2.7118 17.3133 2.71187 23.4641 8.86167C23.757 9.15454 23.7571 9.62941 23.4642 9.92233C23.1713 10.2153 22.6965 10.2153 22.4035 9.92242ZM18.8675 13.4584C15.2553 9.84623 9.39828 9.84633 5.78722 13.4583C5.49437 13.7512 5.01949 13.7513 4.72656 13.4584C4.43363 13.1656 4.43357 12.6907 4.72643 12.3978C8.92337 8.19977 15.7303 8.19986 19.9282 12.3977C20.221 12.6906 20.221 13.1655 19.9282 13.4584C19.6353 13.7513 19.1604 13.7513 18.8675 13.4584ZM12.3268 15.5422C11.0671 15.5422 9.85893 16.0426 8.96814 16.9334C8.67524 17.2263 8.20037 17.2263 7.90748 16.9334C7.6146 16.6405 7.61461 16.1656 7.90751 15.8727C9.0796 14.7007 10.6693 14.0422 12.3268 14.0422C13.9844 14.0422 15.574 14.7007 16.7461 15.8727C17.039 16.1656 17.0391 16.6405 16.7462 16.9334C16.4533 17.2263 15.9784 17.2263 15.6855 16.9334C14.7947 16.0426 13.5866 15.5422 12.3268 15.5422ZM11.5768 19.999C11.5768 19.5848 11.9126 19.249 12.3268 19.249H12.3368C12.751 19.249 13.0868 19.5848 13.0868 19.999C13.0868 20.4133 12.751 20.749 12.3368 20.749H12.3268C11.9126 20.749 11.5768 20.4133 11.5768 19.999Z" fill="#3B3B3B"/>
</g>
<defs>
<clipPath id="clip0_11_1684">
<rect width="24" height="24" fill="white" transform="translate(0.32666)"/>
</clipPath>
</defs>
</svg>
