<svg width="24" height="25" viewBox="0 0 24 25" fill="none" xmlns="http://www.w3.org/2000/svg">
<path fill-rule="evenodd" clip-rule="evenodd" d="M11.9999 3.83865C9.81184 3.83865 7.71342 4.70785 6.16625 6.25502C4.61907 7.8022 3.74988 9.90062 3.74988 12.0887C3.74988 13.1721 3.96327 14.2449 4.37787 15.2458C4.79247 16.2467 5.40016 17.1562 6.16625 17.9223C6.93233 18.6884 7.8418 19.2961 8.84274 19.7107C9.84367 20.1253 10.9165 20.3387 11.9999 20.3387C13.0833 20.3387 14.1561 20.1253 15.157 19.7107C16.158 19.2961 17.0674 18.6884 17.8335 17.9223C18.5996 17.1562 19.2073 16.2467 19.6219 15.2458C20.0365 14.2449 20.2499 13.1721 20.2499 12.0887C20.2499 9.90062 19.3807 7.8022 17.8335 6.25502C16.2863 4.70785 14.1879 3.83865 11.9999 3.83865ZM5.10559 5.19436C6.93407 3.36588 9.41402 2.33865 11.9999 2.33865C14.5857 2.33865 17.0657 3.36588 18.8942 5.19436C20.7226 7.02284 21.7499 9.50279 21.7499 12.0887C21.7499 13.369 21.4977 14.6369 21.0077 15.8198C20.5177 17.0027 19.7995 18.0776 18.8942 18.9829C17.9888 19.8883 16.914 20.6065 15.731 21.0965C14.5481 21.5865 13.2803 21.8387 11.9999 21.8387C10.7195 21.8387 9.45164 21.5865 8.26871 21.0965C7.08579 20.6065 6.01096 19.8883 5.10559 18.9829C4.20022 18.0776 3.48204 17.0027 2.99205 15.8198C2.50207 14.6369 2.24988 13.369 2.24988 12.0887C2.24988 9.50279 3.27711 7.02284 5.10559 5.19436ZM9.46955 9.55832C9.76244 9.26543 10.2373 9.26543 10.5302 9.55832L11.9999 11.028L13.4695 9.55832C13.7624 9.26543 14.2373 9.26543 14.5302 9.55832C14.8231 9.85122 14.8231 10.3261 14.5302 10.619L13.0605 12.0887L14.5302 13.5583C14.8231 13.8512 14.8231 14.3261 14.5302 14.619C14.2373 14.9119 13.7624 14.9119 13.4695 14.619L11.9999 13.1493L10.5302 14.619C10.2373 14.9119 9.76244 14.9119 9.46955 14.619C9.17665 14.3261 9.17665 13.8512 9.46955 13.5583L10.9392 12.0887L9.46955 10.619C9.17665 10.3261 9.17665 9.85122 9.46955 9.55832Z" fill="#3B3B3B"/>
</svg>
