<svg width="25" height="25" viewBox="0 0 25 25" fill="none" xmlns="http://www.w3.org/2000/svg">
<path fill-rule="evenodd" clip-rule="evenodd" d="M5.57868 5.55784C5.87157 5.26494 6.34645 5.26494 6.63934 5.55784L12.109 11.0275L17.5787 5.55784C17.8716 5.26494 18.3464 5.26494 18.6393 5.55784C18.9322 5.85073 18.9322 6.3256 18.6393 6.6185L13.1697 12.0882L18.6393 17.5578C18.9322 17.8507 18.9322 18.3256 18.6393 18.6185C18.3464 18.9114 17.8716 18.9114 17.5787 18.6185L12.109 13.1488L6.63934 18.6185C6.34645 18.9114 5.87157 18.9114 5.57868 18.6185C5.28579 18.3256 5.28579 17.8507 5.57868 17.5578L11.0483 12.0882L5.57868 6.6185C5.28579 6.3256 5.28579 5.85073 5.57868 5.55784Z" fill="#3B3B3B"/>
</svg>
