<svg width="25" height="25" viewBox="0 0 25 25" fill="none" xmlns="http://www.w3.org/2000/svg">
<path fill-rule="evenodd" clip-rule="evenodd" d="M10.3272 3.83865C8.66961 3.83865 7.07989 4.49713 5.90779 5.66924C4.73569 6.84134 4.07721 8.43105 4.07721 10.0887C4.07721 10.9094 4.23887 11.7221 4.55296 12.4804C4.86705 13.2387 5.32743 13.9277 5.90779 14.5081C6.48816 15.0884 7.17715 15.5488 7.93544 15.8629C8.69372 16.177 9.50645 16.3387 10.3272 16.3387C11.148 16.3387 11.9607 16.177 12.719 15.8629C13.4773 15.5488 14.1663 15.0884 14.7466 14.5081C15.327 13.9277 15.7874 13.2387 16.1015 12.4804C16.4155 11.7221 16.5772 10.9094 16.5772 10.0887C16.5772 8.43105 15.9187 6.84134 14.7466 5.66924C13.5745 4.49713 11.9848 3.83865 10.3272 3.83865ZM4.84713 4.60858C6.30054 3.15517 8.27178 2.33865 10.3272 2.33865C12.3826 2.33865 14.3539 3.15517 15.8073 4.60858C17.2607 6.06198 18.0772 8.03323 18.0772 10.0887C18.0772 11.1064 17.8767 12.1142 17.4873 13.0544C17.1938 13.7629 16.7974 14.4226 16.3119 15.0127L21.8575 20.5583C22.1504 20.8512 22.1504 21.3261 21.8575 21.619C21.5646 21.9119 21.0898 21.9119 20.7969 21.619L15.2512 16.0733C14.6612 16.5588 14.0015 16.9553 13.293 17.2487C12.3527 17.6382 11.345 17.8387 10.3272 17.8387C9.30946 17.8387 8.30169 17.6382 7.36141 17.2487C6.42114 16.8592 5.56679 16.2884 4.84713 15.5687C4.12748 14.8491 3.55662 13.9947 3.16714 13.0544C2.77767 12.1142 2.57721 11.1064 2.57721 10.0887C2.57721 8.03323 3.39372 6.06198 4.84713 4.60858ZM6.57721 10.0887C6.57721 9.67444 6.913 9.33865 7.32721 9.33865H13.3272C13.7414 9.33865 14.0772 9.67444 14.0772 10.0887C14.0772 10.5029 13.7414 10.8387 13.3272 10.8387H7.32721C6.913 10.8387 6.57721 10.5029 6.57721 10.0887Z" fill="#3B3B3B"/>
</svg>
