<svg width="25" height="25" viewBox="0 0 25 25" fill="none" xmlns="http://www.w3.org/2000/svg">
<path fill-rule="evenodd" clip-rule="evenodd" d="M10.2177 3.83865C8.56011 3.83865 6.9704 4.49713 5.79829 5.66924C4.62619 6.84134 3.96771 8.43105 3.96771 10.0887C3.96771 10.9094 4.12937 11.7221 4.44347 12.4804C4.75756 13.2387 5.21793 13.9277 5.79829 14.5081C6.37866 15.0884 7.06766 15.5488 7.82594 15.8629C8.58423 16.177 9.39695 16.3387 10.2177 16.3387C11.0385 16.3387 11.8512 16.177 12.6095 15.8629C13.3678 15.5488 14.0568 15.0884 14.6371 14.5081C15.2175 13.9277 15.6779 13.2387 15.992 12.4804C16.3061 11.7221 16.4677 10.9094 16.4677 10.0887C16.4677 8.43105 15.8092 6.84134 14.6371 5.66924C13.465 4.49713 11.8753 3.83865 10.2177 3.83865ZM4.73763 4.60858C6.19104 3.15517 8.16228 2.33865 10.2177 2.33865C12.2731 2.33865 14.2444 3.15517 15.6978 4.60858C17.1512 6.06198 17.9677 8.03323 17.9677 10.0887C17.9677 11.1064 17.7673 12.1142 17.3778 13.0544C17.0843 13.7629 16.6879 14.4226 16.2024 15.0127L21.748 20.5583C22.0409 20.8512 22.0409 21.3261 21.748 21.619C21.4551 21.9119 20.9803 21.9119 20.6874 21.619L15.1417 16.0733C14.5517 16.5588 13.892 16.9553 13.1835 17.2487C12.2432 17.6382 11.2355 17.8387 10.2177 17.8387C9.19997 17.8387 8.19219 17.6382 7.25192 17.2487C6.31164 16.8592 5.45729 16.2884 4.73763 15.5687C4.01798 14.8491 3.44712 13.9947 3.05765 13.0544C2.66817 12.1142 2.46771 11.1064 2.46771 10.0887C2.46771 8.03323 3.28423 6.06198 4.73763 4.60858ZM10.2177 6.33865C10.6319 6.33865 10.9677 6.67444 10.9677 7.08865V9.33865H13.2177C13.6319 9.33865 13.9677 9.67444 13.9677 10.0887C13.9677 10.5029 13.6319 10.8387 13.2177 10.8387H10.9677V13.0887C10.9677 13.5029 10.6319 13.8387 10.2177 13.8387C9.8035 13.8387 9.46771 13.5029 9.46771 13.0887V10.8387H7.21771C6.8035 10.8387 6.46771 10.5029 6.46771 10.0887C6.46771 9.67444 6.8035 9.33865 7.21771 9.33865H9.46771V7.08865C9.46771 6.67444 9.8035 6.33865 10.2177 6.33865Z" fill="#3B3B3B"/>
</svg>
